<?xml version="1.0" standalone="no"?>
<!DOCTYPE svg PUBLIC "-//W3C//DTD SVG 1.1//EN" "http://www.w3.org/Graphics/SVG/1.1/DTD/svg11.dtd" >
<svg xmlns="http://www.w3.org/2000/svg" xmlns:xlink="http://www.w3.org/1999/xlink" version="1.1">
<metadata>
Created by FontForge 20201107 at Tue Feb 13 19:36:19 2024
 By 
Copyright (c) 2023 by Misha Ivanov.
</metadata>
<defs>
<font id="Angst-Bold" horiz-adv-x="0" >
  <font-face 
    font-family="Angst Bold"
    font-weight="700"
    font-stretch="normal"
    units-per-em="2048"
    panose-1="0 0 0 0 0 0 0 0 0 0"
    ascent="1638"
    descent="-410"
    cap-height="1434"
    bbox="-100 -580 2482 2093"
    underline-thickness="102"
    underline-position="-255"
    unicode-range="U+0020-2212"
  />
<missing-glyph horiz-adv-x="1024" 
d="M840 1638v-2048h-650v2048h650zM342 -268h340v67h-209l143 97h66v67h-340v-67h143l-143 -97v-67zM342 10h340v232h-340v-232zM342 365h340v231h-205v-115h70v47h67v-96h-204v164h-68v-231zM342 641h340v205h-68v-135h-272v-70zM342 758h205v143h135v68h-340v-68h135v-76
h-135v-67zM342 1024h340v70h-135v143h-205v-213zM342 1290h340v68h-135v76h135v67h-338v-67h133v-76h-135v-68zM410 78v96h204v-96h-204zM410 1094v73h67v-73h-67z" />
    <glyph glyph-name="T_T.liga" unicode="TT" horiz-adv-x="2048" 
d="M82 1434h1966v-101h-8q-66 15 -187 15h-122v-1133q0 -138 12 -197l2 -10v-8h-336v8l2 10q12 59 12 197v1133h-168h-186h-8h-187h-167v-1133q0 -138 12 -197l2 -10v-8h-336v8l2 10q12 59 12 197v1133h-123q-120 0 -186 -15h-8v101z" />
    <glyph glyph-name="uni04220422.liga" unicode="&#x422;&#x422;" horiz-adv-x="2048" 
d="M82 1434h1966v-101h-8q-66 15 -187 15h-122v-1133q0 -138 12 -197l2 -10v-8h-336v8l2 10q12 59 12 197v1133h-168h-186h-8h-187h-167v-1133q0 -138 12 -197l2 -10v-8h-336v8l2 10q12 59 12 197v1133h-123q-120 0 -186 -15h-8v101z" />
    <glyph glyph-name="uni04070407.liga" unicode="&#x407;&#x407;" horiz-adv-x="1150" 
d="M688 8q10 66 10 187v1044q0 120 -10 186v9h328v-9q-10 -66 -10 -186v-1044q0 -121 10 -187v-8h-328v8zM51 1751q0 41 30.5 71.5t72.5 30.5q41 0 71.5 -30.5t30.5 -71.5q0 -42 -30 -72t-72 -30q-43 0 -73 29.5t-30 72.5zM135 0v8q10 66 10 187v1044q0 120 -10 186v9h328
v-9q-10 -66 -10 -186v-1044q0 -121 10 -187v-8h-328zM473 1751q0 42 30 72t72 30q41 0 72 -30.5t31 -71.5q0 -42 -30.5 -72t-72.5 -30q-43 0 -72.5 29.5t-29.5 72.5zM895 1751q0 42 30 72t72 30q41 0 72 -30.5t31 -71.5q0 -42 -30.5 -72t-72.5 -30q-43 0 -72.5 29.5
t-29.5 72.5z" />
    <glyph glyph-name=".notdef" horiz-adv-x="1024" 
d="M840 1638v-2048h-650v2048h650zM342 -268h340v67h-209l143 97h66v67h-340v-67h143l-143 -97v-67zM342 10h340v232h-340v-232zM342 365h340v231h-205v-115h70v47h67v-96h-204v164h-68v-231zM342 641h340v205h-68v-135h-272v-70zM342 758h205v143h135v68h-340v-68h135v-76
h-135v-67zM342 1024h340v70h-135v143h-205v-213zM342 1290h340v68h-135v76h135v67h-338v-67h133v-76h-135v-68zM410 78v96h204v-96h-204zM410 1094v73h67v-73h-67z" />
    <glyph glyph-name=".null" 
 />
    <glyph glyph-name="nonmarkingreturn" horiz-adv-x="682" 
 />
    <glyph glyph-name="space" unicode=" " horiz-adv-x="716" 
 />
    <glyph glyph-name="space" unicode="&#xa0;" horiz-adv-x="716" 
 />
    <glyph glyph-name="exclam" unicode="!" horiz-adv-x="573" 
d="M287 -12q-62 0 -103 41t-41 102q0 58 41.5 100.5t102.5 42.5q57 0 100 -43t43 -100q0 -60 -42.5 -101.5t-100.5 -41.5zM127 1309q-15 108 28 167.5t132 59.5t130.5 -59t26.5 -168q-19 -130 -67.5 -451.5t-71.5 -474.5h-39z" />
    <glyph glyph-name="quotedbl" unicode="&#x22;" horiz-adv-x="880" 
d="M133 954q38 45 65 86.5t40.5 70t19 50.5t4 33t-7.5 12q-53 9 -92 41.5t-39 91.5t41 101.5t102 42.5q60 0 102 -45.5t42 -114.5q0 -77 -52.5 -169.5t-175.5 -231.5zM492 1339q0 59 41 101.5t102 42.5q60 0 101.5 -45.5t41.5 -114.5q0 -77 -52.5 -169.5t-174.5 -231.5
l-49 32q38 45 65 86.5t40.5 70t19 50.5t4 33t-7.5 12q-53 9 -92 41.5t-39 91.5z" />
    <glyph glyph-name="numbersign" unicode="#" horiz-adv-x="1515" 
d="M745 1413l-124 -393h469l131 420l82 -27l-125 -393h256v-86h-283l-137 -434h420v-86h-447l-137 -434l-80 26l129 408h-469l-137 -434l-80 26l129 408h-260v86h287l135 434h-422v86h450l132 420zM457 500h469l135 434h-467z" />
    <glyph glyph-name="dollar" unicode="$" horiz-adv-x="1085" 
d="M612 1638v-170q154 -6 308 -59l4 -256h-56q-73 208 -256 229v-501l205 -199q176 -173 176 -346q0 -147 -106.5 -247t-304.5 -112v-182h-86v180q-227 10 -383 119v252h55q98 -257 328 -283v533l-230 223q-174 166 -174 316q0 67 26.5 125t78 104.5t136 74t193.5 31.5v168
h86zM358 1235q0 -110 127 -231l41 -39v417q-79 -7 -123.5 -46t-44.5 -101zM582 63q74 9 110.5 52.5t36.5 111.5q0 64 -34.5 137.5t-96.5 133.5l-16 16v-451z" />
    <glyph glyph-name="percent" unicode="%" horiz-adv-x="1495" 
d="M1315 1593l69 -49l-1208 -1657l-70 50zM61 1192q0 126 88 208.5t226 82.5t226.5 -82.5t88.5 -208.5q0 -136 -88 -220.5t-227 -84.5t-226.5 84.5t-87.5 220.5zM236 1178q0 -96 39 -158t100 -62q65 0 103 69.5t38 166.5q0 95 -39.5 156t-99.5 61q-64 0 -102.5 -69.5
t-38.5 -163.5zM805 281q0 126 87.5 208t225.5 82t227 -82t89 -208q0 -136 -88.5 -221t-227.5 -85q-138 0 -225.5 85t-87.5 221zM979 266q0 -96 39 -157.5t100 -61.5q65 0 103.5 69.5t38.5 166.5q0 95 -40 156t-100 61q-64 0 -102.5 -70t-38.5 -164z" />
    <glyph glyph-name="ampersand" unicode="&#x26;" horiz-adv-x="1251" 
d="M1034 918q123 -155 123 -365q0 -140 -65 -270l24 -35q28 -39 56 -68t57.5 -48t45.5 -28t47 -21t34 -13v-25q-67 -42 -146.5 -57.5t-165.5 3t-155 72.5q-141 -88 -305 -88q-113 0 -209.5 35.5t-161 95.5t-101 138t-36.5 162q0 128 69 237.5t187 175.5q-103 168 -103 311
q0 151 106 245.5t292 94.5q160 0 313 -61l4 -256h-49q-36 117 -111 174t-159 57q-74 0 -123 -40t-49 -111q0 -45 30 -98.5t97 -145.5l464 -643q31 82 31 182q0 287 -221 367v23h180zM299 477q0 -102 30 -183t80.5 -131t114 -76t133.5 -26q97 0 185 48q-19 19 -31 36
l-430 603q-82 -124 -82 -271z" />
    <glyph glyph-name="quotesingle" unicode="'" horiz-adv-x="573" 
d="M154 1022q38 45 65 86.5t40 70t18.5 50.5t4 33t-7.5 12q-53 9 -92 41.5t-39 91.5t41.5 101t102.5 42q60 0 101.5 -45t41.5 -114q0 -77 -52.5 -170t-174.5 -232z" />
    <glyph glyph-name="parenleft" unicode="(" horiz-adv-x="737" 
d="M666 1585q-285 -435 -285 -868q0 -431 285 -869l-58 -55q-506 347 -506 924q0 576 506 923z" />
    <glyph glyph-name="parenright" unicode=")" horiz-adv-x="737" 
d="M119 1640q506 -347 506 -923q0 -577 -506 -924l-58 55q285 438 285 869q0 433 -285 868z" />
    <glyph glyph-name="asterisk" unicode="*" horiz-adv-x="983" 
d="M559 1577l-29 -256l13 -6l207 151l67 -116l-235 -105v-6v-6l235 -105l-67 -116l-205 151l-15 -6l29 -256h-135l29 256l-13 6l-207 -151l-67 116l235 105v6v6l-235 105l67 116l207 -151l13 6l-29 256h135z" />
    <glyph glyph-name="plus" unicode="+" horiz-adv-x="942" 
d="M51 760h377v397h86v-397h377v-86h-377v-398h-86v398h-377v86z" />
    <glyph glyph-name="comma" unicode="," horiz-adv-x="573" 
d="M154 -252q38 45 65 86.5t40 70t18.5 50.5t4 33t-7.5 12q-53 9 -92 41.5t-39 91.5t41.5 101t102.5 42q60 0 101.5 -45t41.5 -114q0 -77 -52.5 -170t-174.5 -232z" />
    <glyph glyph-name="hyphen" unicode="-" horiz-adv-x="819" 
d="M20 760h779v-86h-779v86z" />
    <glyph glyph-name="period" unicode="." horiz-adv-x="573" 
d="M287 -12q-62 0 -103 41t-41 102q0 58 41.5 100.5t102.5 42.5q57 0 100 -43t43 -100q0 -60 -42.5 -101.5t-100.5 -41.5z" />
    <glyph glyph-name="slash" unicode="/" horiz-adv-x="1105" 
d="M963 1659l77 -37l-901 -1841l-78 37z" />
    <glyph glyph-name="zero" unicode="0" horiz-adv-x="1392" 
d="M696 -33q-178 0 -318 96t-218 268.5t-78 391.5t78 391.5t218 268.5t318 96q177 0 317.5 -96t219 -268.5t78.5 -391.5t-78.5 -391.5t-219 -268.5t-317.5 -96zM391 700q0 -284 82 -465.5t211 -181.5q86 0 153.5 88t105.5 247.5t38 361.5q0 185 -37 332t-104 229t-152 82
q-86 0 -154 -88.5t-105.5 -247t-37.5 -357.5z" />
    <glyph glyph-name="one" unicode="1" horiz-adv-x="692" 
d="M78 989l436 445h66q-12 -45 -14.5 -107.5t-2.5 -302.5v-809q0 -141 10 -207v-8h-331v8q9 40 11.5 75.5t2.5 131.5v817l-137 -94z" />
    <glyph glyph-name="two" unicode="2" horiz-adv-x="1175" 
d="M154 53q163 140 280.5 280.5t181 265.5t91.5 231.5t28 205.5q0 169 -71.5 263t-171.5 94q-202 0 -267 -336h-41v340q187 82 394 82q215 0 339.5 -115.5t124.5 -312.5q0 -192 -139 -380t-407 -380h307q103 0 136 2t71 12h8v-305h-864v53z" />
    <glyph glyph-name="three" unicode="3" horiz-adv-x="1126" 
d="M168 1434h836l4 -7l-457 -559h51q134 0 247.5 -52t185 -156.5t71.5 -241.5q0 -123 -68.5 -227t-187.5 -164t-260 -60q-152 0 -296 58.5t-220 164.5v273h53q48 -199 146 -303.5t243 -104.5q124 0 203.5 105.5t79.5 271.5t-73 256t-206 90q-42 0 -88 -6l-31 47l250 307
h-268q-96 0 -131.5 -2.5t-75.5 -11.5h-8v322z" />
    <glyph glyph-name="four" unicode="4" horiz-adv-x="976" 
d="M823 1434q-10 -61 -10 -195v-868q57 0 115 6h8v-96h-8q-78 4 -115 4v-70q0 -141 10 -207v-8h-331v8q9 40 11.5 75.5t2.5 131.5v70h-514l-12 20l804 1129h39zM135 375q-4 -4 4 -4h367v524z" />
    <glyph glyph-name="five" unicode="5" horiz-adv-x="1290" 
d="M375 1434h669v-304h-8q-39 10 -73.5 12.5t-133.5 2.5h-417l-52 -311q122 94 302 94q222 0 363.5 -127.5t141.5 -325.5q0 -75 -23 -148t-70.5 -138t-113.5 -114.5t-159 -78.5t-201 -29q-154 0 -267.5 56t-174.5 143l47 270l55 -6q15 -180 92 -278.5t207 -98.5q56 0 109 25
t96.5 72.5t69.5 125t26 173.5q0 103 -29.5 190t-94 145t-154.5 58q-171 0 -287 -160l-45 18z" />
    <glyph glyph-name="six" unicode="6" horiz-adv-x="1249" 
d="M637 -33q-129 0 -234 45t-173 122.5t-105 180.5t-37 220q0 127 37 255.5t116 250t189 217t269 157t343 68.5v-70q-142 -20 -255.5 -82t-185.5 -147.5t-119.5 -195.5t-67 -219t-19.5 -224q0 -207 68.5 -349.5t181.5 -142.5q73 0 127 60.5t79.5 150t25.5 191.5
q0 95 -22 174.5t-71.5 132.5t-117.5 53q-50 0 -115 -29l-23 56q42 37 104 57.5t118 20.5q186 0 305 -126.5t119 -324.5q0 -95 -33 -182.5t-96.5 -160t-169 -116t-238.5 -43.5z" />
    <glyph glyph-name="seven" unicode="7" horiz-adv-x="880" 
d="M61 1434h881l-555 -1241q-49 -110 -63 -185l-2 -8h-123v8q43 69 96 187l424 948h-443q-99 0 -133 -2.5t-73 -12.5h-9v306z" />
    <glyph glyph-name="eight" unicode="8" horiz-adv-x="1269" 
d="M635 -25q-236 0 -387.5 119.5t-151.5 306.5q0 131 75.5 232t207.5 153q-80 54 -126 133.5t-46 170.5q0 169 119.5 277t308.5 108t308.5 -108t119.5 -277q0 -91 -46 -170.5t-126 -133.5q132 -52 207.5 -153t75.5 -232q0 -187 -151.5 -306.5t-387.5 -119.5zM383 403
q0 -142 74.5 -242t179.5 -100q101 0 175.5 100.5t74.5 241.5q0 138 -74.5 238t-175.5 100q-104 0 -179 -99.5t-75 -238.5zM451 1104q0 -120 54 -204.5t130 -84.5q74 0 127 84.5t53 204.5q0 117 -53 201t-127 84q-76 0 -130 -84t-54 -201z" />
    <glyph glyph-name="nine" unicode="9" horiz-adv-x="1249" 
d="M612 1470q129 0 234 -45t173 -122t105 -180t37 -220q0 -103 -27 -209t-78.5 -209t-133 -193.5t-184.5 -161t-240 -114t-291 -49.5v72q142 19 255.5 80t185.5 145t119.5 192t67 215.5t19.5 221.5q0 207 -68.5 349t-181.5 142q-73 0 -127 -60t-79 -149.5t-25 -191.5
q0 -95 22 -174.5t71.5 -132.5t117.5 -53q51 0 114 28l23 -55q-42 -37 -104 -57.5t-117 -20.5q-186 0 -305 126.5t-119 324.5q0 75 20 146.5t63 136t104.5 113t151.5 77t197 28.5z" />
    <glyph glyph-name="colon" unicode=":" horiz-adv-x="573" 
d="M287 295q-62 0 -103 41t-41 102q0 58 42 101t102 43q57 0 100 -43.5t43 -100.5q0 -60 -42.5 -101.5t-100.5 -41.5zM143 1077q0 58 42 101t102 43q57 0 100 -43.5t43 -100.5q0 -60 -42.5 -101.5t-100.5 -41.5q-62 0 -103 41t-41 102z" />
    <glyph glyph-name="semicolon" unicode=";" horiz-adv-x="573" 
d="M287 940q-62 0 -103 41t-41 102q0 58 42 101t102 43q57 0 100 -43.5t43 -100.5q0 -60 -42.5 -101.5t-100.5 -41.5zM143 444q0 59 41.5 101.5t102.5 42.5q60 0 101.5 -45.5t41.5 -114.5q0 -77 -52.5 -169.5t-174.5 -231.5l-49 32q38 45 65 86.5t40 70t18.5 50.5t4 33
t-7.5 12q-53 9 -92 41.5t-39 91.5z" />
    <glyph glyph-name="less" unicode="&#x3c;" horiz-adv-x="935" 
d="M731 1198l49 -53l-438 -418l438 -418l-49 -53l-526 471z" />
    <glyph glyph-name="equal" unicode="=" horiz-adv-x="942" 
d="M51 944h840v-86h-840v86zM51 530v86h840v-86h-840z" />
    <glyph glyph-name="greater" unicode="&#x3e;" horiz-adv-x="935" 
d="M246 1198l526 -471l-526 -471l-49 53l438 418l-438 418z" />
    <glyph glyph-name="question" unicode="?" horiz-adv-x="911" 
d="M395 -12q-61 0 -102 41t-41 102q0 58 41.5 100.5t101.5 42.5q57 0 100.5 -43t43.5 -100q0 -60 -43 -101.5t-101 -41.5zM115 1176l16 249q127 45 279 45q201 0 312.5 -80.5t111.5 -209.5q0 -143 -125 -285l-138 -158q-10 -12 -46 -51.5t-50 -57.5t-36.5 -50.5t-31 -62
t-8.5 -60.5q0 -21 7 -49l-19 -21q-123 75 -123 184q0 62 33 129.5t94 153.5l78 111q41 60 67.5 129.5t26.5 130.5q0 73 -40.5 117t-116.5 44q-75 0 -145.5 -54.5t-104.5 -153.5h-41z" />
    <glyph glyph-name="at" unicode="@" horiz-adv-x="1679" 
d="M776 1167q136 0 219 54l213 -600q25 -70 38.5 -104.5t33.5 -76t37.5 -58.5t36.5 -17q42 0 66 91.5t24 248.5q0 137 -31.5 254.5t-85 200t-124 141.5t-149 87.5t-159.5 28.5q-82 0 -161 -29.5t-149 -91.5t-123 -148t-83.5 -207.5t-30.5 -262.5q0 -137 28.5 -247.5
t77 -183.5t115.5 -122t142 -70.5t159 -21.5q113 0 225.5 37t207.5 104l36 -47q-101 -86 -229.5 -133t-269.5 -47q-160 0 -304.5 61t-248.5 165t-165 248t-61 304t61 304t165 248t248.5 165t304.5 61t304 -61t248 -165t165 -248t61 -304q0 -203 -89 -328t-210 -125
q-109 0 -182 67.5t-125 217.5l-11 27h-348l-35 -97q-26 -72 -26 -104v-4h-107v4q0 1 4 9t13.5 32.5t23.5 62.5zM684 670h289l-144 405z" />
    <glyph glyph-name="A" unicode="A" horiz-adv-x="1228" 
d="M528 1434q158 0 228 57l452 -1276q53 -154 80 -207v-8h-364v8l2 9q1 9 0 21t-4.5 33.5t-13.5 58.5t-27 85l-47 137h-631l-51 -137q-14 -35 -24 -64t-16 -49.5t-10 -35.5t-5 -25.5t-1.5 -15.5t0.5 -11v-6v-8h-129v8q34 68 88 207zM236 438h567l-271 779z" />
    <glyph glyph-name="A" unicode="a" horiz-adv-x="1228" 
d="M528 1434q158 0 228 57l452 -1276q53 -154 80 -207v-8h-364v8l2 9q1 9 0 21t-4.5 33.5t-13.5 58.5t-27 85l-47 137h-631l-51 -137q-14 -35 -24 -64t-16 -49.5t-10 -35.5t-5 -25.5t-1.5 -15.5t0.5 -11v-6v-8h-129v8q34 68 88 207zM236 438h567l-271 779z" />
    <glyph glyph-name="B" unicode="B" horiz-adv-x="1320" 
d="M659 1434q199 0 315 -82.5t116 -229.5q0 -92 -59.5 -163.5t-162.5 -100.5q180 -18 296 -125t116 -274q0 -212 -156 -335.5t-422 -123.5h-589v8q10 66 10 207v1004q0 140 -10 206v9h546zM430 86h215q149 0 238.5 96.5t89.5 255.5q0 166 -109 258.5t-305 110.5l-47 4v53
l25 4q266 45 266 260q0 101 -67.5 160.5t-184.5 59.5h-121v-1262z" />
    <glyph glyph-name="B" unicode="b" horiz-adv-x="1320" 
d="M659 1434q199 0 315 -82.5t116 -229.5q0 -92 -59.5 -163.5t-162.5 -100.5q180 -18 296 -125t116 -274q0 -212 -156 -335.5t-422 -123.5h-589v8q10 66 10 207v1004q0 140 -10 206v9h546zM430 86h215q149 0 238.5 96.5t89.5 255.5q0 166 -109 258.5t-305 110.5l-47 4v53
l25 4q266 45 266 260q0 101 -67.5 160.5t-184.5 59.5h-121v-1262z" />
    <glyph glyph-name="C" unicode="C" horiz-adv-x="1488" 
d="M1386 1247v-282h-47q-13 99 -55.5 181.5t-103.5 137t-135.5 84t-153.5 29.5q-76 0 -147.5 -25.5t-136.5 -81.5t-113 -136.5t-76.5 -199t-28.5 -260.5q0 -161 39 -286.5t105.5 -201.5t148.5 -114.5t174 -38.5q104 0 201 48.5t173 145t109 224.5h47v-268
q-109 -108 -257.5 -172t-313.5 -64q-156 0 -295.5 59.5t-240 161t-159.5 241.5t-59 296t59 296t159.5 241.5t240 161t295.5 59.5q167 0 315 -64t256 -172z" />
    <glyph glyph-name="C" unicode="c" horiz-adv-x="1488" 
d="M1386 1247v-282h-47q-13 99 -55.5 181.5t-103.5 137t-135.5 84t-153.5 29.5q-76 0 -147.5 -25.5t-136.5 -81.5t-113 -136.5t-76.5 -199t-28.5 -260.5q0 -161 39 -286.5t105.5 -201.5t148.5 -114.5t174 -38.5q104 0 201 48.5t173 145t109 224.5h47v-268
q-109 -108 -257.5 -172t-313.5 -64q-156 0 -295.5 59.5t-240 161t-159.5 241.5t-59 296t59 296t159.5 241.5t240 161t295.5 59.5q167 0 315 -64t256 -172z" />
    <glyph glyph-name="D" unicode="D" horiz-adv-x="1597" 
d="M766 1434q168 0 311 -53t244 -147t158 -227.5t57 -289.5q0 -197 -100.5 -361.5t-277.5 -260t-392 -95.5h-653v8q10 66 10 207v1004q0 140 -10 206v9h653zM430 86h315q110 0 201 53.5t149.5 144t90 209t31.5 250.5q0 271 -128.5 438t-334.5 167h-324v-1262z" />
    <glyph glyph-name="D" unicode="d" horiz-adv-x="1597" 
d="M766 1434q168 0 311 -53t244 -147t158 -227.5t57 -289.5q0 -197 -100.5 -361.5t-277.5 -260t-392 -95.5h-653v8q10 66 10 207v1004q0 140 -10 206v9h653zM430 86h315q110 0 201 53.5t149.5 144t90 209t31.5 250.5q0 271 -128.5 438t-334.5 167h-324v-1262z" />
    <glyph glyph-name="E" unicode="E" horiz-adv-x="1116" 
d="M113 1434h897v-107h-9q-38 14 -71 17.5t-115 3.5h-385v-351h420v-86h-420v-825h461q124 0 186 14h8v-100h-972v8q10 66 10 207v1004q0 140 -10 206v9z" />
    <glyph glyph-name="E" unicode="e" horiz-adv-x="1116" 
d="M113 1434h897v-107h-9q-38 14 -71 17.5t-115 3.5h-385v-351h420v-86h-420v-825h461q124 0 186 14h8v-100h-972v8q10 66 10 207v1004q0 140 -10 206v9z" />
    <glyph glyph-name="F" unicode="F" horiz-adv-x="1009" 
d="M113 1434h917v-101h-8q-66 15 -186 15h-406v-351h410v-86h-410v-696q0 -96 2.5 -131.5t11.5 -75.5v-8h-331v8q10 66 10 207v1004q0 140 -10 206v9z" />
    <glyph glyph-name="F" unicode="f" horiz-adv-x="1009" 
d="M113 1434h917v-101h-8q-66 15 -186 15h-406v-351h410v-86h-410v-696q0 -96 2.5 -131.5t11.5 -75.5v-8h-331v8q10 66 10 207v1004q0 140 -10 206v9z" />
    <glyph glyph-name="G" unicode="G" horiz-adv-x="1550" 
d="M1386 1247v-282h-47q-13 99 -55.5 181.5t-103.5 137t-135.5 84t-153.5 29.5q-76 0 -147.5 -25.5t-136.5 -81.5t-113 -136.5t-76.5 -199t-28.5 -260.5q0 -161 39 -286.5t105.5 -201.5t148.5 -114.5t174 -38.5q117 0 234 66v422q0 81 -2.5 114.5t-12.5 71.5v8h322v-8
q-11 -73 -11 -186v-338q-109 -108 -257.5 -172t-313.5 -64q-156 0 -295.5 59.5t-240 161t-159.5 241.5t-59 296t59 296t159.5 241.5t240 161t295.5 59.5q167 0 315 -64t256 -172z" />
    <glyph glyph-name="G" unicode="g" horiz-adv-x="1550" 
d="M1386 1247v-282h-47q-13 99 -55.5 181.5t-103.5 137t-135.5 84t-153.5 29.5q-76 0 -147.5 -25.5t-136.5 -81.5t-113 -136.5t-76.5 -199t-28.5 -260.5q0 -161 39 -286.5t105.5 -201.5t148.5 -114.5t174 -38.5q117 0 234 66v422q0 81 -2.5 114.5t-12.5 71.5v8h322v-8
q-11 -73 -11 -186v-338q-109 -108 -257.5 -172t-313.5 -64q-156 0 -295.5 59.5t-240 161t-159.5 241.5t-59 296t59 296t159.5 241.5t240 161t295.5 59.5q167 0 315 -64t256 -172z" />
    <glyph glyph-name="H" unicode="H" horiz-adv-x="1433" 
d="M989 1434h332v-9q-10 -66 -10 -206v-1004q0 -141 10 -207v-8h-332v8q9 42 12 78t3 129v696h-574v-696q0 -96 2.5 -131.5t11.5 -75.5v-8h-331v8q10 66 10 207v1004q0 140 -10 206v9h331v-9q-9 -40 -11.5 -75t-2.5 -131v-222h574v222q0 93 -3 128.5t-12 77.5v9z" />
    <glyph glyph-name="H" unicode="h" horiz-adv-x="1433" 
d="M989 1434h332v-9q-10 -66 -10 -206v-1004q0 -141 10 -207v-8h-332v8q9 42 12 78t3 129v696h-574v-696q0 -96 2.5 -131.5t11.5 -75.5v-8h-331v8q10 66 10 207v1004q0 140 -10 206v9h331v-9q-9 -40 -11.5 -75t-2.5 -131v-222h574v222q0 93 -3 128.5t-12 77.5v9z" />
    <glyph glyph-name="I" unicode="I" horiz-adv-x="583" 
d="M129 1434h328v-9q-11 -73 -11 -206v-1004q0 -134 11 -207v-8h-328v8q10 66 10 207v1004q0 140 -10 206v9z" />
    <glyph glyph-name="I" unicode="i" horiz-adv-x="583" 
d="M129 1434h328v-9q-11 -73 -11 -206v-1004q0 -134 11 -207v-8h-328v8q10 66 10 207v1004q0 140 -10 206v9z" />
    <glyph glyph-name="J" unicode="J" horiz-adv-x="624" 
d="M170 1434h328v-9q-11 -73 -11 -206v-971q0 -270 -160 -426.5t-427 -183.5v53q280 92 280 581v947q0 140 -10 206v9z" />
    <glyph glyph-name="J" unicode="j" horiz-adv-x="624" 
d="M170 1434h328v-9q-11 -73 -11 -206v-971q0 -270 -160 -426.5t-427 -183.5v53q280 92 280 581v947q0 140 -10 206v9z" />
    <glyph glyph-name="K" unicode="K" horiz-adv-x="1288" 
d="M113 1434h331v-9q-9 -40 -11.5 -75t-2.5 -131v-390l416 390q194 182 194 206v9h162v-9q-12 -8 -23 -16.5t-25.5 -21.5t-25 -22t-32 -28.5t-34 -31.5t-43 -40.5t-48.5 -45.5l-137 -132l372 -829q46 -103 80 -151t74 -82v-25q-66 -21 -139 -12.5t-138.5 37.5t-123 89
t-91.5 142l-262 627l-176 -164v-504q0 -96 2.5 -131.5t11.5 -75.5v-8h-331v8q10 66 10 207v1004q0 140 -10 206v9z" />
    <glyph glyph-name="K" unicode="k" horiz-adv-x="1288" 
d="M113 1434h331v-9q-9 -40 -11.5 -75t-2.5 -131v-390l416 390q194 182 194 206v9h162v-9q-12 -8 -23 -16.5t-25.5 -21.5t-25 -22t-32 -28.5t-34 -31.5t-43 -40.5t-48.5 -45.5l-137 -132l372 -829q46 -103 80 -151t74 -82v-25q-66 -21 -139 -12.5t-138.5 37.5t-123 89
t-91.5 142l-262 627l-176 -164v-504q0 -96 2.5 -131.5t11.5 -75.5v-8h-331v8q10 66 10 207v1004q0 140 -10 206v9z" />
    <glyph glyph-name="L" unicode="L" horiz-adv-x="921" 
d="M113 1434h331v-9q-9 -40 -11.5 -75t-2.5 -131v-1133h318q124 0 186 14h8v-100h-829v8q10 66 10 207v1004q0 140 -10 206v9z" />
    <glyph glyph-name="L" unicode="l" horiz-adv-x="921" 
d="M113 1434h331v-9q-9 -40 -11.5 -75t-2.5 -131v-1133h318q124 0 186 14h8v-100h-829v8q10 66 10 207v1004q0 140 -10 206v9z" />
    <glyph glyph-name="M" unicode="M" horiz-adv-x="1720" 
d="M113 1434h123l614 -985l635 985h123q-11 -73 -11 -187v-1032q0 -134 11 -207v-8h-332v8q9 40 11.5 75.5t2.5 131.5v758l-573 -887h-2l-506 807v-678q0 -96 2.5 -131.5t11.5 -75.5v-8h-110v8q10 66 10 207v1032q0 121 -10 187z" />
    <glyph glyph-name="M" unicode="m" horiz-adv-x="1720" 
d="M113 1434h123l614 -985l635 985h123q-11 -73 -11 -187v-1032q0 -134 11 -207v-8h-332v8q9 40 11.5 75.5t2.5 131.5v758l-573 -887h-2l-506 807v-678q0 -96 2.5 -131.5t11.5 -75.5v-8h-110v8q10 66 10 207v1032q0 121 -10 187z" />
    <glyph glyph-name="N" unicode="N" horiz-adv-x="1454" 
d="M113 1434h65l1061 -981v766q0 96 -2.5 131t-11.5 75v9h110v-9q-10 -66 -10 -206v-1024q0 -88 2.5 -122t13.5 -73h-65l-1061 981v-766q0 -96 2.5 -131.5t11.5 -75.5v-8h-110v8q10 66 10 207v1024q0 88 -2.5 122t-13.5 73z" />
    <glyph glyph-name="N" unicode="n" horiz-adv-x="1454" 
d="M113 1434h65l1061 -981v766q0 96 -2.5 131t-11.5 75v9h110v-9q-10 -66 -10 -206v-1024q0 -88 2.5 -122t13.5 -73h-65l-1061 981v-766q0 -96 2.5 -131.5t11.5 -75.5v-8h-110v8q10 66 10 207v1024q0 88 -2.5 122t-13.5 73z" />
    <glyph glyph-name="O" unicode="O" horiz-adv-x="1638" 
d="M819 -33q-208 0 -382 101t-275 275t-101 382t101 382t275 275t382 101t382 -101t275 -275t101 -382t-101 -382t-275 -275t-382 -101zM401 694q0 -187 51.5 -333.5t145 -227t213.5 -80.5q107 0 195 61.5t142.5 163t84 226t29.5 256.5q0 184 -52.5 329.5t-147 226.5
t-214.5 81q-106 0 -193 -61t-141 -162t-83.5 -225t-29.5 -255z" />
    <glyph glyph-name="O" unicode="o" horiz-adv-x="1638" 
d="M819 -33q-208 0 -382 101t-275 275t-101 382t101 382t275 275t382 101t382 -101t275 -275t101 -382t-101 -382t-275 -275t-382 -101zM401 694q0 -187 51.5 -333.5t145 -227t213.5 -80.5q107 0 195 61.5t142.5 163t84 226t29.5 256.5q0 184 -52.5 329.5t-147 226.5
t-214.5 81q-106 0 -193 -61t-141 -162t-83.5 -225t-29.5 -255z" />
    <glyph glyph-name="P" unicode="P" horiz-adv-x="1210" 
d="M643 1434q267 0 422.5 -121t155.5 -332q0 -116 -50 -209.5t-134 -152t-190 -90t-222 -31.5q-39 0 -113 8v61h27q168 0 271 106t103 292q0 185 -87 284t-251 99h-145v-1133q0 -141 10 -207v-8h-327v8q10 66 10 207v1004q0 140 -10 206v9h530z" />
    <glyph glyph-name="P" unicode="p" horiz-adv-x="1210" 
d="M643 1434q267 0 422.5 -121t155.5 -332q0 -116 -50 -209.5t-134 -152t-190 -90t-222 -31.5q-39 0 -113 8v61h27q168 0 271 106t103 292q0 185 -87 284t-251 99h-145v-1133q0 -141 10 -207v-8h-327v8q10 66 10 207v1004q0 140 -10 206v9h530z" />
    <glyph glyph-name="Q" unicode="Q" horiz-adv-x="1669" 
d="M1632 -346q-58 -4 -84 -4q-122 0 -217 42t-162 116.5t-127 191.5q-115 -33 -223 -33q-208 0 -382 101t-275 275t-101 382t101 382t275 275t382 101t382 -101t275 -275t101 -382q0 -199 -93 -367.5t-253 -271.5q109 -184 195.5 -272.5t205.5 -135.5v-24zM377 760
q0 -105 18 -206.5t55.5 -192t89.5 -159t126.5 -109t160.5 -40.5q120 0 213.5 80.5t145 227t51.5 333.5q0 131 -29 255t-83.5 225t-141 162t-192.5 61q-120 0 -214.5 -81t-147 -226.5t-52.5 -329.5z" />
    <glyph glyph-name="Q" unicode="q" horiz-adv-x="1669" 
d="M1632 -346q-58 -4 -84 -4q-122 0 -217 42t-162 116.5t-127 191.5q-115 -33 -223 -33q-208 0 -382 101t-275 275t-101 382t101 382t275 275t382 101t382 -101t275 -275t101 -382q0 -199 -93 -367.5t-253 -271.5q109 -184 195.5 -272.5t205.5 -135.5v-24zM377 760
q0 -105 18 -206.5t55.5 -192t89.5 -159t126.5 -109t160.5 -40.5q120 0 213.5 80.5t145 227t51.5 333.5q0 131 -29 255t-83.5 225t-141 162t-192.5 61q-120 0 -214.5 -81t-147 -226.5t-52.5 -329.5z" />
    <glyph glyph-name="R" unicode="R" horiz-adv-x="1370" 
d="M764 1434q251 0 391.5 -81.5t140.5 -230.5q0 -115 -83 -192t-236 -105l250 -561q49 -110 79 -158.5t64 -80.5v-25q-91 -22 -183 0.5t-172.5 92.5t-125.5 179l-244 580l12 25q27 -3 64 -3q124 0 192 63.5t68 176.5q0 116 -79 175t-230 59h-242v-1133q0 -96 2.5 -131.5
t11.5 -75.5v-8h-331v8q10 66 10 207v1004q0 140 -10 206v9h651z" />
    <glyph glyph-name="R" unicode="r" horiz-adv-x="1370" 
d="M764 1434q251 0 391.5 -81.5t140.5 -230.5q0 -115 -83 -192t-236 -105l250 -561q49 -110 79 -158.5t64 -80.5v-25q-91 -22 -183 0.5t-172.5 92.5t-125.5 179l-244 580l12 25q27 -3 64 -3q124 0 192 63.5t68 176.5q0 116 -79 175t-230 59h-242v-1133q0 -96 2.5 -131.5
t11.5 -75.5v-8h-331v8q10 66 10 207v1004q0 140 -10 206v9h651z" />
    <glyph glyph-name="S" unicode="S" horiz-adv-x="995" 
d="M821 1409l4 -256h-49q-36 122 -101.5 176.5t-164.5 54.5q-77 0 -125.5 -38.5t-48.5 -110.5q0 -57 29 -107.5t96 -123.5l289 -322q145 -164 145 -346q0 -156 -109 -258.5t-303 -102.5q-213 0 -364 119v252h49q92 -282 321 -285q75 -2 120.5 37t45.5 115q0 68 -32.5 129
t-98.5 135l-288 322q-70 77 -107 164.5t-37 171.5q0 145 107.5 240t308.5 95q160 0 313 -61z" />
    <glyph glyph-name="S" unicode="s" horiz-adv-x="995" 
d="M821 1409l4 -256h-49q-36 122 -101.5 176.5t-164.5 54.5q-77 0 -125.5 -38.5t-48.5 -110.5q0 -57 29 -107.5t96 -123.5l289 -322q145 -164 145 -346q0 -156 -109 -258.5t-303 -102.5q-213 0 -364 119v252h49q92 -282 321 -285q75 -2 120.5 37t45.5 115q0 68 -32.5 129
t-98.5 135l-288 322q-70 77 -107 164.5t-37 171.5q0 145 107.5 240t308.5 95q160 0 313 -61z" />
    <glyph glyph-name="T" unicode="T" horiz-adv-x="1024" 
d="M82 1434h942v-101h-8q-66 15 -187 15h-122v-1133q0 -138 12 -197l2 -10v-8h-336v8l2 10q12 59 12 197v1133h-123q-120 0 -186 -15h-8v101z" />
    <glyph glyph-name="T" unicode="t" horiz-adv-x="1024" 
d="M82 1434h942v-101h-8q-66 15 -187 15h-122v-1133q0 -138 12 -197l2 -10v-8h-336v8l2 10q12 59 12 197v1133h-123q-120 0 -186 -15h-8v101z" />
    <glyph glyph-name="U" unicode="U" horiz-adv-x="1404" 
d="M129 1434h332v-9q-9 -42 -12 -77.5t-3 -128.5v-678q0 -211 101 -334t274 -123q171 0 272 118t101 314v703q0 96 -2.5 131t-11.5 75v9h116v-9q-10 -66 -10 -206v-691q0 -262 -154 -411.5t-419 -149.5q-264 0 -419 148t-155 401v703q0 140 -10 206v9z" />
    <glyph glyph-name="U" unicode="u" horiz-adv-x="1404" 
d="M129 1434h332v-9q-9 -42 -12 -77.5t-3 -128.5v-678q0 -211 101 -334t274 -123q171 0 272 118t101 314v703q0 96 -2.5 131t-11.5 75v9h116v-9q-10 -66 -10 -206v-691q0 -262 -154 -411.5t-419 -149.5q-264 0 -419 148t-155 401v703q0 140 -10 206v9z" />
    <glyph glyph-name="V" unicode="V" horiz-adv-x="1187" 
d="M-20 1434h366v-9q0 -1 -1.5 -9t-1.5 -20t2.5 -33t12 -58.5t25.5 -85.5l336 -992l360 992q13 35 22 64t14.5 49.5t9 35t4.5 25t1.5 16t0 10.5t-0.5 6v9h130v-9q-37 -75 -86 -206l-455 -1219q-157 0 -227 -57l-435 1276q-51 154 -77 206v9z" />
    <glyph glyph-name="V" unicode="v" horiz-adv-x="1187" 
d="M-20 1434h366v-9q0 -1 -1.5 -9t-1.5 -20t2.5 -33t12 -58.5t25.5 -85.5l336 -992l360 992q13 35 22 64t14.5 49.5t9 35t4.5 25t1.5 16t0 10.5t-0.5 6v9h130v-9q-37 -75 -86 -206l-455 -1219q-157 0 -227 -57l-435 1276q-51 154 -77 206v9z" />
    <glyph glyph-name="W" unicode="W" horiz-adv-x="2045" 
d="M-23 1434h365v-15q0 -79 41 -200l338 -983l358 1124h13l454 -1124l344 983q49 139 49 198v17h129v-9q-1 -1 -5.5 -9t-10.5 -20t-15.5 -33t-23.5 -58.5t-31 -85.5l-426 -1219q-53 0 -117 -15.5t-110 -41.5l-336 868l-256 -811q-53 0 -117 -15.5t-110 -41.5l-451 1276
q-51 144 -82 206v9z" />
    <glyph glyph-name="W" unicode="w" horiz-adv-x="2045" 
d="M-23 1434h365v-15q0 -79 41 -200l338 -983l358 1124h13l454 -1124l344 983q49 139 49 198v17h129v-9q-1 -1 -5.5 -9t-10.5 -20t-15.5 -33t-23.5 -58.5t-31 -85.5l-426 -1219q-53 0 -117 -15.5t-110 -41.5l-336 868l-256 -811q-53 0 -117 -15.5t-110 -41.5l-451 1276
q-51 144 -82 206v9z" />
    <glyph glyph-name="X" unicode="X" horiz-adv-x="1316" 
d="M29 1434h389l2 -9q13 -41 90 -159l225 -344l219 344q85 133 91 148q2 4 4 11l2 9h147v-9l-9.5 -9.5l-11.5 -11.5t-12 -12.5t-15 -17t-16.5 -19.5t-20 -25t-21.5 -30.5t-26 -38t-30 -44.5l-245 -379l401 -619q93 -144 151 -211v-8h-389l-2 8q-5 17 -9 26t-23.5 42.5
t-57.5 91.5l-303 463l-301 -463q-60 -92 -74 -116t-20 -44l-2 -8h-148v8q25 25 36 36.5t47.5 59t80.5 113.5l328 496l-330 504q-101 154 -147 208v9z" />
    <glyph glyph-name="X" unicode="x" horiz-adv-x="1316" 
d="M29 1434h389l2 -9q13 -41 90 -159l225 -344l219 344q85 133 91 148q2 4 4 11l2 9h147v-9l-9.5 -9.5l-11.5 -11.5t-12 -12.5t-15 -17t-16.5 -19.5t-20 -25t-21.5 -30.5t-26 -38t-30 -44.5l-245 -379l401 -619q93 -144 151 -211v-8h-389l-2 8q-5 17 -9 26t-23.5 42.5
t-57.5 91.5l-303 463l-301 -463q-60 -92 -74 -116t-20 -44l-2 -8h-148v8q25 25 36 36.5t47.5 59t80.5 113.5l328 496l-330 504q-101 154 -147 208v9z" />
    <glyph glyph-name="Y" unicode="Y" horiz-adv-x="1267" 
d="M119 1217q-113 163 -164 208v9h403l2 -9q5 -17 21 -43t78 -116l299 -424l291 424q23 34 38.5 58.5t23 41t10.5 24.5t5.5 19.5t3.5 15.5l3 9h145v-9q-66 -75 -158 -208l-293 -426v-596q0 -114 11 -187v-8h-328v8q10 66 10 187v450z" />
    <glyph glyph-name="Y" unicode="y" horiz-adv-x="1267" 
d="M119 1217q-113 163 -164 208v9h403l2 -9q5 -17 21 -43t78 -116l299 -424l291 424q23 34 38.5 58.5t23 41t10.5 24.5t5.5 19.5t3.5 15.5l3 9h145v-9q-66 -75 -158 -208l-293 -426v-596q0 -114 11 -187v-8h-328v8q10 66 10 187v450z" />
    <glyph glyph-name="Z" unicode="Z" horiz-adv-x="1167" 
d="M195 1434h931l-622 -1342h385q124 0 186 14h8v-106h-960l627 1348h-361q-120 0 -186 -15h-8v101z" />
    <glyph glyph-name="Z" unicode="z" horiz-adv-x="1167" 
d="M195 1434h931l-622 -1342h385q124 0 186 14h8v-106h-960l627 1348h-361q-120 0 -186 -15h-8v101z" />
    <glyph glyph-name="bracketleft" unicode="[" horiz-adv-x="716" 
d="M106 1638h488v-86h-201v-1671h201v-86h-488v1843z" />
    <glyph glyph-name="backslash" unicode="\" horiz-adv-x="1105" 
d="M141 1659l901 -1841l-77 -37l-902 1841z" />
    <glyph glyph-name="bracketright" unicode="]" horiz-adv-x="716" 
d="M610 1638v-1843h-487v86h201v1671h-201v86h487z" />
    <glyph glyph-name="asciicircum" unicode="^" horiz-adv-x="1228" 
d="M1038 1028l-51 -47l-373 393l-374 -393l-50 47l424 473z" />
    <glyph glyph-name="underscore" unicode="_" horiz-adv-x="1536" 
d="M92 86h1352v-86h-1352v86z" />
    <glyph glyph-name="braceleft" unicode="{" horiz-adv-x="962" 
d="M846 -190q-112 0 -188 11.5t-120.5 37t-66 49.5t-43.5 65q-26 49 -45 169.5t-42.5 251t-59.5 202.5q-41 81 -117 98v58q48 11 74.5 40.5t42.5 79.5q18 56 35 172t42.5 231.5t69.5 199.5q22 41 43.5 65t66 49.5t120.5 37t188 11.5v-41q-93 -21 -137 -120
q-22 -50 -36.5 -132.5t-22 -156.5t-27.5 -161.5t-52 -149.5q-31 -58 -80.5 -97t-107.5 -49v-16q57 -7 106.5 -46t81.5 -98q34 -66 53.5 -152.5t25.5 -157t20.5 -153.5t40.5 -141q45 -98 135 -117v-40z" />
    <glyph glyph-name="braceright" unicode="}" horiz-adv-x="962" 
d="M117 -150q90 19 135 117q26 58 40.5 141t20 153.5t25 157t53.5 152.5q32 58 82 97.5t107 46.5v16q-58 10 -108 49t-81 97q-41 78 -60.5 195t-34.5 230t-42 175q-44 99 -137 120v41q112 0 188 -11.5t120.5 -37t66 -49.5t43.5 -65q44 -84 69.5 -199.5t42.5 -231.5t35 -172
q16 -50 42.5 -79.5t74.5 -40.5v-58q-76 -17 -117 -98q-36 -72 -59.5 -202.5t-42.5 -251t-45 -169.5q-22 -41 -43.5 -65t-66 -49.5t-120.5 -37t-188 -11.5v40z" />
    <glyph glyph-name="asciitilde" unicode="~" horiz-adv-x="997" 
d="M455 692q108 -53 200 -53q111 0 209 80l-20 39q-39 -25 -68 -25q-25 0 -53.5 11t-84.5 40.5t-95 46.5q-110 54 -201 54q-111 0 -209 -80l21 -39q39 25 67 25q25 0 54 -11.5t85 -40.5t95 -47z" />
    <glyph glyph-name="section" unicode="&#xa7;" horiz-adv-x="1140" 
d="M913 1430l5 -246h-50q-23 72 -66.5 118.5t-89.5 64t-98 17.5q-81 0 -122 -39.5t-41 -97.5q0 -78 114 -198l279 -291q149 -155 149 -320q0 -97 -55.5 -173.5t-157.5 -114.5q142 -157 142 -306q0 -127 -105.5 -206.5t-286.5 -79.5q-201 0 -354 90l-14 239h49
q44 -126 131.5 -184.5t185.5 -58.5q70 0 120 42.5t50 104.5q0 40 -25 82t-87 107l-279 290q-149 155 -149 322q0 97 55 173t158 114q-142 159 -142 288q0 79 32 138.5t89 95t129 52.5t158 17q149 0 276 -40zM369 702q0 -128 114 -245l248 -258q53 50 53 129q0 124 -116 243
l-248 258q-51 -48 -51 -127z" />
    <glyph glyph-name="guillemotleft" unicode="&#xab;" horiz-adv-x="1024" 
d="M225 727l316 371l57 -47l-254 -324l252 -321l-55 -50zM494 727l315 371l55 -47l-252 -324l250 -321l-53 -50z" />
    <glyph glyph-name="plusminus" unicode="&#xb1;" horiz-adv-x="942" 
d="M51 883h377v213h86v-213h377v-86h-377v-213h-86v213h-377v86zM51 375v86h840v-86h-840z" />
    <glyph glyph-name="guillemotright" unicode="&#xbb;" horiz-adv-x="1024" 
d="M864 727l-315 -371l-55 50l251 321l-253 324l57 47zM225 1051l56 47l315 -371l-315 -371l-54 50l250 321z" />
    <glyph glyph-name="Agrave" unicode="&#xc0;" horiz-adv-x="1228" 
d="M528 1434q158 0 228 57l452 -1276q53 -154 80 -207v-8h-364v8l2 9q1 9 0 21t-4.5 33.5t-13.5 58.5t-27 85l-47 137h-631l-51 -137q-14 -35 -24 -64t-16 -49.5t-10 -35.5t-5 -25.5t-1.5 -15.5t0.5 -11v-6v-8h-129v8q34 68 88 207zM236 438h567l-271 779zM440 1835l111 92
l203 -325l-45 -39z" />
    <glyph glyph-name="Agrave" unicode="&#xe0;" horiz-adv-x="1228" 
d="M528 1434q158 0 228 57l452 -1276q53 -154 80 -207v-8h-364v8l2 9q1 9 0 21t-4.5 33.5t-13.5 58.5t-27 85l-47 137h-631l-51 -137q-14 -35 -24 -64t-16 -49.5t-10 -35.5t-5 -25.5t-1.5 -15.5t0.5 -11v-6v-8h-129v8q34 68 88 207zM236 438h567l-271 779zM440 1835l111 92
l203 -325l-45 -39z" />
    <glyph glyph-name="Aacute" unicode="&#xc1;" horiz-adv-x="1228" 
d="M528 1434q158 0 228 57l452 -1276q53 -154 80 -207v-8h-364v8l2 9q1 9 0 21t-4.5 33.5t-13.5 58.5t-27 85l-47 137h-631l-51 -137q-14 -35 -24 -64t-16 -49.5t-10 -35.5t-5 -25.5t-1.5 -15.5t0.5 -11v-6v-8h-129v8q34 68 88 207zM236 438h567l-271 779zM489 1622l203 326
l111 -93l-268 -272z" />
    <glyph glyph-name="Aacute" unicode="&#xe1;" horiz-adv-x="1228" 
d="M528 1434q158 0 228 57l452 -1276q53 -154 80 -207v-8h-364v8l2 9q1 9 0 21t-4.5 33.5t-13.5 58.5t-27 85l-47 137h-631l-51 -137q-14 -35 -24 -64t-16 -49.5t-10 -35.5t-5 -25.5t-1.5 -15.5t0.5 -11v-6v-8h-129v8q34 68 88 207zM236 438h567l-271 779zM489 1622l203 326
l111 -93l-268 -272z" />
    <glyph glyph-name="Acircumflex" unicode="&#xc2;" horiz-adv-x="1228" 
d="M528 1434q158 0 228 57l452 -1276q53 -154 80 -207v-8h-364v8l2 9q1 9 0 21t-4.5 33.5t-13.5 58.5t-27 85l-47 137h-631l-51 -137q-14 -35 -24 -64t-16 -49.5t-10 -35.5t-5 -25.5t-1.5 -15.5t0.5 -11v-6v-8h-129v8q34 68 88 207zM236 438h567l-271 779zM381 1626l248 215
l248 -215l-41 -55l-213 106l-201 -106z" />
    <glyph glyph-name="Acircumflex" unicode="&#xe2;" horiz-adv-x="1228" 
d="M528 1434q158 0 228 57l452 -1276q53 -154 80 -207v-8h-364v8l2 9q1 9 0 21t-4.5 33.5t-13.5 58.5t-27 85l-47 137h-631l-51 -137q-14 -35 -24 -64t-16 -49.5t-10 -35.5t-5 -25.5t-1.5 -15.5t0.5 -11v-6v-8h-129v8q34 68 88 207zM236 438h567l-271 779zM381 1626l248 215
l248 -215l-41 -55l-213 106l-201 -106z" />
    <glyph glyph-name="Atilde" unicode="&#xc3;" horiz-adv-x="1228" 
d="M528 1434q158 0 228 57l452 -1276q53 -154 80 -207v-8h-364v8l2 9q1 9 0 21t-4.5 33.5t-13.5 58.5t-27 85l-47 137h-631l-51 -137q-14 -35 -24 -64t-16 -49.5t-10 -35.5t-5 -25.5t-1.5 -15.5t0.5 -11v-6v-8h-129v8q34 68 88 207zM236 438h567l-271 779zM299 1747
q34 79 82.5 112t120.5 33q12 0 26.5 -2t25 -4.5t28 -8t25.5 -8.5t28.5 -10.5t26.5 -9.5q138 -65 202 -65q56 0 97 41l18 -23q-34 -79 -82.5 -112t-120.5 -33q-12 0 -26.5 2t-25 4.5t-28 8t-25.5 8.5t-28.5 10.5t-26.5 9.5q-138 65 -202 65q-56 0 -97 -41z" />
    <glyph glyph-name="Atilde" unicode="&#xe3;" horiz-adv-x="1228" 
d="M528 1434q158 0 228 57l452 -1276q53 -154 80 -207v-8h-364v8l2 9q1 9 0 21t-4.5 33.5t-13.5 58.5t-27 85l-47 137h-631l-51 -137q-14 -35 -24 -64t-16 -49.5t-10 -35.5t-5 -25.5t-1.5 -15.5t0.5 -11v-6v-8h-129v8q34 68 88 207zM236 438h567l-271 779zM299 1747
q34 79 82.5 112t120.5 33q12 0 26.5 -2t25 -4.5t28 -8t25.5 -8.5t28.5 -10.5t26.5 -9.5q138 -65 202 -65q56 0 97 41l18 -23q-34 -79 -82.5 -112t-120.5 -33q-12 0 -26.5 2t-25 4.5t-28 8t-25.5 8.5t-28.5 10.5t-26.5 9.5q-138 65 -202 65q-56 0 -97 -41z" />
    <glyph glyph-name="Adieresis" unicode="&#xc4;" horiz-adv-x="1228" 
d="M528 1434q158 0 228 57l452 -1276q53 -154 80 -207v-8h-364v8l2 9q1 9 0 21t-4.5 33.5t-13.5 58.5t-27 85l-47 137h-631l-51 -137q-14 -35 -24 -64t-16 -49.5t-10 -35.5t-5 -25.5t-1.5 -15.5t0.5 -11v-6v-8h-129v8q34 68 88 207zM236 438h567l-271 779zM352 1753
q0 41 30 71.5t73 30.5q40 0 71 -31t31 -71q0 -43 -30.5 -73.5t-71.5 -30.5q-44 0 -73.5 30t-29.5 74zM700 1753q0 39 30 69.5t73 30.5q40 0 71 -31t31 -69q0 -43 -30.5 -73.5t-71.5 -30.5q-44 0 -73.5 30t-29.5 74z" />
    <glyph glyph-name="Adieresis" unicode="&#xe4;" horiz-adv-x="1228" 
d="M528 1434q158 0 228 57l452 -1276q53 -154 80 -207v-8h-364v8l2 9q1 9 0 21t-4.5 33.5t-13.5 58.5t-27 85l-47 137h-631l-51 -137q-14 -35 -24 -64t-16 -49.5t-10 -35.5t-5 -25.5t-1.5 -15.5t0.5 -11v-6v-8h-129v8q34 68 88 207zM236 438h567l-271 779zM352 1753
q0 41 30 71.5t73 30.5q40 0 71 -31t31 -71q0 -43 -30.5 -73.5t-71.5 -30.5q-44 0 -73.5 30t-29.5 74zM700 1753q0 39 30 69.5t73 30.5q40 0 71 -31t31 -69q0 -43 -30.5 -73.5t-71.5 -30.5q-44 0 -73.5 30t-29.5 74z" />
    <glyph glyph-name="Aring" unicode="&#xc5;" horiz-adv-x="1228" 
d="M528 1434q158 0 228 57l452 -1276q53 -154 80 -207v-8h-364v8l2 9q1 9 0 21t-4.5 33.5t-13.5 58.5t-27 85l-47 137h-631l-51 -137q-14 -35 -24 -64t-16 -49.5t-10 -35.5t-5 -25.5t-1.5 -15.5t0.5 -11v-6v-8h-129v8q34 68 88 207zM236 438h567l-271 779zM465 1780
q0 71 46 117.5t118 46.5t118 -46.5t46 -117.5q0 -72 -46 -118t-118 -46t-118 46t-46 118zM557 1780q0 -43 20.5 -73t51.5 -30q30 0 50.5 30t20.5 73t-20 72.5t-51 29.5t-51.5 -29.5t-20.5 -72.5z" />
    <glyph glyph-name="Aring" unicode="&#xe5;" horiz-adv-x="1228" 
d="M528 1434q158 0 228 57l452 -1276q53 -154 80 -207v-8h-364v8l2 9q1 9 0 21t-4.5 33.5t-13.5 58.5t-27 85l-47 137h-631l-51 -137q-14 -35 -24 -64t-16 -49.5t-10 -35.5t-5 -25.5t-1.5 -15.5t0.5 -11v-6v-8h-129v8q34 68 88 207zM236 438h567l-271 779zM465 1780
q0 71 46 117.5t118 46.5t118 -46.5t46 -117.5q0 -72 -46 -118t-118 -46t-118 46t-46 118zM557 1780q0 -43 20.5 -73t51.5 -30q30 0 50.5 30t20.5 73t-20 72.5t-51 29.5t-51.5 -29.5t-20.5 -72.5z" />
    <glyph glyph-name="AE" unicode="&#xc6;" horiz-adv-x="1751" 
d="M717 1434h928v-107h-9q-38 14 -71 17.5t-115 3.5h-385v-351h420v-86h-420v-825h461q124 0 186 14h8v-100h-972v8q10 66 10 207v137h-490l-75 -153q-22 -44 -37 -78t-21 -54t-8.5 -31t-2.5 -20l-1 -8v-8h-135v8q30 45 102 187zM311 438h447v897z" />
    <glyph glyph-name="AE" unicode="&#xe6;" horiz-adv-x="1751" 
d="M717 1434h928v-107h-9q-38 14 -71 17.5t-115 3.5h-385v-351h420v-86h-420v-825h461q124 0 186 14h8v-100h-972v8q10 66 10 207v137h-490l-75 -153q-22 -44 -37 -78t-21 -54t-8.5 -31t-2.5 -20l-1 -8v-8h-135v8q30 45 102 187zM311 438h447v897z" />
    <glyph glyph-name="Ccedilla" unicode="&#xc7;" horiz-adv-x="1488" 
d="M1386 1247v-282h-47q-13 99 -55.5 181.5t-103.5 137t-135.5 84t-153.5 29.5q-76 0 -147.5 -25.5t-136.5 -81.5t-113 -136.5t-76.5 -199t-28.5 -260.5q0 -161 39 -286.5t105.5 -201.5t148.5 -114.5t174 -38.5q104 0 201 48.5t173 145t109 224.5h47v-268
q-106 -105 -248.5 -168.5t-303.5 -67.5l-37 -69q68 4 111.5 -27.5t43.5 -83.5q0 -43 -28 -77t-72.5 -54.5t-97 -31.5t-105.5 -11l4 25q70 3 116 34.5t46 89.5q0 35 -24.5 61.5t-77.5 29.5l-8 24l57 92q-196 13 -356.5 116.5t-252.5 272.5t-92 367q0 156 59 296t159.5 241.5
t240 161t295.5 59.5q167 0 315 -64t256 -172z" />
    <glyph glyph-name="Ccedilla" unicode="&#xe7;" horiz-adv-x="1488" 
d="M1386 1247v-282h-47q-13 99 -55.5 181.5t-103.5 137t-135.5 84t-153.5 29.5q-76 0 -147.5 -25.5t-136.5 -81.5t-113 -136.5t-76.5 -199t-28.5 -260.5q0 -161 39 -286.5t105.5 -201.5t148.5 -114.5t174 -38.5q104 0 201 48.5t173 145t109 224.5h47v-268
q-106 -105 -248.5 -168.5t-303.5 -67.5l-37 -69q68 4 111.5 -27.5t43.5 -83.5q0 -43 -28 -77t-72.5 -54.5t-97 -31.5t-105.5 -11l4 25q70 3 116 34.5t46 89.5q0 35 -24.5 61.5t-77.5 29.5l-8 24l57 92q-196 13 -356.5 116.5t-252.5 272.5t-92 367q0 156 59 296t159.5 241.5
t240 161t295.5 59.5q167 0 315 -64t256 -172z" />
    <glyph glyph-name="Egrave" unicode="&#xc8;" horiz-adv-x="1116" 
d="M113 1434h897v-107h-9q-38 14 -71 17.5t-115 3.5h-385v-351h420v-86h-420v-825h461q124 0 186 14h8v-100h-972v8q10 66 10 207v1004q0 140 -10 206v9zM395 1835l111 92l203 -325l-45 -39z" />
    <glyph glyph-name="Egrave" unicode="&#xe8;" horiz-adv-x="1116" 
d="M113 1434h897v-107h-9q-38 14 -71 17.5t-115 3.5h-385v-351h420v-86h-420v-825h461q124 0 186 14h8v-100h-972v8q10 66 10 207v1004q0 140 -10 206v9zM395 1835l111 92l203 -325l-45 -39z" />
    <glyph glyph-name="Eacute" unicode="&#xc9;" horiz-adv-x="1116" 
d="M113 1434h897v-107h-9q-38 14 -71 17.5t-115 3.5h-385v-351h420v-86h-420v-825h461q124 0 186 14h8v-100h-972v8q10 66 10 207v1004q0 140 -10 206v9zM444 1622l203 326l111 -93l-269 -272z" />
    <glyph glyph-name="Eacute" unicode="&#xe9;" horiz-adv-x="1116" 
d="M113 1434h897v-107h-9q-38 14 -71 17.5t-115 3.5h-385v-351h420v-86h-420v-825h461q124 0 186 14h8v-100h-972v8q10 66 10 207v1004q0 140 -10 206v9zM444 1622l203 326l111 -93l-269 -272z" />
    <glyph glyph-name="Ecircumflex" unicode="&#xca;" horiz-adv-x="1116" 
d="M113 1434h897v-107h-9q-38 14 -71 17.5t-115 3.5h-385v-351h420v-86h-420v-825h461q124 0 186 14h8v-100h-972v8q10 66 10 207v1004q0 140 -10 206v9zM336 1626l248 215l247 -215l-40 -55l-213 106l-201 -106z" />
    <glyph glyph-name="Ecircumflex" unicode="&#xea;" horiz-adv-x="1116" 
d="M113 1434h897v-107h-9q-38 14 -71 17.5t-115 3.5h-385v-351h420v-86h-420v-825h461q124 0 186 14h8v-100h-972v8q10 66 10 207v1004q0 140 -10 206v9zM336 1626l248 215l247 -215l-40 -55l-213 106l-201 -106z" />
    <glyph glyph-name="Edieresis" unicode="&#xcb;" horiz-adv-x="1116" 
d="M113 1434h897v-107h-9q-38 14 -71 17.5t-115 3.5h-385v-351h420v-86h-420v-825h461q124 0 186 14h8v-100h-972v8q10 66 10 207v1004q0 140 -10 206v9zM307 1753q0 41 30 71.5t73 30.5q40 0 71 -31t31 -71q0 -43 -30.5 -73.5t-71.5 -30.5q-44 0 -73.5 30t-29.5 74z
M655 1753q0 39 30 69.5t73 30.5q40 0 71 -31t31 -69q0 -43 -30.5 -73.5t-71.5 -30.5q-44 0 -73.5 30t-29.5 74z" />
    <glyph glyph-name="Edieresis" unicode="&#xeb;" horiz-adv-x="1116" 
d="M113 1434h897v-107h-9q-38 14 -71 17.5t-115 3.5h-385v-351h420v-86h-420v-825h461q124 0 186 14h8v-100h-972v8q10 66 10 207v1004q0 140 -10 206v9zM307 1753q0 41 30 71.5t73 30.5q40 0 71 -31t31 -71q0 -43 -30.5 -73.5t-71.5 -30.5q-44 0 -73.5 30t-29.5 74z
M655 1753q0 39 30 69.5t73 30.5q40 0 71 -31t31 -69q0 -43 -30.5 -73.5t-71.5 -30.5q-44 0 -73.5 30t-29.5 74z" />
    <glyph glyph-name="Iacute" unicode="&#xcd;" horiz-adv-x="583" 
d="M129 1434h328v-9q-11 -73 -11 -206v-1004q0 -134 11 -207v-8h-328v8q10 66 10 207v1004q0 140 -10 206v9zM152 1622l202 326l111 -93l-268 -272z" />
    <glyph glyph-name="Iacute" unicode="&#xed;" horiz-adv-x="583" 
d="M129 1434h328v-9q-11 -73 -11 -206v-1004q0 -134 11 -207v-8h-328v8q10 66 10 207v1004q0 140 -10 206v9zM152 1622l202 326l111 -93l-268 -272z" />
    <glyph glyph-name="Icircumflex" unicode="&#xce;" horiz-adv-x="583" 
d="M129 1434h328v-9q-11 -73 -11 -206v-1004q0 -134 11 -207v-8h-328v8q10 66 10 207v1004q0 140 -10 206v9zM43 1626l248 215l248 -215l-41 -55l-213 106l-201 -106z" />
    <glyph glyph-name="Icircumflex" unicode="&#xee;" horiz-adv-x="583" 
d="M129 1434h328v-9q-11 -73 -11 -206v-1004q0 -134 11 -207v-8h-328v8q10 66 10 207v1004q0 140 -10 206v9zM43 1626l248 215l248 -215l-41 -55l-213 106l-201 -106z" />
    <glyph glyph-name="Idieresis" unicode="&#xcf;" horiz-adv-x="583" 
d="M129 1434h328v-9q-11 -73 -11 -206v-1004q0 -134 11 -207v-8h-328v8q10 66 10 207v1004q0 140 -10 206v9zM14 1753q0 41 30 71.5t73 30.5q40 0 71 -31t31 -71q0 -43 -30.5 -73.5t-71.5 -30.5q-44 0 -73.5 30t-29.5 74zM362 1753q0 39 30 69.5t73 30.5q40 0 71 -31t31 -69
q0 -43 -30.5 -73.5t-71.5 -30.5q-44 0 -73.5 30t-29.5 74z" />
    <glyph glyph-name="Idieresis" unicode="&#xef;" horiz-adv-x="583" 
d="M129 1434h328v-9q-11 -73 -11 -206v-1004q0 -134 11 -207v-8h-328v8q10 66 10 207v1004q0 140 -10 206v9zM14 1753q0 41 30 71.5t73 30.5q40 0 71 -31t31 -71q0 -43 -30.5 -73.5t-71.5 -30.5q-44 0 -73.5 30t-29.5 74zM362 1753q0 39 30 69.5t73 30.5q40 0 71 -31t31 -69
q0 -43 -30.5 -73.5t-71.5 -30.5q-44 0 -73.5 30t-29.5 74z" />
    <glyph glyph-name="Eth" unicode="&#xd0;" horiz-adv-x="1597" 
d="M766 1434q168 0 311 -53t244 -147t158 -227.5t57 -289.5q0 -197 -100.5 -361.5t-277.5 -260t-392 -95.5h-653v8q10 66 10 207v490h-123v86h123v428q0 140 -10 206v9h653zM430 86h315q110 0 201 53.5t149.5 144t90 209t31.5 250.5q0 271 -128.5 438t-334.5 167h-324v-557
h348v-86h-348v-619z" />
    <glyph glyph-name="Eth" unicode="&#xf0;" horiz-adv-x="1597" 
d="M766 1434q168 0 311 -53t244 -147t158 -227.5t57 -289.5q0 -197 -100.5 -361.5t-277.5 -260t-392 -95.5h-653v8q10 66 10 207v490h-123v86h123v428q0 140 -10 206v9h653zM430 86h315q110 0 201 53.5t149.5 144t90 209t31.5 250.5q0 271 -128.5 438t-334.5 167h-324v-557
h348v-86h-348v-619z" />
    <glyph glyph-name="Ntilde" unicode="&#xd1;" horiz-adv-x="1454" 
d="M113 1434h65l1061 -981v766q0 96 -2.5 131t-11.5 75v9h110v-9q-10 -66 -10 -206v-1024q0 -88 2.5 -122t13.5 -73h-65l-1061 981v-766q0 -96 2.5 -131.5t11.5 -75.5v-8h-110v8q10 66 10 207v1024q0 88 -2.5 122t-13.5 73zM385 1747q34 79 82.5 112t120.5 33q12 0 26.5 -2
t25 -4.5t28 -8t25.5 -8.5t28.5 -10.5t26.5 -9.5q138 -65 202 -65q56 0 97 41l18 -23q-34 -79 -82.5 -112t-120.5 -33q-12 0 -26.5 2t-25 4.5t-28 8t-25.5 8.5t-28.5 10.5t-26.5 9.5q-138 65 -202 65q-56 0 -97 -41z" />
    <glyph glyph-name="Ntilde" unicode="&#xf1;" horiz-adv-x="1454" 
d="M113 1434h65l1061 -981v766q0 96 -2.5 131t-11.5 75v9h110v-9q-10 -66 -10 -206v-1024q0 -88 2.5 -122t13.5 -73h-65l-1061 981v-766q0 -96 2.5 -131.5t11.5 -75.5v-8h-110v8q10 66 10 207v1024q0 88 -2.5 122t-13.5 73zM385 1747q34 79 82.5 112t120.5 33q12 0 26.5 -2
t25 -4.5t28 -8t25.5 -8.5t28.5 -10.5t26.5 -9.5q138 -65 202 -65q56 0 97 41l18 -23q-34 -79 -82.5 -112t-120.5 -33q-12 0 -26.5 2t-25 4.5t-28 8t-25.5 8.5t-28.5 10.5t-26.5 9.5q-138 65 -202 65q-56 0 -97 -41z" />
    <glyph glyph-name="Ograve" unicode="&#xd2;" horiz-adv-x="1638" 
d="M819 -33q-208 0 -382 101t-275 275t-101 382t101 382t275 275t382 101t382 -101t275 -275t101 -382t-101 -382t-275 -275t-382 -101zM401 694q0 -187 51.5 -333.5t145 -227t213.5 -80.5q107 0 195 61.5t142.5 163t84 226t29.5 256.5q0 184 -52.5 329.5t-147 226.5
t-214.5 81q-106 0 -193 -61t-141 -162t-83.5 -225t-29.5 -255zM649 1835l111 92l203 -325l-45 -39z" />
    <glyph glyph-name="Ograve" unicode="&#xf2;" horiz-adv-x="1638" 
d="M819 -33q-208 0 -382 101t-275 275t-101 382t101 382t275 275t382 101t382 -101t275 -275t101 -382t-101 -382t-275 -275t-382 -101zM401 694q0 -187 51.5 -333.5t145 -227t213.5 -80.5q107 0 195 61.5t142.5 163t84 226t29.5 256.5q0 184 -52.5 329.5t-147 226.5
t-214.5 81q-106 0 -193 -61t-141 -162t-83.5 -225t-29.5 -255zM649 1835l111 92l203 -325l-45 -39z" />
    <glyph glyph-name="Oacute" unicode="&#xd3;" horiz-adv-x="1638" 
d="M819 -33q-208 0 -382 101t-275 275t-101 382t101 382t275 275t382 101t382 -101t275 -275t101 -382t-101 -382t-275 -275t-382 -101zM401 694q0 -187 51.5 -333.5t145 -227t213.5 -80.5q107 0 195 61.5t142.5 163t84 226t29.5 256.5q0 184 -52.5 329.5t-147 226.5
t-214.5 81q-106 0 -193 -61t-141 -162t-83.5 -225t-29.5 -255zM698 1622l203 326l111 -93l-269 -272z" />
    <glyph glyph-name="Oacute" unicode="&#xf3;" horiz-adv-x="1638" 
d="M819 -33q-208 0 -382 101t-275 275t-101 382t101 382t275 275t382 101t382 -101t275 -275t101 -382t-101 -382t-275 -275t-382 -101zM401 694q0 -187 51.5 -333.5t145 -227t213.5 -80.5q107 0 195 61.5t142.5 163t84 226t29.5 256.5q0 184 -52.5 329.5t-147 226.5
t-214.5 81q-106 0 -193 -61t-141 -162t-83.5 -225t-29.5 -255zM698 1622l203 326l111 -93l-269 -272z" />
    <glyph glyph-name="Ocircumflex" unicode="&#xd4;" horiz-adv-x="1638" 
d="M819 -33q-208 0 -382 101t-275 275t-101 382t101 382t275 275t382 101t382 -101t275 -275t101 -382t-101 -382t-275 -275t-382 -101zM401 694q0 -187 51.5 -333.5t145 -227t213.5 -80.5q107 0 195 61.5t142.5 163t84 226t29.5 256.5q0 184 -52.5 329.5t-147 226.5
t-214.5 81q-106 0 -193 -61t-141 -162t-83.5 -225t-29.5 -255zM590 1626l248 215l247 -215l-41 -55l-213 106l-200 -106z" />
    <glyph glyph-name="Ocircumflex" unicode="&#xf4;" horiz-adv-x="1638" 
d="M819 -33q-208 0 -382 101t-275 275t-101 382t101 382t275 275t382 101t382 -101t275 -275t101 -382t-101 -382t-275 -275t-382 -101zM401 694q0 -187 51.5 -333.5t145 -227t213.5 -80.5q107 0 195 61.5t142.5 163t84 226t29.5 256.5q0 184 -52.5 329.5t-147 226.5
t-214.5 81q-106 0 -193 -61t-141 -162t-83.5 -225t-29.5 -255zM590 1626l248 215l247 -215l-41 -55l-213 106l-200 -106z" />
    <glyph glyph-name="Otilde" unicode="&#xd5;" horiz-adv-x="1638" 
d="M819 -33q-208 0 -382 101t-275 275t-101 382t101 382t275 275t382 101t382 -101t275 -275t101 -382t-101 -382t-275 -275t-382 -101zM401 694q0 -187 51.5 -333.5t145 -227t213.5 -80.5q107 0 195 61.5t142.5 163t84 226t29.5 256.5q0 184 -52.5 329.5t-147 226.5
t-214.5 81q-106 0 -193 -61t-141 -162t-83.5 -225t-29.5 -255zM487 1747q34 79 82.5 112t120.5 33q12 0 26.5 -2t25 -4.5t28 -8t25.5 -8.5t28.5 -10.5t26.5 -9.5q138 -65 203 -65q55 0 96 41l18 -23q-34 -79 -82 -112t-120 -33q-12 0 -26.5 2t-25 4.5t-28 8t-25.5 8.5
t-28.5 10.5t-26.5 9.5q-138 65 -203 65q-55 0 -96 -41z" />
    <glyph glyph-name="Otilde" unicode="&#xf5;" horiz-adv-x="1638" 
d="M819 -33q-208 0 -382 101t-275 275t-101 382t101 382t275 275t382 101t382 -101t275 -275t101 -382t-101 -382t-275 -275t-382 -101zM401 694q0 -187 51.5 -333.5t145 -227t213.5 -80.5q107 0 195 61.5t142.5 163t84 226t29.5 256.5q0 184 -52.5 329.5t-147 226.5
t-214.5 81q-106 0 -193 -61t-141 -162t-83.5 -225t-29.5 -255zM487 1747q34 79 82.5 112t120.5 33q12 0 26.5 -2t25 -4.5t28 -8t25.5 -8.5t28.5 -10.5t26.5 -9.5q138 -65 203 -65q55 0 96 41l18 -23q-34 -79 -82 -112t-120 -33q-12 0 -26.5 2t-25 4.5t-28 8t-25.5 8.5
t-28.5 10.5t-26.5 9.5q-138 65 -203 65q-55 0 -96 -41z" />
    <glyph glyph-name="Odieresis" unicode="&#xd6;" horiz-adv-x="1638" 
d="M819 -33q-208 0 -382 101t-275 275t-101 382t101 382t275 275t382 101t382 -101t275 -275t101 -382t-101 -382t-275 -275t-382 -101zM401 694q0 -187 51.5 -333.5t145 -227t213.5 -80.5q107 0 195 61.5t142.5 163t84 226t29.5 256.5q0 184 -52.5 329.5t-147 226.5
t-214.5 81q-106 0 -193 -61t-141 -162t-83.5 -225t-29.5 -255zM561 1753q0 41 30 71.5t73 30.5q40 0 71 -31t31 -71q0 -43 -30.5 -73.5t-71.5 -30.5q-44 0 -73.5 30t-29.5 74zM909 1753q0 39 30 69.5t73 30.5q40 0 71 -31t31 -69q0 -43 -30.5 -73.5t-71.5 -30.5
q-44 0 -73.5 30t-29.5 74z" />
    <glyph glyph-name="Odieresis" unicode="&#xf6;" horiz-adv-x="1638" 
d="M819 -33q-208 0 -382 101t-275 275t-101 382t101 382t275 275t382 101t382 -101t275 -275t101 -382t-101 -382t-275 -275t-382 -101zM401 694q0 -187 51.5 -333.5t145 -227t213.5 -80.5q107 0 195 61.5t142.5 163t84 226t29.5 256.5q0 184 -52.5 329.5t-147 226.5
t-214.5 81q-106 0 -193 -61t-141 -162t-83.5 -225t-29.5 -255zM561 1753q0 41 30 71.5t73 30.5q40 0 71 -31t31 -71q0 -43 -30.5 -73.5t-71.5 -30.5q-44 0 -73.5 30t-29.5 74zM909 1753q0 39 30 69.5t73 30.5q40 0 71 -31t31 -69q0 -43 -30.5 -73.5t-71.5 -30.5
q-44 0 -73.5 30t-29.5 74z" />
    <glyph glyph-name="Oslash" unicode="&#xd8;" horiz-adv-x="1638" 
d="M819 -33q-137 0 -256 43l-112 -229l-78 37l110 227q-192 92 -307 274.5t-115 405.5q0 208 101 382t275 275t382 101q177 0 332 -76l123 252l78 -37l-125 -256q161 -102 255.5 -271t94.5 -370q0 -208 -101 -382t-275 -275t-382 -101zM401 694q0 -162 39.5 -294t110.5 -218
l541 1106q-103 109 -244 109q-106 0 -193 -61t-141 -162t-83.5 -225t-29.5 -255zM616 119q87 -66 195 -66q107 0 195 61.5t142.5 163t84 226t29.5 256.5q0 274 -111 450z" />
    <glyph glyph-name="Oslash" unicode="&#xf8;" horiz-adv-x="1638" 
d="M819 -33q-137 0 -256 43l-112 -229l-78 37l110 227q-192 92 -307 274.5t-115 405.5q0 208 101 382t275 275t382 101q177 0 332 -76l123 252l78 -37l-125 -256q161 -102 255.5 -271t94.5 -370q0 -208 -101 -382t-275 -275t-382 -101zM401 694q0 -162 39.5 -294t110.5 -218
l541 1106q-103 109 -244 109q-106 0 -193 -61t-141 -162t-83.5 -225t-29.5 -255zM616 119q87 -66 195 -66q107 0 195 61.5t142.5 163t84 226t29.5 256.5q0 274 -111 450z" />
    <glyph glyph-name="Ugrave" unicode="&#xd9;" horiz-adv-x="1404" 
d="M129 1434h332v-9q-9 -42 -12 -77.5t-3 -128.5v-678q0 -211 101 -334t274 -123q171 0 272 118t101 314v703q0 96 -2.5 131t-11.5 75v9h116v-9q-10 -66 -10 -206v-691q0 -262 -154 -411.5t-419 -149.5q-264 0 -419 148t-155 401v703q0 140 -10 206v9zM606 1835l111 92
l203 -325l-46 -39z" />
    <glyph glyph-name="Ugrave" unicode="&#xf9;" horiz-adv-x="1404" 
d="M129 1434h332v-9q-9 -42 -12 -77.5t-3 -128.5v-678q0 -211 101 -334t274 -123q171 0 272 118t101 314v703q0 96 -2.5 131t-11.5 75v9h116v-9q-10 -66 -10 -206v-691q0 -262 -154 -411.5t-419 -149.5q-264 0 -419 148t-155 401v703q0 140 -10 206v9zM606 1835l111 92
l203 -325l-46 -39z" />
    <glyph glyph-name="Uacute" unicode="&#xda;" horiz-adv-x="1404" 
d="M129 1434h332v-9q-9 -42 -12 -77.5t-3 -128.5v-678q0 -211 101 -334t274 -123q171 0 272 118t101 314v703q0 96 -2.5 131t-11.5 75v9h116v-9q-10 -66 -10 -206v-691q0 -262 -154 -411.5t-419 -149.5q-264 0 -419 148t-155 401v703q0 140 -10 206v9zM668 1622l202 326
l111 -93l-268 -272z" />
    <glyph glyph-name="Uacute" unicode="&#xfa;" horiz-adv-x="1404" 
d="M129 1434h332v-9q-9 -42 -12 -77.5t-3 -128.5v-678q0 -211 101 -334t274 -123q171 0 272 118t101 314v703q0 96 -2.5 131t-11.5 75v9h116v-9q-10 -66 -10 -206v-691q0 -262 -154 -411.5t-419 -149.5q-264 0 -419 148t-155 401v703q0 140 -10 206v9zM668 1622l202 326
l111 -93l-268 -272z" />
    <glyph glyph-name="Ucircumflex" unicode="&#xdb;" horiz-adv-x="1404" 
d="M129 1434h332v-9q-9 -42 -12 -77.5t-3 -128.5v-678q0 -211 101 -334t274 -123q171 0 272 118t101 314v703q0 96 -2.5 131t-11.5 75v9h116v-9q-10 -66 -10 -206v-691q0 -262 -154 -411.5t-419 -149.5q-264 0 -419 148t-155 401v703q0 140 -10 206v9zM547 1626l248 215
l247 -215l-41 -55l-213 106l-200 -106z" />
    <glyph glyph-name="Ucircumflex" unicode="&#xfb;" horiz-adv-x="1404" 
d="M129 1434h332v-9q-9 -42 -12 -77.5t-3 -128.5v-678q0 -211 101 -334t274 -123q171 0 272 118t101 314v703q0 96 -2.5 131t-11.5 75v9h116v-9q-10 -66 -10 -206v-691q0 -262 -154 -411.5t-419 -149.5q-264 0 -419 148t-155 401v703q0 140 -10 206v9zM547 1626l248 215
l247 -215l-41 -55l-213 106l-200 -106z" />
    <glyph glyph-name="Udieresis" unicode="&#xdc;" horiz-adv-x="1404" 
d="M129 1434h332v-9q-9 -42 -12 -77.5t-3 -128.5v-678q0 -211 101 -334t274 -123q171 0 272 118t101 314v703q0 96 -2.5 131t-11.5 75v9h116v-9q-10 -66 -10 -206v-691q0 -262 -154 -411.5t-419 -149.5q-264 0 -419 148t-155 401v703q0 140 -10 206v9zM518 1753
q0 41 30 71.5t73 30.5q40 0 71 -31t31 -71q0 -43 -30.5 -73.5t-71.5 -30.5q-44 0 -73.5 30t-29.5 74zM866 1753q0 39 30 69.5t73 30.5q40 0 71 -31t31 -69q0 -43 -30.5 -73.5t-71.5 -30.5q-44 0 -73.5 30t-29.5 74z" />
    <glyph glyph-name="Udieresis" unicode="&#xfc;" horiz-adv-x="1404" 
d="M129 1434h332v-9q-9 -42 -12 -77.5t-3 -128.5v-678q0 -211 101 -334t274 -123q171 0 272 118t101 314v703q0 96 -2.5 131t-11.5 75v9h116v-9q-10 -66 -10 -206v-691q0 -262 -154 -411.5t-419 -149.5q-264 0 -419 148t-155 401v703q0 140 -10 206v9zM518 1753
q0 41 30 71.5t73 30.5q40 0 71 -31t31 -71q0 -43 -30.5 -73.5t-71.5 -30.5q-44 0 -73.5 30t-29.5 74zM866 1753q0 39 30 69.5t73 30.5q40 0 71 -31t31 -69q0 -43 -30.5 -73.5t-71.5 -30.5q-44 0 -73.5 30t-29.5 74z" />
    <glyph glyph-name="Yacute" unicode="&#xdd;" horiz-adv-x="1267" 
d="M119 1217q-113 163 -164 208v9h403l2 -9q5 -17 21 -43t78 -116l299 -424l291 424q23 34 38.5 58.5t23 41t10.5 24.5t5.5 19.5t3.5 15.5l3 9h145v-9q-66 -75 -158 -208l-293 -426v-596q0 -114 11 -187v-8h-328v8q10 66 10 187v450zM631 1622l203 326l110 -93l-268 -272z
" />
    <glyph glyph-name="Yacute" unicode="&#xfd;" horiz-adv-x="1267" 
d="M119 1217q-113 163 -164 208v9h403l2 -9q5 -17 21 -43t78 -116l299 -424l291 424q23 34 38.5 58.5t23 41t10.5 24.5t5.5 19.5t3.5 15.5l3 9h145v-9q-66 -75 -158 -208l-293 -426v-596q0 -114 11 -187v-8h-328v8q10 66 10 187v450zM631 1622l203 326l110 -93l-268 -272z
" />
    <glyph glyph-name="Thorn" unicode="&#xde;" horiz-adv-x="1251" 
d="M643 1217q267 0 422.5 -121t155.5 -332t-155.5 -332t-422.5 -121h-213v-96q0 -141 10 -207v-8h-327v8q10 66 10 207v1004q0 140 -10 206v9h327v-9q-10 -66 -10 -206v-2h213zM430 397h145q163 0 250.5 97t87.5 270t-87.5 269.5t-250.5 96.5h-145v-733z" />
    <glyph glyph-name="Thorn" unicode="&#xfe;" horiz-adv-x="1251" 
d="M643 1217q267 0 422.5 -121t155.5 -332t-155.5 -332t-422.5 -121h-213v-96q0 -141 10 -207v-8h-327v8q10 66 10 207v1004q0 140 -10 206v9h327v-9q-10 -66 -10 -206v-2h213zM430 397h145q163 0 250.5 97t87.5 270t-87.5 269.5t-250.5 96.5h-145v-733z" />
    <glyph glyph-name="uni1E9E" unicode="&#xdf;" horiz-adv-x="1306" 
d="M537 340q44 -150 115 -217.5t179 -69.5q69 -1 112.5 46t43.5 124q0 64 -29.5 125.5t-97.5 138.5l-368 426v33h6q60 1 121 16t114.5 42.5t87 73t33.5 100.5q0 95 -62.5 155t-158.5 60q-97 0 -160 -81t-63 -255v-842q0 -154 10 -207v-8h-328v8q10 53 10 207v797
q0 118 48 210.5t128 147t175.5 82t199.5 27.5q122 0 222.5 -35t162.5 -104.5t62 -161.5q0 -90 -54.5 -163.5t-160.5 -115.5l198 -205q183 -191 183 -354q0 -74 -30 -141t-84.5 -118.5t-137.5 -82.5t-183 -31q-190 0 -344 119v254h50z" />
    <glyph glyph-name="uni1E9E" unicode="&#x1e9e;" horiz-adv-x="1306" 
d="M537 340q44 -150 115 -217.5t179 -69.5q69 -1 112.5 46t43.5 124q0 64 -29.5 125.5t-97.5 138.5l-368 426v33h6q60 1 121 16t114.5 42.5t87 73t33.5 100.5q0 95 -62.5 155t-158.5 60q-97 0 -160 -81t-63 -255v-842q0 -154 10 -207v-8h-328v8q10 53 10 207v797
q0 118 48 210.5t128 147t175.5 82t199.5 27.5q122 0 222.5 -35t162.5 -104.5t62 -161.5q0 -90 -54.5 -163.5t-160.5 -115.5l198 -205q183 -191 183 -354q0 -74 -30 -141t-84.5 -118.5t-137.5 -82.5t-183 -31q-190 0 -344 119v254h50z" />
    <glyph glyph-name="Amacron" unicode="&#x100;" horiz-adv-x="1228" 
d="M528 1434q158 0 228 57l452 -1276q53 -154 80 -207v-8h-364v8l2 9q1 9 0 21t-4.5 33.5t-13.5 58.5t-27 85l-47 137h-631l-51 -137q-14 -35 -24 -64t-16 -49.5t-10 -35.5t-5 -25.5t-1.5 -15.5t0.5 -11v-6v-8h-129v8q34 68 88 207zM236 438h567l-271 779zM240 1679v111h778
v-111h-778z" />
    <glyph glyph-name="Amacron" unicode="&#x101;" horiz-adv-x="1228" 
d="M528 1434q158 0 228 57l452 -1276q53 -154 80 -207v-8h-364v8l2 9q1 9 0 21t-4.5 33.5t-13.5 58.5t-27 85l-47 137h-631l-51 -137q-14 -35 -24 -64t-16 -49.5t-10 -35.5t-5 -25.5t-1.5 -15.5t0.5 -11v-6v-8h-129v8q34 68 88 207zM236 438h567l-271 779zM240 1679v111h778
v-111h-778z" />
    <glyph glyph-name="Abreve" unicode="&#x102;" horiz-adv-x="1228" 
d="M528 1434q158 0 228 57l452 -1276q53 -154 80 -207v-8h-364v8l2 9q1 9 0 21t-4.5 33.5t-13.5 58.5t-27 85l-47 137h-631l-51 -137q-14 -35 -24 -64t-16 -49.5t-10 -35.5t-5 -25.5t-1.5 -15.5t0.5 -11v-6v-8h-129v8q34 68 88 207zM236 438h567l-271 779zM301 1868h148v-2
q0 -62 34 -115q49 -68 146 -68q78 0 126 49t54 136h147q-5 -120 -94.5 -195.5t-232.5 -75.5t-233 75.5t-95 195.5z" />
    <glyph glyph-name="Abreve" unicode="&#x103;" horiz-adv-x="1228" 
d="M528 1434q158 0 228 57l452 -1276q53 -154 80 -207v-8h-364v8l2 9q1 9 0 21t-4.5 33.5t-13.5 58.5t-27 85l-47 137h-631l-51 -137q-14 -35 -24 -64t-16 -49.5t-10 -35.5t-5 -25.5t-1.5 -15.5t0.5 -11v-6v-8h-129v8q34 68 88 207zM236 438h567l-271 779zM301 1868h148v-2
q0 -62 34 -115q49 -68 146 -68q78 0 126 49t54 136h147q-5 -120 -94.5 -195.5t-232.5 -75.5t-233 75.5t-95 195.5z" />
    <glyph glyph-name="Aogonek" unicode="&#x104;" horiz-adv-x="1228" 
d="M528 1434q158 0 228 57l452 -1276q53 -154 80 -207v-8h-235q-105 -45 -148 -83.5t-43 -86.5q0 -49 34.5 -81t104.5 -32q25 0 37 2l6 -22q-93 -59 -180 -59q-73 0 -118.5 41.5t-45.5 99.5q0 70 61.5 126.5t180.5 94.5h-18v8l2 9q1 9 0 21t-4.5 33.5t-13.5 58.5t-27 85
l-47 137h-631l-51 -137q-14 -35 -24 -64t-16 -49.5t-10 -35.5t-5 -25.5t-1.5 -15.5t0.5 -11v-6v-8h-129v8q34 68 88 207zM236 438h567l-271 779z" />
    <glyph glyph-name="Aogonek" unicode="&#x105;" horiz-adv-x="1228" 
d="M528 1434q158 0 228 57l452 -1276q53 -154 80 -207v-8h-235q-105 -45 -148 -83.5t-43 -86.5q0 -49 34.5 -81t104.5 -32q25 0 37 2l6 -22q-93 -59 -180 -59q-73 0 -118.5 41.5t-45.5 99.5q0 70 61.5 126.5t180.5 94.5h-18v8l2 9q1 9 0 21t-4.5 33.5t-13.5 58.5t-27 85
l-47 137h-631l-51 -137q-14 -35 -24 -64t-16 -49.5t-10 -35.5t-5 -25.5t-1.5 -15.5t0.5 -11v-6v-8h-129v8q34 68 88 207zM236 438h567l-271 779z" />
    <glyph glyph-name="Cacute" unicode="&#x106;" horiz-adv-x="1488" 
d="M1386 1247v-282h-47q-13 99 -55.5 181.5t-103.5 137t-135.5 84t-153.5 29.5q-76 0 -147.5 -25.5t-136.5 -81.5t-113 -136.5t-76.5 -199t-28.5 -260.5q0 -161 39 -286.5t105.5 -201.5t148.5 -114.5t174 -38.5q104 0 201 48.5t173 145t109 224.5h47v-268
q-109 -108 -257.5 -172t-313.5 -64q-156 0 -295.5 59.5t-240 161t-159.5 241.5t-59 296t59 296t159.5 241.5t240 161t295.5 59.5q167 0 315 -64t256 -172zM678 1622l203 326l110 -93l-268 -272z" />
    <glyph glyph-name="Cacute" unicode="&#x107;" horiz-adv-x="1488" 
d="M1386 1247v-282h-47q-13 99 -55.5 181.5t-103.5 137t-135.5 84t-153.5 29.5q-76 0 -147.5 -25.5t-136.5 -81.5t-113 -136.5t-76.5 -199t-28.5 -260.5q0 -161 39 -286.5t105.5 -201.5t148.5 -114.5t174 -38.5q104 0 201 48.5t173 145t109 224.5h47v-268
q-109 -108 -257.5 -172t-313.5 -64q-156 0 -295.5 59.5t-240 161t-159.5 241.5t-59 296t59 296t159.5 241.5t240 161t295.5 59.5q167 0 315 -64t256 -172zM678 1622l203 326l110 -93l-268 -272z" />
    <glyph glyph-name="Cdotaccent" unicode="&#x10a;" horiz-adv-x="1488" 
d="M1386 1247v-282h-47q-13 99 -55.5 181.5t-103.5 137t-135.5 84t-153.5 29.5q-76 0 -147.5 -25.5t-136.5 -81.5t-113 -136.5t-76.5 -199t-28.5 -260.5q0 -161 39 -286.5t105.5 -201.5t148.5 -114.5t174 -38.5q104 0 201 48.5t173 145t109 224.5h47v-268
q-109 -108 -257.5 -172t-313.5 -64q-156 0 -295.5 59.5t-240 161t-159.5 241.5t-59 296t59 296t159.5 241.5t240 161t295.5 59.5q167 0 315 -64t256 -172zM694 1753q0 50 35 85.5t88 35.5q48 0 85.5 -36t37.5 -85q0 -51 -37.5 -88t-85.5 -37q-53 0 -88 36t-35 89z" />
    <glyph glyph-name="Cdotaccent" unicode="&#x10b;" horiz-adv-x="1488" 
d="M1386 1247v-282h-47q-13 99 -55.5 181.5t-103.5 137t-135.5 84t-153.5 29.5q-76 0 -147.5 -25.5t-136.5 -81.5t-113 -136.5t-76.5 -199t-28.5 -260.5q0 -161 39 -286.5t105.5 -201.5t148.5 -114.5t174 -38.5q104 0 201 48.5t173 145t109 224.5h47v-268
q-109 -108 -257.5 -172t-313.5 -64q-156 0 -295.5 59.5t-240 161t-159.5 241.5t-59 296t59 296t159.5 241.5t240 161t295.5 59.5q167 0 315 -64t256 -172zM694 1753q0 50 35 85.5t88 35.5q48 0 85.5 -36t37.5 -85q0 -51 -37.5 -88t-85.5 -37q-53 0 -88 36t-35 89z" />
    <glyph glyph-name="Ccaron" unicode="&#x10c;" horiz-adv-x="1488" 
d="M1386 1247v-282h-47q-13 99 -55.5 181.5t-103.5 137t-135.5 84t-153.5 29.5q-76 0 -147.5 -25.5t-136.5 -81.5t-113 -136.5t-76.5 -199t-28.5 -260.5q0 -161 39 -286.5t105.5 -201.5t148.5 -114.5t174 -38.5q104 0 201 48.5t173 145t109 224.5h47v-268
q-109 -108 -257.5 -172t-313.5 -64q-156 0 -295.5 59.5t-240 161t-159.5 241.5t-59 296t59 296t159.5 241.5t240 161t295.5 59.5q167 0 315 -64t256 -172zM569 1810l41 56l213 -107l201 107l41 -56l-248 -215z" />
    <glyph glyph-name="Ccaron" unicode="&#x10d;" horiz-adv-x="1488" 
d="M1386 1247v-282h-47q-13 99 -55.5 181.5t-103.5 137t-135.5 84t-153.5 29.5q-76 0 -147.5 -25.5t-136.5 -81.5t-113 -136.5t-76.5 -199t-28.5 -260.5q0 -161 39 -286.5t105.5 -201.5t148.5 -114.5t174 -38.5q104 0 201 48.5t173 145t109 224.5h47v-268
q-109 -108 -257.5 -172t-313.5 -64q-156 0 -295.5 59.5t-240 161t-159.5 241.5t-59 296t59 296t159.5 241.5t240 161t295.5 59.5q167 0 315 -64t256 -172zM569 1810l41 56l213 -107l201 107l41 -56l-248 -215z" />
    <glyph glyph-name="Dcaron" unicode="&#x10e;" horiz-adv-x="1597" 
d="M766 1434q168 0 311 -53t244 -147t158 -227.5t57 -289.5q0 -197 -100.5 -361.5t-277.5 -260t-392 -95.5h-653v8q10 66 10 207v1004q0 140 -10 206v9h653zM430 86h315q110 0 201 53.5t149.5 144t90 209t31.5 250.5q0 271 -128.5 438t-334.5 167h-324v-1262zM545 1810
l41 56l213 -107l200 107l41 -56l-247 -215z" />
    <glyph glyph-name="Dcaron" unicode="&#x10f;" horiz-adv-x="1597" 
d="M766 1434q168 0 311 -53t244 -147t158 -227.5t57 -289.5q0 -197 -100.5 -361.5t-277.5 -260t-392 -95.5h-653v8q10 66 10 207v1004q0 140 -10 206v9h653zM430 86h315q110 0 201 53.5t149.5 144t90 209t31.5 250.5q0 271 -128.5 438t-334.5 167h-324v-1262zM545 1810
l41 56l213 -107l200 107l41 -56l-247 -215z" />
    <glyph glyph-name="Dcroat" unicode="&#x110;" horiz-adv-x="1597" 
d="M766 1434q168 0 311 -53t244 -147t158 -227.5t57 -289.5q0 -197 -100.5 -361.5t-277.5 -260t-392 -95.5h-653v8q10 66 10 207v490h-123v86h123v428q0 140 -10 206v9h653zM430 86h315q110 0 201 53.5t149.5 144t90 209t31.5 250.5q0 271 -128.5 438t-334.5 167h-324v-557
h348v-86h-348v-619z" />
    <glyph glyph-name="Dcroat" unicode="&#x111;" horiz-adv-x="1597" 
d="M766 1434q168 0 311 -53t244 -147t158 -227.5t57 -289.5q0 -197 -100.5 -361.5t-277.5 -260t-392 -95.5h-653v8q10 66 10 207v490h-123v86h123v428q0 140 -10 206v9h653zM430 86h315q110 0 201 53.5t149.5 144t90 209t31.5 250.5q0 271 -128.5 438t-334.5 167h-324v-557
h348v-86h-348v-619z" />
    <glyph glyph-name="Emacron" unicode="&#x112;" horiz-adv-x="1116" 
d="M113 1434h897v-107h-9q-38 14 -71 17.5t-115 3.5h-385v-351h420v-86h-420v-825h461q124 0 186 14h8v-100h-972v8q10 66 10 207v1004q0 140 -10 206v9zM195 1679v111h778v-111h-778z" />
    <glyph glyph-name="Emacron" unicode="&#x113;" horiz-adv-x="1116" 
d="M113 1434h897v-107h-9q-38 14 -71 17.5t-115 3.5h-385v-351h420v-86h-420v-825h461q124 0 186 14h8v-100h-972v8q10 66 10 207v1004q0 140 -10 206v9zM195 1679v111h778v-111h-778z" />
    <glyph glyph-name="Edotaccent" unicode="&#x116;" horiz-adv-x="1116" 
d="M113 1434h897v-107h-9q-38 14 -71 17.5t-115 3.5h-385v-351h420v-86h-420v-825h461q124 0 186 14h8v-100h-972v8q10 66 10 207v1004q0 140 -10 206v9zM461 1753q0 50 35 85.5t88 35.5q48 0 85.5 -36t37.5 -85q0 -51 -37.5 -88t-85.5 -37q-53 0 -88 36t-35 89z" />
    <glyph glyph-name="Edotaccent" unicode="&#x117;" horiz-adv-x="1116" 
d="M113 1434h897v-107h-9q-38 14 -71 17.5t-115 3.5h-385v-351h420v-86h-420v-825h461q124 0 186 14h8v-100h-972v8q10 66 10 207v1004q0 140 -10 206v9zM461 1753q0 50 35 85.5t88 35.5q48 0 85.5 -36t37.5 -85q0 -51 -37.5 -88t-85.5 -37q-53 0 -88 36t-35 89z" />
    <glyph glyph-name="Eogonek" unicode="&#x118;" horiz-adv-x="1116" 
d="M113 1434h897v-107h-9q-38 14 -71 17.5t-115 3.5h-385v-351h420v-86h-420v-825h461q124 0 186 14h8v-100q-105 -45 -147.5 -83.5t-42.5 -86.5q0 -49 34.5 -81t104.5 -32q25 0 37 2l6 -22q-93 -59 -180 -59q-73 0 -118.5 41.5t-45.5 99.5q0 70 61.5 126.5t180.5 94.5h-862
v8q10 66 10 207v1004q0 140 -10 206v9z" />
    <glyph glyph-name="Eogonek" unicode="&#x119;" horiz-adv-x="1116" 
d="M113 1434h897v-107h-9q-38 14 -71 17.5t-115 3.5h-385v-351h420v-86h-420v-825h461q124 0 186 14h8v-100q-105 -45 -147.5 -83.5t-42.5 -86.5q0 -49 34.5 -81t104.5 -32q25 0 37 2l6 -22q-93 -59 -180 -59q-73 0 -118.5 41.5t-45.5 99.5q0 70 61.5 126.5t180.5 94.5h-862
v8q10 66 10 207v1004q0 140 -10 206v9z" />
    <glyph glyph-name="Ecaron" unicode="&#x11a;" horiz-adv-x="1116" 
d="M113 1434h897v-107h-9q-38 14 -71 17.5t-115 3.5h-385v-351h420v-86h-420v-825h461q124 0 186 14h8v-100h-972v8q10 66 10 207v1004q0 140 -10 206v9zM336 1810l41 56l213 -107l201 107l40 -56l-247 -215z" />
    <glyph glyph-name="Ecaron" unicode="&#x11b;" horiz-adv-x="1116" 
d="M113 1434h897v-107h-9q-38 14 -71 17.5t-115 3.5h-385v-351h420v-86h-420v-825h461q124 0 186 14h8v-100h-972v8q10 66 10 207v1004q0 140 -10 206v9zM336 1810l41 56l213 -107l201 107l40 -56l-247 -215z" />
    <glyph glyph-name="Gbreve" unicode="&#x11e;" horiz-adv-x="1550" 
d="M1386 1247v-282h-47q-13 99 -55.5 181.5t-103.5 137t-135.5 84t-153.5 29.5q-76 0 -147.5 -25.5t-136.5 -81.5t-113 -136.5t-76.5 -199t-28.5 -260.5q0 -161 39 -286.5t105.5 -201.5t148.5 -114.5t174 -38.5q117 0 234 66v422q0 81 -2.5 114.5t-12.5 71.5v8h322v-8
q-11 -73 -11 -186v-338q-109 -108 -257.5 -172t-313.5 -64q-156 0 -295.5 59.5t-240 161t-159.5 241.5t-59 296t59 296t159.5 241.5t240 161t295.5 59.5q167 0 315 -64t256 -172zM510 1868h147v-2q0 -61 35 -115q49 -68 146 -68q78 0 126 49t54 136h147
q-5 -120 -94.5 -195.5t-232.5 -75.5t-233 75.5t-95 195.5z" />
    <glyph glyph-name="Gbreve" unicode="&#x11f;" horiz-adv-x="1550" 
d="M1386 1247v-282h-47q-13 99 -55.5 181.5t-103.5 137t-135.5 84t-153.5 29.5q-76 0 -147.5 -25.5t-136.5 -81.5t-113 -136.5t-76.5 -199t-28.5 -260.5q0 -161 39 -286.5t105.5 -201.5t148.5 -114.5t174 -38.5q117 0 234 66v422q0 81 -2.5 114.5t-12.5 71.5v8h322v-8
q-11 -73 -11 -186v-338q-109 -108 -257.5 -172t-313.5 -64q-156 0 -295.5 59.5t-240 161t-159.5 241.5t-59 296t59 296t159.5 241.5t240 161t295.5 59.5q167 0 315 -64t256 -172zM510 1868h147v-2q0 -61 35 -115q49 -68 146 -68q78 0 126 49t54 136h147
q-5 -120 -94.5 -195.5t-232.5 -75.5t-233 75.5t-95 195.5z" />
    <glyph glyph-name="Gdotaccent" unicode="&#x120;" horiz-adv-x="1550" 
d="M1386 1247v-282h-47q-13 99 -55.5 181.5t-103.5 137t-135.5 84t-153.5 29.5q-76 0 -147.5 -25.5t-136.5 -81.5t-113 -136.5t-76.5 -199t-28.5 -260.5q0 -161 39 -286.5t105.5 -201.5t148.5 -114.5t174 -38.5q117 0 234 66v422q0 81 -2.5 114.5t-12.5 71.5v8h322v-8
q-11 -73 -11 -186v-338q-109 -108 -257.5 -172t-313.5 -64q-156 0 -295.5 59.5t-240 161t-159.5 241.5t-59 296t59 296t159.5 241.5t240 161t295.5 59.5q167 0 315 -64t256 -172zM715 1753q0 50 35 85.5t88 35.5q48 0 85.5 -36t37.5 -85q0 -51 -37.5 -88t-85.5 -37
q-53 0 -88 36t-35 89z" />
    <glyph glyph-name="Gdotaccent" unicode="&#x121;" horiz-adv-x="1550" 
d="M1386 1247v-282h-47q-13 99 -55.5 181.5t-103.5 137t-135.5 84t-153.5 29.5q-76 0 -147.5 -25.5t-136.5 -81.5t-113 -136.5t-76.5 -199t-28.5 -260.5q0 -161 39 -286.5t105.5 -201.5t148.5 -114.5t174 -38.5q117 0 234 66v422q0 81 -2.5 114.5t-12.5 71.5v8h322v-8
q-11 -73 -11 -186v-338q-109 -108 -257.5 -172t-313.5 -64q-156 0 -295.5 59.5t-240 161t-159.5 241.5t-59 296t59 296t159.5 241.5t240 161t295.5 59.5q167 0 315 -64t256 -172zM715 1753q0 50 35 85.5t88 35.5q48 0 85.5 -36t37.5 -85q0 -51 -37.5 -88t-85.5 -37
q-53 0 -88 36t-35 89z" />
    <glyph glyph-name="uni0122" unicode="&#x122;" horiz-adv-x="1550" 
d="M1386 1247v-282h-47q-13 99 -55.5 181.5t-103.5 137t-135.5 84t-153.5 29.5q-76 0 -147.5 -25.5t-136.5 -81.5t-113 -136.5t-76.5 -199t-28.5 -260.5q0 -161 39 -286.5t105.5 -201.5t148.5 -114.5t174 -38.5q117 0 234 66v422q0 81 -2.5 114.5t-12.5 71.5v8h322v-8
q-11 -73 -11 -186v-338q-109 -108 -257.5 -172t-313.5 -64q-156 0 -295.5 59.5t-240 161t-159.5 241.5t-59 296t59 296t159.5 241.5t240 161t295.5 59.5q167 0 315 -64t256 -172zM688 -246q0 47 33 81t82 34q47 0 81 -36.5t34 -90.5q0 -61 -42 -135t-141 -187l-39 27
q30 36 52 69t32.5 55.5t15 40t3.5 26.5t-6 10q-43 7 -74 32.5t-31 73.5z" />
    <glyph glyph-name="uni0122" unicode="&#x123;" horiz-adv-x="1550" 
d="M1386 1247v-282h-47q-13 99 -55.5 181.5t-103.5 137t-135.5 84t-153.5 29.5q-76 0 -147.5 -25.5t-136.5 -81.5t-113 -136.5t-76.5 -199t-28.5 -260.5q0 -161 39 -286.5t105.5 -201.5t148.5 -114.5t174 -38.5q117 0 234 66v422q0 81 -2.5 114.5t-12.5 71.5v8h322v-8
q-11 -73 -11 -186v-338q-109 -108 -257.5 -172t-313.5 -64q-156 0 -295.5 59.5t-240 161t-159.5 241.5t-59 296t59 296t159.5 241.5t240 161t295.5 59.5q167 0 315 -64t256 -172zM688 -246q0 47 33 81t82 34q47 0 81 -36.5t34 -90.5q0 -61 -42 -135t-141 -187l-39 27
q30 36 52 69t32.5 55.5t15 40t3.5 26.5t-6 10q-43 7 -74 32.5t-31 73.5z" />
    <glyph glyph-name="Imacron" unicode="&#x12a;" horiz-adv-x="583" 
d="M129 1434h328v-9q-11 -73 -11 -206v-1004q0 -134 11 -207v-8h-328v8q10 66 10 207v1004q0 140 -10 206v9zM-98 1679v111h778v-111h-778z" />
    <glyph glyph-name="Imacron" unicode="&#x12b;" horiz-adv-x="583" 
d="M129 1434h328v-9q-11 -73 -11 -206v-1004q0 -134 11 -207v-8h-328v8q10 66 10 207v1004q0 140 -10 206v9zM-98 1679v111h778v-111h-778z" />
    <glyph glyph-name="Idotaccent" unicode="&#x130;" horiz-adv-x="583" 
d="M129 1434h328v-9q-11 -73 -11 -206v-1004q0 -134 11 -207v-8h-328v8q10 66 10 207v1004q0 140 -10 206v9zM168 1753q0 50 35 85.5t88 35.5q48 0 85.5 -36t37.5 -85q0 -51 -37.5 -88t-85.5 -37q-53 0 -88 36t-35 89z" />
    <glyph glyph-name="IJ" unicode="&#x132;" horiz-adv-x="1208" 
d="M129 1434h328v-9q-11 -73 -11 -206v-1004q0 -134 11 -207v-8h-328v8q10 66 10 207v1004q0 140 -10 206v9zM483 -362v53q281 92 281 581v947q0 140 -10 206v9h327v-9q-10 -66 -10 -206v-971q0 -270 -160.5 -426.5t-427.5 -183.5z" />
    <glyph glyph-name="IJ" unicode="&#x133;" horiz-adv-x="1208" 
d="M129 1434h328v-9q-11 -73 -11 -206v-1004q0 -134 11 -207v-8h-328v8q10 66 10 207v1004q0 140 -10 206v9zM483 -362v53q281 92 281 581v947q0 140 -10 206v9h327v-9q-10 -66 -10 -206v-971q0 -270 -160.5 -426.5t-427.5 -183.5z" />
    <glyph glyph-name="uni0136" unicode="&#x136;" horiz-adv-x="1288" 
d="M113 1434h331v-9q-9 -40 -11.5 -75t-2.5 -131v-390l416 390q194 182 194 206v9h162v-9q-12 -8 -23 -16.5t-25.5 -21.5t-25 -22t-32 -28.5t-34 -31.5t-43 -40.5t-48.5 -45.5l-137 -132l372 -829q46 -103 80 -151t74 -82v-25q-66 -21 -139 -12.5t-138.5 37.5t-123 89
t-91.5 142l-262 627l-176 -164v-504q0 -96 2.5 -131.5t11.5 -75.5v-8h-331v8q10 66 10 207v1004q0 140 -10 206v9zM586 -225q0 47 32.5 80.5t81.5 33.5q47 0 81 -36.5t34 -90.5q0 -61 -41.5 -134.5t-140.5 -186.5l-39 27q30 36 52 69t32 55.5t14.5 40t3.5 26t-6 9.5
q-42 7 -73 33t-31 74z" />
    <glyph glyph-name="uni0136" unicode="&#x137;" horiz-adv-x="1288" 
d="M113 1434h331v-9q-9 -40 -11.5 -75t-2.5 -131v-390l416 390q194 182 194 206v9h162v-9q-12 -8 -23 -16.5t-25.5 -21.5t-25 -22t-32 -28.5t-34 -31.5t-43 -40.5t-48.5 -45.5l-137 -132l372 -829q46 -103 80 -151t74 -82v-25q-66 -21 -139 -12.5t-138.5 37.5t-123 89
t-91.5 142l-262 627l-176 -164v-504q0 -96 2.5 -131.5t11.5 -75.5v-8h-331v8q10 66 10 207v1004q0 140 -10 206v9zM586 -225q0 47 32.5 80.5t81.5 33.5q47 0 81 -36.5t34 -90.5q0 -61 -41.5 -134.5t-140.5 -186.5l-39 27q30 36 52 69t32 55.5t14.5 40t3.5 26t-6 9.5
q-42 7 -73 33t-31 74z" />
    <glyph glyph-name="Lacute" unicode="&#x139;" horiz-adv-x="921" 
d="M113 1434h331v-9q-9 -40 -11.5 -75t-2.5 -131v-1133h318q124 0 186 14h8v-100h-829v8q10 66 10 207v1004q0 140 -10 206v9zM143 1622l203 326l111 -93l-269 -272z" />
    <glyph glyph-name="Lacute" unicode="&#x13a;" horiz-adv-x="921" 
d="M113 1434h331v-9q-9 -40 -11.5 -75t-2.5 -131v-1133h318q124 0 186 14h8v-100h-829v8q10 66 10 207v1004q0 140 -10 206v9zM143 1622l203 326l111 -93l-269 -272z" />
    <glyph glyph-name="uni013B" unicode="&#x13b;" horiz-adv-x="921" 
d="M113 1434h331v-9q-9 -40 -11.5 -75t-2.5 -131v-1133h318q124 0 186 14h8v-100h-829v8q10 66 10 207v1004q0 140 -10 206v9zM420 -236q0 47 33 81t82 34q47 0 80.5 -36.5t33.5 -90.5q0 -61 -41.5 -134.5t-140.5 -186.5l-39 26q30 36 52 69t32 55.5t14.5 40t3.5 26.5t-6 10
q-43 7 -73.5 32.5t-30.5 73.5z" />
    <glyph glyph-name="uni013B" unicode="&#x13c;" horiz-adv-x="921" 
d="M113 1434h331v-9q-9 -40 -11.5 -75t-2.5 -131v-1133h318q124 0 186 14h8v-100h-829v8q10 66 10 207v1004q0 140 -10 206v9zM420 -236q0 47 33 81t82 34q47 0 80.5 -36.5t33.5 -90.5q0 -61 -41.5 -134.5t-140.5 -186.5l-39 26q30 36 52 69t32 55.5t14.5 40t3.5 26.5t-6 10
q-43 7 -73.5 32.5t-30.5 73.5z" />
    <glyph glyph-name="Lcaron" unicode="&#x13d;" horiz-adv-x="1013" 
d="M113 1434h331v-9q-9 -40 -11.5 -75t-2.5 -131v-1133h318q124 0 186 14h8v-100h-829v8q10 66 10 207v1004q0 140 -10 206v9zM745 1122l15 320l119 -15l-76 -313z" />
    <glyph glyph-name="Lcaron" unicode="&#x13e;" horiz-adv-x="1013" 
d="M113 1434h331v-9q-9 -40 -11.5 -75t-2.5 -131v-1133h318q124 0 186 14h8v-100h-829v8q10 66 10 207v1004q0 140 -10 206v9zM745 1122l15 320l119 -15l-76 -313z" />
    <glyph glyph-name="Lslash" unicode="&#x141;" horiz-adv-x="921" 
d="M113 1434h331v-9q-9 -40 -11.5 -75t-2.5 -131v-342l475 274l43 -76l-518 -299v-690h318q124 0 186 14h8v-100h-829v8q10 66 10 207v383l-96 -55l-43 75l139 80v521q0 140 -10 206v9z" />
    <glyph glyph-name="Lslash" unicode="&#x142;" horiz-adv-x="921" 
d="M113 1434h331v-9q-9 -40 -11.5 -75t-2.5 -131v-342l475 274l43 -76l-518 -299v-690h318q124 0 186 14h8v-100h-829v8q10 66 10 207v383l-96 -55l-43 75l139 80v521q0 140 -10 206v9z" />
    <glyph glyph-name="Nacute" unicode="&#x143;" horiz-adv-x="1454" 
d="M113 1434h65l1061 -981v766q0 96 -2.5 131t-11.5 75v9h110v-9q-10 -66 -10 -206v-1024q0 -88 2.5 -122t13.5 -73h-65l-1061 981v-766q0 -96 2.5 -131.5t11.5 -75.5v-8h-110v8q10 66 10 207v1024q0 88 -2.5 122t-13.5 73zM623 1622l202 326l111 -93l-268 -272z" />
    <glyph glyph-name="Nacute" unicode="&#x144;" horiz-adv-x="1454" 
d="M113 1434h65l1061 -981v766q0 96 -2.5 131t-11.5 75v9h110v-9q-10 -66 -10 -206v-1024q0 -88 2.5 -122t13.5 -73h-65l-1061 981v-766q0 -96 2.5 -131.5t11.5 -75.5v-8h-110v8q10 66 10 207v1024q0 88 -2.5 122t-13.5 73zM623 1622l202 326l111 -93l-268 -272z" />
    <glyph glyph-name="uni0145" unicode="&#x145;" horiz-adv-x="1454" 
d="M113 1434h65l1061 -981v766q0 96 -2.5 131t-11.5 75v9h110v-9q-10 -66 -10 -206v-1024q0 -88 2.5 -122t13.5 -73h-65l-1061 981v-766q0 -96 2.5 -131.5t11.5 -75.5v-8h-110v8q10 66 10 207v1024q0 88 -2.5 122t-13.5 73zM596 -246q0 47 33 81t82 34q47 0 80.5 -36.5
t33.5 -90.5q0 -61 -42 -135t-140 -187l-39 27q30 36 52 69t32 55.5t14.5 40t3.5 26.5t-6 10q-43 7 -73.5 32.5t-30.5 73.5z" />
    <glyph glyph-name="uni0145" unicode="&#x146;" horiz-adv-x="1454" 
d="M113 1434h65l1061 -981v766q0 96 -2.5 131t-11.5 75v9h110v-9q-10 -66 -10 -206v-1024q0 -88 2.5 -122t13.5 -73h-65l-1061 981v-766q0 -96 2.5 -131.5t11.5 -75.5v-8h-110v8q10 66 10 207v1024q0 88 -2.5 122t-13.5 73zM596 -246q0 47 33 81t82 34q47 0 80.5 -36.5
t33.5 -90.5q0 -61 -42 -135t-140 -187l-39 27q30 36 52 69t32 55.5t14.5 40t3.5 26.5t-6 10q-43 7 -73.5 32.5t-30.5 73.5z" />
    <glyph glyph-name="Ncaron" unicode="&#x147;" horiz-adv-x="1454" 
d="M113 1434h65l1061 -981v766q0 96 -2.5 131t-11.5 75v9h110v-9q-10 -66 -10 -206v-1024q0 -88 2.5 -122t13.5 -73h-65l-1061 981v-766q0 -96 2.5 -131.5t11.5 -75.5v-8h-110v8q10 66 10 207v1024q0 88 -2.5 122t-13.5 73zM479 1810l41 56l213 -107l201 107l41 -56
l-248 -215z" />
    <glyph glyph-name="Ncaron" unicode="&#x148;" horiz-adv-x="1454" 
d="M113 1434h65l1061 -981v766q0 96 -2.5 131t-11.5 75v9h110v-9q-10 -66 -10 -206v-1024q0 -88 2.5 -122t13.5 -73h-65l-1061 981v-766q0 -96 2.5 -131.5t11.5 -75.5v-8h-110v8q10 66 10 207v1024q0 88 -2.5 122t-13.5 73zM479 1810l41 56l213 -107l201 107l41 -56
l-248 -215z" />
    <glyph glyph-name="Omacron" unicode="&#x14c;" horiz-adv-x="1638" 
d="M819 -33q-208 0 -382 101t-275 275t-101 382t101 382t275 275t382 101t382 -101t275 -275t101 -382t-101 -382t-275 -275t-382 -101zM401 694q0 -187 51.5 -333.5t145 -227t213.5 -80.5q107 0 195 61.5t142.5 163t84 226t29.5 256.5q0 184 -52.5 329.5t-147 226.5
t-214.5 81q-106 0 -193 -61t-141 -162t-83.5 -225t-29.5 -255zM449 1679v111h778v-111h-778z" />
    <glyph glyph-name="Omacron" unicode="&#x14d;" horiz-adv-x="1638" 
d="M819 -33q-208 0 -382 101t-275 275t-101 382t101 382t275 275t382 101t382 -101t275 -275t101 -382t-101 -382t-275 -275t-382 -101zM401 694q0 -187 51.5 -333.5t145 -227t213.5 -80.5q107 0 195 61.5t142.5 163t84 226t29.5 256.5q0 184 -52.5 329.5t-147 226.5
t-214.5 81q-106 0 -193 -61t-141 -162t-83.5 -225t-29.5 -255zM449 1679v111h778v-111h-778z" />
    <glyph glyph-name="Ohungarumlaut" unicode="&#x150;" horiz-adv-x="1638" 
d="M819 -33q-208 0 -382 101t-275 275t-101 382t101 382t275 275t382 101t382 -101t275 -275t101 -382t-101 -382t-275 -275t-382 -101zM401 694q0 -187 51.5 -333.5t145 -227t213.5 -80.5q107 0 195 61.5t142.5 163t84 226t29.5 256.5q0 184 -52.5 329.5t-147 226.5
t-214.5 81q-106 0 -193 -61t-141 -162t-83.5 -225t-29.5 -255zM672 1663l131 276l108 -53l-188 -248zM881 1679l239 258l88 -73l-284 -222z" />
    <glyph glyph-name="Ohungarumlaut" unicode="&#x151;" horiz-adv-x="1638" 
d="M819 -33q-208 0 -382 101t-275 275t-101 382t101 382t275 275t382 101t382 -101t275 -275t101 -382t-101 -382t-275 -275t-382 -101zM401 694q0 -187 51.5 -333.5t145 -227t213.5 -80.5q107 0 195 61.5t142.5 163t84 226t29.5 256.5q0 184 -52.5 329.5t-147 226.5
t-214.5 81q-106 0 -193 -61t-141 -162t-83.5 -225t-29.5 -255zM672 1663l131 276l108 -53l-188 -248zM881 1679l239 258l88 -73l-284 -222z" />
    <glyph glyph-name="OE" unicode="&#x152;" horiz-adv-x="2314" 
d="M819 -33q-208 0 -382 101t-275 275t-101 382t101 382t275 275t382 101q286 0 502 -193q-2 83 -10 135v9h897v-107h-8q-38 14 -71.5 17.5t-115.5 3.5h-385v-351h420v-86h-420v-825h461q124 0 186 14h9v-100h-973v8q10 75 10 154q-102 -93 -230.5 -144t-271.5 -51zM401 694
q0 -187 51.5 -333.5t145 -227t213.5 -80.5q99 0 185 40.5t146.5 109t103.5 159t64 192t21 206.5q0 280 -133.5 458.5t-345.5 178.5q-107 0 -195 -61t-142.5 -162t-84 -224.5t-29.5 -255.5z" />
    <glyph glyph-name="OE" unicode="&#x153;" horiz-adv-x="2314" 
d="M819 -33q-208 0 -382 101t-275 275t-101 382t101 382t275 275t382 101q286 0 502 -193q-2 83 -10 135v9h897v-107h-8q-38 14 -71.5 17.5t-115.5 3.5h-385v-351h420v-86h-420v-825h461q124 0 186 14h9v-100h-973v8q10 75 10 154q-102 -93 -230.5 -144t-271.5 -51zM401 694
q0 -187 51.5 -333.5t145 -227t213.5 -80.5q99 0 185 40.5t146.5 109t103.5 159t64 192t21 206.5q0 280 -133.5 458.5t-345.5 178.5q-107 0 -195 -61t-142.5 -162t-84 -224.5t-29.5 -255.5z" />
    <glyph glyph-name="Racute" unicode="&#x154;" horiz-adv-x="1370" 
d="M764 1434q251 0 391.5 -81.5t140.5 -230.5q0 -115 -83 -192t-236 -105l250 -561q49 -110 79 -158.5t64 -80.5v-25q-91 -22 -183 0.5t-172.5 92.5t-125.5 179l-244 580l12 25q27 -3 64 -3q124 0 192 63.5t68 176.5q0 116 -79 175t-230 59h-242v-1133q0 -96 2.5 -131.5
t11.5 -75.5v-8h-331v8q10 66 10 207v1004q0 140 -10 206v9h651zM547 1622l203 326l110 -93l-268 -272z" />
    <glyph glyph-name="Racute" unicode="&#x155;" horiz-adv-x="1370" 
d="M764 1434q251 0 391.5 -81.5t140.5 -230.5q0 -115 -83 -192t-236 -105l250 -561q49 -110 79 -158.5t64 -80.5v-25q-91 -22 -183 0.5t-172.5 92.5t-125.5 179l-244 580l12 25q27 -3 64 -3q124 0 192 63.5t68 176.5q0 116 -79 175t-230 59h-242v-1133q0 -96 2.5 -131.5
t11.5 -75.5v-8h-331v8q10 66 10 207v1004q0 140 -10 206v9h651zM547 1622l203 326l110 -93l-268 -272z" />
    <glyph glyph-name="uni0156" unicode="&#x156;" horiz-adv-x="1370" 
d="M764 1434q251 0 391.5 -81.5t140.5 -230.5q0 -115 -83 -192t-236 -105l250 -561q49 -110 79 -158.5t64 -80.5v-25q-91 -22 -183 0.5t-172.5 92.5t-125.5 179l-244 580l12 25q27 -3 64 -3q124 0 192 63.5t68 176.5q0 116 -79 175t-230 59h-242v-1133q0 -96 2.5 -131.5
t11.5 -75.5v-8h-331v8q10 66 10 207v1004q0 140 -10 206v9h651zM586 -225q0 47 32.5 80.5t81.5 33.5q47 0 81 -36.5t34 -90.5q0 -61 -41.5 -134.5t-140.5 -186.5l-39 27q30 36 52 69t32 55.5t14.5 40t3.5 26t-6 9.5q-42 7 -73 33t-31 74z" />
    <glyph glyph-name="uni0156" unicode="&#x157;" horiz-adv-x="1370" 
d="M764 1434q251 0 391.5 -81.5t140.5 -230.5q0 -115 -83 -192t-236 -105l250 -561q49 -110 79 -158.5t64 -80.5v-25q-91 -22 -183 0.5t-172.5 92.5t-125.5 179l-244 580l12 25q27 -3 64 -3q124 0 192 63.5t68 176.5q0 116 -79 175t-230 59h-242v-1133q0 -96 2.5 -131.5
t11.5 -75.5v-8h-331v8q10 66 10 207v1004q0 140 -10 206v9h651zM586 -225q0 47 32.5 80.5t81.5 33.5q47 0 81 -36.5t34 -90.5q0 -61 -41.5 -134.5t-140.5 -186.5l-39 27q30 36 52 69t32 55.5t14.5 40t3.5 26t-6 9.5q-42 7 -73 33t-31 74z" />
    <glyph glyph-name="Rcaron" unicode="&#x158;" horiz-adv-x="1370" 
d="M764 1434q251 0 391.5 -81.5t140.5 -230.5q0 -115 -83 -192t-236 -105l250 -561q49 -110 79 -158.5t64 -80.5v-25q-91 -22 -183 0.5t-172.5 92.5t-125.5 179l-244 580l12 25q27 -3 64 -3q124 0 192 63.5t68 176.5q0 116 -79 175t-230 59h-242v-1133q0 -96 2.5 -131.5
t11.5 -75.5v-8h-331v8q10 66 10 207v1004q0 140 -10 206v9h651zM438 1810l41 56l213 -107l201 107l41 -56l-248 -215z" />
    <glyph glyph-name="Rcaron" unicode="&#x159;" horiz-adv-x="1370" 
d="M764 1434q251 0 391.5 -81.5t140.5 -230.5q0 -115 -83 -192t-236 -105l250 -561q49 -110 79 -158.5t64 -80.5v-25q-91 -22 -183 0.5t-172.5 92.5t-125.5 179l-244 580l12 25q27 -3 64 -3q124 0 192 63.5t68 176.5q0 116 -79 175t-230 59h-242v-1133q0 -96 2.5 -131.5
t11.5 -75.5v-8h-331v8q10 66 10 207v1004q0 140 -10 206v9h651zM438 1810l41 56l213 -107l201 107l41 -56l-248 -215z" />
    <glyph glyph-name="Sacute" unicode="&#x15a;" horiz-adv-x="995" 
d="M821 1409l4 -256h-49q-36 122 -101.5 176.5t-164.5 54.5q-77 0 -125.5 -38.5t-48.5 -110.5q0 -57 29 -107.5t96 -123.5l289 -322q145 -164 145 -346q0 -156 -109 -258.5t-303 -102.5q-213 0 -364 119v252h49q92 -282 321 -285q75 -2 120.5 37t45.5 115q0 68 -32.5 129
t-98.5 135l-288 322q-70 77 -107 164.5t-37 171.5q0 145 107.5 240t308.5 95q160 0 313 -61zM367 1622l202 326l111 -93l-268 -272z" />
    <glyph glyph-name="Sacute" unicode="&#x15b;" horiz-adv-x="995" 
d="M821 1409l4 -256h-49q-36 122 -101.5 176.5t-164.5 54.5q-77 0 -125.5 -38.5t-48.5 -110.5q0 -57 29 -107.5t96 -123.5l289 -322q145 -164 145 -346q0 -156 -109 -258.5t-303 -102.5q-213 0 -364 119v252h49q92 -282 321 -285q75 -2 120.5 37t45.5 115q0 68 -32.5 129
t-98.5 135l-288 322q-70 77 -107 164.5t-37 171.5q0 145 107.5 240t308.5 95q160 0 313 -61zM367 1622l202 326l111 -93l-268 -272z" />
    <glyph glyph-name="Scedilla" unicode="&#x15e;" horiz-adv-x="995" 
d="M821 1409l4 -256h-49q-36 122 -101.5 176.5t-164.5 54.5q-77 0 -125.5 -38.5t-48.5 -110.5q0 -57 29 -107.5t96 -123.5l289 -322q145 -164 145 -346q0 -138 -88 -236.5t-246 -119.5l-45 -82q68 4 112 -27.5t44 -83.5q0 -43 -28 -77t-72.5 -54.5t-97 -31.5t-105.5 -11
l4 25q70 3 116 34.5t46 89.5q0 35 -25 61.5t-78 29.5l-8 24l61 98h-2q-213 0 -364 119v252h49q92 -282 321 -285q75 -2 120.5 37t45.5 115q0 68 -32.5 129t-98.5 135l-288 322q-70 77 -107 164.5t-37 171.5q0 145 107.5 240t308.5 95q160 0 313 -61z" />
    <glyph glyph-name="Scedilla" unicode="&#x15f;" horiz-adv-x="995" 
d="M821 1409l4 -256h-49q-36 122 -101.5 176.5t-164.5 54.5q-77 0 -125.5 -38.5t-48.5 -110.5q0 -57 29 -107.5t96 -123.5l289 -322q145 -164 145 -346q0 -138 -88 -236.5t-246 -119.5l-45 -82q68 4 112 -27.5t44 -83.5q0 -43 -28 -77t-72.5 -54.5t-97 -31.5t-105.5 -11
l4 25q70 3 116 34.5t46 89.5q0 35 -25 61.5t-78 29.5l-8 24l61 98h-2q-213 0 -364 119v252h49q92 -282 321 -285q75 -2 120.5 37t45.5 115q0 68 -32.5 129t-98.5 135l-288 322q-70 77 -107 164.5t-37 171.5q0 145 107.5 240t308.5 95q160 0 313 -61z" />
    <glyph glyph-name="Scaron" unicode="&#x160;" horiz-adv-x="995" 
d="M821 1409l4 -256h-49q-36 122 -101.5 176.5t-164.5 54.5q-77 0 -125.5 -38.5t-48.5 -110.5q0 -57 29 -107.5t96 -123.5l289 -322q145 -164 145 -346q0 -156 -109 -258.5t-303 -102.5q-213 0 -364 119v252h49q92 -282 321 -285q75 -2 120.5 37t45.5 115q0 68 -32.5 129
t-98.5 135l-288 322q-70 77 -107 164.5t-37 171.5q0 145 107.5 240t308.5 95q160 0 313 -61zM258 1810l41 56l213 -107l201 107l41 -56l-248 -215z" />
    <glyph glyph-name="Scaron" unicode="&#x161;" horiz-adv-x="995" 
d="M821 1409l4 -256h-49q-36 122 -101.5 176.5t-164.5 54.5q-77 0 -125.5 -38.5t-48.5 -110.5q0 -57 29 -107.5t96 -123.5l289 -322q145 -164 145 -346q0 -156 -109 -258.5t-303 -102.5q-213 0 -364 119v252h49q92 -282 321 -285q75 -2 120.5 37t45.5 115q0 68 -32.5 129
t-98.5 135l-288 322q-70 77 -107 164.5t-37 171.5q0 145 107.5 240t308.5 95q160 0 313 -61zM258 1810l41 56l213 -107l201 107l41 -56l-248 -215z" />
    <glyph glyph-name="uni0162" unicode="&#x162;" horiz-adv-x="1024" 
d="M82 1434h942v-101h-8q-66 15 -187 15h-122v-1133q0 -138 12 -197l2 -10v-8h-125l-55 -102q68 4 111.5 -27.5t43.5 -83.5q0 -43 -28 -77t-72.5 -54.5t-97 -31.5t-105.5 -11l4 25q70 3 116 34.5t46 89.5q0 35 -24.5 61.5t-77.5 29.5l-8 24l75 123h-139v8l2 10q12 59 12 197
v1133h-123q-120 0 -186 -15h-8v101z" />
    <glyph glyph-name="uni0162" unicode="&#x163;" horiz-adv-x="1024" 
d="M82 1434h942v-101h-8q-66 15 -187 15h-122v-1133q0 -138 12 -197l2 -10v-8h-125l-55 -102q68 4 111.5 -27.5t43.5 -83.5q0 -43 -28 -77t-72.5 -54.5t-97 -31.5t-105.5 -11l4 25q70 3 116 34.5t46 89.5q0 35 -24.5 61.5t-77.5 29.5l-8 24l75 123h-139v8l2 10q12 59 12 197
v1133h-123q-120 0 -186 -15h-8v101z" />
    <glyph glyph-name="Tcaron" unicode="&#x164;" horiz-adv-x="1024" 
d="M82 1434h942v-101h-8q-66 15 -187 15h-122v-1133q0 -138 12 -197l2 -10v-8h-336v8l2 10q12 59 12 197v1133h-123q-120 0 -186 -15h-8v101zM305 1810l41 56l213 -107l201 107l41 -56l-248 -215z" />
    <glyph glyph-name="Tcaron" unicode="&#x165;" horiz-adv-x="1024" 
d="M82 1434h942v-101h-8q-66 15 -187 15h-122v-1133q0 -138 12 -197l2 -10v-8h-336v8l2 10q12 59 12 197v1133h-123q-120 0 -186 -15h-8v101zM305 1810l41 56l213 -107l201 107l41 -56l-248 -215z" />
    <glyph glyph-name="Utilde" unicode="&#x168;" horiz-adv-x="1404" 
d="M129 1434h332v-9q-9 -42 -12 -77.5t-3 -128.5v-678q0 -211 101 -334t274 -123q171 0 272 118t101 314v703q0 96 -2.5 131t-11.5 75v9h116v-9q-10 -66 -10 -206v-691q0 -262 -154 -411.5t-419 -149.5q-264 0 -419 148t-155 401v703q0 140 -10 206v9zM444 1747
q34 79 82.5 112t120.5 33q12 0 26.5 -2t25 -4.5t28 -8t25.5 -8.5t28.5 -10.5t26.5 -9.5q138 -65 203 -65q55 0 96 41l18 -23q-34 -79 -82 -112t-120 -33q-12 0 -26.5 2t-25 4.5t-28 8t-25.5 8.5t-28.5 10.5t-26.5 9.5q-138 65 -203 65q-55 0 -96 -41z" />
    <glyph glyph-name="Utilde" unicode="&#x169;" horiz-adv-x="1404" 
d="M129 1434h332v-9q-9 -42 -12 -77.5t-3 -128.5v-678q0 -211 101 -334t274 -123q171 0 272 118t101 314v703q0 96 -2.5 131t-11.5 75v9h116v-9q-10 -66 -10 -206v-691q0 -262 -154 -411.5t-419 -149.5q-264 0 -419 148t-155 401v703q0 140 -10 206v9zM444 1747
q34 79 82.5 112t120.5 33q12 0 26.5 -2t25 -4.5t28 -8t25.5 -8.5t28.5 -10.5t26.5 -9.5q138 -65 203 -65q55 0 96 41l18 -23q-34 -79 -82 -112t-120 -33q-12 0 -26.5 2t-25 4.5t-28 8t-25.5 8.5t-28.5 10.5t-26.5 9.5q-138 65 -203 65q-55 0 -96 -41z" />
    <glyph glyph-name="Umacron" unicode="&#x16a;" horiz-adv-x="1404" 
d="M129 1434h332v-9q-9 -42 -12 -77.5t-3 -128.5v-678q0 -211 101 -334t274 -123q171 0 272 118t101 314v703q0 96 -2.5 131t-11.5 75v9h116v-9q-10 -66 -10 -206v-691q0 -262 -154 -411.5t-419 -149.5q-264 0 -419 148t-155 401v703q0 140 -10 206v9zM406 1679v111h778
v-111h-778z" />
    <glyph glyph-name="Umacron" unicode="&#x16b;" horiz-adv-x="1404" 
d="M129 1434h332v-9q-9 -42 -12 -77.5t-3 -128.5v-678q0 -211 101 -334t274 -123q171 0 272 118t101 314v703q0 96 -2.5 131t-11.5 75v9h116v-9q-10 -66 -10 -206v-691q0 -262 -154 -411.5t-419 -149.5q-264 0 -419 148t-155 401v703q0 140 -10 206v9zM406 1679v111h778
v-111h-778z" />
    <glyph glyph-name="Uring" unicode="&#x16e;" horiz-adv-x="1404" 
d="M129 1434h332v-9q-9 -42 -12 -77.5t-3 -128.5v-678q0 -211 101 -334t274 -123q171 0 272 118t101 314v703q0 96 -2.5 131t-11.5 75v9h116v-9q-10 -66 -10 -206v-691q0 -262 -154 -411.5t-419 -149.5q-264 0 -419 148t-155 401v703q0 140 -10 206v9zM631 1780
q0 71 46 117.5t118 46.5t117.5 -46.5t45.5 -117.5q0 -72 -45.5 -118t-117.5 -46t-118 46t-46 118zM723 1780q0 -43 20.5 -73t51.5 -30q30 0 50.5 30t20.5 73t-20 72.5t-51 29.5t-51.5 -29.5t-20.5 -72.5z" />
    <glyph glyph-name="Uring" unicode="&#x16f;" horiz-adv-x="1404" 
d="M129 1434h332v-9q-9 -42 -12 -77.5t-3 -128.5v-678q0 -211 101 -334t274 -123q171 0 272 118t101 314v703q0 96 -2.5 131t-11.5 75v9h116v-9q-10 -66 -10 -206v-691q0 -262 -154 -411.5t-419 -149.5q-264 0 -419 148t-155 401v703q0 140 -10 206v9zM631 1780
q0 71 46 117.5t118 46.5t117.5 -46.5t45.5 -117.5q0 -72 -45.5 -118t-117.5 -46t-118 46t-46 118zM723 1780q0 -43 20.5 -73t51.5 -30q30 0 50.5 30t20.5 73t-20 72.5t-51 29.5t-51.5 -29.5t-20.5 -72.5z" />
    <glyph glyph-name="Uhungarumlaut" unicode="&#x170;" horiz-adv-x="1404" 
d="M129 1434h332v-9q-9 -42 -12 -77.5t-3 -128.5v-678q0 -211 101 -334t274 -123q171 0 272 118t101 314v703q0 96 -2.5 131t-11.5 75v9h116v-9q-10 -66 -10 -206v-691q0 -262 -154 -411.5t-419 -149.5q-264 0 -419 148t-155 401v703q0 140 -10 206v9zM629 1663l131 276
l108 -53l-188 -248zM838 1679l239 258l88 -73l-284 -222z" />
    <glyph glyph-name="Uhungarumlaut" unicode="&#x171;" horiz-adv-x="1404" 
d="M129 1434h332v-9q-9 -42 -12 -77.5t-3 -128.5v-678q0 -211 101 -334t274 -123q171 0 272 118t101 314v703q0 96 -2.5 131t-11.5 75v9h116v-9q-10 -66 -10 -206v-691q0 -262 -154 -411.5t-419 -149.5q-264 0 -419 148t-155 401v703q0 140 -10 206v9zM629 1663l131 276
l108 -53l-188 -248zM838 1679l239 258l88 -73l-284 -222z" />
    <glyph glyph-name="Uogonek" unicode="&#x172;" horiz-adv-x="1404" 
d="M129 1434h332v-9q-9 -42 -12 -77.5t-3 -128.5v-678q0 -211 101 -334t274 -123q171 0 272 118t101 314v703q0 96 -2.5 131t-11.5 75v9h116v-9q-10 -66 -10 -206v-691q0 -204 -95.5 -341.5t-268.5 -190.5q-105 -45 -148 -83.5t-43 -86.5q0 -49 34.5 -81t104.5 -32
q25 0 37 2l6 -22q-95 -60 -180 -60q-73 0 -118.5 42t-45.5 100q0 118 168 192h-24q-264 0 -419 148t-155 401v703q0 140 -10 206v9z" />
    <glyph glyph-name="Uogonek" unicode="&#x173;" horiz-adv-x="1404" 
d="M129 1434h332v-9q-9 -42 -12 -77.5t-3 -128.5v-678q0 -211 101 -334t274 -123q171 0 272 118t101 314v703q0 96 -2.5 131t-11.5 75v9h116v-9q-10 -66 -10 -206v-691q0 -204 -95.5 -341.5t-268.5 -190.5q-105 -45 -148 -83.5t-43 -86.5q0 -49 34.5 -81t104.5 -32
q25 0 37 2l6 -22q-95 -60 -180 -60q-73 0 -118.5 42t-45.5 100q0 118 168 192h-24q-264 0 -419 148t-155 401v703q0 140 -10 206v9z" />
    <glyph glyph-name="Wcircumflex" unicode="&#x174;" horiz-adv-x="2045" 
d="M-23 1434h365v-15q0 -79 41 -200l338 -983l358 1124h13l454 -1124l344 983q49 139 49 198v17h129v-9q-1 -1 -5.5 -9t-10.5 -20t-15.5 -33t-23.5 -58.5t-31 -85.5l-426 -1219q-53 0 -117 -15.5t-110 -41.5l-336 868l-256 -811q-53 0 -117 -15.5t-110 -41.5l-451 1276
q-51 144 -82 206v9zM858 1626l248 215l248 -215l-41 -55l-213 106l-201 -106z" />
    <glyph glyph-name="Wcircumflex" unicode="&#x175;" horiz-adv-x="2045" 
d="M-23 1434h365v-15q0 -79 41 -200l338 -983l358 1124h13l454 -1124l344 983q49 139 49 198v17h129v-9q-1 -1 -5.5 -9t-10.5 -20t-15.5 -33t-23.5 -58.5t-31 -85.5l-426 -1219q-53 0 -117 -15.5t-110 -41.5l-336 868l-256 -811q-53 0 -117 -15.5t-110 -41.5l-451 1276
q-51 144 -82 206v9zM858 1626l248 215l248 -215l-41 -55l-213 106l-201 -106z" />
    <glyph glyph-name="Ycircumflex" unicode="&#x176;" horiz-adv-x="1267" 
d="M119 1217q-113 163 -164 208v9h403l2 -9q5 -17 21 -43t78 -116l299 -424l291 424q23 34 38.5 58.5t23 41t10.5 24.5t5.5 19.5t3.5 15.5l3 9h145v-9q-66 -75 -158 -208l-293 -426v-596q0 -114 11 -187v-8h-328v8q10 66 10 187v450zM522 1626l248 215l248 -215l-41 -55
l-213 106l-201 -106z" />
    <glyph glyph-name="Ycircumflex" unicode="&#x177;" horiz-adv-x="1267" 
d="M119 1217q-113 163 -164 208v9h403l2 -9q5 -17 21 -43t78 -116l299 -424l291 424q23 34 38.5 58.5t23 41t10.5 24.5t5.5 19.5t3.5 15.5l3 9h145v-9q-66 -75 -158 -208l-293 -426v-596q0 -114 11 -187v-8h-328v8q10 66 10 187v450zM522 1626l248 215l248 -215l-41 -55
l-213 106l-201 -106z" />
    <glyph glyph-name="Zacute" unicode="&#x179;" horiz-adv-x="1167" 
d="M195 1434h931l-622 -1342h385q124 0 186 14h8v-106h-960l627 1348h-361q-120 0 -186 -15h-8v101zM506 1622l203 326l110 -93l-268 -272z" />
    <glyph glyph-name="Zacute" unicode="&#x17a;" horiz-adv-x="1167" 
d="M195 1434h931l-622 -1342h385q124 0 186 14h8v-106h-960l627 1348h-361q-120 0 -186 -15h-8v101zM506 1622l203 326l110 -93l-268 -272z" />
    <glyph glyph-name="Zdotaccent" unicode="&#x17b;" horiz-adv-x="1167" 
d="M195 1434h931l-622 -1342h385q124 0 186 14h8v-106h-960l627 1348h-361q-120 0 -186 -15h-8v101zM522 1753q0 50 35 85.5t88 35.5q48 0 85.5 -36t37.5 -85q0 -51 -37.5 -88t-85.5 -37q-53 0 -88 36t-35 89z" />
    <glyph glyph-name="Zdotaccent" unicode="&#x17c;" horiz-adv-x="1167" 
d="M195 1434h931l-622 -1342h385q124 0 186 14h8v-106h-960l627 1348h-361q-120 0 -186 -15h-8v101zM522 1753q0 50 35 85.5t88 35.5q48 0 85.5 -36t37.5 -85q0 -51 -37.5 -88t-85.5 -37q-53 0 -88 36t-35 89z" />
    <glyph glyph-name="Zcaron" unicode="&#x17d;" horiz-adv-x="1167" 
d="M195 1434h931l-622 -1342h385q124 0 186 14h8v-106h-960l627 1348h-361q-120 0 -186 -15h-8v101zM397 1810l41 56l213 -107l201 107l41 -56l-248 -215z" />
    <glyph glyph-name="Zcaron" unicode="&#x17e;" horiz-adv-x="1167" 
d="M195 1434h931l-622 -1342h385q124 0 186 14h8v-106h-960l627 1348h-361q-120 0 -186 -15h-8v101zM397 1810l41 56l213 -107l201 107l41 -56l-248 -215z" />
    <glyph glyph-name="uni01DE" unicode="&#x1de;" horiz-adv-x="1228" 
d="M528 1434q158 0 228 57l452 -1276q53 -154 80 -207v-8h-364v8l2 9q1 9 0 21t-4.5 33.5t-13.5 58.5t-27 85l-47 137h-631l-51 -137q-14 -35 -24 -64t-16 -49.5t-10 -35.5t-5 -25.5t-1.5 -15.5t0.5 -11v-6v-8h-129v8q34 68 88 207zM236 438h567l-271 779zM240 1982v111h778
v-111h-778zM352 1753q0 41 30 71.5t73 30.5q40 0 71 -31t31 -71q0 -43 -30.5 -73.5t-71.5 -30.5q-44 0 -73.5 30t-29.5 74zM700 1753q0 39 30 69.5t73 30.5q40 0 71 -31t31 -69q0 -43 -30.5 -73.5t-71.5 -30.5q-44 0 -73.5 30t-29.5 74z" />
    <glyph glyph-name="uni01DE" unicode="&#x1df;" horiz-adv-x="1228" 
d="M528 1434q158 0 228 57l452 -1276q53 -154 80 -207v-8h-364v8l2 9q1 9 0 21t-4.5 33.5t-13.5 58.5t-27 85l-47 137h-631l-51 -137q-14 -35 -24 -64t-16 -49.5t-10 -35.5t-5 -25.5t-1.5 -15.5t0.5 -11v-6v-8h-129v8q34 68 88 207zM236 438h567l-271 779zM240 1982v111h778
v-111h-778zM352 1753q0 41 30 71.5t73 30.5q40 0 71 -31t31 -71q0 -43 -30.5 -73.5t-71.5 -30.5q-44 0 -73.5 30t-29.5 74zM700 1753q0 39 30 69.5t73 30.5q40 0 71 -31t31 -69q0 -43 -30.5 -73.5t-71.5 -30.5q-44 0 -73.5 30t-29.5 74z" />
    <glyph glyph-name="uni0218" unicode="&#x218;" horiz-adv-x="995" 
d="M821 1409l4 -256h-49q-36 122 -101.5 176.5t-164.5 54.5q-77 0 -125.5 -38.5t-48.5 -110.5q0 -57 29 -107.5t96 -123.5l289 -322q145 -164 145 -346q0 -156 -109 -258.5t-303 -102.5q-213 0 -364 119v252h49q92 -282 321 -285q75 -2 120.5 37t45.5 115q0 68 -32.5 129
t-98.5 135l-288 322q-70 77 -107 164.5t-37 171.5q0 145 107.5 240t308.5 95q160 0 313 -61zM395 -225q0 47 33 80.5t82 33.5q47 0 81 -36.5t34 -90.5q0 -61 -42 -134.5t-141 -186.5l-39 27q30 36 52 69t32.5 55.5t15 40t3.5 26t-6 9.5q-43 7 -74 33t-31 74z" />
    <glyph glyph-name="uni0218" unicode="&#x219;" horiz-adv-x="995" 
d="M821 1409l4 -256h-49q-36 122 -101.5 176.5t-164.5 54.5q-77 0 -125.5 -38.5t-48.5 -110.5q0 -57 29 -107.5t96 -123.5l289 -322q145 -164 145 -346q0 -156 -109 -258.5t-303 -102.5q-213 0 -364 119v252h49q92 -282 321 -285q75 -2 120.5 37t45.5 115q0 68 -32.5 129
t-98.5 135l-288 322q-70 77 -107 164.5t-37 171.5q0 145 107.5 240t308.5 95q160 0 313 -61zM395 -225q0 47 33 80.5t82 33.5q47 0 81 -36.5t34 -90.5q0 -61 -42 -134.5t-141 -186.5l-39 27q30 36 52 69t32.5 55.5t15 40t3.5 26t-6 9.5q-43 7 -74 33t-31 74z" />
    <glyph glyph-name="uni021A" unicode="&#x21a;" horiz-adv-x="1024" 
d="M82 1434h942v-101h-8q-66 15 -187 15h-122v-1133q0 -138 12 -197l2 -10v-8h-336v8l2 10q12 59 12 197v1133h-123q-120 0 -186 -15h-8v101zM442 -225q0 47 33 80.5t82 33.5q47 0 81 -36.5t34 -90.5q0 -61 -42 -134.5t-141 -186.5l-38 27q30 36 52 69t32 55.5t14.5 40
t3.5 26t-6 9.5q-43 7 -74 33t-31 74z" />
    <glyph glyph-name="uni021A" unicode="&#x21b;" horiz-adv-x="1024" 
d="M82 1434h942v-101h-8q-66 15 -187 15h-122v-1133q0 -138 12 -197l2 -10v-8h-336v8l2 10q12 59 12 197v1133h-123q-120 0 -186 -15h-8v101zM442 -225q0 47 33 80.5t82 33.5q47 0 81 -36.5t34 -90.5q0 -61 -42 -134.5t-141 -186.5l-38 27q30 36 52 69t32 55.5t14.5 40
t3.5 26t-6 9.5q-43 7 -74 33t-31 74z" />
    <glyph glyph-name="uni0228" unicode="&#x228;" horiz-adv-x="1116" 
d="M113 1434h897v-107h-9q-38 14 -71 17.5t-115 3.5h-385v-351h420v-86h-420v-825h461q124 0 186 14h8v-100h-387l-55 -102q68 4 112 -27.5t44 -83.5q0 -43 -28 -77t-72.5 -54.5t-97 -31.5t-105.5 -11l4 25q70 3 116 34.5t46 89.5q0 35 -25 61.5t-78 29.5l-8 24l76 123h-514
v8q10 66 10 207v1004q0 140 -10 206v9z" />
    <glyph glyph-name="uni0228" unicode="&#x229;" horiz-adv-x="1116" 
d="M113 1434h897v-107h-9q-38 14 -71 17.5t-115 3.5h-385v-351h420v-86h-420v-825h461q124 0 186 14h8v-100h-387l-55 -102q68 4 112 -27.5t44 -83.5q0 -43 -28 -77t-72.5 -54.5t-97 -31.5t-105.5 -11l4 25q70 3 116 34.5t46 89.5q0 35 -25 61.5t-78 29.5l-8 24l76 123h-514
v8q10 66 10 207v1004q0 140 -10 206v9z" />
    <glyph glyph-name="uni02BC" unicode="&#x2bc;" horiz-adv-x="573" 
d="M229 1497l191 -33l-129 -499l-80 14z" />
    <glyph glyph-name="gravecomb" unicode="&#x300;" 
d="M537 1927l202 -325l-45 -39l-268 272z" />
    <glyph glyph-name="acutecomb" unicode="&#x301;" 
d="M678 1948l110 -93l-268 -272l-45 39z" />
    <glyph glyph-name="uni0302" unicode="&#x302;" 
d="M821 1612l-213 106l-200 -106l-41 55l247 215l248 -215z" />
    <glyph glyph-name="tildecomb" unicode="&#x303;" 
d="M741 1657q-15 0 -29.5 2t-34.5 8t-28.5 8.5t-35.5 13t-31 11.5q-138 65 -203 65q-55 0 -96 -41l-19 23q34 79 82.5 112t120.5 33q12 0 26.5 -2t25 -4.5t28 -8t25.5 -8.5t28.5 -10.5t26.5 -9.5q138 -65 202 -65q56 0 97 41l18 -23q-34 -79 -82.5 -112t-120.5 -33z" />
    <glyph glyph-name="uni0304" unicode="&#x304;" 
d="M225 1790h779v-111h-779v111z" />
    <glyph glyph-name="uni0306" unicode="&#x306;" 
d="M287 1868h147v-2q0 -61 35 -115q49 -68 145 -68q78 0 126.5 49t54.5 136h147q-5 -120 -95 -195.5t-233 -75.5t-232.5 75.5t-94.5 195.5z" />
    <glyph glyph-name="uni0307" unicode="&#x307;" 
d="M614 1628q-53 0 -87.5 36t-34.5 89q0 50 34.5 85.5t87.5 35.5q48 0 85.5 -36t37.5 -85q0 -51 -37.5 -88t-85.5 -37z" />
    <glyph glyph-name="uni0308" unicode="&#x308;" 
d="M440 1649q-44 0 -73 30t-29 74q0 41 29.5 71.5t72.5 30.5q40 0 71.5 -31t31.5 -71q0 -43 -31 -73.5t-72 -30.5zM686 1753q0 39 29.5 69.5t72.5 30.5q40 0 71.5 -31t31.5 -69q0 -43 -31 -73.5t-72 -30.5q-44 0 -73 30t-29 74z" />
    <glyph glyph-name="uni030A" unicode="&#x30a;" 
d="M451 1780q0 71 45.5 117.5t117.5 46.5t118 -46.5t46 -117.5q0 -72 -46 -118t-118 -46t-117.5 46t-45.5 118zM543 1780q0 -43 20.5 -73t50.5 -30q31 0 51.5 30t20.5 73t-20.5 72.5t-51.5 29.5t-51 -29.5t-20 -72.5z" />
    <glyph glyph-name="uni030B" unicode="&#x30b;" 
d="M580 1939l108 -53l-188 -248l-51 25zM657 1679l240 258l88 -73l-285 -222z" />
    <glyph glyph-name="uni030C" unicode="&#x30c;" 
d="M408 1866l213 -107l200 107l41 -56l-248 -215l-247 215z" />
    <glyph glyph-name="uni0312" unicode="&#x312;" 
d="M420 1509q-38 -45 -65 -86.5t-40.5 -70t-19 -50.5t-4 -33t7.5 -12q53 -9 92 -41.5t39 -91.5t-41 -101t-102 -42q-60 0 -102 45.5t-42 114.5q0 77 52.5 169.5t175.5 231.5z" />
    <glyph glyph-name="uni0326" unicode="&#x326;" 
d="M184 -532q30 36 52 69t32.5 55.5t15 40t3.5 26t-6 9.5q-43 7 -74 33t-31 74q0 47 33 80.5t82 33.5q47 0 81 -36.5t34 -90.5q0 -61 -42 -134.5t-141 -186.5z" />
    <glyph glyph-name="uni0327" unicode="&#x327;" 
d="M508 29l53 -29l-55 -102q68 4 112 -27.5t44 -83.5q0 -56 -48.5 -97t-115.5 -59t-140 -18l4 25q70 3 116 34.5t46 89.5q0 35 -24.5 61.5t-77.5 29.5l-8 24z" />
    <glyph glyph-name="uni0328" unicode="&#x328;" 
d="M426 -362q-73 0 -118.5 41.5t-45.5 99.5q0 84 89.5 149t262.5 101v-29q-105 -45 -147.5 -83.5t-42.5 -86.5q0 -49 34.5 -81t104.5 -32q25 0 37 2l6 -22q-93 -59 -180 -59z" />
    <glyph glyph-name="uni0401" unicode="&#x401;" horiz-adv-x="1116" 
d="M113 1434h897v-107h-9q-38 14 -71 17.5t-115 3.5h-385v-351h420v-86h-420v-825h461q124 0 186 14h8v-100h-972v8q10 66 10 207v1004q0 140 -10 206v9zM307 1753q0 41 30 71.5t73 30.5q40 0 71 -31t31 -71q0 -43 -30.5 -73.5t-71.5 -30.5q-44 0 -73.5 30t-29.5 74z
M655 1753q0 39 30 69.5t73 30.5q40 0 71 -31t31 -69q0 -43 -30.5 -73.5t-71.5 -30.5q-44 0 -73.5 30t-29.5 74z" />
    <glyph glyph-name="uni0401" unicode="&#x451;" horiz-adv-x="1116" 
d="M113 1434h897v-107h-9q-38 14 -71 17.5t-115 3.5h-385v-351h420v-86h-420v-825h461q124 0 186 14h8v-100h-972v8q10 66 10 207v1004q0 140 -10 206v9zM307 1753q0 41 30 71.5t73 30.5q40 0 71 -31t31 -71q0 -43 -30.5 -73.5t-71.5 -30.5q-44 0 -73.5 30t-29.5 74z
M655 1753q0 39 30 69.5t73 30.5q40 0 71 -31t31 -69q0 -43 -30.5 -73.5t-71.5 -30.5q-44 0 -73.5 30t-29.5 74z" />
    <glyph glyph-name="uni0402" unicode="&#x402;" horiz-adv-x="1540" 
d="M932 825q-124 0 -225 -65v-545q0 -138 12 -197l2 -10v-8h-336v8l2 10q12 59 12 197v1133h-123q-120 0 -186 -15h-8v101h942v-101h-8q-66 15 -187 15h-122v-490q135 94 313 94q118 0 212 -41t152 -110.5t88.5 -158t30.5 -187.5q0 -90 -24 -179t-74 -172t-120 -148.5
t-168.5 -110t-213.5 -56.5v53q89 29 157.5 122.5t102 213t33.5 244.5q0 110 -27.5 199t-89 146.5t-147.5 57.5z" />
    <glyph glyph-name="uni0402" unicode="&#x452;" horiz-adv-x="1540" 
d="M932 825q-124 0 -225 -65v-545q0 -138 12 -197l2 -10v-8h-336v8l2 10q12 59 12 197v1133h-123q-120 0 -186 -15h-8v101h942v-101h-8q-66 15 -187 15h-122v-490q135 94 313 94q118 0 212 -41t152 -110.5t88.5 -158t30.5 -187.5q0 -90 -24 -179t-74 -172t-120 -148.5
t-168.5 -110t-213.5 -56.5v53q89 29 157.5 122.5t102 213t33.5 244.5q0 110 -27.5 199t-89 146.5t-147.5 57.5z" />
    <glyph glyph-name="uni0403" unicode="&#x403;" horiz-adv-x="983" 
d="M113 1434h809v-101h-9q-66 15 -186 15h-297v-1133q0 -96 2.5 -131.5t11.5 -75.5v-8h-331v8q10 66 10 207v1004q0 140 -10 206v9zM475 1622l203 326l110 -93l-268 -272z" />
    <glyph glyph-name="uni0403" unicode="&#x453;" horiz-adv-x="983" 
d="M113 1434h809v-101h-9q-66 15 -186 15h-297v-1133q0 -96 2.5 -131.5t11.5 -75.5v-8h-331v8q10 66 10 207v1004q0 140 -10 206v9zM475 1622l203 326l110 -93l-268 -272z" />
    <glyph glyph-name="uni0404" unicode="&#x404;" horiz-adv-x="1488" 
d="M1094 766q-36 25 -62 25q-23 0 -49.5 -11.5t-77.5 -40.5t-86 -47q-94 -51 -178 -51q-104 0 -209 78l27 39q25 -10 57 -10q37 0 81 17.5t138 65.5q103 54 189 54q105 0 198 -80zM61 725q0 156 59 296t159.5 241.5t240 161t295.5 59.5q167 0 315 -64t256 -172v-262h-47
q-17 122 -84.5 217.5t-163 145t-200.5 49.5q-76 0 -147.5 -25.5t-136.5 -81.5t-113 -136.5t-76.5 -199t-28.5 -260.5q0 -161 39 -286.5t105.5 -201.5t148.5 -114.5t174 -38.5q104 0 201 48.5t173 145t109 224.5h47v-268q-109 -108 -257.5 -172t-313.5 -64
q-156 0 -295.5 59.5t-240 161t-159.5 241.5t-59 296z" />
    <glyph glyph-name="uni0404" unicode="&#x454;" horiz-adv-x="1488" 
d="M1094 766q-36 25 -62 25q-23 0 -49.5 -11.5t-77.5 -40.5t-86 -47q-94 -51 -178 -51q-104 0 -209 78l27 39q25 -10 57 -10q37 0 81 17.5t138 65.5q103 54 189 54q105 0 198 -80zM61 725q0 156 59 296t159.5 241.5t240 161t295.5 59.5q167 0 315 -64t256 -172v-262h-47
q-17 122 -84.5 217.5t-163 145t-200.5 49.5q-76 0 -147.5 -25.5t-136.5 -81.5t-113 -136.5t-76.5 -199t-28.5 -260.5q0 -161 39 -286.5t105.5 -201.5t148.5 -114.5t174 -38.5q104 0 201 48.5t173 145t109 224.5h47v-268q-109 -108 -257.5 -172t-313.5 -64
q-156 0 -295.5 59.5t-240 161t-159.5 241.5t-59 296z" />
    <glyph glyph-name="uni0405" unicode="&#x405;" horiz-adv-x="995" 
d="M821 1409l4 -256h-49q-36 122 -101.5 176.5t-164.5 54.5q-77 0 -125.5 -38.5t-48.5 -110.5q0 -57 29 -107.5t96 -123.5l289 -322q145 -164 145 -346q0 -156 -109 -258.5t-303 -102.5q-213 0 -364 119v252h49q92 -282 321 -285q75 -2 120.5 37t45.5 115q0 68 -32.5 129
t-98.5 135l-288 322q-70 77 -107 164.5t-37 171.5q0 145 107.5 240t308.5 95q160 0 313 -61z" />
    <glyph glyph-name="uni0405" unicode="&#x455;" horiz-adv-x="995" 
d="M821 1409l4 -256h-49q-36 122 -101.5 176.5t-164.5 54.5q-77 0 -125.5 -38.5t-48.5 -110.5q0 -57 29 -107.5t96 -123.5l289 -322q145 -164 145 -346q0 -156 -109 -258.5t-303 -102.5q-213 0 -364 119v252h49q92 -282 321 -285q75 -2 120.5 37t45.5 115q0 68 -32.5 129
t-98.5 135l-288 322q-70 77 -107 164.5t-37 171.5q0 145 107.5 240t308.5 95q160 0 313 -61z" />
    <glyph glyph-name="uni0406" unicode="&#x406;" horiz-adv-x="583" 
d="M129 1434h328v-9q-11 -73 -11 -206v-1004q0 -134 11 -207v-8h-328v8q10 66 10 207v1004q0 140 -10 206v9z" />
    <glyph glyph-name="uni0406" unicode="&#x456;" horiz-adv-x="583" 
d="M129 1434h328v-9q-11 -73 -11 -206v-1004q0 -134 11 -207v-8h-328v8q10 66 10 207v1004q0 140 -10 206v9z" />
    <glyph glyph-name="uni0407" unicode="&#x407;" horiz-adv-x="583" 
d="M129 1434h328v-9q-11 -73 -11 -206v-1004q0 -134 11 -207v-8h-328v8q10 66 10 207v1004q0 140 -10 206v9zM14 1753q0 41 30 71.5t73 30.5q40 0 71 -31t31 -71q0 -43 -30.5 -73.5t-71.5 -30.5q-44 0 -73.5 30t-29.5 74zM362 1753q0 39 30 69.5t73 30.5q40 0 71 -31t31 -69
q0 -43 -30.5 -73.5t-71.5 -30.5q-44 0 -73.5 30t-29.5 74z" />
    <glyph glyph-name="uni0407" unicode="&#x457;" horiz-adv-x="583" 
d="M129 1434h328v-9q-11 -73 -11 -206v-1004q0 -134 11 -207v-8h-328v8q10 66 10 207v1004q0 140 -10 206v9zM14 1753q0 41 30 71.5t73 30.5q40 0 71 -31t31 -71q0 -43 -30.5 -73.5t-71.5 -30.5q-44 0 -73.5 30t-29.5 74zM362 1753q0 39 30 69.5t73 30.5q40 0 71 -31t31 -69
q0 -43 -30.5 -73.5t-71.5 -30.5q-44 0 -73.5 30t-29.5 74z" />
    <glyph glyph-name="uni0408" unicode="&#x408;" horiz-adv-x="624" 
d="M170 1434h328v-9q-11 -73 -11 -206v-971q0 -270 -160 -426.5t-427 -183.5v53q280 92 280 581v947q0 140 -10 206v9z" />
    <glyph glyph-name="uni0408" unicode="&#x458;" horiz-adv-x="624" 
d="M170 1434h328v-9q-11 -73 -11 -206v-971q0 -270 -160 -426.5t-427 -183.5v53q280 92 280 581v947q0 140 -10 206v9z" />
    <glyph glyph-name="uni0409" unicode="&#x409;" horiz-adv-x="1886" 
d="M350 1434h770v-9q-9 -40 -11.5 -75t-2.5 -131v-1133h135q113 0 195 57t119.5 142.5t37.5 185.5q0 76 -24 146.5t-69 127.5t-118.5 91t-164.5 34h-29v62q82 10 145 10q90 0 171 -15t153.5 -49t125 -84t83 -123.5t30.5 -164.5q0 -238 -159 -372t-443 -134h-510v8
q9 42 12 78t3 129v1133h-346l-193 -1123q-21 -119 -60 -176t-110 -57q-46 0 -90 16v170h20q48 -31 80 -31q39 0 54.5 30.5t27.5 103.5l160 938q15 87 15.5 131.5t-7.5 74.5v9z" />
    <glyph glyph-name="uni0409" unicode="&#x459;" horiz-adv-x="1886" 
d="M350 1434h770v-9q-9 -40 -11.5 -75t-2.5 -131v-1133h135q113 0 195 57t119.5 142.5t37.5 185.5q0 76 -24 146.5t-69 127.5t-118.5 91t-164.5 34h-29v62q82 10 145 10q90 0 171 -15t153.5 -49t125 -84t83 -123.5t30.5 -164.5q0 -238 -159 -372t-443 -134h-510v8
q9 42 12 78t3 129v1133h-346l-193 -1123q-21 -119 -60 -176t-110 -57q-46 0 -90 16v170h20q48 -31 80 -31q39 0 54.5 30.5t27.5 103.5l160 938q15 87 15.5 131.5t-7.5 74.5v9z" />
    <glyph glyph-name="uni040A" unicode="&#x40a;" horiz-adv-x="2060" 
d="M113 1434h331v-9q-9 -40 -11.5 -75t-2.5 -131v-222h543v222q0 140 -10 206v9h331v-9q-9 -40 -11.5 -75t-2.5 -131v-1133h135q113 0 195 57t119.5 142.5t37.5 185.5q0 76 -24 146.5t-69 127.5t-118.5 91t-164.5 34h-29v62q82 10 145 10q90 0 171 -15t153.5 -49t125.5 -84
t83.5 -123.5t30.5 -164.5q0 -238 -159.5 -372t-443.5 -134h-505v8q10 66 10 207v696h-543v-696q0 -96 2.5 -131.5t11.5 -75.5v-8h-331v8q10 66 10 207v1004q0 140 -10 206v9z" />
    <glyph glyph-name="uni040A" unicode="&#x45a;" horiz-adv-x="2060" 
d="M113 1434h331v-9q-9 -40 -11.5 -75t-2.5 -131v-222h543v222q0 140 -10 206v9h331v-9q-9 -40 -11.5 -75t-2.5 -131v-1133h135q113 0 195 57t119.5 142.5t37.5 185.5q0 76 -24 146.5t-69 127.5t-118.5 91t-164.5 34h-29v62q82 10 145 10q90 0 171 -15t153.5 -49t125.5 -84
t83.5 -123.5t30.5 -164.5q0 -238 -159.5 -372t-443.5 -134h-505v8q10 66 10 207v696h-543v-696q0 -96 2.5 -131.5t11.5 -75.5v-8h-331v8q10 66 10 207v1004q0 140 -10 206v9z" />
    <glyph glyph-name="uni040B" unicode="&#x40b;" horiz-adv-x="1550" 
d="M82 1434h942v-101h-8q-66 15 -187 15h-122v-490q135 94 313 94q228 0 349.5 -112t121.5 -285v-340q0 -141 10 -207v-8h-332v8q9 42 12 78t3 129v324q0 129 -66.5 207.5t-185.5 78.5q-124 0 -225 -65v-545q0 -138 12 -197l2 -10v-8h-336v8l2 10q12 59 12 197v1133h-123
q-120 0 -186 -15h-8v101z" />
    <glyph glyph-name="uni040B" unicode="&#x45b;" horiz-adv-x="1550" 
d="M82 1434h942v-101h-8q-66 15 -187 15h-122v-490q135 94 313 94q228 0 349.5 -112t121.5 -285v-340q0 -141 10 -207v-8h-332v8q9 42 12 78t3 129v324q0 129 -66.5 207.5t-185.5 78.5q-124 0 -225 -65v-545q0 -138 12 -197l2 -10v-8h-336v8l2 10q12 59 12 197v1133h-123
q-120 0 -186 -15h-8v101z" />
    <glyph glyph-name="uni040C" unicode="&#x40c;" horiz-adv-x="1288" 
d="M113 1434h331v-9q-9 -40 -11.5 -75t-2.5 -131v-390l416 390q194 182 194 206v9h162v-9q-12 -8 -23 -16.5t-25.5 -21.5t-25 -22t-32 -28.5t-34 -31.5t-43 -40.5t-48.5 -45.5l-137 -132l372 -829q46 -103 80 -151t74 -82v-25q-66 -21 -139 -12.5t-138.5 37.5t-123 89
t-91.5 142l-262 627l-176 -164v-504q0 -96 2.5 -131.5t11.5 -75.5v-8h-331v8q10 66 10 207v1004q0 140 -10 206v9zM588 1622l203 326l110 -93l-268 -272z" />
    <glyph glyph-name="uni040C" unicode="&#x45c;" horiz-adv-x="1288" 
d="M113 1434h331v-9q-9 -40 -11.5 -75t-2.5 -131v-390l416 390q194 182 194 206v9h162v-9q-12 -8 -23 -16.5t-25.5 -21.5t-25 -22t-32 -28.5t-34 -31.5t-43 -40.5t-48.5 -45.5l-137 -132l372 -829q46 -103 80 -151t74 -82v-25q-66 -21 -139 -12.5t-138.5 37.5t-123 89
t-91.5 142l-262 627l-176 -164v-504q0 -96 2.5 -131.5t11.5 -75.5v-8h-331v8q10 66 10 207v1004q0 140 -10 206v9zM588 1622l203 326l110 -93l-268 -272z" />
    <glyph glyph-name="uni040E" unicode="&#x40e;" horiz-adv-x="1386" 
d="M-31 1434h400v-4q3 -11 9.5 -24t20.5 -33.5t25 -35.5t35.5 -47.5t38.5 -52.5l411 -578l353 578q10 16 32 51.5t30 48.5t20 35t17 34.5t7 23.5v4h121v-9q-36 -38 -125 -186l-547 -899q-124 -203 -226 -287t-218 -84q-129 0 -211 77.5t-82 199.5q0 117 80.5 190.5
t189.5 73.5q110 0 205 -76l-18 -33q-49 33 -111 33q-71 0 -110.5 -44t-39.5 -105q0 -66 44 -115t122 -49q60 0 127 45t127 143l49 82l-630 848q-19 25 -46.5 62.5t-39.5 53.5t-28.5 36t-31.5 34v9zM475 1868h148v-2q0 -62 34 -115q49 -68 146 -68q78 0 126 49t54 136h147
q-5 -120 -94.5 -195.5t-232.5 -75.5t-233 75.5t-95 195.5z" />
    <glyph glyph-name="uni040E" unicode="&#x45e;" horiz-adv-x="1386" 
d="M-31 1434h400v-4q3 -11 9.5 -24t20.5 -33.5t25 -35.5t35.5 -47.5t38.5 -52.5l411 -578l353 578q10 16 32 51.5t30 48.5t20 35t17 34.5t7 23.5v4h121v-9q-36 -38 -125 -186l-547 -899q-124 -203 -226 -287t-218 -84q-129 0 -211 77.5t-82 199.5q0 117 80.5 190.5
t189.5 73.5q110 0 205 -76l-18 -33q-49 33 -111 33q-71 0 -110.5 -44t-39.5 -105q0 -66 44 -115t122 -49q60 0 127 45t127 143l49 82l-630 848q-19 25 -46.5 62.5t-39.5 53.5t-28.5 36t-31.5 34v9zM475 1868h148v-2q0 -62 34 -115q49 -68 146 -68q78 0 126 49t54 136h147
q-5 -120 -94.5 -195.5t-232.5 -75.5t-233 75.5t-95 195.5z" />
    <glyph glyph-name="uni040F" unicode="&#x40f;" horiz-adv-x="1433" 
d="M113 8q10 66 10 207v1004q0 140 -10 206v9h331v-9q-9 -40 -11.5 -75t-2.5 -131v-1133h574v1133q0 93 -3 128.5t-12 77.5v9h332v-9q-10 -66 -10 -206v-1004q0 -141 10 -207v-8h-557v-225h-92v225h-559v8z" />
    <glyph glyph-name="uni040F" unicode="&#x45f;" horiz-adv-x="1433" 
d="M113 8q10 66 10 207v1004q0 140 -10 206v9h331v-9q-9 -40 -11.5 -75t-2.5 -131v-1133h574v1133q0 93 -3 128.5t-12 77.5v9h332v-9q-10 -66 -10 -206v-1004q0 -141 10 -207v-8h-557v-225h-92v225h-559v8z" />
    <glyph glyph-name="uni0410" unicode="&#x410;" horiz-adv-x="1228" 
d="M528 1434q158 0 228 57l452 -1276q53 -154 80 -207v-8h-364v8l2 9q1 9 0 21t-4.5 33.5t-13.5 58.5t-27 85l-47 137h-631l-51 -137q-14 -35 -24 -64t-16 -49.5t-10 -35.5t-5 -25.5t-1.5 -15.5t0.5 -11v-6v-8h-129v8q34 68 88 207zM236 438h567l-271 779z" />
    <glyph glyph-name="uni0410" unicode="&#x430;" horiz-adv-x="1228" 
d="M528 1434q158 0 228 57l452 -1276q53 -154 80 -207v-8h-364v8l2 9q1 9 0 21t-4.5 33.5t-13.5 58.5t-27 85l-47 137h-631l-51 -137q-14 -35 -24 -64t-16 -49.5t-10 -35.5t-5 -25.5t-1.5 -15.5t0.5 -11v-6v-8h-129v8q34 68 88 207zM236 438h567l-271 779z" />
    <glyph glyph-name="uni0411" unicode="&#x411;" horiz-adv-x="1290" 
d="M113 1434h931v-101h-8q-66 15 -186 15h-420v-1262h135q85 0 154 33t111.5 87.5t65 122.5t22.5 142q0 76 -24 146.5t-69.5 127.5t-119 91t-164.5 34h-29v62q82 10 145 10q90 0 171 -15t153.5 -49t125.5 -84t83.5 -123.5t30.5 -164.5q0 -238 -159.5 -372t-443.5 -134h-505
v8q10 66 10 207v1004q0 140 -10 206v9z" />
    <glyph glyph-name="uni0411" unicode="&#x431;" horiz-adv-x="1290" 
d="M113 1434h931v-101h-8q-66 15 -186 15h-420v-1262h135q85 0 154 33t111.5 87.5t65 122.5t22.5 142q0 76 -24 146.5t-69.5 127.5t-119 91t-164.5 34h-29v62q82 10 145 10q90 0 171 -15t153.5 -49t125.5 -84t83.5 -123.5t30.5 -164.5q0 -238 -159.5 -372t-443.5 -134h-505
v8q10 66 10 207v1004q0 140 -10 206v9z" />
    <glyph glyph-name="uni0412" unicode="&#x412;" horiz-adv-x="1320" 
d="M659 1434q199 0 315 -82.5t116 -229.5q0 -92 -59.5 -163.5t-162.5 -100.5q180 -18 296 -125t116 -274q0 -212 -156 -335.5t-422 -123.5h-589v8q10 66 10 207v1004q0 140 -10 206v9h546zM430 86h215q149 0 238.5 96.5t89.5 255.5q0 166 -109 258.5t-305 110.5l-47 4v53
l25 4q266 45 266 260q0 101 -67.5 160.5t-184.5 59.5h-121v-1262z" />
    <glyph glyph-name="uni0412" unicode="&#x432;" horiz-adv-x="1320" 
d="M659 1434q199 0 315 -82.5t116 -229.5q0 -92 -59.5 -163.5t-162.5 -100.5q180 -18 296 -125t116 -274q0 -212 -156 -335.5t-422 -123.5h-589v8q10 66 10 207v1004q0 140 -10 206v9h546zM430 86h215q149 0 238.5 96.5t89.5 255.5q0 166 -109 258.5t-305 110.5l-47 4v53
l25 4q266 45 266 260q0 101 -67.5 160.5t-184.5 59.5h-121v-1262z" />
    <glyph glyph-name="uni0413" unicode="&#x413;" horiz-adv-x="983" 
d="M113 1434h809v-101h-9q-66 15 -186 15h-297v-1133q0 -96 2.5 -131.5t11.5 -75.5v-8h-331v8q10 66 10 207v1004q0 140 -10 206v9z" />
    <glyph glyph-name="uni0413" unicode="&#x433;" horiz-adv-x="983" 
d="M113 1434h809v-101h-9q-66 15 -186 15h-297v-1133q0 -96 2.5 -131.5t11.5 -75.5v-8h-331v8q10 66 10 207v1004q0 140 -10 206v9z" />
    <glyph glyph-name="uni0414" unicode="&#x414;" horiz-adv-x="1382" 
d="M588 1434q157 0 227 57l496 -1405h143v-348h-53q-6 72 -14.5 115.5t-23 75t-42.5 45.5t-63 20t-95 6h-944q-74 0 -113.5 -8t-67.5 -38t-38.5 -77.5t-17.5 -138.5h-54v348h138zM160 86h825l-393 1131z" />
    <glyph glyph-name="uni0414" unicode="&#x434;" horiz-adv-x="1382" 
d="M588 1434q157 0 227 57l496 -1405h143v-348h-53q-6 72 -14.5 115.5t-23 75t-42.5 45.5t-63 20t-95 6h-944q-74 0 -113.5 -8t-67.5 -38t-38.5 -77.5t-17.5 -138.5h-54v348h138zM160 86h825l-393 1131z" />
    <glyph glyph-name="uni0415" unicode="&#x415;" horiz-adv-x="1116" 
d="M113 1434h897v-107h-9q-38 14 -71 17.5t-115 3.5h-385v-351h420v-86h-420v-825h461q124 0 186 14h8v-100h-972v8q10 66 10 207v1004q0 140 -10 206v9z" />
    <glyph glyph-name="uni0415" unicode="&#x435;" horiz-adv-x="1116" 
d="M113 1434h897v-107h-9q-38 14 -71 17.5t-115 3.5h-385v-351h420v-86h-420v-825h461q124 0 186 14h8v-100h-972v8q10 66 10 207v1004q0 140 -10 206v9z" />
    <glyph glyph-name="uni0416" unicode="&#x416;" horiz-adv-x="1990" 
d="M72 1434h161v-9q0 -24 177 -188l434 -408v390q0 93 -3 128.5t-12 77.5v9h332v-9q-9 -40 -11.5 -75t-2.5 -131v-390l434 408q176 163 176 188v9h162v-9q-12 -8 -23 -16.5t-25.5 -21t-24 -21t-29.5 -27t-30 -28t-37 -35t-40 -37.5l-160 -152l373 -829q46 -103 80 -151
t74 -82v-25q-66 -21 -139 -12.5t-138.5 37.5t-123 89t-91.5 142l-262 627l-176 -164v-504q0 -96 2.5 -131.5t11.5 -75.5v-8h-332v8q9 42 12 78t3 129v504l-176 164l-262 -627q-34 -82 -91.5 -142t-123 -89t-138.5 -37.5t-139 12.5v25q40 34 74 82t80 151l372 829l-159 152
q-13 12 -40 37.5t-37 35t-30 28t-29.5 27t-24 21t-25.5 21t-23 16.5v9z" />
    <glyph glyph-name="uni0416" unicode="&#x436;" horiz-adv-x="1990" 
d="M72 1434h161v-9q0 -24 177 -188l434 -408v390q0 93 -3 128.5t-12 77.5v9h332v-9q-9 -40 -11.5 -75t-2.5 -131v-390l434 408q176 163 176 188v9h162v-9q-12 -8 -23 -16.5t-25.5 -21t-24 -21t-29.5 -27t-30 -28t-37 -35t-40 -37.5l-160 -152l373 -829q46 -103 80 -151
t74 -82v-25q-66 -21 -139 -12.5t-138.5 37.5t-123 89t-91.5 142l-262 627l-176 -164v-504q0 -96 2.5 -131.5t11.5 -75.5v-8h-332v8q9 42 12 78t3 129v504l-176 164l-262 -627q-34 -82 -91.5 -142t-123 -89t-138.5 -37.5t-139 12.5v25q40 34 74 82t80 151l372 829l-159 152
q-13 12 -40 37.5t-37 35t-30 28t-29.5 27t-24 21t-25.5 21t-23 16.5v9z" />
    <glyph glyph-name="uni0417" unicode="&#x417;" horiz-adv-x="1122" 
d="M147 1298q61 71 175.5 119.5t228.5 48.5q185 0 291 -80.5t106 -199.5q0 -87 -54 -158t-153 -117q120 -24 205.5 -90t125.5 -152t40 -184q0 -73 -23 -144.5t-71 -136.5t-116 -114t-164.5 -78.5t-209.5 -29.5q-167 0 -293.5 76t-189.5 192v258h53q45 -228 144.5 -334
t226.5 -106q149 0 232 104.5t83 290.5q0 73 -18.5 136.5t-56 116.5t-103 84t-151.5 31q-33 0 -49 -2v62q127 28 199.5 110.5t72.5 174.5q0 96 -45 150t-125 54q-105 0 -197 -98.5t-110 -263.5h-54v280z" />
    <glyph glyph-name="uni0417" unicode="&#x437;" horiz-adv-x="1122" 
d="M147 1298q61 71 175.5 119.5t228.5 48.5q185 0 291 -80.5t106 -199.5q0 -87 -54 -158t-153 -117q120 -24 205.5 -90t125.5 -152t40 -184q0 -73 -23 -144.5t-71 -136.5t-116 -114t-164.5 -78.5t-209.5 -29.5q-167 0 -293.5 76t-189.5 192v258h53q45 -228 144.5 -334
t226.5 -106q149 0 232 104.5t83 290.5q0 73 -18.5 136.5t-56 116.5t-103 84t-151.5 31q-33 0 -49 -2v62q127 28 199.5 110.5t72.5 174.5q0 96 -45 150t-125 54q-105 0 -197 -98.5t-110 -263.5h-54v280z" />
    <glyph glyph-name="uni0418" unicode="&#x418;" horiz-adv-x="1495" 
d="M119 1434h332v-9q-9 -42 -12 -77.5t-3 -128.5v-793l881 1008h65q-12 -44 -14 -104t-2 -306v-809q0 -141 10 -207v-8h-332v8q9 42 12 78t3 129v793l-881 -1008h-65q11 43 13.5 76.5t2.5 118.5v1024q0 140 -10 206v9z" />
    <glyph glyph-name="uni0418" unicode="&#x438;" horiz-adv-x="1495" 
d="M119 1434h332v-9q-9 -42 -12 -77.5t-3 -128.5v-793l881 1008h65q-12 -44 -14 -104t-2 -306v-809q0 -141 10 -207v-8h-332v8q9 42 12 78t3 129v793l-881 -1008h-65q11 43 13.5 76.5t2.5 118.5v1024q0 140 -10 206v9z" />
    <glyph glyph-name="uni0419" unicode="&#x419;" horiz-adv-x="1495" 
d="M119 1434h332v-9q-9 -42 -12 -77.5t-3 -128.5v-793l881 1008h65q-12 -44 -14 -104t-2 -306v-809q0 -141 10 -207v-8h-332v8q9 42 12 78t3 129v793l-881 -1008h-65q11 43 13.5 76.5t2.5 118.5v1024q0 140 -10 206v9zM453 1868h147v-2q0 -61 35 -115q49 -68 145 -68
q78 0 126.5 49t54.5 136h147q-5 -120 -95 -195.5t-233 -75.5t-232.5 75.5t-94.5 195.5z" />
    <glyph glyph-name="uni0419" unicode="&#x439;" horiz-adv-x="1495" 
d="M119 1434h332v-9q-9 -42 -12 -77.5t-3 -128.5v-793l881 1008h65q-12 -44 -14 -104t-2 -306v-809q0 -141 10 -207v-8h-332v8q9 42 12 78t3 129v793l-881 -1008h-65q11 43 13.5 76.5t2.5 118.5v1024q0 140 -10 206v9zM453 1868h147v-2q0 -61 35 -115q49 -68 145 -68
q78 0 126.5 49t54.5 136h147q-5 -120 -95 -195.5t-233 -75.5t-232.5 75.5t-94.5 195.5z" />
    <glyph glyph-name="uni041A" unicode="&#x41a;" horiz-adv-x="1288" 
d="M113 1434h331v-9q-9 -40 -11.5 -75t-2.5 -131v-390l416 390q194 182 194 206v9h162v-9q-12 -8 -23 -16.5t-25.5 -21.5t-25 -22t-32 -28.5t-34 -31.5t-43 -40.5t-48.5 -45.5l-137 -132l372 -829q46 -103 80 -151t74 -82v-25q-66 -21 -139 -12.5t-138.5 37.5t-123 89
t-91.5 142l-262 627l-176 -164v-504q0 -96 2.5 -131.5t11.5 -75.5v-8h-331v8q10 66 10 207v1004q0 140 -10 206v9z" />
    <glyph glyph-name="uni041A" unicode="&#x43a;" horiz-adv-x="1288" 
d="M113 1434h331v-9q-9 -40 -11.5 -75t-2.5 -131v-390l416 390q194 182 194 206v9h162v-9q-12 -8 -23 -16.5t-25.5 -21.5t-25 -22t-32 -28.5t-34 -31.5t-43 -40.5t-48.5 -45.5l-137 -132l372 -829q46 -103 80 -151t74 -82v-25q-66 -21 -139 -12.5t-138.5 37.5t-123 89
t-91.5 142l-262 627l-176 -164v-504q0 -96 2.5 -131.5t11.5 -75.5v-8h-331v8q10 66 10 207v1004q0 140 -10 206v9z" />
    <glyph glyph-name="uni041B" unicode="&#x41b;" horiz-adv-x="1187" 
d="M1208 0h-366v8q0 1 1.5 9t1.5 20t-2.5 33.5t-12 59t-25.5 85.5l-336 991l-360 -991q-13 -35 -22.5 -64t-14.5 -49.5t-9 -35.5t-5 -25.5t-1.5 -15.5t-0.5 -11l1 -6v-8h-129v8q36 72 86 207l455 1219q157 0 227 57l434 -1276q50 -151 78 -207v-8z" />
    <glyph glyph-name="uni041B" unicode="&#x43b;" horiz-adv-x="1187" 
d="M1208 0h-366v8q0 1 1.5 9t1.5 20t-2.5 33.5t-12 59t-25.5 85.5l-336 991l-360 -991q-13 -35 -22.5 -64t-14.5 -49.5t-9 -35.5t-5 -25.5t-1.5 -15.5t-0.5 -11l1 -6v-8h-129v8q36 72 86 207l455 1219q157 0 227 57l434 -1276q50 -151 78 -207v-8z" />
    <glyph glyph-name="uni041C" unicode="&#x41c;" horiz-adv-x="1720" 
d="M113 1434h123l614 -985l635 985h123q-11 -73 -11 -187v-1032q0 -134 11 -207v-8h-332v8q9 40 11.5 75.5t2.5 131.5v758l-573 -887h-2l-506 807v-678q0 -96 2.5 -131.5t11.5 -75.5v-8h-110v8q10 66 10 207v1032q0 121 -10 187z" />
    <glyph glyph-name="uni041C" unicode="&#x43c;" horiz-adv-x="1720" 
d="M113 1434h123l614 -985l635 985h123q-11 -73 -11 -187v-1032q0 -134 11 -207v-8h-332v8q9 40 11.5 75.5t2.5 131.5v758l-573 -887h-2l-506 807v-678q0 -96 2.5 -131.5t11.5 -75.5v-8h-110v8q10 66 10 207v1032q0 121 -10 187z" />
    <glyph glyph-name="uni041D" unicode="&#x41d;" horiz-adv-x="1433" 
d="M989 1434h332v-9q-10 -66 -10 -206v-1004q0 -141 10 -207v-8h-332v8q9 42 12 78t3 129v696h-574v-696q0 -96 2.5 -131.5t11.5 -75.5v-8h-331v8q10 66 10 207v1004q0 140 -10 206v9h331v-9q-9 -40 -11.5 -75t-2.5 -131v-222h574v222q0 93 -3 128.5t-12 77.5v9z" />
    <glyph glyph-name="uni041D" unicode="&#x43d;" horiz-adv-x="1433" 
d="M989 1434h332v-9q-10 -66 -10 -206v-1004q0 -141 10 -207v-8h-332v8q9 42 12 78t3 129v696h-574v-696q0 -96 2.5 -131.5t11.5 -75.5v-8h-331v8q10 66 10 207v1004q0 140 -10 206v9h331v-9q-9 -40 -11.5 -75t-2.5 -131v-222h574v222q0 93 -3 128.5t-12 77.5v9z" />
    <glyph glyph-name="uni041E" unicode="&#x41e;" horiz-adv-x="1638" 
d="M819 -33q-208 0 -382 101t-275 275t-101 382t101 382t275 275t382 101t382 -101t275 -275t101 -382t-101 -382t-275 -275t-382 -101zM401 694q0 -187 51.5 -333.5t145 -227t213.5 -80.5q107 0 195 61.5t142.5 163t84 226t29.5 256.5q0 184 -52.5 329.5t-147 226.5
t-214.5 81q-106 0 -193 -61t-141 -162t-83.5 -225t-29.5 -255z" />
    <glyph glyph-name="uni041E" unicode="&#x43e;" horiz-adv-x="1638" 
d="M819 -33q-208 0 -382 101t-275 275t-101 382t101 382t275 275t382 101t382 -101t275 -275t101 -382t-101 -382t-275 -275t-382 -101zM401 694q0 -187 51.5 -333.5t145 -227t213.5 -80.5q107 0 195 61.5t142.5 163t84 226t29.5 256.5q0 184 -52.5 329.5t-147 226.5
t-214.5 81q-106 0 -193 -61t-141 -162t-83.5 -225t-29.5 -255z" />
    <glyph glyph-name="uni041F" unicode="&#x41f;" horiz-adv-x="1433" 
d="M113 1434h1208v-9q-10 -66 -10 -206v-1004q0 -141 10 -207v-8h-332v8q9 42 12 78t3 129v1133h-574v-1133q0 -96 2.5 -131.5t11.5 -75.5v-8h-331v8q10 66 10 207v1004q0 140 -10 206v9z" />
    <glyph glyph-name="uni041F" unicode="&#x43f;" horiz-adv-x="1433" 
d="M113 1434h1208v-9q-10 -66 -10 -206v-1004q0 -141 10 -207v-8h-332v8q9 42 12 78t3 129v1133h-574v-1133q0 -96 2.5 -131.5t11.5 -75.5v-8h-331v8q10 66 10 207v1004q0 140 -10 206v9z" />
    <glyph glyph-name="uni0420" unicode="&#x420;" horiz-adv-x="1210" 
d="M643 1434q267 0 422.5 -121t155.5 -332q0 -116 -50 -209.5t-134 -152t-190 -90t-222 -31.5q-39 0 -113 8v61h27q168 0 271 106t103 292q0 185 -87 284t-251 99h-145v-1133q0 -141 10 -207v-8h-327v8q10 66 10 207v1004q0 140 -10 206v9h530z" />
    <glyph glyph-name="uni0420" unicode="&#x440;" horiz-adv-x="1210" 
d="M643 1434q267 0 422.5 -121t155.5 -332q0 -116 -50 -209.5t-134 -152t-190 -90t-222 -31.5q-39 0 -113 8v61h27q168 0 271 106t103 292q0 185 -87 284t-251 99h-145v-1133q0 -141 10 -207v-8h-327v8q10 66 10 207v1004q0 140 -10 206v9h530z" />
    <glyph glyph-name="uni0421" unicode="&#x421;" horiz-adv-x="1488" 
d="M1386 1247v-282h-47q-13 99 -55.5 181.5t-103.5 137t-135.5 84t-153.5 29.5q-76 0 -147.5 -25.5t-136.5 -81.5t-113 -136.5t-76.5 -199t-28.5 -260.5q0 -161 39 -286.5t105.5 -201.5t148.5 -114.5t174 -38.5q104 0 201 48.5t173 145t109 224.5h47v-268
q-109 -108 -257.5 -172t-313.5 -64q-156 0 -295.5 59.5t-240 161t-159.5 241.5t-59 296t59 296t159.5 241.5t240 161t295.5 59.5q167 0 315 -64t256 -172z" />
    <glyph glyph-name="uni0421" unicode="&#x441;" horiz-adv-x="1488" 
d="M1386 1247v-282h-47q-13 99 -55.5 181.5t-103.5 137t-135.5 84t-153.5 29.5q-76 0 -147.5 -25.5t-136.5 -81.5t-113 -136.5t-76.5 -199t-28.5 -260.5q0 -161 39 -286.5t105.5 -201.5t148.5 -114.5t174 -38.5q104 0 201 48.5t173 145t109 224.5h47v-268
q-109 -108 -257.5 -172t-313.5 -64q-156 0 -295.5 59.5t-240 161t-159.5 241.5t-59 296t59 296t159.5 241.5t240 161t295.5 59.5q167 0 315 -64t256 -172z" />
    <glyph glyph-name="uni0422" unicode="&#x422;" horiz-adv-x="1024" 
d="M82 1434h942v-101h-8q-66 15 -187 15h-122v-1133q0 -138 12 -197l2 -10v-8h-336v8l2 10q12 59 12 197v1133h-123q-120 0 -186 -15h-8v101z" />
    <glyph glyph-name="uni0422" unicode="&#x442;" horiz-adv-x="1024" 
d="M82 1434h942v-101h-8q-66 15 -187 15h-122v-1133q0 -138 12 -197l2 -10v-8h-336v8l2 10q12 59 12 197v1133h-123q-120 0 -186 -15h-8v101z" />
    <glyph glyph-name="uni0423" unicode="&#x423;" horiz-adv-x="1386" 
d="M-31 1434h400v-4q3 -11 9.5 -24t20.5 -33.5t25 -35.5t35.5 -47.5t38.5 -52.5l411 -578l353 578q10 16 32 51.5t30 48.5t20 35t17 34.5t7 23.5v4h121v-9q-36 -38 -125 -186l-547 -899q-124 -203 -226 -287t-218 -84q-129 0 -211 77.5t-82 199.5q0 117 80.5 190.5
t189.5 73.5q110 0 205 -76l-18 -33q-49 33 -111 33q-71 0 -110.5 -44t-39.5 -105q0 -66 44 -115t122 -49q60 0 127 45t127 143l49 82l-630 848q-19 25 -46.5 62.5t-39.5 53.5t-28.5 36t-31.5 34v9z" />
    <glyph glyph-name="uni0423" unicode="&#x443;" horiz-adv-x="1386" 
d="M-31 1434h400v-4q3 -11 9.5 -24t20.5 -33.5t25 -35.5t35.5 -47.5t38.5 -52.5l411 -578l353 578q10 16 32 51.5t30 48.5t20 35t17 34.5t7 23.5v4h121v-9q-36 -38 -125 -186l-547 -899q-124 -203 -226 -287t-218 -84q-129 0 -211 77.5t-82 199.5q0 117 80.5 190.5
t189.5 73.5q110 0 205 -76l-18 -33q-49 33 -111 33q-71 0 -110.5 -44t-39.5 -105q0 -66 44 -115t122 -49q60 0 127 45t127 143l49 82l-630 848q-19 25 -46.5 62.5t-39.5 53.5t-28.5 36t-31.5 34v9z" />
    <glyph glyph-name="uni0424" unicode="&#x424;" horiz-adv-x="1773" 
d="M723 1565h328v-9q-9 -63 -11 -131q317 -38 510 -214t193 -431q0 -254 -193.5 -429t-509.5 -212q2 -68 11 -131v-8h-328v8q8 54 10 131q-317 38 -509.5 214t-192.5 431q0 254 193 429t509 212q-2 77 -10 131v9zM348 762q0 -215 101 -357.5t284 -183.5v1120
q-183 -46 -284 -197.5t-101 -381.5zM1040 223q183 46 284 198t101 382q0 215 -101 357t-284 183v-1120z" />
    <glyph glyph-name="uni0424" unicode="&#x444;" horiz-adv-x="1773" 
d="M723 1565h328v-9q-9 -63 -11 -131q317 -38 510 -214t193 -431q0 -254 -193.5 -429t-509.5 -212q2 -68 11 -131v-8h-328v8q8 54 10 131q-317 38 -509.5 214t-192.5 431q0 254 193 429t509 212q-2 77 -10 131v9zM348 762q0 -215 101 -357.5t284 -183.5v1120
q-183 -46 -284 -197.5t-101 -381.5zM1040 223q183 46 284 198t101 382q0 215 -101 357t-284 183v-1120z" />
    <glyph glyph-name="uni0425" unicode="&#x425;" horiz-adv-x="1316" 
d="M29 1434h389l2 -9q13 -41 90 -159l225 -344l219 344q85 133 91 148q2 4 4 11l2 9h147v-9l-9.5 -9.5l-11.5 -11.5t-12 -12.5t-15 -17t-16.5 -19.5t-20 -25t-21.5 -30.5t-26 -38t-30 -44.5l-245 -379l401 -619q93 -144 151 -211v-8h-389l-2 8q-5 17 -9 26t-23.5 42.5
t-57.5 91.5l-303 463l-301 -463q-60 -92 -74 -116t-20 -44l-2 -8h-148v8q25 25 36 36.5t47.5 59t80.5 113.5l328 496l-330 504q-101 154 -147 208v9z" />
    <glyph glyph-name="uni0425" unicode="&#x445;" horiz-adv-x="1316" 
d="M29 1434h389l2 -9q13 -41 90 -159l225 -344l219 344q85 133 91 148q2 4 4 11l2 9h147v-9l-9.5 -9.5l-11.5 -11.5t-12 -12.5t-15 -17t-16.5 -19.5t-20 -25t-21.5 -30.5t-26 -38t-30 -44.5l-245 -379l401 -619q93 -144 151 -211v-8h-389l-2 8q-5 17 -9 26t-23.5 42.5
t-57.5 91.5l-303 463l-301 -463q-60 -92 -74 -116t-20 -44l-2 -8h-148v8q25 25 36 36.5t47.5 59t80.5 113.5l328 496l-330 504q-101 154 -147 208v9z" />
    <glyph glyph-name="uni0426" unicode="&#x426;" horiz-adv-x="1433" 
d="M113 1434h331v-9q-9 -40 -11.5 -75t-2.5 -131v-1127h574v1127q0 93 -3 128.5t-12 77.5v9h332v-9q-10 -66 -10 -206v-1127h123v-354h-54q-7 91 -17.5 138.5t-38.5 77.5t-67.5 38t-113.5 8h-1030v8q10 66 10 207v1004q0 140 -10 206v9z" />
    <glyph glyph-name="uni0426" unicode="&#x446;" horiz-adv-x="1433" 
d="M113 1434h331v-9q-9 -40 -11.5 -75t-2.5 -131v-1127h574v1127q0 93 -3 128.5t-12 77.5v9h332v-9q-10 -66 -10 -206v-1127h123v-354h-54q-7 91 -17.5 138.5t-38.5 77.5t-67.5 38t-113.5 8h-1030v8q10 66 10 207v1004q0 140 -10 206v9z" />
    <glyph glyph-name="uni0427" unicode="&#x427;" horiz-adv-x="1331" 
d="M72 1434h331v-9q-9 -40 -11.5 -75t-2.5 -131v-283q0 -129 66.5 -208t185.5 -79q149 0 260 90v480q0 96 -2.5 131t-11.5 75v9h332v-9q-11 -73 -11 -206v-1004q0 -134 11 -207v-8h-332v8q9 40 11.5 75.5t2.5 131.5v428q-146 -121 -348 -121q-228 0 -349.5 112.5
t-121.5 285.5v299q0 140 -10 206v9z" />
    <glyph glyph-name="uni0427" unicode="&#x447;" horiz-adv-x="1331" 
d="M72 1434h331v-9q-9 -40 -11.5 -75t-2.5 -131v-283q0 -129 66.5 -208t185.5 -79q149 0 260 90v480q0 96 -2.5 131t-11.5 75v9h332v-9q-11 -73 -11 -206v-1004q0 -134 11 -207v-8h-332v8q9 40 11.5 75.5t2.5 131.5v428q-146 -121 -348 -121q-228 0 -349.5 112.5
t-121.5 285.5v299q0 140 -10 206v9z" />
    <glyph glyph-name="uni0428" unicode="&#x428;" horiz-adv-x="1849" 
d="M119 1434h332v-9q-9 -42 -12 -77.5t-3 -128.5v-1133h334v1133q0 140 -10 206v9h327v-9q-10 -66 -10 -206v-1133h336v1133q0 96 -2.5 131t-11.5 75v9h332v-9q-11 -73 -11 -206v-1004q0 -97 2.5 -133t14.5 -74v-8h-1624v8q11 38 13.5 72.5t2.5 134.5v1004q0 140 -10 206v9z
" />
    <glyph glyph-name="uni0428" unicode="&#x448;" horiz-adv-x="1849" 
d="M119 1434h332v-9q-9 -42 -12 -77.5t-3 -128.5v-1133h334v1133q0 140 -10 206v9h327v-9q-10 -66 -10 -206v-1133h336v1133q0 96 -2.5 131t-11.5 75v9h332v-9q-11 -73 -11 -206v-1004q0 -97 2.5 -133t14.5 -74v-8h-1624v8q11 38 13.5 72.5t2.5 134.5v1004q0 140 -10 206v9z
" />
    <glyph glyph-name="uni0429" unicode="&#x429;" horiz-adv-x="1849" 
d="M119 1434h332v-9q-9 -42 -12 -77.5t-3 -128.5v-1133h334v1133q0 140 -10 206v9h327v-9q-10 -66 -10 -206v-1133h336v1133q0 96 -2.5 131t-11.5 75v9h332v-9q-11 -73 -11 -206v-1127h129v-354h-53q-7 91 -17.5 138.5t-38.5 77.5t-67.5 38t-113.5 8h-1446v8
q11 38 13.5 72.5t2.5 134.5v1004q0 140 -10 206v9z" />
    <glyph glyph-name="uni0429" unicode="&#x449;" horiz-adv-x="1849" 
d="M119 1434h332v-9q-9 -42 -12 -77.5t-3 -128.5v-1133h334v1133q0 140 -10 206v9h327v-9q-10 -66 -10 -206v-1133h336v1133q0 96 -2.5 131t-11.5 75v9h332v-9q-11 -73 -11 -206v-1127h129v-354h-53q-7 91 -17.5 138.5t-38.5 77.5t-67.5 38t-113.5 8h-1446v8
q11 38 13.5 72.5t2.5 134.5v1004q0 140 -10 206v9z" />
    <glyph glyph-name="uni042A" unicode="&#x42a;" horiz-adv-x="1361" 
d="M0 1434h596v-9q-14 -62 -14 -186v-1153h135q113 0 195 57t119.5 142.5t37.5 185.5q0 76 -24 146.5t-69.5 127.5t-119 91t-164.5 34h-28v62q82 10 145 10q90 0 171 -15t153.5 -49t125 -84t83 -123.5t30.5 -164.5q0 -238 -159 -372t-443 -134h-506v8q10 66 10 187v1153h-79
q-121 0 -187 -15h-8v101z" />
    <glyph glyph-name="uni042A" unicode="&#x44a;" horiz-adv-x="1361" 
d="M0 1434h596v-9q-14 -62 -14 -186v-1153h135q113 0 195 57t119.5 142.5t37.5 185.5q0 76 -24 146.5t-69.5 127.5t-119 91t-164.5 34h-28v62q82 10 145 10q90 0 171 -15t153.5 -49t125 -84t83 -123.5t30.5 -164.5q0 -238 -159 -372t-443 -134h-506v8q10 66 10 187v1153h-79
q-121 0 -187 -15h-8v101z" />
    <glyph glyph-name="uni042B" unicode="&#x42b;" horiz-adv-x="1835" 
d="M1378 1434h328v-9q-10 -66 -10 -186v-1044q0 -121 10 -187v-8h-328v8q11 73 11 187v1044q0 113 -11 186v9zM113 0v8q10 66 10 187v1044q0 120 -10 186v9h331v-9q-14 -62 -14 -186v-1153h135q85 0 154 33t111.5 87.5t65 122.5t22.5 142q0 76 -24 146.5t-69.5 127.5
t-119 91t-164.5 34h-29v62q82 10 145 10q90 0 171 -15t153.5 -49t125.5 -84t83.5 -123.5t30.5 -164.5q0 -238 -159.5 -372t-443.5 -134h-505z" />
    <glyph glyph-name="uni042B" unicode="&#x44b;" horiz-adv-x="1835" 
d="M1378 1434h328v-9q-10 -66 -10 -186v-1044q0 -121 10 -187v-8h-328v8q11 73 11 187v1044q0 113 -11 186v9zM113 0v8q10 66 10 187v1044q0 120 -10 186v9h331v-9q-14 -62 -14 -186v-1153h135q85 0 154 33t111.5 87.5t65 122.5t22.5 142q0 76 -24 146.5t-69.5 127.5
t-119 91t-164.5 34h-29v62q82 10 145 10q90 0 171 -15t153.5 -49t125.5 -84t83.5 -123.5t30.5 -164.5q0 -238 -159.5 -372t-443.5 -134h-505z" />
    <glyph glyph-name="uni042C" unicode="&#x42c;" horiz-adv-x="1210" 
d="M113 1434h331v-9q-9 -40 -11.5 -75t-2.5 -131v-1133h135q85 0 154 33t111.5 87.5t65 122.5t22.5 142q0 76 -24 146.5t-69.5 127.5t-119 91t-164.5 34h-29v62q82 10 145 10q90 0 171 -15t153.5 -49t125.5 -84t83.5 -123.5t30.5 -164.5q0 -238 -159.5 -372t-443.5 -134
h-505v8q10 66 10 207v1004q0 140 -10 206v9z" />
    <glyph glyph-name="uni042C" unicode="&#x44c;" horiz-adv-x="1210" 
d="M113 1434h331v-9q-9 -40 -11.5 -75t-2.5 -131v-1133h135q85 0 154 33t111.5 87.5t65 122.5t22.5 142q0 76 -24 146.5t-69.5 127.5t-119 91t-164.5 34h-29v62q82 10 145 10q90 0 171 -15t153.5 -49t125.5 -84t83.5 -123.5t30.5 -164.5q0 -238 -159.5 -372t-443.5 -134
h-505v8q10 66 10 207v1004q0 140 -10 206v9z" />
    <glyph glyph-name="uni042D" unicode="&#x42d;" horiz-adv-x="1488" 
d="M367 805q93 80 198 80q86 0 189 -54q94 -48 138 -65.5t81 -17.5q32 0 57 10l27 -39q-105 -78 -209 -78q-84 0 -178 51q-35 18 -86 47t-77.5 40.5t-49.5 11.5q-26 0 -62 -25zM102 203v268h48q46 -192 173 -305t275 -113q76 0 147.5 25.5t136.5 81.5t113 136.5t76.5 199
t28.5 260.5q0 161 -39 286.5t-105.5 201.5t-148.5 114.5t-174 38.5q-175 0 -315.5 -114.5t-167.5 -297.5h-48v262q108 108 256.5 172t315.5 64q208 0 381 -101t272.5 -275t99.5 -382t-99.5 -382t-272.5 -275t-381 -101q-165 0 -314 64t-258 172z" />
    <glyph glyph-name="uni042D" unicode="&#x44d;" horiz-adv-x="1488" 
d="M367 805q93 80 198 80q86 0 189 -54q94 -48 138 -65.5t81 -17.5q32 0 57 10l27 -39q-105 -78 -209 -78q-84 0 -178 51q-35 18 -86 47t-77.5 40.5t-49.5 11.5q-26 0 -62 -25zM102 203v268h48q46 -192 173 -305t275 -113q76 0 147.5 25.5t136.5 81.5t113 136.5t76.5 199
t28.5 260.5q0 161 -39 286.5t-105.5 201.5t-148.5 114.5t-174 38.5q-175 0 -315.5 -114.5t-167.5 -297.5h-48v262q108 108 256.5 172t315.5 64q208 0 381 -101t272.5 -275t99.5 -382t-99.5 -382t-272.5 -275t-381 -101q-165 0 -314 64t-258 172z" />
    <glyph glyph-name="uni042E" unicode="&#x42e;" horiz-adv-x="2230" 
d="M1411 -33q-155 0 -294.5 59t-240.5 159t-161.5 239t-61.5 293l-207 -10v-492q0 -134 11 -207v-8h-328v8q10 66 10 207v1004q0 140 -10 206v9h328v-9q-11 -73 -11 -206v-435h209q15 194 118.5 354t272 252.5t365.5 92.5q208 0 382 -101t275 -275t101 -382t-101 -382
t-275 -275t-382 -101zM993 694q0 -187 51.5 -333.5t145 -227t213.5 -80.5q86 0 160.5 40.5t126.5 109t89.5 159t55.5 192t18 206.5q0 185 -52 330t-146.5 226t-214.5 81q-106 0 -193 -61t-141 -162t-83.5 -225t-29.5 -255z" />
    <glyph glyph-name="uni042E" unicode="&#x44e;" horiz-adv-x="2230" 
d="M1411 -33q-155 0 -294.5 59t-240.5 159t-161.5 239t-61.5 293l-207 -10v-492q0 -134 11 -207v-8h-328v8q10 66 10 207v1004q0 140 -10 206v9h328v-9q-11 -73 -11 -206v-435h209q15 194 118.5 354t272 252.5t365.5 92.5q208 0 382 -101t275 -275t101 -382t-101 -382
t-275 -275t-382 -101zM993 694q0 -187 51.5 -333.5t145 -227t213.5 -80.5q86 0 160.5 40.5t126.5 109t89.5 159t55.5 192t18 206.5q0 185 -52 330t-146.5 226t-214.5 81q-106 0 -193 -61t-141 -162t-83.5 -225t-29.5 -255z" />
    <glyph glyph-name="uni042F" unicode="&#x42f;" horiz-adv-x="1370" 
d="M78 25q34 32 64 80.5t79 158.5l250 559q-152 26 -235.5 99.5t-83.5 179.5q0 332 585 332h520v-9q-10 -66 -10 -206v-1004q0 -141 10 -207v-8h-331v8q9 40 11.5 75.5t2.5 131.5v1133h-164q-146 0 -227.5 -82t-81.5 -197q0 -91 68 -143t192 -52q37 0 64 3l12 -25l-244 -580
q-45 -109 -125.5 -179t-172.5 -92.5t-183 -0.5v25z" />
    <glyph glyph-name="uni042F" unicode="&#x44f;" horiz-adv-x="1370" 
d="M78 25q34 32 64 80.5t79 158.5l250 559q-152 26 -235.5 99.5t-83.5 179.5q0 332 585 332h520v-9q-10 -66 -10 -206v-1004q0 -141 10 -207v-8h-331v8q9 40 11.5 75.5t2.5 131.5v1133h-164q-146 0 -227.5 -82t-81.5 -197q0 -91 68 -143t192 -52q37 0 64 3l12 -25l-244 -580
q-45 -109 -125.5 -179t-172.5 -92.5t-183 -0.5v25z" />
    <glyph glyph-name="uni0462" unicode="&#x462;" horiz-adv-x="1251" 
d="M0 1282h123v141q0 141 -10 207v8h331v-8q-9 -40 -11.5 -75.5t-2.5 -131.5v-141h635v-86h-635v-1110h135q85 0 154 33t111.5 87.5t65 122.5t22.5 142q0 76 -24 146.5t-69.5 127.5t-119 91t-164.5 34h-29v62q82 10 145 10q90 0 171 -15t153.5 -49t125.5 -84t83.5 -123.5
t30.5 -164.5q0 -238 -159.5 -372t-443.5 -134h-505v8q10 66 10 207v981h-123v86z" />
    <glyph glyph-name="uni0462" unicode="&#x463;" horiz-adv-x="1251" 
d="M0 1282h123v141q0 141 -10 207v8h331v-8q-9 -40 -11.5 -75.5t-2.5 -131.5v-141h635v-86h-635v-1110h135q85 0 154 33t111.5 87.5t65 122.5t22.5 142q0 76 -24 146.5t-69.5 127.5t-119 91t-164.5 34h-29v62q82 10 145 10q90 0 171 -15t153.5 -49t125.5 -84t83.5 -123.5
t30.5 -164.5q0 -238 -159.5 -372t-443.5 -134h-505v8q10 66 10 207v981h-123v86z" />
    <glyph glyph-name="uni046A" unicode="&#x46a;" horiz-adv-x="1992" 
d="M72 1434h1847v-9q-47 -33 -209 -186l-268 -250l344 -569q186 -308 291 -389l-4 -31q-72 -14 -142.5 -8t-134 30.5t-125 81t-115.5 144.5l-331 543l-78 -72v-504q0 -96 2.5 -131.5t11.5 -75.5v-8h-332v8q9 42 12 78t3 129v504l-78 72l-332 -543q-54 -88 -115.5 -144.5
t-124.5 -81t-133.5 -30.5t-142.5 8l-4 31q105 81 291 389l344 569l-268 250q-162 153 -209 186v9zM295 1343l700 -655l701 655q2 1 2 3t-2 2h-1401q-1 0 -1 -2t1 -3z" />
    <glyph glyph-name="uni046A" unicode="&#x46b;" horiz-adv-x="1992" 
d="M72 1434h1847v-9q-47 -33 -209 -186l-268 -250l344 -569q186 -308 291 -389l-4 -31q-72 -14 -142.5 -8t-134 30.5t-125 81t-115.5 144.5l-331 543l-78 -72v-504q0 -96 2.5 -131.5t11.5 -75.5v-8h-332v8q9 42 12 78t3 129v504l-78 72l-332 -543q-54 -88 -115.5 -144.5
t-124.5 -81t-133.5 -30.5t-142.5 8l-4 31q105 81 291 389l344 569l-268 250q-162 153 -209 186v9zM295 1343l700 -655l701 655q2 1 2 3t-2 2h-1401q-1 0 -1 -2t1 -3z" />
    <glyph glyph-name="uni0490" unicode="&#x490;" horiz-adv-x="983" 
d="M631 1434q74 0 113.5 8t67.5 38t38.5 77.5t17.5 138.5h54v-348h-492v-1133q0 -96 2.5 -131.5t11.5 -75.5v-8h-331v8q10 66 10 207v1024q0 120 -10 186v9h518z" />
    <glyph glyph-name="uni0490" unicode="&#x491;" horiz-adv-x="983" 
d="M631 1434q74 0 113.5 8t67.5 38t38.5 77.5t17.5 138.5h54v-348h-492v-1133q0 -96 2.5 -131.5t11.5 -75.5v-8h-331v8q10 66 10 207v1024q0 120 -10 186v9h518z" />
    <glyph glyph-name="uni1E20" unicode="&#x1e20;" horiz-adv-x="1550" 
d="M1386 1247v-282h-47q-13 99 -55.5 181.5t-103.5 137t-135.5 84t-153.5 29.5q-76 0 -147.5 -25.5t-136.5 -81.5t-113 -136.5t-76.5 -199t-28.5 -260.5q0 -161 39 -286.5t105.5 -201.5t148.5 -114.5t174 -38.5q117 0 234 66v422q0 81 -2.5 114.5t-12.5 71.5v8h322v-8
q-11 -73 -11 -186v-338q-109 -108 -257.5 -172t-313.5 -64q-156 0 -295.5 59.5t-240 161t-159.5 241.5t-59 296t59 296t159.5 241.5t240 161t295.5 59.5q167 0 315 -64t256 -172zM449 1679v111h778v-111h-778z" />
    <glyph glyph-name="uni1E20" unicode="&#x1e21;" horiz-adv-x="1550" 
d="M1386 1247v-282h-47q-13 99 -55.5 181.5t-103.5 137t-135.5 84t-153.5 29.5q-76 0 -147.5 -25.5t-136.5 -81.5t-113 -136.5t-76.5 -199t-28.5 -260.5q0 -161 39 -286.5t105.5 -201.5t148.5 -114.5t174 -38.5q117 0 234 66v422q0 81 -2.5 114.5t-12.5 71.5v8h322v-8
q-11 -73 -11 -186v-338q-109 -108 -257.5 -172t-313.5 -64q-156 0 -295.5 59.5t-240 161t-159.5 241.5t-59 296t59 296t159.5 241.5t240 161t295.5 59.5q167 0 315 -64t256 -172zM449 1679v111h778v-111h-778z" />
    <glyph glyph-name="Wgrave" unicode="&#x1e80;" horiz-adv-x="2045" 
d="M-23 1434h365v-15q0 -79 41 -200l338 -983l358 1124h13l454 -1124l344 983q49 139 49 198v17h129v-9q-1 -1 -5.5 -9t-10.5 -20t-15.5 -33t-23.5 -58.5t-31 -85.5l-426 -1219q-53 0 -117 -15.5t-110 -41.5l-336 868l-256 -811q-53 0 -117 -15.5t-110 -41.5l-451 1276
q-51 144 -82 206v9zM918 1835l110 92l203 -325l-45 -39z" />
    <glyph glyph-name="Wgrave" unicode="&#x1e81;" horiz-adv-x="2045" 
d="M-23 1434h365v-15q0 -79 41 -200l338 -983l358 1124h13l454 -1124l344 983q49 139 49 198v17h129v-9q-1 -1 -5.5 -9t-10.5 -20t-15.5 -33t-23.5 -58.5t-31 -85.5l-426 -1219q-53 0 -117 -15.5t-110 -41.5l-336 868l-256 -811q-53 0 -117 -15.5t-110 -41.5l-451 1276
q-51 144 -82 206v9zM918 1835l110 92l203 -325l-45 -39z" />
    <glyph glyph-name="Wacute" unicode="&#x1e82;" horiz-adv-x="2045" 
d="M-23 1434h365v-15q0 -79 41 -200l338 -983l358 1124h13l454 -1124l344 983q49 139 49 198v17h129v-9q-1 -1 -5.5 -9t-10.5 -20t-15.5 -33t-23.5 -58.5t-31 -85.5l-426 -1219q-53 0 -117 -15.5t-110 -41.5l-336 868l-256 -811q-53 0 -117 -15.5t-110 -41.5l-451 1276
q-51 144 -82 206v9zM967 1622l202 326l111 -93l-268 -272z" />
    <glyph glyph-name="Wacute" unicode="&#x1e83;" horiz-adv-x="2045" 
d="M-23 1434h365v-15q0 -79 41 -200l338 -983l358 1124h13l454 -1124l344 983q49 139 49 198v17h129v-9q-1 -1 -5.5 -9t-10.5 -20t-15.5 -33t-23.5 -58.5t-31 -85.5l-426 -1219q-53 0 -117 -15.5t-110 -41.5l-336 868l-256 -811q-53 0 -117 -15.5t-110 -41.5l-451 1276
q-51 144 -82 206v9zM967 1622l202 326l111 -93l-268 -272z" />
    <glyph glyph-name="Wdieresis" unicode="&#x1e84;" horiz-adv-x="2045" 
d="M-23 1434h365v-15q0 -79 41 -200l338 -983l358 1124h13l454 -1124l344 983q49 139 49 198v17h129v-9q-1 -1 -5.5 -9t-10.5 -20t-15.5 -33t-23.5 -58.5t-31 -85.5l-426 -1219q-53 0 -117 -15.5t-110 -41.5l-336 868l-256 -811q-53 0 -117 -15.5t-110 -41.5l-451 1276
q-51 144 -82 206v9zM829 1753q0 41 30 71.5t73 30.5q40 0 71 -31t31 -71q0 -43 -30.5 -73.5t-71.5 -30.5q-44 0 -73.5 30t-29.5 74zM1178 1753q0 39 29.5 69.5t72.5 30.5q40 0 71 -31t31 -69q0 -43 -30.5 -73.5t-71.5 -30.5q-44 0 -73 30t-29 74z" />
    <glyph glyph-name="Wdieresis" unicode="&#x1e85;" horiz-adv-x="2045" 
d="M-23 1434h365v-15q0 -79 41 -200l338 -983l358 1124h13l454 -1124l344 983q49 139 49 198v17h129v-9q-1 -1 -5.5 -9t-10.5 -20t-15.5 -33t-23.5 -58.5t-31 -85.5l-426 -1219q-53 0 -117 -15.5t-110 -41.5l-336 868l-256 -811q-53 0 -117 -15.5t-110 -41.5l-451 1276
q-51 144 -82 206v9zM829 1753q0 41 30 71.5t73 30.5q40 0 71 -31t31 -71q0 -43 -30.5 -73.5t-71.5 -30.5q-44 0 -73.5 30t-29.5 74zM1178 1753q0 39 29.5 69.5t72.5 30.5q40 0 71 -31t31 -69q0 -43 -30.5 -73.5t-71.5 -30.5q-44 0 -73 30t-29 74z" />
    <glyph glyph-name="uni1EBC" unicode="&#x1ebc;" horiz-adv-x="1116" 
d="M113 1434h897v-107h-9q-38 14 -71 17.5t-115 3.5h-385v-351h420v-86h-420v-825h461q124 0 186 14h8v-100h-972v8q10 66 10 207v1004q0 140 -10 206v9zM233 1747q34 79 82.5 112t120.5 33q12 0 26.5 -2t25 -4.5t28 -8t25.5 -8.5t28.5 -10.5t26.5 -9.5q138 -65 203 -65
q55 0 96 41l18 -23q-34 -79 -82 -112t-120 -33q-12 0 -26.5 2t-25 4.5t-28 8t-25.5 8.5t-28.5 10.5t-26.5 9.5q-138 65 -203 65q-55 0 -96 -41z" />
    <glyph glyph-name="uni1EBC" unicode="&#x1ebd;" horiz-adv-x="1116" 
d="M113 1434h897v-107h-9q-38 14 -71 17.5t-115 3.5h-385v-351h420v-86h-420v-825h461q124 0 186 14h8v-100h-972v8q10 66 10 207v1004q0 140 -10 206v9zM233 1747q34 79 82.5 112t120.5 33q12 0 26.5 -2t25 -4.5t28 -8t25.5 -8.5t28.5 -10.5t26.5 -9.5q138 -65 203 -65
q55 0 96 41l18 -23q-34 -79 -82 -112t-120 -33q-12 0 -26.5 2t-25 4.5t-28 8t-25.5 8.5t-28.5 10.5t-26.5 9.5q-138 65 -203 65q-55 0 -96 -41z" />
    <glyph glyph-name="Ygrave" unicode="&#x1ef2;" horiz-adv-x="1267" 
d="M119 1217q-113 163 -164 208v9h403l2 -9q5 -17 21 -43t78 -116l299 -424l291 424q23 34 38.5 58.5t23 41t10.5 24.5t5.5 19.5t3.5 15.5l3 9h145v-9q-66 -75 -158 -208l-293 -426v-596q0 -114 11 -187v-8h-328v8q10 66 10 187v450zM582 1835l110 92l203 -325l-45 -39z" />
    <glyph glyph-name="Ygrave" unicode="&#x1ef3;" horiz-adv-x="1267" 
d="M119 1217q-113 163 -164 208v9h403l2 -9q5 -17 21 -43t78 -116l299 -424l291 424q23 34 38.5 58.5t23 41t10.5 24.5t5.5 19.5t3.5 15.5l3 9h145v-9q-66 -75 -158 -208l-293 -426v-596q0 -114 11 -187v-8h-328v8q10 66 10 187v450zM582 1835l110 92l203 -325l-45 -39z" />
    <glyph glyph-name="uni1EF8" unicode="&#x1ef8;" horiz-adv-x="1267" 
d="M119 1217q-113 163 -164 208v9h403l2 -9q5 -17 21 -43t78 -116l299 -424l291 424q23 34 38.5 58.5t23 41t10.5 24.5t5.5 19.5t3.5 15.5l3 9h145v-9q-66 -75 -158 -208l-293 -426v-596q0 -114 11 -187v-8h-328v8q10 66 10 187v450zM420 1747q34 79 82.5 112t120.5 33
q15 0 29.5 -2t34.5 -8t28.5 -8.5t35.5 -13t31 -11.5q138 -65 203 -65q55 0 96 41l19 -23q-34 -79 -82.5 -112t-120.5 -33q-12 0 -26.5 2t-25 4.5t-28 8t-25.5 8.5t-28.5 10.5t-26.5 9.5q-138 65 -202 65q-56 0 -97 -41z" />
    <glyph glyph-name="uni1EF8" unicode="&#x1ef9;" horiz-adv-x="1267" 
d="M119 1217q-113 163 -164 208v9h403l2 -9q5 -17 21 -43t78 -116l299 -424l291 424q23 34 38.5 58.5t23 41t10.5 24.5t5.5 19.5t3.5 15.5l3 9h145v-9q-66 -75 -158 -208l-293 -426v-596q0 -114 11 -187v-8h-328v8q10 66 10 187v450zM420 1747q34 79 82.5 112t120.5 33
q15 0 29.5 -2t34.5 -8t28.5 -8.5t35.5 -13t31 -11.5q138 -65 203 -65q55 0 96 41l19 -23q-34 -79 -82.5 -112t-120.5 -33q-12 0 -26.5 2t-25 4.5t-28 8t-25.5 8.5t-28.5 10.5t-26.5 9.5q-138 65 -202 65q-56 0 -97 -41z" />
    <glyph glyph-name="uni2002" unicode="&#x2002;" horiz-adv-x="614" 
 />
    <glyph glyph-name="uni200A" unicode="&#x200a;" horiz-adv-x="286" 
 />
    <glyph glyph-name="endash" unicode="&#x2013;" horiz-adv-x="1167" 
d="M51 760h1065v-86h-1065v86z" />
    <glyph glyph-name="emdash" unicode="&#x2014;" horiz-adv-x="1536" 
d="M92 760h1352v-86h-1352v86z" />
    <glyph glyph-name="quoteleft" unicode="&#x2018;" horiz-adv-x="573" 
d="M420 1489q-38 -45 -65 -86.5t-40.5 -70t-19 -50.5t-4 -33t7.5 -12q53 -9 92 -41.5t39 -91.5t-41 -101t-102 -42q-60 0 -102 45t-42 114q0 77 52.5 170t175.5 232z" />
    <glyph glyph-name="quoteright" unicode="&#x2019;" horiz-adv-x="573" 
d="M154 954q38 45 65 86.5t40 70t18.5 50.5t4 33t-7.5 12q-53 9 -92 41.5t-39 91.5t41.5 101.5t102.5 42.5q60 0 101.5 -45.5t41.5 -114.5q0 -77 -52.5 -169.5t-174.5 -231.5z" />
    <glyph glyph-name="bullet" unicode="&#x2022;" horiz-adv-x="798" 
d="M399 557q-75 0 -127.5 52.5t-52.5 127.5q0 74 52.5 126t127.5 52t128 -52t53 -126q0 -75 -53 -127.5t-128 -52.5z" />
    <glyph glyph-name="Euro" unicode="&#x20ac;" horiz-adv-x="1611" 
d="M1509 1247v-282h-47q-13 99 -55.5 181.5t-103.5 137t-135.5 84t-153.5 29.5q-80 0 -155 -29.5t-141 -87t-115.5 -152.5t-72.5 -217h576v-86h-588q-6 -61 -6 -131q0 -46 2 -69h592v-86h-584q17 -122 61.5 -217t107 -152.5t135.5 -87t153 -29.5q104 0 201 48.5t173 145
t109 224.5h47v-268q-109 -108 -257.5 -172t-313.5 -64q-265 0 -467 160.5t-264 411.5h-207v86h190q-6 49 -6 100t6 100h-190v86h207q62 251 264 411.5t467 160.5q167 0 315 -64t256 -172z" />
    <glyph glyph-name="uni20B4" unicode="&#x20b4;" horiz-adv-x="1009" 
d="M174 1409q153 61 313 61q201 0 308.5 -95t107.5 -240q0 -110 -102 -244l121 -8v-86l-191 14l-151 -170l342 -25v-86l-414 31l-57 -63q-55 -60 -89 -133t-34 -136q0 -75 46.5 -122t131.5 -46q229 3 321 285h50v-252q-75 -59 -171 -89t-194 -30q-194 0 -303 102.5
t-109 258.5q0 112 101 248l-119 8v86l186 -14l152 170l-338 24v86l412 -31l61 70q115 129 115 242q0 70 -48.5 114.5t-136.5 44.5q-99 0 -164.5 -54.5t-101.5 -176.5h-49z" />
    <glyph glyph-name="uni20BD" unicode="&#x20bd;" horiz-adv-x="1343" 
d="M643 1434q267 0 422.5 -109t155.5 -299q0 -84 -32.5 -155t-89.5 -122t-132.5 -86.5t-162.5 -53t-179 -17.5q-2 0 -113 6v55h27q167 0 270.5 96t103.5 263q0 166 -87 255t-251 89h-145v-914h541v-86h-541v-141q0 -141 10 -207v-8h-327v8q10 66 10 207v141h-123v86h123v777
q0 140 -10 206v9h530z" />
    <glyph glyph-name="uni2116" unicode="&#x2116;" horiz-adv-x="2140" 
d="M113 1434h65l1061 -981v766q0 96 -2.5 131t-11.5 75v9h110v-9q-10 -66 -10 -206v-1024q0 -88 2.5 -122t13.5 -73h-65l-1061 981v-766q0 -96 2.5 -131.5t11.5 -75.5v-8h-110v8q10 66 10 207v1024q0 88 -2.5 122t-13.5 73zM1430 1176q0 126 87.5 208t225.5 82t226.5 -82
t88.5 -208q0 -136 -88 -221t-227 -85q-138 0 -225.5 85t-87.5 221zM1440 674v86h608v-86h-608zM1604 1161q0 -96 39 -157.5t100 -61.5q65 0 103 69.5t38 166.5q0 95 -39.5 156t-99.5 61q-64 0 -102.5 -70t-38.5 -164z" />
    <glyph glyph-name="minus" unicode="&#x2212;" horiz-adv-x="942" 
d="M51 760h840v-86h-840v86z" />
    <glyph glyph-name="uni004A0301" horiz-adv-x="624" 
d="M170 1434h328v-9q-11 -73 -11 -206v-971q0 -270 -160 -426.5t-427 -183.5v53q280 92 280 581v947q0 140 -10 206v9zM133 1622l203 326l110 -93l-268 -272z" />
    <glyph glyph-name="B.salt" horiz-adv-x="1304" 
d="M113 8q11 38 13.5 72.5t2.5 134.5v735q0 237 147.5 375.5t395.5 138.5q143 0 243.5 -73.5t100.5 -178.5q0 -93 -49 -160t-133 -102q90 -11 168.5 -40.5t146 -80.5t106.5 -134t39 -189q0 -139 -77.5 -255.5t-212 -183.5t-295.5 -67h-596v8zM436 86h199q166 0 259 115
t93 288q0 203 -106 291t-338 90h-6v52q124 33 178.5 103t54.5 159q0 85 -39.5 138.5t-101.5 53.5q-193 0 -193 -370v-920z" />
    <glyph glyph-name="P.salt" horiz-adv-x="1255" 
d="M430 215q0 -96 2.5 -131.5t11.5 -75.5v-8h-331v8q10 66 10 207v735q0 155 76 273t204.5 179.5t288.5 61.5q134 0 239 -36t168 -96.5t95.5 -135t32.5 -156.5q0 -98 -38 -180t-101.5 -135.5t-145 -83t-170.5 -29.5q-74 0 -147 21v61h14q66 0 120 32.5t87.5 86t51 118.5
t17.5 134q0 130 -59 221.5t-168 91.5q-104 0 -181 -98t-77 -274v-791z" />
    <glyph glyph-name="A_E.dlig" horiz-adv-x="1751" 
d="M717 1434h928v-107h-9q-38 14 -71 17.5t-115 3.5h-385v-351h420v-86h-420v-825h461q124 0 186 14h8v-100h-972v8q10 66 10 207v137h-490l-75 -153q-22 -44 -37 -78t-21 -54t-8.5 -31t-2.5 -20l-1 -8v-8h-135v8q30 45 102 187zM311 438h447v897z" />
    <glyph glyph-name="D_O.dlig" horiz-adv-x="2211" 
d="M766 1434q139 0 270 -39q161 88 357 88q208 0 382 -101t274.5 -275t100.5 -382t-100.5 -382t-274.5 -275t-382 -101q-181 0 -344 80q-130 -47 -283 -47h-653v8q10 66 10 207v1004q0 140 -10 206v9h653zM430 86h315q99 0 179 41q-135 106 -212 262t-77 336
q0 177 74.5 331.5t205.5 260.5q-76 31 -161 31h-324v-1262zM975 694q0 -262 100 -438q68 90 105 217.5t37 269.5q0 270 -127 435q-115 -201 -115 -484zM1194 117q86 -64 190 -64q107 0 195 61.5t142.5 163t84 226t29.5 256.5q0 184 -52.5 329.5t-147 226.5t-214.5 81
q-118 0 -215 -78q156 -93 243 -249.5t87 -352.5q0 -187 -91.5 -345.5t-250.5 -254.5z" />
    <glyph glyph-name="H_D.dlig" horiz-adv-x="2447" 
d="M113 1434h331v-9q-9 -40 -11.5 -75t-2.5 -131v-222h574v222q0 93 -3 128.5t-12 77.5v9h627q168 0 311 -53t244 -147t158 -227.5t57 -289.5q0 -197 -100.5 -361.5t-277.5 -260t-392 -95.5h-627v8q9 42 12 78t3 129v696h-574v-696q0 -96 2.5 -131.5t11.5 -75.5v-8h-331v8
q10 66 10 207v1004q0 140 -10 206v9zM1311 86h284q146 0 255 92t162.5 239.5t53.5 325.5q0 271 -128 438t-334 167h-293v-1262z" />
    <glyph glyph-name="H_E.dlig" horiz-adv-x="1966" 
d="M113 1434h331v-9q-9 -40 -11.5 -75t-2.5 -131v-222h553v222q0 96 -2.5 131t-11.5 75v9h891v-107h-9q-38 14 -71 17.5t-115 3.5h-375v-351h410v-86h-410v-825h451q124 0 186 14h8v-100h-966v8q9 40 11.5 75.5t2.5 131.5v696h-553v-696q0 -96 2.5 -131.5t11.5 -75.5v-8
h-331v8q10 66 10 207v1004q0 140 -10 206v9z" />
    <glyph glyph-name="N_N.dlig" horiz-adv-x="2437" 
d="M113 1434h65l998 -979v784q0 85 -3 120.5t-14 74.5h66l997 -979v764q0 96 -2.5 131t-11.5 75v9h110v-9q-10 -66 -10 -206v-1024q0 -88 2.5 -122t13.5 -73h-65l-997 979v-784q0 -88 2.5 -122t13.5 -73h-66l-997 979v-764q0 -96 2.5 -131.5t11.5 -75.5v-8h-110v8
q10 66 10 207v1024q0 88 -2.5 122t-13.5 73z" />
    <glyph glyph-name="O_C.dlig" horiz-adv-x="2103" 
d="M819 -33q-208 0 -382 101t-275 275t-101 382t101 382t275 275t382 101q161 0 305 -64q144 64 306 64q167 0 315 -64t256 -172v-282h-47q-17 131 -85 231.5t-163 150.5t-201 50q-123 0 -229 -66q140 -105 220.5 -263t80.5 -343q0 -189 -84 -350t-229 -266q95 -56 206 -56
q104 0 201 48.5t173.5 145t109.5 224.5h47v-268q-109 -108 -257.5 -172t-313.5 -64q-162 0 -306 64q-144 -64 -305 -64zM401 694q0 -187 51.5 -333.5t145 -227t213.5 -80.5q101 0 180 51q-147 104 -231 267t-84 354q0 195 88.5 361t241.5 270q-71 41 -158 41
q-106 0 -193 -61t-141 -162t-83.5 -225t-29.5 -255zM1004 694q0 -287 120 -456q66 101 102 239t36 283q0 278 -113 452q-145 -186 -145 -518z" />
    <glyph glyph-name="O_G.dlig" horiz-adv-x="2164" 
d="M819 -33q-208 0 -382 101t-275 275t-101 382t101 382t275 275t382 101q161 0 305 -64q144 64 306 64q167 0 315 -64t256 -172v-282h-47q-17 131 -85 231.5t-163 150.5t-201 50q-123 0 -229 -66q140 -105 220.5 -263t80.5 -343q0 -189 -84 -350t-229 -266q95 -56 206 -56
q117 0 234 66v422q0 84 -2 116.5t-12 69.5v8h321v-8q-10 -66 -10 -186v-338q-109 -108 -257.5 -172t-313.5 -64q-162 0 -306 64q-144 -64 -305 -64zM401 694q0 -187 51.5 -333.5t145 -227t213.5 -80.5q101 0 180 51q-147 104 -231 267t-84 354q0 195 88.5 361t241.5 270
q-71 41 -158 41q-106 0 -193 -61t-141 -162t-83.5 -225t-29.5 -255zM1004 694q0 -287 120 -456q66 101 102 239t36 283q0 278 -113 452q-145 -186 -145 -518z" />
    <glyph glyph-name="O_O.dlig" horiz-adv-x="2252" 
d="M819 -33q-208 0 -382 101t-275 275t-101 382t101 382t275 275t382 101q160 0 307 -64q147 64 308 64q208 0 382 -101t274.5 -275t100.5 -382t-100.5 -382t-274.5 -275t-382 -101q-161 0 -308 64q-147 -64 -307 -64zM401 694q0 -187 51.5 -333.5t145 -227t213.5 -80.5
q102 0 182 53q-147 105 -232 267t-85 352q0 195 89 360.5t243 268.5q-70 43 -160 43q-106 0 -193 -61t-141 -162t-83.5 -225t-29.5 -255zM1016 694q0 -275 108 -454q67 101 102.5 238t35.5 282q0 271 -111 450q-66 -99 -100.5 -235t-34.5 -281zM1255 102q76 -49 170 -49
q107 0 195 61.5t142.5 163t84 226t29.5 256.5q0 184 -52.5 329.5t-147 226.5t-214.5 81q-105 0 -192 -62q142 -105 224.5 -264.5t82.5 -345.5q0 -190 -86.5 -354t-235.5 -269z" />
    <glyph glyph-name="uni0412.alt" horiz-adv-x="1304" 
d="M113 8q11 38 13.5 72.5t2.5 134.5v735q0 237 147.5 375.5t395.5 138.5q143 0 243.5 -73.5t100.5 -178.5q0 -93 -49 -160t-133 -102q90 -11 168.5 -40.5t146 -80.5t106.5 -134t39 -189q0 -139 -77.5 -255.5t-212 -183.5t-295.5 -67h-596v8zM436 86h199q166 0 259 115
t93 288q0 203 -106 291t-338 90h-6v52q124 33 178.5 103t54.5 159q0 85 -39.5 138.5t-101.5 53.5q-193 0 -193 -370v-920z" />
    <glyph glyph-name="uni0420.alt" horiz-adv-x="1255" 
d="M430 215q0 -96 2.5 -131.5t11.5 -75.5v-8h-331v8q10 66 10 207v735q0 155 76 273t204.5 179.5t288.5 61.5q134 0 239 -36t168 -96.5t95.5 -135t32.5 -156.5q0 -98 -38 -180t-101.5 -135.5t-145 -83t-170.5 -29.5q-74 0 -147 21v61h14q66 0 120 32.5t87.5 86t51 118.5
t17.5 134q0 130 -59 221.5t-168 91.5q-104 0 -181 -98t-77 -274v-791z" />
    <glyph glyph-name="uni0414.loclBGR" horiz-adv-x="1382" 
d="M588 1434q157 0 227 57l496 -1405h143v-348h-53q-6 72 -14.5 115.5t-23 75t-42.5 45.5t-63 20t-95 6h-944q-74 0 -113.5 -8t-67.5 -38t-38.5 -77.5t-17.5 -138.5h-54v348h138zM160 86h825l-393 1131z" />
    <glyph glyph-name="uni041B.loclBGR" horiz-adv-x="1187" 
d="M1208 0h-366v8q0 1 1.5 9t1.5 20t-2.5 33.5t-12 59t-25.5 85.5l-336 991l-360 -991q-13 -35 -22.5 -64t-14.5 -49.5t-9 -35.5t-5 -25.5t-1.5 -15.5t-0.5 -11l1 -6v-8h-129v8q36 72 86 207l455 1219q157 0 227 57l434 -1276q50 -151 78 -207v-8z" />
    <glyph glyph-name="uni0414.salt" horiz-adv-x="1316" 
d="M10 86h105q27 0 45.5 46.5t36.5 148.5l159 938q16 87 16.5 131.5t-7.5 74.5v9h786v-9q-10 -53 -10 -206v-1133h110v-348h-53q-7 91 -17.5 138.5t-38.5 77.5t-67.5 38t-113.5 8h-660q-60 0 -95 -6t-63 -20t-42.5 -45.5t-23 -75t-14.5 -115.5h-53v348zM233 86h601v1262
h-367l-193 -1123q-15 -91 -41 -139z" />
    <glyph glyph-name="uni0418.salt" horiz-adv-x="1454" 
d="M1341 1434q-11 -39 -13.5 -73t-2.5 -122v-1024q0 -141 10 -207v-8h-110v8q9 40 11.5 75.5t2.5 131.5v766l-1061 -981h-65q11 39 13.5 73t2.5 122v1024q0 140 -10 206v9h110v-9q-9 -40 -11.5 -75t-2.5 -131v-766l1061 981h65z" />
    <glyph glyph-name="uni041B.salt" horiz-adv-x="1249" 
d="M350 1434h787v-9q-11 -58 -11 -206v-1004q0 -134 11 -207v-8h-332v8q9 40 11.5 75.5t2.5 131.5v1133h-366l-193 -1123q-21 -119 -60 -176t-110 -57q-46 0 -90 16v170h20q48 -31 80 -31q39 0 54.5 30.5t27.5 103.5l160 938q15 87 15.5 131.5t-7.5 74.5v9z" />
    <glyph glyph-name="uni04100415.dlig" horiz-adv-x="1751" 
d="M717 1434h928v-107h-9q-38 14 -71 17.5t-115 3.5h-385v-351h420v-86h-420v-825h461q124 0 186 14h8v-100h-972v8q10 66 10 207v137h-490l-75 -153q-22 -44 -37 -78t-21 -54t-8.5 -31t-2.5 -20l-1 -8v-8h-135v8q30 45 102 187zM311 438h447v897z" />
    <glyph glyph-name="uni04180418.dlig" horiz-adv-x="2406" 
d="M119 1434h332v-9q-9 -42 -12 -77.5t-3 -128.5v-791l871 1006h65q-12 -44 -14 -104t-2 -306v-596l872 1006h66q-12 -45 -14.5 -107.5t-2.5 -302.5v-809q0 -134 11 -207v-8h-332v8q9 40 11.5 75.5t2.5 131.5v791l-872 -1006h-66q11 44 14 79t3 116v811l-871 -1006h-65
q11 43 13.5 76.5t2.5 118.5v1024q0 140 -10 206v9z" />
    <glyph glyph-name="uni0418041D.dlig" horiz-adv-x="2344" 
d="M1901 1434h331v-9q-10 -66 -10 -206v-1004q0 -141 10 -207v-8h-331v8q9 40 11.5 75.5t2.5 131.5v696h-559v-696q0 -96 2.5 -131.5t11.5 -75.5v-8h-336v8q9 42 12 78t3 129v791l-871 -1006h-65q11 43 13.5 76.5t2.5 118.5v1024q0 140 -10 206v9h332v-9q-9 -42 -12 -77.5
t-3 -128.5v-791l871 1006h65q-12 -44 -14 -104t-2 -306v-27h559v222q0 96 -2.5 131t-11.5 75v9z" />
    <glyph glyph-name="uni041B042C.dlig" horiz-adv-x="1886" 
d="M350 1434h770v-9q-9 -40 -11.5 -75t-2.5 -131v-1133h135q113 0 195 57t119.5 142.5t37.5 185.5q0 76 -24 146.5t-69 127.5t-118.5 91t-164.5 34h-29v62q82 10 145 10q90 0 171 -15t153.5 -49t125 -84t83 -123.5t30.5 -164.5q0 -238 -159 -372t-443 -134h-510v8
q9 42 12 78t3 129v1133h-346l-193 -1123q-21 -119 -60 -176t-110 -57q-46 0 -90 16v170h20q48 -31 80 -31q39 0 54.5 30.5t27.5 103.5l160 938q15 87 15.5 131.5t-7.5 74.5v9z" />
    <glyph glyph-name="uni041C042C.dlig" horiz-adv-x="2347" 
d="M113 1434h123l598 -981l620 981h123q-10 -66 -10 -187v-1161h135q113 0 195 57t119.5 142.5t37.5 185.5q0 76 -24 146.5t-69.5 127.5t-119 91t-164.5 34h-28v62q82 10 145 10q90 0 171 -15t153.5 -49t125 -84t83 -123.5t30.5 -164.5q0 -238 -159 -372t-443 -134h-506v8
q11 73 11 207v752l-560 -883h-2l-489 803v-672q0 -96 2.5 -131.5t11.5 -75.5v-8h-110v8q10 66 10 207v1032q0 121 -10 187z" />
    <glyph glyph-name="uni041D0415.dlig" horiz-adv-x="1966" 
d="M113 1434h331v-9q-9 -40 -11.5 -75t-2.5 -131v-222h553v222q0 96 -2.5 131t-11.5 75v9h891v-107h-9q-38 14 -71 17.5t-115 3.5h-375v-351h410v-86h-410v-825h451q124 0 186 14h8v-100h-966v8q9 40 11.5 75.5t2.5 131.5v696h-553v-696q0 -96 2.5 -131.5t11.5 -75.5v-8
h-331v8q10 66 10 207v1004q0 140 -10 206v9z" />
    <glyph glyph-name="uni041D042C.dlig" horiz-adv-x="2060" 
d="M113 1434h331v-9q-9 -40 -11.5 -75t-2.5 -131v-222h543v222q0 140 -10 206v9h331v-9q-9 -40 -11.5 -75t-2.5 -131v-1133h135q113 0 195 57t119.5 142.5t37.5 185.5q0 76 -24 146.5t-69 127.5t-118.5 91t-164.5 34h-29v62q82 10 145 10q90 0 171 -15t153.5 -49t125.5 -84
t83.5 -123.5t30.5 -164.5q0 -238 -159.5 -372t-443.5 -134h-505v8q10 66 10 207v696h-543v-696q0 -96 2.5 -131.5t11.5 -75.5v-8h-331v8q10 66 10 207v1004q0 140 -10 206v9z" />
    <glyph glyph-name="uni041E0415.dlig" horiz-adv-x="2314" 
d="M819 -33q-208 0 -382 101t-275 275t-101 382t101 382t275 275t382 101q286 0 502 -193q-2 83 -10 135v9h897v-107h-8q-38 14 -71.5 17.5t-115.5 3.5h-385v-351h420v-86h-420v-825h461q124 0 186 14h9v-100h-973v8q10 75 10 154q-102 -93 -230.5 -144t-271.5 -51zM401 694
q0 -187 51.5 -333.5t145 -227t213.5 -80.5q99 0 185 40.5t146.5 109t103.5 159t64 192t21 206.5q0 280 -133.5 458.5t-345.5 178.5q-107 0 -195 -61t-142.5 -162t-84 -224.5t-29.5 -255.5z" />
    <glyph glyph-name="uni041E041E.dlig" horiz-adv-x="2252" 
d="M819 -33q-208 0 -382 101t-275 275t-101 382t101 382t275 275t382 101q160 0 307 -64q147 64 308 64q208 0 382 -101t274.5 -275t100.5 -382t-100.5 -382t-274.5 -275t-382 -101q-161 0 -308 64q-147 -64 -307 -64zM401 694q0 -187 51.5 -333.5t145 -227t213.5 -80.5
q102 0 182 53q-147 105 -232 267t-85 352q0 195 89 360.5t243 268.5q-70 43 -160 43q-106 0 -193 -61t-141 -162t-83.5 -225t-29.5 -255zM1016 694q0 -275 108 -454q67 101 102.5 238t35.5 282q0 271 -111 450q-66 -99 -100.5 -235t-34.5 -281zM1255 102q76 -49 170 -49
q107 0 195 61.5t142.5 163t84 226t29.5 256.5q0 184 -52.5 329.5t-147 226.5t-214.5 81q-105 0 -192 -62q142 -105 224.5 -264.5t82.5 -345.5q0 -190 -86.5 -354t-235.5 -269z" />
    <glyph glyph-name="uni041E0421.dlig" horiz-adv-x="2103" 
d="M819 -33q-208 0 -382 101t-275 275t-101 382t101 382t275 275t382 101q161 0 305 -64q144 64 306 64q167 0 315 -64t256 -172v-282h-47q-17 131 -85 231.5t-163 150.5t-201 50q-123 0 -229 -66q140 -105 220.5 -263t80.5 -343q0 -189 -84 -350t-229 -266q95 -56 206 -56
q104 0 201 48.5t173.5 145t109.5 224.5h47v-268q-109 -108 -257.5 -172t-313.5 -64q-162 0 -306 64q-144 -64 -305 -64zM401 694q0 -187 51.5 -333.5t145 -227t213.5 -80.5q101 0 180 51q-147 104 -231 267t-84 354q0 195 88.5 361t241.5 270q-71 41 -158 41
q-106 0 -193 -61t-141 -162t-83.5 -225t-29.5 -255zM1004 694q0 -287 120 -456q66 101 102 239t36 283q0 278 -113 452q-145 -186 -145 -518z" />
    <glyph glyph-name="uni041F042C.dlig" horiz-adv-x="2060" 
d="M113 1434h1181v-9q-9 -40 -11.5 -75t-2.5 -131v-1133h135q113 0 195 57t119.5 142.5t37.5 185.5q0 76 -24 146.5t-69 127.5t-118.5 91t-164.5 34h-29v62q82 10 145 10q90 0 171 -15t153.5 -49t125.5 -84t83.5 -123.5t30.5 -164.5q0 -238 -159.5 -372t-443.5 -134h-505v8
q10 66 10 207v1133h-543v-1133q0 -96 2.5 -131.5t11.5 -75.5v-8h-331v8q10 66 10 207v1004q0 140 -10 206v9z" />
    <glyph glyph-name="uni0427042C.dlig" horiz-adv-x="1957" 
d="M72 1434h331v-9q-9 -40 -11.5 -75t-2.5 -131v-283q0 -129 66.5 -208t185.5 -79q128 0 229 68v502q0 140 -10 206v9h332v-9q-9 -40 -11.5 -75t-2.5 -131v-1133h135q113 0 195 57t119.5 142.5t37.5 185.5q0 76 -24 146.5t-69.5 127.5t-119 91t-164.5 34h-28v62
q82 10 145 10q90 0 171 -15t153.5 -49t125 -84t83 -123.5t30.5 -164.5q0 -238 -159 -372t-443 -134h-510v8q9 40 11.5 75.5t2.5 131.5v410q-136 -103 -317 -103q-228 0 -349.5 112.5t-121.5 285.5v299q0 140 -10 206v9z" />
    <glyph glyph-name="uni0428042C.dlig" horiz-adv-x="2471" 
d="M119 1434h332v-9q-9 -42 -12 -77.5t-3 -128.5v-1133h320v1133q0 133 -11 206v9h328v-9q-10 -66 -10 -206v-1133h321v1133q0 96 -2.5 131t-11.5 75v9h336v-9q-9 -40 -11.5 -75t-2.5 -131v-1133h135q113 0 195 57t119.5 142.5t37.5 185.5q0 76 -24 146.5t-69.5 127.5
t-119 91t-164.5 34h-28v62q82 10 145 10q90 0 171 -15t153.5 -49t125 -84t83 -123.5t30.5 -164.5q0 -238 -159 -372t-443 -134h-1767v8q11 38 13.5 72.5t2.5 134.5v1004q0 140 -10 206v9z" />
    <glyph glyph-name="uni0306.cy" 
d="M287 1868h147v-2q0 -61 35 -115q49 -68 145 -68q78 0 126.5 49t54.5 136h147q-5 -120 -95 -195.5t-233 -75.5t-232.5 75.5t-94.5 195.5z" />
    <glyph glyph-name="uni030C.alt" 
d="M678 1948l110 -93l-268 -272l-45 39z" />
    </font>
</defs>
</svg>
