<?xml version="1.0" standalone="no"?>
<!DOCTYPE svg PUBLIC "-//W3C//DTD SVG 1.1//EN" "http://www.w3.org/Graphics/SVG/1.1/DTD/svg11.dtd" >
<svg xmlns="http://www.w3.org/2000/svg" xmlns:xlink="http://www.w3.org/1999/xlink" version="1.1">
<metadata>
Created by FontForge 20201107 at Tue Feb 13 19:36:19 2024
 By 
Copyright (c) 2023 by Misha Ivanov.
</metadata>
<defs>
<font id="Angst-NormalSerif" horiz-adv-x="0" >
  <font-face 
    font-family="Angst Normal Serif"
    font-weight="400"
    font-stretch="normal"
    units-per-em="2048"
    panose-1="0 0 0 0 0 0 0 0 0 0"
    ascent="1638"
    descent="-410"
    cap-height="1434"
    bbox="-225 -604 2437 2181"
    underline-thickness="102"
    underline-position="-255"
    unicode-range="U+0020-2212"
  />
<missing-glyph horiz-adv-x="1024" 
d="M840 1638v-2048h-650v2048h650zM342 -268h340v67h-209l143 97h66v67h-340v-67h143l-143 -97v-67zM342 10h340v232h-340v-232zM342 365h340v231h-205v-115h70v47h67v-96h-204v164h-68v-231zM342 641h340v205h-68v-135h-272v-70zM342 758h205v143h135v68h-340v-68h135v-76
h-135v-67zM342 1024h340v70h-135v143h-205v-213zM342 1290h340v68h-135v76h135v67h-338v-67h133v-76h-135v-68zM410 78v96h204v-96h-204zM410 1094v73h67v-73h-67z" />
    <glyph glyph-name="T_T.liga" unicode="TT" horiz-adv-x="2048" 
d="M39 1434h2052l63 -1104h-24q-58 642 -89 813q-31 167 -80 211q-33 28 -108 30h-26h-162v-1169q0 -35 2 -56t8.5 -44t20 -35.5t36 -24.5t57 -17.5t81.5 -9t112 -3.5h148v-25h-2130v25h150q65 0 112 3.5t81.5 9t57 17.5t36 24.5t20 35.5t8.5 44t2 56v1169h-164
q-83 0 -114 -17q-52 -27 -82 -140q-36 -139 -83 -637q-10 -101 -24 -260h-25zM641 215q0 -35 2 -56t8.5 -44t20 -35.5t36 -24.5t57 -17.5t81.5 -9t112 -3.5h216q65 0 112 3.5t81.5 9t57 17.5t36 24.5t20 35.5t8.5 44t2 56v1169h-205q-83 0 -113 -16q-50 -28 -69 -140
q-24 -140 -27 -638v-260h-24q0 643 -16 816q-16 166 -63 209q-29 27 -103 29h-27h-203v-1169z" />
    <glyph glyph-name="uni04220422.liga" unicode="&#x422;&#x422;" horiz-adv-x="2048" 
d="M39 1434h2052l63 -1104h-24q-58 642 -89 813q-31 167 -80 211q-33 28 -108 30h-26h-162v-1169q0 -35 2 -56t8.5 -44t20 -35.5t36 -24.5t57 -17.5t81.5 -9t112 -3.5h148v-25h-2130v25h150q65 0 112 3.5t81.5 9t57 17.5t36 24.5t20 35.5t8.5 44t2 56v1169h-164
q-83 0 -114 -17q-52 -27 -82 -140q-36 -139 -83 -637q-10 -101 -24 -260h-25zM641 215q0 -35 2 -56t8.5 -44t20 -35.5t36 -24.5t57 -17.5t81.5 -9t112 -3.5h216q65 0 112 3.5t81.5 9t57 17.5t36 24.5t20 35.5t8.5 44t2 56v1169h-205q-83 0 -113 -16q-50 -28 -69 -140
q-24 -140 -27 -638v-260h-24q0 643 -16 816q-16 166 -63 209q-29 27 -103 29h-27h-203v-1169z" />
    <glyph glyph-name="uni04070407.liga" unicode="&#x407;&#x407;" horiz-adv-x="1150" 
d="M575 25q70 0 108.5 6t61 27t29 52t6.5 89v1040q0 58 -6 88.5t-29.5 50.5t-61 25.5t-108.5 5.5t-108.5 -5.5t-60.5 -25.5t-29 -50.5t-6 -88.5v-1040q0 -58 6 -89t29 -52t61 -27t108 -6zM-61 0v25q52 0 88 2.5t65 6.5t46.5 14t30 21.5t18 32t8 42t2.5 55.5v1040
q0 47 -5 73.5t-18 48t-44 30.5t-74.5 13.5t-116.5 4.5v25h1273v-25q-73 0 -116.5 -4.5t-74.5 -13.5t-44 -30.5t-18 -48t-5 -73.5v-1040q0 -34 2.5 -55.5t8 -42t18 -32t30 -21.5t46.5 -14t65 -6.5t88 -2.5v-25h-1273zM123 1741q0 37 27 64.5t65 27.5t65 -27.5t27 -64.5
q0 -38 -27 -65t-65 -27t-65 27t-27 65zM481 1741q0 37 27 64.5t65 27.5t65.5 -27.5t27.5 -64.5q0 -38 -27.5 -65t-65.5 -27t-65 27t-27 65zM840 1741q0 37 27 64.5t65 27.5q37 0 64.5 -27.5t27.5 -64.5q0 -38 -27.5 -65t-64.5 -27q-38 0 -65 27t-27 65z" />
    <glyph glyph-name=".notdef" horiz-adv-x="1024" 
d="M840 1638v-2048h-650v2048h650zM342 -268h340v67h-209l143 97h66v67h-340v-67h143l-143 -97v-67zM342 10h340v232h-340v-232zM342 365h340v231h-205v-115h70v47h67v-96h-204v164h-68v-231zM342 641h340v205h-68v-135h-272v-70zM342 758h205v143h135v68h-340v-68h135v-76
h-135v-67zM342 1024h340v70h-135v143h-205v-213zM342 1290h340v68h-135v76h135v67h-338v-67h133v-76h-135v-68zM410 78v96h204v-96h-204zM410 1094v73h67v-73h-67z" />
    <glyph glyph-name=".null" 
 />
    <glyph glyph-name="nonmarkingreturn" horiz-adv-x="682" 
 />
    <glyph glyph-name="space" unicode=" " horiz-adv-x="716" 
 />
    <glyph glyph-name="space" unicode="&#xa0;" horiz-adv-x="716" 
 />
    <glyph glyph-name="exclam" unicode="!" horiz-adv-x="573" 
d="M287 -12q-53 0 -88 35t-35 88q0 50 35.5 86t87.5 36q51 0 87 -36t36 -86q0 -52 -36 -87.5t-87 -35.5zM168 1384q0 70 30.5 111t88.5 41t87 -41t29 -111q-1 -76 -23.5 -227t-48 -351.5t-32.5 -383.5h-20q-9 183 -36.5 384t-50.5 351t-24 227z" />
    <glyph glyph-name="quotedbl" unicode="&#x22;" horiz-adv-x="880" 
d="M133 903q121 209 138 254q22 55 -3 76q-9 7 -24 14q-32 13 -54 42t-22 69q0 50 35 84.5t84 34.5q51 0 86 -39t35 -105q0 -29 -6 -53t-28.5 -63.5t-43.5 -70.5t-75 -109t-99 -146zM483 903q121 209 138 254q22 55 -3 76q-9 7 -24 14q-32 13 -54 42t-22 69q0 50 35 84.5
t84 34.5q51 0 86 -39t35 -105q0 -29 -6 -53t-28.5 -63.5t-43.5 -70.5t-75 -109t-99 -146z" />
    <glyph glyph-name="numbersign" unicode="#" horiz-adv-x="1515" 
d="M870 1417l-208 -409l491 18l199 428l73 -37l-198 -387l289 10v-82h-324l-227 -442l551 21v-82h-582l-238 -465l-22 10l211 455h-506l-238 -465l-22 10l211 455h-330v24l348 13l217 466h-565v25l588 23l209 448zM399 494l514 20l207 444h-483z" />
    <glyph glyph-name="dollar" unicode="$" horiz-adv-x="1085" 
d="M598 1638l-4 -168q164 -7 297 -49l-6 -657h-29q0 121 -9 218.5t-23 163.5t-36 115t-43.5 77t-49.5 45.5t-50.5 23.5t-50.5 8l-12 -581l196 -187q185 -174 185 -366q0 -135 -108.5 -219t-305.5 -87l-2 -180h-21l-2 180q-103 2 -206.5 29t-180.5 78l60 692l28 -2
q-12 -195 4.5 -338t46.5 -217.5t79 -118.5t85 -54.5t82 -12.5l-10 631l-205 196q-160 154 -160 318q0 125 105 205.5t268 88.5l-4 168h82zM332 1212q0 -138 147 -280l51 -49l-10 530q-93 -12 -140.5 -66.5t-47.5 -134.5zM551 31q116 3 171.5 61t55.5 152q0 165 -172 329
l-47 45z" />
    <glyph glyph-name="percent" unicode="%" horiz-adv-x="1495" 
d="M1550 1913l68 -49l-1698 -2282l-20 15zM61 1192q0 128 88 209.5t226 81.5t226.5 -82t88.5 -209q0 -134 -88.5 -219.5t-226.5 -85.5t-226 85.5t-88 219.5zM193 1120q0 -81 37 -129.5t102 -48.5q67 0 121.5 51.5t81 122t26.5 137.5q0 78 -39 126t-102 48q-65 0 -119 -52
t-81 -121.5t-27 -133.5zM805 281q0 128 87.5 209t225.5 81t227 -81.5t89 -208.5q0 -134 -89 -220t-227 -86t-225.5 86t-87.5 220zM936 209q0 -81 37 -129.5t102 -48.5q67 0 122 51.5t81.5 122t26.5 137.5q0 78 -39.5 126t-102.5 48q-65 0 -119 -52t-81 -121.5t-27 -133.5z
" />
    <glyph glyph-name="ampersand" unicode="&#x26;" horiz-adv-x="1251" 
d="M1020 918q123 -155 123 -365q0 -114 -45 -223q94 -97 162 -159.5t107 -88t56.5 -33t34.5 -8.5v-25q-190 -111 -454 160q-79 -94 -193 -147.5t-242 -53.5q-113 0 -209.5 35.5t-161 95.5t-101 138t-36.5 162q0 137 80.5 255.5t214.5 192.5q-120 146 -120 291q0 139 106 232
t270 93q160 0 297 -49v-383h-24q0 91 -16 160t-41 109t-60.5 65.5t-68.5 34t-70 8.5q-104 0 -167 -66t-63 -163q0 -125 117 -250l545 -567q26 74 26 159q0 184 -112 274.5t-338 90.5v25h383zM246 440q0 -101 30 -181t82 -129t117 -74t139 -25q104 0 199 47.5t160 130.5
l-578 602l-6 6q-71 -70 -107 -171.5t-36 -205.5z" />
    <glyph glyph-name="quotesingle" unicode="'" horiz-adv-x="573" 
d="M129 930q121 209 138 254q22 55 -3 76q-9 7 -24 14q-32 13 -54 41.5t-22 68.5q0 50 35 84.5t84 34.5q51 0 85.5 -38.5t34.5 -104.5q0 -29 -6 -53t-28.5 -63.5t-43 -70t-75 -109.5t-98.5 -146z" />
    <glyph glyph-name="parenleft" unicode="(" horiz-adv-x="737" 
d="M141 1640q96 -98 165.5 -191t125.5 -205t84.5 -244t28.5 -283t-28.5 -283t-84.5 -244.5t-125.5 -205.5t-165.5 -191l-18 17q134 211 191 409.5t57 497.5t-57 497.5t-191 409.5z" />
    <glyph glyph-name="parenright" unicode=")" horiz-adv-x="737" 
d="M545 1624q-134 -211 -191 -409.5t-57 -497.5t57 -497.5t191 -409.5l-19 -17q-96 97 -165.5 190.5t-125.5 206t-84 244.5t-28 283t28 283t84 244t125.5 205t165.5 191z" />
    <glyph glyph-name="asterisk" unicode="*" horiz-adv-x="983" 
d="M502 1679l33 -350l14 -8l319 147l11 -18l-289 -205v-6v-6l289 -205l-11 -18l-319 147q-2 -2 -7 -5t-7 -5l-33 -348h-21l-32 348l-15 8l-319 -145l-11 18l285 201v10v10l-285 201l11 18l319 -145l15 6l32 350h21z" />
    <glyph glyph-name="plus" unicode="+" horiz-adv-x="942" 
d="M51 727l395 12l-12 418h74l-12 -416l395 13v-74l-397 12l-13 -416h-20l-12 418l-398 13v20z" />
    <glyph glyph-name="comma" unicode="," horiz-adv-x="573" 
d="M129 -344q121 209 138 254q22 55 -3 76q-9 7 -24 14q-32 13 -54 42t-22 69q0 49 34.5 83.5t84.5 34.5q51 0 85.5 -38.5t34.5 -104.5q0 -29 -6 -53t-28.5 -63.5t-43 -70t-75 -109.5t-98.5 -146z" />
    <glyph glyph-name="hyphen" unicode="-" horiz-adv-x="819" 
d="M20 727l779 27v-74l-779 27v20z" />
    <glyph glyph-name="period" unicode="." horiz-adv-x="573" 
d="M287 -12q-53 0 -88 35t-35 88q0 50 35.5 86t87.5 36q51 0 87 -36t36 -86q0 -52 -36 -87.5t-87 -35.5z" />
    <glyph glyph-name="slash" unicode="/" horiz-adv-x="1105" 
d="M1141 2015l73 -37l-1275 -2541l-23 10z" />
    <glyph glyph-name="zero" unicode="0" horiz-adv-x="1392" 
d="M696 -33q-178 0 -318 96t-218 268.5t-78 391.5t78 391.5t218 268.5t318 96q177 0 317.5 -96t219 -268.5t78.5 -391.5t-78.5 -391.5t-219 -268.5t-317.5 -96zM262 637q0 -89 12.5 -173t43 -166t75.5 -142.5t115 -98t156 -37.5q88 0 163 49t126 129.5t87.5 184.5t53 212
t16.5 214q0 88 -12.5 172t-43 166t-75 142.5t-114.5 98t-156 37.5q-109 0 -197.5 -74t-141 -192t-80.5 -253t-28 -269z" />
    <glyph glyph-name="one" unicode="1" horiz-adv-x="692" 
d="M70 1071l510 500l16 -15q-65 -84 -87 -147.5t-22 -169.5v-1024q0 -65 6 -99t29.5 -56.5t61 -28.5t108.5 -6v-25h-696v25q77 0 125.5 2.5t86.5 11.5t57 20t30.5 35t14.5 50t3 71v989l-221 -157z" />
    <glyph glyph-name="two" unicode="2" horiz-adv-x="1175" 
d="M154 53q157 113 278.5 228t198 215t125.5 199t68.5 181t19.5 160q0 181 -85.5 284t-203.5 103q-53 0 -93.5 -14t-77 -49t-58.5 -94t-37.5 -148.5t-14 -212.5t12.5 -287l-31 -4l-70 689q71 87 170 131.5t213 44.5q209 0 331 -115.5t122 -312.5q0 -111 -45.5 -223.5
t-134 -223t-196 -212.5t-253.5 -218h389q31 0 45.5 0.5t37 3.5t31 7.5t23.5 16t19.5 25.5t13 39t10.5 54t5.5 72.5t4.5 92t1 115.5h24v-600h-843v53z" />
    <glyph glyph-name="three" unicode="3" horiz-adv-x="1126" 
d="M147 1434h805l4 -7l-452 -526h22q146 0 259 -50t179 -150.5t66 -237.5q0 -134 -65 -247.5t-181.5 -181t-257.5 -67.5q-153 0 -267.5 76t-174.5 193l88 333l23 -4q-15 -147 0 -250t61 -168t107.5 -94.5t140.5 -29.5q70 0 135 28t117 79t83 129.5t31 172.5
q0 188 -106 287.5t-313 99.5q-43 0 -66 -2l-12 21l352 422h-363q-45 0 -72 -2.5t-50.5 -13.5t-35 -27t-20 -48.5t-10.5 -72.5t-2 -105h-25v443z" />
    <glyph glyph-name="four" unicode="4" horiz-adv-x="976" 
d="M827 1544q-42 -118 -53.5 -199.5t-11.5 -250.5v-668q133 0 186 4h8v-63h-8q-53 4 -186 4v-156q0 -65 6 -99t29.5 -56.5t61 -28.5t108.5 -6v-25h-697v25q77 0 125.5 2.5t86.5 11.5t57 20t31 35t15 50t3 71v156h-592l-4 8l817 1175zM209 594q-24 -34 -37.5 -54t-24.5 -40.5
t-15 -30.5t-1.5 -19.5t8.5 -13t22 -6.5t32.5 -3.5t46.5 -0.5h348v715z" />
    <glyph glyph-name="five" unicode="5" horiz-adv-x="1290" 
d="M375 1434h649v-443h-25q0 65 -2 105t-10.5 72.5t-20 48.5t-35 27t-50.5 13.5t-72 2.5h-408l-82 -469q139 118 318 118q89 0 171.5 -31t147 -86.5t103.5 -139.5t39 -183q0 -101 -40 -193.5t-108 -160.5t-164 -108t-204 -40q-153 0 -268 76t-175 193l88 333l25 -4
q-18 -142 0 -249t66 -169.5t114.5 -93t149.5 -30.5q107 0 185.5 59.5t115.5 152.5t37 205q0 193 -86.5 303.5t-221.5 110.5q-84 0 -170 -43.5t-155 -120.5l-37 15z" />
    <glyph glyph-name="six" unicode="6" horiz-adv-x="1249" 
d="M631 -33q-115 0 -207.5 45.5t-150.5 124.5t-88.5 180.5t-30.5 217.5q0 152 37.5 290t114.5 258t188.5 213t267 155t342.5 83v-21q-117 -23 -219.5 -69t-180 -107t-141 -137.5t-107 -159t-72.5 -172.5t-42.5 -177t-13.5 -173q0 -122 25.5 -217.5t69 -153.5t97 -88
t113.5 -30q121 0 210 110t89 299q0 100 -28 179t-73.5 124.5t-98 69t-107.5 23.5q-92 0 -168 -39l-11 18q109 82 242 82q183 0 300.5 -122t117.5 -312q0 -93 -31 -180t-88.5 -157.5t-150 -113.5t-205.5 -43z" />
    <glyph glyph-name="seven" unicode="7" horiz-adv-x="880" 
d="M61 1434h840l-555 -1241q-13 -30 -19.5 -47t-10.5 -37t0.5 -30t17 -21t34.5 -16t57.5 -9.5t81 -6t109.5 -1.5v-25h-561v25q56 0 88.5 5.5t58.5 27.5t42.5 50t42.5 87l475 1065h-486q-47 0 -72.5 -3t-50 -20t-35 -43.5t-19.5 -82t-11 -126t-2 -186.5h-25v635z" />
    <glyph glyph-name="eight" unicode="8" horiz-adv-x="1269" 
d="M635 -33q-207 0 -339 117t-132 301q0 135 73 238t199 149q-98 48 -156.5 134t-58.5 188q0 154 120.5 263t293.5 109t293.5 -109t120.5 -263q0 -102 -58.5 -188t-156.5 -134q126 -46 199 -149t73 -238q0 -184 -132 -301t-339 -117zM348 348q0 -137 73 -231t189 -94
q70 0 130.5 39t99 99.5t60.5 129.5t22 133q0 136 -72.5 232t-185.5 96q-69 0 -130 -38t-101 -97.5t-62.5 -130t-22.5 -138.5zM406 1069q0 -113 57.5 -194.5t148.5 -81.5q71 0 130.5 54.5t90.5 132.5t31 155q0 113 -59 194.5t-152 81.5q-56 0 -104.5 -33t-78.5 -84.5
t-47 -110.5t-17 -114z" />
    <glyph glyph-name="nine" unicode="9" horiz-adv-x="1249" 
d="M618 1470q115 0 207.5 -45.5t151 -124t89 -180t30.5 -217.5q0 -151 -37.5 -287.5t-115 -256t-189 -211.5t-267 -153.5t-342.5 -82.5v18q136 27 252 84.5t199.5 135t147 170t102 195t57.5 204t19 201.5q0 237 -89.5 363t-216.5 126q-121 0 -210 -110.5t-89 -299.5
q0 -100 28 -178.5t73.5 -124t98.5 -69t108 -23.5q92 0 168 39l10 -18q-109 -82 -242 -82q-183 0 -300.5 122t-117.5 312q0 93 31 179.5t88.5 157.5t150 113.5t205.5 42.5z" />
    <glyph glyph-name="colon" unicode=":" horiz-adv-x="573" 
d="M287 295q-53 0 -88 35.5t-35 87.5q0 50 35.5 86.5t87.5 36.5q51 0 87 -36.5t36 -86.5q0 -52 -36 -87.5t-87 -35.5zM164 1057q0 50 35.5 86.5t87.5 36.5q51 0 87 -36.5t36 -86.5q0 -52 -36 -87.5t-87 -35.5q-53 0 -88 35t-35 88z" />
    <glyph glyph-name="semicolon" unicode=";" horiz-adv-x="573" 
d="M287 940q-53 0 -88 35t-35 88q0 50 35.5 86.5t87.5 36.5q51 0 87 -36.5t36 -86.5q0 -52 -36 -87.5t-87 -35.5zM129 -33q121 209 138 254q22 55 -3 76q-9 7 -24 14q-32 13 -54 42t-22 69q0 50 35 84.5t84 34.5q51 0 85.5 -39t34.5 -105q0 -29 -6 -53t-28.5 -63.5t-43 -70
t-75 -109.5t-98.5 -146z" />
    <glyph glyph-name="less" unicode="&#x3c;" horiz-adv-x="935" 
d="M735 1200l15 -14l-412 -459l412 -459l-15 -14l-530 473z" />
    <glyph glyph-name="equal" unicode="=" horiz-adv-x="942" 
d="M51 911l840 27v-74l-840 27v20zM51 563v21l840 26v-73z" />
    <glyph glyph-name="greater" unicode="&#x3e;" horiz-adv-x="935" 
d="M242 1200l530 -473l-530 -473l-15 14l412 459l-412 459z" />
    <glyph glyph-name="question" unicode="?" horiz-adv-x="911" 
d="M401 -12q-52 0 -87 35t-35 88q0 50 35 86t87 36q51 0 87 -36t36 -86q0 -52 -36 -87.5t-87 -35.5zM131 834v591q129 45 297 45t264 -75t96 -203q0 -141 -155 -315l-111 -125q-70 -79 -107.5 -140.5t-37.5 -119.5q0 -55 49 -111l-16 -19q-134 81 -134 197q0 101 117 248
l99 125q122 152 122 287q0 95 -61 145.5t-141 50.5q-25 0 -46 -4t-48 -17.5t-47.5 -37.5t-42 -68t-36 -103.5t-24.5 -149.5t-12 -201h-25z" />
    <glyph glyph-name="at" unicode="@" horiz-adv-x="1679" 
d="M764 1167q52 10 103 41.5t75 73.5l188 -541l279 39l4 -22l-270 -49l53 -152q79 -229 152 -229q49 0 83.5 109t34.5 263q0 103 -16.5 202t-58.5 198.5t-104 174t-162 121t-224 46.5q-117 0 -221.5 -45t-182.5 -122.5t-135.5 -178.5t-86.5 -216.5t-29 -232.5
q0 -182 70.5 -327.5t207 -231.5t316.5 -86q138 0 244.5 37t224.5 127l14 -19q-85 -92 -212.5 -146t-270.5 -54q-160 0 -304.5 61t-248.5 165t-165 248t-61 304t61 304t165 248t248.5 165t304.5 61t304 -61t248 -165t165 -248t61 -304q0 -105 -26.5 -193t-70 -143.5t-96 -86
t-106.5 -30.5q-109 0 -182 67.5t-125 217.5l-43 121l-348 -62l-48 -129q-17 -44 15 -61q43 -23 209 -23v-24h-443v24q82 0 113 18t47 64zM641 674l313 43l-145 413z" />
    <glyph glyph-name="A" unicode="A" horiz-adv-x="1228" 
d="M553 1434q39 10 77 41t56 73l471 -1333q42 -120 74 -155t94 -35v-25h-721v25q82 0 138 1t103.5 5.5t75.5 9.5t48.5 17t28 24t8 33.5t-5 43t-17.5 56.5l-59 168h-707l-63 -168q-18 -47 -24 -72.5t2.5 -50t32 -35t78.5 -19.5t127.5 -11t192.5 -2v-25h-659v25
q64 0 94.5 33.5t79.5 158.5zM238 438h667l-319 912z" />
    <glyph glyph-name="A" unicode="a" horiz-adv-x="1228" 
d="M553 1434q39 10 77 41t56 73l471 -1333q42 -120 74 -155t94 -35v-25h-721v25q82 0 138 1t103.5 5.5t75.5 9.5t48.5 17t28 24t8 33.5t-5 43t-17.5 56.5l-59 168h-707l-63 -168q-18 -47 -24 -72.5t2.5 -50t32 -35t78.5 -19.5t127.5 -11t192.5 -2v-25h-659v25
q64 0 94.5 33.5t79.5 158.5zM238 438h667l-319 912z" />
    <glyph glyph-name="B" unicode="B" horiz-adv-x="1320" 
d="M586 1434q202 0 321 -80t119 -217q0 -98 -57.5 -170.5t-157.5 -104.5q218 -17 343.5 -124.5t125.5 -278.5q0 -212 -156 -335.5t-422 -123.5h-702v25q72 2 109 8t60.5 28.5t29.5 55.5t6 98v1004q0 65 -6 98t-29.5 55.5t-60.5 28.5t-109 8v25h586zM379 55h303
q192 0 305 104t113 279q0 181 -151 285t-435 113l-63 2v30l63 4q332 21 332 256q0 115 -76 182.5t-205 67.5h-186v-1323z" />
    <glyph glyph-name="B" unicode="b" horiz-adv-x="1320" 
d="M586 1434q202 0 321 -80t119 -217q0 -98 -57.5 -170.5t-157.5 -104.5q218 -17 343.5 -124.5t125.5 -278.5q0 -212 -156 -335.5t-422 -123.5h-702v25q72 2 109 8t60.5 28.5t29.5 55.5t6 98v1004q0 65 -6 98t-29.5 55.5t-60.5 28.5t-109 8v25h586zM379 55h303
q192 0 305 104t113 279q0 181 -151 285t-435 113l-63 2v30l63 4q332 21 332 256q0 115 -76 182.5t-205 67.5h-186v-1323z" />
    <glyph glyph-name="C" unicode="C" horiz-adv-x="1488" 
d="M1386 1247l-225 -620l-22 8q91 274 82 450t-95 259t-245 83q-142 0 -263.5 -68t-201.5 -178.5t-125 -249t-45 -282.5q0 -141 51 -260.5t135 -198.5t192 -123t224 -44q72 0 140 22.5t132.5 72.5t114.5 122t84 178.5t43 234.5h24v-450q-108 -108 -256 -172t-315 -64
q-156 0 -295.5 59.5t-240 161t-159.5 241.5t-59 296t59 296t159.5 241.5t240 161t295.5 59.5q167 0 315 -64t256 -172z" />
    <glyph glyph-name="C" unicode="c" horiz-adv-x="1488" 
d="M1386 1247l-225 -620l-22 8q91 274 82 450t-95 259t-245 83q-142 0 -263.5 -68t-201.5 -178.5t-125 -249t-45 -282.5q0 -141 51 -260.5t135 -198.5t192 -123t224 -44q72 0 140 22.5t132.5 72.5t114.5 122t84 178.5t43 234.5h24v-450q-108 -108 -256 -172t-315 -64
q-156 0 -295.5 59.5t-240 161t-159.5 241.5t-59 296t59 296t159.5 241.5t240 161t295.5 59.5q167 0 315 -64t256 -172z" />
    <glyph glyph-name="D" unicode="D" horiz-adv-x="1597" 
d="M766 1434q168 0 311 -53t244 -147t158 -227.5t57 -289.5q0 -197 -100.5 -361.5t-277.5 -260t-392 -95.5h-766v25q72 2 109 8t60.5 28.5t29.5 55.5t6 98v1004q0 65 -6 98t-29.5 55.5t-60.5 28.5t-109 8v25h766zM379 55h326q148 0 273 60t208 161.5t129.5 234t46.5 277.5
q0 268 -157.5 429t-420.5 161h-405v-1323z" />
    <glyph glyph-name="D" unicode="d" horiz-adv-x="1597" 
d="M766 1434q168 0 311 -53t244 -147t158 -227.5t57 -289.5q0 -197 -100.5 -361.5t-277.5 -260t-392 -95.5h-766v25q72 2 109 8t60.5 28.5t29.5 55.5t6 98v1004q0 65 -6 98t-29.5 55.5t-60.5 28.5t-109 8v25h766zM379 55h326q148 0 273 60t208 161.5t129.5 234t46.5 277.5
q0 268 -157.5 429t-420.5 161h-405v-1323z" />
    <glyph glyph-name="E" unicode="E" horiz-adv-x="1116" 
d="M0 1434h1010l41 -437l-23 -2q-12 97 -20.5 154t-22 104.5t-26 68.5t-38 36t-51 17.5t-71.5 2.5h-420v-379l518 -16v-25l-518 -20v-883h391q96 0 133 17q62 28 99 137q51 149 108 640q17 146 41 365h25l-89 -1214h-1087v25q72 2 109 8t60.5 28.5t29.5 55.5t6 98v1004
q0 65 -6 98t-29.5 55.5t-60.5 28.5t-109 8v25z" />
    <glyph glyph-name="E" unicode="e" horiz-adv-x="1116" 
d="M0 1434h1010l41 -437l-23 -2q-12 97 -20.5 154t-22 104.5t-26 68.5t-38 36t-51 17.5t-71.5 2.5h-420v-379l518 -16v-25l-518 -20v-883h391q96 0 133 17q62 28 99 137q51 149 108 640q17 146 41 365h25l-89 -1214h-1087v25q72 2 109 8t60.5 28.5t29.5 55.5t6 98v1004
q0 65 -6 98t-29.5 55.5t-60.5 28.5t-109 8v25z" />
    <glyph glyph-name="F" unicode="F" horiz-adv-x="1009" 
d="M0 1434h1075l-395 -994l-21 9q193 518 232 679q38 158 -3 208q-30 37 -131 41q-25 1 -75 1h-303v-385l354 -16v-25l-354 -16v-721q0 -45 3 -71t14.5 -50t30.5 -35t57 -20t86.5 -11.5t125.5 -2.5v-25h-696v25q72 2 109 8t60.5 28.5t29.5 55.5t6 98v1004q0 65 -6 98
t-29.5 55.5t-60.5 28.5t-109 8v25z" />
    <glyph glyph-name="F" unicode="f" horiz-adv-x="1009" 
d="M0 1434h1075l-395 -994l-21 9q193 518 232 679q38 158 -3 208q-30 37 -131 41q-25 1 -75 1h-303v-385l354 -16v-25l-354 -16v-721q0 -45 3 -71t14.5 -50t30.5 -35t57 -20t86.5 -11.5t125.5 -2.5v-25h-696v25q72 2 109 8t60.5 28.5t29.5 55.5t6 98v1004q0 65 -6 98
t-29.5 55.5t-60.5 28.5t-109 8v25z" />
    <glyph glyph-name="G" unicode="G" horiz-adv-x="1550" 
d="M1386 1247l-174 -477l-22 8q95 306 10.5 477.5t-319.5 171.5q-142 0 -263.5 -68t-201.5 -178.5t-125 -249t-45 -282.5q0 -141 51 -260.5t135 -198.5t192 -123t224 -44q219 0 364 145v272q0 53 -1.5 82.5t-13.5 63t-27.5 49t-55 33t-84 23.5t-125.5 12t-169.5 7t-225.5 1
v24h876v-24v-170v-338q-108 -108 -256 -172t-315 -64q-156 0 -295.5 59.5t-240 161t-159.5 241.5t-59 296t59 296t159.5 241.5t240 161t295.5 59.5q167 0 315 -64t256 -172z" />
    <glyph glyph-name="G" unicode="g" horiz-adv-x="1550" 
d="M1386 1247l-174 -477l-22 8q95 306 10.5 477.5t-319.5 171.5q-142 0 -263.5 -68t-201.5 -178.5t-125 -249t-45 -282.5q0 -141 51 -260.5t135 -198.5t192 -123t224 -44q219 0 364 145v272q0 53 -1.5 82.5t-13.5 63t-27.5 49t-55 33t-84 23.5t-125.5 12t-169.5 7t-225.5 1
v24h876v-24v-170v-338q-108 -108 -256 -172t-315 -64q-156 0 -295.5 59.5t-240 161t-159.5 241.5t-59 296t59 296t159.5 241.5t240 161t295.5 59.5q167 0 315 -64t256 -172z" />
    <glyph glyph-name="H" unicode="H" horiz-adv-x="1433" 
d="M737 1434h697v-25q-72 0 -109 -5.5t-60.5 -28t-29.5 -56.5t-6 -100v-1004q0 -65 6 -99t29.5 -56.5t61 -28.5t108.5 -6v-25h-697v25q77 0 125.5 2.5t86.5 11.5t57 20t31 35t15 50t3 71v727h-676v-727q0 -45 3 -71t14.5 -50t30.5 -35t57 -20t86.5 -11.5t125.5 -2.5v-25
h-696v25q72 2 109 8t60.5 28.5t29.5 55.5t6 98v1004q0 65 -6 98t-29.5 55.5t-60.5 28.5t-109 8v25h696v-25q-78 -1 -126 -4t-86 -11.5t-56.5 -19.5t-31 -35t-15 -49.5t-2.5 -70.5v-222h676v222q0 39 -2.5 63t-9 47t-22 35t-36 22.5t-57.5 14.5t-80.5 6t-110.5 2v25z" />
    <glyph glyph-name="H" unicode="h" horiz-adv-x="1433" 
d="M737 1434h697v-25q-72 0 -109 -5.5t-60.5 -28t-29.5 -56.5t-6 -100v-1004q0 -65 6 -99t29.5 -56.5t61 -28.5t108.5 -6v-25h-697v25q77 0 125.5 2.5t86.5 11.5t57 20t31 35t15 50t3 71v727h-676v-727q0 -45 3 -71t14.5 -50t30.5 -35t57 -20t86.5 -11.5t125.5 -2.5v-25
h-696v25q72 2 109 8t60.5 28.5t29.5 55.5t6 98v1004q0 65 -6 98t-29.5 55.5t-60.5 28.5t-109 8v25h696v-25q-78 -1 -126 -4t-86 -11.5t-56.5 -19.5t-31 -35t-15 -49.5t-2.5 -70.5v-222h676v222q0 39 -2.5 63t-9 47t-22 35t-36 22.5t-57.5 14.5t-80.5 6t-110.5 2v25z" />
    <glyph glyph-name="I" unicode="I" horiz-adv-x="583" 
d="M0 1434h584v-25q-72 0 -109 -5.5t-60.5 -28t-29.5 -56.5t-6 -100v-1004q0 -65 6 -98t29.5 -55.5t60.5 -28.5t109 -8v-25h-584v25q72 2 109 8t60.5 28.5t29.5 55.5t6 98v1004q0 66 -6 100t-29.5 56.5t-60.5 28t-109 5.5v25z" />
    <glyph glyph-name="I" unicode="i" horiz-adv-x="583" 
d="M0 1434h584v-25q-72 0 -109 -5.5t-60.5 -28t-29.5 -56.5t-6 -100v-1004q0 -65 6 -98t29.5 -55.5t60.5 -28.5t109 -8v-25h-584v25q72 2 109 8t60.5 28.5t29.5 55.5t6 98v1004q0 66 -6 100t-29.5 56.5t-60.5 28t-109 5.5v25z" />
    <glyph glyph-name="J" unicode="J" horiz-adv-x="624" 
d="M-20 1434h645v-25q-72 0 -109 -5.5t-60.5 -28t-29.5 -56.5t-6 -100v-971q0 -285 -160 -441.5t-485 -175.5v25q253 51 362 193t109 423v947q0 45 -2.5 72t-13 50.5t-26.5 35t-48 20t-72 10.5t-104 2v25z" />
    <glyph glyph-name="J" unicode="j" horiz-adv-x="624" 
d="M-20 1434h645v-25q-72 0 -109 -5.5t-60.5 -28t-29.5 -56.5t-6 -100v-971q0 -285 -160 -441.5t-485 -175.5v25q253 51 362 193t109 423v947q0 45 -2.5 72t-13 50.5t-26.5 35t-48 20t-72 10.5t-104 2v25z" />
    <glyph glyph-name="K" unicode="K" horiz-adv-x="1288" 
d="M0 1434h696v-25q-78 -1 -126 -4t-86 -11.5t-56.5 -19.5t-31 -35t-15 -49.5t-2.5 -70.5v-414l440 414q32 30 53.5 51.5t39 41t23 32.5t8 24t-8 17.5t-24 12t-40.5 7.5t-57.5 3t-75.5 1v25h551v-25q-49 0 -72 -0.5t-56 -8t-49 -16t-52 -34.5t-64 -51.5t-86 -79.5l-159 -148
l313 -676q69 -151 118.5 -237t68.5 -105.5t38 -27.5v-25q-114 -24 -202 58.5t-173 267.5l-290 628l-244 -227v-512q0 -45 3 -71t14.5 -50t30.5 -35t57 -20t86.5 -11.5t125.5 -2.5v-25h-696v25q72 2 109 8t60.5 28.5t29.5 55.5t6 98v1004q0 65 -6 98t-29.5 55.5t-60.5 28.5
t-109 8v25z" />
    <glyph glyph-name="K" unicode="k" horiz-adv-x="1288" 
d="M0 1434h696v-25q-78 -1 -126 -4t-86 -11.5t-56.5 -19.5t-31 -35t-15 -49.5t-2.5 -70.5v-414l440 414q32 30 53.5 51.5t39 41t23 32.5t8 24t-8 17.5t-24 12t-40.5 7.5t-57.5 3t-75.5 1v25h551v-25q-49 0 -72 -0.5t-56 -8t-49 -16t-52 -34.5t-64 -51.5t-86 -79.5l-159 -148
l313 -676q69 -151 118.5 -237t68.5 -105.5t38 -27.5v-25q-114 -24 -202 58.5t-173 267.5l-290 628l-244 -227v-512q0 -45 3 -71t14.5 -50t30.5 -35t57 -20t86.5 -11.5t125.5 -2.5v-25h-696v25q72 2 109 8t60.5 28.5t29.5 55.5t6 98v1004q0 65 -6 98t-29.5 55.5t-60.5 28.5
t-109 8v25z" />
    <glyph glyph-name="L" unicode="L" horiz-adv-x="921" 
d="M0 1434h791v-25q-103 -1 -165.5 -3.5t-112.5 -12t-73.5 -20t-39 -34.5t-18.5 -49.5t-3 -70.5v-1164h283q130 0 172 19q60 28 53 122q-8 120 -146 484q-43 114 -112 287l18 8l408 -975h-1055v25q72 2 109 8t60.5 28.5t29.5 55.5t6 98v1004q0 65 -6 98t-29.5 55.5
t-60.5 28.5t-109 8v25z" />
    <glyph glyph-name="L" unicode="l" horiz-adv-x="921" 
d="M0 1434h791v-25q-103 -1 -165.5 -3.5t-112.5 -12t-73.5 -20t-39 -34.5t-18.5 -49.5t-3 -70.5v-1164h283q130 0 172 19q60 28 53 122q-8 120 -146 484q-43 114 -112 287l18 8l408 -975h-1055v25q72 2 109 8t60.5 28.5t29.5 55.5t6 98v1004q0 65 -6 98t-29.5 55.5
t-60.5 28.5t-109 8v25z" />
    <glyph glyph-name="M" unicode="M" horiz-adv-x="1720" 
d="M86 1626l20 12l773 -1237l727 1241l20 -12q-54 -100 -75 -164.5t-28 -151t-7 -280.5v-819q0 -65 6 -98.5t29 -56.5t60.5 -29t108.5 -6v-25h-843v25q86 0 146.5 1t111.5 6t82.5 10t56 17.5t36.5 24t20 33.5t9.5 43t1.5 55v866l-528 -901h-4l-549 883v-848q0 -34 1.5 -54.5
t10 -42.5t21 -33.5t39 -23.5t59.5 -17t88 -10t118.5 -6.5t156.5 -2.5v-25h-754v25q72 2 109 8t60.5 28.5t29.5 55.5t6 98v815q0 90 -0.5 122.5t-2 93t-6.5 85t-12.5 67t-21 73t-31.5 69.5t-45 86z" />
    <glyph glyph-name="M" unicode="m" horiz-adv-x="1720" 
d="M86 1626l20 12l773 -1237l727 1241l20 -12q-54 -100 -75 -164.5t-28 -151t-7 -280.5v-819q0 -65 6 -98.5t29 -56.5t60.5 -29t108.5 -6v-25h-843v25q86 0 146.5 1t111.5 6t82.5 10t56 17.5t36.5 24t20 33.5t9.5 43t1.5 55v866l-528 -901h-4l-549 883v-848q0 -34 1.5 -54.5
t10 -42.5t21 -33.5t39 -23.5t59.5 -17t88 -10t118.5 -6.5t156.5 -2.5v-25h-754v25q72 2 109 8t60.5 28.5t29.5 55.5t6 98v815q0 90 -0.5 122.5t-2 93t-6.5 85t-12.5 67t-21 73t-31.5 69.5t-45 86z" />
    <glyph glyph-name="N" unicode="N" horiz-adv-x="1454" 
d="M12 1655l17 14l1165 -1366v911q0 34 -1.5 54.5t-10 42.5t-21 33.5t-39 24t-59.5 17.5t-88 10t-118.5 6.5t-156.5 2.5v25h754v-25q-72 -2 -109 -8.5t-60.5 -28.5t-29.5 -55.5t-6 -98.5v-886q0 -62 0.5 -89.5t3 -72t7 -65t14 -56t22.5 -58.5t34.5 -58.5t48 -69.5t63.5 -80
l-17 -15l-1165 1366v-915q0 -34 1.5 -54.5t10 -42.5t21 -33.5t39 -23.5t59.5 -17t88 -10t118.5 -6.5t156.5 -2.5v-25h-754v25q72 2 109 8t60.5 28.5t29.5 55.5t6 98v891q0 62 -0.5 89.5t-3 72t-7 65t-14 56t-22.5 58.5t-34.5 58.5t-48 69.5t-63.5 80z" />
    <glyph glyph-name="N" unicode="n" horiz-adv-x="1454" 
d="M12 1655l17 14l1165 -1366v911q0 34 -1.5 54.5t-10 42.5t-21 33.5t-39 24t-59.5 17.5t-88 10t-118.5 6.5t-156.5 2.5v25h754v-25q-72 -2 -109 -8.5t-60.5 -28.5t-29.5 -55.5t-6 -98.5v-886q0 -62 0.5 -89.5t3 -72t7 -65t14 -56t22.5 -58.5t34.5 -58.5t48 -69.5t63.5 -80
l-17 -15l-1165 1366v-915q0 -34 1.5 -54.5t10 -42.5t21 -33.5t39 -23.5t59.5 -17t88 -10t118.5 -6.5t156.5 -2.5v-25h-754v25q72 2 109 8t60.5 28.5t29.5 55.5t6 98v891q0 62 -0.5 89.5t-3 72t-7 65t-14 56t-22.5 58.5t-34.5 58.5t-48 69.5t-63.5 80z" />
    <glyph glyph-name="O" unicode="O" horiz-adv-x="1638" 
d="M819 -33q-208 0 -382 101t-275 275t-101 382t101 382t275 275t382 101t382 -101t275 -275t101 -382t-101 -382t-275 -275t-382 -101zM246 649q0 -174 65.5 -316.5t183 -224t263.5 -81.5q95 0 182.5 31t156.5 85t125 128t93.5 160t57.5 180.5t20 189.5q0 174 -65.5 316.5
t-183 224t-263.5 81.5q-95 0 -182.5 -31t-156.5 -85t-125 -128t-93.5 -160t-57.5 -180.5t-20 -189.5z" />
    <glyph glyph-name="O" unicode="o" horiz-adv-x="1638" 
d="M819 -33q-208 0 -382 101t-275 275t-101 382t101 382t275 275t382 101t382 -101t275 -275t101 -382t-101 -382t-275 -275t-382 -101zM246 649q0 -174 65.5 -316.5t183 -224t263.5 -81.5q95 0 182.5 31t156.5 85t125 128t93.5 160t57.5 180.5t20 189.5q0 174 -65.5 316.5
t-183 224t-263.5 81.5q-95 0 -182.5 -31t-156.5 -85t-125 -128t-93.5 -160t-57.5 -180.5t-20 -189.5z" />
    <glyph glyph-name="P" unicode="P" horiz-adv-x="1210" 
d="M584 1434q281 0 433 -117.5t152 -335.5q0 -212 -147 -338.5t-391 -126.5q-53 0 -109 6v41h8q212 0 331.5 106.5t119.5 295.5q0 195 -110.5 304t-307.5 109h-184v-1163q0 -45 2.5 -70.5t15 -49t31 -34.5t56.5 -19.5t86 -10.5t126 -2v-29h-696v25q72 2 109 8t60.5 28.5
t29.5 55.5t6 98v1004q0 66 -6 100t-29.5 56.5t-60.5 28t-109 5.5v25h584z" />
    <glyph glyph-name="P" unicode="p" horiz-adv-x="1210" 
d="M584 1434q281 0 433 -117.5t152 -335.5q0 -212 -147 -338.5t-391 -126.5q-53 0 -109 6v41h8q212 0 331.5 106.5t119.5 295.5q0 195 -110.5 304t-307.5 109h-184v-1163q0 -45 2.5 -70.5t15 -49t31 -34.5t56.5 -19.5t86 -10.5t126 -2v-29h-696v25q72 2 109 8t60.5 28.5
t29.5 55.5t6 98v1004q0 66 -6 100t-29.5 56.5t-60.5 28t-109 5.5v25h584z" />
    <glyph glyph-name="Q" unicode="Q" horiz-adv-x="1669" 
d="M1774 -317q-102 -27 -205 -27q-343 0 -498 354q-116 -43 -252 -43q-208 0 -382 101t-275 275t-101 382t101 382t275 275t382 101t382 -101t275 -275t101 -382t-102.5 -382.5t-274.5 -274.5q53 -103 113.5 -172.5t133.5 -108.5t148.5 -56.5t178.5 -23.5v-24zM246 801
q0 -95 20 -189.5t57.5 -180.5t93.5 -160t125 -128t156.5 -85t182.5 -31q105 0 192 41l-469 1157l23 10l532 -1114q109 83 171.5 221.5t62.5 306.5q0 95 -20 189.5t-57.5 180.5t-93.5 160t-125 128t-156.5 85t-182.5 31q-146 0 -263.5 -81.5t-183 -224t-65.5 -316.5z" />
    <glyph glyph-name="Q" unicode="q" horiz-adv-x="1669" 
d="M1774 -317q-102 -27 -205 -27q-343 0 -498 354q-116 -43 -252 -43q-208 0 -382 101t-275 275t-101 382t101 382t275 275t382 101t382 -101t275 -275t101 -382t-102.5 -382.5t-274.5 -274.5q53 -103 113.5 -172.5t133.5 -108.5t148.5 -56.5t178.5 -23.5v-24zM246 801
q0 -95 20 -189.5t57.5 -180.5t93.5 -160t125 -128t156.5 -85t182.5 -31q105 0 192 41l-469 1157l23 10l532 -1114q109 83 171.5 221.5t62.5 306.5q0 95 -20 189.5t-57.5 180.5t-93.5 160t-125 128t-156.5 85t-182.5 31q-146 0 -263.5 -81.5t-183 -224t-65.5 -316.5z" />
    <glyph glyph-name="R" unicode="R" horiz-adv-x="1370" 
d="M633 1434q274 0 425.5 -79t151.5 -227q0 -131 -121 -206.5t-317 -77.5l311 -490q88 -138 146.5 -213.5t86.5 -95.5t54 -20v-25q-72 -13 -136.5 1.5t-116 52.5t-91 82.5t-76.5 103.5l-475 747l17 17q140 -99 274 -99q112 0 188 64.5t76 175.5q0 116 -108.5 174.5
t-309.5 58.5h-233v-1163q0 -45 3 -71t14.5 -50t30.5 -35t57 -20t86.5 -11.5t125.5 -2.5v-25h-696v25q72 2 109 8t60.5 28.5t29.5 55.5t6 98v1004q0 65 -6 98t-29.5 55.5t-60.5 28.5t-109 8v25h633z" />
    <glyph glyph-name="R" unicode="r" horiz-adv-x="1370" 
d="M633 1434q274 0 425.5 -79t151.5 -227q0 -131 -121 -206.5t-317 -77.5l311 -490q88 -138 146.5 -213.5t86.5 -95.5t54 -20v-25q-72 -13 -136.5 1.5t-116 52.5t-91 82.5t-76.5 103.5l-475 747l17 17q140 -99 274 -99q112 0 188 64.5t76 175.5q0 116 -108.5 174.5
t-309.5 58.5h-233v-1163q0 -45 3 -71t14.5 -50t30.5 -35t57 -20t86.5 -11.5t125.5 -2.5v-25h-696v25q72 2 109 8t60.5 28.5t29.5 55.5t6 98v1004q0 65 -6 98t-29.5 55.5t-60.5 28.5t-109 8v25h633z" />
    <glyph glyph-name="S" unicode="S" horiz-adv-x="995" 
d="M795 1421l-7 -657h-24q0 129 -9 232t-22.5 169.5t-35.5 115t-42 73.5t-48 39.5t-47 17.5t-46 4q-94 0 -152.5 -53.5t-58.5 -149.5q0 -65 31 -136t88 -132l278 -301q170 -185 170 -356q0 -137 -104.5 -224.5t-282.5 -87.5q-90 0 -183 27.5t-161 79.5l51 692l25 -2
q-11 -202 5.5 -348.5t43.5 -219.5t73 -115t76.5 -49.5t71.5 -8.5q96 -1 158 60.5t64 156.5q0 134 -129 272l-279 301q-162 176 -162 346q0 131 97.5 217t263.5 86q160 0 297 -49z" />
    <glyph glyph-name="S" unicode="s" horiz-adv-x="995" 
d="M795 1421l-7 -657h-24q0 129 -9 232t-22.5 169.5t-35.5 115t-42 73.5t-48 39.5t-47 17.5t-46 4q-94 0 -152.5 -53.5t-58.5 -149.5q0 -65 31 -136t88 -132l278 -301q170 -185 170 -356q0 -137 -104.5 -224.5t-282.5 -87.5q-90 0 -183 27.5t-161 79.5l51 692l25 -2
q-11 -202 5.5 -348.5t43.5 -219.5t73 -115t76.5 -49.5t71.5 -8.5q96 -1 158 60.5t64 156.5q0 134 -129 272l-279 301q-162 176 -162 346q0 131 97.5 217t263.5 86q160 0 297 -49z" />
    <glyph glyph-name="T" unicode="T" horiz-adv-x="1024" 
d="M39 1434h1028l63 -1104h-24q-58 642 -89 813q-31 167 -80 211q-33 28 -108 30h-26h-162v-1169q0 -35 2 -56t8.5 -44t20 -35.5t36 -24.5t57 -17.5t81.5 -9t112 -3.5h148v-25h-1106v25h150q65 0 112 3.5t81.5 9t57 17.5t36 24.5t20 35.5t8.5 44t2 56v1169h-164
q-83 0 -114 -17q-52 -27 -82 -140q-36 -139 -83 -637q-10 -101 -24 -260h-25z" />
    <glyph glyph-name="T" unicode="t" horiz-adv-x="1024" 
d="M39 1434h1028l63 -1104h-24q-58 642 -89 813q-31 167 -80 211q-33 28 -108 30h-26h-162v-1169q0 -35 2 -56t8.5 -44t20 -35.5t36 -24.5t57 -17.5t81.5 -9t112 -3.5h148v-25h-1106v25h150q65 0 112 3.5t81.5 9t57 17.5t36 24.5t20 35.5t8.5 44t2 56v1169h-164
q-83 0 -114 -17q-52 -27 -82 -140q-36 -139 -83 -637q-10 -101 -24 -260h-25z" />
    <glyph glyph-name="U" unicode="U" horiz-adv-x="1404" 
d="M-20 1434h763v-25q-95 -1 -154 -3.5t-105.5 -12t-68.5 -20t-36.5 -34.5t-17.5 -49.5t-3 -70.5v-678q0 -211 110 -334t298 -123q186 0 295.5 118t109.5 314v703q0 35 -1.5 56.5t-8.5 43t-17 33.5t-31 24t-47 17t-68.5 9.5t-91.5 5.5t-120 1v25h619v-25
q-117 0 -147.5 -32.5t-30.5 -157.5v-674q0 -271 -143 -424.5t-377 -153.5q-235 0 -379 154t-144 424v674q0 43 -2.5 70t-11 50t-21 34.5t-37 20t-54.5 11.5t-78 4v25z" />
    <glyph glyph-name="U" unicode="u" horiz-adv-x="1404" 
d="M-20 1434h763v-25q-95 -1 -154 -3.5t-105.5 -12t-68.5 -20t-36.5 -34.5t-17.5 -49.5t-3 -70.5v-678q0 -211 110 -334t298 -123q186 0 295.5 118t109.5 314v703q0 35 -1.5 56.5t-8.5 43t-17 33.5t-31 24t-47 17t-68.5 9.5t-91.5 5.5t-120 1v25h619v-25
q-117 0 -147.5 -32.5t-30.5 -157.5v-674q0 -271 -143 -424.5t-377 -153.5q-235 0 -379 154t-144 424v674q0 43 -2.5 70t-11 50t-21 34.5t-37 20t-54.5 11.5t-78 4v25z" />
    <glyph glyph-name="V" unicode="V" horiz-adv-x="1187" 
d="M-76 1434h701v-25q-106 0 -170.5 -2t-113 -11t-69.5 -19.5t-28.5 -35t-2 -50t20.5 -72.5l387 -1139l430 1153q31 82 20 111q-14 41 -117 54q-87 11 -316 11v25h639v-25q-63 0 -93 -31t-71 -139l-465 -1239q-39 -10 -77 -41.5t-56 -73.5l-455 1334q-40 122 -70.5 156
t-93.5 34v25z" />
    <glyph glyph-name="V" unicode="v" horiz-adv-x="1187" 
d="M-76 1434h701v-25q-106 0 -170.5 -2t-113 -11t-69.5 -19.5t-28.5 -35t-2 -50t20.5 -72.5l387 -1139l430 1153q31 82 20 111q-14 41 -117 54q-87 11 -316 11v25h639v-25q-63 0 -93 -31t-71 -139l-465 -1239q-39 -10 -77 -41.5t-56 -73.5l-455 1334q-40 122 -70.5 156
t-93.5 34v25z" />
    <glyph glyph-name="W" unicode="W" horiz-adv-x="2045" 
d="M-82 1434h1055v-25h-332q-105 0 -168.5 -2t-112.5 -11t-70 -20t-29 -35t-2 -51t22 -73l395 -1111l414 1450h2l507 -1454l338 1117q33 90 25 122q-12 42 -102 55q-83 13 -330 13h-322v25h983v-21q-48 0 -74 -5.5t-48.5 -28t-36.5 -56.5t-35 -104l-371 -1219
q-13 -41 -42 -130.5t-42 -133.5l-498 1429l-342 -1165q-65 -219 -79 -264l-529 1483q-32 91 -55.5 130.5t-48 51.5t-72.5 12v21z" />
    <glyph glyph-name="W" unicode="w" horiz-adv-x="2045" 
d="M-82 1434h1055v-25h-332q-105 0 -168.5 -2t-112.5 -11t-70 -20t-29 -35t-2 -51t22 -73l395 -1111l414 1450h2l507 -1454l338 1117q33 90 25 122q-12 42 -102 55q-83 13 -330 13h-322v25h983v-21q-48 0 -74 -5.5t-48.5 -28t-36.5 -56.5t-35 -104l-371 -1219
q-13 -41 -42 -130.5t-42 -133.5l-498 1429l-342 -1165q-65 -219 -79 -264l-529 1483q-32 91 -55.5 130.5t-48 51.5t-72.5 12v21z" />
    <glyph glyph-name="X" unicode="X" horiz-adv-x="1316" 
d="M-45 1434h1335v-21q-50 0 -77.5 -5t-60 -29.5t-58 -56.5t-78.5 -105l-291 -408l438 -592q99 -132 139.5 -164.5t112.5 -32.5v-20h-1497v20q41 0 67.5 5t49 14t47.5 35t47.5 54.5t63.5 86.5l368 522l-354 480q-99 132 -139.5 164t-112.5 32v21zM227 168q-47 -67 -36 -93
q15 -37 157 -48q95 -7 297 -7q287 0 349 26q46 19 24 66q-9 21 -35 56l-387 522zM387 1266l303 -410l291 410q49 71 38 97q-16 36 -152 45q-76 5 -222 5q-231 0 -280 -25q-39 -20 -11 -72q11 -20 33 -50z" />
    <glyph glyph-name="X" unicode="x" horiz-adv-x="1316" 
d="M-45 1434h1335v-21q-50 0 -77.5 -5t-60 -29.5t-58 -56.5t-78.5 -105l-291 -408l438 -592q99 -132 139.5 -164.5t112.5 -32.5v-20h-1497v20q41 0 67.5 5t49 14t47.5 35t47.5 54.5t63.5 86.5l368 522l-354 480q-99 132 -139.5 164t-112.5 32v21zM227 168q-47 -67 -36 -93
q15 -37 157 -48q95 -7 297 -7q287 0 349 26q46 19 24 66q-9 21 -35 56l-387 522zM387 1266l303 -410l291 410q49 71 38 97q-16 36 -152 45q-76 5 -222 5q-231 0 -280 -25q-39 -20 -11 -72q11 -20 33 -50z" />
    <glyph glyph-name="Y" unicode="Y" horiz-adv-x="1267" 
d="M150 1217q-50 71 -75.5 102t-62 55.5t-73 29.5t-103.5 5v25h795v-25q-257 0 -313 -22q-44 -18 -25 -63q9 -21 35 -58l379 -539l380 539q49 69 37 96q-15 35 -152 43q-68 4 -192 4v25h652v-25q-46 0 -75.5 -2t-58 -11t-45.5 -19.5t-40.5 -36t-42 -50.5t-50.5 -73
l-360 -510v-512q0 -41 3 -63.5t19.5 -44.5t43.5 -31.5t82.5 -18t128 -10.5t188.5 -2v-25h-1104v25q116 0 188.5 2t128 10.5t82.5 18t43.5 31.5t19.5 44.5t3 63.5v399z" />
    <glyph glyph-name="Y" unicode="y" horiz-adv-x="1267" 
d="M150 1217q-50 71 -75.5 102t-62 55.5t-73 29.5t-103.5 5v25h795v-25q-257 0 -313 -22q-44 -18 -25 -63q9 -21 35 -58l379 -539l380 539q49 69 37 96q-15 35 -152 43q-68 4 -192 4v25h652v-25q-46 0 -75.5 -2t-58 -11t-45.5 -19.5t-40.5 -36t-42 -50.5t-50.5 -73
l-360 -510v-512q0 -41 3 -63.5t19.5 -44.5t43.5 -31.5t82.5 -18t128 -10.5t188.5 -2v-25h-1104v25q116 0 188.5 2t128 10.5t82.5 18t43.5 31.5t19.5 44.5t3 63.5v399z" />
    <glyph glyph-name="Z" unicode="Z" horiz-adv-x="1167" 
d="M113 1434h970l-772 -1379h510q85 0 108 16q37 24 18 121q-18 98 -130 426l25 11l243 -629h-1003l770 1378h-471q-87 0 -111 -16q-37 -24 -19 -120q18 -97 130 -427l-25 -10z" />
    <glyph glyph-name="Z" unicode="z" horiz-adv-x="1167" 
d="M113 1434h970l-772 -1379h510q85 0 108 16q37 24 18 121q-18 98 -130 426l25 11l243 -629h-1003l770 1378h-471q-87 0 -111 -16q-37 -24 -19 -120q18 -97 130 -427l-25 -10z" />
    <glyph glyph-name="bracketleft" unicode="[" horiz-adv-x="716" 
d="M178 1638l416 -102l-4 -25l-238 27v-1642l238 26l4 -24l-416 -103v1843z" />
    <glyph glyph-name="backslash" unicode="\" horiz-adv-x="1105" 
d="M-37 2015l1225 -2568l-23 -10l-1276 2541z" />
    <glyph glyph-name="bracketright" unicode="]" horiz-adv-x="716" 
d="M539 1638v-1843l-416 103l4 24l238 -26v1642l-238 -27l-4 25z" />
    <glyph glyph-name="asciicircum" unicode="^" horiz-adv-x="1228" 
d="M1040 1024l-16 -14l-408 360l-409 -360l-17 14l426 477z" />
    <glyph glyph-name="underscore" unicode="_" horiz-adv-x="1536" 
d="M92 41l1352 31v-82l-1352 30v21z" />
    <glyph glyph-name="braceleft" unicode="{" horiz-adv-x="962" 
d="M803 -190q-231 0 -320 163q-26 49 -42.5 135.5t-23.5 165.5t-23.5 165.5t-43.5 135.5q-32 60 -88.5 91.5t-155.5 46.5v20q99 15 155.5 47t88.5 92q27 49 43.5 135.5t23.5 166t23.5 166t42.5 135.5q89 163 320 163v-24q-84 -24 -141 -133q-33 -61 -50.5 -182t-34.5 -242
t-49 -180q-31 -57 -89.5 -100.5t-102.5 -43.5v-16q44 0 102.5 -44.5t89.5 -101.5q32 -59 49 -180.5t34.5 -242.5t50.5 -181q57 -109 141 -133v-24z" />
    <glyph glyph-name="braceright" unicode="}" horiz-adv-x="962" 
d="M160 -166q84 24 141 133q33 60 50 181t34 242.5t49 180.5q31 57 90 101.5t103 44.5v16q-45 0 -103.5 43.5t-89.5 100.5q-32 59 -49 180l-34 242t-50 182q-57 109 -141 133v24q230 0 319 -163q26 -49 42.5 -135.5t23.5 -166t23.5 -166t43.5 -135.5q32 -60 88.5 -92
t155.5 -47v-20q-99 -15 -155.5 -46.5t-88.5 -91.5q-27 -49 -43.5 -135.5t-23.5 -165.5t-23.5 -165.5t-42.5 -135.5q-89 -163 -319 -163v24z" />
    <glyph glyph-name="asciitilde" unicode="~" horiz-adv-x="997" 
d="M473 674q153 -78 244 -78q99 0 194 88l-12 21q-30 -21 -65 -21q-43 0 -107.5 26.5t-202.5 94.5q-153 78 -243 78q-100 0 -195 -88l12 -21q30 21 66 21q43 0 106.5 -26t202.5 -95z" />
    <glyph glyph-name="section" unicode="&#xa7;" horiz-adv-x="1140" 
d="M915 1432l15 -551h-21q-7 133 -27.5 231t-49 155.5t-69.5 91.5t-80.5 45t-90.5 11q-86 0 -128 -48.5t-42 -133.5q0 -116 137 -244l289 -262q147 -136 147 -285q0 -101 -62.5 -183.5t-158.5 -117.5q127 -127 127 -264q0 -131 -102.5 -225t-249.5 -94q-224 0 -369 90v596
h21q2 -134 25 -243t58.5 -179.5t81 -119t92 -69t93.5 -20.5q77 0 129.5 50.5t52.5 131.5q0 73 -37 144.5t-88 117.5l-284 260q-160 147 -160 301q0 99 67 175.5t172 101.5q-145 142 -145 289q0 122 100.5 204t253.5 82q179 0 303 -38zM328 670q0 -118 137 -246l264 -240
q98 36 98 174q0 74 -37 146.5t-88 118.5l-249 229q-62 -13 -93.5 -61.5t-31.5 -120.5z" />
    <glyph glyph-name="guillemotleft" unicode="&#xab;" horiz-adv-x="1024" 
d="M205 729l315 371l17 -13l-215 -358l215 -358l-17 -13zM473 729l373 512l16 -10l-272 -502l272 -502l-16 -10z" />
    <glyph glyph-name="plusminus" unicode="&#xb1;" horiz-adv-x="942" 
d="M51 850l395 12l-12 234h74l-12 -232l395 13v-74l-397 12l-13 -231h-20l-12 233l-398 12v21zM51 420v20l840 27v-74z" />
    <glyph glyph-name="guillemotright" unicode="&#xbb;" horiz-adv-x="1024" 
d="M862 729l-315 -371l-17 13l215 358l-215 358l17 13zM205 227l272 502l-272 502l16 10l373 -512l-373 -512z" />
    <glyph glyph-name="Agrave" unicode="&#xc0;" horiz-adv-x="1228" 
d="M553 1434q39 10 77 41t56 73l471 -1333q42 -120 74 -155t94 -35v-25h-721v25q82 0 138 1t103.5 5.5t75.5 9.5t48.5 17t28 24t8 33.5t-5 43t-17.5 56.5l-59 168h-707l-63 -168q-18 -47 -24 -72.5t2.5 -50t32 -35t78.5 -19.5t127.5 -11t192.5 -2v-25h-659v25
q64 0 94.5 33.5t79.5 158.5zM238 438h667l-319 912zM426 1872l72 59l250 -364l-19 -15z" />
    <glyph glyph-name="Agrave" unicode="&#xe0;" horiz-adv-x="1228" 
d="M553 1434q39 10 77 41t56 73l471 -1333q42 -120 74 -155t94 -35v-25h-721v25q82 0 138 1t103.5 5.5t75.5 9.5t48.5 17t28 24t8 33.5t-5 43t-17.5 56.5l-59 168h-707l-63 -168q-18 -47 -24 -72.5t2.5 -50t32 -35t78.5 -19.5t127.5 -11t192.5 -2v-25h-659v25
q64 0 94.5 33.5t79.5 158.5zM238 438h667l-319 912zM426 1872l72 59l250 -364l-19 -15z" />
    <glyph glyph-name="Aacute" unicode="&#xc1;" horiz-adv-x="1228" 
d="M553 1434q39 10 77 41t56 73l471 -1333q42 -120 74 -155t94 -35v-25h-721v25q82 0 138 1t103.5 5.5t75.5 9.5t48.5 17t28 24t8 33.5t-5 43t-17.5 56.5l-59 168h-707l-63 -168q-18 -47 -24 -72.5t2.5 -50t32 -35t78.5 -19.5t127.5 -11t192.5 -2v-25h-659v25
q64 0 94.5 33.5t79.5 158.5zM238 438h667l-319 912zM492 1608l249 364l72 -59l-303 -320z" />
    <glyph glyph-name="Aacute" unicode="&#xe1;" horiz-adv-x="1228" 
d="M553 1434q39 10 77 41t56 73l471 -1333q42 -120 74 -155t94 -35v-25h-721v25q82 0 138 1t103.5 5.5t75.5 9.5t48.5 17t28 24t8 33.5t-5 43t-17.5 56.5l-59 168h-707l-63 -168q-18 -47 -24 -72.5t2.5 -50t32 -35t78.5 -19.5t127.5 -11t192.5 -2v-25h-659v25
q64 0 94.5 33.5t79.5 158.5zM238 438h667l-319 912zM492 1608l249 364l72 -59l-303 -320z" />
    <glyph glyph-name="Acircumflex" unicode="&#xc2;" horiz-adv-x="1228" 
d="M553 1434q39 10 77 41t56 73l471 -1333q42 -120 74 -155t94 -35v-25h-721v25q82 0 138 1t103.5 5.5t75.5 9.5t48.5 17t28 24t8 33.5t-5 43t-17.5 56.5l-59 168h-707l-63 -168q-18 -47 -24 -72.5t2.5 -50t32 -35t78.5 -19.5t127.5 -11t192.5 -2v-25h-659v25
q64 0 94.5 33.5t79.5 158.5zM238 438h667l-319 912zM307 1591l311 271l312 -271l-15 -20l-307 155l-286 -155z" />
    <glyph glyph-name="Acircumflex" unicode="&#xe2;" horiz-adv-x="1228" 
d="M553 1434q39 10 77 41t56 73l471 -1333q42 -120 74 -155t94 -35v-25h-721v25q82 0 138 1t103.5 5.5t75.5 9.5t48.5 17t28 24t8 33.5t-5 43t-17.5 56.5l-59 168h-707l-63 -168q-18 -47 -24 -72.5t2.5 -50t32 -35t78.5 -19.5t127.5 -11t192.5 -2v-25h-659v25
q64 0 94.5 33.5t79.5 158.5zM238 438h667l-319 912zM307 1591l311 271l312 -271l-15 -20l-307 155l-286 -155z" />
    <glyph glyph-name="Atilde" unicode="&#xc3;" horiz-adv-x="1228" 
d="M553 1434q39 10 77 41t56 73l471 -1333q42 -120 74 -155t94 -35v-25h-721v25q82 0 138 1t103.5 5.5t75.5 9.5t48.5 17t28 24t8 33.5t-5 43t-17.5 56.5l-59 168h-707l-63 -168q-18 -47 -24 -72.5t2.5 -50t32 -35t78.5 -19.5t127.5 -11t192.5 -2v-25h-659v25
q64 0 94.5 33.5t79.5 158.5zM225 1712q59 170 203 170q87 0 211 -51q7 -3 29.5 -11.5t31 -11.5t28 -10t29 -10t25.5 -7.5t27 -6.5t24 -3.5t25 -1.5q76 0 121 64l22 -12q-59 -170 -202 -170q-87 0 -211 51q-132 50 -180 58q-21 3 -39 3q-77 0 -121 -63zM238 438h667l-319 912
z" />
    <glyph glyph-name="Atilde" unicode="&#xe3;" horiz-adv-x="1228" 
d="M553 1434q39 10 77 41t56 73l471 -1333q42 -120 74 -155t94 -35v-25h-721v25q82 0 138 1t103.5 5.5t75.5 9.5t48.5 17t28 24t8 33.5t-5 43t-17.5 56.5l-59 168h-707l-63 -168q-18 -47 -24 -72.5t2.5 -50t32 -35t78.5 -19.5t127.5 -11t192.5 -2v-25h-659v25
q64 0 94.5 33.5t79.5 158.5zM225 1712q59 170 203 170q87 0 211 -51q7 -3 29.5 -11.5t31 -11.5t28 -10t29 -10t25.5 -7.5t27 -6.5t24 -3.5t25 -1.5q76 0 121 64l22 -12q-59 -170 -202 -170q-87 0 -211 51q-132 50 -180 58q-21 3 -39 3q-77 0 -121 -63zM238 438h667l-319 912
z" />
    <glyph glyph-name="Adieresis" unicode="&#xc4;" horiz-adv-x="1228" 
d="M553 1434q39 10 77 41t56 73l471 -1333q42 -120 74 -155t94 -35v-25h-721v25q82 0 138 1t103.5 5.5t75.5 9.5t48.5 17t28 24t8 33.5t-5 43t-17.5 56.5l-59 168h-707l-63 -168q-18 -47 -24 -72.5t2.5 -50t32 -35t78.5 -19.5t127.5 -11t192.5 -2v-25h-659v25
q64 0 94.5 33.5t79.5 158.5zM238 438h667l-319 912zM352 1741q0 39 26.5 65.5t65.5 26.5q38 0 65.5 -27t27.5 -65q0 -39 -27 -65.5t-66 -26.5q-40 0 -66 26t-26 66zM700 1741q0 37 27 64.5t66 27.5q37 0 64.5 -27.5t27.5 -64.5q0 -39 -27.5 -65.5t-64.5 -26.5
q-40 0 -66.5 26t-26.5 66z" />
    <glyph glyph-name="Adieresis" unicode="&#xe4;" horiz-adv-x="1228" 
d="M553 1434q39 10 77 41t56 73l471 -1333q42 -120 74 -155t94 -35v-25h-721v25q82 0 138 1t103.5 5.5t75.5 9.5t48.5 17t28 24t8 33.5t-5 43t-17.5 56.5l-59 168h-707l-63 -168q-18 -47 -24 -72.5t2.5 -50t32 -35t78.5 -19.5t127.5 -11t192.5 -2v-25h-659v25
q64 0 94.5 33.5t79.5 158.5zM238 438h667l-319 912zM352 1741q0 39 26.5 65.5t65.5 26.5q38 0 65.5 -27t27.5 -65q0 -39 -27 -65.5t-66 -26.5q-40 0 -66 26t-26 66zM700 1741q0 37 27 64.5t66 27.5q37 0 64.5 -27.5t27.5 -64.5q0 -39 -27.5 -65.5t-64.5 -26.5
q-40 0 -66.5 26t-26.5 66z" />
    <glyph glyph-name="Aring" unicode="&#xc5;" horiz-adv-x="1228" 
d="M553 1434q39 10 77 41t56 73l471 -1333q42 -120 74 -155t94 -35v-25h-721v25q82 0 138 1t103.5 5.5t75.5 9.5t48.5 17t28 24t8 33.5t-5 43t-17.5 56.5l-59 168h-707l-63 -168q-18 -47 -24 -72.5t2.5 -50t32 -35t78.5 -19.5t127.5 -11t192.5 -2v-25h-659v25
q64 0 94.5 33.5t79.5 158.5zM238 438h667l-319 912zM465 1780q0 71 46 117.5t118 46.5t118 -46.5t46 -117.5q0 -72 -46 -118t-118 -46t-118 46t-46 118zM545 1765q0 -40 21.5 -67t54.5 -27q40 0 66 39t26 84q0 40 -21.5 67t-54.5 27q-40 0 -66 -39t-26 -84z" />
    <glyph glyph-name="Aring" unicode="&#xe5;" horiz-adv-x="1228" 
d="M553 1434q39 10 77 41t56 73l471 -1333q42 -120 74 -155t94 -35v-25h-721v25q82 0 138 1t103.5 5.5t75.5 9.5t48.5 17t28 24t8 33.5t-5 43t-17.5 56.5l-59 168h-707l-63 -168q-18 -47 -24 -72.5t2.5 -50t32 -35t78.5 -19.5t127.5 -11t192.5 -2v-25h-659v25
q64 0 94.5 33.5t79.5 158.5zM238 438h667l-319 912zM465 1780q0 71 46 117.5t118 46.5t118 -46.5t46 -117.5q0 -72 -46 -118t-118 -46t-118 46t-46 118zM545 1765q0 -40 21.5 -67t54.5 -27q40 0 66 39t26 84q0 40 -21.5 67t-54.5 27q-40 0 -66 -39t-26 -84z" />
    <glyph glyph-name="AE" unicode="&#xc6;" horiz-adv-x="1751" 
d="M803 1434h842l41 -437l-23 -2q-12 97 -20.5 154t-22 104.5t-26 68.5t-38 36t-51 17.5t-71.5 2.5h-420v-379l518 -16v-25l-518 -20v-883h391q106 0 146 17q65 27 102 129q50 139 94 585q16 162 39 428h24l-88 -1214h-1087v25q72 2 109 8t60.5 28.5t29.5 55.5t6 98v168
h-555l-103 -182q-68 -114 -20.5 -145t311.5 -31v-25h-549v25q54 0 85 30t93 140zM315 438h525v936z" />
    <glyph glyph-name="AE" unicode="&#xe6;" horiz-adv-x="1751" 
d="M803 1434h842l41 -437l-23 -2q-12 97 -20.5 154t-22 104.5t-26 68.5t-38 36t-51 17.5t-71.5 2.5h-420v-379l518 -16v-25l-518 -20v-883h391q106 0 146 17q65 27 102 129q50 139 94 585q16 162 39 428h24l-88 -1214h-1087v25q72 2 109 8t60.5 28.5t29.5 55.5t6 98v168
h-555l-103 -182q-68 -114 -20.5 -145t311.5 -31v-25h-549v25q54 0 85 30t93 140zM315 438h525v936z" />
    <glyph glyph-name="Ccedilla" unicode="&#xc7;" horiz-adv-x="1488" 
d="M1386 1247l-225 -620l-22 8q91 274 82 450t-95 259t-245 83q-142 0 -263.5 -68t-201.5 -178.5t-125 -249t-45 -282.5q0 -136 47.5 -253t127.5 -195.5t182.5 -125t213.5 -52.5l2 2l2 -2h27q72 0 140 22.5t132.5 72.5t114.5 122t84 178.5t43 234.5h24v-450
q-106 -106 -250 -169.5t-307 -66.5l-63 -61q88 6 137 -27t49 -86q0 -55 -48 -95t-117.5 -56.5t-143.5 -12.5l6 21q71 7 126.5 38t55.5 83q0 37 -37.5 66.5t-107.5 39.5l2 17l76 75q-196 13 -357 116t-253.5 271.5t-92.5 368.5q0 156 59 296t159.5 241.5t240 161t295.5 59.5
q167 0 315 -64t256 -172z" />
    <glyph glyph-name="Ccedilla" unicode="&#xe7;" horiz-adv-x="1488" 
d="M1386 1247l-225 -620l-22 8q91 274 82 450t-95 259t-245 83q-142 0 -263.5 -68t-201.5 -178.5t-125 -249t-45 -282.5q0 -136 47.5 -253t127.5 -195.5t182.5 -125t213.5 -52.5l2 2l2 -2h27q72 0 140 22.5t132.5 72.5t114.5 122t84 178.5t43 234.5h24v-450
q-106 -106 -250 -169.5t-307 -66.5l-63 -61q88 6 137 -27t49 -86q0 -55 -48 -95t-117.5 -56.5t-143.5 -12.5l6 21q71 7 126.5 38t55.5 83q0 37 -37.5 66.5t-107.5 39.5l2 17l76 75q-196 13 -357 116t-253.5 271.5t-92.5 368.5q0 156 59 296t159.5 241.5t240 161t295.5 59.5
q167 0 315 -64t256 -172z" />
    <glyph glyph-name="Egrave" unicode="&#xc8;" horiz-adv-x="1116" 
d="M0 1434h1010l41 -437l-23 -2q-12 97 -20.5 154t-22 104.5t-26 68.5t-38 36t-51 17.5t-71.5 2.5h-420v-379l518 -16v-25l-518 -20v-883h391q96 0 133 17q62 28 99 137q51 149 108 640q17 146 41 365h25l-89 -1214h-1087v25q72 2 109 8t60.5 28.5t29.5 55.5t6 98v1004
q0 65 -6 98t-29.5 55.5t-60.5 28.5t-109 8v25zM401 1872l72 59l250 -364l-18 -15z" />
    <glyph glyph-name="Egrave" unicode="&#xe8;" horiz-adv-x="1116" 
d="M0 1434h1010l41 -437l-23 -2q-12 97 -20.5 154t-22 104.5t-26 68.5t-38 36t-51 17.5t-71.5 2.5h-420v-379l518 -16v-25l-518 -20v-883h391q96 0 133 17q62 28 99 137q51 149 108 640q17 146 41 365h25l-89 -1214h-1087v25q72 2 109 8t60.5 28.5t29.5 55.5t6 98v1004
q0 65 -6 98t-29.5 55.5t-60.5 28.5t-109 8v25zM401 1872l72 59l250 -364l-18 -15z" />
    <glyph glyph-name="Eacute" unicode="&#xc9;" horiz-adv-x="1116" 
d="M0 1434h1010l41 -437l-23 -2q-12 97 -20.5 154t-22 104.5t-26 68.5t-38 36t-51 17.5t-71.5 2.5h-420v-379l518 -16v-25l-518 -20v-883h391q96 0 133 17q62 28 99 137q51 149 108 640q17 146 41 365h25l-89 -1214h-1087v25q72 2 109 8t60.5 28.5t29.5 55.5t6 98v1004
q0 65 -6 98t-29.5 55.5t-60.5 28.5t-109 8v25zM467 1608l250 364l71 -59l-303 -320z" />
    <glyph glyph-name="Eacute" unicode="&#xe9;" horiz-adv-x="1116" 
d="M0 1434h1010l41 -437l-23 -2q-12 97 -20.5 154t-22 104.5t-26 68.5t-38 36t-51 17.5t-71.5 2.5h-420v-379l518 -16v-25l-518 -20v-883h391q96 0 133 17q62 28 99 137q51 149 108 640q17 146 41 365h25l-89 -1214h-1087v25q72 2 109 8t60.5 28.5t29.5 55.5t6 98v1004
q0 65 -6 98t-29.5 55.5t-60.5 28.5t-109 8v25zM467 1608l250 364l71 -59l-303 -320z" />
    <glyph glyph-name="Ecircumflex" unicode="&#xca;" horiz-adv-x="1116" 
d="M0 1434h1010l41 -437l-23 -2q-12 97 -20.5 154t-22 104.5t-26 68.5t-38 36t-51 17.5t-71.5 2.5h-420v-379l518 -16v-25l-518 -20v-883h391q96 0 133 17q62 28 99 137q51 149 108 640q17 146 41 365h25l-89 -1214h-1087v25q72 2 109 8t60.5 28.5t29.5 55.5t6 98v1004
q0 65 -6 98t-29.5 55.5t-60.5 28.5t-109 8v25zM283 1591l311 271l311 -271l-14 -20l-307 155l-287 -155z" />
    <glyph glyph-name="Ecircumflex" unicode="&#xea;" horiz-adv-x="1116" 
d="M0 1434h1010l41 -437l-23 -2q-12 97 -20.5 154t-22 104.5t-26 68.5t-38 36t-51 17.5t-71.5 2.5h-420v-379l518 -16v-25l-518 -20v-883h391q96 0 133 17q62 28 99 137q51 149 108 640q17 146 41 365h25l-89 -1214h-1087v25q72 2 109 8t60.5 28.5t29.5 55.5t6 98v1004
q0 65 -6 98t-29.5 55.5t-60.5 28.5t-109 8v25zM283 1591l311 271l311 -271l-14 -20l-307 155l-287 -155z" />
    <glyph glyph-name="Edieresis" unicode="&#xcb;" horiz-adv-x="1116" 
d="M0 1434h1010l41 -437l-23 -2q-12 97 -20.5 154t-22 104.5t-26 68.5t-38 36t-51 17.5t-71.5 2.5h-420v-379l518 -16v-25l-518 -20v-883h391q96 0 133 17q62 28 99 137q51 149 108 640q17 146 41 365h25l-89 -1214h-1087v25q72 2 109 8t60.5 28.5t29.5 55.5t6 98v1004
q0 65 -6 98t-29.5 55.5t-60.5 28.5t-109 8v25zM328 1741q0 39 26.5 65.5t65.5 26.5q38 0 65 -27t27 -65q0 -39 -26.5 -65.5t-65.5 -26.5q-40 0 -66 26t-26 66zM676 1741q0 37 26.5 64.5t65.5 27.5q37 0 64.5 -27.5t27.5 -64.5q0 -39 -27.5 -65.5t-64.5 -26.5q-40 0 -66 26
t-26 66z" />
    <glyph glyph-name="Edieresis" unicode="&#xeb;" horiz-adv-x="1116" 
d="M0 1434h1010l41 -437l-23 -2q-12 97 -20.5 154t-22 104.5t-26 68.5t-38 36t-51 17.5t-71.5 2.5h-420v-379l518 -16v-25l-518 -20v-883h391q96 0 133 17q62 28 99 137q51 149 108 640q17 146 41 365h25l-89 -1214h-1087v25q72 2 109 8t60.5 28.5t29.5 55.5t6 98v1004
q0 65 -6 98t-29.5 55.5t-60.5 28.5t-109 8v25zM328 1741q0 39 26.5 65.5t65.5 26.5q38 0 65 -27t27 -65q0 -39 -26.5 -65.5t-65.5 -26.5q-40 0 -66 26t-26 66zM676 1741q0 37 26.5 64.5t65.5 27.5q37 0 64.5 -27.5t27.5 -64.5q0 -39 -27.5 -65.5t-64.5 -26.5q-40 0 -66 26
t-26 66z" />
    <glyph glyph-name="Iacute" unicode="&#xcd;" horiz-adv-x="583" 
d="M0 1434h584v-25q-72 0 -109 -5.5t-60.5 -28t-29.5 -56.5t-6 -100v-1004q0 -65 6 -98t29.5 -55.5t60.5 -28.5t109 -8v-25h-584v25q72 2 109 8t60.5 28.5t29.5 55.5t6 98v1004q0 66 -6 100t-29.5 56.5t-60.5 28t-109 5.5v25zM166 1608l250 364l71 -59l-303 -320z" />
    <glyph glyph-name="Iacute" unicode="&#xed;" horiz-adv-x="583" 
d="M0 1434h584v-25q-72 0 -109 -5.5t-60.5 -28t-29.5 -56.5t-6 -100v-1004q0 -65 6 -98t29.5 -55.5t60.5 -28.5t109 -8v-25h-584v25q72 2 109 8t60.5 28.5t29.5 55.5t6 98v1004q0 66 -6 100t-29.5 56.5t-60.5 28t-109 5.5v25zM166 1608l250 364l71 -59l-303 -320z" />
    <glyph glyph-name="Icircumflex" unicode="&#xce;" horiz-adv-x="583" 
d="M0 1434h584v-25q-72 0 -109 -5.5t-60.5 -28t-29.5 -56.5t-6 -100v-1004q0 -65 6 -98t29.5 -55.5t60.5 -28.5t109 -8v-25h-584v25q72 2 109 8t60.5 28.5t29.5 55.5t6 98v1004q0 66 -6 100t-29.5 56.5t-60.5 28t-109 5.5v25zM-18 1591l311 271l311 -271l-14 -20l-307 155
l-287 -155z" />
    <glyph glyph-name="Icircumflex" unicode="&#xee;" horiz-adv-x="583" 
d="M0 1434h584v-25q-72 0 -109 -5.5t-60.5 -28t-29.5 -56.5t-6 -100v-1004q0 -65 6 -98t29.5 -55.5t60.5 -28.5t109 -8v-25h-584v25q72 2 109 8t60.5 28.5t29.5 55.5t6 98v1004q0 66 -6 100t-29.5 56.5t-60.5 28t-109 5.5v25zM-18 1591l311 271l311 -271l-14 -20l-307 155
l-287 -155z" />
    <glyph glyph-name="Idieresis" unicode="&#xcf;" horiz-adv-x="583" 
d="M0 1434h584v-25q-72 0 -109 -5.5t-60.5 -28t-29.5 -56.5t-6 -100v-1004q0 -65 6 -98t29.5 -55.5t60.5 -28.5t109 -8v-25h-584v25q72 2 109 8t60.5 28.5t29.5 55.5t6 98v1004q0 66 -6 100t-29.5 56.5t-60.5 28t-109 5.5v25zM27 1741q0 39 26.5 65.5t65.5 26.5q38 0 65 -27
t27 -65q0 -39 -26.5 -65.5t-65.5 -26.5q-40 0 -66 26t-26 66zM375 1741q0 37 26.5 64.5t65.5 27.5q37 0 64.5 -27.5t27.5 -64.5q0 -39 -27.5 -65.5t-64.5 -26.5q-40 0 -66 26t-26 66z" />
    <glyph glyph-name="Idieresis" unicode="&#xef;" horiz-adv-x="583" 
d="M0 1434h584v-25q-72 0 -109 -5.5t-60.5 -28t-29.5 -56.5t-6 -100v-1004q0 -65 6 -98t29.5 -55.5t60.5 -28.5t109 -8v-25h-584v25q72 2 109 8t60.5 28.5t29.5 55.5t6 98v1004q0 66 -6 100t-29.5 56.5t-60.5 28t-109 5.5v25zM27 1741q0 39 26.5 65.5t65.5 26.5q38 0 65 -27
t27 -65q0 -39 -26.5 -65.5t-65.5 -26.5q-40 0 -66 26t-26 66zM375 1741q0 37 26.5 64.5t65.5 27.5q37 0 64.5 -27.5t27.5 -64.5q0 -39 -27.5 -65.5t-64.5 -26.5q-40 0 -66 26t-26 66z" />
    <glyph glyph-name="Eth" unicode="&#xd0;" horiz-adv-x="1597" 
d="M766 1434q168 0 311 -53t244 -147t158 -227.5t57 -289.5q0 -197 -100.5 -361.5t-277.5 -260t-392 -95.5h-766v25q72 2 109 8t60.5 28.5t29.5 55.5t6 98v502l-205 -6v73l205 -6v441q0 65 -6 98t-29.5 55.5t-60.5 28.5t-109 8v25h766zM379 55h326q148 0 273 60t208 161.5
t129.5 234t46.5 277.5q0 268 -157.5 429t-420.5 161h-405v-606l399 -14v-21l-399 -14v-668z" />
    <glyph glyph-name="Eth" unicode="&#xf0;" horiz-adv-x="1597" 
d="M766 1434q168 0 311 -53t244 -147t158 -227.5t57 -289.5q0 -197 -100.5 -361.5t-277.5 -260t-392 -95.5h-766v25q72 2 109 8t60.5 28.5t29.5 55.5t6 98v502l-205 -6v73l205 -6v441q0 65 -6 98t-29.5 55.5t-60.5 28.5t-109 8v25h766zM379 55h326q148 0 273 60t208 161.5
t129.5 234t46.5 277.5q0 268 -157.5 429t-420.5 161h-405v-606l399 -14v-21l-399 -14v-668z" />
    <glyph glyph-name="Ntilde" unicode="&#xd1;" horiz-adv-x="1454" 
d="M12 1655l17 14l1165 -1366v911q0 34 -1.5 54.5t-10 42.5t-21 33.5t-39 24t-59.5 17.5t-88 10t-118.5 6.5t-156.5 2.5v25h754v-25q-72 -2 -109 -8.5t-60.5 -28.5t-29.5 -55.5t-6 -98.5v-886q0 -62 0.5 -89.5t3 -72t7 -65t14 -56t22.5 -58.5t34.5 -58.5t48 -69.5t63.5 -80
l-17 -15l-1165 1366v-915q0 -34 1.5 -54.5t10 -42.5t21 -33.5t39 -23.5t59.5 -17t88 -10t118.5 -6.5t156.5 -2.5v-25h-754v25q72 2 109 8t60.5 28.5t29.5 55.5t6 98v891q0 62 -0.5 89.5t-3 72t-7 65t-14 56t-22.5 58.5t-34.5 58.5t-48 69.5t-63.5 80zM373 1710
q59 170 202 170q87 0 211 -51q7 -3 27 -10.5t27 -10t25 -9t26.5 -9t23.5 -7.5t24.5 -7t22 -4.5t23.5 -3.5t21 -1q75 0 120 64l23 -12q-59 -170 -203 -170q-87 0 -211 51q-132 50 -180 58q-21 3 -39 3q-77 0 -121 -63z" />
    <glyph glyph-name="Ntilde" unicode="&#xf1;" horiz-adv-x="1454" 
d="M12 1655l17 14l1165 -1366v911q0 34 -1.5 54.5t-10 42.5t-21 33.5t-39 24t-59.5 17.5t-88 10t-118.5 6.5t-156.5 2.5v25h754v-25q-72 -2 -109 -8.5t-60.5 -28.5t-29.5 -55.5t-6 -98.5v-886q0 -62 0.5 -89.5t3 -72t7 -65t14 -56t22.5 -58.5t34.5 -58.5t48 -69.5t63.5 -80
l-17 -15l-1165 1366v-915q0 -34 1.5 -54.5t10 -42.5t21 -33.5t39 -23.5t59.5 -17t88 -10t118.5 -6.5t156.5 -2.5v-25h-754v25q72 2 109 8t60.5 28.5t29.5 55.5t6 98v891q0 62 -0.5 89.5t-3 72t-7 65t-14 56t-22.5 58.5t-34.5 58.5t-48 69.5t-63.5 80zM373 1710
q59 170 202 170q87 0 211 -51q7 -3 27 -10.5t27 -10t25 -9t26.5 -9t23.5 -7.5t24.5 -7t22 -4.5t23.5 -3.5t21 -1q75 0 120 64l23 -12q-59 -170 -203 -170q-87 0 -211 51q-132 50 -180 58q-21 3 -39 3q-77 0 -121 -63z" />
    <glyph glyph-name="Ograve" unicode="&#xd2;" horiz-adv-x="1638" 
d="M819 -33q-208 0 -382 101t-275 275t-101 382t101 382t275 275t382 101t382 -101t275 -275t101 -382t-101 -382t-275 -275t-382 -101zM246 649q0 -174 65.5 -316.5t183 -224t263.5 -81.5q95 0 182.5 31t156.5 85t125 128t93.5 160t57.5 180.5t20 189.5q0 174 -65.5 316.5
t-183 224t-263.5 81.5q-95 0 -182.5 -31t-156.5 -85t-125 -128t-93.5 -160t-57.5 -180.5t-20 -189.5zM645 1872l72 59l250 -364l-19 -15z" />
    <glyph glyph-name="Ograve" unicode="&#xf2;" horiz-adv-x="1638" 
d="M819 -33q-208 0 -382 101t-275 275t-101 382t101 382t275 275t382 101t382 -101t275 -275t101 -382t-101 -382t-275 -275t-382 -101zM246 649q0 -174 65.5 -316.5t183 -224t263.5 -81.5q95 0 182.5 31t156.5 85t125 128t93.5 160t57.5 180.5t20 189.5q0 174 -65.5 316.5
t-183 224t-263.5 81.5q-95 0 -182.5 -31t-156.5 -85t-125 -128t-93.5 -160t-57.5 -180.5t-20 -189.5zM645 1872l72 59l250 -364l-19 -15z" />
    <glyph glyph-name="Oacute" unicode="&#xd3;" horiz-adv-x="1638" 
d="M819 -33q-208 0 -382 101t-275 275t-101 382t101 382t275 275t382 101t382 -101t275 -275t101 -382t-101 -382t-275 -275t-382 -101zM246 649q0 -174 65.5 -316.5t183 -224t263.5 -81.5q95 0 182.5 31t156.5 85t125 128t93.5 160t57.5 180.5t20 189.5q0 174 -65.5 316.5
t-183 224t-263.5 81.5q-95 0 -182.5 -31t-156.5 -85t-125 -128t-93.5 -160t-57.5 -180.5t-20 -189.5zM711 1608l250 364l71 -59l-303 -320z" />
    <glyph glyph-name="Oacute" unicode="&#xf3;" horiz-adv-x="1638" 
d="M819 -33q-208 0 -382 101t-275 275t-101 382t101 382t275 275t382 101t382 -101t275 -275t101 -382t-101 -382t-275 -275t-382 -101zM246 649q0 -174 65.5 -316.5t183 -224t263.5 -81.5q95 0 182.5 31t156.5 85t125 128t93.5 160t57.5 180.5t20 189.5q0 174 -65.5 316.5
t-183 224t-263.5 81.5q-95 0 -182.5 -31t-156.5 -85t-125 -128t-93.5 -160t-57.5 -180.5t-20 -189.5zM711 1608l250 364l71 -59l-303 -320z" />
    <glyph glyph-name="Ocircumflex" unicode="&#xd4;" horiz-adv-x="1638" 
d="M819 -33q-208 0 -382 101t-275 275t-101 382t101 382t275 275t382 101t382 -101t275 -275t101 -382t-101 -382t-275 -275t-382 -101zM246 649q0 -174 65.5 -316.5t183 -224t263.5 -81.5q95 0 182.5 31t156.5 85t125 128t93.5 160t57.5 180.5t20 189.5q0 174 -65.5 316.5
t-183 224t-263.5 81.5q-95 0 -182.5 -31t-156.5 -85t-125 -128t-93.5 -160t-57.5 -180.5t-20 -189.5zM526 1591l312 271l311 -271l-14 -20l-308 155l-286 -155z" />
    <glyph glyph-name="Ocircumflex" unicode="&#xf4;" horiz-adv-x="1638" 
d="M819 -33q-208 0 -382 101t-275 275t-101 382t101 382t275 275t382 101t382 -101t275 -275t101 -382t-101 -382t-275 -275t-382 -101zM246 649q0 -174 65.5 -316.5t183 -224t263.5 -81.5q95 0 182.5 31t156.5 85t125 128t93.5 160t57.5 180.5t20 189.5q0 174 -65.5 316.5
t-183 224t-263.5 81.5q-95 0 -182.5 -31t-156.5 -85t-125 -128t-93.5 -160t-57.5 -180.5t-20 -189.5zM526 1591l312 271l311 -271l-14 -20l-308 155l-286 -155z" />
    <glyph glyph-name="Otilde" unicode="&#xd5;" horiz-adv-x="1638" 
d="M819 -33q-208 0 -382 101t-275 275t-101 382t101 382t275 275t382 101t382 -101t275 -275t101 -382t-101 -382t-275 -275t-382 -101zM246 649q0 -174 65.5 -316.5t183 -224t263.5 -81.5q95 0 182.5 31t156.5 85t125 128t93.5 160t57.5 180.5t20 189.5q0 174 -65.5 316.5
t-183 224t-263.5 81.5q-95 0 -182.5 -31t-156.5 -85t-125 -128t-93.5 -160t-57.5 -180.5t-20 -189.5zM434 1712q59 170 203 170q87 0 211 -51q7 -3 29.5 -11.5t31 -11.5t28 -10t29 -10t25.5 -7.5t27 -6.5t24 -3.5t25 -1.5q76 0 121 64l22 -12q-59 -170 -202 -170
q-87 0 -211 51q-132 50 -180 58q-21 3 -39 3q-77 0 -121 -63z" />
    <glyph glyph-name="Otilde" unicode="&#xf5;" horiz-adv-x="1638" 
d="M819 -33q-208 0 -382 101t-275 275t-101 382t101 382t275 275t382 101t382 -101t275 -275t101 -382t-101 -382t-275 -275t-382 -101zM246 649q0 -174 65.5 -316.5t183 -224t263.5 -81.5q95 0 182.5 31t156.5 85t125 128t93.5 160t57.5 180.5t20 189.5q0 174 -65.5 316.5
t-183 224t-263.5 81.5q-95 0 -182.5 -31t-156.5 -85t-125 -128t-93.5 -160t-57.5 -180.5t-20 -189.5zM434 1712q59 170 203 170q87 0 211 -51q7 -3 29.5 -11.5t31 -11.5t28 -10t29 -10t25.5 -7.5t27 -6.5t24 -3.5t25 -1.5q76 0 121 64l22 -12q-59 -170 -202 -170
q-87 0 -211 51q-132 50 -180 58q-21 3 -39 3q-77 0 -121 -63z" />
    <glyph glyph-name="Odieresis" unicode="&#xd6;" horiz-adv-x="1638" 
d="M819 -33q-208 0 -382 101t-275 275t-101 382t101 382t275 275t382 101t382 -101t275 -275t101 -382t-101 -382t-275 -275t-382 -101zM246 649q0 -174 65.5 -316.5t183 -224t263.5 -81.5q95 0 182.5 31t156.5 85t125 128t93.5 160t57.5 180.5t20 189.5q0 174 -65.5 316.5
t-183 224t-263.5 81.5q-95 0 -182.5 -31t-156.5 -85t-125 -128t-93.5 -160t-57.5 -180.5t-20 -189.5zM571 1741q0 39 26.5 65.5t66.5 26.5q38 0 65 -27t27 -65q0 -39 -26.5 -65.5t-65.5 -26.5q-40 0 -66.5 26t-26.5 66zM920 1741q0 37 26.5 64.5t65.5 27.5q37 0 64.5 -27.5
t27.5 -64.5q0 -39 -27.5 -65.5t-64.5 -26.5q-40 0 -66 26t-26 66z" />
    <glyph glyph-name="Odieresis" unicode="&#xf6;" horiz-adv-x="1638" 
d="M819 -33q-208 0 -382 101t-275 275t-101 382t101 382t275 275t382 101t382 -101t275 -275t101 -382t-101 -382t-275 -275t-382 -101zM246 649q0 -174 65.5 -316.5t183 -224t263.5 -81.5q95 0 182.5 31t156.5 85t125 128t93.5 160t57.5 180.5t20 189.5q0 174 -65.5 316.5
t-183 224t-263.5 81.5q-95 0 -182.5 -31t-156.5 -85t-125 -128t-93.5 -160t-57.5 -180.5t-20 -189.5zM571 1741q0 39 26.5 65.5t66.5 26.5q38 0 65 -27t27 -65q0 -39 -26.5 -65.5t-65.5 -26.5q-40 0 -66.5 26t-26.5 66zM920 1741q0 37 26.5 64.5t65.5 27.5q37 0 64.5 -27.5
t27.5 -64.5q0 -39 -27.5 -65.5t-64.5 -26.5q-40 0 -66 26t-26 66z" />
    <glyph glyph-name="Oslash" unicode="&#xd8;" horiz-adv-x="1638" 
d="M819 -33q-146 0 -276 51l-293 -581l-23 10l279 586q-200 91 -322.5 277.5t-122.5 414.5q0 208 101 382t275 275t382 101q183 0 340 -80l293 612l74 -37l-305 -608q164 -101 260 -272t96 -373q0 -208 -101 -382t-275 -275t-382 -101zM246 649q0 -189 77 -339t209 -224
l603 1262q-113 75 -254 75q-95 0 -182.5 -31t-156.5 -85t-125 -128t-93.5 -160t-57.5 -180.5t-20 -189.5zM567 68q87 -41 191 -41q95 0 182.5 31t156.5 85t125 128t93.5 160t57.5 180.5t20 189.5q0 156 -54.5 288t-150.5 218z" />
    <glyph glyph-name="Oslash" unicode="&#xf8;" horiz-adv-x="1638" 
d="M819 -33q-146 0 -276 51l-293 -581l-23 10l279 586q-200 91 -322.5 277.5t-122.5 414.5q0 208 101 382t275 275t382 101q183 0 340 -80l293 612l74 -37l-305 -608q164 -101 260 -272t96 -373q0 -208 -101 -382t-275 -275t-382 -101zM246 649q0 -189 77 -339t209 -224
l603 1262q-113 75 -254 75q-95 0 -182.5 -31t-156.5 -85t-125 -128t-93.5 -160t-57.5 -180.5t-20 -189.5zM567 68q87 -41 191 -41q95 0 182.5 31t156.5 85t125 128t93.5 160t57.5 180.5t20 189.5q0 156 -54.5 288t-150.5 218z" />
    <glyph glyph-name="Ugrave" unicode="&#xd9;" horiz-adv-x="1404" 
d="M-20 1434h763v-25q-95 -1 -154 -3.5t-105.5 -12t-68.5 -20t-36.5 -34.5t-17.5 -49.5t-3 -70.5v-678q0 -211 110 -334t298 -123q186 0 295.5 118t109.5 314v703q0 35 -1.5 56.5t-8.5 43t-17 33.5t-31 24t-47 17t-68.5 9.5t-91.5 5.5t-120 1v25h619v-25
q-117 0 -147.5 -32.5t-30.5 -157.5v-674q0 -271 -143 -424.5t-377 -153.5q-235 0 -379 154t-144 424v674q0 43 -2.5 70t-11 50t-21 34.5t-37 20t-54.5 11.5t-78 4v25zM553 1872l72 59l249 -364l-18 -15z" />
    <glyph glyph-name="Ugrave" unicode="&#xf9;" horiz-adv-x="1404" 
d="M-20 1434h763v-25q-95 -1 -154 -3.5t-105.5 -12t-68.5 -20t-36.5 -34.5t-17.5 -49.5t-3 -70.5v-678q0 -211 110 -334t298 -123q186 0 295.5 118t109.5 314v703q0 35 -1.5 56.5t-8.5 43t-17 33.5t-31 24t-47 17t-68.5 9.5t-91.5 5.5t-120 1v25h619v-25
q-117 0 -147.5 -32.5t-30.5 -157.5v-674q0 -271 -143 -424.5t-377 -153.5q-235 0 -379 154t-144 424v674q0 43 -2.5 70t-11 50t-21 34.5t-37 20t-54.5 11.5t-78 4v25zM553 1872l72 59l249 -364l-18 -15z" />
    <glyph glyph-name="Uacute" unicode="&#xda;" horiz-adv-x="1404" 
d="M-20 1434h763v-25q-95 -1 -154 -3.5t-105.5 -12t-68.5 -20t-36.5 -34.5t-17.5 -49.5t-3 -70.5v-678q0 -211 110 -334t298 -123q186 0 295.5 118t109.5 314v703q0 35 -1.5 56.5t-8.5 43t-17 33.5t-31 24t-47 17t-68.5 9.5t-91.5 5.5t-120 1v25h619v-25
q-117 0 -147.5 -32.5t-30.5 -157.5v-674q0 -271 -143 -424.5t-377 -153.5q-235 0 -379 154t-144 424v674q0 43 -2.5 70t-11 50t-21 34.5t-37 20t-54.5 11.5t-78 4v25zM649 1608l250 364l72 -59l-303 -320z" />
    <glyph glyph-name="Uacute" unicode="&#xfa;" horiz-adv-x="1404" 
d="M-20 1434h763v-25q-95 -1 -154 -3.5t-105.5 -12t-68.5 -20t-36.5 -34.5t-17.5 -49.5t-3 -70.5v-678q0 -211 110 -334t298 -123q186 0 295.5 118t109.5 314v703q0 35 -1.5 56.5t-8.5 43t-17 33.5t-31 24t-47 17t-68.5 9.5t-91.5 5.5t-120 1v25h619v-25
q-117 0 -147.5 -32.5t-30.5 -157.5v-674q0 -271 -143 -424.5t-377 -153.5q-235 0 -379 154t-144 424v674q0 43 -2.5 70t-11 50t-21 34.5t-37 20t-54.5 11.5t-78 4v25zM649 1608l250 364l72 -59l-303 -320z" />
    <glyph glyph-name="Ucircumflex" unicode="&#xdb;" horiz-adv-x="1404" 
d="M-20 1434h763v-25q-95 -1 -154 -3.5t-105.5 -12t-68.5 -20t-36.5 -34.5t-17.5 -49.5t-3 -70.5v-678q0 -211 110 -334t298 -123q186 0 295.5 118t109.5 314v703q0 35 -1.5 56.5t-8.5 43t-17 33.5t-31 24t-47 17t-68.5 9.5t-91.5 5.5t-120 1v25h619v-25
q-117 0 -147.5 -32.5t-30.5 -157.5v-674q0 -271 -143 -424.5t-377 -153.5q-235 0 -379 154t-144 424v674q0 43 -2.5 70t-11 50t-21 34.5t-37 20t-54.5 11.5t-78 4v25zM455 1591l311 271l311 -271l-14 -20l-307 155l-287 -155z" />
    <glyph glyph-name="Ucircumflex" unicode="&#xfb;" horiz-adv-x="1404" 
d="M-20 1434h763v-25q-95 -1 -154 -3.5t-105.5 -12t-68.5 -20t-36.5 -34.5t-17.5 -49.5t-3 -70.5v-678q0 -211 110 -334t298 -123q186 0 295.5 118t109.5 314v703q0 35 -1.5 56.5t-8.5 43t-17 33.5t-31 24t-47 17t-68.5 9.5t-91.5 5.5t-120 1v25h619v-25
q-117 0 -147.5 -32.5t-30.5 -157.5v-674q0 -271 -143 -424.5t-377 -153.5q-235 0 -379 154t-144 424v674q0 43 -2.5 70t-11 50t-21 34.5t-37 20t-54.5 11.5t-78 4v25zM455 1591l311 271l311 -271l-14 -20l-307 155l-287 -155z" />
    <glyph glyph-name="Udieresis" unicode="&#xdc;" horiz-adv-x="1404" 
d="M-20 1434h763v-25q-95 -1 -154 -3.5t-105.5 -12t-68.5 -20t-36.5 -34.5t-17.5 -49.5t-3 -70.5v-678q0 -211 110 -334t298 -123q186 0 295.5 118t109.5 314v703q0 35 -1.5 56.5t-8.5 43t-17 33.5t-31 24t-47 17t-68.5 9.5t-91.5 5.5t-120 1v25h619v-25
q-117 0 -147.5 -32.5t-30.5 -157.5v-674q0 -271 -143 -424.5t-377 -153.5q-235 0 -379 154t-144 424v674q0 43 -2.5 70t-11 50t-21 34.5t-37 20t-54.5 11.5t-78 4v25zM500 1741q0 39 26.5 65.5t65.5 26.5q38 0 65 -27t27 -65q0 -39 -26.5 -65.5t-65.5 -26.5q-40 0 -66 26
t-26 66zM848 1741q0 37 26.5 64.5t65.5 27.5q37 0 64.5 -27.5t27.5 -64.5q0 -39 -27.5 -65.5t-64.5 -26.5q-40 0 -66 26t-26 66z" />
    <glyph glyph-name="Udieresis" unicode="&#xfc;" horiz-adv-x="1404" 
d="M-20 1434h763v-25q-95 -1 -154 -3.5t-105.5 -12t-68.5 -20t-36.5 -34.5t-17.5 -49.5t-3 -70.5v-678q0 -211 110 -334t298 -123q186 0 295.5 118t109.5 314v703q0 35 -1.5 56.5t-8.5 43t-17 33.5t-31 24t-47 17t-68.5 9.5t-91.5 5.5t-120 1v25h619v-25
q-117 0 -147.5 -32.5t-30.5 -157.5v-674q0 -271 -143 -424.5t-377 -153.5q-235 0 -379 154t-144 424v674q0 43 -2.5 70t-11 50t-21 34.5t-37 20t-54.5 11.5t-78 4v25zM500 1741q0 39 26.5 65.5t65.5 26.5q38 0 65 -27t27 -65q0 -39 -26.5 -65.5t-65.5 -26.5q-40 0 -66 26
t-26 66zM848 1741q0 37 26.5 64.5t65.5 27.5q37 0 64.5 -27.5t27.5 -64.5q0 -39 -27.5 -65.5t-64.5 -26.5q-40 0 -66 26t-26 66z" />
    <glyph glyph-name="Yacute" unicode="&#xdd;" horiz-adv-x="1267" 
d="M150 1217q-50 71 -75.5 102t-62 55.5t-73 29.5t-103.5 5v25h795v-25q-257 0 -313 -22q-44 -18 -25 -63q9 -21 35 -58l379 -539l380 539q49 69 37 96q-15 35 -152 43q-68 4 -192 4v25h652v-25q-46 0 -75.5 -2t-58 -11t-45.5 -19.5t-40.5 -36t-42 -50.5t-50.5 -73
l-360 -510v-512q0 -41 3 -63.5t19.5 -44.5t43.5 -31.5t82.5 -18t128 -10.5t188.5 -2v-25h-1104v25q116 0 188.5 2t128 10.5t82.5 18t43.5 31.5t19.5 44.5t3 63.5v399zM621 1608l249 364l72 -59l-303 -320z" />
    <glyph glyph-name="Yacute" unicode="&#xfd;" horiz-adv-x="1267" 
d="M150 1217q-50 71 -75.5 102t-62 55.5t-73 29.5t-103.5 5v25h795v-25q-257 0 -313 -22q-44 -18 -25 -63q9 -21 35 -58l379 -539l380 539q49 69 37 96q-15 35 -152 43q-68 4 -192 4v25h652v-25q-46 0 -75.5 -2t-58 -11t-45.5 -19.5t-40.5 -36t-42 -50.5t-50.5 -73
l-360 -510v-512q0 -41 3 -63.5t19.5 -44.5t43.5 -31.5t82.5 -18t128 -10.5t188.5 -2v-25h-1104v25q116 0 188.5 2t128 10.5t82.5 18t43.5 31.5t19.5 44.5t3 63.5v399zM621 1608l249 364l72 -59l-303 -320z" />
    <glyph glyph-name="Thorn" unicode="&#xde;" horiz-adv-x="1251" 
d="M584 1219q281 0 433 -117.5t152 -335.5t-152 -335.5t-433 -117.5h-205v-98q0 -35 1.5 -56t8 -43.5t16.5 -34t30.5 -23.5t46 -17t67.5 -9.5t90 -5.5t119 -1v-25h-758v25q72 0 109.5 5.5t61 28t29 56t5.5 100.5v1004q0 67 -5.5 100.5t-29 56t-61 28t-109.5 5.5v25h758v-25
q-71 0 -119 -1t-90 -5.5t-67.5 -9.5t-46 -17t-30.5 -23.5t-16.5 -34t-8 -43.5t-1.5 -56h205zM379 369h184q196 0 307 106.5t111 290.5t-111 290.5t-307 106.5h-184v-794z" />
    <glyph glyph-name="Thorn" unicode="&#xfe;" horiz-adv-x="1251" 
d="M584 1219q281 0 433 -117.5t152 -335.5t-152 -335.5t-433 -117.5h-205v-98q0 -35 1.5 -56t8 -43.5t16.5 -34t30.5 -23.5t46 -17t67.5 -9.5t90 -5.5t119 -1v-25h-758v25q72 0 109.5 5.5t61 28t29 56t5.5 100.5v1004q0 67 -5.5 100.5t-29 56t-61 28t-109.5 5.5v25h758v-25
q-71 0 -119 -1t-90 -5.5t-67.5 -9.5t-46 -17t-30.5 -23.5t-16.5 -34t-8 -43.5t-1.5 -56h205zM379 369h184q196 0 307 106.5t111 290.5t-111 290.5t-307 106.5h-184v-794z" />
    <glyph glyph-name="uni1E9E" unicode="&#xdf;" horiz-adv-x="1306" 
d="M545 567q24 -207 64.5 -324t104 -167.5t165.5 -52.5q106 0 163.5 63t57.5 162q0 71 -33 148.5t-96 144.5l-426 452l14 19q84 -37 152 -37q95 0 148.5 62.5t53.5 150.5q0 93 -68 161t-192 68q-57 0 -108 -20.5t-93.5 -61.5t-68 -112.5t-25.5 -165.5v-842q0 -100 12 -138.5
t40 -51.5v-25h-430v25q71 0 108.5 6t60.5 29t29 56.5t6 98.5v797q0 97 27 176.5t72 132.5t107 89.5t129 52.5t140 16q204 0 312 -80.5t108 -192.5q0 -90 -65 -162t-191 -100l273 -282q170 -176 170 -363q0 -144 -104.5 -238t-284.5 -94q-91 0 -186 27.5t-163 79.5l-8 493h25
z" />
    <glyph glyph-name="uni1E9E" unicode="&#x1e9e;" horiz-adv-x="1306" 
d="M545 567q24 -207 64.5 -324t104 -167.5t165.5 -52.5q106 0 163.5 63t57.5 162q0 71 -33 148.5t-96 144.5l-426 452l14 19q84 -37 152 -37q95 0 148.5 62.5t53.5 150.5q0 93 -68 161t-192 68q-57 0 -108 -20.5t-93.5 -61.5t-68 -112.5t-25.5 -165.5v-842q0 -100 12 -138.5
t40 -51.5v-25h-430v25q71 0 108.5 6t60.5 29t29 56.5t6 98.5v797q0 97 27 176.5t72 132.5t107 89.5t129 52.5t140 16q204 0 312 -80.5t108 -192.5q0 -90 -65 -162t-191 -100l273 -282q170 -176 170 -363q0 -144 -104.5 -238t-284.5 -94q-91 0 -186 27.5t-163 79.5l-8 493h25
z" />
    <glyph glyph-name="Amacron" unicode="&#x100;" horiz-adv-x="1228" 
d="M553 1434q39 10 77 41t56 73l471 -1333q42 -120 74 -155t94 -35v-25h-721v25q82 0 138 1t103.5 5.5t75.5 9.5t48.5 17t28 24t8 33.5t-5 43t-17.5 56.5l-59 168h-707l-63 -168q-18 -47 -24 -72.5t2.5 -50t32 -35t78.5 -19.5t127.5 -11t192.5 -2v-25h-659v25
q64 0 94.5 33.5t79.5 158.5zM209 1724v21l778 43v-98zM238 438h667l-319 912z" />
    <glyph glyph-name="Amacron" unicode="&#x101;" horiz-adv-x="1228" 
d="M553 1434q39 10 77 41t56 73l471 -1333q42 -120 74 -155t94 -35v-25h-721v25q82 0 138 1t103.5 5.5t75.5 9.5t48.5 17t28 24t8 33.5t-5 43t-17.5 56.5l-59 168h-707l-63 -168q-18 -47 -24 -72.5t2.5 -50t32 -35t78.5 -19.5t127.5 -11t192.5 -2v-25h-659v25
q64 0 94.5 33.5t79.5 158.5zM209 1724v21l778 43v-98zM238 438h667l-319 912z" />
    <glyph glyph-name="Abreve" unicode="&#x102;" horiz-adv-x="1228" 
d="M553 1434q39 10 77 41t56 73l471 -1333q42 -120 74 -155t94 -35v-25h-721v25q82 0 138 1t103.5 5.5t75.5 9.5t48.5 17t28 24t8 33.5t-5 43t-17.5 56.5l-59 168h-707l-63 -168q-18 -47 -24 -72.5t2.5 -50t32 -35t78.5 -19.5t127.5 -11t192.5 -2v-25h-659v25
q64 0 94.5 33.5t79.5 158.5zM238 438h667l-319 912zM324 1868l858 313l8 -22q-180 -66 -310.5 -124.5t-201 -99t-111 -78t-51 -60t-10.5 -46.5q0 -62 37 -90.5t98 -28.5q58 0 113.5 25.5t95 81t39.5 129.5h24q0 -119 -83 -195t-212 -76t-211.5 76t-82.5 195z" />
    <glyph glyph-name="Abreve" unicode="&#x103;" horiz-adv-x="1228" 
d="M553 1434q39 10 77 41t56 73l471 -1333q42 -120 74 -155t94 -35v-25h-721v25q82 0 138 1t103.5 5.5t75.5 9.5t48.5 17t28 24t8 33.5t-5 43t-17.5 56.5l-59 168h-707l-63 -168q-18 -47 -24 -72.5t2.5 -50t32 -35t78.5 -19.5t127.5 -11t192.5 -2v-25h-659v25
q64 0 94.5 33.5t79.5 158.5zM238 438h667l-319 912zM324 1868l858 313l8 -22q-180 -66 -310.5 -124.5t-201 -99t-111 -78t-51 -60t-10.5 -46.5q0 -62 37 -90.5t98 -28.5q58 0 113.5 25.5t95 81t39.5 129.5h24q0 -119 -83 -195t-212 -76t-211.5 76t-82.5 195z" />
    <glyph glyph-name="Aogonek" unicode="&#x104;" horiz-adv-x="1228" 
d="M553 1434q39 10 77 41t56 73l471 -1333q42 -120 74 -155t94 -35v-25h-117q-102 -52 -147 -93.5t-45 -86.5q0 -46 44.5 -77.5t123.5 -31.5q17 0 53 4l4 -20q-112 -60 -203 -60q-70 0 -110.5 35.5t-40.5 89.5q0 64 60.5 127.5t180.5 112.5h-524v25q82 0 138 1t103.5 5.5
t75.5 9.5t48.5 17t28 24t8 33.5t-5 43t-17.5 56.5l-59 168h-707l-63 -168q-18 -47 -24 -72.5t2.5 -50t32 -35t78.5 -19.5t127.5 -11t192.5 -2v-25h-659v25q64 0 94.5 33.5t79.5 158.5zM238 438h667l-319 912z" />
    <glyph glyph-name="Aogonek" unicode="&#x105;" horiz-adv-x="1228" 
d="M553 1434q39 10 77 41t56 73l471 -1333q42 -120 74 -155t94 -35v-25h-117q-102 -52 -147 -93.5t-45 -86.5q0 -46 44.5 -77.5t123.5 -31.5q17 0 53 4l4 -20q-112 -60 -203 -60q-70 0 -110.5 35.5t-40.5 89.5q0 64 60.5 127.5t180.5 112.5h-524v25q82 0 138 1t103.5 5.5
t75.5 9.5t48.5 17t28 24t8 33.5t-5 43t-17.5 56.5l-59 168h-707l-63 -168q-18 -47 -24 -72.5t2.5 -50t32 -35t78.5 -19.5t127.5 -11t192.5 -2v-25h-659v25q64 0 94.5 33.5t79.5 158.5zM238 438h667l-319 912z" />
    <glyph glyph-name="Cacute" unicode="&#x106;" horiz-adv-x="1488" 
d="M1386 1247l-225 -620l-22 8q91 274 82 450t-95 259t-245 83q-142 0 -263.5 -68t-201.5 -178.5t-125 -249t-45 -282.5q0 -141 51 -260.5t135 -198.5t192 -123t224 -44q72 0 140 22.5t132.5 72.5t114.5 122t84 178.5t43 234.5h24v-450q-108 -108 -256 -172t-315 -64
q-156 0 -295.5 59.5t-240 161t-159.5 241.5t-59 296t59 296t159.5 241.5t240 161t295.5 59.5q167 0 315 -64t256 -172zM690 1608l250 364l72 -59l-303 -320z" />
    <glyph glyph-name="Cacute" unicode="&#x107;" horiz-adv-x="1488" 
d="M1386 1247l-225 -620l-22 8q91 274 82 450t-95 259t-245 83q-142 0 -263.5 -68t-201.5 -178.5t-125 -249t-45 -282.5q0 -141 51 -260.5t135 -198.5t192 -123t224 -44q72 0 140 22.5t132.5 72.5t114.5 122t84 178.5t43 234.5h24v-450q-108 -108 -256 -172t-315 -64
q-156 0 -295.5 59.5t-240 161t-159.5 241.5t-59 296t59 296t159.5 241.5t240 161t295.5 59.5q167 0 315 -64t256 -172zM690 1608l250 364l72 -59l-303 -320z" />
    <glyph glyph-name="Cdotaccent" unicode="&#x10a;" horiz-adv-x="1488" 
d="M1386 1247l-225 -620l-22 8q91 274 82 450t-95 259t-245 83q-142 0 -263.5 -68t-201.5 -178.5t-125 -249t-45 -282.5q0 -141 51 -260.5t135 -198.5t192 -123t224 -44q72 0 140 22.5t132.5 72.5t114.5 122t84 178.5t43 234.5h24v-450q-108 -108 -256 -172t-315 -64
q-156 0 -295.5 59.5t-240 161t-159.5 241.5t-59 296t59 296t159.5 241.5t240 161t295.5 59.5q167 0 315 -64t256 -172zM715 1741q0 40 30 71t72 31q41 0 72 -31t31 -71q0 -42 -30.5 -72.5t-72.5 -30.5q-43 0 -72.5 30t-29.5 73z" />
    <glyph glyph-name="Cdotaccent" unicode="&#x10b;" horiz-adv-x="1488" 
d="M1386 1247l-225 -620l-22 8q91 274 82 450t-95 259t-245 83q-142 0 -263.5 -68t-201.5 -178.5t-125 -249t-45 -282.5q0 -141 51 -260.5t135 -198.5t192 -123t224 -44q72 0 140 22.5t132.5 72.5t114.5 122t84 178.5t43 234.5h24v-450q-108 -108 -256 -172t-315 -64
q-156 0 -295.5 59.5t-240 161t-159.5 241.5t-59 296t59 296t159.5 241.5t240 161t295.5 59.5q167 0 315 -64t256 -172zM715 1741q0 40 30 71t72 31q41 0 72 -31t31 -71q0 -42 -30.5 -72.5t-72.5 -30.5q-43 0 -72.5 30t-29.5 73z" />
    <glyph glyph-name="Ccaron" unicode="&#x10c;" horiz-adv-x="1488" 
d="M1386 1247l-225 -620l-22 8q91 274 82 450t-95 259t-245 83q-142 0 -263.5 -68t-201.5 -178.5t-125 -249t-45 -282.5q0 -141 51 -260.5t135 -198.5t192 -123t224 -44q72 0 140 22.5t132.5 72.5t114.5 122t84 178.5t43 234.5h24v-450q-108 -108 -256 -172t-315 -64
q-156 0 -295.5 59.5t-240 161t-159.5 241.5t-59 296t59 296t159.5 241.5t240 161t295.5 59.5q167 0 315 -64t256 -172zM506 1866l14 20l307 -155l287 155l14 -20l-311 -271z" />
    <glyph glyph-name="Ccaron" unicode="&#x10d;" horiz-adv-x="1488" 
d="M1386 1247l-225 -620l-22 8q91 274 82 450t-95 259t-245 83q-142 0 -263.5 -68t-201.5 -178.5t-125 -249t-45 -282.5q0 -141 51 -260.5t135 -198.5t192 -123t224 -44q72 0 140 22.5t132.5 72.5t114.5 122t84 178.5t43 234.5h24v-450q-108 -108 -256 -172t-315 -64
q-156 0 -295.5 59.5t-240 161t-159.5 241.5t-59 296t59 296t159.5 241.5t240 161t295.5 59.5q167 0 315 -64t256 -172zM506 1866l14 20l307 -155l287 155l14 -20l-311 -271z" />
    <glyph glyph-name="Dcaron" unicode="&#x10e;" horiz-adv-x="1597" 
d="M766 1434q168 0 311 -53t244 -147t158 -227.5t57 -289.5q0 -197 -100.5 -361.5t-277.5 -260t-392 -95.5h-766v25q72 2 109 8t60.5 28.5t29.5 55.5t6 98v1004q0 65 -6 98t-29.5 55.5t-60.5 28.5t-109 8v25h766zM379 55h326q148 0 273 60t208 161.5t129.5 234t46.5 277.5
q0 268 -157.5 429t-420.5 161h-405v-1323zM489 1866l15 20l307 -155l287 155l14 -20l-311 -271z" />
    <glyph glyph-name="Dcaron" unicode="&#x10f;" horiz-adv-x="1597" 
d="M766 1434q168 0 311 -53t244 -147t158 -227.5t57 -289.5q0 -197 -100.5 -361.5t-277.5 -260t-392 -95.5h-766v25q72 2 109 8t60.5 28.5t29.5 55.5t6 98v1004q0 65 -6 98t-29.5 55.5t-60.5 28.5t-109 8v25h766zM379 55h326q148 0 273 60t208 161.5t129.5 234t46.5 277.5
q0 268 -157.5 429t-420.5 161h-405v-1323zM489 1866l15 20l307 -155l287 155l14 -20l-311 -271z" />
    <glyph glyph-name="Dcroat" unicode="&#x110;" horiz-adv-x="1597" 
d="M766 1434q168 0 311 -53t244 -147t158 -227.5t57 -289.5q0 -197 -100.5 -361.5t-277.5 -260t-392 -95.5h-766v25q72 2 109 8t60.5 28.5t29.5 55.5t6 98v502l-205 -6v73l205 -6v441q0 65 -6 98t-29.5 55.5t-60.5 28.5t-109 8v25h766zM379 55h326q148 0 273 60t208 161.5
t129.5 234t46.5 277.5q0 268 -157.5 429t-420.5 161h-405v-606l399 -14v-21l-399 -14v-668z" />
    <glyph glyph-name="Dcroat" unicode="&#x111;" horiz-adv-x="1597" 
d="M766 1434q168 0 311 -53t244 -147t158 -227.5t57 -289.5q0 -197 -100.5 -361.5t-277.5 -260t-392 -95.5h-766v25q72 2 109 8t60.5 28.5t29.5 55.5t6 98v502l-205 -6v73l205 -6v441q0 65 -6 98t-29.5 55.5t-60.5 28.5t-109 8v25h766zM379 55h326q148 0 273 60t208 161.5
t129.5 234t46.5 277.5q0 268 -157.5 429t-420.5 161h-405v-606l399 -14v-21l-399 -14v-668z" />
    <glyph glyph-name="Emacron" unicode="&#x112;" horiz-adv-x="1116" 
d="M0 1434h1010l41 -437l-23 -2q-12 97 -20.5 154t-22 104.5t-26 68.5t-38 36t-51 17.5t-71.5 2.5h-420v-379l518 -16v-25l-518 -20v-883h391q96 0 133 17q62 28 99 137q51 149 108 640q17 146 41 365h25l-89 -1214h-1087v25q72 2 109 8t60.5 28.5t29.5 55.5t6 98v1004
q0 65 -6 98t-29.5 55.5t-60.5 28.5t-109 8v25zM184 1724v21l779 43v-98z" />
    <glyph glyph-name="Emacron" unicode="&#x113;" horiz-adv-x="1116" 
d="M0 1434h1010l41 -437l-23 -2q-12 97 -20.5 154t-22 104.5t-26 68.5t-38 36t-51 17.5t-71.5 2.5h-420v-379l518 -16v-25l-518 -20v-883h391q96 0 133 17q62 28 99 137q51 149 108 640q17 146 41 365h25l-89 -1214h-1087v25q72 2 109 8t60.5 28.5t29.5 55.5t6 98v1004
q0 65 -6 98t-29.5 55.5t-60.5 28.5t-109 8v25zM184 1724v21l779 43v-98z" />
    <glyph glyph-name="Edotaccent" unicode="&#x116;" horiz-adv-x="1116" 
d="M0 1434h1010l41 -437l-23 -2q-12 97 -20.5 154t-22 104.5t-26 68.5t-38 36t-51 17.5t-71.5 2.5h-420v-379l518 -16v-25l-518 -20v-883h391q96 0 133 17q62 28 99 137q51 149 108 640q17 146 41 365h25l-89 -1214h-1087v25q72 2 109 8t60.5 28.5t29.5 55.5t6 98v1004
q0 65 -6 98t-29.5 55.5t-60.5 28.5t-109 8v25zM492 1741q0 40 30 71t72 31q41 0 71.5 -31t30.5 -71q0 -43 -30 -73t-72 -30q-43 0 -72.5 30t-29.5 73z" />
    <glyph glyph-name="Edotaccent" unicode="&#x117;" horiz-adv-x="1116" 
d="M0 1434h1010l41 -437l-23 -2q-12 97 -20.5 154t-22 104.5t-26 68.5t-38 36t-51 17.5t-71.5 2.5h-420v-379l518 -16v-25l-518 -20v-883h391q96 0 133 17q62 28 99 137q51 149 108 640q17 146 41 365h25l-89 -1214h-1087v25q72 2 109 8t60.5 28.5t29.5 55.5t6 98v1004
q0 65 -6 98t-29.5 55.5t-60.5 28.5t-109 8v25zM492 1741q0 40 30 71t72 31q41 0 71.5 -31t30.5 -71q0 -43 -30 -73t-72 -30q-43 0 -72.5 30t-29.5 73z" />
    <glyph glyph-name="Eogonek" unicode="&#x118;" horiz-adv-x="1116" 
d="M0 1434h1010l41 -437l-23 -2q-12 97 -20.5 154t-22 104.5t-26 68.5t-38 36t-51 17.5t-71.5 2.5h-420v-379l518 -16v-25l-518 -20v-883h391q96 0 133 17q62 28 99 137q51 149 108 640q17 146 41 365h25l-89 -1214q-102 -52 -147 -93.5t-45 -86.5q0 -46 44.5 -77.5
t123.5 -31.5q17 0 53 4l4 -20q-112 -60 -202 -60q-70 0 -111 35.5t-41 89.5q0 64 61 127.5t181 112.5h-1008v25q72 2 109 8t60.5 28.5t29.5 55.5t6 98v1004q0 65 -6 98t-29.5 55.5t-60.5 28.5t-109 8v25z" />
    <glyph glyph-name="Eogonek" unicode="&#x119;" horiz-adv-x="1116" 
d="M0 1434h1010l41 -437l-23 -2q-12 97 -20.5 154t-22 104.5t-26 68.5t-38 36t-51 17.5t-71.5 2.5h-420v-379l518 -16v-25l-518 -20v-883h391q96 0 133 17q62 28 99 137q51 149 108 640q17 146 41 365h25l-89 -1214q-102 -52 -147 -93.5t-45 -86.5q0 -46 44.5 -77.5
t123.5 -31.5q17 0 53 4l4 -20q-112 -60 -202 -60q-70 0 -111 35.5t-41 89.5q0 64 61 127.5t181 112.5h-1008v25q72 2 109 8t60.5 28.5t29.5 55.5t6 98v1004q0 65 -6 98t-29.5 55.5t-60.5 28.5t-109 8v25z" />
    <glyph glyph-name="Ecaron" unicode="&#x11a;" horiz-adv-x="1116" 
d="M0 1434h1010l41 -437l-23 -2q-12 97 -20.5 154t-22 104.5t-26 68.5t-38 36t-51 17.5t-71.5 2.5h-420v-379l518 -16v-25l-518 -20v-883h391q96 0 133 17q62 28 99 137q51 149 108 640q17 146 41 365h25l-89 -1214h-1087v25q72 2 109 8t60.5 28.5t29.5 55.5t6 98v1004
q0 65 -6 98t-29.5 55.5t-60.5 28.5t-109 8v25zM283 1866l14 20l307 -155l287 155l14 -20l-311 -271z" />
    <glyph glyph-name="Ecaron" unicode="&#x11b;" horiz-adv-x="1116" 
d="M0 1434h1010l41 -437l-23 -2q-12 97 -20.5 154t-22 104.5t-26 68.5t-38 36t-51 17.5t-71.5 2.5h-420v-379l518 -16v-25l-518 -20v-883h391q96 0 133 17q62 28 99 137q51 149 108 640q17 146 41 365h25l-89 -1214h-1087v25q72 2 109 8t60.5 28.5t29.5 55.5t6 98v1004
q0 65 -6 98t-29.5 55.5t-60.5 28.5t-109 8v25zM283 1866l14 20l307 -155l287 155l14 -20l-311 -271z" />
    <glyph glyph-name="Gbreve" unicode="&#x11e;" horiz-adv-x="1550" 
d="M1386 1247l-174 -477l-22 8q95 306 10.5 477.5t-319.5 171.5q-142 0 -263.5 -68t-201.5 -178.5t-125 -249t-45 -282.5q0 -141 51 -260.5t135 -198.5t192 -123t224 -44q219 0 364 145v272q0 53 -1.5 82.5t-13.5 63t-27.5 49t-55 33t-84 23.5t-125.5 12t-169.5 7t-225.5 1
v24h876v-24v-170v-338q-108 -108 -256 -172t-315 -64q-156 0 -295.5 59.5t-240 161t-159.5 241.5t-59 296t59 296t159.5 241.5t240 161t295.5 59.5q167 0 315 -64t256 -172zM532 1868l859 313l8 -22q-180 -66 -310.5 -124.5t-201 -99t-111 -78t-51 -60t-10.5 -46.5
q0 -62 37 -90.5t98 -28.5q58 0 113.5 25.5t95 81t39.5 129.5h24q0 -119 -83 -195t-212 -76t-212 76t-83 195z" />
    <glyph glyph-name="Gbreve" unicode="&#x11f;" horiz-adv-x="1550" 
d="M1386 1247l-174 -477l-22 8q95 306 10.5 477.5t-319.5 171.5q-142 0 -263.5 -68t-201.5 -178.5t-125 -249t-45 -282.5q0 -141 51 -260.5t135 -198.5t192 -123t224 -44q219 0 364 145v272q0 53 -1.5 82.5t-13.5 63t-27.5 49t-55 33t-84 23.5t-125.5 12t-169.5 7t-225.5 1
v24h876v-24v-170v-338q-108 -108 -256 -172t-315 -64q-156 0 -295.5 59.5t-240 161t-159.5 241.5t-59 296t59 296t159.5 241.5t240 161t295.5 59.5q167 0 315 -64t256 -172zM532 1868l859 313l8 -22q-180 -66 -310.5 -124.5t-201 -99t-111 -78t-51 -60t-10.5 -46.5
q0 -62 37 -90.5t98 -28.5q58 0 113.5 25.5t95 81t39.5 129.5h24q0 -119 -83 -195t-212 -76t-212 76t-83 195z" />
    <glyph glyph-name="Gdotaccent" unicode="&#x120;" horiz-adv-x="1550" 
d="M1386 1247l-174 -477l-22 8q95 306 10.5 477.5t-319.5 171.5q-142 0 -263.5 -68t-201.5 -178.5t-125 -249t-45 -282.5q0 -141 51 -260.5t135 -198.5t192 -123t224 -44q219 0 364 145v272q0 53 -1.5 82.5t-13.5 63t-27.5 49t-55 33t-84 23.5t-125.5 12t-169.5 7t-225.5 1
v24h876v-24v-170v-338q-108 -108 -256 -172t-315 -64q-156 0 -295.5 59.5t-240 161t-159.5 241.5t-59 296t59 296t159.5 241.5t240 161t295.5 59.5q167 0 315 -64t256 -172zM725 1741q0 40 30 71t72 31q41 0 72 -31t31 -71q0 -42 -30.5 -72.5t-72.5 -30.5q-43 0 -72.5 30
t-29.5 73z" />
    <glyph glyph-name="Gdotaccent" unicode="&#x121;" horiz-adv-x="1550" 
d="M1386 1247l-174 -477l-22 8q95 306 10.5 477.5t-319.5 171.5q-142 0 -263.5 -68t-201.5 -178.5t-125 -249t-45 -282.5q0 -141 51 -260.5t135 -198.5t192 -123t224 -44q219 0 364 145v272q0 53 -1.5 82.5t-13.5 63t-27.5 49t-55 33t-84 23.5t-125.5 12t-169.5 7t-225.5 1
v24h876v-24v-170v-338q-108 -108 -256 -172t-315 -64q-156 0 -295.5 59.5t-240 161t-159.5 241.5t-59 296t59 296t159.5 241.5t240 161t295.5 59.5q167 0 315 -64t256 -172zM725 1741q0 40 30 71t72 31q41 0 72 -31t31 -71q0 -42 -30.5 -72.5t-72.5 -30.5q-43 0 -72.5 30
t-29.5 73z" />
    <glyph glyph-name="uni0122" unicode="&#x122;" horiz-adv-x="1550" 
d="M1386 1247l-174 -477l-22 8q95 306 10.5 477.5t-319.5 171.5q-142 0 -263.5 -68t-201.5 -178.5t-125 -249t-45 -282.5q0 -141 51 -260.5t135 -198.5t192 -123t224 -44q219 0 364 145v272q0 53 -1.5 82.5t-13.5 63t-27.5 49t-55 33t-84 23.5t-125.5 12t-169.5 7t-225.5 1
v24h876v-24v-170v-338q-108 -108 -256 -172t-315 -64q-156 0 -295.5 59.5t-240 161t-159.5 241.5t-59 296t59 296t159.5 241.5t240 161t295.5 59.5q167 0 315 -64t256 -172zM666 -594q101 175 114 211q15 41 -10 57l-14 7q-27 10 -44.5 33t-17.5 55q0 40 28 68t66 28
q41 0 70 -31.5t29 -83.5q0 -24 -5 -43.5t-23 -51t-35.5 -56.5t-60.5 -87t-79 -116z" />
    <glyph glyph-name="uni0122" unicode="&#x123;" horiz-adv-x="1550" 
d="M1386 1247l-174 -477l-22 8q95 306 10.5 477.5t-319.5 171.5q-142 0 -263.5 -68t-201.5 -178.5t-125 -249t-45 -282.5q0 -141 51 -260.5t135 -198.5t192 -123t224 -44q219 0 364 145v272q0 53 -1.5 82.5t-13.5 63t-27.5 49t-55 33t-84 23.5t-125.5 12t-169.5 7t-225.5 1
v24h876v-24v-170v-338q-108 -108 -256 -172t-315 -64q-156 0 -295.5 59.5t-240 161t-159.5 241.5t-59 296t59 296t159.5 241.5t240 161t295.5 59.5q167 0 315 -64t256 -172zM666 -594q101 175 114 211q15 41 -10 57l-14 7q-27 10 -44.5 33t-17.5 55q0 40 28 68t66 28
q41 0 70 -31.5t29 -83.5q0 -24 -5 -43.5t-23 -51t-35.5 -56.5t-60.5 -87t-79 -116z" />
    <glyph glyph-name="Imacron" unicode="&#x12a;" horiz-adv-x="583" 
d="M0 1434h584v-25q-72 0 -109 -5.5t-60.5 -28t-29.5 -56.5t-6 -100v-1004q0 -65 6 -98t29.5 -55.5t60.5 -28.5t109 -8v-25h-584v25q72 2 109 8t60.5 28.5t29.5 55.5t6 98v1004q0 66 -6 100t-29.5 56.5t-60.5 28t-109 5.5v25zM-117 1724v21l779 43v-98z" />
    <glyph glyph-name="Imacron" unicode="&#x12b;" horiz-adv-x="583" 
d="M0 1434h584v-25q-72 0 -109 -5.5t-60.5 -28t-29.5 -56.5t-6 -100v-1004q0 -65 6 -98t29.5 -55.5t60.5 -28.5t109 -8v-25h-584v25q72 2 109 8t60.5 28.5t29.5 55.5t6 98v1004q0 66 -6 100t-29.5 56.5t-60.5 28t-109 5.5v25zM-117 1724v21l779 43v-98z" />
    <glyph glyph-name="Idotaccent" unicode="&#x130;" horiz-adv-x="583" 
d="M0 1434h584v-25q-72 0 -109 -5.5t-60.5 -28t-29.5 -56.5t-6 -100v-1004q0 -65 6 -98t29.5 -55.5t60.5 -28.5t109 -8v-25h-584v25q72 2 109 8t60.5 28.5t29.5 55.5t6 98v1004q0 66 -6 100t-29.5 56.5t-60.5 28t-109 5.5v25zM190 1741q0 40 30.5 71t72.5 31q41 0 71.5 -31
t30.5 -71q0 -43 -30.5 -73t-71.5 -30q-43 0 -73 30t-30 73z" />
    <glyph glyph-name="IJ" unicode="&#x132;" horiz-adv-x="1208" 
d="M0 1434h1208v-25q-48 0 -78 -2.5t-54.5 -10.5t-37 -19.5t-21 -34.5t-11 -51t-2.5 -72v-971q0 -285 -160.5 -441.5t-485.5 -175.5v25q253 51 362 193t109 423v947q0 45 -2.5 71.5t-12.5 50t-25.5 35t-46 20t-69 11t-98.5 2.5q-45 0 -74 -2.5t-53 -10.5t-36 -20t-20 -35
t-10.5 -50.5t-2.5 -71.5v-1004q0 -65 6 -98t29.5 -55.5t60.5 -28.5t109 -8v-25h-584v25q72 2 109 8t60.5 28.5t29.5 55.5t6 98v1004q0 66 -6 100t-29.5 56.5t-60.5 28t-109 5.5v25z" />
    <glyph glyph-name="IJ" unicode="&#x133;" horiz-adv-x="1208" 
d="M0 1434h1208v-25q-48 0 -78 -2.5t-54.5 -10.5t-37 -19.5t-21 -34.5t-11 -51t-2.5 -72v-971q0 -285 -160.5 -441.5t-485.5 -175.5v25q253 51 362 193t109 423v947q0 45 -2.5 71.5t-12.5 50t-25.5 35t-46 20t-69 11t-98.5 2.5q-45 0 -74 -2.5t-53 -10.5t-36 -20t-20 -35
t-10.5 -50.5t-2.5 -71.5v-1004q0 -65 6 -98t29.5 -55.5t60.5 -28.5t109 -8v-25h-584v25q72 2 109 8t60.5 28.5t29.5 55.5t6 98v1004q0 66 -6 100t-29.5 56.5t-60.5 28t-109 5.5v25z" />
    <glyph glyph-name="uni0136" unicode="&#x136;" horiz-adv-x="1288" 
d="M0 1434h696v-25q-78 -1 -126 -4t-86 -11.5t-56.5 -19.5t-31 -35t-15 -49.5t-2.5 -70.5v-414l440 414q32 30 53.5 51.5t39 41t23 32.5t8 24t-8 17.5t-24 12t-40.5 7.5t-57.5 3t-75.5 1v25h551v-25q-49 0 -72 -0.5t-56 -8t-49 -16t-52 -34.5t-64 -51.5t-86 -79.5l-159 -148
l313 -676q69 -151 118.5 -237t68.5 -105.5t38 -27.5v-25q-114 -24 -202 58.5t-173 267.5l-290 628l-244 -227v-512q0 -45 3 -71t14.5 -50t30.5 -35t57 -20t86.5 -11.5t125.5 -2.5v-25h-696v25q72 2 109 8t60.5 28.5t29.5 55.5t6 98v1004q0 65 -6 98t-29.5 55.5t-60.5 28.5
t-109 8v25zM584 -573q101 175 114 210q15 40 -9 56q-6 4 -15 8q-27 10 -44.5 33t-17.5 55q0 39 28 67.5t67 28.5q41 0 69.5 -31t28.5 -83q0 -24 -5 -43.5t-23.5 -51t-35.5 -57t-60 -87.5t-79 -116z" />
    <glyph glyph-name="uni0136" unicode="&#x137;" horiz-adv-x="1288" 
d="M0 1434h696v-25q-78 -1 -126 -4t-86 -11.5t-56.5 -19.5t-31 -35t-15 -49.5t-2.5 -70.5v-414l440 414q32 30 53.5 51.5t39 41t23 32.5t8 24t-8 17.5t-24 12t-40.5 7.5t-57.5 3t-75.5 1v25h551v-25q-49 0 -72 -0.5t-56 -8t-49 -16t-52 -34.5t-64 -51.5t-86 -79.5l-159 -148
l313 -676q69 -151 118.5 -237t68.5 -105.5t38 -27.5v-25q-114 -24 -202 58.5t-173 267.5l-290 628l-244 -227v-512q0 -45 3 -71t14.5 -50t30.5 -35t57 -20t86.5 -11.5t125.5 -2.5v-25h-696v25q72 2 109 8t60.5 28.5t29.5 55.5t6 98v1004q0 65 -6 98t-29.5 55.5t-60.5 28.5
t-109 8v25zM584 -573q101 175 114 210q15 40 -9 56q-6 4 -15 8q-27 10 -44.5 33t-17.5 55q0 39 28 67.5t67 28.5q41 0 69.5 -31t28.5 -83q0 -24 -5 -43.5t-23.5 -51t-35.5 -57t-60 -87.5t-79 -116z" />
    <glyph glyph-name="Lacute" unicode="&#x139;" horiz-adv-x="921" 
d="M0 1434h791v-25q-103 -1 -165.5 -3.5t-112.5 -12t-73.5 -20t-39 -34.5t-18.5 -49.5t-3 -70.5v-1164h283q130 0 172 19q60 28 53 122q-8 120 -146 484q-43 114 -112 287l18 8l408 -975h-1055v25q72 2 109 8t60.5 28.5t29.5 55.5t6 98v1004q0 65 -6 98t-29.5 55.5
t-60.5 28.5t-109 8v25zM160 1608l250 364l71 -59l-303 -320z" />
    <glyph glyph-name="Lacute" unicode="&#x13a;" horiz-adv-x="921" 
d="M0 1434h791v-25q-103 -1 -165.5 -3.5t-112.5 -12t-73.5 -20t-39 -34.5t-18.5 -49.5t-3 -70.5v-1164h283q130 0 172 19q60 28 53 122q-8 120 -146 484q-43 114 -112 287l18 8l408 -975h-1055v25q72 2 109 8t60.5 28.5t29.5 55.5t6 98v1004q0 65 -6 98t-29.5 55.5
t-60.5 28.5t-109 8v25zM160 1608l250 364l71 -59l-303 -320z" />
    <glyph glyph-name="uni013B" unicode="&#x13b;" horiz-adv-x="921" 
d="M0 1434h791v-25q-103 -1 -165.5 -3.5t-112.5 -12t-73.5 -20t-39 -34.5t-18.5 -49.5t-3 -70.5v-1164h283q130 0 172 19q60 28 53 122q-8 120 -146 484q-43 114 -112 287l18 8l408 -975h-1055v25q72 2 109 8t60.5 28.5t29.5 55.5t6 98v1004q0 65 -6 98t-29.5 55.5
t-60.5 28.5t-109 8v25zM438 -584q101 175 114 211q15 41 -10 57l-14 7q-26 10 -43.5 33t-17.5 55q0 40 28 68t66 28q41 0 69.5 -31.5t28.5 -83.5q0 -24 -5 -43.5t-23 -51t-35 -56.5t-60 -87.5t-79 -115.5z" />
    <glyph glyph-name="uni013B" unicode="&#x13c;" horiz-adv-x="921" 
d="M0 1434h791v-25q-103 -1 -165.5 -3.5t-112.5 -12t-73.5 -20t-39 -34.5t-18.5 -49.5t-3 -70.5v-1164h283q130 0 172 19q60 28 53 122q-8 120 -146 484q-43 114 -112 287l18 8l408 -975h-1055v25q72 2 109 8t60.5 28.5t29.5 55.5t6 98v1004q0 65 -6 98t-29.5 55.5
t-60.5 28.5t-109 8v25zM438 -584q101 175 114 211q15 41 -10 57l-14 7q-26 10 -43.5 33t-17.5 55q0 40 28 68t66 28q41 0 69.5 -31.5t28.5 -83.5q0 -24 -5 -43.5t-23 -51t-35 -56.5t-60 -87.5t-79 -115.5z" />
    <glyph glyph-name="Lcaron" unicode="&#x13d;" horiz-adv-x="1013" 
d="M0 1434h791v-25q-103 -1 -165.5 -3.5t-112.5 -12t-73.5 -20t-39 -34.5t-18.5 -49.5t-3 -70.5v-1164h283q130 0 172 19q60 28 53 122q-8 120 -146 484q-43 114 -112 287l18 8l408 -975h-1055v25q72 2 109 8t60.5 28.5t29.5 55.5t6 98v1004q0 65 -6 98t-29.5 55.5
t-60.5 28.5t-109 8v25zM852 1092l29 481l88 -17l-103 -469z" />
    <glyph glyph-name="Lcaron" unicode="&#x13e;" horiz-adv-x="1013" 
d="M0 1434h791v-25q-103 -1 -165.5 -3.5t-112.5 -12t-73.5 -20t-39 -34.5t-18.5 -49.5t-3 -70.5v-1164h283q130 0 172 19q60 28 53 122q-8 120 -146 484q-43 114 -112 287l18 8l408 -975h-1055v25q72 2 109 8t60.5 28.5t29.5 55.5t6 98v1004q0 65 -6 98t-29.5 55.5
t-60.5 28.5t-109 8v25zM852 1092l29 481l88 -17l-103 -469z" />
    <glyph glyph-name="Lslash" unicode="&#x141;" horiz-adv-x="921" 
d="M0 1434h791v-25q-103 -1 -165.5 -3.5t-112.5 -12t-73.5 -20t-39 -34.5t-18.5 -49.5t-3 -70.5v-336l428 262l37 -64l-197 -106l408 -975h-1055v25q72 2 109 8t60.5 28.5t29.5 55.5t6 98v518l-297 -162l-10 19l307 188v441q0 65 -6 98t-29.5 55.5t-60.5 28.5t-109 8v25z
M379 55h283q130 0 172 19q60 27 53 120q-7 120 -145 481q-43 115 -113 290l-250 -138v-772z" />
    <glyph glyph-name="Lslash" unicode="&#x142;" horiz-adv-x="921" 
d="M0 1434h791v-25q-103 -1 -165.5 -3.5t-112.5 -12t-73.5 -20t-39 -34.5t-18.5 -49.5t-3 -70.5v-336l428 262l37 -64l-197 -106l408 -975h-1055v25q72 2 109 8t60.5 28.5t29.5 55.5t6 98v518l-297 -162l-10 19l307 188v441q0 65 -6 98t-29.5 55.5t-60.5 28.5t-109 8v25z
M379 55h283q130 0 172 19q60 27 53 120q-7 120 -145 481q-43 115 -113 290l-250 -138v-772z" />
    <glyph glyph-name="Nacute" unicode="&#x143;" horiz-adv-x="1454" 
d="M12 1655l17 14l1165 -1366v911q0 34 -1.5 54.5t-10 42.5t-21 33.5t-39 24t-59.5 17.5t-88 10t-118.5 6.5t-156.5 2.5v25h754v-25q-72 -2 -109 -8.5t-60.5 -28.5t-29.5 -55.5t-6 -98.5v-886q0 -62 0.5 -89.5t3 -72t7 -65t14 -56t22.5 -58.5t34.5 -58.5t48 -69.5t63.5 -80
l-17 -15l-1165 1366v-915q0 -34 1.5 -54.5t10 -42.5t21 -33.5t39 -23.5t59.5 -17t88 -10t118.5 -6.5t156.5 -2.5v-25h-754v25q72 2 109 8t60.5 28.5t29.5 55.5t6 98v891q0 62 -0.5 89.5t-3 72t-7 65t-14 56t-22.5 58.5t-34.5 58.5t-48 69.5t-63.5 80zM600 1608l250 364
l72 -59l-304 -320z" />
    <glyph glyph-name="Nacute" unicode="&#x144;" horiz-adv-x="1454" 
d="M12 1655l17 14l1165 -1366v911q0 34 -1.5 54.5t-10 42.5t-21 33.5t-39 24t-59.5 17.5t-88 10t-118.5 6.5t-156.5 2.5v25h754v-25q-72 -2 -109 -8.5t-60.5 -28.5t-29.5 -55.5t-6 -98.5v-886q0 -62 0.5 -89.5t3 -72t7 -65t14 -56t22.5 -58.5t34.5 -58.5t48 -69.5t63.5 -80
l-17 -15l-1165 1366v-915q0 -34 1.5 -54.5t10 -42.5t21 -33.5t39 -23.5t59.5 -17t88 -10t118.5 -6.5t156.5 -2.5v-25h-754v25q72 2 109 8t60.5 28.5t29.5 55.5t6 98v891q0 62 -0.5 89.5t-3 72t-7 65t-14 56t-22.5 58.5t-34.5 58.5t-48 69.5t-63.5 80zM600 1608l250 364
l72 -59l-304 -320z" />
    <glyph glyph-name="uni0145" unicode="&#x145;" horiz-adv-x="1454" 
d="M12 1655l17 14l1165 -1366v911q0 34 -1.5 54.5t-10 42.5t-21 33.5t-39 24t-59.5 17.5t-88 10t-118.5 6.5t-156.5 2.5v25h754v-25q-72 -2 -109 -8.5t-60.5 -28.5t-29.5 -55.5t-6 -98.5v-886q0 -62 0.5 -89.5t3 -72t7 -65t14 -56t22.5 -58.5t34.5 -58.5t48 -69.5t63.5 -80
l-17 -15l-1165 1366v-915q0 -34 1.5 -54.5t10 -42.5t21 -33.5t39 -23.5t59.5 -17t88 -10t118.5 -6.5t156.5 -2.5v-25h-754v25q72 2 109 8t60.5 28.5t29.5 55.5t6 98v891q0 62 -0.5 89.5t-3 72t-7 65t-14 56t-22.5 58.5t-34.5 58.5t-48 69.5t-63.5 80zM594 -594
q101 175 114 211q15 41 -10 57l-14 7q-26 10 -43.5 33t-17.5 55q0 40 28 68t66 28q41 0 69.5 -31.5t28.5 -83.5q0 -24 -5 -43.5t-23 -51t-35.5 -56.5t-60.5 -87t-79 -116z" />
    <glyph glyph-name="uni0145" unicode="&#x146;" horiz-adv-x="1454" 
d="M12 1655l17 14l1165 -1366v911q0 34 -1.5 54.5t-10 42.5t-21 33.5t-39 24t-59.5 17.5t-88 10t-118.5 6.5t-156.5 2.5v25h754v-25q-72 -2 -109 -8.5t-60.5 -28.5t-29.5 -55.5t-6 -98.5v-886q0 -62 0.5 -89.5t3 -72t7 -65t14 -56t22.5 -58.5t34.5 -58.5t48 -69.5t63.5 -80
l-17 -15l-1165 1366v-915q0 -34 1.5 -54.5t10 -42.5t21 -33.5t39 -23.5t59.5 -17t88 -10t118.5 -6.5t156.5 -2.5v-25h-754v25q72 2 109 8t60.5 28.5t29.5 55.5t6 98v891q0 62 -0.5 89.5t-3 72t-7 65t-14 56t-22.5 58.5t-34.5 58.5t-48 69.5t-63.5 80zM594 -594
q101 175 114 211q15 41 -10 57l-14 7q-26 10 -43.5 33t-17.5 55q0 40 28 68t66 28q41 0 69.5 -31.5t28.5 -83.5q0 -24 -5 -43.5t-23 -51t-35.5 -56.5t-60.5 -87t-79 -116z" />
    <glyph glyph-name="Ncaron" unicode="&#x147;" horiz-adv-x="1454" 
d="M12 1655l17 14l1165 -1366v911q0 34 -1.5 54.5t-10 42.5t-21 33.5t-39 24t-59.5 17.5t-88 10t-118.5 6.5t-156.5 2.5v25h754v-25q-72 -2 -109 -8.5t-60.5 -28.5t-29.5 -55.5t-6 -98.5v-886q0 -62 0.5 -89.5t3 -72t7 -65t14 -56t22.5 -58.5t34.5 -58.5t48 -69.5t63.5 -80
l-17 -15l-1165 1366v-915q0 -34 1.5 -54.5t10 -42.5t21 -33.5t39 -23.5t59.5 -17t88 -10t118.5 -6.5t156.5 -2.5v-25h-754v25q72 2 109 8t60.5 28.5t29.5 55.5t6 98v891q0 62 -0.5 89.5t-3 72t-7 65t-14 56t-22.5 58.5t-34.5 58.5t-48 69.5t-63.5 80zM416 1866l14 20
l307 -155l287 155l14 -20l-311 -271z" />
    <glyph glyph-name="Ncaron" unicode="&#x148;" horiz-adv-x="1454" 
d="M12 1655l17 14l1165 -1366v911q0 34 -1.5 54.5t-10 42.5t-21 33.5t-39 24t-59.5 17.5t-88 10t-118.5 6.5t-156.5 2.5v25h754v-25q-72 -2 -109 -8.5t-60.5 -28.5t-29.5 -55.5t-6 -98.5v-886q0 -62 0.5 -89.5t3 -72t7 -65t14 -56t22.5 -58.5t34.5 -58.5t48 -69.5t63.5 -80
l-17 -15l-1165 1366v-915q0 -34 1.5 -54.5t10 -42.5t21 -33.5t39 -23.5t59.5 -17t88 -10t118.5 -6.5t156.5 -2.5v-25h-754v25q72 2 109 8t60.5 28.5t29.5 55.5t6 98v891q0 62 -0.5 89.5t-3 72t-7 65t-14 56t-22.5 58.5t-34.5 58.5t-48 69.5t-63.5 80zM416 1866l14 20
l307 -155l287 155l14 -20l-311 -271z" />
    <glyph glyph-name="Omacron" unicode="&#x14c;" horiz-adv-x="1638" 
d="M819 -33q-208 0 -382 101t-275 275t-101 382t101 382t275 275t382 101t382 -101t275 -275t101 -382t-101 -382t-275 -275t-382 -101zM246 649q0 -174 65.5 -316.5t183 -224t263.5 -81.5q95 0 182.5 31t156.5 85t125 128t93.5 160t57.5 180.5t20 189.5q0 174 -65.5 316.5
t-183 224t-263.5 81.5q-95 0 -182.5 -31t-156.5 -85t-125 -128t-93.5 -160t-57.5 -180.5t-20 -189.5zM428 1724v21l778 43v-98z" />
    <glyph glyph-name="Omacron" unicode="&#x14d;" horiz-adv-x="1638" 
d="M819 -33q-208 0 -382 101t-275 275t-101 382t101 382t275 275t382 101t382 -101t275 -275t101 -382t-101 -382t-275 -275t-382 -101zM246 649q0 -174 65.5 -316.5t183 -224t263.5 -81.5q95 0 182.5 31t156.5 85t125 128t93.5 160t57.5 180.5t20 189.5q0 174 -65.5 316.5
t-183 224t-263.5 81.5q-95 0 -182.5 -31t-156.5 -85t-125 -128t-93.5 -160t-57.5 -180.5t-20 -189.5zM428 1724v21l778 43v-98z" />
    <glyph glyph-name="Ohungarumlaut" unicode="&#x150;" horiz-adv-x="1638" 
d="M819 -33q-208 0 -382 101t-275 275t-101 382t101 382t275 275t382 101t382 -101t275 -275t101 -382t-101 -382t-275 -275t-382 -101zM246 649q0 -174 65.5 -316.5t183 -224t263.5 -81.5q95 0 182.5 31t156.5 85t125 128t93.5 160t57.5 180.5t20 189.5q0 174 -65.5 316.5
t-183 224t-263.5 81.5q-95 0 -182.5 -31t-156.5 -85t-125 -128t-93.5 -160t-57.5 -180.5t-20 -189.5zM694 1657l164 334l78 -52l-223 -297zM897 1667l266 305l72 -59l-322 -260z" />
    <glyph glyph-name="Ohungarumlaut" unicode="&#x151;" horiz-adv-x="1638" 
d="M819 -33q-208 0 -382 101t-275 275t-101 382t101 382t275 275t382 101t382 -101t275 -275t101 -382t-101 -382t-275 -275t-382 -101zM246 649q0 -174 65.5 -316.5t183 -224t263.5 -81.5q95 0 182.5 31t156.5 85t125 128t93.5 160t57.5 180.5t20 189.5q0 174 -65.5 316.5
t-183 224t-263.5 81.5q-95 0 -182.5 -31t-156.5 -85t-125 -128t-93.5 -160t-57.5 -180.5t-20 -189.5zM694 1657l164 334l78 -52l-223 -297zM897 1667l266 305l72 -59l-322 -260z" />
    <glyph glyph-name="OE" unicode="&#x152;" horiz-adv-x="2314" 
d="M819 -33q-208 0 -382 101t-275 275t-101 382t101 382t275 275t382 101q175 0 327 -74.5t257 -204.5v15q0 81 -10 121t-30.5 53.5t-62.5 15.5v25h908l41 -437l-23 -2q-12 97 -20.5 154t-22 104.5t-26 68.5t-38 36t-51 17.5t-71.5 2.5h-420v-379l518 -16v-25l-518 -20v-883
h391q96 0 133 17q62 28 99 137q51 149 108 640q17 146 41 365h25l-88 -1214h-986v25q42 2 62.5 15.5t30.5 53.5t10 121v31q-105 -130 -257 -204.5t-327 -74.5zM246 649q0 -174 65.5 -316.5t183 -224t263.5 -81.5q117 0 222 43.5t183 119t135 174t86 211t29 226.5
q0 174 -68 316.5t-189.5 224t-272.5 81.5q-114 0 -216.5 -43.5t-178 -119t-131 -174t-83.5 -211t-28 -226.5z" />
    <glyph glyph-name="OE" unicode="&#x153;" horiz-adv-x="2314" 
d="M819 -33q-208 0 -382 101t-275 275t-101 382t101 382t275 275t382 101q175 0 327 -74.5t257 -204.5v15q0 81 -10 121t-30.5 53.5t-62.5 15.5v25h908l41 -437l-23 -2q-12 97 -20.5 154t-22 104.5t-26 68.5t-38 36t-51 17.5t-71.5 2.5h-420v-379l518 -16v-25l-518 -20v-883
h391q96 0 133 17q62 28 99 137q51 149 108 640q17 146 41 365h25l-88 -1214h-986v25q42 2 62.5 15.5t30.5 53.5t10 121v31q-105 -130 -257 -204.5t-327 -74.5zM246 649q0 -174 65.5 -316.5t183 -224t263.5 -81.5q117 0 222 43.5t183 119t135 174t86 211t29 226.5
q0 174 -68 316.5t-189.5 224t-272.5 81.5q-114 0 -216.5 -43.5t-178 -119t-131 -174t-83.5 -211t-28 -226.5z" />
    <glyph glyph-name="Racute" unicode="&#x154;" horiz-adv-x="1370" 
d="M633 1434q274 0 425.5 -79t151.5 -227q0 -131 -121 -206.5t-317 -77.5l311 -490q88 -138 146.5 -213.5t86.5 -95.5t54 -20v-25q-72 -13 -136.5 1.5t-116 52.5t-91 82.5t-76.5 103.5l-475 747l17 17q140 -99 274 -99q112 0 188 64.5t76 175.5q0 116 -108.5 174.5
t-309.5 58.5h-233v-1163q0 -45 3 -71t14.5 -50t30.5 -35t57 -20t86.5 -11.5t125.5 -2.5v-25h-696v25q72 2 109 8t60.5 28.5t29.5 55.5t6 98v1004q0 65 -6 98t-29.5 55.5t-60.5 28.5t-109 8v25h633zM559 1608l250 364l72 -59l-303 -320z" />
    <glyph glyph-name="Racute" unicode="&#x155;" horiz-adv-x="1370" 
d="M633 1434q274 0 425.5 -79t151.5 -227q0 -131 -121 -206.5t-317 -77.5l311 -490q88 -138 146.5 -213.5t86.5 -95.5t54 -20v-25q-72 -13 -136.5 1.5t-116 52.5t-91 82.5t-76.5 103.5l-475 747l17 17q140 -99 274 -99q112 0 188 64.5t76 175.5q0 116 -108.5 174.5
t-309.5 58.5h-233v-1163q0 -45 3 -71t14.5 -50t30.5 -35t57 -20t86.5 -11.5t125.5 -2.5v-25h-696v25q72 2 109 8t60.5 28.5t29.5 55.5t6 98v1004q0 65 -6 98t-29.5 55.5t-60.5 28.5t-109 8v25h633zM559 1608l250 364l72 -59l-303 -320z" />
    <glyph glyph-name="uni0156" unicode="&#x156;" horiz-adv-x="1370" 
d="M633 1434q274 0 425.5 -79t151.5 -227q0 -131 -121 -206.5t-317 -77.5l311 -490q88 -138 146.5 -213.5t86.5 -95.5t54 -20v-25q-72 -13 -136.5 1.5t-116 52.5t-91 82.5t-76.5 103.5l-475 747l17 17q140 -99 274 -99q112 0 188 64.5t76 175.5q0 116 -108.5 174.5
t-309.5 58.5h-233v-1163q0 -45 3 -71t14.5 -50t30.5 -35t57 -20t86.5 -11.5t125.5 -2.5v-25h-696v25q72 2 109 8t60.5 28.5t29.5 55.5t6 98v1004q0 65 -6 98t-29.5 55.5t-60.5 28.5t-109 8v25h633zM584 -573q101 175 114 210q15 40 -9 56q-6 4 -15 8q-27 10 -44.5 33
t-17.5 55q0 39 28 67.5t67 28.5q41 0 69.5 -31t28.5 -83q0 -24 -5 -43.5t-23.5 -51t-35.5 -57t-60 -87.5t-79 -116z" />
    <glyph glyph-name="uni0156" unicode="&#x157;" horiz-adv-x="1370" 
d="M633 1434q274 0 425.5 -79t151.5 -227q0 -131 -121 -206.5t-317 -77.5l311 -490q88 -138 146.5 -213.5t86.5 -95.5t54 -20v-25q-72 -13 -136.5 1.5t-116 52.5t-91 82.5t-76.5 103.5l-475 747l17 17q140 -99 274 -99q112 0 188 64.5t76 175.5q0 116 -108.5 174.5
t-309.5 58.5h-233v-1163q0 -45 3 -71t14.5 -50t30.5 -35t57 -20t86.5 -11.5t125.5 -2.5v-25h-696v25q72 2 109 8t60.5 28.5t29.5 55.5t6 98v1004q0 65 -6 98t-29.5 55.5t-60.5 28.5t-109 8v25h633zM584 -573q101 175 114 210q15 40 -9 56q-6 4 -15 8q-27 10 -44.5 33
t-17.5 55q0 39 28 67.5t67 28.5q41 0 69.5 -31t28.5 -83q0 -24 -5 -43.5t-23.5 -51t-35.5 -57t-60 -87.5t-79 -116z" />
    <glyph glyph-name="Rcaron" unicode="&#x158;" horiz-adv-x="1370" 
d="M633 1434q274 0 425.5 -79t151.5 -227q0 -131 -121 -206.5t-317 -77.5l311 -490q88 -138 146.5 -213.5t86.5 -95.5t54 -20v-25q-72 -13 -136.5 1.5t-116 52.5t-91 82.5t-76.5 103.5l-475 747l17 17q140 -99 274 -99q112 0 188 64.5t76 175.5q0 116 -108.5 174.5
t-309.5 58.5h-233v-1163q0 -45 3 -71t14.5 -50t30.5 -35t57 -20t86.5 -11.5t125.5 -2.5v-25h-696v25q72 2 109 8t60.5 28.5t29.5 55.5t6 98v1004q0 65 -6 98t-29.5 55.5t-60.5 28.5t-109 8v25h633zM375 1866l14 20l307 -155l287 155l14 -20l-311 -271z" />
    <glyph glyph-name="Rcaron" unicode="&#x159;" horiz-adv-x="1370" 
d="M633 1434q274 0 425.5 -79t151.5 -227q0 -131 -121 -206.5t-317 -77.5l311 -490q88 -138 146.5 -213.5t86.5 -95.5t54 -20v-25q-72 -13 -136.5 1.5t-116 52.5t-91 82.5t-76.5 103.5l-475 747l17 17q140 -99 274 -99q112 0 188 64.5t76 175.5q0 116 -108.5 174.5
t-309.5 58.5h-233v-1163q0 -45 3 -71t14.5 -50t30.5 -35t57 -20t86.5 -11.5t125.5 -2.5v-25h-696v25q72 2 109 8t60.5 28.5t29.5 55.5t6 98v1004q0 65 -6 98t-29.5 55.5t-60.5 28.5t-109 8v25h633zM375 1866l14 20l307 -155l287 155l14 -20l-311 -271z" />
    <glyph glyph-name="Sacute" unicode="&#x15a;" horiz-adv-x="995" 
d="M795 1421l-7 -657h-24q0 129 -9 232t-22.5 169.5t-35.5 115t-42 73.5t-48 39.5t-47 17.5t-46 4q-94 0 -152.5 -53.5t-58.5 -149.5q0 -65 31 -136t88 -132l278 -301q170 -185 170 -356q0 -137 -104.5 -224.5t-282.5 -87.5q-90 0 -183 27.5t-161 79.5l51 692l25 -2
q-11 -202 5.5 -348.5t43.5 -219.5t73 -115t76.5 -49.5t71.5 -8.5q96 -1 158 60.5t64 156.5q0 134 -129 272l-279 301q-162 176 -162 346q0 131 97.5 217t263.5 86q160 0 297 -49zM375 1608l250 364l71 -59l-303 -320z" />
    <glyph glyph-name="Sacute" unicode="&#x15b;" horiz-adv-x="995" 
d="M795 1421l-7 -657h-24q0 129 -9 232t-22.5 169.5t-35.5 115t-42 73.5t-48 39.5t-47 17.5t-46 4q-94 0 -152.5 -53.5t-58.5 -149.5q0 -65 31 -136t88 -132l278 -301q170 -185 170 -356q0 -137 -104.5 -224.5t-282.5 -87.5q-90 0 -183 27.5t-161 79.5l51 692l25 -2
q-11 -202 5.5 -348.5t43.5 -219.5t73 -115t76.5 -49.5t71.5 -8.5q96 -1 158 60.5t64 156.5q0 134 -129 272l-279 301q-162 176 -162 346q0 131 97.5 217t263.5 86q160 0 297 -49zM375 1608l250 364l71 -59l-303 -320z" />
    <glyph glyph-name="Scedilla" unicode="&#x15e;" horiz-adv-x="995" 
d="M795 1421l-7 -657h-24q0 129 -9 232t-22.5 169.5t-35.5 115t-42 73.5t-48 39.5t-47 17.5t-46 4q-94 0 -152.5 -53.5t-58.5 -149.5q0 -65 31 -136t88 -132l278 -301q170 -185 170 -356q0 -124 -87 -208t-238 -99l-74 -74q88 6 137 -27t49 -86q0 -55 -48 -95t-117.5 -56.5
t-143.5 -12.5l6 21q71 7 127 38t56 83q0 37 -38 66.5t-108 39.5l2 17l82 81q-89 2 -179.5 29.5t-156.5 77.5l51 692l25 -2q-11 -202 5.5 -348.5t43.5 -219.5t73 -115t76.5 -49.5t71.5 -8.5q96 -1 158 60.5t64 156.5q0 134 -129 272l-279 301q-162 176 -162 346
q0 131 97.5 217t263.5 86q160 0 297 -49z" />
    <glyph glyph-name="Scedilla" unicode="&#x15f;" horiz-adv-x="995" 
d="M795 1421l-7 -657h-24q0 129 -9 232t-22.5 169.5t-35.5 115t-42 73.5t-48 39.5t-47 17.5t-46 4q-94 0 -152.5 -53.5t-58.5 -149.5q0 -65 31 -136t88 -132l278 -301q170 -185 170 -356q0 -124 -87 -208t-238 -99l-74 -74q88 6 137 -27t49 -86q0 -55 -48 -95t-117.5 -56.5
t-143.5 -12.5l6 21q71 7 127 38t56 83q0 37 -38 66.5t-108 39.5l2 17l82 81q-89 2 -179.5 29.5t-156.5 77.5l51 692l25 -2q-11 -202 5.5 -348.5t43.5 -219.5t73 -115t76.5 -49.5t71.5 -8.5q96 -1 158 60.5t64 156.5q0 134 -129 272l-279 301q-162 176 -162 346
q0 131 97.5 217t263.5 86q160 0 297 -49z" />
    <glyph glyph-name="Scaron" unicode="&#x160;" horiz-adv-x="995" 
d="M795 1421l-7 -657h-24q0 129 -9 232t-22.5 169.5t-35.5 115t-42 73.5t-48 39.5t-47 17.5t-46 4q-94 0 -152.5 -53.5t-58.5 -149.5q0 -65 31 -136t88 -132l278 -301q170 -185 170 -356q0 -137 -104.5 -224.5t-282.5 -87.5q-90 0 -183 27.5t-161 79.5l51 692l25 -2
q-11 -202 5.5 -348.5t43.5 -219.5t73 -115t76.5 -49.5t71.5 -8.5q96 -1 158 60.5t64 156.5q0 134 -129 272l-279 301q-162 176 -162 346q0 131 97.5 217t263.5 86q160 0 297 -49zM190 1866l15 20l307 -155l287 155l14 -20l-311 -271z" />
    <glyph glyph-name="Scaron" unicode="&#x161;" horiz-adv-x="995" 
d="M795 1421l-7 -657h-24q0 129 -9 232t-22.5 169.5t-35.5 115t-42 73.5t-48 39.5t-47 17.5t-46 4q-94 0 -152.5 -53.5t-58.5 -149.5q0 -65 31 -136t88 -132l278 -301q170 -185 170 -356q0 -137 -104.5 -224.5t-282.5 -87.5q-90 0 -183 27.5t-161 79.5l51 692l25 -2
q-11 -202 5.5 -348.5t43.5 -219.5t73 -115t76.5 -49.5t71.5 -8.5q96 -1 158 60.5t64 156.5q0 134 -129 272l-279 301q-162 176 -162 346q0 131 97.5 217t263.5 86q160 0 297 -49zM190 1866l15 20l307 -155l287 155l14 -20l-311 -271z" />
    <glyph glyph-name="uni0162" unicode="&#x162;" horiz-adv-x="1024" 
d="M39 1434h1028l63 -1104h-24q-58 642 -89 813q-31 167 -80 211q-33 28 -108 30h-26h-162v-1169q0 -35 2 -56t8.5 -44t20 -35.5t36 -24.5t57 -17.5t81.5 -9t112 -3.5h148v-25h-494l-96 -94q88 6 137 -27t49 -86q0 -55 -48 -95t-117.5 -56.5t-143.5 -12.5l6 21q71 7 127 38
t56 83q0 37 -38 66.5t-108 39.5l2 17l107 106h-545v25h150q65 0 112 3.5t81.5 9t57 17.5t36 24.5t20 35.5t8.5 44t2 56v1169h-164q-83 0 -114 -17q-52 -27 -82 -140q-36 -139 -83 -637q-10 -101 -24 -260h-25z" />
    <glyph glyph-name="uni0162" unicode="&#x163;" horiz-adv-x="1024" 
d="M39 1434h1028l63 -1104h-24q-58 642 -89 813q-31 167 -80 211q-33 28 -108 30h-26h-162v-1169q0 -35 2 -56t8.5 -44t20 -35.5t36 -24.5t57 -17.5t81.5 -9t112 -3.5h148v-25h-494l-96 -94q88 6 137 -27t49 -86q0 -55 -48 -95t-117.5 -56.5t-143.5 -12.5l6 21q71 7 127 38
t56 83q0 37 -38 66.5t-108 39.5l2 17l107 106h-545v25h150q65 0 112 3.5t81.5 9t57 17.5t36 24.5t20 35.5t8.5 44t2 56v1169h-164q-83 0 -114 -17q-52 -27 -82 -140q-36 -139 -83 -637q-10 -101 -24 -260h-25z" />
    <glyph glyph-name="Tcaron" unicode="&#x164;" horiz-adv-x="1024" 
d="M39 1434h1028l63 -1104h-24q-58 642 -89 813q-31 167 -80 211q-33 28 -108 30h-26h-162v-1169q0 -35 2 -56t8.5 -44t20 -35.5t36 -24.5t57 -17.5t81.5 -9t112 -3.5h148v-25h-1106v25h150q65 0 112 3.5t81.5 9t57 17.5t36 24.5t20 35.5t8.5 44t2 56v1169h-164
q-83 0 -114 -17q-52 -27 -82 -140q-36 -139 -83 -637q-10 -101 -24 -260h-25zM242 1866l14 20l307 -155l287 155l14 -20l-311 -271z" />
    <glyph glyph-name="Tcaron" unicode="&#x165;" horiz-adv-x="1024" 
d="M39 1434h1028l63 -1104h-24q-58 642 -89 813q-31 167 -80 211q-33 28 -108 30h-26h-162v-1169q0 -35 2 -56t8.5 -44t20 -35.5t36 -24.5t57 -17.5t81.5 -9t112 -3.5h148v-25h-1106v25h150q65 0 112 3.5t81.5 9t57 17.5t36 24.5t20 35.5t8.5 44t2 56v1169h-164
q-83 0 -114 -17q-52 -27 -82 -140q-36 -139 -83 -637q-10 -101 -24 -260h-25zM242 1866l14 20l307 -155l287 155l14 -20l-311 -271z" />
    <glyph glyph-name="Utilde" unicode="&#x168;" horiz-adv-x="1404" 
d="M-20 1434h763v-25q-95 -1 -154 -3.5t-105.5 -12t-68.5 -20t-36.5 -34.5t-17.5 -49.5t-3 -70.5v-678q0 -211 110 -334t298 -123q186 0 295.5 118t109.5 314v703q0 35 -1.5 56.5t-8.5 43t-17 33.5t-31 24t-47 17t-68.5 9.5t-91.5 5.5t-120 1v25h619v-25
q-117 0 -147.5 -32.5t-30.5 -157.5v-674q0 -271 -143 -424.5t-377 -153.5q-235 0 -379 154t-144 424v674q0 43 -2.5 70t-11 50t-21 34.5t-37 20t-54.5 11.5t-78 4v25zM342 1712q59 170 203 170q87 0 211 -51q7 -3 29.5 -11.5t31 -11.5t28 -10t29 -10t25.5 -7.5t27 -6.5
t24 -3.5t25 -1.5q76 0 121 64l22 -12q-59 -170 -203 -170q-86 0 -210 51q-134 51 -184 58q-19 3 -36 3q-76 0 -120 -63z" />
    <glyph glyph-name="Utilde" unicode="&#x169;" horiz-adv-x="1404" 
d="M-20 1434h763v-25q-95 -1 -154 -3.5t-105.5 -12t-68.5 -20t-36.5 -34.5t-17.5 -49.5t-3 -70.5v-678q0 -211 110 -334t298 -123q186 0 295.5 118t109.5 314v703q0 35 -1.5 56.5t-8.5 43t-17 33.5t-31 24t-47 17t-68.5 9.5t-91.5 5.5t-120 1v25h619v-25
q-117 0 -147.5 -32.5t-30.5 -157.5v-674q0 -271 -143 -424.5t-377 -153.5q-235 0 -379 154t-144 424v674q0 43 -2.5 70t-11 50t-21 34.5t-37 20t-54.5 11.5t-78 4v25zM342 1712q59 170 203 170q87 0 211 -51q7 -3 29.5 -11.5t31 -11.5t28 -10t29 -10t25.5 -7.5t27 -6.5
t24 -3.5t25 -1.5q76 0 121 64l22 -12q-59 -170 -203 -170q-86 0 -210 51q-134 51 -184 58q-19 3 -36 3q-76 0 -120 -63z" />
    <glyph glyph-name="Umacron" unicode="&#x16a;" horiz-adv-x="1404" 
d="M-20 1434h763v-25q-95 -1 -154 -3.5t-105.5 -12t-68.5 -20t-36.5 -34.5t-17.5 -49.5t-3 -70.5v-678q0 -211 110 -334t298 -123q186 0 295.5 118t109.5 314v703q0 35 -1.5 56.5t-8.5 43t-17 33.5t-31 24t-47 17t-68.5 9.5t-91.5 5.5t-120 1v25h619v-25
q-117 0 -147.5 -32.5t-30.5 -157.5v-674q0 -271 -143 -424.5t-377 -153.5q-235 0 -379 154t-144 424v674q0 43 -2.5 70t-11 50t-21 34.5t-37 20t-54.5 11.5t-78 4v25zM356 1724v21l779 43v-98z" />
    <glyph glyph-name="Umacron" unicode="&#x16b;" horiz-adv-x="1404" 
d="M-20 1434h763v-25q-95 -1 -154 -3.5t-105.5 -12t-68.5 -20t-36.5 -34.5t-17.5 -49.5t-3 -70.5v-678q0 -211 110 -334t298 -123q186 0 295.5 118t109.5 314v703q0 35 -1.5 56.5t-8.5 43t-17 33.5t-31 24t-47 17t-68.5 9.5t-91.5 5.5t-120 1v25h619v-25
q-117 0 -147.5 -32.5t-30.5 -157.5v-674q0 -271 -143 -424.5t-377 -153.5q-235 0 -379 154t-144 424v674q0 43 -2.5 70t-11 50t-21 34.5t-37 20t-54.5 11.5t-78 4v25zM356 1724v21l779 43v-98z" />
    <glyph glyph-name="Uring" unicode="&#x16e;" horiz-adv-x="1404" 
d="M-20 1434h763v-25q-95 -1 -154 -3.5t-105.5 -12t-68.5 -20t-36.5 -34.5t-17.5 -49.5t-3 -70.5v-678q0 -211 110 -334t298 -123q186 0 295.5 118t109.5 314v703q0 35 -1.5 56.5t-8.5 43t-17 33.5t-31 24t-47 17t-68.5 9.5t-91.5 5.5t-120 1v25h619v-25
q-117 0 -147.5 -32.5t-30.5 -157.5v-674q0 -271 -143 -424.5t-377 -153.5q-235 0 -379 154t-144 424v674q0 43 -2.5 70t-11 50t-21 34.5t-37 20t-54.5 11.5t-78 4v25zM582 1780q0 71 45.5 117.5t117.5 46.5t118 -46.5t46 -117.5q0 -72 -46 -118t-118 -46t-117.5 46
t-45.5 118zM662 1765q0 -40 21 -67t54 -27q40 0 66 39t26 84q0 40 -21 67t-54 27q-40 0 -66 -39t-26 -84z" />
    <glyph glyph-name="Uring" unicode="&#x16f;" horiz-adv-x="1404" 
d="M-20 1434h763v-25q-95 -1 -154 -3.5t-105.5 -12t-68.5 -20t-36.5 -34.5t-17.5 -49.5t-3 -70.5v-678q0 -211 110 -334t298 -123q186 0 295.5 118t109.5 314v703q0 35 -1.5 56.5t-8.5 43t-17 33.5t-31 24t-47 17t-68.5 9.5t-91.5 5.5t-120 1v25h619v-25
q-117 0 -147.5 -32.5t-30.5 -157.5v-674q0 -271 -143 -424.5t-377 -153.5q-235 0 -379 154t-144 424v674q0 43 -2.5 70t-11 50t-21 34.5t-37 20t-54.5 11.5t-78 4v25zM582 1780q0 71 45.5 117.5t117.5 46.5t118 -46.5t46 -117.5q0 -72 -46 -118t-118 -46t-117.5 46
t-45.5 118zM662 1765q0 -40 21 -67t54 -27q40 0 66 39t26 84q0 40 -21 67t-54 27q-40 0 -66 -39t-26 -84z" />
    <glyph glyph-name="Uhungarumlaut" unicode="&#x170;" horiz-adv-x="1404" 
d="M-20 1434h763v-25q-95 -1 -154 -3.5t-105.5 -12t-68.5 -20t-36.5 -34.5t-17.5 -49.5t-3 -70.5v-678q0 -211 110 -334t298 -123q186 0 295.5 118t109.5 314v703q0 35 -1.5 56.5t-8.5 43t-17 33.5t-31 24t-47 17t-68.5 9.5t-91.5 5.5t-120 1v25h619v-25
q-117 0 -147.5 -32.5t-30.5 -157.5v-674q0 -271 -143 -424.5t-377 -153.5q-235 0 -379 154t-144 424v674q0 43 -2.5 70t-11 50t-21 34.5t-37 20t-54.5 11.5t-78 4v25zM623 1657l163 334l78 -52l-223 -297zM825 1667l267 305l71 -59l-321 -260z" />
    <glyph glyph-name="Uhungarumlaut" unicode="&#x171;" horiz-adv-x="1404" 
d="M-20 1434h763v-25q-95 -1 -154 -3.5t-105.5 -12t-68.5 -20t-36.5 -34.5t-17.5 -49.5t-3 -70.5v-678q0 -211 110 -334t298 -123q186 0 295.5 118t109.5 314v703q0 35 -1.5 56.5t-8.5 43t-17 33.5t-31 24t-47 17t-68.5 9.5t-91.5 5.5t-120 1v25h619v-25
q-117 0 -147.5 -32.5t-30.5 -157.5v-674q0 -271 -143 -424.5t-377 -153.5q-235 0 -379 154t-144 424v674q0 43 -2.5 70t-11 50t-21 34.5t-37 20t-54.5 11.5t-78 4v25zM623 1657l163 334l78 -52l-223 -297zM825 1667l267 305l71 -59l-321 -260z" />
    <glyph glyph-name="Uogonek" unicode="&#x172;" horiz-adv-x="1404" 
d="M-20 1434h763v-25q-95 -1 -154 -3.5t-105.5 -12t-68.5 -20t-36.5 -34.5t-17.5 -49.5t-3 -70.5v-678q0 -211 110 -334t298 -123q186 0 295.5 118t109.5 314v703q0 35 -1.5 56.5t-8.5 43t-17 33.5t-31 24t-47 17t-68.5 9.5t-91.5 5.5t-120 1v25h619v-25
q-117 0 -147.5 -32.5t-30.5 -157.5v-674q0 -199 -79 -336.5t-220 -198.5q-97 -50 -141 -91.5t-44 -84.5q0 -46 44.5 -77t123.5 -31q18 0 54 4l4 -21q-110 -59 -203 -59q-70 0 -111 35.5t-41 89.5q0 49 38 100t112 94q-18 -2 -57 -2q-235 0 -379 154t-144 424v674
q0 43 -2.5 70t-11 50t-21 34.5t-37 20t-54.5 11.5t-78 4v25z" />
    <glyph glyph-name="Uogonek" unicode="&#x173;" horiz-adv-x="1404" 
d="M-20 1434h763v-25q-95 -1 -154 -3.5t-105.5 -12t-68.5 -20t-36.5 -34.5t-17.5 -49.5t-3 -70.5v-678q0 -211 110 -334t298 -123q186 0 295.5 118t109.5 314v703q0 35 -1.5 56.5t-8.5 43t-17 33.5t-31 24t-47 17t-68.5 9.5t-91.5 5.5t-120 1v25h619v-25
q-117 0 -147.5 -32.5t-30.5 -157.5v-674q0 -199 -79 -336.5t-220 -198.5q-97 -50 -141 -91.5t-44 -84.5q0 -46 44.5 -77t123.5 -31q18 0 54 4l4 -21q-110 -59 -203 -59q-70 0 -111 35.5t-41 89.5q0 49 38 100t112 94q-18 -2 -57 -2q-235 0 -379 154t-144 424v674
q0 43 -2.5 70t-11 50t-21 34.5t-37 20t-54.5 11.5t-78 4v25z" />
    <glyph glyph-name="Wcircumflex" unicode="&#x174;" horiz-adv-x="2045" 
d="M-82 1434h1055v-25h-332q-105 0 -168.5 -2t-112.5 -11t-70 -20t-29 -35t-2 -51t22 -73l395 -1111l414 1450h2l507 -1454l338 1117q33 90 25 122q-12 42 -102 55q-83 13 -330 13h-322v25h983v-21q-48 0 -74 -5.5t-48.5 -28t-36.5 -56.5t-35 -104l-371 -1219
q-13 -41 -42 -130.5t-42 -133.5l-498 1429l-342 -1165q-65 -219 -79 -264l-529 1483q-32 91 -55.5 130.5t-48 51.5t-72.5 12v21zM811 1591l311 271l312 -271l-15 -20l-307 155l-287 -155z" />
    <glyph glyph-name="Wcircumflex" unicode="&#x175;" horiz-adv-x="2045" 
d="M-82 1434h1055v-25h-332q-105 0 -168.5 -2t-112.5 -11t-70 -20t-29 -35t-2 -51t22 -73l395 -1111l414 1450h2l507 -1454l338 1117q33 90 25 122q-12 42 -102 55q-83 13 -330 13h-322v25h983v-21q-48 0 -74 -5.5t-48.5 -28t-36.5 -56.5t-35 -104l-371 -1219
q-13 -41 -42 -130.5t-42 -133.5l-498 1429l-342 -1165q-65 -219 -79 -264l-529 1483q-32 91 -55.5 130.5t-48 51.5t-72.5 12v21zM811 1591l311 271l312 -271l-15 -20l-307 155l-287 -155z" />
    <glyph glyph-name="Ycircumflex" unicode="&#x176;" horiz-adv-x="1267" 
d="M150 1217q-50 71 -75.5 102t-62 55.5t-73 29.5t-103.5 5v25h795v-25q-257 0 -313 -22q-44 -18 -25 -63q9 -21 35 -58l379 -539l380 539q49 69 37 96q-15 35 -152 43q-68 4 -192 4v25h652v-25q-46 0 -75.5 -2t-58 -11t-45.5 -19.5t-40.5 -36t-42 -50.5t-50.5 -73
l-360 -510v-512q0 -41 3 -63.5t19.5 -44.5t43.5 -31.5t82.5 -18t128 -10.5t188.5 -2v-25h-1104v25q116 0 188.5 2t128 10.5t82.5 18t43.5 31.5t19.5 44.5t3 63.5v399zM436 1591l312 271l311 -271l-15 -20l-307 155l-286 -155z" />
    <glyph glyph-name="Ycircumflex" unicode="&#x177;" horiz-adv-x="1267" 
d="M150 1217q-50 71 -75.5 102t-62 55.5t-73 29.5t-103.5 5v25h795v-25q-257 0 -313 -22q-44 -18 -25 -63q9 -21 35 -58l379 -539l380 539q49 69 37 96q-15 35 -152 43q-68 4 -192 4v25h652v-25q-46 0 -75.5 -2t-58 -11t-45.5 -19.5t-40.5 -36t-42 -50.5t-50.5 -73
l-360 -510v-512q0 -41 3 -63.5t19.5 -44.5t43.5 -31.5t82.5 -18t128 -10.5t188.5 -2v-25h-1104v25q116 0 188.5 2t128 10.5t82.5 18t43.5 31.5t19.5 44.5t3 63.5v399zM436 1591l312 271l311 -271l-15 -20l-307 155l-286 -155z" />
    <glyph glyph-name="Zacute" unicode="&#x179;" horiz-adv-x="1167" 
d="M113 1434h970l-772 -1379h510q85 0 108 16q37 24 18 121q-18 98 -130 426l25 11l243 -629h-1003l770 1378h-471q-87 0 -111 -16q-37 -24 -19 -120q18 -97 130 -427l-25 -10zM508 1608l250 364l71 -59l-303 -320z" />
    <glyph glyph-name="Zacute" unicode="&#x17a;" horiz-adv-x="1167" 
d="M113 1434h970l-772 -1379h510q85 0 108 16q37 24 18 121q-18 98 -130 426l25 11l243 -629h-1003l770 1378h-471q-87 0 -111 -16q-37 -24 -19 -120q18 -97 130 -427l-25 -10zM508 1608l250 364l71 -59l-303 -320z" />
    <glyph glyph-name="Zdotaccent" unicode="&#x17b;" horiz-adv-x="1167" 
d="M113 1434h970l-772 -1379h510q85 0 108 16q37 24 18 121q-18 98 -130 426l25 11l243 -629h-1003l770 1378h-471q-87 0 -111 -16q-37 -24 -19 -120q18 -97 130 -427l-25 -10zM532 1741q0 40 30.5 71t72.5 31q41 0 71.5 -31t30.5 -71q0 -43 -30.5 -73t-71.5 -30
q-43 0 -73 30t-30 73z" />
    <glyph glyph-name="Zdotaccent" unicode="&#x17c;" horiz-adv-x="1167" 
d="M113 1434h970l-772 -1379h510q85 0 108 16q37 24 18 121q-18 98 -130 426l25 11l243 -629h-1003l770 1378h-471q-87 0 -111 -16q-37 -24 -19 -120q18 -97 130 -427l-25 -10zM532 1741q0 40 30.5 71t72.5 31q41 0 71.5 -31t30.5 -71q0 -43 -30.5 -73t-71.5 -30
q-43 0 -73 30t-30 73z" />
    <glyph glyph-name="Zcaron" unicode="&#x17d;" horiz-adv-x="1167" 
d="M113 1434h970l-772 -1379h510q85 0 108 16q37 24 18 121q-18 98 -130 426l25 11l243 -629h-1003l770 1378h-471q-87 0 -111 -16q-37 -24 -19 -120q18 -97 130 -427l-25 -10zM324 1866l14 20l307 -155l287 155l14 -20l-311 -271z" />
    <glyph glyph-name="Zcaron" unicode="&#x17e;" horiz-adv-x="1167" 
d="M113 1434h970l-772 -1379h510q85 0 108 16q37 24 18 121q-18 98 -130 426l25 11l243 -629h-1003l770 1378h-471q-87 0 -111 -16q-37 -24 -19 -120q18 -97 130 -427l-25 -10zM324 1866l14 20l307 -155l287 155l14 -20l-311 -271z" />
    <glyph glyph-name="uni01DE" unicode="&#x1de;" horiz-adv-x="1228" 
d="M553 1434q39 10 77 41t56 73l471 -1333q42 -120 74 -155t94 -35v-25h-721v25q82 0 138 1t103.5 5.5t75.5 9.5t48.5 17t28 24t8 33.5t-5 43t-17.5 56.5l-59 168h-707l-63 -168q-18 -47 -24 -72.5t2.5 -50t32 -35t78.5 -19.5t127.5 -11t192.5 -2v-25h-659v25
q64 0 94.5 33.5t79.5 158.5zM229 1989v20l779 43v-98zM238 438h667l-319 912zM352 1741q0 39 26.5 65.5t65.5 26.5q38 0 65.5 -27t27.5 -65q0 -39 -27 -65.5t-66 -26.5q-40 0 -66 26t-26 66zM700 1741q0 37 27 64.5t66 27.5q37 0 64.5 -27.5t27.5 -64.5q0 -39 -27.5 -65.5
t-64.5 -26.5q-40 0 -66.5 26t-26.5 66z" />
    <glyph glyph-name="uni01DE" unicode="&#x1df;" horiz-adv-x="1228" 
d="M553 1434q39 10 77 41t56 73l471 -1333q42 -120 74 -155t94 -35v-25h-721v25q82 0 138 1t103.5 5.5t75.5 9.5t48.5 17t28 24t8 33.5t-5 43t-17.5 56.5l-59 168h-707l-63 -168q-18 -47 -24 -72.5t2.5 -50t32 -35t78.5 -19.5t127.5 -11t192.5 -2v-25h-659v25
q64 0 94.5 33.5t79.5 158.5zM229 1989v20l779 43v-98zM238 438h667l-319 912zM352 1741q0 39 26.5 65.5t65.5 26.5q38 0 65.5 -27t27.5 -65q0 -39 -27 -65.5t-66 -26.5q-40 0 -66 26t-26 66zM700 1741q0 37 27 64.5t66 27.5q37 0 64.5 -27.5t27.5 -64.5q0 -39 -27.5 -65.5
t-64.5 -26.5q-40 0 -66.5 26t-26.5 66z" />
    <glyph glyph-name="uni0218" unicode="&#x218;" horiz-adv-x="995" 
d="M795 1421l-7 -657h-24q0 129 -9 232t-22.5 169.5t-35.5 115t-42 73.5t-48 39.5t-47 17.5t-46 4q-94 0 -152.5 -53.5t-58.5 -149.5q0 -65 31 -136t88 -132l278 -301q170 -185 170 -356q0 -137 -104.5 -224.5t-282.5 -87.5q-90 0 -183 27.5t-161 79.5l51 692l25 -2
q-11 -202 5.5 -348.5t43.5 -219.5t73 -115t76.5 -49.5t71.5 -8.5q96 -1 158 60.5t64 156.5q0 134 -129 272l-279 301q-162 176 -162 346q0 131 97.5 217t263.5 86q160 0 297 -49zM379 -573q101 175 114 210q15 40 -9 56q-6 4 -15 8q-26 10 -43.5 33t-17.5 55q0 40 28 68
t66 28q41 0 69.5 -31t28.5 -83q0 -24 -5 -43.5t-23.5 -51t-35.5 -57t-60 -87.5t-79 -116z" />
    <glyph glyph-name="uni0218" unicode="&#x219;" horiz-adv-x="995" 
d="M795 1421l-7 -657h-24q0 129 -9 232t-22.5 169.5t-35.5 115t-42 73.5t-48 39.5t-47 17.5t-46 4q-94 0 -152.5 -53.5t-58.5 -149.5q0 -65 31 -136t88 -132l278 -301q170 -185 170 -356q0 -137 -104.5 -224.5t-282.5 -87.5q-90 0 -183 27.5t-161 79.5l51 692l25 -2
q-11 -202 5.5 -348.5t43.5 -219.5t73 -115t76.5 -49.5t71.5 -8.5q96 -1 158 60.5t64 156.5q0 134 -129 272l-279 301q-162 176 -162 346q0 131 97.5 217t263.5 86q160 0 297 -49zM379 -573q101 175 114 210q15 40 -9 56q-6 4 -15 8q-26 10 -43.5 33t-17.5 55q0 40 28 68
t66 28q41 0 69.5 -31t28.5 -83q0 -24 -5 -43.5t-23.5 -51t-35.5 -57t-60 -87.5t-79 -116z" />
    <glyph glyph-name="uni021A" unicode="&#x21a;" horiz-adv-x="1024" 
d="M39 1434h1028l63 -1104h-24q-58 642 -89 813q-31 167 -80 211q-33 28 -108 30h-26h-162v-1169q0 -35 2 -56t8.5 -44t20 -35.5t36 -24.5t57 -17.5t81.5 -9t112 -3.5h148v-25h-1106v25h150q65 0 112 3.5t81.5 9t57 17.5t36 24.5t20 35.5t8.5 44t2 56v1169h-164
q-83 0 -114 -17q-52 -27 -82 -140q-36 -139 -83 -637q-10 -101 -24 -260h-25zM430 -573q101 175 114 210q15 40 -9 56q-6 4 -15 8q-26 10 -43.5 33t-17.5 55q0 40 28 68t66 28q41 0 69.5 -31t28.5 -83q0 -24 -5 -43.5t-23 -51.5t-35 -56.5t-60.5 -87.5t-78.5 -116z" />
    <glyph glyph-name="uni021A" unicode="&#x21b;" horiz-adv-x="1024" 
d="M39 1434h1028l63 -1104h-24q-58 642 -89 813q-31 167 -80 211q-33 28 -108 30h-26h-162v-1169q0 -35 2 -56t8.5 -44t20 -35.5t36 -24.5t57 -17.5t81.5 -9t112 -3.5h148v-25h-1106v25h150q65 0 112 3.5t81.5 9t57 17.5t36 24.5t20 35.5t8.5 44t2 56v1169h-164
q-83 0 -114 -17q-52 -27 -82 -140q-36 -139 -83 -637q-10 -101 -24 -260h-25zM430 -573q101 175 114 210q15 40 -9 56q-6 4 -15 8q-26 10 -43.5 33t-17.5 55q0 40 28 68t66 28q41 0 69.5 -31t28.5 -83q0 -24 -5 -43.5t-23 -51.5t-35 -56.5t-60.5 -87.5t-78.5 -116z" />
    <glyph glyph-name="uni0228" unicode="&#x228;" horiz-adv-x="1116" 
d="M0 1434h1010l41 -437l-23 -2q-12 97 -20.5 154t-22 104.5t-26 68.5t-38 36t-51 17.5t-71.5 2.5h-420v-379l518 -16v-25l-518 -20v-883h391q96 0 133 17q62 28 99 137q51 149 108 640q17 146 41 365h25l-89 -1214h-389l-96 -94q88 6 137 -27t49 -86q0 -55 -48 -95
t-117.5 -56.5t-143.5 -12.5l6 21q71 7 127 38t56 83q0 37 -38 66.5t-108 39.5l2 17l107 106h-631v25q72 2 109 8t60.5 28.5t29.5 55.5t6 98v1004q0 65 -6 98t-29.5 55.5t-60.5 28.5t-109 8v25z" />
    <glyph glyph-name="uni0228" unicode="&#x229;" horiz-adv-x="1116" 
d="M0 1434h1010l41 -437l-23 -2q-12 97 -20.5 154t-22 104.5t-26 68.5t-38 36t-51 17.5t-71.5 2.5h-420v-379l518 -16v-25l-518 -20v-883h391q96 0 133 17q62 28 99 137q51 149 108 640q17 146 41 365h25l-89 -1214h-389l-96 -94q88 6 137 -27t49 -86q0 -55 -48 -95
t-117.5 -56.5t-143.5 -12.5l6 21q71 7 127 38t56 83q0 37 -38 66.5t-108 39.5l2 17l107 106h-631v25q72 2 109 8t60.5 28.5t29.5 55.5t6 98v1004q0 65 -6 98t-29.5 55.5t-60.5 28.5t-109 8v25z" />
    <glyph glyph-name="uni02BC" unicode="&#x2bc;" horiz-adv-x="573" 
d="M281 1567l125 -21l-140 -579l-30 4z" />
    <glyph glyph-name="gravecomb" unicode="&#x300;" 
d="M494 1931l249 -364l-18 -15l-303 320z" />
    <glyph glyph-name="acutecomb" unicode="&#x301;" 
d="M737 1972l72 -59l-303 -320l-19 15z" />
    <glyph glyph-name="uni0302" unicode="&#x302;" 
d="M911 1591l-307 156l-287 -156l-14 21l311 270l312 -270z" />
    <glyph glyph-name="tildecomb" unicode="&#x303;" 
d="M784 1649q-87 0 -211 51q-132 50 -180 58q-21 3 -39 3q-77 0 -121 -63l-22 12q59 170 203 170q87 0 211 -51q7 -3 29.5 -11.5t31 -11.5t28 -10t29 -10t25.5 -7.5t27 -6.5t24 -3.5t25 -1.5q76 0 121 64l22 -12q-59 -170 -203 -170z" />
    <glyph glyph-name="uni0304" unicode="&#x304;" 
d="M205 1745l778 43v-98l-778 34v21z" />
    <glyph glyph-name="uni0306" unicode="&#x306;" 
d="M319 1868l859 313l8 -22q-180 -66 -310.5 -124.5t-201 -99t-111 -78t-51 -60t-10.5 -46.5q0 -62 37 -90.5t98 -28.5q58 0 113.5 25.5t95 81t39.5 129.5h24q0 -119 -83 -195t-212 -76t-212 76t-83 195z" />
    <glyph glyph-name="uni0307" unicode="&#x307;" 
d="M614 1638q-43 0 -72.5 30t-29.5 73q0 40 30 71t72 31q41 0 72 -31t31 -71q0 -42 -30.5 -72.5t-72.5 -30.5z" />
    <glyph glyph-name="uni0308" unicode="&#x308;" 
d="M440 1649q-40 0 -66 26t-26 66q0 39 26.5 65.5t65.5 26.5q38 0 65 -27t27 -65q0 -39 -26.5 -65.5t-65.5 -26.5zM696 1741q0 37 26.5 64.5t65.5 27.5q37 0 65 -27.5t28 -64.5q0 -39 -27.5 -65.5t-65.5 -26.5q-40 0 -66 26t-26 66z" />
    <glyph glyph-name="uni030A" unicode="&#x30a;" 
d="M451 1780q0 71 45.5 117.5t117.5 46.5t118 -46.5t46 -117.5q0 -72 -46 -118t-118 -46t-117.5 46t-45.5 118zM530 1765q0 -40 21.5 -67t54.5 -27q40 0 66 39t26 84q0 40 -21 67t-54 27q-40 0 -66.5 -39t-26.5 -84z" />
    <glyph glyph-name="uni030B" unicode="&#x30b;" 
d="M635 1991l78 -52l-224 -297l-18 15zM674 1667l266 305l72 -59l-322 -260z" />
    <glyph glyph-name="uni030C" unicode="&#x30c;" 
d="M317 1886l308 -155l286 155l15 -20l-312 -271l-311 271z" />
    <glyph glyph-name="uni0312" unicode="&#x312;" 
d="M444 1602q-121 -210 -139 -257q-20 -54 6 -75q8 -7 23 -13q32 -13 54 -41.5t22 -68.5q0 -49 -35 -84t-84 -35q-51 0 -86 39t-35 104q0 29 6 53t28.5 63.5t43.5 70.5t75.5 110t98.5 146z" />
    <glyph glyph-name="uni0326" unicode="&#x326;" 
d="M164 -573q101 175 114 210q15 40 -9 56q-6 4 -15 8q-26 10 -43.5 33t-17.5 55q0 40 28 68t66 28q41 0 69.5 -31t28.5 -83q0 -24 -5 -43.5t-23.5 -51t-35.5 -57t-60 -87.5t-79 -116z" />
    <glyph glyph-name="uni0327" unicode="&#x327;" 
d="M571 25l43 -25l-96 -94q88 6 137.5 -27t49.5 -86q0 -55 -48.5 -95t-118 -56.5t-143.5 -12.5l6 21q71 7 127 38t56 83q0 37 -38 66.5t-108 39.5l2 17z" />
    <glyph glyph-name="uni0328" unicode="&#x328;" 
d="M444 -365q-70 0 -110.5 35.5t-40.5 89.5q0 74 80.5 146.5t240.5 122.5v-29q-102 -52 -147 -93.5t-45 -86.5q0 -46 44.5 -77.5t123.5 -31.5q17 0 53 4l4 -20q-112 -60 -203 -60z" />
    <glyph glyph-name="uni0401" unicode="&#x401;" horiz-adv-x="1116" 
d="M0 1434h1010l41 -437l-23 -2q-12 97 -20.5 154t-22 104.5t-26 68.5t-38 36t-51 17.5t-71.5 2.5h-420v-379l518 -16v-25l-518 -20v-883h391q96 0 133 17q62 28 99 137q51 149 108 640q17 146 41 365h25l-89 -1214h-1087v25q72 2 109 8t60.5 28.5t29.5 55.5t6 98v1004
q0 65 -6 98t-29.5 55.5t-60.5 28.5t-109 8v25zM328 1741q0 39 26.5 65.5t65.5 26.5q38 0 65 -27t27 -65q0 -39 -26.5 -65.5t-65.5 -26.5q-40 0 -66 26t-26 66zM676 1741q0 37 26.5 64.5t65.5 27.5q37 0 64.5 -27.5t27.5 -64.5q0 -39 -27.5 -65.5t-64.5 -26.5q-40 0 -66 26
t-26 66z" />
    <glyph glyph-name="uni0401" unicode="&#x451;" horiz-adv-x="1116" 
d="M0 1434h1010l41 -437l-23 -2q-12 97 -20.5 154t-22 104.5t-26 68.5t-38 36t-51 17.5t-71.5 2.5h-420v-379l518 -16v-25l-518 -20v-883h391q96 0 133 17q62 28 99 137q51 149 108 640q17 146 41 365h25l-89 -1214h-1087v25q72 2 109 8t60.5 28.5t29.5 55.5t6 98v1004
q0 65 -6 98t-29.5 55.5t-60.5 28.5t-109 8v25zM328 1741q0 39 26.5 65.5t65.5 26.5q38 0 65 -27t27 -65q0 -39 -26.5 -65.5t-65.5 -26.5q-40 0 -66 26t-26 66zM676 1741q0 37 26.5 64.5t65.5 27.5q37 0 64.5 -27.5t27.5 -64.5q0 -39 -27.5 -65.5t-64.5 -26.5q-40 0 -66 26
t-26 66z" />
    <glyph glyph-name="uni0402" unicode="&#x402;" horiz-adv-x="1540" 
d="M977 842q-196 0 -336 -156v-471q0 -35 2 -56t8.5 -44t20 -35.5t36 -24.5t57 -17.5t81.5 -9t112 -3.5h148v-25h-1106v25h150q65 0 112 3.5t81.5 9t57 17.5t36 24.5t20 35.5t8.5 44t2 56v1169h-164q-83 0 -114 -17q-52 -27 -82 -140q-36 -139 -83 -637q-10 -101 -24 -260
h-25l64 1104h946l33 -527q111 -3 197.5 -41.5t139.5 -103t80 -145.5t27 -173q0 -115 -42.5 -226.5t-121.5 -206t-207.5 -157t-285.5 -71.5v24q122 25 216.5 87.5t149.5 147t83 179t28 193.5q0 116 -34.5 211.5t-105 156t-165.5 60.5zM641 764q149 140 352 143
q-11 78 -17.5 126.5t-16 100.5t-15.5 80.5t-17.5 60t-19 45t-24 29t-28.5 20t-36 9.5t-44 5.5t-54 0.5h-80v-620z" />
    <glyph glyph-name="uni0402" unicode="&#x452;" horiz-adv-x="1540" 
d="M977 842q-196 0 -336 -156v-471q0 -35 2 -56t8.5 -44t20 -35.5t36 -24.5t57 -17.5t81.5 -9t112 -3.5h148v-25h-1106v25h150q65 0 112 3.5t81.5 9t57 17.5t36 24.5t20 35.5t8.5 44t2 56v1169h-164q-83 0 -114 -17q-52 -27 -82 -140q-36 -139 -83 -637q-10 -101 -24 -260
h-25l64 1104h946l33 -527q111 -3 197.5 -41.5t139.5 -103t80 -145.5t27 -173q0 -115 -42.5 -226.5t-121.5 -206t-207.5 -157t-285.5 -71.5v24q122 25 216.5 87.5t149.5 147t83 179t28 193.5q0 116 -34.5 211.5t-105 156t-165.5 60.5zM641 764q149 140 352 143
q-11 78 -17.5 126.5t-16 100.5t-15.5 80.5t-17.5 60t-19 45t-24 29t-28.5 20t-36 9.5t-44 5.5t-54 0.5h-80v-620z" />
    <glyph glyph-name="uni0403" unicode="&#x403;" horiz-adv-x="983" 
d="M0 1434h1034l-407 -975l-19 8q202 508 242 673q36 152 -8 199q-33 35 -139 38q-24 1 -62 1h-262v-1163q0 -45 3 -70.5t18.5 -49.5t39 -34.5t73.5 -20t112.5 -12t165.5 -3.5v-25h-791v25q72 2 109 8t60.5 28.5t29.5 55.5t6 98v1004q0 65 -6 98t-29.5 55.5t-60.5 28.5
t-109 8v25zM487 1608l250 364l72 -59l-303 -320z" />
    <glyph glyph-name="uni0403" unicode="&#x453;" horiz-adv-x="983" 
d="M0 1434h1034l-407 -975l-19 8q202 508 242 673q36 152 -8 199q-33 35 -139 38q-24 1 -62 1h-262v-1163q0 -45 3 -70.5t18.5 -49.5t39 -34.5t73.5 -20t112.5 -12t165.5 -3.5v-25h-791v25q72 2 109 8t60.5 28.5t29.5 55.5t6 98v1004q0 65 -6 98t-29.5 55.5t-60.5 28.5
t-109 8v25zM487 1608l250 364l72 -59l-303 -320z" />
    <glyph glyph-name="uni0404" unicode="&#x404;" horiz-adv-x="1488" 
d="M1133 774q-30 21 -66 21q-43 0 -106.5 -26t-202.5 -95q-114 -60 -203 -60q-112 0 -236 109l13 20q36 -20 94 -20q116 0 281 82q153 78 243 78q100 0 195 -88zM61 725q0 156 59 296t159.5 241.5t240 161t295.5 59.5q167 0 315 -64t256 -172l-159 -440l-23 8q86 278 -2 445
t-321 167q-142 0 -263.5 -68t-201.5 -178.5t-125 -249t-45 -282.5q0 -141 51 -260.5t135 -198.5t192 -123t224 -44q72 0 140 22.5t132.5 72.5t114.5 122t84 178.5t43 234.5h24v-450q-108 -108 -256 -172t-315 -64q-156 0 -295.5 59.5t-240 161t-159.5 241.5t-59 296z" />
    <glyph glyph-name="uni0404" unicode="&#x454;" horiz-adv-x="1488" 
d="M1133 774q-30 21 -66 21q-43 0 -106.5 -26t-202.5 -95q-114 -60 -203 -60q-112 0 -236 109l13 20q36 -20 94 -20q116 0 281 82q153 78 243 78q100 0 195 -88zM61 725q0 156 59 296t159.5 241.5t240 161t295.5 59.5q167 0 315 -64t256 -172l-159 -440l-23 8q86 278 -2 445
t-321 167q-142 0 -263.5 -68t-201.5 -178.5t-125 -249t-45 -282.5q0 -141 51 -260.5t135 -198.5t192 -123t224 -44q72 0 140 22.5t132.5 72.5t114.5 122t84 178.5t43 234.5h24v-450q-108 -108 -256 -172t-315 -64q-156 0 -295.5 59.5t-240 161t-159.5 241.5t-59 296z" />
    <glyph glyph-name="uni0405" unicode="&#x405;" horiz-adv-x="995" 
d="M795 1421l-7 -657h-24q0 129 -9 232t-22.5 169.5t-35.5 115t-42 73.5t-48 39.5t-47 17.5t-46 4q-94 0 -152.5 -53.5t-58.5 -149.5q0 -65 31 -136t88 -132l278 -301q170 -185 170 -356q0 -137 -104.5 -224.5t-282.5 -87.5q-90 0 -183 27.5t-161 79.5l51 692l25 -2
q-11 -202 5.5 -348.5t43.5 -219.5t73 -115t76.5 -49.5t71.5 -8.5q96 -1 158 60.5t64 156.5q0 134 -129 272l-279 301q-162 176 -162 346q0 131 97.5 217t263.5 86q160 0 297 -49z" />
    <glyph glyph-name="uni0405" unicode="&#x455;" horiz-adv-x="995" 
d="M795 1421l-7 -657h-24q0 129 -9 232t-22.5 169.5t-35.5 115t-42 73.5t-48 39.5t-47 17.5t-46 4q-94 0 -152.5 -53.5t-58.5 -149.5q0 -65 31 -136t88 -132l278 -301q170 -185 170 -356q0 -137 -104.5 -224.5t-282.5 -87.5q-90 0 -183 27.5t-161 79.5l51 692l25 -2
q-11 -202 5.5 -348.5t43.5 -219.5t73 -115t76.5 -49.5t71.5 -8.5q96 -1 158 60.5t64 156.5q0 134 -129 272l-279 301q-162 176 -162 346q0 131 97.5 217t263.5 86q160 0 297 -49z" />
    <glyph glyph-name="uni0406" unicode="&#x406;" horiz-adv-x="583" 
d="M0 1434h584v-25q-72 0 -109 -5.5t-60.5 -28t-29.5 -56.5t-6 -100v-1004q0 -65 6 -98t29.5 -55.5t60.5 -28.5t109 -8v-25h-584v25q72 2 109 8t60.5 28.5t29.5 55.5t6 98v1004q0 66 -6 100t-29.5 56.5t-60.5 28t-109 5.5v25z" />
    <glyph glyph-name="uni0406" unicode="&#x456;" horiz-adv-x="583" 
d="M0 1434h584v-25q-72 0 -109 -5.5t-60.5 -28t-29.5 -56.5t-6 -100v-1004q0 -65 6 -98t29.5 -55.5t60.5 -28.5t109 -8v-25h-584v25q72 2 109 8t60.5 28.5t29.5 55.5t6 98v1004q0 66 -6 100t-29.5 56.5t-60.5 28t-109 5.5v25z" />
    <glyph glyph-name="uni0407" unicode="&#x407;" horiz-adv-x="583" 
d="M-4 1434h584v-25q-72 0 -109 -5.5t-60.5 -28t-29.5 -56.5t-6 -100v-1004q0 -65 6 -98t29.5 -55.5t60.5 -28.5t109 -8v-25h-584v25q72 2 109 8t60.5 28.5t29.5 55.5t6 98v1004q0 66 -6 100t-29.5 56.5t-60.5 28t-109 5.5v25zM23 1741q0 39 26.5 65.5t65.5 26.5
q38 0 65 -27t27 -65q0 -39 -26.5 -65.5t-65.5 -26.5q-40 0 -66 26t-26 66zM371 1741q0 37 26.5 64.5t65.5 27.5q37 0 64.5 -27.5t27.5 -64.5q0 -39 -27.5 -65.5t-64.5 -26.5q-40 0 -66 26t-26 66z" />
    <glyph glyph-name="uni0407" unicode="&#x457;" horiz-adv-x="583" 
d="M-4 1434h584v-25q-72 0 -109 -5.5t-60.5 -28t-29.5 -56.5t-6 -100v-1004q0 -65 6 -98t29.5 -55.5t60.5 -28.5t109 -8v-25h-584v25q72 2 109 8t60.5 28.5t29.5 55.5t6 98v1004q0 66 -6 100t-29.5 56.5t-60.5 28t-109 5.5v25zM23 1741q0 39 26.5 65.5t65.5 26.5
q38 0 65 -27t27 -65q0 -39 -26.5 -65.5t-65.5 -26.5q-40 0 -66 26t-26 66zM371 1741q0 37 26.5 64.5t65.5 27.5q37 0 64.5 -27.5t27.5 -64.5q0 -39 -27.5 -65.5t-64.5 -26.5q-40 0 -66 26t-26 66z" />
    <glyph glyph-name="uni0408" unicode="&#x408;" horiz-adv-x="624" 
d="M-20 1434h645v-25q-72 0 -109 -5.5t-60.5 -28t-29.5 -56.5t-6 -100v-971q0 -285 -160 -441.5t-485 -175.5v25q253 51 362 193t109 423v947q0 45 -2.5 72t-13 50.5t-26.5 35t-48 20t-72 10.5t-104 2v25z" />
    <glyph glyph-name="uni0408" unicode="&#x458;" horiz-adv-x="624" 
d="M-20 1434h645v-25q-72 0 -109 -5.5t-60.5 -28t-29.5 -56.5t-6 -100v-971q0 -285 -160 -441.5t-485 -175.5v25q253 51 362 193t109 423v947q0 45 -2.5 72t-13 50.5t-26.5 35t-48 20t-72 10.5t-104 2v25z" />
    <glyph glyph-name="uni0409" unicode="&#x409;" horiz-adv-x="1886" 
d="M0 1434h1372v-25q-77 0 -125.5 -2.5t-86.5 -11.5t-57 -20t-30.5 -35t-14.5 -50t-3 -71v-1164h186q192 0 305 117.5t113 316.5q0 187 -107.5 289.5t-302.5 102.5q-57 0 -119 -9v41q94 17 177 17q115 0 211.5 -26.5t170 -79.5t115 -139.5t41.5 -199.5q0 -224 -157.5 -354.5
t-427.5 -130.5h-891v25q128 0 208 2.5t141 11.5t90.5 19.5t47.5 35.5t21.5 50t3.5 71v1163h-430l-189 -1102q-28 -161 -68 -228.5t-108 -67.5q-31 0 -86 20v700h25q7 -280 33.5 -406t76.5 -126q24 0 45.5 42t34.5 122l152 887q7 39 8 63t-3 47t-21 35t-41 22.5t-70 14.5
t-101 6t-139 2v25z" />
    <glyph glyph-name="uni0409" unicode="&#x459;" horiz-adv-x="1886" 
d="M0 1434h1372v-25q-77 0 -125.5 -2.5t-86.5 -11.5t-57 -20t-30.5 -35t-14.5 -50t-3 -71v-1164h186q192 0 305 117.5t113 316.5q0 187 -107.5 289.5t-302.5 102.5q-57 0 -119 -9v41q94 17 177 17q115 0 211.5 -26.5t170 -79.5t115 -139.5t41.5 -199.5q0 -224 -157.5 -354.5
t-427.5 -130.5h-891v25q128 0 208 2.5t141 11.5t90.5 19.5t47.5 35.5t21.5 50t3.5 71v1163h-430l-189 -1102q-28 -161 -68 -228.5t-108 -67.5q-31 0 -86 20v700h25q7 -280 33.5 -406t76.5 -126q24 0 45.5 42t34.5 122l152 887q7 39 8 63t-3 47t-21 35t-41 22.5t-70 14.5
t-101 6t-139 2v25z" />
    <glyph glyph-name="uni040A" unicode="&#x40a;" horiz-adv-x="2060" 
d="M0 1434h696v-25q-78 -1 -126 -4t-86 -11.5t-56.5 -19.5t-31 -35t-15 -49.5t-2.5 -70.5v-222h676v222q0 38 -2.5 61.5t-9 46t-22 34.5t-36 22.5t-57.5 15t-81 7t-110 3.5v25h809v-25q-77 0 -125.5 -2.5t-86.5 -11.5t-57 -20t-30.5 -35t-14.5 -50t-3 -71v-1164h186
q192 0 305 117.5t113 316.5q0 187 -107.5 289.5t-302.5 102.5q-57 0 -118 -9v41q93 17 176 17q115 0 211.5 -26.5t170 -79.5t115 -139.5t41.5 -199.5q0 -224 -157.5 -354.5t-427.5 -130.5h-697v25q58 0 98.5 1t75.5 5.5t56.5 9.5t39 17t26 24t14 33.5t7 43.5t1.5 56v727
h-676v-727q0 -45 3 -71t14.5 -50t30.5 -35t57 -20t86.5 -11.5t125.5 -2.5v-25h-696v25q72 2 109 8t60.5 28.5t29.5 55.5t6 98v1004q0 65 -6 98t-29.5 55.5t-60.5 28.5t-109 8v25z" />
    <glyph glyph-name="uni040A" unicode="&#x45a;" horiz-adv-x="2060" 
d="M0 1434h696v-25q-78 -1 -126 -4t-86 -11.5t-56.5 -19.5t-31 -35t-15 -49.5t-2.5 -70.5v-222h676v222q0 38 -2.5 61.5t-9 46t-22 34.5t-36 22.5t-57.5 15t-81 7t-110 3.5v25h809v-25q-77 0 -125.5 -2.5t-86.5 -11.5t-57 -20t-30.5 -35t-14.5 -50t-3 -71v-1164h186
q192 0 305 117.5t113 316.5q0 187 -107.5 289.5t-302.5 102.5q-57 0 -118 -9v41q93 17 176 17q115 0 211.5 -26.5t170 -79.5t115 -139.5t41.5 -199.5q0 -224 -157.5 -354.5t-427.5 -130.5h-697v25q58 0 98.5 1t75.5 5.5t56.5 9.5t39 17t26 24t14 33.5t7 43.5t1.5 56v727
h-676v-727q0 -45 3 -71t14.5 -50t30.5 -35t57 -20t86.5 -11.5t125.5 -2.5v-25h-696v25q72 2 109 8t60.5 28.5t29.5 55.5t6 98v1004q0 65 -6 98t-29.5 55.5t-60.5 28.5t-109 8v25z" />
    <glyph glyph-name="uni040B" unicode="&#x40b;" horiz-adv-x="1550" 
d="M39 1434h946l33 -527q210 -6 321 -116.5t111 -280.5v-295q0 -123 26 -156.5t117 -33.5v-25h-1593v25h150q65 0 112 3.5t81.5 9t57 17.5t36 24.5t20 35.5t8.5 44t2 56v1169h-164q-83 0 -114 -17q-52 -27 -82 -140q-36 -139 -83 -637q-10 -101 -24 -260h-25zM641 215
q0 -35 2 -56t8.5 -44t20 -35.5t36 -24.5t57 -17.5t81.5 -9t112 -3.5h21q72 0 117 2t80.5 10.5t53 19.5t29.5 35t14.5 50.5t2.5 72.5v279q0 157 -78 252.5t-221 95.5q-196 0 -336 -156v-471zM641 764q149 140 352 143q-11 78 -17.5 126.5t-16 100.5t-15.5 80.5t-17.5 60
t-19 45t-24 29t-28.5 20t-36 9.5t-44 5.5t-54 0.5h-80v-620z" />
    <glyph glyph-name="uni040B" unicode="&#x45b;" horiz-adv-x="1550" 
d="M39 1434h946l33 -527q210 -6 321 -116.5t111 -280.5v-295q0 -123 26 -156.5t117 -33.5v-25h-1593v25h150q65 0 112 3.5t81.5 9t57 17.5t36 24.5t20 35.5t8.5 44t2 56v1169h-164q-83 0 -114 -17q-52 -27 -82 -140q-36 -139 -83 -637q-10 -101 -24 -260h-25zM641 215
q0 -35 2 -56t8.5 -44t20 -35.5t36 -24.5t57 -17.5t81.5 -9t112 -3.5h21q72 0 117 2t80.5 10.5t53 19.5t29.5 35t14.5 50.5t2.5 72.5v279q0 157 -78 252.5t-221 95.5q-196 0 -336 -156v-471zM641 764q149 140 352 143q-11 78 -17.5 126.5t-16 100.5t-15.5 80.5t-17.5 60
t-19 45t-24 29t-28.5 20t-36 9.5t-44 5.5t-54 0.5h-80v-620z" />
    <glyph glyph-name="uni040C" unicode="&#x40c;" horiz-adv-x="1288" 
d="M0 1434h696v-25q-78 -1 -126 -4t-86 -11.5t-56.5 -19.5t-31 -35t-15 -49.5t-2.5 -70.5v-414l440 414q32 30 53.5 51.5t39 41t23 32.5t8 24t-8 17.5t-24 12t-40.5 7.5t-57.5 3t-75.5 1v25h551v-25q-49 0 -72 -0.5t-56 -8t-49 -16t-52 -34.5t-64 -51.5t-86 -79.5l-159 -148
l313 -676q69 -151 118.5 -237t68.5 -105.5t38 -27.5v-25q-114 -24 -202 58.5t-173 267.5l-290 628l-244 -227v-512q0 -45 3 -71t14.5 -50t30.5 -35t57 -20t86.5 -11.5t125.5 -2.5v-25h-696v25q72 2 109 8t60.5 28.5t29.5 55.5t6 98v1004q0 65 -6 98t-29.5 55.5t-60.5 28.5
t-109 8v25zM559 1608l250 364l72 -59l-303 -320z" />
    <glyph glyph-name="uni040C" unicode="&#x45c;" horiz-adv-x="1288" 
d="M0 1434h696v-25q-78 -1 -126 -4t-86 -11.5t-56.5 -19.5t-31 -35t-15 -49.5t-2.5 -70.5v-414l440 414q32 30 53.5 51.5t39 41t23 32.5t8 24t-8 17.5t-24 12t-40.5 7.5t-57.5 3t-75.5 1v25h551v-25q-49 0 -72 -0.5t-56 -8t-49 -16t-52 -34.5t-64 -51.5t-86 -79.5l-159 -148
l313 -676q69 -151 118.5 -237t68.5 -105.5t38 -27.5v-25q-114 -24 -202 58.5t-173 267.5l-290 628l-244 -227v-512q0 -45 3 -71t14.5 -50t30.5 -35t57 -20t86.5 -11.5t125.5 -2.5v-25h-696v25q72 2 109 8t60.5 28.5t29.5 55.5t6 98v1004q0 65 -6 98t-29.5 55.5t-60.5 28.5
t-109 8v25zM559 1608l250 364l72 -59l-303 -320z" />
    <glyph glyph-name="uni040E" unicode="&#x40e;" horiz-adv-x="1386" 
d="M-117 1434h983v-25q-347 0 -429 -24q-61 -19 -51 -63q7 -27 48 -85l455 -643l373 612q45 73 54.5 108t-29.5 59.5t-122.5 30t-257.5 5.5v25h746v-25q-51 0 -83.5 -2t-63 -12t-48.5 -20.5t-42.5 -38.5t-42.5 -55t-50 -79l-526 -862q-124 -203 -218 -287t-206 -84
q-129 0 -211 77.5t-82 199.5q0 119 79.5 191.5t190.5 72.5q152 0 244 -127l-19 -23q-83 74 -161 74q-66 0 -110 -45.5t-44 -107.5q0 -73 50 -121.5t124 -48.5q70 0 144.5 49.5t136.5 150.5l80 131l-578 797q-46 62 -69 89t-61 49t-81.5 27t-122.5 5v25zM514 1868l858 313
l8 -22q-180 -66 -310.5 -124.5t-201 -99t-111 -78t-51 -60t-10.5 -46.5q0 -62 37 -90.5t98 -28.5q58 0 113.5 25.5t95 81t39.5 129.5h25q0 -119 -83 -195t-212 -76t-212 76t-83 195z" />
    <glyph glyph-name="uni040E" unicode="&#x45e;" horiz-adv-x="1386" 
d="M-117 1434h983v-25q-347 0 -429 -24q-61 -19 -51 -63q7 -27 48 -85l455 -643l373 612q45 73 54.5 108t-29.5 59.5t-122.5 30t-257.5 5.5v25h746v-25q-51 0 -83.5 -2t-63 -12t-48.5 -20.5t-42.5 -38.5t-42.5 -55t-50 -79l-526 -862q-124 -203 -218 -287t-206 -84
q-129 0 -211 77.5t-82 199.5q0 119 79.5 191.5t190.5 72.5q152 0 244 -127l-19 -23q-83 74 -161 74q-66 0 -110 -45.5t-44 -107.5q0 -73 50 -121.5t124 -48.5q70 0 144.5 49.5t136.5 150.5l80 131l-578 797q-46 62 -69 89t-61 49t-81.5 27t-122.5 5v25zM514 1868l858 313
l8 -22q-180 -66 -310.5 -124.5t-201 -99t-111 -78t-51 -60t-10.5 -46.5q0 -62 37 -90.5t98 -28.5q58 0 113.5 25.5t95 81t39.5 129.5h25q0 -119 -83 -195t-212 -76t-212 76t-83 195z" />
    <glyph glyph-name="uni040F" unicode="&#x40f;" horiz-adv-x="1433" 
d="M0 25q72 0 109 5.5t60.5 28t29.5 56.5t6 100v1004q0 65 -6 98t-29.5 55.5t-60.5 28.5t-109 8v25h696v-25q-77 0 -125.5 -2.5t-86.5 -11.5t-57 -20t-30.5 -35t-14.5 -50t-3 -71v-1164h676v1164q0 45 -3 71t-15 50t-31 35t-57 20t-86.5 11.5t-125.5 2.5v25h697v-25
q-71 0 -108.5 -6t-61 -28.5t-29.5 -56.5t-6 -99v-1004q0 -66 6 -100t29.5 -56.5t60.5 -28t109 -5.5v-25h-668l-37 -369h-24l-37 369h-668v25z" />
    <glyph glyph-name="uni040F" unicode="&#x45f;" horiz-adv-x="1433" 
d="M0 25q72 0 109 5.5t60.5 28t29.5 56.5t6 100v1004q0 65 -6 98t-29.5 55.5t-60.5 28.5t-109 8v25h696v-25q-77 0 -125.5 -2.5t-86.5 -11.5t-57 -20t-30.5 -35t-14.5 -50t-3 -71v-1164h676v1164q0 45 -3 71t-15 50t-31 35t-57 20t-86.5 11.5t-125.5 2.5v25h697v-25
q-71 0 -108.5 -6t-61 -28.5t-29.5 -56.5t-6 -99v-1004q0 -66 6 -100t29.5 -56.5t60.5 -28t109 -5.5v-25h-668l-37 -369h-24l-37 369h-668v25z" />
    <glyph glyph-name="uni0410" unicode="&#x410;" horiz-adv-x="1228" 
d="M553 1434q39 10 77 41t56 73l471 -1333q42 -120 74 -155t94 -35v-25h-721v25q82 0 138 1t103.5 5.5t75.5 9.5t48.5 17t28 24t8 33.5t-5 43t-17.5 56.5l-59 168h-707l-63 -168q-18 -47 -24 -72.5t2.5 -50t32 -35t78.5 -19.5t127.5 -11t192.5 -2v-25h-659v25
q64 0 94.5 33.5t79.5 158.5zM238 438h667l-319 912z" />
    <glyph glyph-name="uni0410" unicode="&#x430;" horiz-adv-x="1228" 
d="M553 1434q39 10 77 41t56 73l471 -1333q42 -120 74 -155t94 -35v-25h-721v25q82 0 138 1t103.5 5.5t75.5 9.5t48.5 17t28 24t8 33.5t-5 43t-17.5 56.5l-59 168h-707l-63 -168q-18 -47 -24 -72.5t2.5 -50t32 -35t78.5 -19.5t127.5 -11t192.5 -2v-25h-659v25
q64 0 94.5 33.5t79.5 158.5zM238 438h667l-319 912z" />
    <glyph glyph-name="uni0411" unicode="&#x411;" horiz-adv-x="1290" 
d="M0 1434h1034l-190 -457l-25 8q31 75 49.5 123.5t31 93.5t16 70t-5 47.5t-22 32t-44 16.5t-62.5 8.5t-86 1.5h-317v-1323h186q192 0 305 117.5t113 316.5q0 187 -107.5 289.5t-302.5 102.5q-57 0 -118 -9v41q94 17 186 17q241 0 385.5 -114.5t144.5 -309.5
q0 -233 -157.5 -369.5t-427.5 -136.5h-586v25q72 2 109 8t60.5 28.5t29.5 55.5t6 98v1004q0 65 -6 98t-29.5 55.5t-60.5 28.5t-109 8v25z" />
    <glyph glyph-name="uni0411" unicode="&#x431;" horiz-adv-x="1290" 
d="M0 1434h1034l-190 -457l-25 8q31 75 49.5 123.5t31 93.5t16 70t-5 47.5t-22 32t-44 16.5t-62.5 8.5t-86 1.5h-317v-1323h186q192 0 305 117.5t113 316.5q0 187 -107.5 289.5t-302.5 102.5q-57 0 -118 -9v41q94 17 186 17q241 0 385.5 -114.5t144.5 -309.5
q0 -233 -157.5 -369.5t-427.5 -136.5h-586v25q72 2 109 8t60.5 28.5t29.5 55.5t6 98v1004q0 65 -6 98t-29.5 55.5t-60.5 28.5t-109 8v25z" />
    <glyph glyph-name="uni0412" unicode="&#x412;" horiz-adv-x="1320" 
d="M586 1434q202 0 321 -80t119 -217q0 -98 -57.5 -170.5t-157.5 -104.5q218 -17 343.5 -124.5t125.5 -278.5q0 -212 -156 -335.5t-422 -123.5h-702v25q72 2 109 8t60.5 28.5t29.5 55.5t6 98v1004q0 65 -6 98t-29.5 55.5t-60.5 28.5t-109 8v25h586zM379 55h303
q192 0 305 104t113 279q0 181 -151 285t-435 113l-63 2v30l63 4q332 21 332 256q0 115 -76 182.5t-205 67.5h-186v-1323z" />
    <glyph glyph-name="uni0412" unicode="&#x432;" horiz-adv-x="1320" 
d="M586 1434q202 0 321 -80t119 -217q0 -98 -57.5 -170.5t-157.5 -104.5q218 -17 343.5 -124.5t125.5 -278.5q0 -212 -156 -335.5t-422 -123.5h-702v25q72 2 109 8t60.5 28.5t29.5 55.5t6 98v1004q0 65 -6 98t-29.5 55.5t-60.5 28.5t-109 8v25h586zM379 55h303
q192 0 305 104t113 279q0 181 -151 285t-435 113l-63 2v30l63 4q332 21 332 256q0 115 -76 182.5t-205 67.5h-186v-1323z" />
    <glyph glyph-name="uni0413" unicode="&#x413;" horiz-adv-x="983" 
d="M0 1434h1034l-407 -975l-19 8q202 508 242 673q36 152 -8 199q-33 35 -139 38q-24 1 -62 1h-262v-1163q0 -45 3 -70.5t18.5 -49.5t39 -34.5t73.5 -20t112.5 -12t165.5 -3.5v-25h-791v25q72 2 109 8t60.5 28.5t29.5 55.5t6 98v1004q0 65 -6 98t-29.5 55.5t-60.5 28.5
t-109 8v25z" />
    <glyph glyph-name="uni0413" unicode="&#x433;" horiz-adv-x="983" 
d="M0 1434h1034l-407 -975l-19 8q202 508 242 673q36 152 -8 199q-33 35 -139 38q-24 1 -62 1h-262v-1163q0 -45 3 -70.5t18.5 -49.5t39 -34.5t73.5 -20t112.5 -12t165.5 -3.5v-25h-791v25q72 2 109 8t60.5 28.5t29.5 55.5t6 98v1004q0 65 -6 98t-29.5 55.5t-60.5 28.5
t-109 8v25z" />
    <glyph glyph-name="uni0414" unicode="&#x414;" horiz-adv-x="1382" 
d="M625 1434q39 10 77 41t56 73l528 -1493h182l-264 -465l-20 11q45 96 71 158t36 109t6.5 71.5t-27.5 39t-55 18t-87 3.5h-884q-56 0 -87 -3.5t-55 -18t-27.5 -39t6.5 -71.5t36 -109t71 -158l-20 -11l-264 465h184zM164 55h946l-453 1295z" />
    <glyph glyph-name="uni0414" unicode="&#x434;" horiz-adv-x="1382" 
d="M625 1434q39 10 77 41t56 73l528 -1493h182l-264 -465l-20 11q45 96 71 158t36 109t6.5 71.5t-27.5 39t-55 18t-87 3.5h-884q-56 0 -87 -3.5t-55 -18t-27.5 -39t6.5 -71.5t36 -109t71 -158l-20 -11l-264 465h184zM164 55h946l-453 1295z" />
    <glyph glyph-name="uni0415" unicode="&#x415;" horiz-adv-x="1116" 
d="M0 1434h1010l41 -437l-23 -2q-12 97 -20.5 154t-22 104.5t-26 68.5t-38 36t-51 17.5t-71.5 2.5h-420v-379l518 -16v-25l-518 -20v-883h391q96 0 133 17q62 28 99 137q51 149 108 640q17 146 41 365h25l-89 -1214h-1087v25q72 2 109 8t60.5 28.5t29.5 55.5t6 98v1004
q0 65 -6 98t-29.5 55.5t-60.5 28.5t-109 8v25z" />
    <glyph glyph-name="uni0415" unicode="&#x435;" horiz-adv-x="1116" 
d="M0 1434h1010l41 -437l-23 -2q-12 97 -20.5 154t-22 104.5t-26 68.5t-38 36t-51 17.5t-71.5 2.5h-420v-379l518 -16v-25l-518 -20v-883h391q96 0 133 17q62 28 99 137q51 149 108 640q17 146 41 365h25l-89 -1214h-1087v25q72 2 109 8t60.5 28.5t29.5 55.5t6 98v1004
q0 65 -6 98t-29.5 55.5t-60.5 28.5t-109 8v25z" />
    <glyph glyph-name="uni0416" unicode="&#x416;" horiz-adv-x="1990" 
d="M0 1434h551v-25q-67 0 -107 -2t-67 -9t-33.5 -17.5t3.5 -31t33 -45.5t66 -65l463 -434v414q0 45 -2.5 70.5t-15 49.5t-31 35t-56.5 19.5t-86 11.5t-126 4v25h807v-25q-66 -1 -110 -3.5t-81 -7t-57.5 -15t-36 -22.5t-22 -34.5t-9 -46t-2.5 -61.5v-414l463 434
q32 30 52 50.5t34 39t18 30t-2 21.5t-20 15t-41.5 8.5t-61 4.5t-83.5 1v25h551v-25q-50 0 -72.5 -0.5t-55 -6.5t-47.5 -13.5t-47 -30t-57.5 -46t-75.5 -69.5l-184 -172l313 -676q69 -151 119 -237t69 -105.5t38 -27.5v-25q-114 -24 -202 58.5t-173 267.5l-291 628l-244 -227
v-512q0 -45 3 -71t15 -50t31 -35t57 -20t86.5 -11.5t125.5 -2.5v-25h-807v25q77 0 125.5 2.5t86.5 11.5t57 20t30.5 35t14.5 50t3 71v512l-243 227l-291 -628q-85 -185 -173 -267.5t-202 -58.5v25q19 8 38 27.5t68.5 105.5t118.5 237l314 676l-185 172q-50 47 -75.5 70
t-57.5 45.5t-47 29.5t-47 13.5t-54.5 7t-72.5 0.5v25z" />
    <glyph glyph-name="uni0416" unicode="&#x436;" horiz-adv-x="1990" 
d="M0 1434h551v-25q-67 0 -107 -2t-67 -9t-33.5 -17.5t3.5 -31t33 -45.5t66 -65l463 -434v414q0 45 -2.5 70.5t-15 49.5t-31 35t-56.5 19.5t-86 11.5t-126 4v25h807v-25q-66 -1 -110 -3.5t-81 -7t-57.5 -15t-36 -22.5t-22 -34.5t-9 -46t-2.5 -61.5v-414l463 434
q32 30 52 50.5t34 39t18 30t-2 21.5t-20 15t-41.5 8.5t-61 4.5t-83.5 1v25h551v-25q-50 0 -72.5 -0.5t-55 -6.5t-47.5 -13.5t-47 -30t-57.5 -46t-75.5 -69.5l-184 -172l313 -676q69 -151 119 -237t69 -105.5t38 -27.5v-25q-114 -24 -202 58.5t-173 267.5l-291 628l-244 -227
v-512q0 -45 3 -71t15 -50t31 -35t57 -20t86.5 -11.5t125.5 -2.5v-25h-807v25q77 0 125.5 2.5t86.5 11.5t57 20t30.5 35t14.5 50t3 71v512l-243 227l-291 -628q-85 -185 -173 -267.5t-202 -58.5v25q19 8 38 27.5t68.5 105.5t118.5 237l314 676l-185 172q-50 47 -75.5 70
t-57.5 45.5t-47 29.5t-47 13.5t-54.5 7t-72.5 0.5v25z" />
    <glyph glyph-name="uni0417" unicode="&#x417;" horiz-adv-x="1122" 
d="M170 1313q62 73 157.5 113t202.5 40q147 0 252 -73.5t105 -206.5q0 -89 -55.5 -166.5t-155.5 -116.5q79 -9 149.5 -41t125.5 -84t87.5 -130t32.5 -171q0 -100 -43 -191t-116.5 -158t-178 -106.5t-221.5 -39.5q-170 0 -298.5 76t-193.5 192l183 502l22 -9
q-42 -121 -58 -222.5t-9.5 -173t30 -127.5t57 -89.5t77 -55.5t83.5 -30t82 -8q77 0 149 29t128 80.5t89.5 130.5t33.5 172q0 191 -118.5 296t-346.5 105q-45 0 -68 -2v24q182 29 277.5 111.5t95.5 202.5q0 102 -64 163.5t-155 61.5q-55 0 -107 -25.5t-97.5 -75.5t-75 -136.5
t-33.5 -196.5h-25v336z" />
    <glyph glyph-name="uni0417" unicode="&#x437;" horiz-adv-x="1122" 
d="M170 1313q62 73 157.5 113t202.5 40q147 0 252 -73.5t105 -206.5q0 -89 -55.5 -166.5t-155.5 -116.5q79 -9 149.5 -41t125.5 -84t87.5 -130t32.5 -171q0 -100 -43 -191t-116.5 -158t-178 -106.5t-221.5 -39.5q-170 0 -298.5 76t-193.5 192l183 502l22 -9
q-42 -121 -58 -222.5t-9.5 -173t30 -127.5t57 -89.5t77 -55.5t83.5 -30t82 -8q77 0 149 29t128 80.5t89.5 130.5t33.5 172q0 191 -118.5 296t-346.5 105q-45 0 -68 -2v24q182 29 277.5 111.5t95.5 202.5q0 102 -64 163.5t-155 61.5q-55 0 -107 -25.5t-97.5 -75.5t-75 -136.5
t-33.5 -196.5h-25v336z" />
    <glyph glyph-name="uni0418" unicode="&#x418;" horiz-adv-x="1495" 
d="M0 1434h881v-25q-125 0 -203.5 -2.5t-138 -11.5t-89 -19.5t-47 -35.5t-21 -50t-3.5 -71v-926l1087 1372l17 -14q-42 -56 -71.5 -102t-51 -82t-34.5 -76t-20.5 -66.5t-11 -72t-4 -73.5t-0.5 -89v-875q0 -65 6 -98t29.5 -55.5t60.5 -28.5t109 -8v-25h-881v25
q125 0 203.5 2.5t138 11.5t89 19.5t47 35.5t21 50t3.5 71v918l-1089 -1375l-17 15q49 65 82 115t55 98.5t33.5 80.5t17 83t6.5 83.5t1 102.5v883q0 65 -6 98t-29.5 55.5t-60.5 28.5t-109 8v25z" />
    <glyph glyph-name="uni0418" unicode="&#x438;" horiz-adv-x="1495" 
d="M0 1434h881v-25q-125 0 -203.5 -2.5t-138 -11.5t-89 -19.5t-47 -35.5t-21 -50t-3.5 -71v-926l1087 1372l17 -14q-42 -56 -71.5 -102t-51 -82t-34.5 -76t-20.5 -66.5t-11 -72t-4 -73.5t-0.5 -89v-875q0 -65 6 -98t29.5 -55.5t60.5 -28.5t109 -8v-25h-881v25
q125 0 203.5 2.5t138 11.5t89 19.5t47 35.5t21 50t3.5 71v918l-1089 -1375l-17 15q49 65 82 115t55 98.5t33.5 80.5t17 83t6.5 83.5t1 102.5v883q0 65 -6 98t-29.5 55.5t-60.5 28.5t-109 8v25z" />
    <glyph glyph-name="uni0419" unicode="&#x419;" horiz-adv-x="1495" 
d="M0 1434h881v-25q-125 0 -203.5 -2.5t-138 -11.5t-89 -19.5t-47 -35.5t-21 -50t-3.5 -71v-926l1087 1372l17 -14q-42 -56 -71.5 -102t-51 -82t-34.5 -76t-20.5 -66.5t-11 -72t-4 -73.5t-0.5 -89v-875q0 -65 6 -98t29.5 -55.5t60.5 -28.5t109 -8v-25h-881v25
q125 0 203.5 2.5t138 11.5t89 19.5t47 35.5t21 50t3.5 71v918l-1089 -1375l-17 15q49 65 82 115t55 98.5t33.5 80.5t17 83t6.5 83.5t1 102.5v883q0 65 -6 98t-29.5 55.5t-60.5 28.5t-109 8v25zM453 1868l858 313l8 -22q-180 -66 -310.5 -124.5t-201 -99t-111 -78t-51 -60
t-10.5 -46.5q0 -62 37 -90.5t98 -28.5q58 0 113.5 25.5t95 81t39.5 129.5h24q0 -119 -82.5 -195t-211.5 -76t-212 76t-83 195z" />
    <glyph glyph-name="uni0419" unicode="&#x439;" horiz-adv-x="1495" 
d="M0 1434h881v-25q-125 0 -203.5 -2.5t-138 -11.5t-89 -19.5t-47 -35.5t-21 -50t-3.5 -71v-926l1087 1372l17 -14q-42 -56 -71.5 -102t-51 -82t-34.5 -76t-20.5 -66.5t-11 -72t-4 -73.5t-0.5 -89v-875q0 -65 6 -98t29.5 -55.5t60.5 -28.5t109 -8v-25h-881v25
q125 0 203.5 2.5t138 11.5t89 19.5t47 35.5t21 50t3.5 71v918l-1089 -1375l-17 15q49 65 82 115t55 98.5t33.5 80.5t17 83t6.5 83.5t1 102.5v883q0 65 -6 98t-29.5 55.5t-60.5 28.5t-109 8v25zM453 1868l858 313l8 -22q-180 -66 -310.5 -124.5t-201 -99t-111 -78t-51 -60
t-10.5 -46.5q0 -62 37 -90.5t98 -28.5q58 0 113.5 25.5t95 81t39.5 129.5h24q0 -119 -82.5 -195t-211.5 -76t-212 76t-83 195z" />
    <glyph glyph-name="uni041A" unicode="&#x41a;" horiz-adv-x="1288" 
d="M0 1434h696v-25q-78 -1 -126 -4t-86 -11.5t-56.5 -19.5t-31 -35t-15 -49.5t-2.5 -70.5v-414l440 414q32 30 53.5 51.5t39 41t23 32.5t8 24t-8 17.5t-24 12t-40.5 7.5t-57.5 3t-75.5 1v25h551v-25q-49 0 -72 -0.5t-56 -8t-49 -16t-52 -34.5t-64 -51.5t-86 -79.5l-159 -148
l313 -676q69 -151 118.5 -237t68.5 -105.5t38 -27.5v-25q-114 -24 -202 58.5t-173 267.5l-290 628l-244 -227v-512q0 -45 3 -71t14.5 -50t30.5 -35t57 -20t86.5 -11.5t125.5 -2.5v-25h-696v25q72 2 109 8t60.5 28.5t29.5 55.5t6 98v1004q0 65 -6 98t-29.5 55.5t-60.5 28.5
t-109 8v25z" />
    <glyph glyph-name="uni041A" unicode="&#x43a;" horiz-adv-x="1288" 
d="M0 1434h696v-25q-78 -1 -126 -4t-86 -11.5t-56.5 -19.5t-31 -35t-15 -49.5t-2.5 -70.5v-414l440 414q32 30 53.5 51.5t39 41t23 32.5t8 24t-8 17.5t-24 12t-40.5 7.5t-57.5 3t-75.5 1v25h551v-25q-49 0 -72 -0.5t-56 -8t-49 -16t-52 -34.5t-64 -51.5t-86 -79.5l-159 -148
l313 -676q69 -151 118.5 -237t68.5 -105.5t38 -27.5v-25q-114 -24 -202 58.5t-173 267.5l-290 628l-244 -227v-512q0 -45 3 -71t14.5 -50t30.5 -35t57 -20t86.5 -11.5t125.5 -2.5v-25h-696v25q72 2 109 8t60.5 28.5t29.5 55.5t6 98v1004q0 65 -6 98t-29.5 55.5t-60.5 28.5
t-109 8v25z" />
    <glyph glyph-name="uni041B" unicode="&#x41b;" horiz-adv-x="1187" 
d="M1264 0h-701v25q106 0 170.5 2t113 11t69.5 19.5t28.5 35t2 50t-20.5 72.5l-387 1139l-430 -1153q-31 -82 -20 -111q14 -41 117 -54q87 -11 316 -11v-25h-639v25q63 0 93 31t71 139l465 1239q39 10 77 41t56 73l455 -1333q40 -122 70.5 -156t93.5 -34v-25z" />
    <glyph glyph-name="uni041B" unicode="&#x43b;" horiz-adv-x="1187" 
d="M1264 0h-701v25q106 0 170.5 2t113 11t69.5 19.5t28.5 35t2 50t-20.5 72.5l-387 1139l-430 -1153q-31 -82 -20 -111q14 -41 117 -54q87 -11 316 -11v-25h-639v25q63 0 93 31t71 139l465 1239q39 10 77 41t56 73l455 -1333q40 -122 70.5 -156t93.5 -34v-25z" />
    <glyph glyph-name="uni041C" unicode="&#x41c;" horiz-adv-x="1720" 
d="M86 1626l20 12l773 -1237l727 1241l20 -12q-54 -100 -75 -164.5t-28 -151t-7 -280.5v-819q0 -65 6 -98.5t29 -56.5t60.5 -29t108.5 -6v-25h-843v25q86 0 146.5 1t111.5 6t82.5 10t56 17.5t36.5 24t20 33.5t9.5 43t1.5 55v866l-528 -901h-4l-549 883v-848q0 -34 1.5 -54.5
t10 -42.5t21 -33.5t39 -23.5t59.5 -17t88 -10t118.5 -6.5t156.5 -2.5v-25h-754v25q72 2 109 8t60.5 28.5t29.5 55.5t6 98v815q0 90 -0.5 122.5t-2 93t-6.5 85t-12.5 67t-21 73t-31.5 69.5t-45 86z" />
    <glyph glyph-name="uni041C" unicode="&#x43c;" horiz-adv-x="1720" 
d="M86 1626l20 12l773 -1237l727 1241l20 -12q-54 -100 -75 -164.5t-28 -151t-7 -280.5v-819q0 -65 6 -98.5t29 -56.5t60.5 -29t108.5 -6v-25h-843v25q86 0 146.5 1t111.5 6t82.5 10t56 17.5t36.5 24t20 33.5t9.5 43t1.5 55v866l-528 -901h-4l-549 883v-848q0 -34 1.5 -54.5
t10 -42.5t21 -33.5t39 -23.5t59.5 -17t88 -10t118.5 -6.5t156.5 -2.5v-25h-754v25q72 2 109 8t60.5 28.5t29.5 55.5t6 98v815q0 90 -0.5 122.5t-2 93t-6.5 85t-12.5 67t-21 73t-31.5 69.5t-45 86z" />
    <glyph glyph-name="uni041D" unicode="&#x41d;" horiz-adv-x="1433" 
d="M737 1434h697v-25q-72 0 -109 -5.5t-60.5 -28t-29.5 -56.5t-6 -100v-1004q0 -65 6 -99t29.5 -56.5t61 -28.5t108.5 -6v-25h-697v25q77 0 125.5 2.5t86.5 11.5t57 20t31 35t15 50t3 71v727h-676v-727q0 -45 3 -71t14.5 -50t30.5 -35t57 -20t86.5 -11.5t125.5 -2.5v-25
h-696v25q72 2 109 8t60.5 28.5t29.5 55.5t6 98v1004q0 65 -6 98t-29.5 55.5t-60.5 28.5t-109 8v25h696v-25q-78 -1 -126 -4t-86 -11.5t-56.5 -19.5t-31 -35t-15 -49.5t-2.5 -70.5v-222h676v222q0 39 -2.5 63t-9 47t-22 35t-36 22.5t-57.5 14.5t-80.5 6t-110.5 2v25z" />
    <glyph glyph-name="uni041D" unicode="&#x43d;" horiz-adv-x="1433" 
d="M737 1434h697v-25q-72 0 -109 -5.5t-60.5 -28t-29.5 -56.5t-6 -100v-1004q0 -65 6 -99t29.5 -56.5t61 -28.5t108.5 -6v-25h-697v25q77 0 125.5 2.5t86.5 11.5t57 20t31 35t15 50t3 71v727h-676v-727q0 -45 3 -71t14.5 -50t30.5 -35t57 -20t86.5 -11.5t125.5 -2.5v-25
h-696v25q72 2 109 8t60.5 28.5t29.5 55.5t6 98v1004q0 65 -6 98t-29.5 55.5t-60.5 28.5t-109 8v25h696v-25q-78 -1 -126 -4t-86 -11.5t-56.5 -19.5t-31 -35t-15 -49.5t-2.5 -70.5v-222h676v222q0 39 -2.5 63t-9 47t-22 35t-36 22.5t-57.5 14.5t-80.5 6t-110.5 2v25z" />
    <glyph glyph-name="uni041E" unicode="&#x41e;" horiz-adv-x="1638" 
d="M819 -33q-208 0 -382 101t-275 275t-101 382t101 382t275 275t382 101t382 -101t275 -275t101 -382t-101 -382t-275 -275t-382 -101zM246 649q0 -174 65.5 -316.5t183 -224t263.5 -81.5q95 0 182.5 31t156.5 85t125 128t93.5 160t57.5 180.5t20 189.5q0 174 -65.5 316.5
t-183 224t-263.5 81.5q-95 0 -182.5 -31t-156.5 -85t-125 -128t-93.5 -160t-57.5 -180.5t-20 -189.5z" />
    <glyph glyph-name="uni041E" unicode="&#x43e;" horiz-adv-x="1638" 
d="M819 -33q-208 0 -382 101t-275 275t-101 382t101 382t275 275t382 101t382 -101t275 -275t101 -382t-101 -382t-275 -275t-382 -101zM246 649q0 -174 65.5 -316.5t183 -224t263.5 -81.5q95 0 182.5 31t156.5 85t125 128t93.5 160t57.5 180.5t20 189.5q0 174 -65.5 316.5
t-183 224t-263.5 81.5q-95 0 -182.5 -31t-156.5 -85t-125 -128t-93.5 -160t-57.5 -180.5t-20 -189.5z" />
    <glyph glyph-name="uni041F" unicode="&#x41f;" horiz-adv-x="1433" 
d="M0 1434h1434v-25q-72 0 -109 -5.5t-60.5 -28t-29.5 -56.5t-6 -100v-1004q0 -65 6 -99t29.5 -56.5t61 -28.5t108.5 -6v-25h-697v25q77 0 125.5 2.5t86.5 11.5t57 20t31 35t15 50t3 71v1163h-676v-1163q0 -45 3 -71t14.5 -50t30.5 -35t57 -20t86.5 -11.5t125.5 -2.5v-25
h-696v25q72 2 109 8t60.5 28.5t29.5 55.5t6 98v1004q0 66 -6 100t-29.5 56.5t-60.5 28t-109 5.5v25z" />
    <glyph glyph-name="uni041F" unicode="&#x43f;" horiz-adv-x="1433" 
d="M0 1434h1434v-25q-72 0 -109 -5.5t-60.5 -28t-29.5 -56.5t-6 -100v-1004q0 -65 6 -99t29.5 -56.5t61 -28.5t108.5 -6v-25h-697v25q77 0 125.5 2.5t86.5 11.5t57 20t31 35t15 50t3 71v1163h-676v-1163q0 -45 3 -71t14.5 -50t30.5 -35t57 -20t86.5 -11.5t125.5 -2.5v-25
h-696v25q72 2 109 8t60.5 28.5t29.5 55.5t6 98v1004q0 66 -6 100t-29.5 56.5t-60.5 28t-109 5.5v25z" />
    <glyph glyph-name="uni0420" unicode="&#x420;" horiz-adv-x="1210" 
d="M584 1434q281 0 433 -117.5t152 -335.5q0 -212 -147 -338.5t-391 -126.5q-53 0 -109 6v41h8q212 0 331.5 106.5t119.5 295.5q0 195 -110.5 304t-307.5 109h-184v-1163q0 -45 2.5 -70.5t15 -49t31 -34.5t56.5 -19.5t86 -10.5t126 -2v-29h-696v25q72 2 109 8t60.5 28.5
t29.5 55.5t6 98v1004q0 66 -6 100t-29.5 56.5t-60.5 28t-109 5.5v25h584z" />
    <glyph glyph-name="uni0420" unicode="&#x440;" horiz-adv-x="1210" 
d="M584 1434q281 0 433 -117.5t152 -335.5q0 -212 -147 -338.5t-391 -126.5q-53 0 -109 6v41h8q212 0 331.5 106.5t119.5 295.5q0 195 -110.5 304t-307.5 109h-184v-1163q0 -45 2.5 -70.5t15 -49t31 -34.5t56.5 -19.5t86 -10.5t126 -2v-29h-696v25q72 2 109 8t60.5 28.5
t29.5 55.5t6 98v1004q0 66 -6 100t-29.5 56.5t-60.5 28t-109 5.5v25h584z" />
    <glyph glyph-name="uni0421" unicode="&#x421;" horiz-adv-x="1488" 
d="M1386 1247l-225 -620l-22 8q91 274 82 450t-95 259t-245 83q-142 0 -263.5 -68t-201.5 -178.5t-125 -249t-45 -282.5q0 -141 51 -260.5t135 -198.5t192 -123t224 -44q72 0 140 22.5t132.5 72.5t114.5 122t84 178.5t43 234.5h24v-450q-108 -108 -256 -172t-315 -64
q-156 0 -295.5 59.5t-240 161t-159.5 241.5t-59 296t59 296t159.5 241.5t240 161t295.5 59.5q167 0 315 -64t256 -172z" />
    <glyph glyph-name="uni0421" unicode="&#x441;" horiz-adv-x="1488" 
d="M1386 1247l-225 -620l-22 8q91 274 82 450t-95 259t-245 83q-142 0 -263.5 -68t-201.5 -178.5t-125 -249t-45 -282.5q0 -141 51 -260.5t135 -198.5t192 -123t224 -44q72 0 140 22.5t132.5 72.5t114.5 122t84 178.5t43 234.5h24v-450q-108 -108 -256 -172t-315 -64
q-156 0 -295.5 59.5t-240 161t-159.5 241.5t-59 296t59 296t159.5 241.5t240 161t295.5 59.5q167 0 315 -64t256 -172z" />
    <glyph glyph-name="uni0422" unicode="&#x422;" horiz-adv-x="1024" 
d="M39 1434h1028l63 -1104h-24q-58 642 -89 813q-31 167 -80 211q-33 28 -108 30h-26h-162v-1169q0 -35 2 -56t8.5 -44t20 -35.5t36 -24.5t57 -17.5t81.5 -9t112 -3.5h148v-25h-1106v25h150q65 0 112 3.5t81.5 9t57 17.5t36 24.5t20 35.5t8.5 44t2 56v1169h-164
q-83 0 -114 -17q-52 -27 -82 -140q-36 -139 -83 -637q-10 -101 -24 -260h-25z" />
    <glyph glyph-name="uni0422" unicode="&#x442;" horiz-adv-x="1024" 
d="M39 1434h1028l63 -1104h-24q-58 642 -89 813q-31 167 -80 211q-33 28 -108 30h-26h-162v-1169q0 -35 2 -56t8.5 -44t20 -35.5t36 -24.5t57 -17.5t81.5 -9t112 -3.5h148v-25h-1106v25h150q65 0 112 3.5t81.5 9t57 17.5t36 24.5t20 35.5t8.5 44t2 56v1169h-164
q-83 0 -114 -17q-52 -27 -82 -140q-36 -139 -83 -637q-10 -101 -24 -260h-25z" />
    <glyph glyph-name="uni0423" unicode="&#x423;" horiz-adv-x="1386" 
d="M-117 1434h983v-25q-347 0 -429 -24q-61 -19 -51 -63q7 -27 48 -85l455 -643l373 612q45 73 54.5 108t-29.5 59.5t-122.5 30t-257.5 5.5v25h746v-25q-51 0 -83.5 -2t-63 -12t-48.5 -20.5t-42.5 -38.5t-42.5 -55t-50 -79l-526 -862q-124 -203 -218 -287t-206 -84
q-129 0 -211 77.5t-82 199.5q0 119 79.5 191.5t190.5 72.5q152 0 244 -127l-19 -23q-83 74 -161 74q-66 0 -110 -45.5t-44 -107.5q0 -73 50 -121.5t124 -48.5q70 0 144.5 49.5t136.5 150.5l80 131l-578 797q-46 62 -69 89t-61 49t-81.5 27t-122.5 5v25z" />
    <glyph glyph-name="uni0423" unicode="&#x443;" horiz-adv-x="1386" 
d="M-117 1434h983v-25q-347 0 -429 -24q-61 -19 -51 -63q7 -27 48 -85l455 -643l373 612q45 73 54.5 108t-29.5 59.5t-122.5 30t-257.5 5.5v25h746v-25q-51 0 -83.5 -2t-63 -12t-48.5 -20.5t-42.5 -38.5t-42.5 -55t-50 -79l-526 -862q-124 -203 -218 -287t-206 -84
q-129 0 -211 77.5t-82 199.5q0 119 79.5 191.5t190.5 72.5q152 0 244 -127l-19 -23q-83 74 -161 74q-66 0 -110 -45.5t-44 -107.5q0 -73 50 -121.5t124 -48.5q70 0 144.5 49.5t136.5 150.5l80 131l-578 797q-46 62 -69 89t-61 49t-81.5 27t-122.5 5v25z" />
    <glyph glyph-name="uni0424" unicode="&#x424;" horiz-adv-x="1773" 
d="M348 1763q119 -73 177 -109t141 -73.5t117.5 -49.5t105.5 -12t106 12t119 49.5t143.5 73.5t180.5 109l10 -18q-287 -166 -352 -213q-86 -61 -107 -116q-10 -27 -12 -66q225 -15 399.5 -97t270.5 -216.5t96 -301.5t-96 -301.5t-270.5 -215.5t-399.5 -95q7 -84 79.5 -142.5
t362.5 -227.5q19 -11 29 -17l-10 -19q-124 74 -180 108t-142.5 72t-117.5 49.5t-105 11.5t-105 -11.5t-117.5 -49.5t-142.5 -72t-180 -108l-10 19q283 168 347 214q85 62 106 117q9 24 12 56q-227 14 -402 95t-272.5 216t-97.5 303t97.5 303t273 216t401.5 94
q-4 90 -73.5 148t-357.5 227q-23 13 -34 20zM215 676q0 -207 160 -341t428 -157v1116q-162 -15 -297.5 -102.5t-213 -224t-77.5 -291.5zM977 178q161 17 295 105t210.5 224t76.5 290q0 205 -158 338.5t-424 158.5v-1116z" />
    <glyph glyph-name="uni0424" unicode="&#x444;" horiz-adv-x="1773" 
d="M348 1763q119 -73 177 -109t141 -73.5t117.5 -49.5t105.5 -12t106 12t119 49.5t143.5 73.5t180.5 109l10 -18q-287 -166 -352 -213q-86 -61 -107 -116q-10 -27 -12 -66q225 -15 399.5 -97t270.5 -216.5t96 -301.5t-96 -301.5t-270.5 -215.5t-399.5 -95q7 -84 79.5 -142.5
t362.5 -227.5q19 -11 29 -17l-10 -19q-124 74 -180 108t-142.5 72t-117.5 49.5t-105 11.5t-105 -11.5t-117.5 -49.5t-142.5 -72t-180 -108l-10 19q283 168 347 214q85 62 106 117q9 24 12 56q-227 14 -402 95t-272.5 216t-97.5 303t97.5 303t273 216t401.5 94
q-4 90 -73.5 148t-357.5 227q-23 13 -34 20zM215 676q0 -207 160 -341t428 -157v1116q-162 -15 -297.5 -102.5t-213 -224t-77.5 -291.5zM977 178q161 17 295 105t210.5 224t76.5 290q0 205 -158 338.5t-424 158.5v-1116z" />
    <glyph glyph-name="uni0425" unicode="&#x425;" horiz-adv-x="1316" 
d="M-45 1434h1335v-21q-50 0 -77.5 -5t-60 -29.5t-58 -56.5t-78.5 -105l-291 -408l438 -592q99 -132 139.5 -164.5t112.5 -32.5v-20h-1497v20q41 0 67.5 5t49 14t47.5 35t47.5 54.5t63.5 86.5l368 522l-354 480q-99 132 -139.5 164t-112.5 32v21zM227 168q-47 -67 -36 -93
q15 -37 157 -48q95 -7 297 -7q287 0 349 26q46 19 24 66q-9 21 -35 56l-387 522zM387 1266l303 -410l291 410q49 71 38 97q-16 36 -152 45q-76 5 -222 5q-231 0 -280 -25q-39 -20 -11 -72q11 -20 33 -50z" />
    <glyph glyph-name="uni0425" unicode="&#x445;" horiz-adv-x="1316" 
d="M-45 1434h1335v-21q-50 0 -77.5 -5t-60 -29.5t-58 -56.5t-78.5 -105l-291 -408l438 -592q99 -132 139.5 -164.5t112.5 -32.5v-20h-1497v20q41 0 67.5 5t49 14t47.5 35t47.5 54.5t63.5 86.5l368 522l-354 480q-99 132 -139.5 164t-112.5 32v21zM227 168q-47 -67 -36 -93
q15 -37 157 -48q95 -7 297 -7q287 0 349 26q46 19 24 66q-9 21 -35 56l-387 522zM387 1266l303 -410l291 410q49 71 38 97q-16 36 -152 45q-76 5 -222 5q-231 0 -280 -25q-39 -20 -11 -72q11 -20 33 -50z" />
    <glyph glyph-name="uni0426" unicode="&#x426;" horiz-adv-x="1433" 
d="M0 1434h696v-25q-77 0 -125.5 -2.5t-86.5 -11.5t-57 -20t-30.5 -35t-14.5 -50t-3 -71v-1170h676v1170q0 45 -3 71t-15 50t-31 35t-57 20t-86.5 11.5t-125.5 2.5v25h697v-25q-71 0 -108.5 -6t-61 -28.5t-29.5 -56.5t-6 -99v-1170h233l-260 -459l-20 11q45 96 71 158
t36 109t6.5 71.5t-27.5 39t-55 18t-87 3.5h-1126v25q72 2 109 8t60.5 28.5t29.5 55.5t6 98v1004q0 65 -6 98t-29.5 55.5t-60.5 28.5t-109 8v25z" />
    <glyph glyph-name="uni0426" unicode="&#x446;" horiz-adv-x="1433" 
d="M0 1434h696v-25q-77 0 -125.5 -2.5t-86.5 -11.5t-57 -20t-30.5 -35t-14.5 -50t-3 -71v-1170h676v1170q0 45 -3 71t-15 50t-31 35t-57 20t-86.5 11.5t-125.5 2.5v25h697v-25q-71 0 -108.5 -6t-61 -28.5t-29.5 -56.5t-6 -99v-1170h233l-260 -459l-20 11q45 96 71 158
t36 109t6.5 71.5t-27.5 39t-55 18t-87 3.5h-1126v25q72 2 109 8t60.5 28.5t29.5 55.5t6 98v1004q0 65 -6 98t-29.5 55.5t-60.5 28.5t-109 8v25z" />
    <glyph glyph-name="uni0427" unicode="&#x427;" horiz-adv-x="1331" 
d="M0 1434h614v-25q-72 0 -117 -2t-80.5 -10.5t-53 -19.5t-29.5 -35t-14.5 -50.5t-2.5 -72.5v-238q0 -157 78 -252.5t221 -95.5q197 0 336 155v431q0 46 -2.5 72.5t-14.5 50.5t-29.5 35t-53 19.5t-80.5 10.5t-117 2v25h676v-25q-72 0 -109 -5.5t-60.5 -28t-29.5 -56.5
t-6 -100v-1004q0 -65 6 -99t29.5 -56.5t61 -28.5t108.5 -6v-25h-696v25q77 0 125.5 2.5t86.5 11.5t57 20t30.5 35t14.5 50t3 71v496q-151 -144 -358 -144q-218 0 -334.5 112.5t-116.5 285.5v254q0 123 -26 156.5t-117 33.5v25z" />
    <glyph glyph-name="uni0427" unicode="&#x447;" horiz-adv-x="1331" 
d="M0 1434h614v-25q-72 0 -117 -2t-80.5 -10.5t-53 -19.5t-29.5 -35t-14.5 -50.5t-2.5 -72.5v-238q0 -157 78 -252.5t221 -95.5q197 0 336 155v431q0 46 -2.5 72.5t-14.5 50.5t-29.5 35t-53 19.5t-80.5 10.5t-117 2v25h676v-25q-72 0 -109 -5.5t-60.5 -28t-29.5 -56.5
t-6 -100v-1004q0 -65 6 -99t29.5 -56.5t61 -28.5t108.5 -6v-25h-696v25q77 0 125.5 2.5t86.5 11.5t57 20t30.5 35t14.5 50t3 71v496q-151 -144 -358 -144q-218 0 -334.5 112.5t-116.5 285.5v254q0 123 -26 156.5t-117 33.5v25z" />
    <glyph glyph-name="uni0428" unicode="&#x428;" horiz-adv-x="1849" 
d="M0 1434h590v-25q-58 -1 -92 -6t-59 -15.5t-36 -33.5t-15.5 -53t-4.5 -82v-1164h455v1164q0 65 -6 98t-30 55.5t-62 28.5t-111 8v25h592v-25q-73 -2 -111 -8t-62 -28.5t-30 -55.5t-6 -98v-1164h454v1164q0 43 -2.5 70t-11 50t-21 34.5t-37.5 20t-55.5 11.5t-78.5 4v25h587
v-25q-58 -1 -92 -6t-59 -15.5t-36 -33.5t-15.5 -53t-4.5 -82v-1004q0 -65 6 -98t30 -55.5t62 -28.5t111 -8v-25h-1849v25q73 2 111 8t62 28.5t30 55.5t6 98v1004q0 65 -6 98t-30 55.5t-62 28.5t-111 8v25z" />
    <glyph glyph-name="uni0428" unicode="&#x448;" horiz-adv-x="1849" 
d="M0 1434h590v-25q-58 -1 -92 -6t-59 -15.5t-36 -33.5t-15.5 -53t-4.5 -82v-1164h455v1164q0 65 -6 98t-30 55.5t-62 28.5t-111 8v25h592v-25q-73 -2 -111 -8t-62 -28.5t-30 -55.5t-6 -98v-1164h454v1164q0 43 -2.5 70t-11 50t-21 34.5t-37.5 20t-55.5 11.5t-78.5 4v25h587
v-25q-58 -1 -92 -6t-59 -15.5t-36 -33.5t-15.5 -53t-4.5 -82v-1004q0 -65 6 -98t30 -55.5t62 -28.5t111 -8v-25h-1849v25q73 2 111 8t62 28.5t30 55.5t6 98v1004q0 65 -6 98t-30 55.5t-62 28.5t-111 8v25z" />
    <glyph glyph-name="uni0429" unicode="&#x429;" horiz-adv-x="1849" 
d="M0 1434h590v-25q-58 -1 -92 -6t-59 -15.5t-36 -33.5t-15.5 -53t-4.5 -82v-1164h455v1164q0 65 -6 98t-30 55.5t-62 28.5t-111 8v25h592v-25q-73 -2 -111 -8t-62 -28.5t-30 -55.5t-6 -98v-1164h454v1164q0 43 -2.5 70t-11 50t-21 34.5t-37.5 20t-55.5 11.5t-78.5 4v25h587
v-25q-58 -1 -92 -6t-59 -15.5t-36 -33.5t-15.5 -53t-4.5 -82v-1170h234l-260 -459l-21 11q34 72 56.5 123.5t36.5 94.5t19.5 70.5t0 49t-16 32.5t-34 18t-49.5 9t-68 2h-1538v25q73 2 111 8t62 28.5t30 55.5t6 98v1004q0 65 -6 98t-30 55.5t-62 28.5t-111 8v25z" />
    <glyph glyph-name="uni0429" unicode="&#x449;" horiz-adv-x="1849" 
d="M0 1434h590v-25q-58 -1 -92 -6t-59 -15.5t-36 -33.5t-15.5 -53t-4.5 -82v-1164h455v1164q0 65 -6 98t-30 55.5t-62 28.5t-111 8v25h592v-25q-73 -2 -111 -8t-62 -28.5t-30 -55.5t-6 -98v-1164h454v1164q0 43 -2.5 70t-11 50t-21 34.5t-37.5 20t-55.5 11.5t-78.5 4v25h587
v-25q-58 -1 -92 -6t-59 -15.5t-36 -33.5t-15.5 -53t-4.5 -82v-1170h234l-260 -459l-21 11q34 72 56.5 123.5t36.5 94.5t19.5 70.5t0 49t-16 32.5t-34 18t-49.5 9t-68 2h-1538v25q73 2 111 8t62 28.5t30 55.5t6 98v1004q0 65 -6 98t-30 55.5t-62 28.5t-111 8v25z" />
    <glyph glyph-name="uni042A" unicode="&#x42a;" horiz-adv-x="1361" 
d="M-6 1434h917v-21q-70 0 -118.5 -1t-90.5 -5t-67.5 -9t-46 -16t-30.5 -22t-16.5 -31t-8 -39.5t-1.5 -50.5v-1184h183q192 0 305 117.5t113 316.5q0 187 -107.5 289.5t-302.5 102.5q-57 0 -119 -9v41q94 17 187 17q241 0 385.5 -114.5t144.5 -309.5q0 -238 -157 -372
t-429 -134h-602v25q64 0 101.5 4t64.5 13.5t38.5 31t16 49t4.5 76.5v1179h-96q-87 0 -119 -19q-52 -32 -63 -155q-15 -159 30 -698q7 -78 15 -174l-25 -2z" />
    <glyph glyph-name="uni042A" unicode="&#x44a;" horiz-adv-x="1361" 
d="M-6 1434h917v-21q-70 0 -118.5 -1t-90.5 -5t-67.5 -9t-46 -16t-30.5 -22t-16.5 -31t-8 -39.5t-1.5 -50.5v-1184h183q192 0 305 117.5t113 316.5q0 187 -107.5 289.5t-302.5 102.5q-57 0 -119 -9v41q94 17 187 17q241 0 385.5 -114.5t144.5 -309.5q0 -238 -157 -372
t-429 -134h-602v25q64 0 101.5 4t64.5 13.5t38.5 31t16 49t4.5 76.5v1179h-96q-87 0 -119 -19q-52 -32 -63 -155q-15 -159 30 -698q7 -78 15 -174l-25 -2z" />
    <glyph glyph-name="uni042B" unicode="&#x42b;" horiz-adv-x="1835" 
d="M938 1434h897v-25q-71 0 -108.5 -5.5t-61 -25.5t-29.5 -50.5t-6 -88.5v-1040q0 -58 6.5 -89t29 -52t61 -27t108.5 -6v-25h-584v25q70 0 108.5 6t61 27t29 52t6.5 89v1040q0 41 -3.5 63t-21.5 45t-48 32t-91.5 17.5t-143 10.5t-210.5 2v25zM0 0v25q58 0 92 4t58.5 13.5
t35 31t15 49.5t4.5 76v1040q0 57 -6 86.5t-29.5 49.5t-61 26t-108.5 8v25h897v-25q-128 0 -210.5 -2.5t-143 -11t-91 -18t-48.5 -32t-21.5 -44.5t-3.5 -62v-1184h186q192 0 305 117.5t113 316.5q0 187 -107.5 289.5t-302.5 102.5q-57 0 -118 -9v41q94 17 176 17
q115 0 211.5 -26.5t170 -79.5t115 -139.5t41.5 -199.5q0 -224 -157.5 -354.5t-427.5 -130.5h-584z" />
    <glyph glyph-name="uni042B" unicode="&#x44b;" horiz-adv-x="1835" 
d="M938 1434h897v-25q-71 0 -108.5 -5.5t-61 -25.5t-29.5 -50.5t-6 -88.5v-1040q0 -58 6.5 -89t29 -52t61 -27t108.5 -6v-25h-584v25q70 0 108.5 6t61 27t29 52t6.5 89v1040q0 41 -3.5 63t-21.5 45t-48 32t-91.5 17.5t-143 10.5t-210.5 2v25zM0 0v25q58 0 92 4t58.5 13.5
t35 31t15 49.5t4.5 76v1040q0 57 -6 86.5t-29.5 49.5t-61 26t-108.5 8v25h897v-25q-128 0 -210.5 -2.5t-143 -11t-91 -18t-48.5 -32t-21.5 -44.5t-3.5 -62v-1184h186q192 0 305 117.5t113 316.5q0 187 -107.5 289.5t-302.5 102.5q-57 0 -118 -9v41q94 17 176 17
q115 0 211.5 -26.5t170 -79.5t115 -139.5t41.5 -199.5q0 -224 -157.5 -354.5t-427.5 -130.5h-584z" />
    <glyph glyph-name="uni042C" unicode="&#x42c;" horiz-adv-x="1210" 
d="M0 1434h696v-25q-77 0 -125.5 -2.5t-86.5 -11.5t-57 -20t-30.5 -35t-14.5 -50t-3 -71v-1164h186q192 0 305 117.5t113 316.5q0 187 -107.5 289.5t-302.5 102.5q-57 0 -118 -9v41q94 17 176 17q115 0 211.5 -26.5t170 -79.5t115 -139.5t41.5 -199.5q0 -224 -157.5 -354.5
t-427.5 -130.5h-584v25q72 0 109.5 5.5t61 28t29 56t5.5 100.5v1004q0 65 -6 98t-29.5 55.5t-60.5 28.5t-109 8v25z" />
    <glyph glyph-name="uni042C" unicode="&#x44c;" horiz-adv-x="1210" 
d="M0 1434h696v-25q-77 0 -125.5 -2.5t-86.5 -11.5t-57 -20t-30.5 -35t-14.5 -50t-3 -71v-1164h186q192 0 305 117.5t113 316.5q0 187 -107.5 289.5t-302.5 102.5q-57 0 -118 -9v41q94 17 176 17q115 0 211.5 -26.5t170 -79.5t115 -139.5t41.5 -199.5q0 -224 -157.5 -354.5
t-427.5 -130.5h-584v25q72 0 109.5 5.5t61 28t29 56t5.5 100.5v1004q0 65 -6 98t-29.5 55.5t-60.5 28.5t-109 8v25z" />
    <glyph glyph-name="uni042D" unicode="&#x42d;" horiz-adv-x="1488" 
d="M344 795q95 88 195 88q90 0 243 -78q165 -82 281 -82q58 0 94 20l12 -20q-124 -109 -235 -109q-89 0 -203 60q-139 69 -202.5 95t-106.5 26q-36 0 -66 -21zM102 203v450h25q8 -128 40 -234.5t78.5 -178.5t107 -122t124.5 -72.5t131 -22.5q142 0 263.5 68t201.5 178.5
t125 249t45 282.5q0 141 -51 260.5t-135 198.5t-192 123t-224 44q-250 0 -345 -167t-3 -445l-31 -8l-160 440q108 108 256.5 172t315.5 64q208 0 381 -101t272.5 -275t99.5 -382t-99.5 -382t-272.5 -275t-381 -101q-167 0 -315.5 64t-256.5 172z" />
    <glyph glyph-name="uni042D" unicode="&#x44d;" horiz-adv-x="1488" 
d="M344 795q95 88 195 88q90 0 243 -78q165 -82 281 -82q58 0 94 20l12 -20q-124 -109 -235 -109q-89 0 -203 60q-139 69 -202.5 95t-106.5 26q-36 0 -66 -21zM102 203v450h25q8 -128 40 -234.5t78.5 -178.5t107 -122t124.5 -72.5t131 -22.5q142 0 263.5 68t201.5 178.5
t125 249t45 282.5q0 141 -51 260.5t-135 198.5t-192 123t-224 44q-250 0 -345 -167t-3 -445l-31 -8l-160 440q108 108 256.5 172t315.5 64q208 0 381 -101t272.5 -275t99.5 -382t-99.5 -382t-272.5 -275t-381 -101q-167 0 -315.5 64t-256.5 172z" />
    <glyph glyph-name="uni042E" unicode="&#x42e;" horiz-adv-x="2230" 
d="M1411 -33q-208 0 -382 101t-275 275t-101 382v23l-274 -23v-510q0 -65 6 -98t29.5 -55.5t60.5 -28.5t109 -8v-25h-584v25q72 2 109 8t60.5 28.5t29.5 55.5t6 98v1004q0 66 -6 100t-29.5 56.5t-60.5 28t-109 5.5v25h584v-25q-72 0 -109 -5.5t-60.5 -28t-29.5 -56.5
t-6 -100v-435h276q15 194 118.5 354t272 252.5t365.5 92.5q208 0 382 -101t275 -275t101 -382t-101 -382t-275 -275t-382 -101zM838 649q0 -174 65.5 -316.5t183 -224t263.5 -81.5q95 0 182.5 31t156.5 85t125 128t93.5 160t57.5 180.5t20 189.5q0 174 -65.5 316.5t-183 224
t-263.5 81.5q-95 0 -182.5 -31t-156.5 -85t-125 -128t-93.5 -160t-57.5 -180.5t-20 -189.5z" />
    <glyph glyph-name="uni042E" unicode="&#x44e;" horiz-adv-x="2230" 
d="M1411 -33q-208 0 -382 101t-275 275t-101 382v23l-274 -23v-510q0 -65 6 -98t29.5 -55.5t60.5 -28.5t109 -8v-25h-584v25q72 2 109 8t60.5 28.5t29.5 55.5t6 98v1004q0 66 -6 100t-29.5 56.5t-60.5 28t-109 5.5v25h584v-25q-72 0 -109 -5.5t-60.5 -28t-29.5 -56.5
t-6 -100v-435h276q15 194 118.5 354t272 252.5t365.5 92.5q208 0 382 -101t275 -275t101 -382t-101 -382t-275 -275t-382 -101zM838 649q0 -174 65.5 -316.5t183 -224t263.5 -81.5q95 0 182.5 31t156.5 85t125 128t93.5 160t57.5 180.5t20 189.5q0 174 -65.5 316.5t-183 224
t-263.5 81.5q-95 0 -182.5 -31t-156.5 -85t-125 -128t-93.5 -160t-57.5 -180.5t-20 -189.5z" />
    <glyph glyph-name="uni042F" unicode="&#x42f;" horiz-adv-x="1370" 
d="M0 25q26 0 54 20t86.5 95.5t146.5 213.5l311 490q-196 2 -317 82t-121 219q0 146 149.5 217.5t427.5 71.5h633v-25q-72 -2 -109 -8t-60.5 -28.5t-29.5 -55.5t-6 -98v-1000q0 -66 6 -100.5t29.5 -57t60.5 -28.5t109 -8v-25h-696v25q78 1 126 4t86 12t56.5 20t31 35.5
t15 50.5t2.5 72v1159h-233q-197 0 -307.5 -66t-110.5 -184q0 -103 76 -163t188 -60q135 0 275 99l16 -17l-475 -747q-37 -59 -76.5 -103.5t-91 -82.5t-116 -52.5t-136.5 -1.5v25z" />
    <glyph glyph-name="uni042F" unicode="&#x44f;" horiz-adv-x="1370" 
d="M0 25q26 0 54 20t86.5 95.5t146.5 213.5l311 490q-196 2 -317 82t-121 219q0 146 149.5 217.5t427.5 71.5h633v-25q-72 -2 -109 -8t-60.5 -28.5t-29.5 -55.5t-6 -98v-1000q0 -66 6 -100.5t29.5 -57t60.5 -28.5t109 -8v-25h-696v25q78 1 126 4t86 12t56.5 20t31 35.5
t15 50.5t2.5 72v1159h-233q-197 0 -307.5 -66t-110.5 -184q0 -103 76 -163t188 -60q135 0 275 99l16 -17l-475 -747q-37 -59 -76.5 -103.5t-91 -82.5t-116 -52.5t-136.5 -1.5v25z" />
    <glyph glyph-name="uni0462" unicode="&#x462;" horiz-adv-x="1251" 
d="M-82 1249l287 8v166q0 65 -6 98.5t-29.5 55.5t-60.5 28.5t-109 8.5v24h696v-24q-77 0 -125.5 -2.5t-86.5 -11.5t-57 -20.5t-30.5 -35.5t-14.5 -50t-3 -71v-161l604 14v-74l-604 15v-1162h186q192 0 305 117.5t113 316.5q0 187 -107.5 289.5t-302.5 102.5q-57 0 -118 -9
v41q94 17 186 17q241 0 385.5 -114.5t144.5 -309.5q0 -233 -157.5 -369.5t-427.5 -136.5h-586v25q72 0 109.5 5.5t61 28t29 56t5.5 100.5v1008l-287 6v20z" />
    <glyph glyph-name="uni0462" unicode="&#x463;" horiz-adv-x="1251" 
d="M-82 1249l287 8v166q0 65 -6 98.5t-29.5 55.5t-60.5 28.5t-109 8.5v24h696v-24q-77 0 -125.5 -2.5t-86.5 -11.5t-57 -20.5t-30.5 -35.5t-14.5 -50t-3 -71v-161l604 14v-74l-604 15v-1162h186q192 0 305 117.5t113 316.5q0 187 -107.5 289.5t-302.5 102.5q-57 0 -118 -9
v41q94 17 186 17q241 0 385.5 -114.5t144.5 -309.5q0 -233 -157.5 -369.5t-427.5 -136.5h-586v25q72 0 109.5 5.5t61 28t29 56t5.5 100.5v1008l-287 6v20z" />
    <glyph glyph-name="uni046A" unicode="&#x46a;" horiz-adv-x="1992" 
d="M0 1434h1993v-25q-50 0 -72.5 -0.5t-55 -6.5t-47.5 -13.5t-47 -30t-57.5 -46t-75.5 -69.5l-184 -172l313 -676q69 -151 119 -237t69 -105.5t38 -27.5v-25q-114 -24 -202 58.5t-173 267.5l-291 628l-244 -227v-512q0 -45 3 -71t15 -50t31 -35t57 -20t86.5 -11.5
t125.5 -2.5v-25h-809v25q77 0 125.5 2.5t86.5 11.5t57 20t30.5 35t14.5 50t3 71v512l-243 227l-291 -628q-85 -185 -173 -267.5t-202 -58.5v25q19 8 38 27.5t68.5 105.5t118.5 237l314 676l-185 172q-50 47 -75.5 70t-57.5 45.5t-47 29.5t-47 13.5t-54.5 7t-72.5 0.5v25z
M479 1208l518 -485l516 485q32 30 52 50.5t34 39t18 30t-2 21.5t-20 15t-41.5 8.5t-61 4.5t-83.5 1h-825q-67 0 -107 -2t-67 -9t-33.5 -17.5t3.5 -31t33 -45.5t66 -65z" />
    <glyph glyph-name="uni046A" unicode="&#x46b;" horiz-adv-x="1992" 
d="M0 1434h1993v-25q-50 0 -72.5 -0.5t-55 -6.5t-47.5 -13.5t-47 -30t-57.5 -46t-75.5 -69.5l-184 -172l313 -676q69 -151 119 -237t69 -105.5t38 -27.5v-25q-114 -24 -202 58.5t-173 267.5l-291 628l-244 -227v-512q0 -45 3 -71t15 -50t31 -35t57 -20t86.5 -11.5
t125.5 -2.5v-25h-809v25q77 0 125.5 2.5t86.5 11.5t57 20t30.5 35t14.5 50t3 71v512l-243 227l-291 -628q-85 -185 -173 -267.5t-202 -58.5v25q19 8 38 27.5t68.5 105.5t118.5 237l314 676l-185 172q-50 47 -75.5 70t-57.5 45.5t-47 29.5t-47 13.5t-54.5 7t-72.5 0.5v25z
M479 1208l518 -485l516 485q32 30 52 50.5t34 39t18 30t-2 21.5t-20 15t-41.5 8.5t-61 4.5t-83.5 1h-825q-67 0 -107 -2t-67 -9t-33.5 -17.5t3.5 -31t33 -45.5t66 -65z" />
    <glyph glyph-name="uni0490" unicode="&#x490;" horiz-adv-x="983" 
d="M700 1434q41 0 67.5 2t49.5 9.5t33.5 19t15 33.5t-0.5 49.5t-19 70.5t-35 93.5t-53 121.5l20 10l256 -465h-655v-1159q0 -35 1.5 -56t8.5 -43.5t18 -34t33.5 -24t50 -17.5t73 -10t98 -6.5t129.5 -2.5v-25h-791v25q72 2 109 8t60.5 28.5t29.5 57t6 100.5v1020
q0 57 -6 86.5t-29.5 49.5t-61 26t-108.5 8v25h700z" />
    <glyph glyph-name="uni0490" unicode="&#x491;" horiz-adv-x="983" 
d="M700 1434q41 0 67.5 2t49.5 9.5t33.5 19t15 33.5t-0.5 49.5t-19 70.5t-35 93.5t-53 121.5l20 10l256 -465h-655v-1159q0 -35 1.5 -56t8.5 -43.5t18 -34t33.5 -24t50 -17.5t73 -10t98 -6.5t129.5 -2.5v-25h-791v25q72 2 109 8t60.5 28.5t29.5 57t6 100.5v1020
q0 57 -6 86.5t-29.5 49.5t-61 26t-108.5 8v25h700z" />
    <glyph glyph-name="uni1E20" unicode="&#x1e20;" horiz-adv-x="1550" 
d="M1386 1247l-174 -477l-22 8q95 306 10.5 477.5t-319.5 171.5q-142 0 -263.5 -68t-201.5 -178.5t-125 -249t-45 -282.5q0 -141 51 -260.5t135 -198.5t192 -123t224 -44q219 0 364 145v272q0 53 -1.5 82.5t-13.5 63t-27.5 49t-55 33t-84 23.5t-125.5 12t-169.5 7t-225.5 1
v24h876v-24v-170v-338q-108 -108 -256 -172t-315 -64q-156 0 -295.5 59.5t-240 161t-159.5 241.5t-59 296t59 296t159.5 241.5t240 161t295.5 59.5q167 0 315 -64t256 -172zM418 1724v21l778 43v-98z" />
    <glyph glyph-name="uni1E20" unicode="&#x1e21;" horiz-adv-x="1550" 
d="M1386 1247l-174 -477l-22 8q95 306 10.5 477.5t-319.5 171.5q-142 0 -263.5 -68t-201.5 -178.5t-125 -249t-45 -282.5q0 -141 51 -260.5t135 -198.5t192 -123t224 -44q219 0 364 145v272q0 53 -1.5 82.5t-13.5 63t-27.5 49t-55 33t-84 23.5t-125.5 12t-169.5 7t-225.5 1
v24h876v-24v-170v-338q-108 -108 -256 -172t-315 -64q-156 0 -295.5 59.5t-240 161t-159.5 241.5t-59 296t59 296t159.5 241.5t240 161t295.5 59.5q167 0 315 -64t256 -172zM418 1724v21l778 43v-98z" />
    <glyph glyph-name="Wgrave" unicode="&#x1e80;" horiz-adv-x="2045" 
d="M-82 1434h1055v-25h-332q-105 0 -168.5 -2t-112.5 -11t-70 -20t-29 -35t-2 -51t22 -73l395 -1111l414 1450h2l507 -1454l338 1117q33 90 25 122q-12 42 -102 55q-83 13 -330 13h-322v25h983v-21q-48 0 -74 -5.5t-48.5 -28t-36.5 -56.5t-35 -104l-371 -1219
q-13 -41 -42 -130.5t-42 -133.5l-498 1429l-342 -1165q-65 -219 -79 -264l-529 1483q-32 91 -55.5 130.5t-48 51.5t-72.5 12v21zM930 1872l71 59l250 -364l-18 -15z" />
    <glyph glyph-name="Wgrave" unicode="&#x1e81;" horiz-adv-x="2045" 
d="M-82 1434h1055v-25h-332q-105 0 -168.5 -2t-112.5 -11t-70 -20t-29 -35t-2 -51t22 -73l395 -1111l414 1450h2l507 -1454l338 1117q33 90 25 122q-12 42 -102 55q-83 13 -330 13h-322v25h983v-21q-48 0 -74 -5.5t-48.5 -28t-36.5 -56.5t-35 -104l-371 -1219
q-13 -41 -42 -130.5t-42 -133.5l-498 1429l-342 -1165q-65 -219 -79 -264l-529 1483q-32 91 -55.5 130.5t-48 51.5t-72.5 12v21zM930 1872l71 59l250 -364l-18 -15z" />
    <glyph glyph-name="Wacute" unicode="&#x1e82;" horiz-adv-x="2045" 
d="M-82 1434h1055v-25h-332q-105 0 -168.5 -2t-112.5 -11t-70 -20t-29 -35t-2 -51t22 -73l395 -1111l414 1450h2l507 -1454l338 1117q33 90 25 122q-12 42 -102 55q-83 13 -330 13h-322v25h983v-21q-48 0 -74 -5.5t-48.5 -28t-36.5 -56.5t-35 -104l-371 -1219
q-13 -41 -42 -130.5t-42 -133.5l-498 1429l-342 -1165q-65 -219 -79 -264l-529 1483q-32 91 -55.5 130.5t-48 51.5t-72.5 12v21zM995 1608l250 364l72 -59l-303 -320z" />
    <glyph glyph-name="Wacute" unicode="&#x1e83;" horiz-adv-x="2045" 
d="M-82 1434h1055v-25h-332q-105 0 -168.5 -2t-112.5 -11t-70 -20t-29 -35t-2 -51t22 -73l395 -1111l414 1450h2l507 -1454l338 1117q33 90 25 122q-12 42 -102 55q-83 13 -330 13h-322v25h983v-21q-48 0 -74 -5.5t-48.5 -28t-36.5 -56.5t-35 -104l-371 -1219
q-13 -41 -42 -130.5t-42 -133.5l-498 1429l-342 -1165q-65 -219 -79 -264l-529 1483q-32 91 -55.5 130.5t-48 51.5t-72.5 12v21zM995 1608l250 364l72 -59l-303 -320z" />
    <glyph glyph-name="Wdieresis" unicode="&#x1e84;" horiz-adv-x="2045" 
d="M-82 1434h1055v-25h-332q-105 0 -168.5 -2t-112.5 -11t-70 -20t-29 -35t-2 -51t22 -73l395 -1111l414 1450h2l507 -1454l338 1117q33 90 25 122q-12 42 -102 55q-83 13 -330 13h-322v25h983v-21q-48 0 -74 -5.5t-48.5 -28t-36.5 -56.5t-35 -104l-371 -1219
q-13 -41 -42 -130.5t-42 -133.5l-498 1429l-342 -1165q-65 -219 -79 -264l-529 1483q-32 91 -55.5 130.5t-48 51.5t-72.5 12v21zM856 1741q0 39 26.5 65.5t65.5 26.5q38 0 65 -27t27 -65q0 -39 -26.5 -65.5t-65.5 -26.5q-40 0 -66 26t-26 66zM1204 1741q0 37 26.5 64.5
t65.5 27.5q37 0 65 -27.5t28 -64.5q0 -39 -27.5 -65.5t-65.5 -26.5q-40 0 -66 26t-26 66z" />
    <glyph glyph-name="Wdieresis" unicode="&#x1e85;" horiz-adv-x="2045" 
d="M-82 1434h1055v-25h-332q-105 0 -168.5 -2t-112.5 -11t-70 -20t-29 -35t-2 -51t22 -73l395 -1111l414 1450h2l507 -1454l338 1117q33 90 25 122q-12 42 -102 55q-83 13 -330 13h-322v25h983v-21q-48 0 -74 -5.5t-48.5 -28t-36.5 -56.5t-35 -104l-371 -1219
q-13 -41 -42 -130.5t-42 -133.5l-498 1429l-342 -1165q-65 -219 -79 -264l-529 1483q-32 91 -55.5 130.5t-48 51.5t-72.5 12v21zM856 1741q0 39 26.5 65.5t65.5 26.5q38 0 65 -27t27 -65q0 -39 -26.5 -65.5t-65.5 -26.5q-40 0 -66 26t-26 66zM1204 1741q0 37 26.5 64.5
t65.5 27.5q37 0 65 -27.5t28 -64.5q0 -39 -27.5 -65.5t-65.5 -26.5q-40 0 -66 26t-26 66z" />
    <glyph glyph-name="uni1EBC" unicode="&#x1ebc;" horiz-adv-x="1116" 
d="M0 1434h1010l41 -437l-23 -2q-12 97 -20.5 154t-22 104.5t-26 68.5t-38 36t-51 17.5t-71.5 2.5h-420v-379l518 -16v-25l-518 -20v-883h391q96 0 133 17q62 28 99 137q51 149 108 640q17 146 41 365h25l-89 -1214h-1087v25q72 2 109 8t60.5 28.5t29.5 55.5t6 98v1004
q0 65 -6 98t-29.5 55.5t-60.5 28.5t-109 8v25zM190 1712q59 170 203 170q87 0 211 -51q7 -3 29.5 -11.5t31 -11.5t28 -10t29 -10t25.5 -7.5t27 -6.5t24 -3.5t25 -1.5q76 0 121 64l23 -12q-59 -170 -203 -170q-87 0 -211 51q-132 50 -180 58q-21 3 -39 3q-77 0 -121 -63z" />
    <glyph glyph-name="uni1EBC" unicode="&#x1ebd;" horiz-adv-x="1116" 
d="M0 1434h1010l41 -437l-23 -2q-12 97 -20.5 154t-22 104.5t-26 68.5t-38 36t-51 17.5t-71.5 2.5h-420v-379l518 -16v-25l-518 -20v-883h391q96 0 133 17q62 28 99 137q51 149 108 640q17 146 41 365h25l-89 -1214h-1087v25q72 2 109 8t60.5 28.5t29.5 55.5t6 98v1004
q0 65 -6 98t-29.5 55.5t-60.5 28.5t-109 8v25zM190 1712q59 170 203 170q87 0 211 -51q7 -3 29.5 -11.5t31 -11.5t28 -10t29 -10t25.5 -7.5t27 -6.5t24 -3.5t25 -1.5q76 0 121 64l23 -12q-59 -170 -203 -170q-87 0 -211 51q-132 50 -180 58q-21 3 -39 3q-77 0 -121 -63z" />
    <glyph glyph-name="Ygrave" unicode="&#x1ef2;" horiz-adv-x="1267" 
d="M150 1217q-50 71 -75.5 102t-62 55.5t-73 29.5t-103.5 5v25h795v-25q-257 0 -313 -22q-44 -18 -25 -63q9 -21 35 -58l379 -539l380 539q49 69 37 96q-15 35 -152 43q-68 4 -192 4v25h652v-25q-46 0 -75.5 -2t-58 -11t-45.5 -19.5t-40.5 -36t-42 -50.5t-50.5 -73
l-360 -510v-512q0 -41 3 -63.5t19.5 -44.5t43.5 -31.5t82.5 -18t128 -10.5t188.5 -2v-25h-1104v25q116 0 188.5 2t128 10.5t82.5 18t43.5 31.5t19.5 44.5t3 63.5v399zM555 1872l72 59l250 -364l-19 -15z" />
    <glyph glyph-name="Ygrave" unicode="&#x1ef3;" horiz-adv-x="1267" 
d="M150 1217q-50 71 -75.5 102t-62 55.5t-73 29.5t-103.5 5v25h795v-25q-257 0 -313 -22q-44 -18 -25 -63q9 -21 35 -58l379 -539l380 539q49 69 37 96q-15 35 -152 43q-68 4 -192 4v25h652v-25q-46 0 -75.5 -2t-58 -11t-45.5 -19.5t-40.5 -36t-42 -50.5t-50.5 -73
l-360 -510v-512q0 -41 3 -63.5t19.5 -44.5t43.5 -31.5t82.5 -18t128 -10.5t188.5 -2v-25h-1104v25q116 0 188.5 2t128 10.5t82.5 18t43.5 31.5t19.5 44.5t3 63.5v399zM555 1872l72 59l250 -364l-19 -15z" />
    <glyph glyph-name="uni1EF8" unicode="&#x1ef8;" horiz-adv-x="1267" 
d="M150 1217q-50 71 -75.5 102t-62 55.5t-73 29.5t-103.5 5v25h795v-25q-257 0 -313 -22q-44 -18 -25 -63q9 -21 35 -58l379 -539l380 539q49 69 37 96q-15 35 -152 43q-68 4 -192 4v25h652v-25q-46 0 -75.5 -2t-58 -11t-45.5 -19.5t-40.5 -36t-42 -50.5t-50.5 -73
l-360 -510v-512q0 -41 3 -63.5t19.5 -44.5t43.5 -31.5t82.5 -18t128 -10.5t188.5 -2v-25h-1104v25q116 0 188.5 2t128 10.5t82.5 18t43.5 31.5t19.5 44.5t3 63.5v399zM344 1712q59 170 203 170q87 0 211 -51q7 -3 29.5 -11.5t31 -11.5t28 -10t29 -10t25.5 -7.5t27 -6.5
t24 -3.5t25 -1.5q76 0 121 64l22 -12q-59 -170 -202 -170q-87 0 -211 51q-134 51 -184 58q-19 3 -36 3q-76 0 -120 -63z" />
    <glyph glyph-name="uni1EF8" unicode="&#x1ef9;" horiz-adv-x="1267" 
d="M150 1217q-50 71 -75.5 102t-62 55.5t-73 29.5t-103.5 5v25h795v-25q-257 0 -313 -22q-44 -18 -25 -63q9 -21 35 -58l379 -539l380 539q49 69 37 96q-15 35 -152 43q-68 4 -192 4v25h652v-25q-46 0 -75.5 -2t-58 -11t-45.5 -19.5t-40.5 -36t-42 -50.5t-50.5 -73
l-360 -510v-512q0 -41 3 -63.5t19.5 -44.5t43.5 -31.5t82.5 -18t128 -10.5t188.5 -2v-25h-1104v25q116 0 188.5 2t128 10.5t82.5 18t43.5 31.5t19.5 44.5t3 63.5v399zM344 1712q59 170 203 170q87 0 211 -51q7 -3 29.5 -11.5t31 -11.5t28 -10t29 -10t25.5 -7.5t27 -6.5
t24 -3.5t25 -1.5q76 0 121 64l22 -12q-59 -170 -202 -170q-87 0 -211 51q-134 51 -184 58q-19 3 -36 3q-76 0 -120 -63z" />
    <glyph glyph-name="uni2002" unicode="&#x2002;" horiz-adv-x="614" 
 />
    <glyph glyph-name="uni200A" unicode="&#x200a;" horiz-adv-x="286" 
 />
    <glyph glyph-name="endash" unicode="&#x2013;" horiz-adv-x="1167" 
d="M51 727l1065 27v-74l-1065 27v20z" />
    <glyph glyph-name="emdash" unicode="&#x2014;" horiz-adv-x="1536" 
d="M92 727l1352 31v-82l-1352 31v20z" />
    <glyph glyph-name="quoteleft" unicode="&#x2018;" horiz-adv-x="573" 
d="M444 1581q-121 -210 -139 -256q-20 -54 6 -75q8 -7 23 -13q32 -13 54 -42t22 -69q0 -49 -34.5 -83.5t-84.5 -34.5q-51 0 -86 39t-35 104q0 29 6 53t28.5 63.5t43.5 70.5t75 109t99 146z" />
    <glyph glyph-name="quoteright" unicode="&#x2019;" horiz-adv-x="573" 
d="M129 903q121 209 138 254q22 55 -3 76q-9 7 -24 14q-32 13 -54 42t-22 69q0 50 35 84.5t84 34.5q51 0 85.5 -39t34.5 -105q0 -29 -6 -53t-28.5 -63.5t-43 -70t-75 -109.5t-98.5 -146z" />
    <glyph glyph-name="bullet" unicode="&#x2022;" horiz-adv-x="798" 
d="M399 582q-64 0 -108.5 45t-44.5 110q0 63 44.5 108.5t108.5 45.5t109 -45.5t45 -108.5q0 -65 -45 -110t-109 -45z" />
    <glyph glyph-name="Euro" unicode="&#x20ac;" horiz-adv-x="1611" 
d="M1509 1247l-186 -512l-23 8q102 331 21.5 507.5t-317.5 176.5q-113 0 -213.5 -43t-176 -117.5t-130.5 -171t-85 -208.5l748 18v-74l-756 19q-22 -104 -22 -201q0 -33 2 -49l776 18v-73l-774 18q15 -123 70.5 -225.5t137 -171t182.5 -106t208 -37.5q72 0 140 22.5
t132.5 72.5t114.5 122t84 178.5t43 234.5h24v-450q-108 -108 -256 -172t-315 -64q-180 0 -337 78t-261 214.5t-139 307.5l-191 4v21l185 4q-11 79 -11 129t11 129l-185 4v21l191 4q35 171 139 307.5t261 214.5t337 78q167 0 315 -64t256 -172z" />
    <glyph glyph-name="uni20B4" unicode="&#x20b4;" horiz-adv-x="1009" 
d="M211 1421q137 49 297 49q166 0 263 -86t97 -217q0 -138 -137 -297l182 -14v-74l-229 35l-145 -155l327 -50v-530q-68 -52 -161 -79.5t-183 -27.5q-178 0 -282.5 87.5t-104.5 224.5q0 150 180 346l23 22l-236 54l4 18l261 -39l145 156l-301 47v530zM236 909l313 -24l45 49
q53 56 85 128.5t32 139.5q0 93 -56.5 153t-162.5 60q-132 -3 -192 -121t-64 -385zM291 254q0 -96 62 -160t167 -63q159 3 234.5 123t85.5 391l-340 76l-82 -91q-58 -63 -92.5 -136.5t-34.5 -139.5z" />
    <glyph glyph-name="uni20BD" unicode="&#x20bd;" horiz-adv-x="1343" 
d="M604 1434q281 0 433.5 -106t152.5 -302q0 -190 -147.5 -304t-391.5 -114q-53 0 -108 6v41h8q213 0 331.5 93.5t118.5 263.5q0 174 -110 270t-307 96h-185v-952l592 16v-82l-592 17v-162q0 -45 3 -70.5t15 -49t30.5 -34.5t57 -19.5t86.5 -10.5t126 -2v-29h-697v25
q72 2 109 8t60.5 28.5t29.5 55.5t6 98v168l-225 6v25l225 6v799q0 66 -6 100t-29.5 56.5t-60.5 28t-109 5.5v25h584z" />
    <glyph glyph-name="uni2116" unicode="&#x2116;" horiz-adv-x="2140" 
d="M12 1655l17 14l800 -940l365 8v477q0 34 -1.5 54.5t-10 42.5t-21 33.5t-39 24t-59.5 17.5t-88 10t-118.5 6.5t-156.5 2.5v25h754v-25q-72 -2 -109 -8.5t-60.5 -28.5t-29.5 -55.5t-6 -98.5v-477l783 17v-74l-783 16v-368q0 -62 0.5 -89.5t3 -72t7 -65t14 -56t22.5 -58.5
t34.5 -58.5t48 -69.5t63.5 -80l-17 -15l-1165 1366v-915q0 -34 1.5 -54.5t10 -42.5t21 -33.5t39 -23.5t59.5 -17t88 -10t118.5 -6.5t156.5 -2.5v-25h-754v25q72 2 109 8t60.5 28.5t29.5 55.5t6 98v891q0 62 -0.5 89.5t-3 72t-7 65t-14 56t-22.5 58.5t-34.5 58.5t-48 69.5
t-63.5 80zM852 705l342 -402v393zM1389 1176q0 128 87.5 209t225.5 81t226.5 -81.5t88.5 -208.5q0 -134 -88.5 -220t-226.5 -86t-225.5 86t-87.5 220zM1520 1104q0 -81 37 -129.5t102 -48.5q67 0 121.5 51.5t81 122t26.5 137.5q0 78 -39 126t-102 48q-65 0 -119 -52
t-81 -121.5t-27 -133.5z" />
    <glyph glyph-name="minus" unicode="&#x2212;" horiz-adv-x="942" 
d="M51 727l840 27v-74l-840 27v20z" />
    <glyph glyph-name="uni004A0301" horiz-adv-x="624" 
d="M-20 1434h645v-25q-72 0 -109 -5.5t-60.5 -28t-29.5 -56.5t-6 -100v-971q0 -285 -160 -441.5t-485 -175.5v25q253 51 362 193t109 423v947q0 45 -2.5 72t-13 50.5t-26.5 35t-48 20t-72 10.5t-104 2v25zM186 1608l250 364l72 -59l-303 -320z" />
    <glyph glyph-name="B.salt" horiz-adv-x="1304" 
d="M0 25q60 2 91 8t51.5 28t26 56t5.5 98v735q0 237 130.5 375.5t350.5 138.5q149 0 241.5 -77.5t92.5 -223.5q0 -194 -244 -444l7 -8q95 63 202 63q168 0 254 -85t86 -222q0 -200 -152 -333.5t-386 -133.5h-756v25zM348 55h387q170 0 279.5 96.5t109.5 247.5
q0 109 -62.5 187t-170.5 78q-182 0 -410 -234l-30 29q103 124 176.5 229.5t111.5 174.5t59.5 132t26 96t4.5 72q0 118 -52.5 182t-141.5 64q-119 0 -203 -114t-84 -289v-951z" />
    <glyph glyph-name="P.salt" horiz-adv-x="1255" 
d="M379 219q0 -45 3 -71t14.5 -50t30.5 -35t57 -20t86.5 -11.5t125.5 -2.5v-25h-696v25q72 2 109 8t60.5 28.5t29.5 55.5t6 98v803q0 121 64 222.5t174.5 160.5t242.5 59q214 0 348.5 -127t134.5 -315q0 -121 -57 -212t-143.5 -135t-186.5 -44q-87 0 -157 22v41h14
q92 3 165 35.5t116.5 84.5t65.5 115t22 132q0 140 -82.5 244t-218.5 104q-135 0 -231.5 -108.5t-96.5 -260.5v-821z" />
    <glyph glyph-name="A_E.dlig" horiz-adv-x="1751" 
d="M803 1434h842l41 -437l-23 -2q-12 97 -20.5 154t-22 104.5t-26 68.5t-38 36t-51 17.5t-71.5 2.5h-420v-379l518 -16v-25l-518 -20v-883h391q106 0 146 17q65 27 102 129q50 139 94 585q16 162 39 428h24l-88 -1214h-1087v25q72 2 109 8t60.5 28.5t29.5 55.5t6 98v168
h-555l-103 -182q-68 -114 -20.5 -145t311.5 -31v-25h-549v25q54 0 85 30t93 140zM315 438h525v936z" />
    <glyph glyph-name="D_O.dlig" horiz-adv-x="2211" 
d="M766 1434q139 0 270 -39q161 88 357 88q208 0 382 -101t274.5 -275t100.5 -382t-100.5 -382t-274.5 -275t-382 -101q-181 0 -344 80q-130 -47 -283 -47h-766v25q72 2 109 8t60.5 28.5t29.5 55.5t6 98v1004q0 65 -6 98t-29.5 55.5t-60.5 28.5t-109 8v25h766zM379 55h326
q132 0 249 49q-149 104 -234 267t-85 354q0 195 89.5 360.5t244.5 268.5q-85 24 -185 24h-405v-1323zM819 649q0 -158 55 -290.5t152 -217.5q158 94 247 268t89 379q0 172 -67.5 303.5t-190.5 204.5q-133 -107 -209 -282.5t-76 -364.5zM1120 78q97 -51 211 -51
q95 0 182.5 31t156.5 85t125 128t93.5 160t57.5 180.5t20 189.5q0 174 -65.5 316.5t-183 224t-263.5 81.5q-154 0 -289 -82q174 -91 272.5 -253t98.5 -371t-112.5 -379.5t-303.5 -259.5z" />
    <glyph glyph-name="H_D.dlig" horiz-adv-x="2447" 
d="M0 1434h696v-25q-78 -1 -126 -4t-86 -11.5t-56.5 -19.5t-31 -35t-15 -49.5t-2.5 -70.5v-222h676v222q0 38 -2.5 61.5t-9 46t-22 34.5t-36 22.5t-57.5 15t-81 7t-110 3.5v25h879q168 0 311 -53t244 -147t158 -227.5t57 -289.5q0 -197 -100.5 -361.5t-277.5 -260
t-392 -95.5h-879v25q66 1 110 3.5t81 7t57.5 15t36 22.5t22 34.5t9 46t2.5 61.5v727h-676v-727q0 -45 3 -71t14.5 -50t30.5 -35t57 -20t86.5 -11.5t125.5 -2.5v-25h-696v25q72 2 109 8t60.5 28.5t29.5 55.5t6 98v1004q0 65 -6 98t-29.5 55.5t-60.5 28.5t-109 8v25zM1229 55
h325q148 0 273.5 60t208.5 161.5t129.5 234t46.5 277.5q0 268 -157.5 429t-420.5 161h-405v-1323z" />
    <glyph glyph-name="H_E.dlig" horiz-adv-x="1966" 
d="M0 1434h696v-25q-78 -1 -126 -4t-86 -11.5t-56.5 -19.5t-31 -35t-15 -49.5t-2.5 -70.5v-222h676v222q0 38 -2.5 61.5t-9 46t-22 34.5t-36 22.5t-57.5 15t-81 7t-110 3.5v25h1123l41 -437l-23 -2q-12 97 -20.5 154t-22 104.5t-26 68.5t-38 36t-51 17.5t-71.5 2.5h-420
v-379l518 -16v-25l-518 -20v-883h391q96 0 133 17q62 28 99 137q51 149 108 640q17 146 41 365h24l-88 -1214h-1200v25q66 1 110 3.5t81 7t57.5 15t36 22.5t22 34.5t9 46t2.5 61.5v727h-676v-727q0 -45 3 -71t14.5 -50t30.5 -35t57 -20t86.5 -11.5t125.5 -2.5v-25h-696v25
q72 2 109 8t60.5 28.5t29.5 55.5t6 98v1004q0 65 -6 98t-29.5 55.5t-60.5 28.5t-109 8v25z" />
    <glyph glyph-name="N_N.dlig" horiz-adv-x="2437" 
d="M12 1655l17 14l1159 -1366v803q0 62 -0.5 89.5t-3 72t-7 65t-14 56t-22.5 58.5t-34.5 58.5t-48 69.5t-63.5 80l17 14l1165 -1366v911q0 34 -1.5 54.5t-10 42.5t-21 33.5t-39 24t-59.5 17.5t-88 10t-118.5 6.5t-156.5 2.5v25h754v-25q-72 -2 -109 -8.5t-60.5 -28.5
t-29.5 -55.5t-6 -98.5v-886q0 -62 0.5 -89.5t3 -72t7 -65t14 -56t22.5 -58.5t34.5 -58.5t48 -69.5t63.5 -80l-17 -15l-1165 1366v-802q0 -62 0.5 -89.5t3 -72t7 -65t14 -56t22.5 -58.5t34.5 -58.5t48 -69.5t63.5 -80l-17 -15l-1159 1366v-915q0 -34 1.5 -54.5t10 -42.5
t21 -33.5t39 -23.5t59.5 -17t88 -10t118.5 -6.5t156.5 -2.5v-25h-754v25q72 2 109 8t60.5 28.5t29.5 55.5t6 98v891q0 62 -0.5 89.5t-3 72t-7 65t-14 56t-22.5 58.5t-34.5 58.5t-48 69.5t-63.5 80z" />
    <glyph glyph-name="O_C.dlig" horiz-adv-x="2103" 
d="M819 -33q-208 0 -382 101t-275 275t-101 382t101 382t275 275t382 101q161 0 305 -64q144 64 306 64q167 0 315 -64t256 -172l-225 -620l-23 8q91 274 82 450t-95 259t-245 83q-138 0 -262 -65q159 -103 251.5 -271t92.5 -366q0 -203 -98.5 -375t-264.5 -274
q118 -53 248 -53q72 0 140 22.5t132.5 72.5t114.5 122t84 178.5t43 234.5h25v-450q-108 -108 -256 -172t-315 -64q-162 0 -306 64q-144 -64 -305 -64zM246 649q0 -174 65.5 -316.5t183 -224t263.5 -81.5q139 0 256 63q-156 103 -247 270t-91 365q0 212 104 389t279 275
q-78 34 -178 34q-95 0 -182.5 -31t-156.5 -85t-125 -128t-93.5 -160t-57.5 -180.5t-20 -189.5zM860 649q0 -161 65 -291t175 -213q137 107 215 285t78 371q0 164 -59 300t-163 220q-145 -105 -228 -289t-83 -383z" />
    <glyph glyph-name="O_G.dlig" horiz-adv-x="2164" 
d="M819 -33q-208 0 -382 101t-275 275t-101 382t101 382t275 275t382 101q161 0 305 -64q144 64 306 64q167 0 315 -64t256 -172l-174 -477l-23 8q95 306 10.5 477.5t-319.5 171.5q-138 0 -262 -65q156 -101 248.5 -266.5t95.5 -360.5h424v-24v-170v-338
q-108 -108 -256 -172t-315 -64q-162 0 -306 64q-144 -64 -305 -64zM246 649q0 -174 65.5 -316.5t183 -224t263.5 -81.5q139 0 256 63q-156 103 -247 270t-91 365q0 212 104 389t279 275q-78 34 -178 34q-95 0 -182.5 -31t-156.5 -85t-125 -128t-93.5 -160t-57.5 -180.5
t-20 -189.5zM860 649q0 -161 65 -291t175 -213q120 93 195.5 243.5t93.5 320.5q-76 2 -265 2v24h267q2 23 2 66q0 164 -59 300t-163 220q-145 -105 -228 -289t-83 -383zM1214 76q118 -53 248 -53q220 0 365 145v272q0 50 -2 78t-10 59.5t-23.5 48t-43.5 33t-69.5 25
t-101.5 14.5q-7 -196 -104.5 -360t-258.5 -262z" />
    <glyph glyph-name="O_O.dlig" horiz-adv-x="2252" 
d="M819 -33q-208 0 -382 101t-275 275t-101 382t101 382t275 275t382 101q160 0 307 -64q147 64 308 64q208 0 382 -101t274.5 -275t100.5 -382t-100.5 -382t-274.5 -275t-382 -101q-161 0 -308 64q-147 -64 -307 -64zM246 649q0 -174 65.5 -316.5t183 -224t263.5 -81.5
q141 0 258 63q-157 103 -248.5 271t-91.5 364q0 212 104.5 387.5t280.5 273.5q-81 37 -180 37q-95 0 -182.5 -31t-156.5 -85t-125 -128t-93.5 -160t-57.5 -180.5t-20 -189.5zM860 649q0 -163 58 -298t161 -220q147 104 230.5 287t83.5 383q0 163 -58 298t-161 220
q-147 -104 -230.5 -287t-83.5 -383zM1192 63q79 -36 180 -36q95 0 182.5 31t156.5 85t125 128t93.5 160t57.5 180.5t20 189.5q0 174 -65.5 316.5t-183 224t-263.5 81.5q-141 0 -258 -63q157 -103 248.5 -271t91.5 -364q0 -212 -104.5 -388t-280.5 -274z" />
    <glyph glyph-name="uni0412.alt" horiz-adv-x="1304" 
d="M0 25q60 2 91 8t51.5 28t26 56t5.5 98v735q0 237 130.5 375.5t350.5 138.5q149 0 241.5 -77.5t92.5 -223.5q0 -194 -244 -444l7 -8q95 63 202 63q168 0 254 -85t86 -222q0 -200 -152 -333.5t-386 -133.5h-756v25zM348 55h387q170 0 279.5 96.5t109.5 247.5
q0 109 -62.5 187t-170.5 78q-182 0 -410 -234l-30 29q103 124 176.5 229.5t111.5 174.5t59.5 132t26 96t4.5 72q0 118 -52.5 182t-141.5 64q-119 0 -203 -114t-84 -289v-951z" />
    <glyph glyph-name="uni0420.alt" horiz-adv-x="1255" 
d="M379 219q0 -45 3 -71t14.5 -50t30.5 -35t57 -20t86.5 -11.5t125.5 -2.5v-25h-696v25q72 2 109 8t60.5 28.5t29.5 55.5t6 98v803q0 121 64 222.5t174.5 160.5t242.5 59q214 0 348.5 -127t134.5 -315q0 -121 -57 -212t-143.5 -135t-186.5 -44q-87 0 -157 22v41h14
q92 3 165 35.5t116.5 84.5t65.5 115t22 132q0 140 -82.5 244t-218.5 104q-135 0 -231.5 -108.5t-96.5 -260.5v-821z" />
    <glyph glyph-name="uni0414.loclBGR" horiz-adv-x="1382" 
d="M625 1434q39 10 77 41t56 73l528 -1493h182l-264 -465l-20 11q45 96 71 158t36 109t6.5 71.5t-27.5 39t-55 18t-87 3.5h-884q-56 0 -87 -3.5t-55 -18t-27.5 -39t6.5 -71.5t36 -109t71 -158l-20 -11l-264 465h184zM164 55h946l-453 1295z" />
    <glyph glyph-name="uni041B.loclBGR" horiz-adv-x="1187" 
d="M1264 0h-701v25q106 0 170.5 2t113 11t69.5 19.5t28.5 35t2 50t-20.5 72.5l-387 1139l-430 -1153q-31 -82 -20 -111q14 -41 117 -54q87 -11 316 -11v-25h-639v25q63 0 93 31t71 139l465 1239q39 10 77 41t56 73l455 -1333q40 -122 70.5 -156t93.5 -34v-25z" />
    <glyph glyph-name="uni0414.salt" horiz-adv-x="1316" 
d="M-82 55h211q30 0 49 52t39 174l160 938q6 34 8 56t-1.5 43.5t-12.5 33.5t-30 24t-47.5 17t-71 9.5t-96 5.5t-126.5 1v25h1317v-25q-72 0 -109 -5.5t-60.5 -28t-29.5 -56.5t-6 -100v-1164h236l-265 -465l-20 11q34 72 56.5 123.5t36.5 94.5t19.5 70.5t0 49t-16 32.5
t-34 18t-49.5 9t-68 2h-750q-42 0 -68 -2t-49.5 -9t-34 -18t-16 -32.5t0 -49t19.5 -70.5t36.5 -94.5t56.5 -123.5l-21 -11zM211 55h727v1323h-477l-197 -1153q-22 -129 -53 -170z" />
    <glyph glyph-name="uni0418.salt" horiz-adv-x="1454" 
d="M1442 1655q-37 -46 -63.5 -80t-48 -69.5t-34.5 -58.5t-22.5 -58.5t-14 -56t-7 -65t-3 -72t-0.5 -89.5v-891q0 -65 6 -98t29.5 -55.5t60.5 -28.5t109 -8v-25h-754v25q93 1 156.5 2.5t118.5 6.5t88 10t59.5 17t39 23.5t21 33.5t10 42.5t1.5 54.5v915l-1165 -1366l-17 15
q37 46 63.5 80t48 69.5t34.5 58.5t22.5 58.5t14 56t7 65t3 72t0.5 89.5v886q0 65 -6 98.5t-29.5 55.5t-60.5 28.5t-109 8.5v25h754v-25q-93 -1 -156.5 -2.5t-118.5 -6.5t-88 -10t-59.5 -17.5t-39 -24t-21 -33.5t-10 -42.5t-1.5 -54.5v-911l1165 1366z" />
    <glyph glyph-name="uni041B.salt" horiz-adv-x="1249" 
d="M0 1434h1249v-25q-72 0 -109 -5.5t-60.5 -28t-29.5 -56.5t-6 -100v-1004q0 -65 6 -99t29.5 -56.5t61 -28.5t108.5 -6v-25h-880v25q125 0 203.5 2t138 11.5t88.5 20t46.5 35.5t21 50t3.5 71v1163h-419l-189 -1102q-28 -161 -68 -228.5t-108 -67.5q-31 0 -86 20v700h25
q7 -280 33.5 -406t76.5 -126q24 0 45.5 42t34.5 122l152 887q7 39 8 63t-3 47t-21 35t-41 22.5t-70 14.5t-101 6t-139 2v25z" />
    <glyph glyph-name="uni04100415.dlig" horiz-adv-x="1751" 
d="M803 1434h842l41 -437l-23 -2q-12 97 -20.5 154t-22 104.5t-26 68.5t-38 36t-51 17.5t-71.5 2.5h-420v-379l518 -16v-25l-518 -20v-883h391q106 0 146 17q65 27 102 129q50 139 94 585q16 162 39 428h24l-88 -1214h-1087v25q72 2 109 8t60.5 28.5t29.5 55.5t6 98v168
h-555l-103 -182q-68 -114 -20.5 -145t311.5 -31v-25h-549v25q54 0 85 30t93 140zM315 438h525v936z" />
    <glyph glyph-name="uni04180418.dlig" horiz-adv-x="2406" 
d="M0 1434h881v-25q-125 0 -203.5 -2.5t-138 -11.5t-89 -19.5t-47 -35.5t-21 -50t-3.5 -71v-922l1087 1372l17 -14q-42 -56 -71.5 -102t-51 -82t-34.5 -76t-20.5 -66.5t-11 -72t-4 -73.5t-0.5 -89v-797l1088 1372l16 -14q-48 -65 -81 -114t-54.5 -98t-33 -80t-16.5 -83
t-6 -83.5t-1 -102.5v-875q0 -43 2.5 -70t11 -50t21 -34.5t37 -20t54.5 -11.5t78 -4v-25h-880v25q125 0 203.5 2.5t138 11.5t89 19.5t47 35.5t21 50t3.5 71v918l-1090 -1375l-16 15q49 65 82 115t55 98.5t33.5 80t16.5 83.5t6 83.5t1 102.5v797l-1089 -1375l-17 15
q49 65 82 115t55 98.5t33.5 80.5t17 83t6.5 83.5t1 102.5v879q0 65 -6 98t-29.5 55.5t-60.5 28.5t-109 8v25z" />
    <glyph glyph-name="uni0418041D.dlig" horiz-adv-x="2344" 
d="M1649 1434h696v-25q-72 0 -109 -5.5t-60.5 -28t-29.5 -56.5t-6 -100v-1004q0 -65 6 -99t29.5 -56.5t61 -28.5t108.5 -6v-25h-696v25q77 0 125.5 2.5t86.5 11.5t57 20t30.5 35t14.5 50t3 71v727h-676v-727q0 -45 3 -71t15 -50t31 -35t57 -20t86.5 -11.5t125.5 -2.5v-25
h-994v25q125 0 203.5 2.5t138 11.5t89 19.5t47 35.5t21 50t3.5 71v918l-1089 -1375l-17 15q49 65 82 115t55 98.5t33.5 80.5t17 83t6.5 83.5t1 102.5v878q0 65 -6 98.5t-29.5 55.5t-60.5 28.5t-109 8.5v25h881v-25q-125 0 -203.5 -2.5t-138 -12t-89 -20t-47 -35.5t-21 -50
t-3.5 -71v-921l1087 1372l17 -14q-42 -56 -71.5 -102t-51 -82t-34.5 -76t-20.5 -66.5t-11 -72t-4 -73.5t-0.5 -89v-93h676v222q0 46 -2.5 72t-15 50.5t-31 35.5t-56.5 19.5t-86 10.5t-126 2v25z" />
    <glyph glyph-name="uni041B042C.dlig" horiz-adv-x="1886" 
d="M0 1434h1372v-25q-77 0 -125.5 -2.5t-86.5 -11.5t-57 -20t-30.5 -35t-14.5 -50t-3 -71v-1164h186q192 0 305 117.5t113 316.5q0 187 -107.5 289.5t-302.5 102.5q-57 0 -119 -9v41q94 17 177 17q115 0 211.5 -26.5t170 -79.5t115 -139.5t41.5 -199.5q0 -224 -157.5 -354.5
t-427.5 -130.5h-891v25q128 0 208 2.5t141 11.5t90.5 19.5t47.5 35.5t21.5 50t3.5 71v1163h-430l-189 -1102q-28 -161 -68 -228.5t-108 -67.5q-31 0 -86 20v700h25q7 -280 33.5 -406t76.5 -126q24 0 45.5 42t34.5 122l152 887q7 39 8 63t-3 47t-21 35t-41 22.5t-70 14.5
t-101 6t-139 2v25z" />
    <glyph glyph-name="uni041C042C.dlig" horiz-adv-x="2347" 
d="M86 1626l20 12l773 -1237l727 1241l20 -12q-54 -100 -75 -164.5t-28 -151t-7 -280.5v-979h186q192 0 305 117.5t113 316.5q0 187 -107.5 289.5t-302.5 102.5q-58 0 -119 -9v41q93 17 176 17q115 0 211.5 -26.5t170.5 -79.5t115.5 -139.5t41.5 -199.5q0 -224 -158 -354.5
t-428 -130.5h-843v25q86 0 146.5 1t111.5 6t82.5 10t56 17.5t36.5 24t20 33.5t9.5 43t1.5 55v866l-528 -901h-4l-549 883v-848q0 -34 1.5 -54.5t10 -42.5t21 -33.5t39 -23.5t59.5 -17t88 -10t118.5 -6.5t156.5 -2.5v-25h-754v25q72 2 109 8t60.5 28.5t29.5 55.5t6 98v815
q0 90 -0.5 122.5t-2 93t-6.5 85t-12.5 67t-21 73t-31.5 69.5t-45 86z" />
    </font>
</defs>
</svg>
