<?xml version="1.0" standalone="no"?>
<!DOCTYPE svg PUBLIC "-//W3C//DTD SVG 1.1//EN" "http://www.w3.org/Graphics/SVG/1.1/DTD/svg11.dtd" >
<svg xmlns="http://www.w3.org/2000/svg" xmlns:xlink="http://www.w3.org/1999/xlink" version="1.1">
<metadata>
Created by FontForge 20201107 at Tue Feb 13 19:36:20 2024
 By 
Copyright (c) 2023 by Misha Ivanov.
</metadata>
<defs>
<font id="Angst-Thin" horiz-adv-x="0" >
  <font-face 
    font-family="Angst Thin"
    font-weight="100"
    font-stretch="normal"
    units-per-em="2048"
    panose-1="0 0 0 0 0 0 0 0 0 0"
    ascent="1638"
    descent="-410"
    cap-height="1434"
    bbox="-102 -442 2431 1982"
    underline-thickness="102"
    underline-position="-255"
    unicode-range="U+0020-2212"
  />
<missing-glyph horiz-adv-x="1024" 
d="M840 1638v-2048h-650v2048h650zM342 -268h340v67h-209l143 97h66v67h-340v-67h143l-143 -97v-67zM342 10h340v232h-340v-232zM342 365h340v231h-205v-115h70v47h67v-96h-204v164h-68v-231zM342 641h340v205h-68v-135h-272v-70zM342 758h205v143h135v68h-340v-68h135v-76
h-135v-67zM342 1024h340v70h-135v143h-205v-213zM342 1290h340v68h-135v76h135v67h-338v-67h133v-76h-135v-68zM410 78v96h204v-96h-204zM410 1094v73h67v-73h-67z" />
    <glyph glyph-name="T_T.liga" unicode="TT" horiz-adv-x="2048" 
d="M82 1434h1966v-62h-8q-53 6 -187 6h-245v-1163q0 -102 4 -176l2 -31v-8h-74v8l2 31q4 74 4 176v1163h-291h-186h-8h-187h-290v-1163q0 -102 4 -176l2 -31v-8h-74v8l2 31q4 74 4 176v1163h-246q-133 0 -186 -6h-8v62z" />
    <glyph glyph-name="uni04220422.liga" unicode="&#x422;&#x422;" horiz-adv-x="2048" 
d="M82 1434h1966v-62h-8q-53 6 -187 6h-245v-1163q0 -102 4 -176l2 -31v-8h-74v8l2 31q4 74 4 176v1163h-291h-186h-8h-187h-290v-1163q0 -102 4 -176l2 -31v-8h-74v8l2 31q4 74 4 176v1163h-246q-133 0 -186 -6h-8v62z" />
    <glyph glyph-name="uni04070407.liga" unicode="&#x407;&#x407;" horiz-adv-x="1150" 
d="M831 8q5 66 5 187v1044q0 120 -5 186v9h70v-9q-4 -53 -4 -186v-1044q0 -134 4 -187v-8h-70v8zM195 1731q0 34 23.5 57.5t57.5 23.5t58 -23.5t24 -57.5t-24 -58t-58 -24t-57.5 24t-23.5 58zM248 0v8q4 53 4 187v1044q0 133 -4 186v9h69v-9q-4 -53 -4 -186v-1044
q0 -134 4 -187v-8h-69zM494 1731q0 34 23.5 57.5t57.5 23.5t58 -23.5t24 -57.5t-24 -58t-58 -24t-57.5 24t-23.5 58zM793 1731q0 34 23.5 57.5t57.5 23.5t58 -23.5t24 -57.5t-24 -58t-58 -24t-57.5 24t-23.5 58z" />
    <glyph glyph-name=".notdef" horiz-adv-x="1024" 
d="M840 1638v-2048h-650v2048h650zM342 -268h340v67h-209l143 97h66v67h-340v-67h143l-143 -97v-67zM342 10h340v232h-340v-232zM342 365h340v231h-205v-115h70v47h67v-96h-204v164h-68v-231zM342 641h340v205h-68v-135h-272v-70zM342 758h205v143h135v68h-340v-68h135v-76
h-135v-67zM342 1024h340v70h-135v143h-205v-213zM342 1290h340v68h-135v76h135v67h-338v-67h133v-76h-135v-68zM410 78v96h204v-96h-204zM410 1094v73h67v-73h-67z" />
    <glyph glyph-name=".null" 
 />
    <glyph glyph-name="nonmarkingreturn" horiz-adv-x="682" 
 />
    <glyph glyph-name="space" unicode=" " horiz-adv-x="716" 
 />
    <glyph glyph-name="space" unicode="&#xa0;" horiz-adv-x="716" 
 />
    <glyph glyph-name="exclam" unicode="!" horiz-adv-x="573" 
d="M287 -12q-34 0 -58 24t-24 58q0 33 24.5 57.5t57.5 24.5q32 0 57 -25t25 -57q0 -33 -24.5 -57.5t-57.5 -24.5zM195 1434q-3 48 25 75t71 27q38 0 64.5 -27.5t23.5 -74.5q-9 -125 -26.5 -340t-29.5 -386.5t-16 -324.5h-37q-6 203 -38 591.5t-37 459.5z" />
    <glyph glyph-name="quotedbl" unicode="&#x22;" horiz-adv-x="880" 
d="M215 1133q100 123 91 161q-2 9 -11 11q-29 3 -52.5 24t-23.5 53q0 35 24.5 60.5t59.5 25.5q38 0 61 -27t23 -71q0 -104 -139 -258zM494 1133q98 120 91 160q-2 10 -12 12q-28 3 -51.5 23.5t-23.5 53.5q0 35 24.5 60.5t59.5 25.5q38 0 61 -27t23 -71q0 -103 -140 -258z
" />
    <glyph glyph-name="numbersign" unicode="#" horiz-adv-x="1515" 
d="M733 1419l-133 -420h500l135 433l53 -13l-133 -420h279v-55h-295l-144 -455h439v-55h-457l-141 -448l-52 12l138 436h-500l-141 -448l-52 12l138 436h-285v55h301l143 455h-444v55h463l135 433zM440 489h498l143 455h-497z" />
    <glyph glyph-name="dollar" unicode="$" horiz-adv-x="1085" 
d="M588 1638v-168q159 0 299 -45l10 -96h-23q-51 46 -118.5 65t-167.5 21v-649l172 -152q107 -96 149.5 -171.5t42.5 -159.5q0 -140 -104.5 -218t-265.5 -88v-182h-62v180q-207 3 -358 101l-6 90h20q143 -126 344 -135v708l-139 123q-205 182 -205 342q0 108 91.5 181
t258.5 83v170h62zM246 1210q0 -80 46.5 -152.5t137.5 -152.5l96 -84v592q-138 -7 -209 -62t-71 -141zM582 31q129 6 215 71.5t86 173.5q0 145 -172 295l-129 115v-655z" />
    <glyph glyph-name="percent" unicode="%" horiz-adv-x="1495" 
d="M1329 1583l43 -31l-1206 -1656l-45 30zM61 1192q0 126 88 208.5t226 82.5t226.5 -82.5t88.5 -208.5q0 -136 -88 -220.5t-227 -84.5t-226.5 84.5t-87.5 220.5zM117 1190q0 -110 72.5 -179t185.5 -69t186.5 69t73.5 179q0 103 -73.5 170t-186.5 67q-112 0 -185 -67
t-73 -170zM805 281q0 126 87.5 208t225.5 82t227 -82t89 -208q0 -136 -88.5 -221t-227.5 -85q-138 0 -225.5 85t-87.5 221zM860 279q0 -110 72.5 -179t185.5 -69t186.5 69t73.5 179q0 103 -73.5 170t-186.5 67q-112 0 -185 -67t-73 -170z" />
    <glyph glyph-name="ampersand" unicode="&#x26;" horiz-adv-x="1251" 
d="M938 918q78 -75 119 -177.5t41 -210.5q0 -128 -45 -235l125 -131q83 -88 117.5 -118t56.5 -40v-16q-34 -10 -71 7t-64 42t-82 82l-111 117q-65 -120 -182 -191.5t-279 -71.5q-124 0 -226 60.5t-159 160t-57 214.5q0 126 74 246t229 214q-170 181 -170 334q0 117 92 191.5
t260 74.5q142 0 266 -45l9 -96h-19q-48 48 -110 67t-156 19q-138 0 -209.5 -56t-71.5 -149q0 -79 40 -150.5t120 -154.5l535 -563q28 86 28 174q0 121 -49.5 224.5t-142.5 160.5v17h92zM182 416q0 -159 110 -272t271 -113q151 0 257.5 68.5t162.5 181.5l-526 555
q-144 -94 -209.5 -203t-65.5 -217z" />
    <glyph glyph-name="quotesingle" unicode="'" horiz-adv-x="573" 
d="M199 1090q100 123 91 161q-2 9 -11 11q-29 3 -52.5 24t-23.5 53q0 35 24.5 60.5t59.5 25.5q38 0 61 -27t23 -71q0 -103 -140 -258z" />
    <glyph glyph-name="parenleft" unicode="(" horiz-adv-x="737" 
d="M561 1604q-181 -198 -279 -412t-98 -475t98 -475t279 -412l-35 -37q-96 97 -165.5 190.5t-125.5 206t-84 244.5t-28 283t28 283t84 244t125.5 205t165.5 191z" />
    <glyph glyph-name="parenright" unicode=")" horiz-adv-x="737" 
d="M158 1640q96 -98 165.5 -191t125.5 -205t84 -244t28 -283t-28 -283t-84 -244.5t-125.5 -206t-165.5 -190.5l-35 37q181 198 279 412t98 475t-98 475t-279 412z" />
    <glyph glyph-name="asterisk" unicode="*" horiz-adv-x="983" 
d="M541 1577l-21 -270q12 -4 17 -9l223 152l49 -84l-244 -119v-8v-8l244 -119l-49 -84l-223 152q-2 -2 -9 -6t-8 -5l21 -268h-99l21 270q-12 4 -17 9l-223 -152l-49 84l244 119v8v8l-244 119l49 84l223 -152q5 5 17 9l-21 270h99z" />
    <glyph glyph-name="plus" unicode="+" horiz-adv-x="942" 
d="M51 745h393v412h56v-412h391v-55h-391v-414h-56v414h-393v55z" />
    <glyph glyph-name="comma" unicode="," horiz-adv-x="573" 
d="M199 -184q100 123 91 161q-2 9 -11 11q-28 3 -52 24t-24 54q0 35 24.5 60.5t59.5 25.5q38 0 61 -27.5t23 -71.5q0 -103 -140 -258z" />
    <glyph glyph-name="hyphen" unicode="-" horiz-adv-x="819" 
d="M20 745h779v-55h-779v55z" />
    <glyph glyph-name="period" unicode="." horiz-adv-x="573" 
d="M287 -12q-34 0 -58 24t-24 58q0 33 24.5 57.5t57.5 24.5q32 0 57 -25t25 -57q0 -33 -24.5 -57.5t-57.5 -24.5z" />
    <glyph glyph-name="slash" unicode="/" horiz-adv-x="1105" 
d="M979 1651l49 -23l-901 -1841l-49 23z" />
    <glyph glyph-name="zero" unicode="0" horiz-adv-x="1392" 
d="M696 -33q-178 0 -318 96t-218 268.5t-78 391.5t78 391.5t218 268.5t318 96q177 0 317.5 -96t219 -268.5t78.5 -391.5t-78.5 -391.5t-219 -268.5t-317.5 -96zM143 725q0 -309 153 -505.5t392 -196.5q162 0 290 89t199.5 249.5t71.5 363.5q0 201 -70 360.5t-194.5 248.5
t-282.5 89q-162 0 -289.5 -89t-198.5 -248t-71 -361z" />
    <glyph glyph-name="one" unicode="1" horiz-adv-x="692" 
d="M135 1120l277 318h24q-4 -55 -4 -195v-1028q0 -154 4 -207v-8h-71v8q6 53 6 207v1096l-205 -226z" />
    <glyph glyph-name="two" unicode="2" horiz-adv-x="1175" 
d="M170 20q216 173 364.5 320t233 272t120.5 229.5t36 209.5q0 73 -21 135t-56 105t-81.5 74t-97.5 45.5t-103 14.5q-124 0 -221 -63.5t-129 -155.5h-20l-11 97q66 84 165 131t210 47q83 0 158.5 -27.5t135.5 -80t96 -136t36 -186.5q0 -106 -34.5 -211t-90 -196.5
t-148 -195.5t-185.5 -191.5t-226 -201.5h469q99 0 133.5 2.5t73.5 12.5h8v-70h-815v20z" />
    <glyph glyph-name="three" unicode="3" horiz-adv-x="1126" 
d="M147 1434h805l4 -7l-473 -526h43q126 0 225 -36.5t158.5 -98t90 -138t30.5 -161.5q0 -92 -35 -181t-97.5 -160.5t-159.5 -115t-212 -43.5q-152 0 -268 76.5t-174 192.5v172h22q22 -164 140.5 -274.5t279.5 -110.5q129 0 232.5 66.5t157 167.5t53.5 212q0 76 -27.5 142
t-83.5 120t-153 85.5t-224 31.5q-36 0 -63 -2l-21 33l443 493h-478q-103 0 -135.5 -1.5t-70.5 -10.5h-9v74z" />
    <glyph glyph-name="four" unicode="4" horiz-adv-x="976" 
d="M760 1434q-10 -61 -10 -195v-813h4q133 0 186 4h8v-63h-8q-53 4 -186 4h-4v-156q0 -154 4 -207v-8h-72v8q6 53 6 207v156h-676l-12 22l700 1041h60zM90 426h598v891l-596 -887q-4 -4 -2 -4z" />
    <glyph glyph-name="five" unicode="5" horiz-adv-x="1290" 
d="M375 1434h629v-68h-9q-38 9 -71 10.5t-136 1.5h-366l-103 -596q143 131 330 131q107 0 193 -37.5t139.5 -100.5t82 -142t28.5 -166q0 -94 -33.5 -181.5t-97 -159.5t-166 -115.5t-228.5 -43.5q-125 0 -236.5 54t-185.5 161l23 107h16q36 -120 147 -193t247 -73
q108 0 196 39t142.5 104t84 144t29.5 163q0 75 -24 143.5t-70 123t-120 86.5t-167 32q-95 0 -187 -43.5t-167 -132.5l-45 23z" />
    <glyph glyph-name="six" unicode="6" horiz-adv-x="1249" 
d="M631 -33q-115 0 -207.5 45.5t-150.5 124.5t-88.5 180.5t-30.5 217.5q0 127 34.5 255.5t107.5 250t176 217t250.5 157t319.5 68.5v-53q-164 -12 -303 -72.5t-234 -150t-161.5 -202t-97.5 -229.5t-31 -233q0 -143 46 -259.5t140.5 -188.5t223.5 -72q171 0 279 119.5
t108 303.5q0 180 -101.5 295t-261.5 115q-112 0 -190 -45l-23 37q95 63 217 63q185 0 302.5 -129t117.5 -331q0 -217 -126 -350.5t-316 -133.5z" />
    <glyph glyph-name="seven" unicode="7" horiz-adv-x="880" 
d="M61 1434h840l-555 -1241q-49 -110 -63 -185l-2 -8h-91v8q47 75 97 187l528 1177h-539q-103 0 -135.5 -2t-70.5 -12h-9v76z" />
    <glyph glyph-name="eight" unicode="8" horiz-adv-x="1269" 
d="M635 -33q-207 0 -339 119.5t-132 306.5q0 153 87 263.5t236 148.5q-102 35 -165.5 122t-63.5 191q0 145 109.5 246.5t267.5 101.5t267.5 -101.5t109.5 -246.5q0 -104 -64 -191t-166 -122q149 -39 236.5 -149t87.5 -263q0 -187 -132 -306.5t-339 -119.5zM225 393
q0 -163 115 -266.5t295 -103.5t294.5 103.5t114.5 266.5q0 165 -114.5 271t-294.5 106t-295 -106t-115 -271zM319 1124q0 -124 92.5 -212.5t223.5 -88.5t223 88.5t92 212.5q0 121 -91.5 204t-223.5 83t-224 -83t-92 -204z" />
    <glyph glyph-name="nine" unicode="9" horiz-adv-x="1249" 
d="M618 1470q115 0 207.5 -45.5t151 -124t89 -180t30.5 -217.5q0 -125 -34.5 -252t-108 -247t-176 -214.5t-250.5 -155t-320 -67.5v51q138 10 258 53.5t209 110t159 151t113 179.5t65.5 191.5t22.5 191.5q0 106 -27 200t-77.5 165.5t-129 113t-175.5 41.5q-171 0 -279 -120
t-108 -304q0 -180 101 -294.5t261 -114.5q113 0 191 45l22 -37q-97 -64 -217 -64q-184 0 -302 129t-118 332q0 217 126 350t316 133z" />
    <glyph glyph-name="colon" unicode=":" horiz-adv-x="573" 
d="M287 295q-34 0 -58 24t-24 58q0 33 24.5 57.5t57.5 24.5q32 0 57 -25t25 -57q0 -33 -24.5 -57.5t-57.5 -24.5zM205 1016q0 33 24.5 57.5t57.5 24.5q32 0 57 -25t25 -57q0 -33 -24.5 -57.5t-57.5 -24.5q-34 0 -58 24t-24 58z" />
    <glyph glyph-name="semicolon" unicode=";" horiz-adv-x="573" 
d="M287 940q-34 0 -58 24t-24 58q0 33 24.5 57.5t57.5 24.5q32 0 57 -25t25 -57q0 -33 -24.5 -57.5t-57.5 -24.5zM199 127q100 123 91 161q-2 9 -11 11q-28 3 -52 24t-24 54q0 35 24.5 60.5t59.5 25.5q38 0 61 -27t23 -71q0 -104 -140 -259z" />
    <glyph glyph-name="less" unicode="&#x3c;" horiz-adv-x="935" 
d="M731 1198l25 -27l-455 -444l455 -444l-25 -27l-526 471z" />
    <glyph glyph-name="equal" unicode="=" horiz-adv-x="942" 
d="M51 930h840v-56h-840v56zM51 547v55h840v-55h-840z" />
    <glyph glyph-name="greater" unicode="&#x3e;" horiz-adv-x="935" 
d="M246 1198l526 -471l-526 -471l-25 27l455 444l-455 444z" />
    <glyph glyph-name="question" unicode="?" horiz-adv-x="911" 
d="M393 -12q-34 0 -58 24t-24 58q0 33 24.5 57.5t57.5 24.5q32 0 57 -25t25 -57q0 -33 -24.5 -57.5t-57.5 -24.5zM123 1329l8 96q124 45 266 45q171 0 259.5 -72t88.5 -198q0 -79 -36 -149.5t-131 -178.5l-115 -133q-98 -116 -98 -209q0 -62 34 -131l-20 -10q-64 88 -64 166
q0 95 105 219l117 135q86 99 116.5 161.5t30.5 129.5q0 101 -80 158t-217 57q-86 0 -143 -20t-103 -66h-18z" />
    <glyph glyph-name="at" unicode="@" horiz-adv-x="1679" 
d="M805 1282h78l256 -725q71 -205 194 -205q89 0 156 98.5t67 274.5q0 119 -36 229.5t-102 199.5t-154 155.5t-198 102.5t-228 36q-197 0 -361.5 -96t-259 -262t-94.5 -365q0 -198 94.5 -364t259 -262.5t361.5 -96.5q252 0 471 164l30 -39q-101 -86 -229.5 -133t-269.5 -47
q-160 0 -304.5 61t-248.5 165t-165 248t-61 304t61 304t165 248t248.5 165t304.5 61t304 -61t248 -165t165 -248t61 -304q0 -187 -80 -307.5t-205 -120.5q-77 0 -142.5 55.5t-117.5 204.5l-20 57h-426l-47 -127q-27 -75 -27 -104v-4h-80v4q0 1 4 9t13.5 32.5t23.5 62.5z
M647 670h387l-190 538z" />
    <glyph glyph-name="A" unicode="A" horiz-adv-x="1228" 
d="M610 1434h52l456 -1219q56 -151 84 -207v-8h-92v8q0 48 -59 209l-62 166h-713l-61 -166q-59 -161 -59 -209v-8h-88v8q28 56 84 207zM297 438h672l-336 901z" />
    <glyph glyph-name="A" unicode="a" horiz-adv-x="1228" 
d="M610 1434h52l456 -1219q56 -151 84 -207v-8h-92v8q0 48 -59 209l-62 166h-713l-61 -166q-59 -161 -59 -209v-8h-88v8q28 56 84 207zM297 438h672l-336 901z" />
    <glyph glyph-name="B" unicode="B" horiz-adv-x="1320" 
d="M530 1434q203 0 322 -80.5t119 -216.5q0 -95 -54.5 -167t-150.5 -104q218 -20 338.5 -131.5t120.5 -296.5q0 -207 -153 -322.5t-425 -115.5h-391v8q4 53 4 207v1004q0 153 -4 206v9h274zM322 55h325q249 0 382.5 99t133.5 284q0 189 -139.5 287t-407.5 106h-2v33h2
q56 10 106 30t93 51t68.5 77.5t25.5 103.5q0 121 -100.5 186.5t-278.5 65.5h-208v-1323z" />
    <glyph glyph-name="B" unicode="b" horiz-adv-x="1320" 
d="M530 1434q203 0 322 -80.5t119 -216.5q0 -95 -54.5 -167t-150.5 -104q218 -20 338.5 -131.5t120.5 -296.5q0 -207 -153 -322.5t-425 -115.5h-391v8q4 53 4 207v1004q0 153 -4 206v9h274zM322 55h325q249 0 382.5 99t133.5 284q0 189 -139.5 287t-407.5 106h-2v33h2
q56 10 106 30t93 51t68.5 77.5t25.5 103.5q0 121 -100.5 186.5t-278.5 65.5h-208v-1323z" />
    <glyph glyph-name="C" unicode="C" horiz-adv-x="1488" 
d="M1386 1247v-102h-24q-49 119 -210.5 200.5t-336.5 81.5q-143 0 -271 -55t-220.5 -148.5t-146.5 -223.5t-54 -275q0 -193 91.5 -354t251 -254.5t349.5 -93.5q186 0 336.5 80t210.5 202h24v-102q-108 -108 -256 -172t-315 -64q-156 0 -295.5 59.5t-240 161t-159.5 241.5
t-59 296t59 296t159.5 241.5t240 161t295.5 59.5q167 0 315 -64t256 -172z" />
    <glyph glyph-name="C" unicode="c" horiz-adv-x="1488" 
d="M1386 1247v-102h-24q-49 119 -210.5 200.5t-336.5 81.5q-143 0 -271 -55t-220.5 -148.5t-146.5 -223.5t-54 -275q0 -193 91.5 -354t251 -254.5t349.5 -93.5q186 0 336.5 80t210.5 202h24v-102q-108 -108 -256 -172t-315 -64q-156 0 -295.5 59.5t-240 161t-159.5 241.5
t-59 296t59 296t159.5 241.5t240 161t295.5 59.5q167 0 315 -64t256 -172z" />
    <glyph glyph-name="D" unicode="D" horiz-adv-x="1597" 
d="M766 1434q168 0 311 -53t244 -147t158 -227.5t57 -289.5q0 -197 -100.5 -361.5t-277.5 -260t-392 -95.5h-510v8q4 53 4 207v1004q0 153 -4 206v9h510zM322 55h415q136 0 255.5 36t206.5 98.5t150 146.5t94.5 181t31.5 200q0 192 -93.5 343t-261 234.5t-381.5 83.5h-417
v-1323z" />
    <glyph glyph-name="D" unicode="d" horiz-adv-x="1597" 
d="M766 1434q168 0 311 -53t244 -147t158 -227.5t57 -289.5q0 -197 -100.5 -361.5t-277.5 -260t-392 -95.5h-510v8q4 53 4 207v1004q0 153 -4 206v9h510zM322 55h415q136 0 255.5 36t206.5 98.5t150 146.5t94.5 181t31.5 200q0 192 -93.5 343t-261 234.5t-381.5 83.5h-417
v-1323z" />
    <glyph glyph-name="E" unicode="E" horiz-adv-x="1116" 
d="M256 1434h752v-62h-9q-53 6 -186 6h-491v-381h526v-55h-526v-887h567q133 0 186 6h8v-61h-827v8q4 53 4 207v1004q0 153 -4 206v9z" />
    <glyph glyph-name="E" unicode="e" horiz-adv-x="1116" 
d="M256 1434h752v-62h-9q-53 6 -186 6h-491v-381h526v-55h-526v-887h567q133 0 186 6h8v-61h-827v8q4 53 4 207v1004q0 153 -4 206v9z" />
    <glyph glyph-name="F" unicode="F" horiz-adv-x="1009" 
d="M256 1434h772v-62h-8q-53 6 -186 6h-512v-381h516v-55h-516v-727q0 -154 6 -207v-8h-72v8q4 53 4 207v1004q0 153 -4 206v9z" />
    <glyph glyph-name="F" unicode="f" horiz-adv-x="1009" 
d="M256 1434h772v-62h-8q-53 6 -186 6h-512v-381h516v-55h-516v-727q0 -154 6 -207v-8h-72v8q4 53 4 207v1004q0 153 -4 206v9z" />
    <glyph glyph-name="G" unicode="G" horiz-adv-x="1550" 
d="M1386 1247v-102h-24q-49 119 -210.5 200.5t-336.5 81.5q-143 0 -271 -55t-220.5 -148.5t-146.5 -223.5t-54 -275q0 -193 91.5 -354t251 -254.5t349.5 -93.5q149 0 280.5 60t229.5 167v291q0 88 -2.5 119t-13.5 67v8h82v-8q-5 -66 -5 -186v-322q-107 -117 -256 -184.5
t-315 -67.5q-156 0 -295.5 59.5t-240 161t-159.5 241.5t-59 296t59 296t159.5 241.5t240 161t295.5 59.5q167 0 315 -64t256 -172z" />
    <glyph glyph-name="G" unicode="g" horiz-adv-x="1550" 
d="M1386 1247v-102h-24q-49 119 -210.5 200.5t-336.5 81.5q-143 0 -271 -55t-220.5 -148.5t-146.5 -223.5t-54 -275q0 -193 91.5 -354t251 -254.5t349.5 -93.5q149 0 280.5 60t229.5 167v291q0 88 -2.5 119t-13.5 67v8h82v-8q-5 -66 -5 -186v-322q-107 -117 -256 -184.5
t-315 -67.5q-156 0 -295.5 59.5t-240 161t-159.5 241.5t-59 296t59 296t159.5 241.5t240 161t295.5 59.5q167 0 315 -64t256 -172z" />
    <glyph glyph-name="H" unicode="H" horiz-adv-x="1433" 
d="M1106 1434h72v-9q-4 -53 -4 -206v-1004q0 -154 4 -207v-8h-72v8q6 53 6 207v727h-790v-727q0 -154 6 -207v-8h-72v8q4 53 4 207v1004q0 153 -4 206v9h72v-9q-6 -53 -6 -206v-222h790v222q0 153 -6 206v9z" />
    <glyph glyph-name="H" unicode="h" horiz-adv-x="1433" 
d="M1106 1434h72v-9q-4 -53 -4 -206v-1004q0 -154 4 -207v-8h-72v8q6 53 6 207v727h-790v-727q0 -154 6 -207v-8h-72v8q4 53 4 207v1004q0 153 -4 206v9h72v-9q-6 -53 -6 -206v-222h790v222q0 153 -6 206v9z" />
    <glyph glyph-name="I" unicode="I" horiz-adv-x="583" 
d="M256 1434h70v-9q-4 -53 -4 -206v-1004q0 -154 4 -207v-8h-70v8q4 53 4 207v1004q0 153 -4 206v9z" />
    <glyph glyph-name="I" unicode="i" horiz-adv-x="583" 
d="M256 1434h70v-9q-4 -53 -4 -206v-1004q0 -154 4 -207v-8h-70v8q4 53 4 207v1004q0 153 -4 206v9z" />
    <glyph glyph-name="J" unicode="J" horiz-adv-x="624" 
d="M295 1434h72v-9q-5 -66 -5 -186v-991q0 -251 -112.5 -406t-343.5 -192l-8 24q94 21 164.5 60t115.5 91t73 123t39 148.5t11 175.5v967q0 133 -6 186v9z" />
    <glyph glyph-name="J" unicode="j" horiz-adv-x="624" 
d="M295 1434h72v-9q-5 -66 -5 -186v-991q0 -251 -112.5 -406t-343.5 -192l-8 24q94 21 164.5 60t115.5 91t73 123t39 148.5t11 175.5v967q0 133 -6 186v9z" />
    <glyph glyph-name="K" unicode="K" horiz-adv-x="1288" 
d="M256 1434h72v-9q-6 -53 -6 -206v-474l501 474q97 91 139 135.5t54 70.5l4 9h117v-7q-16 -11 -31 -23t-39.5 -34.5t-39 -35.5t-57 -53t-65.5 -62l-276 -258l506 -773q70 -106 97 -141t46 -47l-4 -16q-26 -3 -48.5 6.5t-48 38t-42 51t-50.5 74.5l-499 764l-264 -246v-457
q0 -154 6 -207v-8h-72v8q4 53 4 207v1004q0 153 -4 206v9z" />
    <glyph glyph-name="K" unicode="k" horiz-adv-x="1288" 
d="M256 1434h72v-9q-6 -53 -6 -206v-474l501 474q97 91 139 135.5t54 70.5l4 9h117v-7q-16 -11 -31 -23t-39.5 -34.5t-39 -35.5t-57 -53t-65.5 -62l-276 -258l506 -773q70 -106 97 -141t46 -47l-4 -16q-26 -3 -48.5 6.5t-48 38t-42 51t-50.5 74.5l-499 764l-264 -246v-457
q0 -154 6 -207v-8h-72v8q4 53 4 207v1004q0 153 -4 206v9z" />
    <glyph glyph-name="L" unicode="L" horiz-adv-x="921" 
d="M256 1434h72v-9q-6 -53 -6 -206v-1164h426q133 0 186 6h8v-61h-686v8q4 53 4 207v1004q0 153 -4 206v9z" />
    <glyph glyph-name="L" unicode="l" horiz-adv-x="921" 
d="M256 1434h72v-9q-6 -53 -6 -206v-1164h426q133 0 186 6h8v-61h-686v8q4 53 4 207v1004q0 153 -4 206v9z" />
    <glyph glyph-name="M" unicode="M" horiz-adv-x="1720" 
d="M256 1434h41l565 -1026l561 1026h41q-4 -61 -4 -215v-1004q0 -154 4 -207v-8h-71v8q6 53 6 207v1057l-522 -955h-33l-529 957v-1059q0 -145 7 -207v-8h-66v8q4 53 4 207v1004q0 154 -4 215z" />
    <glyph glyph-name="M" unicode="m" horiz-adv-x="1720" 
d="M256 1434h41l565 -1026l561 1026h41q-4 -61 -4 -215v-1004q0 -154 4 -207v-8h-71v8q6 53 6 207v1057l-522 -955h-33l-529 957v-1059q0 -145 7 -207v-8h-66v8q4 53 4 207v1004q0 154 -4 215z" />
    <glyph glyph-name="N" unicode="N" horiz-adv-x="1454" 
d="M256 1438h51l832 -1315v1096q0 153 -6 206v9h65v-9q-4 -53 -4 -206v-1029q0 -139 4 -194h-51l-832 1313v-1094q0 -145 7 -207v-8h-66v8q4 53 4 207v1028q0 140 -4 195z" />
    <glyph glyph-name="N" unicode="n" horiz-adv-x="1454" 
d="M256 1438h51l832 -1315v1096q0 153 -6 206v9h65v-9q-4 -53 -4 -206v-1029q0 -139 4 -194h-51l-832 1313v-1094q0 -145 7 -207v-8h-66v8q4 53 4 207v1028q0 140 -4 195z" />
    <glyph glyph-name="O" unicode="O" horiz-adv-x="1638" 
d="M819 -33q-208 0 -382 101t-275 275t-101 382t101 382t275 275t382 101t382 -101t275 -275t101 -382t-101 -382t-275 -275t-382 -101zM123 725q0 -144 54 -274t146 -224t221 -149t273 -55q192 0 353 93.5t253.5 254.5t92.5 354t-92.5 354.5t-253 254.5t-353.5 93
q-192 0 -351.5 -93t-251 -254t-91.5 -355z" />
    <glyph glyph-name="O" unicode="o" horiz-adv-x="1638" 
d="M819 -33q-208 0 -382 101t-275 275t-101 382t101 382t275 275t382 101t382 -101t275 -275t101 -382t-101 -382t-275 -275t-382 -101zM123 725q0 -144 54 -274t146 -224t221 -149t273 -55q192 0 353 93.5t253.5 254.5t92.5 354t-92.5 354.5t-253 254.5t-353.5 93
q-192 0 -351.5 -93t-251 -254t-91.5 -355z" />
    <glyph glyph-name="P" unicode="P" horiz-adv-x="1210" 
d="M584 1434q96 0 179 -14.5t159 -49.5t130 -87.5t85.5 -133t31.5 -182.5q0 -129 -58.5 -223.5t-151.5 -139.5t-207 -45q-83 0 -162 31l10 39q82 -21 152 -21q149 0 252.5 97t103.5 262q0 195 -136.5 303t-404.5 108h-245v-1163q0 -154 6 -207v-8h-72v8q4 53 4 207v1004
q0 153 -4 206v9h328z" />
    <glyph glyph-name="P" unicode="p" horiz-adv-x="1210" 
d="M584 1434q96 0 179 -14.5t159 -49.5t130 -87.5t85.5 -133t31.5 -182.5q0 -129 -58.5 -223.5t-151.5 -139.5t-207 -45q-83 0 -162 31l10 39q82 -21 152 -21q149 0 252.5 97t103.5 262q0 195 -136.5 303t-404.5 108h-245v-1163q0 -154 6 -207v-8h-72v8q4 53 4 207v1004
q0 153 -4 206v9h328z" />
    <glyph glyph-name="Q" unicode="Q" horiz-adv-x="1669" 
d="M1632 -332q-14 -2 -43 -2q-164 0 -275.5 88t-203.5 271q-141 -58 -291 -58q-208 0 -382 101t-275 275t-101 382t101 382t275 275t382 101t382 -101t275 -275t101 -382q0 -219 -112 -400t-298 -276q87 -171 200 -260t265 -102v-19zM123 725q0 -144 54.5 -274t147.5 -224
t222.5 -149t273.5 -55q192 0 352 93.5t251.5 254.5t91.5 354q0 194 -91.5 355t-251.5 254t-352 93t-352.5 -93t-253 -254t-92.5 -355z" />
    <glyph glyph-name="Q" unicode="q" horiz-adv-x="1669" 
d="M1632 -332q-14 -2 -43 -2q-164 0 -275.5 88t-203.5 271q-141 -58 -291 -58q-208 0 -382 101t-275 275t-101 382t101 382t275 275t382 101t382 -101t275 -275t101 -382q0 -219 -112 -400t-298 -276q87 -171 200 -260t265 -102v-19zM123 725q0 -144 54.5 -274t147.5 -224
t222.5 -149t273.5 -55q192 0 352 93.5t251.5 254.5t91.5 354q0 194 -91.5 355t-251.5 254t-352 93t-352.5 -93t-253 -254t-92.5 -355z" />
    <glyph glyph-name="R" unicode="R" horiz-adv-x="1370" 
d="M672 1434q255 0 395.5 -86.5t140.5 -241.5q0 -162 -129 -243t-374 -81l423 -596q76 -106 102.5 -139t47.5 -45l-4 -16q-47 -7 -86 29.5t-101 122.5q-5 8 -8 12l-465 655l15 29h86q432 0 432 268q0 130 -130 203t-362 73h-333v-1163q0 -154 6 -207v-8h-72v8q4 53 4 207
v1004q0 153 -4 206v9h416z" />
    <glyph glyph-name="R" unicode="r" horiz-adv-x="1370" 
d="M672 1434q255 0 395.5 -86.5t140.5 -241.5q0 -162 -129 -243t-374 -81l423 -596q76 -106 102.5 -139t47.5 -45l-4 -16q-47 -7 -86 29.5t-101 122.5q-5 8 -8 12l-465 655l15 29h86q432 0 432 268q0 130 -130 203t-362 73h-333v-1163q0 -154 6 -207v-8h-72v8q4 53 4 207
v1004q0 153 -4 206v9h416z" />
    <glyph glyph-name="S" unicode="S" horiz-adv-x="995" 
d="M791 1425l8 -96h-19q-48 48 -110 67t-156 19q-138 0 -209.5 -56t-71.5 -149q0 -80 40 -152.5t120 -152.5l287 -291q94 -94 131 -170t37 -161q0 -102 -52.5 -173.5t-133 -103t-179.5 -31.5q-185 0 -323 101l-6 90h18q71 -71 151 -103t183 -32q119 0 199.5 66t80.5 179
q0 146 -149 295l-287 291q-178 181 -178 342q0 117 92 191.5t260 74.5q143 0 267 -45z" />
    <glyph glyph-name="S" unicode="s" horiz-adv-x="995" 
d="M791 1425l8 -96h-19q-48 48 -110 67t-156 19q-138 0 -209.5 -56t-71.5 -149q0 -80 40 -152.5t120 -152.5l287 -291q94 -94 131 -170t37 -161q0 -102 -52.5 -173.5t-133 -103t-179.5 -31.5q-185 0 -323 101l-6 90h18q71 -71 151 -103t183 -32q119 0 199.5 66t80.5 179
q0 146 -149 295l-287 291q-178 181 -178 342q0 117 92 191.5t260 74.5q143 0 267 -45z" />
    <glyph glyph-name="T" unicode="T" horiz-adv-x="1024" 
d="M82 1434h942v-62h-8q-53 6 -187 6h-245v-1163q0 -102 4 -176l2 -31v-8h-74v8l2 31q4 74 4 176v1163h-246q-133 0 -186 -6h-8v62z" />
    <glyph glyph-name="T" unicode="t" horiz-adv-x="1024" 
d="M82 1434h942v-62h-8q-53 6 -187 6h-245v-1163q0 -102 4 -176l2 -31v-8h-74v8l2 31q4 74 4 176v1163h-246q-133 0 -186 -6h-8v62z" />
    <glyph glyph-name="U" unicode="U" horiz-adv-x="1404" 
d="M205 1434h71v-9q-6 -53 -6 -206v-654q0 -263 117 -402.5t326 -139.5q195 0 308.5 137.5t113.5 384.5v674q0 144 -7 206v9h72v-9q-4 -53 -4 -206v-654q0 -285 -137 -441.5t-367 -156.5q-215 0 -349 154t-134 424v674q0 153 -4 206v9z" />
    <glyph glyph-name="U" unicode="u" horiz-adv-x="1404" 
d="M205 1434h71v-9q-6 -53 -6 -206v-654q0 -263 117 -402.5t326 -139.5q195 0 308.5 137.5t113.5 384.5v674q0 144 -7 206v9h72v-9q-4 -53 -4 -206v-654q0 -285 -137 -441.5t-367 -156.5q-215 0 -349 154t-134 424v674q0 153 -4 206v9z" />
    <glyph glyph-name="V" unicode="V" horiz-adv-x="1187" 
d="M57 1434h93v-9q0 -53 55 -206l403 -1119l402 1119q53 148 53 206v9h88v-9q-29 -57 -82 -206l-440 -1219h-51l-439 1219q-53 149 -82 206v9z" />
    <glyph glyph-name="V" unicode="v" horiz-adv-x="1187" 
d="M57 1434h93v-9q0 -53 55 -206l403 -1119l402 1119q53 148 53 206v9h88v-9q-29 -57 -82 -206l-440 -1219h-51l-439 1219q-53 149 -82 206v9z" />
    <glyph glyph-name="W" unicode="W" horiz-adv-x="2045" 
d="M27 1434h88v-15q0 -44 51 -200l383 -1135l455 1350h51l442 -1352l387 1135q45 133 45 202v15h92v-9q-4 -12 -15.5 -41t-27.5 -71.5t-34 -95.5l-416 -1217h-68l-434 1327l-448 -1327h-66l-412 1219q-46 140 -73 206v9z" />
    <glyph glyph-name="W" unicode="w" horiz-adv-x="2045" 
d="M27 1434h88v-15q0 -44 51 -200l383 -1135l455 1350h51l442 -1352l387 1135q45 133 45 202v15h92v-9q-4 -12 -15.5 -41t-27.5 -71.5t-34 -95.5l-416 -1217h-68l-434 1327l-448 -1327h-66l-412 1219q-46 140 -73 206v9z" />
    <glyph glyph-name="X" unicode="X" horiz-adv-x="1316" 
d="M143 1434h99l2 -9q6 -20 23 -45.5t83 -115.5l332 -451l334 453q16 23 29.5 41.5t22.5 31.5t16 25l10.5 18t7 14.5t4.5 10.5t3.5 9.5t2.5 8.5l2 9h98v-9q-42 -42 -165 -208l-330 -449l407 -551q121 -164 166 -209v-8h-98l-2 8q-6 19 -22.5 44.5t-82.5 115.5l-413 557
l-408 -557q-16 -23 -29.5 -41.5t-22.5 -31.5t-16 -25t-10.5 -18.5t-7 -14.5t-4.5 -10.5t-3 -9.5t-3 -9l-2 -8h-98v8q43 43 163 209l408 555l-330 445q-118 160 -166 208v9z" />
    <glyph glyph-name="X" unicode="x" horiz-adv-x="1316" 
d="M143 1434h99l2 -9q6 -20 23 -45.5t83 -115.5l332 -451l334 453q16 23 29.5 41.5t22.5 31.5t16 25l10.5 18t7 14.5t4.5 10.5t3.5 9.5t2.5 8.5l2 9h98v-9q-42 -42 -165 -208l-330 -449l407 -551q121 -164 166 -209v-8h-98l-2 8q-6 19 -22.5 44.5t-82.5 115.5l-413 557
l-408 -557q-16 -23 -29.5 -41.5t-22.5 -31.5t-16 -25t-10.5 -18.5t-7 -14.5t-4.5 -10.5t-3 -9.5t-3 -9l-2 -8h-98v8q43 43 163 209l408 555l-330 445q-118 160 -166 208v9z" />
    <glyph glyph-name="Y" unicode="Y" horiz-adv-x="1267" 
d="M184 1217q-109 156 -161 208v9h98l2 -9q6 -16 19.5 -36.5t84.5 -122.5l410 -582l412 582q43 61 64 93t25 41t9 25l2 9h96v-9q-54 -54 -162 -208l-419 -590v-432q0 -134 4 -187v-8h-70v8q4 53 4 187v432z" />
    <glyph glyph-name="Y" unicode="y" horiz-adv-x="1267" 
d="M184 1217q-109 156 -161 208v9h98l2 -9q6 -16 19.5 -36.5t84.5 -122.5l410 -582l412 582q43 61 64 93t25 41t9 25l2 9h96v-9q-54 -54 -162 -208l-419 -590v-432q0 -134 4 -187v-8h-70v8q4 53 4 187v432z" />
    <glyph glyph-name="Z" unicode="Z" horiz-adv-x="1167" 
d="M195 1434h868l-778 -1379h604q80 0 116 4.5t72 18.5h6v-78h-901l781 1378h-574q-81 0 -117 -4t-71 -18h-6v78z" />
    <glyph glyph-name="Z" unicode="z" horiz-adv-x="1167" 
d="M195 1434h868l-778 -1379h604q80 0 116 4.5t72 18.5h6v-78h-901l781 1378h-574q-81 0 -117 -4t-71 -18h-6v78z" />
    <glyph glyph-name="bracketleft" unicode="[" horiz-adv-x="716" 
d="M225 1638h307v-55h-245v-1733h245v-55h-307v1843z" />
    <glyph glyph-name="backslash" unicode="\" horiz-adv-x="1105" 
d="M127 1651l901 -1841l-49 -23l-901 1841z" />
    <glyph glyph-name="bracketright" unicode="]" horiz-adv-x="716" 
d="M492 1638v-1843h-308v55h246v1733h-246v55h308z" />
    <glyph glyph-name="asciicircum" unicode="^" horiz-adv-x="1228" 
d="M1038 1028l-28 -24l-396 403l-397 -401l-27 22l424 473z" />
    <glyph glyph-name="underscore" unicode="_" horiz-adv-x="1536" 
d="M92 55h1352v-55h-1352v55z" />
    <glyph glyph-name="braceleft" unicode="{" horiz-adv-x="962" 
d="M860 -190q-230 0 -319 163q-26 49 -42.5 135.5t-23.5 165.5t-23.5 165.5t-43.5 135.5q-32 60 -88.5 91.5t-155.5 46.5v20q99 15 155.5 47t88.5 92q27 49 43.5 135.5t23.5 166t23.5 166t42.5 135.5q89 163 319 163v-24q-102 -7 -163 -39t-93 -94q-33 -61 -50 -182
l-34 -242t-49 -180q-63 -119 -168 -152q105 -36 168 -154q32 -59 49 -180.5t34 -242.5t50 -181q32 -62 93 -94t163 -39v-24z" />
    <glyph glyph-name="braceright" unicode="}" horiz-adv-x="962" 
d="M102 -166q102 7 163 39t93 94q33 60 50.5 181t34.5 242.5t49 180.5q63 119 167 154q-104 32 -167 152q-32 59 -49 180t-34.5 242t-50.5 182q-32 62 -93 94t-163 39v24q231 0 320 -163q26 -49 42.5 -135.5t23.5 -166t23.5 -166t43.5 -135.5q32 -60 88.5 -92t155.5 -47v-20
q-99 -15 -155.5 -46.5t-88.5 -91.5q-27 -49 -43.5 -135.5t-23.5 -165.5t-23.5 -165.5t-42.5 -135.5q-89 -163 -320 -163v24z" />
    <glyph glyph-name="asciitilde" unicode="~" horiz-adv-x="997" 
d="M502 717q100 -49 170 -49q91 0 192 82l-10 18q-83 -51 -152 -51q-71 0 -206 69q-102 50 -170 50q-92 0 -193 -82l10 -19q83 51 152 51q72 0 207 -69z" />
    <glyph glyph-name="section" unicode="&#xa7;" horiz-adv-x="1140" 
d="M911 1425l7 -77h-21q-48 30 -121.5 48.5t-148.5 18.5q-77 0 -140.5 -20t-106 -64.5t-42.5 -107.5q0 -116 168 -271l321 -293q129 -117 129 -256q0 -100 -70.5 -172.5t-191.5 -87.5l51 -47q132 -121 132 -260q0 -126 -99 -202t-266 -76q-147 0 -270 57l-6 78h20
q129 -80 270 -80q130 0 209.5 60.5t79.5 160.5q0 71 -29.5 122.5t-123.5 139.5l-316 291q-75 69 -113 137t-38 115q0 114 75.5 183t210.5 81l-53 49q-152 139 -152 269q0 65 30 114.5t82.5 78t116 42.5t136.5 14q137 0 270 -45zM256 657q0 -115 168 -270l223 -203
q111 3 179.5 63t68.5 150q0 73 -29 123.5t-123 138.5l-217 201q-124 -1 -197 -59t-73 -144z" />
    <glyph glyph-name="guillemotleft" unicode="&#xab;" horiz-adv-x="1024" 
d="M225 729l316 371l22 -21l-258 -350l258 -352l-22 -19zM494 729l372 512l25 -16l-320 -496l320 -496l-25 -16z" />
    <glyph glyph-name="plusminus" unicode="&#xb1;" horiz-adv-x="942" 
d="M51 868h393v228h56v-228h391v-55h-391v-229h-56v229h-393v55zM51 406v55h840v-55h-840z" />
    <glyph glyph-name="guillemotright" unicode="&#xbb;" horiz-adv-x="1024" 
d="M799 729l-316 -371l-22 19l258 352l-258 350l22 21zM133 233l320 496l-320 496l25 16l372 -512l-372 -512z" />
    <glyph glyph-name="Agrave" unicode="&#xc0;" horiz-adv-x="1228" 
d="M610 1434h52l456 -1219q56 -151 84 -207v-8h-92v8q0 48 -59 209l-62 166h-713l-61 -166q-59 -161 -59 -209v-8h-88v8q28 56 84 207zM297 438h672l-336 901zM444 1878l62 51l237 -338l-20 -18z" />
    <glyph glyph-name="Agrave" unicode="&#xe0;" horiz-adv-x="1228" 
d="M610 1434h52l456 -1219q56 -151 84 -207v-8h-92v8q0 48 -59 209l-62 166h-713l-61 -166q-59 -161 -59 -209v-8h-88v8q28 56 84 207zM297 438h672l-336 901zM444 1878l62 51l237 -338l-20 -18z" />
    <glyph glyph-name="Aacute" unicode="&#xc1;" horiz-adv-x="1228" 
d="M610 1434h52l456 -1219q56 -151 84 -207v-8h-92v8q0 48 -59 209l-62 166h-713l-61 -166q-59 -161 -59 -209v-8h-88v8q28 56 84 207zM297 438h672l-336 901zM506 1610l237 338l62 -52l-279 -305z" />
    <glyph glyph-name="Aacute" unicode="&#xe1;" horiz-adv-x="1228" 
d="M610 1434h52l456 -1219q56 -151 84 -207v-8h-92v8q0 48 -59 209l-62 166h-713l-61 -166q-59 -161 -59 -209v-8h-88v8q28 56 84 207zM297 438h672l-336 901zM506 1610l237 338l62 -52l-279 -305z" />
    <glyph glyph-name="Acircumflex" unicode="&#xc2;" horiz-adv-x="1228" 
d="M610 1434h52l456 -1219q56 -151 84 -207v-8h-92v8q0 48 -59 209l-62 166h-713l-61 -166q-59 -161 -59 -209v-8h-88v8q28 56 84 207zM297 438h672l-336 901zM332 1599l301 263l301 -263l-23 -28l-284 205l-273 -205z" />
    <glyph glyph-name="Acircumflex" unicode="&#xe2;" horiz-adv-x="1228" 
d="M610 1434h52l456 -1219q56 -151 84 -207v-8h-92v8q0 48 -59 209l-62 166h-713l-61 -166q-59 -161 -59 -209v-8h-88v8q28 56 84 207zM297 438h672l-336 901zM332 1599l301 263l301 -263l-23 -28l-284 205l-273 -205z" />
    <glyph glyph-name="Atilde" unicode="&#xc3;" horiz-adv-x="1228" 
d="M610 1434h52l456 -1219q56 -151 84 -207v-8h-92v8q0 48 -59 209l-62 166h-713l-61 -166q-59 -161 -59 -209v-8h-88v8q28 56 84 207zM293 1688q64 112 174 112q68 0 199 -55q134 -57 196 -57q67 0 131 67l19 -14q-42 -61 -83 -87t-91 -26q-72 0 -199 55q-135 58 -197 58
q-80 0 -131 -68zM297 438h672l-336 901z" />
    <glyph glyph-name="Atilde" unicode="&#xe3;" horiz-adv-x="1228" 
d="M610 1434h52l456 -1219q56 -151 84 -207v-8h-92v8q0 48 -59 209l-62 166h-713l-61 -166q-59 -161 -59 -209v-8h-88v8q28 56 84 207zM293 1688q64 112 174 112q68 0 199 -55q134 -57 196 -57q67 0 131 67l19 -14q-42 -61 -83 -87t-91 -26q-72 0 -199 55q-135 58 -197 58
q-80 0 -131 -68zM297 438h672l-336 901z" />
    <glyph glyph-name="Adieresis" unicode="&#xc4;" horiz-adv-x="1228" 
d="M610 1434h52l456 -1219q56 -151 84 -207v-8h-92v8q0 48 -59 209l-62 166h-713l-61 -166q-59 -161 -59 -209v-8h-88v8q28 56 84 207zM297 438h672l-336 901zM377 1731q0 34 24 57.5t58 23.5t58 -23.5t24 -57.5t-24 -58t-58 -24t-58 24t-24 58zM725 1731q0 34 24 57.5
t58 23.5t58 -23.5t24 -57.5q0 -35 -24 -58.5t-58 -23.5t-58 23.5t-24 58.5z" />
    <glyph glyph-name="Adieresis" unicode="&#xe4;" horiz-adv-x="1228" 
d="M610 1434h52l456 -1219q56 -151 84 -207v-8h-92v8q0 48 -59 209l-62 166h-713l-61 -166q-59 -161 -59 -209v-8h-88v8q28 56 84 207zM297 438h672l-336 901zM377 1731q0 34 24 57.5t58 23.5t58 -23.5t24 -57.5t-24 -58t-58 -24t-58 24t-24 58zM725 1731q0 34 24 57.5
t58 23.5t58 -23.5t24 -57.5q0 -35 -24 -58.5t-58 -23.5t-58 23.5t-24 58.5z" />
    <glyph glyph-name="Aring" unicode="&#xc5;" horiz-adv-x="1228" 
d="M610 1434h52l456 -1219q56 -151 84 -207v-8h-92v8q0 48 -59 209l-62 166h-713l-61 -166q-59 -161 -59 -209v-8h-88v8q28 56 84 207zM297 438h672l-336 901zM469 1780q0 71 46 117.5t118 46.5t118 -46.5t46 -117.5q0 -72 -46 -118t-118 -46t-118 46t-46 118zM530 1780
q0 -46 29 -77.5t74 -31.5t73.5 31.5t28.5 77.5t-28.5 77t-73.5 31t-74 -31t-29 -77z" />
    <glyph glyph-name="Aring" unicode="&#xe5;" horiz-adv-x="1228" 
d="M610 1434h52l456 -1219q56 -151 84 -207v-8h-92v8q0 48 -59 209l-62 166h-713l-61 -166q-59 -161 -59 -209v-8h-88v8q28 56 84 207zM297 438h672l-336 901zM469 1780q0 71 46 117.5t118 46.5t118 -46.5t46 -117.5q0 -72 -46 -118t-118 -46t-118 46t-46 118zM530 1780
q0 -46 29 -77.5t74 -31.5t73.5 31.5t28.5 77.5t-28.5 77t-73.5 31t-74 -31t-29 -77z" />
    <glyph glyph-name="AE" unicode="&#xc6;" horiz-adv-x="1751" 
d="M877 1434h765v-66h-8q-53 10 -186 10h-492v-381h527v-55h-527v-887h568q133 0 186 6h8v-61h-827v8q4 53 4 207v168h-533l-98 -182q-24 -44 -41 -78t-25.5 -54.5t-12.5 -31.5t-7 -20l-2 -9v-8h-88v8q20 24 109 187zM393 438h502v922z" />
    <glyph glyph-name="AE" unicode="&#xe6;" horiz-adv-x="1751" 
d="M877 1434h765v-66h-8q-53 10 -186 10h-492v-381h527v-55h-527v-887h568q133 0 186 6h8v-61h-827v8q4 53 4 207v168h-533l-98 -182q-24 -44 -41 -78t-25.5 -54.5t-12.5 -31.5t-7 -20l-2 -9v-8h-88v8q20 24 109 187zM393 438h502v922z" />
    <glyph glyph-name="Ccedilla" unicode="&#xc7;" horiz-adv-x="1488" 
d="M1386 1247v-102h-24q-49 119 -210.5 200.5t-336.5 81.5q-143 0 -271 -55t-220.5 -148.5t-146.5 -223.5t-54 -275q0 -193 91.5 -354t251 -254.5t349.5 -93.5q186 0 336.5 80t210.5 202h24v-102q-105 -105 -249 -169t-306 -67l-45 -69q71 7 118.5 -25.5t47.5 -85.5
q0 -57 -49.5 -98t-117 -58.5t-140.5 -17.5v41q101 2 178.5 37t77.5 98q0 42 -46 63t-134 7l-6 10l61 98q-149 7 -281.5 69.5t-227.5 163t-150.5 237.5t-55.5 288q0 156 59 296t159.5 241.5t240 161t295.5 59.5q167 0 315 -64t256 -172z" />
    <glyph glyph-name="Ccedilla" unicode="&#xe7;" horiz-adv-x="1488" 
d="M1386 1247v-102h-24q-49 119 -210.5 200.5t-336.5 81.5q-143 0 -271 -55t-220.5 -148.5t-146.5 -223.5t-54 -275q0 -193 91.5 -354t251 -254.5t349.5 -93.5q186 0 336.5 80t210.5 202h24v-102q-105 -105 -249 -169t-306 -67l-45 -69q71 7 118.5 -25.5t47.5 -85.5
q0 -57 -49.5 -98t-117 -58.5t-140.5 -17.5v41q101 2 178.5 37t77.5 98q0 42 -46 63t-134 7l-6 10l61 98q-149 7 -281.5 69.5t-227.5 163t-150.5 237.5t-55.5 288q0 156 59 296t159.5 241.5t240 161t295.5 59.5q167 0 315 -64t256 -172z" />
    <glyph glyph-name="Egrave" unicode="&#xc8;" horiz-adv-x="1116" 
d="M256 1434h752v-62h-9q-53 6 -186 6h-491v-381h526v-55h-526v-887h567q133 0 186 6h8v-61h-827v8q4 53 4 207v1004q0 153 -4 206v9zM436 1878l62 51l237 -338l-20 -18z" />
    <glyph glyph-name="Egrave" unicode="&#xe8;" horiz-adv-x="1116" 
d="M256 1434h752v-62h-9q-53 6 -186 6h-491v-381h526v-55h-526v-887h567q133 0 186 6h8v-61h-827v8q4 53 4 207v1004q0 153 -4 206v9zM436 1878l62 51l237 -338l-20 -18z" />
    <glyph glyph-name="Eacute" unicode="&#xc9;" horiz-adv-x="1116" 
d="M256 1434h752v-62h-9q-53 6 -186 6h-491v-381h526v-55h-526v-887h567q133 0 186 6h8v-61h-827v8q4 53 4 207v1004q0 153 -4 206v9zM498 1610l237 338l62 -52l-279 -305z" />
    <glyph glyph-name="Eacute" unicode="&#xe9;" horiz-adv-x="1116" 
d="M256 1434h752v-62h-9q-53 6 -186 6h-491v-381h526v-55h-526v-887h567q133 0 186 6h8v-61h-827v8q4 53 4 207v1004q0 153 -4 206v9zM498 1610l237 338l62 -52l-279 -305z" />
    <glyph glyph-name="Ecircumflex" unicode="&#xca;" horiz-adv-x="1116" 
d="M256 1434h752v-62h-9q-53 6 -186 6h-491v-381h526v-55h-526v-887h567q133 0 186 6h8v-61h-827v8q4 53 4 207v1004q0 153 -4 206v9zM324 1599l301 263l301 -263l-23 -28l-285 205l-272 -205z" />
    <glyph glyph-name="Ecircumflex" unicode="&#xea;" horiz-adv-x="1116" 
d="M256 1434h752v-62h-9q-53 6 -186 6h-491v-381h526v-55h-526v-887h567q133 0 186 6h8v-61h-827v8q4 53 4 207v1004q0 153 -4 206v9zM324 1599l301 263l301 -263l-23 -28l-285 205l-272 -205z" />
    <glyph glyph-name="Edieresis" unicode="&#xcb;" horiz-adv-x="1116" 
d="M256 1434h752v-62h-9q-53 6 -186 6h-491v-381h526v-55h-526v-887h567q133 0 186 6h8v-61h-827v8q4 53 4 207v1004q0 153 -4 206v9zM369 1731q0 34 24 57.5t58 23.5t57.5 -23.5t23.5 -57.5t-23.5 -58t-57.5 -24t-58 24t-24 58zM717 1731q0 34 24 57.5t58 23.5t58 -23.5
t24 -57.5q0 -35 -24 -58.5t-58 -23.5t-58 23.5t-24 58.5z" />
    <glyph glyph-name="Edieresis" unicode="&#xeb;" horiz-adv-x="1116" 
d="M256 1434h752v-62h-9q-53 6 -186 6h-491v-381h526v-55h-526v-887h567q133 0 186 6h8v-61h-827v8q4 53 4 207v1004q0 153 -4 206v9zM369 1731q0 34 24 57.5t58 23.5t57.5 -23.5t23.5 -57.5t-23.5 -58t-57.5 -24t-58 24t-24 58zM717 1731q0 34 24 57.5t58 23.5t58 -23.5
t24 -57.5q0 -35 -24 -58.5t-58 -23.5t-58 23.5t-24 58.5z" />
    <glyph glyph-name="Iacute" unicode="&#xcd;" horiz-adv-x="583" 
d="M256 1434h70v-9q-4 -53 -4 -206v-1004q0 -154 4 -207v-8h-70v8q4 53 4 207v1004q0 153 -4 206v9zM166 1610l237 338l62 -52l-279 -305z" />
    <glyph glyph-name="Iacute" unicode="&#xed;" horiz-adv-x="583" 
d="M256 1434h70v-9q-4 -53 -4 -206v-1004q0 -154 4 -207v-8h-70v8q4 53 4 207v1004q0 153 -4 206v9zM166 1610l237 338l62 -52l-279 -305z" />
    <glyph glyph-name="Icircumflex" unicode="&#xce;" horiz-adv-x="583" 
d="M256 1434h70v-9q-4 -53 -4 -206v-1004q0 -154 4 -207v-8h-70v8q4 53 4 207v1004q0 153 -4 206v9zM-8 1599l301 263l301 -263l-23 -28l-284 205l-273 -205z" />
    <glyph glyph-name="Icircumflex" unicode="&#xee;" horiz-adv-x="583" 
d="M256 1434h70v-9q-4 -53 -4 -206v-1004q0 -154 4 -207v-8h-70v8q4 53 4 207v1004q0 153 -4 206v9zM-8 1599l301 263l301 -263l-23 -28l-284 205l-273 -205z" />
    <glyph glyph-name="Idieresis" unicode="&#xcf;" horiz-adv-x="583" 
d="M256 1434h70v-9q-4 -53 -4 -206v-1004q0 -154 4 -207v-8h-70v8q4 53 4 207v1004q0 153 -4 206v9zM37 1731q0 34 24 57.5t58 23.5t58 -23.5t24 -57.5t-24 -58t-58 -24t-58 24t-24 58zM385 1731q0 34 24 57.5t58 23.5t58 -23.5t24 -57.5q0 -35 -24 -58.5t-58 -23.5
t-58 23.5t-24 58.5z" />
    <glyph glyph-name="Idieresis" unicode="&#xef;" horiz-adv-x="583" 
d="M256 1434h70v-9q-4 -53 -4 -206v-1004q0 -154 4 -207v-8h-70v8q4 53 4 207v1004q0 153 -4 206v9zM37 1731q0 34 24 57.5t58 23.5t58 -23.5t24 -57.5t-24 -58t-58 -24t-58 24t-24 58zM385 1731q0 34 24 57.5t58 23.5t58 -23.5t24 -57.5q0 -35 -24 -58.5t-58 -23.5
t-58 23.5t-24 58.5z" />
    <glyph glyph-name="Eth" unicode="&#xd0;" horiz-adv-x="1597" 
d="M766 1434q168 0 311 -53t244 -147t158 -227.5t57 -289.5q0 -197 -100.5 -361.5t-277.5 -260t-392 -95.5h-510v8q4 53 4 207v506h-260v55h260v443q0 153 -4 206v9h510zM322 55h415q136 0 255.5 36t206.5 98.5t150 146.5t94.5 181t31.5 200q0 192 -93.5 343t-261 234.5
t-381.5 83.5h-417v-602h456v-55h-456v-666z" />
    <glyph glyph-name="Eth" unicode="&#xf0;" horiz-adv-x="1597" 
d="M766 1434q168 0 311 -53t244 -147t158 -227.5t57 -289.5q0 -197 -100.5 -361.5t-277.5 -260t-392 -95.5h-510v8q4 53 4 207v506h-260v55h260v443q0 153 -4 206v9h510zM322 55h415q136 0 255.5 36t206.5 98.5t150 146.5t94.5 181t31.5 200q0 192 -93.5 343t-261 234.5
t-381.5 83.5h-417v-602h456v-55h-456v-666z" />
    <glyph glyph-name="Ntilde" unicode="&#xd1;" horiz-adv-x="1454" 
d="M256 1438h51l832 -1315v1096q0 153 -6 206v9h65v-9q-4 -53 -4 -206v-1029q0 -139 4 -194h-51l-832 1313v-1094q0 -145 7 -207v-8h-66v8q4 53 4 207v1028q0 140 -4 195zM367 1688q64 112 174 112q67 0 198 -55q134 -57 197 -57q67 0 131 67l18 -14q-42 -61 -83 -87
t-91 -26q-71 0 -198 55q-135 58 -197 58q-80 0 -131 -68z" />
    <glyph glyph-name="Ntilde" unicode="&#xf1;" horiz-adv-x="1454" 
d="M256 1438h51l832 -1315v1096q0 153 -6 206v9h65v-9q-4 -53 -4 -206v-1029q0 -139 4 -194h-51l-832 1313v-1094q0 -145 7 -207v-8h-66v8q4 53 4 207v1028q0 140 -4 195zM367 1688q64 112 174 112q67 0 198 -55q134 -57 197 -57q67 0 131 67l18 -14q-42 -61 -83 -87
t-91 -26q-71 0 -198 55q-135 58 -197 58q-80 0 -131 -68z" />
    <glyph glyph-name="Ograve" unicode="&#xd2;" horiz-adv-x="1638" 
d="M819 -33q-208 0 -382 101t-275 275t-101 382t101 382t275 275t382 101t382 -101t275 -275t101 -382t-101 -382t-275 -275t-382 -101zM123 725q0 -144 54 -274t146 -224t221 -149t273 -55q192 0 353 93.5t253.5 254.5t92.5 354t-92.5 354.5t-253 254.5t-353.5 93
q-192 0 -351.5 -93t-251 -254t-91.5 -355zM649 1878l62 51l237 -338l-20 -18z" />
    <glyph glyph-name="Ograve" unicode="&#xf2;" horiz-adv-x="1638" 
d="M819 -33q-208 0 -382 101t-275 275t-101 382t101 382t275 275t382 101t382 -101t275 -275t101 -382t-101 -382t-275 -275t-382 -101zM123 725q0 -144 54 -274t146 -224t221 -149t273 -55q192 0 353 93.5t253.5 254.5t92.5 354t-92.5 354.5t-253 254.5t-353.5 93
q-192 0 -351.5 -93t-251 -254t-91.5 -355zM649 1878l62 51l237 -338l-20 -18z" />
    <glyph glyph-name="Oacute" unicode="&#xd3;" horiz-adv-x="1638" 
d="M819 -33q-208 0 -382 101t-275 275t-101 382t101 382t275 275t382 101t382 -101t275 -275t101 -382t-101 -382t-275 -275t-382 -101zM123 725q0 -144 54 -274t146 -224t221 -149t273 -55q192 0 353 93.5t253.5 254.5t92.5 354t-92.5 354.5t-253 254.5t-353.5 93
q-192 0 -351.5 -93t-251 -254t-91.5 -355zM711 1610l237 338l62 -52l-279 -305z" />
    <glyph glyph-name="Oacute" unicode="&#xf3;" horiz-adv-x="1638" 
d="M819 -33q-208 0 -382 101t-275 275t-101 382t101 382t275 275t382 101t382 -101t275 -275t101 -382t-101 -382t-275 -275t-382 -101zM123 725q0 -144 54 -274t146 -224t221 -149t273 -55q192 0 353 93.5t253.5 254.5t92.5 354t-92.5 354.5t-253 254.5t-353.5 93
q-192 0 -351.5 -93t-251 -254t-91.5 -355zM711 1610l237 338l62 -52l-279 -305z" />
    <glyph glyph-name="Ocircumflex" unicode="&#xd4;" horiz-adv-x="1638" 
d="M819 -33q-208 0 -382 101t-275 275t-101 382t101 382t275 275t382 101t382 -101t275 -275t101 -382t-101 -382t-275 -275t-382 -101zM123 725q0 -144 54 -274t146 -224t221 -149t273 -55q192 0 353 93.5t253.5 254.5t92.5 354t-92.5 354.5t-253 254.5t-353.5 93
q-192 0 -351.5 -93t-251 -254t-91.5 -355zM537 1599l301 263l301 -263l-23 -28l-285 205l-272 -205z" />
    <glyph glyph-name="Ocircumflex" unicode="&#xf4;" horiz-adv-x="1638" 
d="M819 -33q-208 0 -382 101t-275 275t-101 382t101 382t275 275t382 101t382 -101t275 -275t101 -382t-101 -382t-275 -275t-382 -101zM123 725q0 -144 54 -274t146 -224t221 -149t273 -55q192 0 353 93.5t253.5 254.5t92.5 354t-92.5 354.5t-253 254.5t-353.5 93
q-192 0 -351.5 -93t-251 -254t-91.5 -355zM537 1599l301 263l301 -263l-23 -28l-285 205l-272 -205z" />
    <glyph glyph-name="Otilde" unicode="&#xd5;" horiz-adv-x="1638" 
d="M819 -33q-208 0 -382 101t-275 275t-101 382t101 382t275 275t382 101t382 -101t275 -275t101 -382t-101 -382t-275 -275t-382 -101zM123 725q0 -144 54 -274t146 -224t221 -149t273 -55q192 0 353 93.5t253.5 254.5t92.5 354t-92.5 354.5t-253 254.5t-353.5 93
q-192 0 -351.5 -93t-251 -254t-91.5 -355zM477 1688q64 112 174 112q68 0 199 -55q134 -57 197 -57q67 0 131 67l18 -14q-42 -61 -83 -87t-91 -26q-72 0 -199 55q-135 58 -196 58q-80 0 -131 -68z" />
    <glyph glyph-name="Otilde" unicode="&#xf5;" horiz-adv-x="1638" 
d="M819 -33q-208 0 -382 101t-275 275t-101 382t101 382t275 275t382 101t382 -101t275 -275t101 -382t-101 -382t-275 -275t-382 -101zM123 725q0 -144 54 -274t146 -224t221 -149t273 -55q192 0 353 93.5t253.5 254.5t92.5 354t-92.5 354.5t-253 254.5t-353.5 93
q-192 0 -351.5 -93t-251 -254t-91.5 -355zM477 1688q64 112 174 112q68 0 199 -55q134 -57 197 -57q67 0 131 67l18 -14q-42 -61 -83 -87t-91 -26q-72 0 -199 55q-135 58 -196 58q-80 0 -131 -68z" />
    <glyph glyph-name="Odieresis" unicode="&#xd6;" horiz-adv-x="1638" 
d="M819 -33q-208 0 -382 101t-275 275t-101 382t101 382t275 275t382 101t382 -101t275 -275t101 -382t-101 -382t-275 -275t-382 -101zM123 725q0 -144 54 -274t146 -224t221 -149t273 -55q192 0 353 93.5t253.5 254.5t92.5 354t-92.5 354.5t-253 254.5t-353.5 93
q-192 0 -351.5 -93t-251 -254t-91.5 -355zM582 1731q0 34 24 57.5t58 23.5t57.5 -23.5t23.5 -57.5t-23.5 -58t-57.5 -24t-58 24t-24 58zM930 1731q0 34 24 57.5t58 23.5t58 -23.5t24 -57.5q0 -35 -24 -58.5t-58 -23.5t-58 23.5t-24 58.5z" />
    <glyph glyph-name="Odieresis" unicode="&#xf6;" horiz-adv-x="1638" 
d="M819 -33q-208 0 -382 101t-275 275t-101 382t101 382t275 275t382 101t382 -101t275 -275t101 -382t-101 -382t-275 -275t-382 -101zM123 725q0 -144 54 -274t146 -224t221 -149t273 -55q192 0 353 93.5t253.5 254.5t92.5 354t-92.5 354.5t-253 254.5t-353.5 93
q-192 0 -351.5 -93t-251 -254t-91.5 -355zM582 1731q0 34 24 57.5t58 23.5t57.5 -23.5t23.5 -57.5t-23.5 -58t-57.5 -24t-58 24t-24 58zM930 1731q0 34 24 57.5t58 23.5t58 -23.5t24 -57.5q0 -35 -24 -58.5t-58 -23.5t-58 23.5t-24 58.5z" />
    <glyph glyph-name="Oslash" unicode="&#xd8;" horiz-adv-x="1638" 
d="M819 -33q-146 0 -268 49l-113 -229l-49 23l111 227q-198 91 -318.5 276t-120.5 412q0 208 101 382t275 275t382 101q183 0 348 -84l123 252l49 -23l-125 -254q167 -101 265 -273t98 -376q0 -208 -101 -382t-275 -275t-382 -101zM123 725q0 -212 109 -383.5t292 -255.5
l619 1264q-151 77 -326 77q-192 0 -351.5 -93t-251 -254t-91.5 -355zM573 66q113 -43 244 -43q192 0 353 93.5t253.5 254.5t92.5 354q0 187 -88 345t-238 253z" />
    <glyph glyph-name="Oslash" unicode="&#xf8;" horiz-adv-x="1638" 
d="M819 -33q-146 0 -268 49l-113 -229l-49 23l111 227q-198 91 -318.5 276t-120.5 412q0 208 101 382t275 275t382 101q183 0 348 -84l123 252l49 -23l-125 -254q167 -101 265 -273t98 -376q0 -208 -101 -382t-275 -275t-382 -101zM123 725q0 -212 109 -383.5t292 -255.5
l619 1264q-151 77 -326 77q-192 0 -351.5 -93t-251 -254t-91.5 -355zM573 66q113 -43 244 -43q192 0 353 93.5t253.5 254.5t92.5 354q0 187 -88 345t-238 253z" />
    <glyph glyph-name="Ugrave" unicode="&#xd9;" horiz-adv-x="1404" 
d="M205 1434h71v-9q-6 -53 -6 -206v-654q0 -263 117 -402.5t326 -139.5q195 0 308.5 137.5t113.5 384.5v674q0 144 -7 206v9h72v-9q-4 -53 -4 -206v-654q0 -285 -137 -441.5t-367 -156.5q-215 0 -349 154t-134 424v674q0 153 -4 206v9zM514 1878l61 51l238 -338l-20 -18z
" />
    <glyph glyph-name="Ugrave" unicode="&#xf9;" horiz-adv-x="1404" 
d="M205 1434h71v-9q-6 -53 -6 -206v-654q0 -263 117 -402.5t326 -139.5q195 0 308.5 137.5t113.5 384.5v674q0 144 -7 206v9h72v-9q-4 -53 -4 -206v-654q0 -285 -137 -441.5t-367 -156.5q-215 0 -349 154t-134 424v674q0 153 -4 206v9zM514 1878l61 51l238 -338l-20 -18z
" />
    <glyph glyph-name="Uacute" unicode="&#xda;" horiz-adv-x="1404" 
d="M205 1434h71v-9q-6 -53 -6 -206v-654q0 -263 117 -402.5t326 -139.5q195 0 308.5 137.5t113.5 384.5v674q0 144 -7 206v9h72v-9q-4 -53 -4 -206v-654q0 -285 -137 -441.5t-367 -156.5q-215 0 -349 154t-134 424v674q0 153 -4 206v9zM575 1610l238 338l61 -52l-278 -305z
" />
    <glyph glyph-name="Uacute" unicode="&#xfa;" horiz-adv-x="1404" 
d="M205 1434h71v-9q-6 -53 -6 -206v-654q0 -263 117 -402.5t326 -139.5q195 0 308.5 137.5t113.5 384.5v674q0 144 -7 206v9h72v-9q-4 -53 -4 -206v-654q0 -285 -137 -441.5t-367 -156.5q-215 0 -349 154t-134 424v674q0 153 -4 206v9zM575 1610l238 338l61 -52l-278 -305z
" />
    <glyph glyph-name="Ucircumflex" unicode="&#xdb;" horiz-adv-x="1404" 
d="M205 1434h71v-9q-6 -53 -6 -206v-654q0 -263 117 -402.5t326 -139.5q195 0 308.5 137.5t113.5 384.5v674q0 144 -7 206v9h72v-9q-4 -53 -4 -206v-654q0 -285 -137 -441.5t-367 -156.5q-215 0 -349 154t-134 424v674q0 153 -4 206v9zM401 1599l301 263l302 -263l-23 -28
l-285 205l-272 -205z" />
    <glyph glyph-name="Ucircumflex" unicode="&#xfb;" horiz-adv-x="1404" 
d="M205 1434h71v-9q-6 -53 -6 -206v-654q0 -263 117 -402.5t326 -139.5q195 0 308.5 137.5t113.5 384.5v674q0 144 -7 206v9h72v-9q-4 -53 -4 -206v-654q0 -285 -137 -441.5t-367 -156.5q-215 0 -349 154t-134 424v674q0 153 -4 206v9zM401 1599l301 263l302 -263l-23 -28
l-285 205l-272 -205z" />
    <glyph glyph-name="Udieresis" unicode="&#xdc;" horiz-adv-x="1404" 
d="M205 1434h71v-9q-6 -53 -6 -206v-654q0 -263 117 -402.5t326 -139.5q195 0 308.5 137.5t113.5 384.5v674q0 144 -7 206v9h72v-9q-4 -53 -4 -206v-654q0 -285 -137 -441.5t-367 -156.5q-215 0 -349 154t-134 424v674q0 153 -4 206v9zM446 1731q0 34 24 57.5t58 23.5
t58 -23.5t24 -57.5t-24 -58t-58 -24t-58 24t-24 58zM795 1731q0 34 24 57.5t58 23.5t57.5 -23.5t23.5 -57.5q0 -35 -23.5 -58.5t-57.5 -23.5t-58 23.5t-24 58.5z" />
    <glyph glyph-name="Udieresis" unicode="&#xfc;" horiz-adv-x="1404" 
d="M205 1434h71v-9q-6 -53 -6 -206v-654q0 -263 117 -402.5t326 -139.5q195 0 308.5 137.5t113.5 384.5v674q0 144 -7 206v9h72v-9q-4 -53 -4 -206v-654q0 -285 -137 -441.5t-367 -156.5q-215 0 -349 154t-134 424v674q0 153 -4 206v9zM446 1731q0 34 24 57.5t58 23.5
t58 -23.5t24 -57.5t-24 -58t-58 -24t-58 24t-24 58zM795 1731q0 34 24 57.5t58 23.5t57.5 -23.5t23.5 -57.5q0 -35 -23.5 -58.5t-57.5 -23.5t-58 23.5t-24 58.5z" />
    <glyph glyph-name="Yacute" unicode="&#xdd;" horiz-adv-x="1267" 
d="M184 1217q-109 156 -161 208v9h98l2 -9q6 -16 19.5 -36.5t84.5 -122.5l410 -582l412 582q43 61 64 93t25 41t9 25l2 9h96v-9q-54 -54 -162 -208l-419 -590v-432q0 -134 4 -187v-8h-70v8q4 53 4 187v432zM541 1610l237 338l62 -52l-279 -305z" />
    <glyph glyph-name="Yacute" unicode="&#xfd;" horiz-adv-x="1267" 
d="M184 1217q-109 156 -161 208v9h98l2 -9q6 -16 19.5 -36.5t84.5 -122.5l410 -582l412 582q43 61 64 93t25 41t9 25l2 9h96v-9q-54 -54 -162 -208l-419 -590v-432q0 -134 4 -187v-8h-70v8q4 53 4 187v432zM541 1610l237 338l62 -52l-279 -305z" />
    <glyph glyph-name="Thorn" unicode="&#xde;" horiz-adv-x="1251" 
d="M584 1219q96 0 179 -14.5t159 -49.5t130 -87.5t85.5 -133t31.5 -182.5t-31.5 -182.5t-85.5 -133t-130 -87.5t-159 -49.5t-179 -14.5h-262v-70q0 -154 6 -207v-8h-72v8q4 53 4 207v1004q0 153 -6 206v9h72v-9q-4 -53 -4 -206h262zM322 340h245q268 0 404.5 108.5
t136.5 303.5t-136.5 303t-404.5 108h-245v-823z" />
    <glyph glyph-name="Thorn" unicode="&#xfe;" horiz-adv-x="1251" 
d="M584 1219q96 0 179 -14.5t159 -49.5t130 -87.5t85.5 -133t31.5 -182.5t-31.5 -182.5t-85.5 -133t-130 -87.5t-159 -49.5t-179 -14.5h-262v-70q0 -154 6 -207v-8h-72v8q4 53 4 207v1004q0 153 -6 206v9h72v-9q-4 -53 -4 -206h262zM322 340h245q268 0 404.5 108.5
t136.5 303.5t-136.5 303t-404.5 108h-245v-823z" />
    <glyph glyph-name="uni1E9E" unicode="&#xdf;" horiz-adv-x="1306" 
d="M551 162q59 -70 139 -104.5t166 -34.5q58 0 110 16t93.5 46.5t65.5 80.5t24 113q0 150 -129 282l-365 371l13 20h28q104 0 171 62t67 155q0 113 -80.5 183.5t-210.5 70.5q-157 0 -249.5 -106t-92.5 -293v-809q0 -154 4 -207v-8h-69v8q4 53 4 207v797q0 121 34 214
t91 146.5t125.5 80t144.5 26.5q158 0 259 -84.5t101 -216.5q0 -95 -65.5 -175.5t-171.5 -97.5l272 -270q180 -177 180 -356q0 -134 -93.5 -223t-250.5 -89q-89 0 -175.5 27t-151.5 74l-7 94h19z" />
    <glyph glyph-name="uni1E9E" unicode="&#x1e9e;" horiz-adv-x="1306" 
d="M551 162q59 -70 139 -104.5t166 -34.5q58 0 110 16t93.5 46.5t65.5 80.5t24 113q0 150 -129 282l-365 371l13 20h28q104 0 171 62t67 155q0 113 -80.5 183.5t-210.5 70.5q-157 0 -249.5 -106t-92.5 -293v-809q0 -154 4 -207v-8h-69v8q4 53 4 207v797q0 121 34 214
t91 146.5t125.5 80t144.5 26.5q158 0 259 -84.5t101 -216.5q0 -95 -65.5 -175.5t-171.5 -97.5l272 -270q180 -177 180 -356q0 -134 -93.5 -223t-250.5 -89q-89 0 -175.5 27t-151.5 74l-7 94h19z" />
    <glyph glyph-name="Amacron" unicode="&#x100;" horiz-adv-x="1228" 
d="M610 1434h52l456 -1219q56 -151 84 -207v-8h-92v8q0 48 -59 209l-62 166h-713l-61 -166q-59 -161 -59 -209v-8h-88v8q28 56 84 207zM244 1679v56h778v-56h-778zM297 438h672l-336 901z" />
    <glyph glyph-name="Amacron" unicode="&#x101;" horiz-adv-x="1228" 
d="M610 1434h52l456 -1219q56 -151 84 -207v-8h-92v8q0 48 -59 209l-62 166h-713l-61 -166q-59 -161 -59 -209v-8h-88v8q28 56 84 207zM244 1679v56h778v-56h-778zM297 438h672l-336 901z" />
    <glyph glyph-name="Abreve" unicode="&#x102;" horiz-adv-x="1228" 
d="M610 1434h52l456 -1219q56 -151 84 -207v-8h-92v8q0 48 -59 209l-62 166h-713l-61 -166q-59 -161 -59 -209v-8h-88v8q28 56 84 207zM297 438h672l-336 901zM360 1868h62v-2q0 -93 65 -158q61 -55 146 -55q88 0 149.5 60.5t61.5 154.5h61q-3 -119 -78 -195t-194 -76
t-194.5 76t-78.5 195z" />
    <glyph glyph-name="Abreve" unicode="&#x103;" horiz-adv-x="1228" 
d="M610 1434h52l456 -1219q56 -151 84 -207v-8h-92v8q0 48 -59 209l-62 166h-713l-61 -166q-59 -161 -59 -209v-8h-88v8q28 56 84 207zM297 438h672l-336 901zM360 1868h62v-2q0 -93 65 -158q61 -55 146 -55q88 0 149.5 60.5t61.5 154.5h61q-3 -119 -78 -195t-194 -76
t-194.5 76t-78.5 195z" />
    <glyph glyph-name="Aogonek" unicode="&#x104;" horiz-adv-x="1228" 
d="M610 1434h52l456 -1219q56 -151 84 -207v-8q-135 -54 -202.5 -114t-67.5 -119q0 -39 27 -64t79 -25q69 0 148 39l14 -30q-87 -49 -172 -49q-68 0 -106.5 33t-38.5 87q0 66 56.5 131.5t170.5 116.5v2q0 48 -59 209l-62 166h-713l-61 -166q-59 -161 -59 -209v-8h-88v8
q28 56 84 207zM297 438h672l-336 901z" />
    <glyph glyph-name="Aogonek" unicode="&#x105;" horiz-adv-x="1228" 
d="M610 1434h52l456 -1219q56 -151 84 -207v-8q-135 -54 -202.5 -114t-67.5 -119q0 -39 27 -64t79 -25q69 0 148 39l14 -30q-87 -49 -172 -49q-68 0 -106.5 33t-38.5 87q0 66 56.5 131.5t170.5 116.5v2q0 48 -59 209l-62 166h-713l-61 -166q-59 -161 -59 -209v-8h-88v8
q28 56 84 207zM297 438h672l-336 901z" />
    <glyph glyph-name="Cacute" unicode="&#x106;" horiz-adv-x="1488" 
d="M1386 1247v-102h-24q-49 119 -210.5 200.5t-336.5 81.5q-143 0 -271 -55t-220.5 -148.5t-146.5 -223.5t-54 -275q0 -193 91.5 -354t251 -254.5t349.5 -93.5q186 0 336.5 80t210.5 202h24v-102q-108 -108 -256 -172t-315 -64q-156 0 -295.5 59.5t-240 161t-159.5 241.5
t-59 296t59 296t159.5 241.5t240 161t295.5 59.5q167 0 315 -64t256 -172zM690 1610l238 338l61 -52l-278 -305z" />
    <glyph glyph-name="Cacute" unicode="&#x107;" horiz-adv-x="1488" 
d="M1386 1247v-102h-24q-49 119 -210.5 200.5t-336.5 81.5q-143 0 -271 -55t-220.5 -148.5t-146.5 -223.5t-54 -275q0 -193 91.5 -354t251 -254.5t349.5 -93.5q186 0 336.5 80t210.5 202h24v-102q-108 -108 -256 -172t-315 -64q-156 0 -295.5 59.5t-240 161t-159.5 241.5
t-59 296t59 296t159.5 241.5t240 161t295.5 59.5q167 0 315 -64t256 -172zM690 1610l238 338l61 -52l-278 -305z" />
    <glyph glyph-name="Cdotaccent" unicode="&#x10a;" horiz-adv-x="1488" 
d="M1386 1247v-102h-24q-49 119 -210.5 200.5t-336.5 81.5q-143 0 -271 -55t-220.5 -148.5t-146.5 -223.5t-54 -275q0 -193 91.5 -354t251 -254.5t349.5 -93.5q186 0 336.5 80t210.5 202h24v-102q-108 -108 -256 -172t-315 -64q-156 0 -295.5 59.5t-240 161t-159.5 241.5
t-59 296t59 296t159.5 241.5t240 161t295.5 59.5q167 0 315 -64t256 -172zM725 1741q0 37 27 64.5t65 27.5t65 -27.5t27 -64.5q0 -38 -27 -65t-65 -27t-65 27t-27 65z" />
    <glyph glyph-name="Cdotaccent" unicode="&#x10b;" horiz-adv-x="1488" 
d="M1386 1247v-102h-24q-49 119 -210.5 200.5t-336.5 81.5q-143 0 -271 -55t-220.5 -148.5t-146.5 -223.5t-54 -275q0 -193 91.5 -354t251 -254.5t349.5 -93.5q186 0 336.5 80t210.5 202h24v-102q-108 -108 -256 -172t-315 -64q-156 0 -295.5 59.5t-240 161t-159.5 241.5
t-59 296t59 296t159.5 241.5t240 161t295.5 59.5q167 0 315 -64t256 -172zM725 1741q0 37 27 64.5t65 27.5t65 -27.5t27 -64.5q0 -38 -27 -65t-65 -27t-65 27t-27 65z" />
    <glyph glyph-name="Ccaron" unicode="&#x10c;" horiz-adv-x="1488" 
d="M1386 1247v-102h-24q-49 119 -210.5 200.5t-336.5 81.5q-143 0 -271 -55t-220.5 -148.5t-146.5 -223.5t-54 -275q0 -193 91.5 -354t251 -254.5t349.5 -93.5q186 0 336.5 80t210.5 202h24v-102q-108 -108 -256 -172t-315 -64q-156 0 -295.5 59.5t-240 161t-159.5 241.5
t-59 296t59 296t159.5 241.5t240 161t295.5 59.5q167 0 315 -64t256 -172zM516 1858l23 28l284 -205l273 205l22 -28l-301 -263z" />
    <glyph glyph-name="Ccaron" unicode="&#x10d;" horiz-adv-x="1488" 
d="M1386 1247v-102h-24q-49 119 -210.5 200.5t-336.5 81.5q-143 0 -271 -55t-220.5 -148.5t-146.5 -223.5t-54 -275q0 -193 91.5 -354t251 -254.5t349.5 -93.5q186 0 336.5 80t210.5 202h24v-102q-108 -108 -256 -172t-315 -64q-156 0 -295.5 59.5t-240 161t-159.5 241.5
t-59 296t59 296t159.5 241.5t240 161t295.5 59.5q167 0 315 -64t256 -172zM516 1858l23 28l284 -205l273 205l22 -28l-301 -263z" />
    <glyph glyph-name="Dcaron" unicode="&#x10e;" horiz-adv-x="1597" 
d="M766 1434q168 0 311 -53t244 -147t158 -227.5t57 -289.5q0 -197 -100.5 -361.5t-277.5 -260t-392 -95.5h-510v8q4 53 4 207v1004q0 153 -4 206v9h510zM322 55h415q136 0 255.5 36t206.5 98.5t150 146.5t94.5 181t31.5 200q0 192 -93.5 343t-261 234.5t-381.5 83.5h-417
v-1323zM500 1858l22 28l285 -205l272 205l23 -28l-301 -263z" />
    <glyph glyph-name="Dcaron" unicode="&#x10f;" horiz-adv-x="1597" 
d="M766 1434q168 0 311 -53t244 -147t158 -227.5t57 -289.5q0 -197 -100.5 -361.5t-277.5 -260t-392 -95.5h-510v8q4 53 4 207v1004q0 153 -4 206v9h510zM322 55h415q136 0 255.5 36t206.5 98.5t150 146.5t94.5 181t31.5 200q0 192 -93.5 343t-261 234.5t-381.5 83.5h-417
v-1323zM500 1858l22 28l285 -205l272 205l23 -28l-301 -263z" />
    <glyph glyph-name="Dcroat" unicode="&#x110;" horiz-adv-x="1597" 
d="M766 1434q168 0 311 -53t244 -147t158 -227.5t57 -289.5q0 -197 -100.5 -361.5t-277.5 -260t-392 -95.5h-510v8q4 53 4 207v506h-260v55h260v443q0 153 -4 206v9h510zM322 55h415q136 0 255.5 36t206.5 98.5t150 146.5t94.5 181t31.5 200q0 192 -93.5 343t-261 234.5
t-381.5 83.5h-417v-602h456v-55h-456v-666z" />
    <glyph glyph-name="Dcroat" unicode="&#x111;" horiz-adv-x="1597" 
d="M766 1434q168 0 311 -53t244 -147t158 -227.5t57 -289.5q0 -197 -100.5 -361.5t-277.5 -260t-392 -95.5h-510v8q4 53 4 207v506h-260v55h260v443q0 153 -4 206v9h510zM322 55h415q136 0 255.5 36t206.5 98.5t150 146.5t94.5 181t31.5 200q0 192 -93.5 343t-261 234.5
t-381.5 83.5h-417v-602h456v-55h-456v-666z" />
    <glyph glyph-name="Emacron" unicode="&#x112;" horiz-adv-x="1116" 
d="M256 1434h752v-62h-9q-53 6 -186 6h-491v-381h526v-55h-526v-887h567q133 0 186 6h8v-61h-827v8q4 53 4 207v1004q0 153 -4 206v9zM238 1679v56h778v-56h-778z" />
    <glyph glyph-name="Emacron" unicode="&#x113;" horiz-adv-x="1116" 
d="M256 1434h752v-62h-9q-53 6 -186 6h-491v-381h526v-55h-526v-887h567q133 0 186 6h8v-61h-827v8q4 53 4 207v1004q0 153 -4 206v9zM238 1679v56h778v-56h-778z" />
    <glyph glyph-name="Edotaccent" unicode="&#x116;" horiz-adv-x="1116" 
d="M256 1434h752v-62h-9q-53 6 -186 6h-491v-381h526v-55h-526v-887h567q133 0 186 6h8v-61h-827v8q4 53 4 207v1004q0 153 -4 206v9zM532 1741q0 37 27.5 64.5t65.5 27.5t65 -27.5t27 -64.5q0 -38 -27 -65t-65 -27t-65.5 27t-27.5 65z" />
    <glyph glyph-name="Edotaccent" unicode="&#x117;" horiz-adv-x="1116" 
d="M256 1434h752v-62h-9q-53 6 -186 6h-491v-381h526v-55h-526v-887h567q133 0 186 6h8v-61h-827v8q4 53 4 207v1004q0 153 -4 206v9zM532 1741q0 37 27.5 64.5t65.5 27.5t65 -27.5t27 -64.5q0 -38 -27 -65t-65 -27t-65.5 27t-27.5 65z" />
    <glyph glyph-name="Eogonek" unicode="&#x118;" horiz-adv-x="1116" 
d="M256 1434h752v-62h-9q-53 6 -186 6h-491v-381h526v-55h-526v-887h567q133 0 186 6h8v-61q-135 -54 -202.5 -114t-67.5 -119q0 -39 27.5 -64t79.5 -25q68 0 147 39l14 -30q-87 -49 -172 -49q-68 0 -106.5 33t-38.5 87q0 64 53.5 128t161.5 114h-723v8q4 53 4 207v1004
q0 153 -4 206v9z" />
    <glyph glyph-name="Eogonek" unicode="&#x119;" horiz-adv-x="1116" 
d="M256 1434h752v-62h-9q-53 6 -186 6h-491v-381h526v-55h-526v-887h567q133 0 186 6h8v-61q-135 -54 -202.5 -114t-67.5 -119q0 -39 27.5 -64t79.5 -25q68 0 147 39l14 -30q-87 -49 -172 -49q-68 0 -106.5 33t-38.5 87q0 64 53.5 128t161.5 114h-723v8q4 53 4 207v1004
q0 153 -4 206v9z" />
    <glyph glyph-name="Ecaron" unicode="&#x11a;" horiz-adv-x="1116" 
d="M256 1434h752v-62h-9q-53 6 -186 6h-491v-381h526v-55h-526v-887h567q133 0 186 6h8v-61h-827v8q4 53 4 207v1004q0 153 -4 206v9zM324 1858l22 28l285 -205l272 205l23 -28l-301 -263z" />
    <glyph glyph-name="Ecaron" unicode="&#x11b;" horiz-adv-x="1116" 
d="M256 1434h752v-62h-9q-53 6 -186 6h-491v-381h526v-55h-526v-887h567q133 0 186 6h8v-61h-827v8q4 53 4 207v1004q0 153 -4 206v9zM324 1858l22 28l285 -205l272 205l23 -28l-301 -263z" />
    <glyph glyph-name="Gbreve" unicode="&#x11e;" horiz-adv-x="1550" 
d="M1386 1247v-102h-24q-49 119 -210.5 200.5t-336.5 81.5q-143 0 -271 -55t-220.5 -148.5t-146.5 -223.5t-54 -275q0 -193 91.5 -354t251 -254.5t349.5 -93.5q149 0 280.5 60t229.5 167v291q0 88 -2.5 119t-13.5 67v8h82v-8q-5 -66 -5 -186v-322q-107 -117 -256 -184.5
t-315 -67.5q-156 0 -295.5 59.5t-240 161t-159.5 241.5t-59 296t59 296t159.5 241.5t240 161t295.5 59.5q167 0 315 -64t256 -172zM555 1868h61v-2q0 -92 66 -158q61 -55 145 -55q88 0 149.5 60.5t61.5 154.5h62q-3 -119 -78.5 -195t-194.5 -76t-194 76t-78 195z" />
    <glyph glyph-name="Gbreve" unicode="&#x11f;" horiz-adv-x="1550" 
d="M1386 1247v-102h-24q-49 119 -210.5 200.5t-336.5 81.5q-143 0 -271 -55t-220.5 -148.5t-146.5 -223.5t-54 -275q0 -193 91.5 -354t251 -254.5t349.5 -93.5q149 0 280.5 60t229.5 167v291q0 88 -2.5 119t-13.5 67v8h82v-8q-5 -66 -5 -186v-322q-107 -117 -256 -184.5
t-315 -67.5q-156 0 -295.5 59.5t-240 161t-159.5 241.5t-59 296t59 296t159.5 241.5t240 161t295.5 59.5q167 0 315 -64t256 -172zM555 1868h61v-2q0 -92 66 -158q61 -55 145 -55q88 0 149.5 60.5t61.5 154.5h62q-3 -119 -78.5 -195t-194.5 -76t-194 76t-78 195z" />
    <glyph glyph-name="Gdotaccent" unicode="&#x120;" horiz-adv-x="1550" 
d="M1386 1247v-102h-24q-49 119 -210.5 200.5t-336.5 81.5q-143 0 -271 -55t-220.5 -148.5t-146.5 -223.5t-54 -275q0 -193 91.5 -354t251 -254.5t349.5 -93.5q149 0 280.5 60t229.5 167v291q0 88 -2.5 119t-13.5 67v8h82v-8q-5 -66 -5 -186v-322q-107 -117 -256 -184.5
t-315 -67.5q-156 0 -295.5 59.5t-240 161t-159.5 241.5t-59 296t59 296t159.5 241.5t240 161t295.5 59.5q167 0 315 -64t256 -172zM735 1741q0 37 27 64.5t65 27.5t65.5 -27.5t27.5 -64.5q0 -38 -27.5 -65t-65.5 -27t-65 27t-27 65z" />
    <glyph glyph-name="Gdotaccent" unicode="&#x121;" horiz-adv-x="1550" 
d="M1386 1247v-102h-24q-49 119 -210.5 200.5t-336.5 81.5q-143 0 -271 -55t-220.5 -148.5t-146.5 -223.5t-54 -275q0 -193 91.5 -354t251 -254.5t349.5 -93.5q149 0 280.5 60t229.5 167v291q0 88 -2.5 119t-13.5 67v8h82v-8q-5 -66 -5 -186v-322q-107 -117 -256 -184.5
t-315 -67.5q-156 0 -295.5 59.5t-240 161t-159.5 241.5t-59 296t59 296t159.5 241.5t240 161t295.5 59.5q167 0 315 -64t256 -172zM735 1741q0 37 27 64.5t65 27.5t65.5 -27.5t27.5 -64.5q0 -38 -27.5 -65t-65.5 -27t-65 27t-27 65z" />
    <glyph glyph-name="uni0122" unicode="&#x122;" horiz-adv-x="1550" 
d="M1386 1247v-102h-24q-49 119 -210.5 200.5t-336.5 81.5q-143 0 -271 -55t-220.5 -148.5t-146.5 -223.5t-54 -275q0 -193 91.5 -354t251 -254.5t349.5 -93.5q149 0 280.5 60t229.5 167v291q0 88 -2.5 119t-13.5 67v8h82v-8q-5 -66 -5 -186v-322q-107 -117 -256 -184.5
t-315 -67.5q-156 0 -295.5 59.5t-240 161t-159.5 241.5t-59 296t59 296t159.5 241.5t240 161t295.5 59.5q167 0 315 -64t256 -172zM723 -418q82 102 72 130q-2 6 -9 7q-23 3 -42 20t-19 44q0 28 20 47.5t48 19.5q31 0 49 -21t18 -56q0 -83 -112 -207z" />
    <glyph glyph-name="uni0122" unicode="&#x123;" horiz-adv-x="1550" 
d="M1386 1247v-102h-24q-49 119 -210.5 200.5t-336.5 81.5q-143 0 -271 -55t-220.5 -148.5t-146.5 -223.5t-54 -275q0 -193 91.5 -354t251 -254.5t349.5 -93.5q149 0 280.5 60t229.5 167v291q0 88 -2.5 119t-13.5 67v8h82v-8q-5 -66 -5 -186v-322q-107 -117 -256 -184.5
t-315 -67.5q-156 0 -295.5 59.5t-240 161t-159.5 241.5t-59 296t59 296t159.5 241.5t240 161t295.5 59.5q167 0 315 -64t256 -172zM723 -418q82 102 72 130q-2 6 -9 7q-23 3 -42 20t-19 44q0 28 20 47.5t48 19.5q31 0 49 -21t18 -56q0 -83 -112 -207z" />
    <glyph glyph-name="Imacron" unicode="&#x12a;" horiz-adv-x="583" 
d="M256 1434h70v-9q-4 -53 -4 -206v-1004q0 -154 4 -207v-8h-70v8q4 53 4 207v1004q0 153 -4 206v9zM-96 1679v56h778v-56h-778z" />
    <glyph glyph-name="Imacron" unicode="&#x12b;" horiz-adv-x="583" 
d="M256 1434h70v-9q-4 -53 -4 -206v-1004q0 -154 4 -207v-8h-70v8q4 53 4 207v1004q0 153 -4 206v9zM-96 1679v56h778v-56h-778z" />
    <glyph glyph-name="Idotaccent" unicode="&#x130;" horiz-adv-x="583" 
d="M256 1434h70v-9q-4 -53 -4 -206v-1004q0 -154 4 -207v-8h-70v8q4 53 4 207v1004q0 153 -4 206v9zM201 1741q0 37 27 64.5t65 27.5t65 -27.5t27 -64.5q0 -38 -27 -65t-65 -27t-65 27t-27 65z" />
    <glyph glyph-name="IJ" unicode="&#x132;" horiz-adv-x="1208" 
d="M256 1434h70v-9q-4 -53 -4 -206v-1004q0 -154 4 -207v-8h-70v8q4 53 4 207v1004q0 153 -4 206v9zM481 -326q117 26 197.5 78.5t125 131.5t63 172t18.5 216v967q0 133 -6 186v9h71v-9q-4 -53 -4 -186v-991q0 -251 -113 -406t-344 -192z" />
    <glyph glyph-name="IJ" unicode="&#x133;" horiz-adv-x="1208" 
d="M256 1434h70v-9q-4 -53 -4 -206v-1004q0 -154 4 -207v-8h-70v8q4 53 4 207v1004q0 153 -4 206v9zM481 -326q117 26 197.5 78.5t125 131.5t63 172t18.5 216v967q0 133 -6 186v9h71v-9q-4 -53 -4 -186v-991q0 -251 -113 -406t-344 -192z" />
    <glyph glyph-name="uni0136" unicode="&#x136;" horiz-adv-x="1288" 
d="M256 1434h72v-9q-6 -53 -6 -206v-474l501 474q97 91 139 135.5t54 70.5l4 9h117v-7q-16 -11 -31 -23t-39.5 -34.5t-39 -35.5t-57 -53t-65.5 -62l-276 -258l506 -773q70 -106 97 -141t46 -47l-4 -16q-26 -3 -48.5 6.5t-48 38t-42 51t-50.5 74.5l-499 764l-264 -246v-457
q0 -154 6 -207v-8h-72v8q4 53 4 207v1004q0 153 -4 206v9zM631 -397q82 102 72 130q-2 6 -9 7q-24 3 -42.5 19.5t-18.5 43.5q0 28 19.5 48t47.5 20q31 0 49.5 -21.5t18.5 -56.5q0 -81 -113 -207z" />
    <glyph glyph-name="uni0136" unicode="&#x137;" horiz-adv-x="1288" 
d="M256 1434h72v-9q-6 -53 -6 -206v-474l501 474q97 91 139 135.5t54 70.5l4 9h117v-7q-16 -11 -31 -23t-39.5 -34.5t-39 -35.5t-57 -53t-65.5 -62l-276 -258l506 -773q70 -106 97 -141t46 -47l-4 -16q-26 -3 -48.5 6.5t-48 38t-42 51t-50.5 74.5l-499 764l-264 -246v-457
q0 -154 6 -207v-8h-72v8q4 53 4 207v1004q0 153 -4 206v9zM631 -397q82 102 72 130q-2 6 -9 7q-24 3 -42.5 19.5t-18.5 43.5q0 28 19.5 48t47.5 20q31 0 49.5 -21.5t18.5 -56.5q0 -81 -113 -207z" />
    <glyph glyph-name="Lacute" unicode="&#x139;" horiz-adv-x="921" 
d="M256 1434h72v-9q-6 -53 -6 -206v-1164h426q133 0 186 6h8v-61h-686v8q4 53 4 207v1004q0 153 -4 206v9zM176 1610l238 338l61 -52l-278 -305z" />
    <glyph glyph-name="Lacute" unicode="&#x13a;" horiz-adv-x="921" 
d="M256 1434h72v-9q-6 -53 -6 -206v-1164h426q133 0 186 6h8v-61h-686v8q4 53 4 207v1004q0 153 -4 206v9zM176 1610l238 338l61 -52l-278 -305z" />
    <glyph glyph-name="uni013B" unicode="&#x13b;" horiz-adv-x="921" 
d="M256 1434h72v-9q-6 -53 -6 -206v-1164h426q133 0 186 6h8v-61h-686v8q4 53 4 207v1004q0 153 -4 206v9zM506 -408q81 100 72 130q-2 7 -9 8q-24 3 -42.5 19.5t-18.5 43.5q0 28 19.5 48t47.5 20q31 0 49.5 -21.5t18.5 -56.5q0 -81 -113 -207z" />
    <glyph glyph-name="uni013B" unicode="&#x13c;" horiz-adv-x="921" 
d="M256 1434h72v-9q-6 -53 -6 -206v-1164h426q133 0 186 6h8v-61h-686v8q4 53 4 207v1004q0 153 -4 206v9zM506 -408q81 100 72 130q-2 7 -9 8q-24 3 -42.5 19.5t-18.5 43.5q0 28 19.5 48t47.5 20q31 0 49.5 -21.5t18.5 -56.5q0 -81 -113 -207z" />
    <glyph glyph-name="Lcaron" unicode="&#x13d;" horiz-adv-x="1013" 
d="M256 1434h72v-9q-6 -53 -6 -206v-1164h426q133 0 186 6h8v-61h-686v8q4 53 4 207v1004q0 153 -4 206v9zM750 1067l34 377l78 -14l-80 -367z" />
    <glyph glyph-name="Lcaron" unicode="&#x13e;" horiz-adv-x="1013" 
d="M256 1434h72v-9q-6 -53 -6 -206v-1164h426q133 0 186 6h8v-61h-686v8q4 53 4 207v1004q0 153 -4 206v9zM750 1067l34 377l78 -14l-80 -367z" />
    <glyph glyph-name="Lslash" unicode="&#x141;" horiz-adv-x="921" 
d="M256 1434h72v-9q-6 -53 -6 -206v-422l591 342l27 -49l-618 -357v-678h426q133 0 186 6h8v-61h-686v8q4 53 4 207v481l-242 -139l-26 49l268 156v457q0 153 -4 206v9z" />
    <glyph glyph-name="Lslash" unicode="&#x142;" horiz-adv-x="921" 
d="M256 1434h72v-9q-6 -53 -6 -206v-422l591 342l27 -49l-618 -357v-678h426q133 0 186 6h8v-61h-686v8q4 53 4 207v481l-242 -139l-26 49l268 156v457q0 153 -4 206v9z" />
    <glyph glyph-name="Nacute" unicode="&#x143;" horiz-adv-x="1454" 
d="M256 1438h51l832 -1315v1096q0 153 -6 206v9h65v-9q-4 -53 -4 -206v-1029q0 -139 4 -194h-51l-832 1313v-1094q0 -145 7 -207v-8h-66v8q4 53 4 207v1028q0 140 -4 195zM641 1610l238 338l61 -52l-278 -305z" />
    <glyph glyph-name="Nacute" unicode="&#x144;" horiz-adv-x="1454" 
d="M256 1438h51l832 -1315v1096q0 153 -6 206v9h65v-9q-4 -53 -4 -206v-1029q0 -139 4 -194h-51l-832 1313v-1094q0 -145 7 -207v-8h-66v8q4 53 4 207v1028q0 140 -4 195zM641 1610l238 338l61 -52l-278 -305z" />
    <glyph glyph-name="uni0145" unicode="&#x145;" horiz-adv-x="1454" 
d="M256 1438h51l832 -1315v1096q0 153 -6 206v9h65v-9q-4 -53 -4 -206v-1029q0 -139 4 -194h-51l-832 1313v-1094q0 -145 7 -207v-8h-66v8q4 53 4 207v1028q0 140 -4 195zM651 -418q85 106 72 132q-2 4 -8 5q-24 3 -43 20t-19 44q0 28 20 47.5t48 19.5q31 0 49 -21t18 -56
q0 -83 -112 -207z" />
    <glyph glyph-name="uni0145" unicode="&#x146;" horiz-adv-x="1454" 
d="M256 1438h51l832 -1315v1096q0 153 -6 206v9h65v-9q-4 -53 -4 -206v-1029q0 -139 4 -194h-51l-832 1313v-1094q0 -145 7 -207v-8h-66v8q4 53 4 207v1028q0 140 -4 195zM651 -418q85 106 72 132q-2 4 -8 5q-24 3 -43 20t-19 44q0 28 20 47.5t48 19.5q31 0 49 -21t18 -56
q0 -83 -112 -207z" />
    <glyph glyph-name="Ncaron" unicode="&#x147;" horiz-adv-x="1454" 
d="M256 1438h51l832 -1315v1096q0 153 -6 206v9h65v-9q-4 -53 -4 -206v-1029q0 -139 4 -194h-51l-832 1313v-1094q0 -145 7 -207v-8h-66v8q4 53 4 207v1028q0 140 -4 195zM426 1858l23 28l284 -205l273 205l22 -28l-301 -263z" />
    <glyph glyph-name="Ncaron" unicode="&#x148;" horiz-adv-x="1454" 
d="M256 1438h51l832 -1315v1096q0 153 -6 206v9h65v-9q-4 -53 -4 -206v-1029q0 -139 4 -194h-51l-832 1313v-1094q0 -145 7 -207v-8h-66v8q4 53 4 207v1028q0 140 -4 195zM426 1858l23 28l284 -205l273 205l22 -28l-301 -263z" />
    <glyph glyph-name="Omacron" unicode="&#x14c;" horiz-adv-x="1638" 
d="M819 -33q-208 0 -382 101t-275 275t-101 382t101 382t275 275t382 101t382 -101t275 -275t101 -382t-101 -382t-275 -275t-382 -101zM123 725q0 -144 54 -274t146 -224t221 -149t273 -55q192 0 353 93.5t253.5 254.5t92.5 354t-92.5 354.5t-253 254.5t-353.5 93
q-192 0 -351.5 -93t-251 -254t-91.5 -355zM449 1679v56h778v-56h-778z" />
    <glyph glyph-name="Omacron" unicode="&#x14d;" horiz-adv-x="1638" 
d="M819 -33q-208 0 -382 101t-275 275t-101 382t101 382t275 275t382 101t382 -101t275 -275t101 -382t-101 -382t-275 -275t-382 -101zM123 725q0 -144 54 -274t146 -224t221 -149t273 -55q192 0 353 93.5t253.5 254.5t92.5 354t-92.5 354.5t-253 254.5t-353.5 93
q-192 0 -351.5 -93t-251 -254t-91.5 -355zM449 1679v56h778v-56h-778z" />
    <glyph glyph-name="Ohungarumlaut" unicode="&#x150;" horiz-adv-x="1638" 
d="M819 -33q-208 0 -382 101t-275 275t-101 382t101 382t275 275t382 101t382 -101t275 -275t101 -382t-101 -382t-275 -275t-382 -101zM123 725q0 -144 54 -274t146 -224t221 -149t273 -55q192 0 353 93.5t253.5 254.5t92.5 354t-92.5 354.5t-253 254.5t-353.5 93
q-192 0 -351.5 -93t-251 -254t-91.5 -355zM688 1655l139 272l76 -37l-186 -250zM893 1669l227 268l66 -55l-268 -233z" />
    <glyph glyph-name="Ohungarumlaut" unicode="&#x151;" horiz-adv-x="1638" 
d="M819 -33q-208 0 -382 101t-275 275t-101 382t101 382t275 275t382 101t382 -101t275 -275t101 -382t-101 -382t-275 -275t-382 -101zM123 725q0 -144 54 -274t146 -224t221 -149t273 -55q192 0 353 93.5t253.5 254.5t92.5 354t-92.5 354.5t-253 254.5t-353.5 93
q-192 0 -351.5 -93t-251 -254t-91.5 -355zM688 1655l139 272l76 -37l-186 -250zM893 1669l227 268l66 -55l-268 -233z" />
    <glyph glyph-name="OE" unicode="&#x152;" horiz-adv-x="2314" 
d="M793 -33q-120 0 -231.5 38t-201.5 107.5t-157.5 163t-104.5 209t-37 240.5t37 240.5t104.5 209t157.5 163t201.5 107.5t231.5 38q220 0 400.5 -126t264.5 -333v195q0 153 -4 206v9h752v-62h-8q-53 6 -187 6h-491v-381h526v-55h-526v-887h567q133 0 186 6h8v-61h-827v8
q4 53 4 207v211q-84 -207 -264.5 -333t-400.5 -126zM121 725q0 -193 88 -354t242.5 -254.5t339.5 -93.5t340 93.5t244 254.5t89 354q0 194 -89 355t-243.5 254t-340.5 93q-139 0 -263.5 -55t-213.5 -148.5t-141 -223.5t-52 -275z" />
    <glyph glyph-name="OE" unicode="&#x153;" horiz-adv-x="2314" 
d="M793 -33q-120 0 -231.5 38t-201.5 107.5t-157.5 163t-104.5 209t-37 240.5t37 240.5t104.5 209t157.5 163t201.5 107.5t231.5 38q220 0 400.5 -126t264.5 -333v195q0 153 -4 206v9h752v-62h-8q-53 6 -187 6h-491v-381h526v-55h-526v-887h567q133 0 186 6h8v-61h-827v8
q4 53 4 207v211q-84 -207 -264.5 -333t-400.5 -126zM121 725q0 -193 88 -354t242.5 -254.5t339.5 -93.5t340 93.5t244 254.5t89 354q0 194 -89 355t-243.5 254t-340.5 93q-139 0 -263.5 -55t-213.5 -148.5t-141 -223.5t-52 -275z" />
    <glyph glyph-name="Racute" unicode="&#x154;" horiz-adv-x="1370" 
d="M672 1434q255 0 395.5 -86.5t140.5 -241.5q0 -162 -129 -243t-374 -81l423 -596q76 -106 102.5 -139t47.5 -45l-4 -16q-47 -7 -86 29.5t-101 122.5q-5 8 -8 12l-465 655l15 29h86q432 0 432 268q0 130 -130 203t-362 73h-333v-1163q0 -154 6 -207v-8h-72v8q4 53 4 207
v1004q0 153 -4 206v9h416zM559 1610l238 338l61 -52l-278 -305z" />
    <glyph glyph-name="Racute" unicode="&#x155;" horiz-adv-x="1370" 
d="M672 1434q255 0 395.5 -86.5t140.5 -241.5q0 -162 -129 -243t-374 -81l423 -596q76 -106 102.5 -139t47.5 -45l-4 -16q-47 -7 -86 29.5t-101 122.5q-5 8 -8 12l-465 655l15 29h86q432 0 432 268q0 130 -130 203t-362 73h-333v-1163q0 -154 6 -207v-8h-72v8q4 53 4 207
v1004q0 153 -4 206v9h416zM559 1610l238 338l61 -52l-278 -305z" />
    <glyph glyph-name="uni0156" unicode="&#x156;" horiz-adv-x="1370" 
d="M672 1434q255 0 395.5 -86.5t140.5 -241.5q0 -162 -129 -243t-374 -81l423 -596q76 -106 102.5 -139t47.5 -45l-4 -16q-47 -7 -86 29.5t-101 122.5q-5 8 -8 12l-465 655l15 29h86q432 0 432 268q0 130 -130 203t-362 73h-333v-1163q0 -154 6 -207v-8h-72v8q4 53 4 207
v1004q0 153 -4 206v9h416zM641 -397q85 106 72 132q-2 4 -8 5q-24 4 -43 20t-19 43q0 28 20 48t48 20q31 0 49 -21.5t18 -56.5q0 -83 -112 -207z" />
    <glyph glyph-name="uni0156" unicode="&#x157;" horiz-adv-x="1370" 
d="M672 1434q255 0 395.5 -86.5t140.5 -241.5q0 -162 -129 -243t-374 -81l423 -596q76 -106 102.5 -139t47.5 -45l-4 -16q-47 -7 -86 29.5t-101 122.5q-5 8 -8 12l-465 655l15 29h86q432 0 432 268q0 130 -130 203t-362 73h-333v-1163q0 -154 6 -207v-8h-72v8q4 53 4 207
v1004q0 153 -4 206v9h416zM641 -397q85 106 72 132q-2 4 -8 5q-24 4 -43 20t-19 43q0 28 20 48t48 20q31 0 49 -21.5t18 -56.5q0 -83 -112 -207z" />
    <glyph glyph-name="Rcaron" unicode="&#x158;" horiz-adv-x="1370" 
d="M672 1434q255 0 395.5 -86.5t140.5 -241.5q0 -162 -129 -243t-374 -81l423 -596q76 -106 102.5 -139t47.5 -45l-4 -16q-47 -7 -86 29.5t-101 122.5q-5 8 -8 12l-465 655l15 29h86q432 0 432 268q0 130 -130 203t-362 73h-333v-1163q0 -154 6 -207v-8h-72v8q4 53 4 207
v1004q0 153 -4 206v9h416zM385 1858l23 28l284 -205l273 205l22 -28l-301 -263z" />
    <glyph glyph-name="Rcaron" unicode="&#x159;" horiz-adv-x="1370" 
d="M672 1434q255 0 395.5 -86.5t140.5 -241.5q0 -162 -129 -243t-374 -81l423 -596q76 -106 102.5 -139t47.5 -45l-4 -16q-47 -7 -86 29.5t-101 122.5q-5 8 -8 12l-465 655l15 29h86q432 0 432 268q0 130 -130 203t-362 73h-333v-1163q0 -154 6 -207v-8h-72v8q4 53 4 207
v1004q0 153 -4 206v9h416zM385 1858l23 28l284 -205l273 205l22 -28l-301 -263z" />
    <glyph glyph-name="Sacute" unicode="&#x15a;" horiz-adv-x="995" 
d="M791 1425l8 -96h-19q-48 48 -110 67t-156 19q-138 0 -209.5 -56t-71.5 -149q0 -80 40 -152.5t120 -152.5l287 -291q94 -94 131 -170t37 -161q0 -102 -52.5 -173.5t-133 -103t-179.5 -31.5q-185 0 -323 101l-6 90h18q71 -71 151 -103t183 -32q119 0 199.5 66t80.5 179
q0 146 -149 295l-287 291q-178 181 -178 342q0 117 92 191.5t260 74.5q143 0 267 -45zM391 1610l238 338l61 -52l-278 -305z" />
    <glyph glyph-name="Sacute" unicode="&#x15b;" horiz-adv-x="995" 
d="M791 1425l8 -96h-19q-48 48 -110 67t-156 19q-138 0 -209.5 -56t-71.5 -149q0 -80 40 -152.5t120 -152.5l287 -291q94 -94 131 -170t37 -161q0 -102 -52.5 -173.5t-133 -103t-179.5 -31.5q-185 0 -323 101l-6 90h18q71 -71 151 -103t183 -32q119 0 199.5 66t80.5 179
q0 146 -149 295l-287 291q-178 181 -178 342q0 117 92 191.5t260 74.5q143 0 267 -45zM391 1610l238 338l61 -52l-278 -305z" />
    <glyph glyph-name="Scedilla" unicode="&#x15e;" horiz-adv-x="995" 
d="M791 1425l8 -96h-19q-48 48 -110 67t-156 19q-138 0 -209.5 -56t-71.5 -149q0 -80 40 -152.5t120 -152.5l287 -291q94 -94 131 -170t37 -161q0 -134 -83 -210.5t-214 -92.5l-53 -82q71 7 118.5 -25.5t47.5 -85.5q0 -57 -49.5 -98t-117.5 -58.5t-141 -17.5v41
q101 2 178.5 37t77.5 98q0 42 -46 63t-134 7l-6 10l66 106h-9q-185 0 -323 101l-6 90h18q71 -71 151 -103t183 -32q119 0 199.5 66t80.5 179q0 146 -149 295l-287 291q-178 181 -178 342q0 117 92 191.5t260 74.5q143 0 267 -45z" />
    <glyph glyph-name="Scedilla" unicode="&#x15f;" horiz-adv-x="995" 
d="M791 1425l8 -96h-19q-48 48 -110 67t-156 19q-138 0 -209.5 -56t-71.5 -149q0 -80 40 -152.5t120 -152.5l287 -291q94 -94 131 -170t37 -161q0 -134 -83 -210.5t-214 -92.5l-53 -82q71 7 118.5 -25.5t47.5 -85.5q0 -57 -49.5 -98t-117.5 -58.5t-141 -17.5v41
q101 2 178.5 37t77.5 98q0 42 -46 63t-134 7l-6 10l66 106h-9q-185 0 -323 101l-6 90h18q71 -71 151 -103t183 -32q119 0 199.5 66t80.5 179q0 146 -149 295l-287 291q-178 181 -178 342q0 117 92 191.5t260 74.5q143 0 267 -45z" />
    <glyph glyph-name="Scaron" unicode="&#x160;" horiz-adv-x="995" 
d="M791 1425l8 -96h-19q-48 48 -110 67t-156 19q-138 0 -209.5 -56t-71.5 -149q0 -80 40 -152.5t120 -152.5l287 -291q94 -94 131 -170t37 -161q0 -102 -52.5 -173.5t-133 -103t-179.5 -31.5q-185 0 -323 101l-6 90h18q71 -71 151 -103t183 -32q119 0 199.5 66t80.5 179
q0 146 -149 295l-287 291q-178 181 -178 342q0 117 92 191.5t260 74.5q143 0 267 -45zM217 1858l23 28l284 -205l273 205l22 -28l-301 -263z" />
    <glyph glyph-name="Scaron" unicode="&#x161;" horiz-adv-x="995" 
d="M791 1425l8 -96h-19q-48 48 -110 67t-156 19q-138 0 -209.5 -56t-71.5 -149q0 -80 40 -152.5t120 -152.5l287 -291q94 -94 131 -170t37 -161q0 -102 -52.5 -173.5t-133 -103t-179.5 -31.5q-185 0 -323 101l-6 90h18q71 -71 151 -103t183 -32q119 0 199.5 66t80.5 179
q0 146 -149 295l-287 291q-178 181 -178 342q0 117 92 191.5t260 74.5q143 0 267 -45zM217 1858l23 28l284 -205l273 205l22 -28l-301 -263z" />
    <glyph glyph-name="uni0162" unicode="&#x162;" horiz-adv-x="1024" 
d="M82 1434h942v-62h-8q-53 6 -187 6h-245v-1163q0 -102 4 -176l2 -31v-8l-66 -102q71 7 118.5 -25.5t47.5 -85.5q0 -57 -49.5 -98t-117 -58.5t-140.5 -17.5v41q101 2 178.5 37t77.5 98q0 42 -46 63t-134 7l-6 10l79 131h-16v8l2 31q4 74 4 176v1163h-246q-133 0 -186 -6h-8
v62z" />
    <glyph glyph-name="uni0162" unicode="&#x163;" horiz-adv-x="1024" 
d="M82 1434h942v-62h-8q-53 6 -187 6h-245v-1163q0 -102 4 -176l2 -31v-8l-66 -102q71 7 118.5 -25.5t47.5 -85.5q0 -57 -49.5 -98t-117 -58.5t-140.5 -17.5v41q101 2 178.5 37t77.5 98q0 42 -46 63t-134 7l-6 10l79 131h-16v8l2 31q4 74 4 176v1163h-246q-133 0 -186 -6h-8
v62z" />
    <glyph glyph-name="Tcaron" unicode="&#x164;" horiz-adv-x="1024" 
d="M82 1434h942v-62h-8q-53 6 -187 6h-245v-1163q0 -102 4 -176l2 -31v-8h-74v8l2 31q4 74 4 176v1163h-246q-133 0 -186 -6h-8v62zM252 1858l22 28l285 -205l272 205l23 -28l-301 -263z" />
    <glyph glyph-name="Tcaron" unicode="&#x165;" horiz-adv-x="1024" 
d="M82 1434h942v-62h-8q-53 6 -187 6h-245v-1163q0 -102 4 -176l2 -31v-8h-74v8l2 31q4 74 4 176v1163h-246q-133 0 -186 -6h-8v62zM252 1858l22 28l285 -205l272 205l23 -28l-301 -263z" />
    <glyph glyph-name="Utilde" unicode="&#x168;" horiz-adv-x="1404" 
d="M205 1434h71v-9q-6 -53 -6 -206v-654q0 -263 117 -402.5t326 -139.5q195 0 308.5 137.5t113.5 384.5v674q0 144 -7 206v9h72v-9q-4 -53 -4 -206v-654q0 -285 -137 -441.5t-367 -156.5q-215 0 -349 154t-134 424v674q0 153 -4 206v9zM342 1688q64 112 174 112
q68 0 199 -55q134 -57 196 -57q67 0 131 67l19 -14q-42 -61 -83 -87t-91 -26q-72 0 -199 55q-135 58 -196 58q-81 0 -132 -68z" />
    <glyph glyph-name="Utilde" unicode="&#x169;" horiz-adv-x="1404" 
d="M205 1434h71v-9q-6 -53 -6 -206v-654q0 -263 117 -402.5t326 -139.5q195 0 308.5 137.5t113.5 384.5v674q0 144 -7 206v9h72v-9q-4 -53 -4 -206v-654q0 -285 -137 -441.5t-367 -156.5q-215 0 -349 154t-134 424v674q0 153 -4 206v9zM342 1688q64 112 174 112
q68 0 199 -55q134 -57 196 -57q67 0 131 67l19 -14q-42 -61 -83 -87t-91 -26q-72 0 -199 55q-135 58 -196 58q-81 0 -132 -68z" />
    <glyph glyph-name="Umacron" unicode="&#x16a;" horiz-adv-x="1404" 
d="M205 1434h71v-9q-6 -53 -6 -206v-654q0 -263 117 -402.5t326 -139.5q195 0 308.5 137.5t113.5 384.5v674q0 144 -7 206v9h72v-9q-4 -53 -4 -206v-654q0 -285 -137 -441.5t-367 -156.5q-215 0 -349 154t-134 424v674q0 153 -4 206v9zM313 1679v56h779v-56h-779z" />
    <glyph glyph-name="Umacron" unicode="&#x16b;" horiz-adv-x="1404" 
d="M205 1434h71v-9q-6 -53 -6 -206v-654q0 -263 117 -402.5t326 -139.5q195 0 308.5 137.5t113.5 384.5v674q0 144 -7 206v9h72v-9q-4 -53 -4 -206v-654q0 -285 -137 -441.5t-367 -156.5q-215 0 -349 154t-134 424v674q0 153 -4 206v9zM313 1679v56h779v-56h-779z" />
    <glyph glyph-name="Uring" unicode="&#x16e;" horiz-adv-x="1404" 
d="M205 1434h71v-9q-6 -53 -6 -206v-654q0 -263 117 -402.5t326 -139.5q195 0 308.5 137.5t113.5 384.5v674q0 144 -7 206v9h72v-9q-4 -53 -4 -206v-654q0 -285 -137 -441.5t-367 -156.5q-215 0 -349 154t-134 424v674q0 153 -4 206v9zM539 1780q0 71 45.5 117.5t117.5 46.5
t118 -46.5t46 -117.5q0 -72 -46 -118t-118 -46t-117.5 46t-45.5 118zM600 1780q0 -46 28.5 -77.5t73.5 -31.5t74 31.5t29 77.5t-29 77t-74 31t-73.5 -31t-28.5 -77z" />
    <glyph glyph-name="Uring" unicode="&#x16f;" horiz-adv-x="1404" 
d="M205 1434h71v-9q-6 -53 -6 -206v-654q0 -263 117 -402.5t326 -139.5q195 0 308.5 137.5t113.5 384.5v674q0 144 -7 206v9h72v-9q-4 -53 -4 -206v-654q0 -285 -137 -441.5t-367 -156.5q-215 0 -349 154t-134 424v674q0 153 -4 206v9zM539 1780q0 71 45.5 117.5t117.5 46.5
t118 -46.5t46 -117.5q0 -72 -46 -118t-118 -46t-117.5 46t-45.5 118zM600 1780q0 -46 28.5 -77.5t73.5 -31.5t74 31.5t29 77.5t-29 77t-74 31t-73.5 -31t-28.5 -77z" />
    <glyph glyph-name="Uhungarumlaut" unicode="&#x170;" horiz-adv-x="1404" 
d="M205 1434h71v-9q-6 -53 -6 -206v-654q0 -263 117 -402.5t326 -139.5q195 0 308.5 137.5t113.5 384.5v674q0 144 -7 206v9h72v-9q-4 -53 -4 -206v-654q0 -285 -137 -441.5t-367 -156.5q-215 0 -349 154t-134 424v674q0 153 -4 206v9zM553 1655l139 272l76 -37l-186 -250z
M758 1669l227 268l66 -55l-269 -233z" />
    <glyph glyph-name="Uhungarumlaut" unicode="&#x171;" horiz-adv-x="1404" 
d="M205 1434h71v-9q-6 -53 -6 -206v-654q0 -263 117 -402.5t326 -139.5q195 0 308.5 137.5t113.5 384.5v674q0 144 -7 206v9h72v-9q-4 -53 -4 -206v-654q0 -285 -137 -441.5t-367 -156.5q-215 0 -349 154t-134 424v674q0 153 -4 206v9zM553 1655l139 272l76 -37l-186 -250z
M758 1669l227 268l66 -55l-269 -233z" />
    <glyph glyph-name="Uogonek" unicode="&#x172;" horiz-adv-x="1404" 
d="M205 1434h71v-9q-6 -53 -6 -206v-654q0 -263 117 -402.5t326 -139.5q195 0 308.5 137.5t113.5 384.5v674q0 144 -7 206v9h72v-9q-4 -53 -4 -206v-654q0 -215 -80 -359t-223 -202q-135 -54 -202.5 -114t-67.5 -119q0 -39 27 -63.5t79 -24.5q71 0 148 38l14 -30
q-87 -49 -172 -49q-68 0 -107 33t-39 87q0 52 37 105.5t111 99.5h-29q-215 0 -349 154t-134 424v674q0 153 -4 206v9z" />
    <glyph glyph-name="Uogonek" unicode="&#x173;" horiz-adv-x="1404" 
d="M205 1434h71v-9q-6 -53 -6 -206v-654q0 -263 117 -402.5t326 -139.5q195 0 308.5 137.5t113.5 384.5v674q0 144 -7 206v9h72v-9q-4 -53 -4 -206v-654q0 -215 -80 -359t-223 -202q-135 -54 -202.5 -114t-67.5 -119q0 -39 27 -63.5t79 -24.5q71 0 148 38l14 -30
q-87 -49 -172 -49q-68 0 -107 33t-39 87q0 52 37 105.5t111 99.5h-29q-215 0 -349 154t-134 424v674q0 153 -4 206v9z" />
    <glyph glyph-name="Wcircumflex" unicode="&#x174;" horiz-adv-x="2045" 
d="M27 1434h88v-15q0 -44 51 -200l383 -1135l455 1350h51l442 -1352l387 1135q45 133 45 202v15h92v-9q-4 -12 -15.5 -41t-27.5 -71.5t-34 -95.5l-416 -1217h-68l-434 1327l-448 -1327h-66l-412 1219q-46 140 -73 206v9zM745 1599l302 263l301 -263l-23 -28l-285 205
l-272 -205z" />
    <glyph glyph-name="Wcircumflex" unicode="&#x175;" horiz-adv-x="2045" 
d="M27 1434h88v-15q0 -44 51 -200l383 -1135l455 1350h51l442 -1352l387 1135q45 133 45 202v15h92v-9q-4 -12 -15.5 -41t-27.5 -71.5t-34 -95.5l-416 -1217h-68l-434 1327l-448 -1327h-66l-412 1219q-46 140 -73 206v9zM745 1599l302 263l301 -263l-23 -28l-285 205
l-272 -205z" />
    <glyph glyph-name="Ycircumflex" unicode="&#x176;" horiz-adv-x="1267" 
d="M184 1217q-109 156 -161 208v9h98l2 -9q6 -16 19.5 -36.5t84.5 -122.5l410 -582l412 582q43 61 64 93t25 41t9 25l2 9h96v-9q-54 -54 -162 -208l-419 -590v-432q0 -134 4 -187v-8h-70v8q4 53 4 187v432zM367 1599l301 263l301 -263l-23 -28l-284 205l-273 -205z" />
    <glyph glyph-name="Ycircumflex" unicode="&#x177;" horiz-adv-x="1267" 
d="M184 1217q-109 156 -161 208v9h98l2 -9q6 -16 19.5 -36.5t84.5 -122.5l410 -582l412 582q43 61 64 93t25 41t9 25l2 9h96v-9q-54 -54 -162 -208l-419 -590v-432q0 -134 4 -187v-8h-70v8q4 53 4 187v432zM367 1599l301 263l301 -263l-23 -28l-284 205l-273 -205z" />
    <glyph glyph-name="Zacute" unicode="&#x179;" horiz-adv-x="1167" 
d="M195 1434h868l-778 -1379h604q80 0 116 4.5t72 18.5h6v-78h-901l781 1378h-574q-81 0 -117 -4t-71 -18h-6v78zM498 1610l237 338l62 -52l-279 -305z" />
    <glyph glyph-name="Zacute" unicode="&#x17a;" horiz-adv-x="1167" 
d="M195 1434h868l-778 -1379h604q80 0 116 4.5t72 18.5h6v-78h-901l781 1378h-574q-81 0 -117 -4t-71 -18h-6v78zM498 1610l237 338l62 -52l-279 -305z" />
    <glyph glyph-name="Zdotaccent" unicode="&#x17b;" horiz-adv-x="1167" 
d="M195 1434h868l-778 -1379h604q80 0 116 4.5t72 18.5h6v-78h-901l781 1378h-574q-81 0 -117 -4t-71 -18h-6v78zM532 1741q0 37 27.5 64.5t65.5 27.5t65 -27.5t27 -64.5q0 -38 -27 -65t-65 -27t-65.5 27t-27.5 65z" />
    <glyph glyph-name="Zdotaccent" unicode="&#x17c;" horiz-adv-x="1167" 
d="M195 1434h868l-778 -1379h604q80 0 116 4.5t72 18.5h6v-78h-901l781 1378h-574q-81 0 -117 -4t-71 -18h-6v78zM532 1741q0 37 27.5 64.5t65.5 27.5t65 -27.5t27 -64.5q0 -38 -27 -65t-65 -27t-65.5 27t-27.5 65z" />
    <glyph glyph-name="Zcaron" unicode="&#x17d;" horiz-adv-x="1167" 
d="M195 1434h868l-778 -1379h604q80 0 116 4.5t72 18.5h6v-78h-901l781 1378h-574q-81 0 -117 -4t-71 -18h-6v78zM324 1858l22 28l285 -205l272 205l23 -28l-301 -263z" />
    <glyph glyph-name="Zcaron" unicode="&#x17e;" horiz-adv-x="1167" 
d="M195 1434h868l-778 -1379h604q80 0 116 4.5t72 18.5h6v-78h-901l781 1378h-574q-81 0 -117 -4t-71 -18h-6v78zM324 1858l22 28l285 -205l272 205l23 -28l-301 -263z" />
    <glyph glyph-name="uni01DE" unicode="&#x1de;" horiz-adv-x="1228" 
d="M610 1434h52l456 -1219q56 -151 84 -207v-8h-92v8q0 48 -59 209l-62 166h-713l-61 -166q-59 -161 -59 -209v-8h-88v8q28 56 84 207zM240 1927v55h778v-55h-778zM297 438h672l-336 901zM377 1731q0 34 24 57.5t58 23.5t58 -23.5t24 -57.5t-24 -58t-58 -24t-58 24t-24 58z
M725 1731q0 34 24 57.5t58 23.5t58 -23.5t24 -57.5q0 -35 -24 -58.5t-58 -23.5t-58 23.5t-24 58.5z" />
    <glyph glyph-name="uni01DE" unicode="&#x1df;" horiz-adv-x="1228" 
d="M610 1434h52l456 -1219q56 -151 84 -207v-8h-92v8q0 48 -59 209l-62 166h-713l-61 -166q-59 -161 -59 -209v-8h-88v8q28 56 84 207zM240 1927v55h778v-55h-778zM297 438h672l-336 901zM377 1731q0 34 24 57.5t58 23.5t58 -23.5t24 -57.5t-24 -58t-58 -24t-58 24t-24 58z
M725 1731q0 34 24 57.5t58 23.5t58 -23.5t24 -57.5q0 -35 -24 -58.5t-58 -23.5t-58 23.5t-24 58.5z" />
    <glyph glyph-name="uni0218" unicode="&#x218;" horiz-adv-x="995" 
d="M791 1425l8 -96h-19q-48 48 -110 67t-156 19q-138 0 -209.5 -56t-71.5 -149q0 -80 40 -152.5t120 -152.5l287 -291q94 -94 131 -170t37 -161q0 -102 -52.5 -173.5t-133 -103t-179.5 -31.5q-185 0 -323 101l-6 90h18q71 -71 151 -103t183 -32q119 0 199.5 66t80.5 179
q0 146 -149 295l-287 291q-178 181 -178 342q0 117 92 191.5t260 74.5q143 0 267 -45zM453 -397q82 102 72 130q-2 6 -9 7q-24 3 -42.5 19.5t-18.5 43.5q0 28 19.5 48t47.5 20q31 0 49.5 -21.5t18.5 -56.5q0 -81 -113 -207z" />
    <glyph glyph-name="uni0218" unicode="&#x219;" horiz-adv-x="995" 
d="M791 1425l8 -96h-19q-48 48 -110 67t-156 19q-138 0 -209.5 -56t-71.5 -149q0 -80 40 -152.5t120 -152.5l287 -291q94 -94 131 -170t37 -161q0 -102 -52.5 -173.5t-133 -103t-179.5 -31.5q-185 0 -323 101l-6 90h18q71 -71 151 -103t183 -32q119 0 199.5 66t80.5 179
q0 146 -149 295l-287 291q-178 181 -178 342q0 117 92 191.5t260 74.5q143 0 267 -45zM453 -397q82 102 72 130q-2 6 -9 7q-24 3 -42.5 19.5t-18.5 43.5q0 28 19.5 48t47.5 20q31 0 49.5 -21.5t18.5 -56.5q0 -81 -113 -207z" />
    <glyph glyph-name="uni021A" unicode="&#x21a;" horiz-adv-x="1024" 
d="M82 1434h942v-62h-8q-53 6 -187 6h-245v-1163q0 -102 4 -176l2 -31v-8h-74v8l2 31q4 74 4 176v1163h-246q-133 0 -186 -6h-8v62zM485 -397q85 106 72 132q-2 4 -8 5q-24 4 -43 20t-19 43q0 28 20 48t48 20q31 0 49.5 -21.5t18.5 -56.5q0 -81 -113 -207z" />
    <glyph glyph-name="uni021A" unicode="&#x21b;" horiz-adv-x="1024" 
d="M82 1434h942v-62h-8q-53 6 -187 6h-245v-1163q0 -102 4 -176l2 -31v-8h-74v8l2 31q4 74 4 176v1163h-246q-133 0 -186 -6h-8v62zM485 -397q85 106 72 132q-2 4 -8 5q-24 4 -43 20t-19 43q0 28 20 48t48 20q31 0 49.5 -21.5t18.5 -56.5q0 -81 -113 -207z" />
    <glyph glyph-name="uni0228" unicode="&#x228;" horiz-adv-x="1116" 
d="M256 1434h752v-62h-9q-53 6 -186 6h-491v-381h526v-55h-526v-887h567q133 0 186 6h8v-61h-385l-65 -102q71 7 118.5 -25.5t47.5 -85.5q0 -57 -49.5 -98t-117 -58.5t-140.5 -17.5v41q101 2 178.5 37t77.5 98q0 42 -46.5 63t-134.5 7l-6 10l80 131h-385v8q4 53 4 207v1004
q0 153 -4 206v9z" />
    <glyph glyph-name="uni0228" unicode="&#x229;" horiz-adv-x="1116" 
d="M256 1434h752v-62h-9q-53 6 -186 6h-491v-381h526v-55h-526v-887h567q133 0 186 6h8v-61h-385l-65 -102q71 7 118.5 -25.5t47.5 -85.5q0 -57 -49.5 -98t-117 -58.5t-140.5 -17.5v41q101 2 178.5 37t77.5 98q0 42 -46.5 63t-134.5 7l-6 10l80 131h-385v8q4 53 4 207v1004
q0 153 -4 206v9z" />
    <glyph glyph-name="uni02BC" unicode="&#x2bc;" horiz-adv-x="573" 
d="M285 1530l106 -19l-121 -544l-37 6z" />
    <glyph glyph-name="gravecomb" unicode="&#x300;" 
d="M487 1929l238 -338l-20 -18l-279 305z" />
    <glyph glyph-name="acutecomb" unicode="&#x301;" 
d="M725 1948l61 -52l-278 -305l-21 19z" />
    <glyph glyph-name="uni0302" unicode="&#x302;" 
d="M893 1591l-285 205l-272 -205l-23 29l301 262l301 -262z" />
    <glyph glyph-name="tildecomb" unicode="&#x303;" 
d="M799 1649q-72 0 -199 55q-133 57 -197 57q-80 0 -131 -67l-18 14q65 113 174 113q65 0 199 -56q134 -57 196 -57q66 0 131 68l19 -15q-42 -61 -83 -86.5t-91 -25.5z" />
    <glyph glyph-name="uni0304" unicode="&#x304;" 
d="M225 1735h779v-56h-779v56z" />
    <glyph glyph-name="uni0306" unicode="&#x306;" 
d="M342 1868h61v-2q0 -92 66 -158q61 -55 145 -55q88 0 149.5 60.5t61.5 154.5h62q-3 -119 -78.5 -195t-194.5 -76t-194 76t-78 195z" />
    <glyph glyph-name="uni0307" unicode="&#x307;" 
d="M614 1649q-38 0 -65 27t-27 65q0 37 27 64.5t65 27.5t65.5 -27.5t27.5 -64.5q0 -38 -27.5 -65t-65.5 -27z" />
    <glyph glyph-name="uni0308" unicode="&#x308;" 
d="M440 1649q-34 0 -58 24t-24 58t24 57.5t58 23.5t58 -23.5t24 -57.5t-24 -58t-58 -24zM707 1731q0 34 23.5 57.5t57.5 23.5t58 -23.5t24 -57.5q0 -35 -24 -58.5t-58 -23.5t-57.5 23.5t-23.5 58.5z" />
    <glyph glyph-name="uni030A" unicode="&#x30a;" 
d="M451 1780q0 71 45.5 117.5t117.5 46.5t118 -46.5t46 -117.5q0 -72 -46 -118t-118 -46t-117.5 46t-45.5 118zM512 1780q0 -46 28.5 -77.5t73.5 -31.5t74 31.5t29 77.5t-29 77t-74 31t-73.5 -31t-28.5 -77z" />
    <glyph glyph-name="uni030B" unicode="&#x30b;" 
d="M604 1927l76 -37l-186 -250l-29 15zM670 1669l227 268l66 -55l-269 -233z" />
    <glyph glyph-name="uni030C" unicode="&#x30c;" 
d="M336 1886l285 -205l272 205l22 -28l-301 -263l-301 263z" />
    <glyph glyph-name="uni0312" unicode="&#x312;" 
d="M375 1442q-100 -123 -91 -161q2 -9 11 -11q28 -3 52 -24t24 -54q0 -35 -24.5 -60.5t-59.5 -25.5q-38 0 -61 27t-23 71q0 104 139 258z" />
    <glyph glyph-name="uni0326" unicode="&#x326;" 
d="M221 -397q85 106 72 132q-2 4 -8 5q-24 4 -43 20t-19 43q0 28 20 48t48 20q31 0 49 -21.5t18 -56.5q0 -83 -112 -207z" />
    <glyph glyph-name="uni0327" unicode="&#x327;" 
d="M518 23l43 -23l-65 -102q71 7 118.5 -25.5t47.5 -85.5q0 -57 -49.5 -98t-117.5 -58.5t-141 -17.5v41q101 2 178.5 37t77.5 98q0 42 -46 63t-134 7l-6 10z" />
    <glyph glyph-name="uni0328" unicode="&#x328;" 
d="M440 -362q-68 0 -106.5 33t-38.5 87q0 75 74.5 149.5t222.5 125.5l22 -33q-135 -54 -202.5 -114t-67.5 -119q0 -39 27.5 -64t79.5 -25q68 0 147 39l14 -30q-87 -49 -172 -49z" />
    <glyph glyph-name="uni0401" unicode="&#x401;" horiz-adv-x="1116" 
d="M256 1434h752v-62h-9q-53 6 -186 6h-491v-381h526v-55h-526v-887h567q133 0 186 6h8v-61h-827v8q4 53 4 207v1004q0 153 -4 206v9zM369 1731q0 34 24 57.5t58 23.5t57.5 -23.5t23.5 -57.5t-23.5 -58t-57.5 -24t-58 24t-24 58zM717 1731q0 34 24 57.5t58 23.5t58 -23.5
t24 -57.5q0 -35 -24 -58.5t-58 -23.5t-58 23.5t-24 58.5z" />
    <glyph glyph-name="uni0401" unicode="&#x451;" horiz-adv-x="1116" 
d="M256 1434h752v-62h-9q-53 6 -186 6h-491v-381h526v-55h-526v-887h567q133 0 186 6h8v-61h-827v8q4 53 4 207v1004q0 153 -4 206v9zM369 1731q0 34 24 57.5t58 23.5t57.5 -23.5t23.5 -57.5t-23.5 -58t-57.5 -24t-58 24t-24 58zM717 1731q0 34 24 57.5t58 23.5t58 -23.5
t24 -57.5q0 -35 -24 -58.5t-58 -23.5t-58 23.5t-24 58.5z" />
    <glyph glyph-name="uni0402" unicode="&#x402;" horiz-adv-x="1540" 
d="M985 825q-232 0 -401 -221v-389q0 -102 4 -176l2 -31v-8h-74v8l2 31q4 74 4 176v1163h-246q-133 0 -186 -6h-8v62h942v-62h-8q-53 6 -187 6h-245v-702q168 205 415 205q104 0 187 -39.5t134 -107t78 -152t27 -179.5q0 -101 -30.5 -199.5t-87.5 -182.5t-147.5 -143
t-201.5 -77l-8 25q100 21 180.5 78t130.5 135t76.5 168t26.5 182q0 87 -23.5 164t-69 138.5t-119.5 97.5t-167 36z" />
    <glyph glyph-name="uni0402" unicode="&#x452;" horiz-adv-x="1540" 
d="M985 825q-232 0 -401 -221v-389q0 -102 4 -176l2 -31v-8h-74v8l2 31q4 74 4 176v1163h-246q-133 0 -186 -6h-8v62h942v-62h-8q-53 6 -187 6h-245v-702q168 205 415 205q104 0 187 -39.5t134 -107t78 -152t27 -179.5q0 -101 -30.5 -199.5t-87.5 -182.5t-147.5 -143
t-201.5 -77l-8 25q100 21 180.5 78t130.5 135t76.5 168t26.5 182q0 87 -23.5 164t-69 138.5t-119.5 97.5t-167 36z" />
    <glyph glyph-name="uni0403" unicode="&#x403;" horiz-adv-x="983" 
d="M256 1434h666v-62h-9q-53 6 -186 6h-405v-1163q0 -154 6 -207v-8h-72v8q4 53 4 207v1004q0 153 -4 206v9zM487 1610l238 338l61 -52l-278 -305z" />
    <glyph glyph-name="uni0403" unicode="&#x453;" horiz-adv-x="983" 
d="M256 1434h666v-62h-9q-53 6 -186 6h-405v-1163q0 -154 6 -207v-8h-72v8q4 53 4 207v1004q0 153 -4 206v9zM487 1610l238 338l61 -52l-278 -305z" />
    <glyph glyph-name="uni0404" unicode="&#x404;" horiz-adv-x="1488" 
d="M1118 735q-92 51 -164 51q-46 0 -96.5 -16.5t-130.5 -54.5q-107 -49 -186 -49q-99 0 -209 82l10 18q92 -51 164 -51q76 0 227 71q110 50 187 50q98 0 208 -82zM61 725q0 156 59 296t159.5 241.5t240 161t295.5 59.5q167 0 315 -64t256 -172v-102h-24
q-49 119 -210.5 200.5t-336.5 81.5q-143 0 -271 -55t-220.5 -148.5t-146.5 -223.5t-54 -275q0 -193 91.5 -354t251 -254.5t349.5 -93.5q186 0 336.5 80t210.5 202h24v-102q-108 -108 -256 -172t-315 -64q-156 0 -295.5 59.5t-240 161t-159.5 241.5t-59 296z" />
    <glyph glyph-name="uni0404" unicode="&#x454;" horiz-adv-x="1488" 
d="M1118 735q-92 51 -164 51q-46 0 -96.5 -16.5t-130.5 -54.5q-107 -49 -186 -49q-99 0 -209 82l10 18q92 -51 164 -51q76 0 227 71q110 50 187 50q98 0 208 -82zM61 725q0 156 59 296t159.5 241.5t240 161t295.5 59.5q167 0 315 -64t256 -172v-102h-24
q-49 119 -210.5 200.5t-336.5 81.5q-143 0 -271 -55t-220.5 -148.5t-146.5 -223.5t-54 -275q0 -193 91.5 -354t251 -254.5t349.5 -93.5q186 0 336.5 80t210.5 202h24v-102q-108 -108 -256 -172t-315 -64q-156 0 -295.5 59.5t-240 161t-159.5 241.5t-59 296z" />
    <glyph glyph-name="uni0405" unicode="&#x405;" horiz-adv-x="995" 
d="M791 1425l8 -96h-19q-48 48 -110 67t-156 19q-138 0 -209.5 -56t-71.5 -149q0 -80 40 -152.5t120 -152.5l287 -291q94 -94 131 -170t37 -161q0 -102 -52.5 -173.5t-133 -103t-179.5 -31.5q-185 0 -323 101l-6 90h18q71 -71 151 -103t183 -32q119 0 199.5 66t80.5 179
q0 146 -149 295l-287 291q-178 181 -178 342q0 117 92 191.5t260 74.5q143 0 267 -45z" />
    <glyph glyph-name="uni0405" unicode="&#x455;" horiz-adv-x="995" 
d="M791 1425l8 -96h-19q-48 48 -110 67t-156 19q-138 0 -209.5 -56t-71.5 -149q0 -80 40 -152.5t120 -152.5l287 -291q94 -94 131 -170t37 -161q0 -102 -52.5 -173.5t-133 -103t-179.5 -31.5q-185 0 -323 101l-6 90h18q71 -71 151 -103t183 -32q119 0 199.5 66t80.5 179
q0 146 -149 295l-287 291q-178 181 -178 342q0 117 92 191.5t260 74.5q143 0 267 -45z" />
    <glyph glyph-name="uni0406" unicode="&#x406;" horiz-adv-x="583" 
d="M256 1434h70v-9q-4 -53 -4 -206v-1004q0 -154 4 -207v-8h-70v8q4 53 4 207v1004q0 153 -4 206v9z" />
    <glyph glyph-name="uni0406" unicode="&#x456;" horiz-adv-x="583" 
d="M256 1434h70v-9q-4 -53 -4 -206v-1004q0 -154 4 -207v-8h-70v8q4 53 4 207v1004q0 153 -4 206v9z" />
    <glyph glyph-name="uni0407" unicode="&#x407;" horiz-adv-x="583" 
d="M256 1434h70v-9q-4 -53 -4 -206v-1004q0 -154 4 -207v-8h-70v8q4 53 4 207v1004q0 153 -4 206v9zM37 1731q0 34 24 57.5t58 23.5t58 -23.5t24 -57.5t-24 -58t-58 -24t-58 24t-24 58zM385 1731q0 34 24 57.5t58 23.5t58 -23.5t24 -57.5q0 -35 -24 -58.5t-58 -23.5
t-58 23.5t-24 58.5z" />
    <glyph glyph-name="uni0407" unicode="&#x457;" horiz-adv-x="583" 
d="M256 1434h70v-9q-4 -53 -4 -206v-1004q0 -154 4 -207v-8h-70v8q4 53 4 207v1004q0 153 -4 206v9zM37 1731q0 34 24 57.5t58 23.5t58 -23.5t24 -57.5t-24 -58t-58 -24t-58 24t-24 58zM385 1731q0 34 24 57.5t58 23.5t58 -23.5t24 -57.5q0 -35 -24 -58.5t-58 -23.5
t-58 23.5t-24 58.5z" />
    <glyph glyph-name="uni0408" unicode="&#x408;" horiz-adv-x="624" 
d="M295 1434h72v-9q-5 -66 -5 -186v-991q0 -251 -112.5 -406t-343.5 -192l-8 24q94 21 164.5 60t115.5 91t73 123t39 148.5t11 175.5v967q0 133 -6 186v9z" />
    <glyph glyph-name="uni0408" unicode="&#x458;" horiz-adv-x="624" 
d="M295 1434h72v-9q-5 -66 -5 -186v-991q0 -251 -112.5 -406t-343.5 -192l-8 24q94 21 164.5 60t115.5 91t73 123t39 148.5t11 175.5v967q0 133 -6 186v9z" />
    <glyph glyph-name="uni0409" unicode="&#x409;" horiz-adv-x="1886" 
d="M362 1434h642v-9q-7 -62 -7 -206v-1164h246q268 0 404.5 108.5t136.5 303.5q0 157 -103 256.5t-264 99.5q-67 0 -141 -18l-10 39q67 26 166 26q181 0 297 -113t116 -290q0 -102 -31.5 -182.5t-85.5 -133t-130 -87.5t-159 -49.5t-179 -14.5h-330v8q6 53 6 207v1163h-508
l-203 -1190q-16 -101 -45.5 -148.5t-87.5 -47.5q-35 0 -72 16v68h9q32 -19 67 -19q29 0 46 34.5t30 107.5l174 1020q23 127 16 206v9z" />
    <glyph glyph-name="uni0409" unicode="&#x459;" horiz-adv-x="1886" 
d="M362 1434h642v-9q-7 -62 -7 -206v-1164h246q268 0 404.5 108.5t136.5 303.5q0 157 -103 256.5t-264 99.5q-67 0 -141 -18l-10 39q67 26 166 26q181 0 297 -113t116 -290q0 -102 -31.5 -182.5t-85.5 -133t-130 -87.5t-159 -49.5t-179 -14.5h-330v8q6 53 6 207v1163h-508
l-203 -1190q-16 -101 -45.5 -148.5t-87.5 -47.5q-35 0 -72 16v68h9q32 -19 67 -19q29 0 46 34.5t30 107.5l174 1020q23 127 16 206v9z" />
    <glyph glyph-name="uni040A" unicode="&#x40a;" horiz-adv-x="2060" 
d="M256 1434h72v-9q-6 -53 -6 -206v-222h788v222q0 153 -4 206v9h72v-9q-7 -62 -7 -206v-1164h246q268 0 404.5 108.5t136.5 303.5q0 157 -103 256.5t-264 99.5q-67 0 -141 -18l-10 39q67 26 166 26q181 0 297 -113t116 -290q0 -102 -31.5 -182.5t-85.5 -133t-130 -87.5
t-159 -49.5t-179 -14.5h-328v8q4 53 4 207v727h-788v-727q0 -154 6 -207v-8h-72v8q4 53 4 207v1004q0 153 -4 206v9z" />
    <glyph glyph-name="uni040A" unicode="&#x45a;" horiz-adv-x="2060" 
d="M256 1434h72v-9q-6 -53 -6 -206v-222h788v222q0 153 -4 206v9h72v-9q-7 -62 -7 -206v-1164h246q268 0 404.5 108.5t136.5 303.5q0 157 -103 256.5t-264 99.5q-67 0 -141 -18l-10 39q67 26 166 26q181 0 297 -113t116 -290q0 -102 -31.5 -182.5t-85.5 -133t-130 -87.5
t-159 -49.5t-179 -14.5h-328v8q4 53 4 207v727h-788v-727q0 -154 6 -207v-8h-72v8q4 53 4 207v1004q0 153 -4 206v9z" />
    <glyph glyph-name="uni040B" unicode="&#x40b;" horiz-adv-x="1550" 
d="M82 1434h942v-62h-8q-53 6 -187 6h-245v-702q168 205 415 205q198 0 307 -113t109 -285v-268q0 -154 4 -207v-8h-71v8q6 53 6 207v252q0 156 -95.5 257t-273.5 101q-232 0 -401 -221v-389q0 -102 4 -176l2 -31v-8h-74v8l2 31q4 74 4 176v1163h-246q-133 0 -186 -6h-8v62z
" />
    <glyph glyph-name="uni040B" unicode="&#x45b;" horiz-adv-x="1550" 
d="M82 1434h942v-62h-8q-53 6 -187 6h-245v-702q168 205 415 205q198 0 307 -113t109 -285v-268q0 -154 4 -207v-8h-71v8q6 53 6 207v252q0 156 -95.5 257t-273.5 101q-232 0 -401 -221v-389q0 -102 4 -176l2 -31v-8h-74v8l2 31q4 74 4 176v1163h-246q-133 0 -186 -6h-8v62z
" />
    <glyph glyph-name="uni040C" unicode="&#x40c;" horiz-adv-x="1288" 
d="M256 1434h72v-9q-6 -53 -6 -206v-474l501 474q97 91 139 135.5t54 70.5l4 9h117v-7q-16 -11 -31 -23t-39.5 -34.5t-39 -35.5t-57 -53t-65.5 -62l-276 -258l506 -773q70 -106 97 -141t46 -47l-4 -16q-26 -3 -48.5 6.5t-48 38t-42 51t-50.5 74.5l-499 764l-264 -246v-457
q0 -154 6 -207v-8h-72v8q4 53 4 207v1004q0 153 -4 206v9zM600 1610l238 338l61 -52l-278 -305z" />
    <glyph glyph-name="uni040C" unicode="&#x45c;" horiz-adv-x="1288" 
d="M256 1434h72v-9q-6 -53 -6 -206v-474l501 474q97 91 139 135.5t54 70.5l4 9h117v-7q-16 -11 -31 -23t-39.5 -34.5t-39 -35.5t-57 -53t-65.5 -62l-276 -258l506 -773q70 -106 97 -141t46 -47l-4 -16q-26 -3 -48.5 6.5t-48 38t-42 51t-50.5 74.5l-499 764l-264 -246v-457
q0 -154 6 -207v-8h-72v8q4 53 4 207v1004q0 153 -4 206v9zM600 1610l238 338l61 -52l-278 -305z" />
    <glyph glyph-name="uni040E" unicode="&#x40e;" horiz-adv-x="1386" 
d="M129 1434h96v-4q2 -6 4.5 -13t7.5 -16t9.5 -16.5t13 -20t13.5 -20.5t16.5 -24t18 -24.5t21 -28.5t21.5 -30l504 -698l426 698q37 61 53 87.5t31 57t18 48.5v4h91v-9q-36 -38 -125 -186l-549 -899q-131 -215 -213.5 -293t-188.5 -78q-103 0 -175 72.5t-72 175.5
q0 106 73 177t174 71q83 0 150 -47l-19 -31q-52 37 -114 37q-80 0 -141.5 -56.5t-61.5 -142.5q0 -83 59 -141.5t142 -58.5q71 0 143 70t162 216l102 170l-547 758q-14 20 -43.5 61t-40 55t-27.5 35t-32 35v9zM530 1868h62v-2q0 -93 65 -158q61 -55 146 -55q88 0 149.5 60.5
t61.5 154.5h61q-3 -119 -78 -195t-194 -76t-194.5 76t-78.5 195z" />
    <glyph glyph-name="uni040E" unicode="&#x45e;" horiz-adv-x="1386" 
d="M129 1434h96v-4q2 -6 4.5 -13t7.5 -16t9.5 -16.5t13 -20t13.5 -20.5t16.5 -24t18 -24.5t21 -28.5t21.5 -30l504 -698l426 698q37 61 53 87.5t31 57t18 48.5v4h91v-9q-36 -38 -125 -186l-549 -899q-131 -215 -213.5 -293t-188.5 -78q-103 0 -175 72.5t-72 175.5
q0 106 73 177t174 71q83 0 150 -47l-19 -31q-52 37 -114 37q-80 0 -141.5 -56.5t-61.5 -142.5q0 -83 59 -141.5t142 -58.5q71 0 143 70t162 216l102 170l-547 758q-14 20 -43.5 61t-40 55t-27.5 35t-32 35v9zM530 1868h62v-2q0 -93 65 -158q61 -55 146 -55q88 0 149.5 60.5
t61.5 154.5h61q-3 -119 -78 -195t-194 -76t-194.5 76t-78.5 195z" />
    <glyph glyph-name="uni040F" unicode="&#x40f;" horiz-adv-x="1433" 
d="M256 8q4 53 4 207v1004q0 153 -4 206v9h72v-9q-6 -53 -6 -206v-1164h790v1164q0 153 -6 206v9h72v-9q-4 -53 -4 -206v-1004q0 -154 4 -207v-8h-430v-225h-62v225h-430v8z" />
    <glyph glyph-name="uni040F" unicode="&#x45f;" horiz-adv-x="1433" 
d="M256 8q4 53 4 207v1004q0 153 -4 206v9h72v-9q-6 -53 -6 -206v-1164h790v1164q0 153 -6 206v9h72v-9q-4 -53 -4 -206v-1004q0 -154 4 -207v-8h-430v-225h-62v225h-430v8z" />
    <glyph glyph-name="uni0410" unicode="&#x410;" horiz-adv-x="1228" 
d="M610 1434h52l456 -1219q56 -151 84 -207v-8h-92v8q0 48 -59 209l-62 166h-713l-61 -166q-59 -161 -59 -209v-8h-88v8q28 56 84 207zM297 438h672l-336 901z" />
    <glyph glyph-name="uni0410" unicode="&#x430;" horiz-adv-x="1228" 
d="M610 1434h52l456 -1219q56 -151 84 -207v-8h-92v8q0 48 -59 209l-62 166h-713l-61 -166q-59 -161 -59 -209v-8h-88v8q28 56 84 207zM297 438h672l-336 901z" />
    <glyph glyph-name="uni0411" unicode="&#x411;" horiz-adv-x="1290" 
d="M256 1434h788v-62h-8q-53 6 -186 6h-528v-1323h245q268 0 404.5 108.5t136.5 303.5q0 172 -107 265t-270 93q-78 0 -133 -12l-10 35q77 26 164 26q114 0 206.5 -44t151.5 -138t59 -225q0 -102 -31.5 -182.5t-85.5 -133t-130 -87.5t-159 -49.5t-179 -14.5h-328v8
q4 53 4 207v1004q0 153 -4 206v9z" />
    <glyph glyph-name="uni0411" unicode="&#x431;" horiz-adv-x="1290" 
d="M256 1434h788v-62h-8q-53 6 -186 6h-528v-1323h245q268 0 404.5 108.5t136.5 303.5q0 172 -107 265t-270 93q-78 0 -133 -12l-10 35q77 26 164 26q114 0 206.5 -44t151.5 -138t59 -225q0 -102 -31.5 -182.5t-85.5 -133t-130 -87.5t-159 -49.5t-179 -14.5h-328v8
q4 53 4 207v1004q0 153 -4 206v9z" />
    <glyph glyph-name="uni0412" unicode="&#x412;" horiz-adv-x="1320" 
d="M530 1434q203 0 322 -80.5t119 -216.5q0 -95 -54.5 -167t-150.5 -104q218 -20 338.5 -131.5t120.5 -296.5q0 -207 -153 -322.5t-425 -115.5h-391v8q4 53 4 207v1004q0 153 -4 206v9h274zM322 55h325q249 0 382.5 99t133.5 284q0 189 -139.5 287t-407.5 106h-2v33h2
q56 10 106 30t93 51t68.5 77.5t25.5 103.5q0 121 -100.5 186.5t-278.5 65.5h-208v-1323z" />
    <glyph glyph-name="uni0412" unicode="&#x432;" horiz-adv-x="1320" 
d="M530 1434q203 0 322 -80.5t119 -216.5q0 -95 -54.5 -167t-150.5 -104q218 -20 338.5 -131.5t120.5 -296.5q0 -207 -153 -322.5t-425 -115.5h-391v8q4 53 4 207v1004q0 153 -4 206v9h274zM322 55h325q249 0 382.5 99t133.5 284q0 189 -139.5 287t-407.5 106h-2v33h2
q56 10 106 30t93 51t68.5 77.5t25.5 103.5q0 121 -100.5 186.5t-278.5 65.5h-208v-1323z" />
    <glyph glyph-name="uni0413" unicode="&#x413;" horiz-adv-x="983" 
d="M256 1434h666v-62h-9q-53 6 -186 6h-405v-1163q0 -154 6 -207v-8h-72v8q4 53 4 207v1004q0 153 -4 206v9z" />
    <glyph glyph-name="uni0413" unicode="&#x433;" horiz-adv-x="983" 
d="M256 1434h666v-62h-9q-53 6 -186 6h-405v-1163q0 -154 6 -207v-8h-72v8q4 53 4 207v1004q0 153 -4 206v9z" />
    <glyph glyph-name="uni0414" unicode="&#x414;" horiz-adv-x="1382" 
d="M668 1434h51l516 -1379h184v-317h-28q-4 46 -6 70.5t-7 55.5t-7.5 45t-10.5 32.5t-12.5 24.5t-18.5 15.5t-23 11t-30.5 4.5t-38 3h-47.5h-995h-47.5t-38 -3t-30.5 -4.5t-23 -11t-18.5 -15.5t-12.5 -24.5t-10.5 -32.5t-7.5 -45t-7 -55.5t-6 -70.5h-29v317h185zM213 55h954
l-477 1284z" />
    <glyph glyph-name="uni0414" unicode="&#x434;" horiz-adv-x="1382" 
d="M668 1434h51l516 -1379h184v-317h-28q-4 46 -6 70.5t-7 55.5t-7.5 45t-10.5 32.5t-12.5 24.5t-18.5 15.5t-23 11t-30.5 4.5t-38 3h-47.5h-995h-47.5t-38 -3t-30.5 -4.5t-23 -11t-18.5 -15.5t-12.5 -24.5t-10.5 -32.5t-7.5 -45t-7 -55.5t-6 -70.5h-29v317h185zM213 55h954
l-477 1284z" />
    <glyph glyph-name="uni0415" unicode="&#x415;" horiz-adv-x="1116" 
d="M256 1434h752v-62h-9q-53 6 -186 6h-491v-381h526v-55h-526v-887h567q133 0 186 6h8v-61h-827v8q4 53 4 207v1004q0 153 -4 206v9z" />
    <glyph glyph-name="uni0415" unicode="&#x435;" horiz-adv-x="1116" 
d="M256 1434h752v-62h-9q-53 6 -186 6h-491v-381h526v-55h-526v-887h567q133 0 186 6h8v-61h-827v8q4 53 4 207v1004q0 153 -4 206v9z" />
    <glyph glyph-name="uni0416" unicode="&#x416;" horiz-adv-x="1990" 
d="M150 1434h116l4 -9q21 -47 117 -135l578 -545v474q0 144 -7 206v9h74v-9q-6 -53 -6 -206v-474l578 545q94 86 116 135l4 9h117v-7q-49 -35 -184 -163l-324 -303l506 -773q70 -106 97 -141t46 -47l-4 -16q-21 -2 -41.5 6t-35 18.5t-37 39t-34 46t-40.5 60.5l-500 764
l-264 -246v-457q0 -154 6 -207v-8h-74v8q7 62 7 207v457l-265 246l-499 -764q-34 -52 -50.5 -74.5t-42 -51t-48 -38t-48.5 -6.5l-4 16q21 13 49.5 49.5t94.5 138.5l505 773l-323 303q-135 128 -184 163v7z" />
    <glyph glyph-name="uni0416" unicode="&#x436;" horiz-adv-x="1990" 
d="M150 1434h116l4 -9q21 -47 117 -135l578 -545v474q0 144 -7 206v9h74v-9q-6 -53 -6 -206v-474l578 545q94 86 116 135l4 9h117v-7q-49 -35 -184 -163l-324 -303l506 -773q70 -106 97 -141t46 -47l-4 -16q-21 -2 -41.5 6t-35 18.5t-37 39t-34 46t-40.5 60.5l-500 764
l-264 -246v-457q0 -154 6 -207v-8h-74v8q7 62 7 207v457l-265 246l-499 -764q-34 -52 -50.5 -74.5t-42 -51t-48 -38t-48.5 -6.5l-4 16q21 13 49.5 49.5t94.5 138.5l505 773l-323 303q-135 128 -184 163v7z" />
    <glyph glyph-name="uni0417" unicode="&#x417;" horiz-adv-x="1122" 
d="M170 1313q62 73 157.5 113t202.5 40q147 0 252 -73.5t105 -206.5q0 -89 -55.5 -166.5t-155.5 -116.5q79 -9 149.5 -41t125.5 -84t87.5 -130t32.5 -171q0 -100 -43 -191t-116.5 -158t-178 -106.5t-221.5 -39.5q-170 0 -298.5 76t-193.5 192v151h25q25 -151 157 -257.5
t310 -106.5q211 0 354.5 129t143.5 311t-129 283.5t-359 101.5q-39 0 -133 -4v49q205 0 320.5 74t115.5 205q0 70 -43 122.5t-106 77.5t-133 25q-128 0 -222.5 -56.5t-125.5 -172.5h-25v131z" />
    <glyph glyph-name="uni0417" unicode="&#x437;" horiz-adv-x="1122" 
d="M170 1313q62 73 157.5 113t202.5 40q147 0 252 -73.5t105 -206.5q0 -89 -55.5 -166.5t-155.5 -116.5q79 -9 149.5 -41t125.5 -84t87.5 -130t32.5 -171q0 -100 -43 -191t-116.5 -158t-178 -106.5t-221.5 -39.5q-170 0 -298.5 76t-193.5 192v151h25q25 -151 157 -257.5
t310 -106.5q211 0 354.5 129t143.5 311t-129 283.5t-359 101.5q-39 0 -133 -4v49q205 0 320.5 74t115.5 205q0 70 -43 122.5t-106 77.5t-133 25q-128 0 -222.5 -56.5t-125.5 -172.5h-25v131z" />
    <glyph glyph-name="uni0418" unicode="&#x418;" horiz-adv-x="1495" 
d="M256 1434h72v-9q-6 -53 -6 -206v-1069l892 1288h25q-4 -55 -4 -195v-1028q0 -154 4 -207v-8h-72v8q7 62 7 207v1069l-893 -1288h-25q4 55 4 194v1029q0 153 -4 206v9z" />
    <glyph glyph-name="uni0418" unicode="&#x438;" horiz-adv-x="1495" 
d="M256 1434h72v-9q-6 -53 -6 -206v-1069l892 1288h25q-4 -55 -4 -195v-1028q0 -154 4 -207v-8h-72v8q7 62 7 207v1069l-893 -1288h-25q4 55 4 194v1029q0 153 -4 206v9z" />
    <glyph glyph-name="uni0419" unicode="&#x419;" horiz-adv-x="1495" 
d="M256 1434h72v-9q-6 -53 -6 -206v-1069l892 1288h25q-4 -55 -4 -195v-1028q0 -154 4 -207v-8h-72v8q7 62 7 207v1069l-893 -1288h-25q4 55 4 194v1029q0 153 -4 206v9zM475 1868h62v-2q0 -93 65 -158q61 -55 146 -55q88 0 149 60.5t61 154.5h62q-3 -119 -78 -195t-194 -76
t-194.5 76t-78.5 195z" />
    <glyph glyph-name="uni0419" unicode="&#x439;" horiz-adv-x="1495" 
d="M256 1434h72v-9q-6 -53 -6 -206v-1069l892 1288h25q-4 -55 -4 -195v-1028q0 -154 4 -207v-8h-72v8q7 62 7 207v1069l-893 -1288h-25q4 55 4 194v1029q0 153 -4 206v9zM475 1868h62v-2q0 -93 65 -158q61 -55 146 -55q88 0 149 60.5t61 154.5h62q-3 -119 -78 -195t-194 -76
t-194.5 76t-78.5 195z" />
    <glyph glyph-name="uni041A" unicode="&#x41a;" horiz-adv-x="1288" 
d="M256 1434h72v-9q-6 -53 -6 -206v-474l501 474q97 91 139 135.5t54 70.5l4 9h117v-7q-16 -11 -31 -23t-39.5 -34.5t-39 -35.5t-57 -53t-65.5 -62l-276 -258l506 -773q70 -106 97 -141t46 -47l-4 -16q-26 -3 -48.5 6.5t-48 38t-42 51t-50.5 74.5l-499 764l-264 -246v-457
q0 -154 6 -207v-8h-72v8q4 53 4 207v1004q0 153 -4 206v9z" />
    <glyph glyph-name="uni041A" unicode="&#x43a;" horiz-adv-x="1288" 
d="M256 1434h72v-9q-6 -53 -6 -206v-474l501 474q97 91 139 135.5t54 70.5l4 9h117v-7q-16 -11 -31 -23t-39.5 -34.5t-39 -35.5t-57 -53t-65.5 -62l-276 -258l506 -773q70 -106 97 -141t46 -47l-4 -16q-26 -3 -48.5 6.5t-48 38t-42 51t-50.5 74.5l-499 764l-264 -246v-457
q0 -154 6 -207v-8h-72v8q4 53 4 207v1004q0 153 -4 206v9z" />
    <glyph glyph-name="uni041B" unicode="&#x41b;" horiz-adv-x="1187" 
d="M1130 0h-92v8q0 54 -55 207l-401 1118l-404 -1118q-53 -148 -53 -207v-8h-88v8q27 55 82 207l440 1219h51l439 -1219q57 -159 81 -207v-8z" />
    <glyph glyph-name="uni041B" unicode="&#x43b;" horiz-adv-x="1187" 
d="M1130 0h-92v8q0 54 -55 207l-401 1118l-404 -1118q-53 -148 -53 -207v-8h-88v8q27 55 82 207l440 1219h51l439 -1219q57 -159 81 -207v-8z" />
    <glyph glyph-name="uni041C" unicode="&#x41c;" horiz-adv-x="1720" 
d="M256 1434h41l565 -1026l561 1026h41q-4 -61 -4 -215v-1004q0 -154 4 -207v-8h-71v8q6 53 6 207v1057l-522 -955h-33l-529 957v-1059q0 -145 7 -207v-8h-66v8q4 53 4 207v1004q0 154 -4 215z" />
    <glyph glyph-name="uni041C" unicode="&#x43c;" horiz-adv-x="1720" 
d="M256 1434h41l565 -1026l561 1026h41q-4 -61 -4 -215v-1004q0 -154 4 -207v-8h-71v8q6 53 6 207v1057l-522 -955h-33l-529 957v-1059q0 -145 7 -207v-8h-66v8q4 53 4 207v1004q0 154 -4 215z" />
    <glyph glyph-name="uni041D" unicode="&#x41d;" horiz-adv-x="1433" 
d="M1106 1434h72v-9q-4 -53 -4 -206v-1004q0 -154 4 -207v-8h-72v8q6 53 6 207v727h-790v-727q0 -154 6 -207v-8h-72v8q4 53 4 207v1004q0 153 -4 206v9h72v-9q-6 -53 -6 -206v-222h790v222q0 153 -6 206v9z" />
    <glyph glyph-name="uni041D" unicode="&#x43d;" horiz-adv-x="1433" 
d="M1106 1434h72v-9q-4 -53 -4 -206v-1004q0 -154 4 -207v-8h-72v8q6 53 6 207v727h-790v-727q0 -154 6 -207v-8h-72v8q4 53 4 207v1004q0 153 -4 206v9h72v-9q-6 -53 -6 -206v-222h790v222q0 153 -6 206v9z" />
    <glyph glyph-name="uni041E" unicode="&#x41e;" horiz-adv-x="1638" 
d="M819 -33q-208 0 -382 101t-275 275t-101 382t101 382t275 275t382 101t382 -101t275 -275t101 -382t-101 -382t-275 -275t-382 -101zM123 725q0 -144 54 -274t146 -224t221 -149t273 -55q192 0 353 93.5t253.5 254.5t92.5 354t-92.5 354.5t-253 254.5t-353.5 93
q-192 0 -351.5 -93t-251 -254t-91.5 -355z" />
    <glyph glyph-name="uni041E" unicode="&#x43e;" horiz-adv-x="1638" 
d="M819 -33q-208 0 -382 101t-275 275t-101 382t101 382t275 275t382 101t382 -101t275 -275t101 -382t-101 -382t-275 -275t-382 -101zM123 725q0 -144 54 -274t146 -224t221 -149t273 -55q192 0 353 93.5t253.5 254.5t92.5 354t-92.5 354.5t-253 254.5t-353.5 93
q-192 0 -351.5 -93t-251 -254t-91.5 -355z" />
    <glyph glyph-name="uni041F" unicode="&#x41f;" horiz-adv-x="1433" 
d="M256 1434h922v-9q-4 -53 -4 -206v-1004q0 -154 4 -207v-8h-72v8q6 53 6 207v1163h-790v-1163q0 -154 6 -207v-8h-72v8q4 53 4 207v1004q0 153 -4 206v9z" />
    <glyph glyph-name="uni041F" unicode="&#x43f;" horiz-adv-x="1433" 
d="M256 1434h922v-9q-4 -53 -4 -206v-1004q0 -154 4 -207v-8h-72v8q6 53 6 207v1163h-790v-1163q0 -154 6 -207v-8h-72v8q4 53 4 207v1004q0 153 -4 206v9z" />
    <glyph glyph-name="uni0420" unicode="&#x420;" horiz-adv-x="1210" 
d="M584 1434q96 0 179 -14.5t159 -49.5t130 -87.5t85.5 -133t31.5 -182.5q0 -129 -58.5 -223.5t-151.5 -139.5t-207 -45q-83 0 -162 31l10 39q82 -21 152 -21q149 0 252.5 97t103.5 262q0 195 -136.5 303t-404.5 108h-245v-1163q0 -154 6 -207v-8h-72v8q4 53 4 207v1004
q0 153 -4 206v9h328z" />
    <glyph glyph-name="uni0420" unicode="&#x440;" horiz-adv-x="1210" 
d="M584 1434q96 0 179 -14.5t159 -49.5t130 -87.5t85.5 -133t31.5 -182.5q0 -129 -58.5 -223.5t-151.5 -139.5t-207 -45q-83 0 -162 31l10 39q82 -21 152 -21q149 0 252.5 97t103.5 262q0 195 -136.5 303t-404.5 108h-245v-1163q0 -154 6 -207v-8h-72v8q4 53 4 207v1004
q0 153 -4 206v9h328z" />
    <glyph glyph-name="uni0421" unicode="&#x421;" horiz-adv-x="1488" 
d="M1386 1247v-102h-24q-49 119 -210.5 200.5t-336.5 81.5q-143 0 -271 -55t-220.5 -148.5t-146.5 -223.5t-54 -275q0 -193 91.5 -354t251 -254.5t349.5 -93.5q186 0 336.5 80t210.5 202h24v-102q-108 -108 -256 -172t-315 -64q-156 0 -295.5 59.5t-240 161t-159.5 241.5
t-59 296t59 296t159.5 241.5t240 161t295.5 59.5q167 0 315 -64t256 -172z" />
    <glyph glyph-name="uni0421" unicode="&#x441;" horiz-adv-x="1488" 
d="M1386 1247v-102h-24q-49 119 -210.5 200.5t-336.5 81.5q-143 0 -271 -55t-220.5 -148.5t-146.5 -223.5t-54 -275q0 -193 91.5 -354t251 -254.5t349.5 -93.5q186 0 336.5 80t210.5 202h24v-102q-108 -108 -256 -172t-315 -64q-156 0 -295.5 59.5t-240 161t-159.5 241.5
t-59 296t59 296t159.5 241.5t240 161t295.5 59.5q167 0 315 -64t256 -172z" />
    <glyph glyph-name="uni0422" unicode="&#x422;" horiz-adv-x="1024" 
d="M82 1434h942v-62h-8q-53 6 -187 6h-245v-1163q0 -102 4 -176l2 -31v-8h-74v8l2 31q4 74 4 176v1163h-246q-133 0 -186 -6h-8v62z" />
    <glyph glyph-name="uni0422" unicode="&#x442;" horiz-adv-x="1024" 
d="M82 1434h942v-62h-8q-53 6 -187 6h-245v-1163q0 -102 4 -176l2 -31v-8h-74v8l2 31q4 74 4 176v1163h-246q-133 0 -186 -6h-8v62z" />
    <glyph glyph-name="uni0423" unicode="&#x423;" horiz-adv-x="1386" 
d="M129 1434h96v-4q2 -6 4.5 -13t7.5 -16t9.5 -16.5t13 -20t13.5 -20.5t16.5 -24t18 -24.5t21 -28.5t21.5 -30l504 -698l426 698q37 61 53 87.5t31 57t18 48.5v4h91v-9q-36 -38 -125 -186l-549 -899q-131 -215 -213.5 -293t-188.5 -78q-103 0 -175 72.5t-72 175.5
q0 106 73 177t174 71q83 0 150 -47l-19 -31q-52 37 -114 37q-80 0 -141.5 -56.5t-61.5 -142.5q0 -83 59 -141.5t142 -58.5q71 0 143 70t162 216l102 170l-547 758q-14 20 -43.5 61t-40 55t-27.5 35t-32 35v9z" />
    <glyph glyph-name="uni0423" unicode="&#x443;" horiz-adv-x="1386" 
d="M129 1434h96v-4q2 -6 4.5 -13t7.5 -16t9.5 -16.5t13 -20t13.5 -20.5t16.5 -24t18 -24.5t21 -28.5t21.5 -30l504 -698l426 698q37 61 53 87.5t31 57t18 48.5v4h91v-9q-36 -38 -125 -186l-549 -899q-131 -215 -213.5 -293t-188.5 -78q-103 0 -175 72.5t-72 175.5
q0 106 73 177t174 71q83 0 150 -47l-19 -31q-52 37 -114 37q-80 0 -141.5 -56.5t-61.5 -142.5q0 -83 59 -141.5t142 -58.5q71 0 143 70t162 216l102 170l-547 758q-14 20 -43.5 61t-40 55t-27.5 35t-32 35v9z" />
    <glyph glyph-name="uni0424" unicode="&#x424;" horiz-adv-x="1773" 
d="M852 1565h70v-9q-4 -41 -4 -122q243 -2 431 -86t291 -232.5t103 -337.5t-103 -337t-291 -232t-431 -86q0 -37 4 -115v-8h-70v8q4 78 4 115q-243 2 -431 86t-291 232t-103 337t103 337.5t291 232.5t431 86q0 81 -4 122v9zM92 778q0 -263 211 -430t553 -170v17v1175v8
q-342 -3 -553 -170t-211 -430zM918 178q342 3 552.5 170t210.5 430t-210.5 430t-552.5 170v-8v-1175v-17z" />
    <glyph glyph-name="uni0424" unicode="&#x444;" horiz-adv-x="1773" 
d="M852 1565h70v-9q-4 -41 -4 -122q243 -2 431 -86t291 -232.5t103 -337.5t-103 -337t-291 -232t-431 -86q0 -37 4 -115v-8h-70v8q4 78 4 115q-243 2 -431 86t-291 232t-103 337t103 337.5t291 232.5t431 86q0 81 -4 122v9zM92 778q0 -263 211 -430t553 -170v17v1175v8
q-342 -3 -553 -170t-211 -430zM918 178q342 3 552.5 170t210.5 430t-210.5 430t-552.5 170v-8v-1175v-17z" />
    <glyph glyph-name="uni0425" unicode="&#x425;" horiz-adv-x="1316" 
d="M143 1434h99l2 -9q6 -20 23 -45.5t83 -115.5l332 -451l334 453q16 23 29.5 41.5t22.5 31.5t16 25l10.5 18t7 14.5t4.5 10.5t3.5 9.5t2.5 8.5l2 9h98v-9q-42 -42 -165 -208l-330 -449l407 -551q121 -164 166 -209v-8h-98l-2 8q-6 19 -22.5 44.5t-82.5 115.5l-413 557
l-408 -557q-16 -23 -29.5 -41.5t-22.5 -31.5t-16 -25t-10.5 -18.5t-7 -14.5t-4.5 -10.5t-3 -9.5t-3 -9l-2 -8h-98v8q43 43 163 209l408 555l-330 445q-118 160 -166 208v9z" />
    <glyph glyph-name="uni0425" unicode="&#x445;" horiz-adv-x="1316" 
d="M143 1434h99l2 -9q6 -20 23 -45.5t83 -115.5l332 -451l334 453q16 23 29.5 41.5t22.5 31.5t16 25l10.5 18t7 14.5t4.5 10.5t3.5 9.5t2.5 8.5l2 9h98v-9q-42 -42 -165 -208l-330 -449l407 -551q121 -164 166 -209v-8h-98l-2 8q-6 19 -22.5 44.5t-82.5 115.5l-413 557
l-408 -557q-16 -23 -29.5 -41.5t-22.5 -31.5t-16 -25t-10.5 -18.5t-7 -14.5t-4.5 -10.5t-3 -9.5t-3 -9l-2 -8h-98v8q43 43 163 209l408 555l-330 445q-118 160 -166 208v9z" />
    <glyph glyph-name="uni0426" unicode="&#x426;" horiz-adv-x="1433" 
d="M256 1434h72v-9q-6 -53 -6 -206v-1164h788v1164q0 153 -6 206v9h72v-9q-5 -66 -5 -206v-1164h129v-317h-28q-4 46 -6 70.5t-7 55.5t-7.5 45t-10.5 32.5t-12.5 24.5t-18.5 15.5t-23 11t-30.5 4.5t-38 3h-47.5h-815v8q4 53 4 207v1004q0 153 -4 206v9z" />
    <glyph glyph-name="uni0426" unicode="&#x446;" horiz-adv-x="1433" 
d="M256 1434h72v-9q-6 -53 -6 -206v-1164h788v1164q0 153 -6 206v9h72v-9q-5 -66 -5 -206v-1164h129v-317h-28q-4 46 -6 70.5t-7 55.5t-7.5 45t-10.5 32.5t-12.5 24.5t-18.5 15.5t-23 11t-30.5 4.5t-38 3h-47.5h-815v8q4 53 4 207v1004q0 153 -4 206v9z" />
    <glyph glyph-name="uni0427" unicode="&#x427;" horiz-adv-x="1331" 
d="M174 1434h72v-9q-6 -53 -6 -206v-211q0 -156 95 -257.5t273 -101.5q233 0 402 221v349q0 153 -6 206v9h71v-9q-4 -53 -4 -206v-1004q0 -154 4 -207v-8h-71v8q6 53 6 207v584q-168 -205 -416 -205q-198 0 -307 112.5t-109 284.5v228q0 153 -4 206v9z" />
    <glyph glyph-name="uni0427" unicode="&#x447;" horiz-adv-x="1331" 
d="M174 1434h72v-9q-6 -53 -6 -206v-211q0 -156 95 -257.5t273 -101.5q233 0 402 221v349q0 153 -6 206v9h71v-9q-4 -53 -4 -206v-1004q0 -154 4 -207v-8h-71v8q6 53 6 207v584q-168 -205 -416 -205q-198 0 -307 112.5t-109 284.5v228q0 153 -4 206v9z" />
    <glyph glyph-name="uni0428" unicode="&#x428;" horiz-adv-x="1849" 
d="M256 1434h72v-9q-6 -53 -6 -206v-1164h575v1164q0 153 -4 206v9h70v-9q-5 -66 -5 -206v-1164h570v1164q0 153 -6 206v9h71v-9q-4 -53 -4 -206v-1004q0 -154 4 -207v-8h-1337v8q4 53 4 207v1004q0 153 -4 206v9z" />
    <glyph glyph-name="uni0428" unicode="&#x448;" horiz-adv-x="1849" 
d="M256 1434h72v-9q-6 -53 -6 -206v-1164h575v1164q0 153 -4 206v9h70v-9q-5 -66 -5 -206v-1164h570v1164q0 153 -6 206v9h71v-9q-4 -53 -4 -206v-1004q0 -154 4 -207v-8h-1337v8q4 53 4 207v1004q0 153 -4 206v9z" />
    <glyph glyph-name="uni0429" unicode="&#x429;" horiz-adv-x="1849" 
d="M256 1434h72v-9q-6 -53 -6 -206v-1164h573v1164q0 153 -4 206v9h70v-9q-5 -66 -5 -206v-1164h572v1164q0 153 -6 206v9h71v-9q-4 -53 -4 -206v-1164h129v-317h-28q-4 46 -6 70.5t-7 55.5t-7.5 45t-10.5 32.5t-12.5 24.5t-18.5 15.5t-23 11t-30.5 4.5t-38 3h-47.5h-1233v8
q4 53 4 207v1004q0 153 -4 206v9z" />
    <glyph glyph-name="uni0429" unicode="&#x449;" horiz-adv-x="1849" 
d="M256 1434h72v-9q-6 -53 -6 -206v-1164h573v1164q0 153 -4 206v9h70v-9q-5 -66 -5 -206v-1164h572v1164q0 153 -6 206v9h71v-9q-4 -53 -4 -206v-1164h129v-317h-28q-4 46 -6 70.5t-7 55.5t-7.5 45t-10.5 32.5t-12.5 24.5t-18.5 15.5t-23 11t-30.5 4.5t-38 3h-47.5h-1233v8
q4 53 4 207v1004q0 153 -4 206v9z" />
    <glyph glyph-name="uni042A" unicode="&#x42a;" horiz-adv-x="1361" 
d="M-51 1434h532v-9q-6 -53 -6 -186v-1184h244q268 0 404.5 108.5t136.5 303.5q0 157 -103 256.5t-264 99.5q-67 0 -141 -18l-11 39q67 26 166 26q182 0 298 -113t116 -290q0 -102 -32 -182.5t-85.5 -133t-129.5 -87.5t-159.5 -49.5t-179.5 -14.5h-325v8q4 53 4 187v1183
h-271q-133 0 -186 -6h-8v62z" />
    <glyph glyph-name="uni042A" unicode="&#x44a;" horiz-adv-x="1361" 
d="M-51 1434h532v-9q-6 -53 -6 -186v-1184h244q268 0 404.5 108.5t136.5 303.5q0 157 -103 256.5t-264 99.5q-67 0 -141 -18l-11 39q67 26 166 26q182 0 298 -113t116 -290q0 -102 -32 -182.5t-85.5 -133t-129.5 -87.5t-159.5 -49.5t-179.5 -14.5h-325v8q4 53 4 187v1183
h-271q-133 0 -186 -6h-8v62z" />
    <glyph glyph-name="uni042B" unicode="&#x42b;" horiz-adv-x="1835" 
d="M1507 1434h70v-9q-4 -53 -4 -186v-1044q0 -134 4 -187v-8h-70v8q4 53 4 187v1044q0 133 -4 186v9zM256 0v8q4 53 4 187v1044q0 133 -4 186v9h72v-9q-6 -53 -6 -186v-1184h245q268 0 404.5 108.5t136.5 303.5q0 157 -103 256.5t-264 99.5q-67 0 -141 -18l-10 39
q67 26 166 26q181 0 297 -113t116 -290q0 -102 -31.5 -182.5t-85.5 -133t-130 -87.5t-159 -49.5t-179 -14.5h-328z" />
    <glyph glyph-name="uni042B" unicode="&#x44b;" horiz-adv-x="1835" 
d="M1507 1434h70v-9q-4 -53 -4 -186v-1044q0 -134 4 -187v-8h-70v8q4 53 4 187v1044q0 133 -4 186v9zM256 0v8q4 53 4 187v1044q0 133 -4 186v9h72v-9q-6 -53 -6 -186v-1184h245q268 0 404.5 108.5t136.5 303.5q0 157 -103 256.5t-264 99.5q-67 0 -141 -18l-10 39
q67 26 166 26q181 0 297 -113t116 -290q0 -102 -31.5 -182.5t-85.5 -133t-130 -87.5t-159 -49.5t-179 -14.5h-328z" />
    <glyph glyph-name="uni042C" unicode="&#x42c;" horiz-adv-x="1210" 
d="M256 1434h72v-9q-6 -53 -6 -206v-1164h245q268 0 404.5 108.5t136.5 303.5q0 157 -103 256.5t-264 99.5q-67 0 -141 -18l-10 39q67 26 166 26q181 0 297 -113t116 -290q0 -102 -31.5 -182.5t-85.5 -133t-130 -87.5t-159 -49.5t-179 -14.5h-328v8q4 53 4 207v1004
q0 153 -4 206v9z" />
    <glyph glyph-name="uni042C" unicode="&#x44c;" horiz-adv-x="1210" 
d="M256 1434h72v-9q-6 -53 -6 -206v-1164h245q268 0 404.5 108.5t136.5 303.5q0 157 -103 256.5t-264 99.5q-67 0 -141 -18l-10 39q67 26 166 26q181 0 297 -113t116 -290q0 -102 -31.5 -182.5t-85.5 -133t-130 -87.5t-159 -49.5t-179 -14.5h-328v8q4 53 4 207v1004
q0 153 -4 206v9z" />
    <glyph glyph-name="uni042D" unicode="&#x42d;" horiz-adv-x="1488" 
d="M360 754q110 82 209 82q77 0 187 -50q151 -71 227 -71q72 0 164 51l10 -18q-110 -82 -209 -82q-79 0 -186 49q-80 38 -130.5 54.5t-96.5 16.5q-72 0 -164 -51zM102 203v102h25q49 -119 210.5 -200.5t336.5 -81.5q143 0 271 55t220.5 148.5t146.5 223.5t54 275
q0 193 -91.5 354t-251 254.5t-349.5 93.5q-186 0 -336.5 -80t-210.5 -202h-25v102q108 108 256.5 172t315.5 64q208 0 381 -101t272.5 -275t99.5 -382t-99.5 -382t-272.5 -275t-381 -101q-167 0 -315.5 64t-256.5 172z" />
    <glyph glyph-name="uni042D" unicode="&#x44d;" horiz-adv-x="1488" 
d="M360 754q110 82 209 82q77 0 187 -50q151 -71 227 -71q72 0 164 51l10 -18q-110 -82 -209 -82q-79 0 -186 49q-80 38 -130.5 54.5t-96.5 16.5q-72 0 -164 -51zM102 203v102h25q49 -119 210.5 -200.5t336.5 -81.5q143 0 271 55t220.5 148.5t146.5 223.5t54 275
q0 193 -91.5 354t-251 254.5t-349.5 93.5q-186 0 -336.5 -80t-210.5 -202h-25v102q108 108 256.5 172t315.5 64q208 0 381 -101t272.5 -275t99.5 -382t-99.5 -382t-272.5 -275t-381 -101q-167 0 -315.5 64t-256.5 172z" />
    <glyph glyph-name="uni042E" unicode="&#x42e;" horiz-adv-x="2230" 
d="M1411 -33q-208 0 -382 101t-275 275t-101 382v4h-331v-514q0 -154 4 -207v-8h-70v8q4 53 4 207v1004q0 153 -4 206v9h70v-9q-4 -53 -4 -206v-435h333q15 194 118.5 354t272 252.5t365.5 92.5q208 0 382 -101t275 -275t101 -382t-101 -382t-275 -275t-382 -101zM715 725
q0 -144 54 -274t146 -224t221 -149t273 -55t273.5 55t222.5 149t147.5 224t54.5 274q0 194 -92.5 355t-253 254t-352.5 93t-351.5 -93t-251 -254t-91.5 -355z" />
    <glyph glyph-name="uni042E" unicode="&#x44e;" horiz-adv-x="2230" 
d="M1411 -33q-208 0 -382 101t-275 275t-101 382v4h-331v-514q0 -154 4 -207v-8h-70v8q4 53 4 207v1004q0 153 -4 206v9h70v-9q-4 -53 -4 -206v-435h333q15 194 118.5 354t272 252.5t365.5 92.5q208 0 382 -101t275 -275t101 -382t-101 -382t-275 -275t-382 -101zM715 725
q0 -144 54 -274t146 -224t221 -149t273 -55t273.5 55t222.5 149t147.5 224t54.5 274q0 194 -92.5 355t-253 254t-352.5 93t-351.5 -93t-251 -254t-91.5 -355z" />
    <glyph glyph-name="uni042F" unicode="&#x42f;" horiz-adv-x="1370" 
d="M92 0q21 13 49.5 47t100.5 137l424 598q-245 0 -374.5 81t-129.5 243q0 155 140.5 241.5t395.5 86.5h416v-9q-4 -53 -4 -206v-1004q0 -154 4 -207v-8h-72v8q7 62 7 207v1163h-334q-232 0 -362 -73t-130 -203q0 -133 106.5 -199t325.5 -69h86l15 -29l-465 -658
q-27 -39 -41.5 -58t-37 -45t-38.5 -37t-36.5 -18.5t-41.5 -4.5z" />
    <glyph glyph-name="uni042F" unicode="&#x44f;" horiz-adv-x="1370" 
d="M92 0q21 13 49.5 47t100.5 137l424 598q-245 0 -374.5 81t-129.5 243q0 155 140.5 241.5t395.5 86.5h416v-9q-4 -53 -4 -206v-1004q0 -154 4 -207v-8h-72v8q7 62 7 207v1163h-334q-232 0 -362 -73t-130 -203q0 -133 106.5 -199t325.5 -69h86l15 -29l-465 -658
q-27 -39 -41.5 -58t-37 -45t-38.5 -37t-36.5 -18.5t-41.5 -4.5z" />
    <glyph glyph-name="uni0462" unicode="&#x462;" horiz-adv-x="1251" 
d="M0 1268h260v155q0 154 -4 207v8h72v-8q-6 -53 -6 -207v-155h743v-56h-743v-1157h245q268 0 404.5 108.5t136.5 303.5q0 173 -110 264.5t-287 91.5q-64 0 -113 -10l-10 35q79 26 164 26q114 0 206.5 -44t151.5 -138t59 -225q0 -102 -31.5 -182.5t-85.5 -133t-130 -87.5
t-159 -49.5t-179 -14.5h-328v8q4 53 4 207v997h-260v56z" />
    <glyph glyph-name="uni0462" unicode="&#x463;" horiz-adv-x="1251" 
d="M0 1268h260v155q0 154 -4 207v8h72v-8q-6 -53 -6 -207v-155h743v-56h-743v-1157h245q268 0 404.5 108.5t136.5 303.5q0 173 -110 264.5t-287 91.5q-64 0 -113 -10l-10 35q79 26 164 26q114 0 206.5 -44t151.5 -138t59 -225q0 -102 -31.5 -182.5t-85.5 -133t-130 -87.5
t-159 -49.5t-179 -14.5h-328v8q4 53 4 207v997h-260v56z" />
    <glyph glyph-name="uni046A" unicode="&#x46a;" horiz-adv-x="1992" 
d="M154 1434h1687v-7q-49 -35 -184 -163l-361 -336l516 -733q73 -104 101 -138.5t49 -46.5l-4 -16q-21 -3 -41.5 4.5t-36 18t-38.5 37.5t-36.5 45t-42.5 59l-512 729l-223 -207v-465q0 -154 6 -207v-8h-73v8q6 53 6 207v465l-226 207l-512 -729q-30 -43 -42.5 -59.5
t-36 -44.5t-38.5 -38t-35.5 -17.5t-41.5 -4.5l-4 16q21 12 48 46t101 139l516 733l-358 336q-135 128 -184 163v7zM301 1374l696 -655l697 655q4 4 0 4h-1393q-4 0 0 -4z" />
    <glyph glyph-name="uni046A" unicode="&#x46b;" horiz-adv-x="1992" 
d="M154 1434h1687v-7q-49 -35 -184 -163l-361 -336l516 -733q73 -104 101 -138.5t49 -46.5l-4 -16q-21 -3 -41.5 4.5t-36 18t-38.5 37.5t-36.5 45t-42.5 59l-512 729l-223 -207v-465q0 -154 6 -207v-8h-73v8q6 53 6 207v465l-226 207l-512 -729q-30 -43 -42.5 -59.5
t-36 -44.5t-38.5 -38t-35.5 -17.5t-41.5 -4.5l-4 16q21 12 48 46t101 139l516 733l-358 336q-135 128 -184 163v7zM301 1374l696 -655l697 655q4 4 0 4h-1393q-4 0 0 -4z" />
    <glyph glyph-name="uni0490" unicode="&#x490;" horiz-adv-x="983" 
d="M692 1434h47.5t38 3t30.5 4.5t23 11t18.5 15.5t12.5 24.5t10.5 32.5t7.5 45t7 55.5t6 70.5h29v-318h-600v-1163q0 -154 6 -207v-8h-72v8q4 53 4 207v1024q0 133 -4 186v9h436z" />
    <glyph glyph-name="uni0490" unicode="&#x491;" horiz-adv-x="983" 
d="M692 1434h47.5t38 3t30.5 4.5t23 11t18.5 15.5t12.5 24.5t10.5 32.5t7.5 45t7 55.5t6 70.5h29v-318h-600v-1163q0 -154 6 -207v-8h-72v8q4 53 4 207v1024q0 133 -4 186v9h436z" />
    <glyph glyph-name="uni1E20" unicode="&#x1e20;" horiz-adv-x="1550" 
d="M1386 1247v-102h-24q-49 119 -210.5 200.5t-336.5 81.5q-143 0 -271 -55t-220.5 -148.5t-146.5 -223.5t-54 -275q0 -193 91.5 -354t251 -254.5t349.5 -93.5q149 0 280.5 60t229.5 167v291q0 88 -2.5 119t-13.5 67v8h82v-8q-5 -66 -5 -186v-322q-107 -117 -256 -184.5
t-315 -67.5q-156 0 -295.5 59.5t-240 161t-159.5 241.5t-59 296t59 296t159.5 241.5t240 161t295.5 59.5q167 0 315 -64t256 -172zM438 1679v56h779v-56h-779z" />
    <glyph glyph-name="uni1E20" unicode="&#x1e21;" horiz-adv-x="1550" 
d="M1386 1247v-102h-24q-49 119 -210.5 200.5t-336.5 81.5q-143 0 -271 -55t-220.5 -148.5t-146.5 -223.5t-54 -275q0 -193 91.5 -354t251 -254.5t349.5 -93.5q149 0 280.5 60t229.5 167v291q0 88 -2.5 119t-13.5 67v8h82v-8q-5 -66 -5 -186v-322q-107 -117 -256 -184.5
t-315 -67.5q-156 0 -295.5 59.5t-240 161t-159.5 241.5t-59 296t59 296t159.5 241.5t240 161t295.5 59.5q167 0 315 -64t256 -172zM438 1679v56h779v-56h-779z" />
    <glyph glyph-name="Wgrave" unicode="&#x1e80;" horiz-adv-x="2045" 
d="M27 1434h88v-15q0 -44 51 -200l383 -1135l455 1350h51l442 -1352l387 1135q45 133 45 202v15h92v-9q-4 -12 -15.5 -41t-27.5 -71.5t-34 -95.5l-416 -1217h-68l-434 1327l-448 -1327h-66l-412 1219q-46 140 -73 206v9zM858 1878l62 51l237 -338l-20 -18z" />
    <glyph glyph-name="Wgrave" unicode="&#x1e81;" horiz-adv-x="2045" 
d="M27 1434h88v-15q0 -44 51 -200l383 -1135l455 1350h51l442 -1352l387 1135q45 133 45 202v15h92v-9q-4 -12 -15.5 -41t-27.5 -71.5t-34 -95.5l-416 -1217h-68l-434 1327l-448 -1327h-66l-412 1219q-46 140 -73 206v9zM858 1878l62 51l237 -338l-20 -18z" />
    <glyph glyph-name="Wacute" unicode="&#x1e82;" horiz-adv-x="2045" 
d="M27 1434h88v-15q0 -44 51 -200l383 -1135l455 1350h51l442 -1352l387 1135q45 133 45 202v15h92v-9q-4 -12 -15.5 -41t-27.5 -71.5t-34 -95.5l-416 -1217h-68l-434 1327l-448 -1327h-66l-412 1219q-46 140 -73 206v9zM920 1610l237 338l62 -52l-279 -305z" />
    <glyph glyph-name="Wacute" unicode="&#x1e83;" horiz-adv-x="2045" 
d="M27 1434h88v-15q0 -44 51 -200l383 -1135l455 1350h51l442 -1352l387 1135q45 133 45 202v15h92v-9q-4 -12 -15.5 -41t-27.5 -71.5t-34 -95.5l-416 -1217h-68l-434 1327l-448 -1327h-66l-412 1219q-46 140 -73 206v9zM920 1610l237 338l62 -52l-279 -305z" />
    <glyph glyph-name="Wdieresis" unicode="&#x1e84;" horiz-adv-x="2045" 
d="M27 1434h88v-15q0 -44 51 -200l383 -1135l455 1350h51l442 -1352l387 1135q45 133 45 202v15h92v-9q-4 -12 -15.5 -41t-27.5 -71.5t-34 -95.5l-416 -1217h-68l-434 1327l-448 -1327h-66l-412 1219q-46 140 -73 206v9zM791 1731q0 34 23.5 57.5t57.5 23.5t58 -23.5
t24 -57.5t-24 -58t-58 -24t-57.5 24t-23.5 58zM1139 1731q0 34 24 57.5t58 23.5t58 -23.5t24 -57.5q0 -35 -24 -58.5t-58 -23.5t-58 23.5t-24 58.5z" />
    <glyph glyph-name="Wdieresis" unicode="&#x1e85;" horiz-adv-x="2045" 
d="M27 1434h88v-15q0 -44 51 -200l383 -1135l455 1350h51l442 -1352l387 1135q45 133 45 202v15h92v-9q-4 -12 -15.5 -41t-27.5 -71.5t-34 -95.5l-416 -1217h-68l-434 1327l-448 -1327h-66l-412 1219q-46 140 -73 206v9zM791 1731q0 34 23.5 57.5t57.5 23.5t58 -23.5
t24 -57.5t-24 -58t-58 -24t-57.5 24t-23.5 58zM1139 1731q0 34 24 57.5t58 23.5t58 -23.5t24 -57.5q0 -35 -24 -58.5t-58 -23.5t-58 23.5t-24 58.5z" />
    <glyph glyph-name="uni1EBC" unicode="&#x1ebc;" horiz-adv-x="1116" 
d="M256 1434h752v-62h-9q-53 6 -186 6h-491v-381h526v-55h-526v-887h567q133 0 186 6h8v-61h-827v8q4 53 4 207v1004q0 153 -4 206v9zM264 1688q64 112 174 112q68 0 199 -55q134 -57 197 -57q67 0 131 67l18 -14q-42 -61 -83 -87t-91 -26q-72 0 -199 55q-135 58 -196 58
q-80 0 -131 -68z" />
    <glyph glyph-name="uni1EBC" unicode="&#x1ebd;" horiz-adv-x="1116" 
d="M256 1434h752v-62h-9q-53 6 -186 6h-491v-381h526v-55h-526v-887h567q133 0 186 6h8v-61h-827v8q4 53 4 207v1004q0 153 -4 206v9zM264 1688q64 112 174 112q68 0 199 -55q134 -57 197 -57q67 0 131 67l18 -14q-42 -61 -83 -87t-91 -26q-72 0 -199 55q-135 58 -196 58
q-80 0 -131 -68z" />
    <glyph glyph-name="Ygrave" unicode="&#x1ef2;" horiz-adv-x="1267" 
d="M184 1217q-109 156 -161 208v9h98l2 -9q6 -16 19.5 -36.5t84.5 -122.5l410 -582l412 582q43 61 64 93t25 41t9 25l2 9h96v-9q-54 -54 -162 -208l-419 -590v-432q0 -134 4 -187v-8h-70v8q4 53 4 187v432zM479 1878l62 51l237 -338l-20 -18z" />
    <glyph glyph-name="Ygrave" unicode="&#x1ef3;" horiz-adv-x="1267" 
d="M184 1217q-109 156 -161 208v9h98l2 -9q6 -16 19.5 -36.5t84.5 -122.5l410 -582l412 582q43 61 64 93t25 41t9 25l2 9h96v-9q-54 -54 -162 -208l-419 -590v-432q0 -134 4 -187v-8h-70v8q4 53 4 187v432zM479 1878l62 51l237 -338l-20 -18z" />
    <glyph glyph-name="uni1EF8" unicode="&#x1ef8;" horiz-adv-x="1267" 
d="M184 1217q-109 156 -161 208v9h98l2 -9q6 -16 19.5 -36.5t84.5 -122.5l410 -582l412 582q43 61 64 93t25 41t9 25l2 9h96v-9q-54 -54 -162 -208l-419 -590v-432q0 -134 4 -187v-8h-70v8q4 53 4 187v432zM307 1688q64 112 174 112q68 0 199 -55q134 -57 197 -57
q67 0 131 67l18 -14q-42 -61 -83 -87t-91 -26q-72 0 -199 55q-135 58 -196 58q-80 0 -131 -68z" />
    <glyph glyph-name="uni1EF8" unicode="&#x1ef9;" horiz-adv-x="1267" 
d="M184 1217q-109 156 -161 208v9h98l2 -9q6 -16 19.5 -36.5t84.5 -122.5l410 -582l412 582q43 61 64 93t25 41t9 25l2 9h96v-9q-54 -54 -162 -208l-419 -590v-432q0 -134 4 -187v-8h-70v8q4 53 4 187v432zM307 1688q64 112 174 112q68 0 199 -55q134 -57 197 -57
q67 0 131 67l18 -14q-42 -61 -83 -87t-91 -26q-72 0 -199 55q-135 58 -196 58q-80 0 -131 -68z" />
    <glyph glyph-name="uni2002" unicode="&#x2002;" horiz-adv-x="614" 
 />
    <glyph glyph-name="uni200A" unicode="&#x200a;" horiz-adv-x="286" 
 />
    <glyph glyph-name="endash" unicode="&#x2013;" horiz-adv-x="1167" 
d="M51 745h1065v-55h-1065v55z" />
    <glyph glyph-name="emdash" unicode="&#x2014;" horiz-adv-x="1536" 
d="M92 745h1352v-55h-1352v55z" />
    <glyph glyph-name="quoteleft" unicode="&#x2018;" horiz-adv-x="573" 
d="M375 1421q-100 -123 -91 -161q2 -9 11 -11q28 -3 52 -24t24 -54q0 -35 -24.5 -60.5t-59.5 -25.5q-38 0 -61 27.5t-23 71.5q0 104 139 258z" />
    <glyph glyph-name="quoteright" unicode="&#x2019;" horiz-adv-x="573" 
d="M199 1133q100 123 91 161q-2 9 -11 11q-29 3 -52.5 24t-23.5 53q0 35 24.5 60.5t59.5 25.5q38 0 61 -27t23 -71q0 -103 -140 -258z" />
    <glyph glyph-name="bullet" unicode="&#x2022;" horiz-adv-x="798" 
d="M399 612q-52 0 -87.5 36t-35.5 89q0 51 35.5 87t87.5 36t87.5 -36t35.5 -87q0 -53 -35.5 -89t-87.5 -36z" />
    <glyph glyph-name="Euro" unicode="&#x20ac;" horiz-adv-x="1611" 
d="M1509 1247v-102h-24q-49 119 -210.5 200.5t-336.5 81.5q-244 0 -430 -149t-242 -381h881v-55h-893q-8 -78 -8 -117q0 -66 8 -115h893v-55h-881q56 -233 241.5 -382.5t430.5 -149.5q186 0 336.5 80t210.5 202h24v-102q-108 -108 -256 -172t-315 -64q-269 0 -473 166
t-262 422h-142v55h132q-9 55 -9 115q0 59 9 117h-132v55h142q58 256 262 421t473 165q167 0 315 -64t256 -172z" />
    <glyph glyph-name="uni20B4" unicode="&#x20b4;" horiz-adv-x="1009" 
d="M225 1425q124 45 267 45q168 0 260 -74.5t92 -191.5q0 -150 -156 -317l246 -19v-55l-295 23l-195 -199l490 -35v-55l-541 39l-14 -15q-150 -150 -150 -295q0 -113 81 -179t200 -66q103 0 183 32t151 103h18l-6 -90q-65 -48 -150 -74.5t-174 -26.5q-73 0 -137.5 18.5
t-115.5 55t-81 97t-30 137.5q0 80 32.5 152t112.5 157l-219 16v56l271 -21l194 197l-465 34v56l516 -37l13 12q79 80 119 153t40 152q0 93 -71 149t-209 56q-94 0 -156 -19t-110 -67h-19z" />
    <glyph glyph-name="uni20BD" unicode="&#x20bd;" horiz-adv-x="1343" 
d="M584 1434q96 0 179 -13t159 -44.5t130 -78.5t85.5 -119.5t31.5 -164.5q0 -88 -33.5 -159t-91.5 -115.5t-132.5 -68.5t-159.5 -24q-86 0 -162 27l10 35q89 -19 152 -19q149 0 252.5 87.5t103.5 236.5q0 176 -137.5 275t-403.5 89h-245v-889h655v-55h-655v-219
q0 -154 6 -207v-8h-72v8q4 53 4 207v219h-164v55h164v730q0 153 -4 206v9h328z" />
    <glyph glyph-name="uni2116" unicode="&#x2116;" horiz-adv-x="2140" 
d="M256 1438h51l832 -1315v1096q0 153 -6 206v9h65v-9q-4 -53 -4 -206v-1029q0 -139 4 -194h-51l-832 1313v-1094q0 -145 7 -207v-8h-66v8q4 53 4 207v1028q0 140 -4 195zM1389 1176q0 126 87.5 208t225.5 82t226.5 -82t88.5 -208q0 -136 -88 -221t-227 -85
q-138 0 -225.5 85t-87.5 221zM1397 692v56h612v-56h-612zM1444 1174q0 -110 72.5 -179t185.5 -69t186.5 69t73.5 179q0 103 -73.5 170t-186.5 67q-112 0 -185 -67t-73 -170z" />
    <glyph glyph-name="minus" unicode="&#x2212;" horiz-adv-x="942" 
d="M51 745h840v-55h-840v55z" />
    <glyph glyph-name="uni004A0301" horiz-adv-x="624" 
d="M295 1434h72v-9q-5 -66 -5 -186v-991q0 -251 -112.5 -406t-343.5 -192l-8 24q94 21 164.5 60t115.5 91t73 123t39 148.5t11 175.5v967q0 133 -6 186v9zM279 1610l237 338l62 -52l-279 -305z" />
    <glyph glyph-name="B.salt" horiz-adv-x="1304" 
d="M256 8q4 53 4 207v758q0 101 24 185t64 140t93.5 94.5t111 56t117.5 17.5q123 0 212 -67t89 -174q0 -47 -20 -90.5t-53.5 -76t-67.5 -56t-72 -41.5q131 -8 240.5 -68.5t175 -165t65.5 -231.5q0 -218 -151.5 -357t-389.5 -139h-442v8zM322 55h364q216 0 354 125t138 320
q0 186 -156 305t-401 121h-7v32q132 33 213.5 102.5t81.5 156.5q0 88 -69.5 141t-167.5 53q-64 0 -124 -24.5t-112 -73.5t-83 -134t-31 -194v-930z" />
    <glyph glyph-name="P.salt" horiz-adv-x="1255" 
d="M322 215q0 -154 6 -207v-8h-72v8q4 53 4 207v809q0 122 55.5 222.5t154.5 159t220 58.5q190 0 312 -119t122 -305q0 -79 -22.5 -144.5t-60 -110t-89 -75.5t-108.5 -45t-119 -14q-61 0 -111 11v38q36 -8 80 -8q166 0 267.5 91.5t101.5 240.5q0 169 -104 277t-265 108
q-158 0 -265 -107.5t-107 -261.5v-825z" />
    <glyph glyph-name="A_E.dlig" horiz-adv-x="1751" 
d="M877 1434h765v-66h-8q-53 10 -186 10h-492v-381h527v-55h-527v-887h568q133 0 186 6h8v-61h-827v8q4 53 4 207v168h-533l-98 -182q-24 -44 -41 -78t-25.5 -54.5t-12.5 -31.5t-7 -20l-2 -9v-8h-88v8q20 24 109 187zM393 438h502v922z" />
    <glyph glyph-name="D_O.dlig" horiz-adv-x="2211" 
d="M766 1434q139 0 270 -39q161 88 357 88q208 0 382 -101t274.5 -275t100.5 -382t-100.5 -382t-274.5 -275t-382 -101q-181 0 -344 80q-130 -47 -283 -47h-510v8q4 53 4 207v1004q0 153 -4 206v9h510zM322 55h415q122 0 244 33q-159 101 -252.5 270t-93.5 367
q0 194 88.5 359t241.5 268q-117 26 -226 26h-417v-1323zM696 725q0 -197 95.5 -360t257.5 -254q201 78 313.5 243.5t112.5 362.5q0 217 -119 380t-322 234q-156 -92 -247 -252.5t-91 -353.5zM1108 1368q199 -83 313.5 -254t114.5 -397q0 -209 -113 -379.5t-303 -261.5
q124 -53 271 -53q144 0 273.5 55t222.5 149t147.5 224t54.5 274q0 194 -92.5 355t-253 254t-352.5 93q-153 0 -283 -59z" />
    <glyph glyph-name="H_D.dlig" horiz-adv-x="2447" 
d="M256 1434h72v-9q-6 -53 -6 -206v-222h790v222q0 153 -6 206v9h510q168 0 311 -53t244 -147t158 -227.5t57 -289.5q0 -197 -100.5 -361.5t-277.5 -260t-392 -95.5h-510v8q6 53 6 207v727h-790v-727q0 -154 6 -207v-8h-72v8q4 53 4 207v1004q0 153 -4 206v9zM1174 55h413
q136 0 255.5 36t206.5 98.5t149.5 146.5t94 181t31.5 200q0 144 -54.5 267t-150.5 209.5t-233 135.5t-297 49h-415v-1323z" />
    <glyph glyph-name="H_E.dlig" horiz-adv-x="1966" 
d="M256 1434h72v-9q-6 -53 -6 -206v-222h790v222q0 153 -6 206v9h752v-62h-9q-53 6 -186 6h-489v-381h524v-55h-524v-887h565q133 0 186 6h8v-61h-827v8q6 53 6 207v727h-790v-727q0 -154 6 -207v-8h-72v8q4 53 4 207v1004q0 153 -4 206v9z" />
    <glyph glyph-name="N_N.dlig" horiz-adv-x="2437" 
d="M256 1438h51l883 -1317v1122q0 140 -4 195h51l885 -1317v1098q0 153 -6 206v9h65v-9q-4 -53 -4 -206v-1029q0 -139 4 -194h-51l-885 1317v-1123q0 -139 4 -194h-51l-883 1317v-1098q0 -145 7 -207v-8h-66v8q4 53 4 207v1028q0 140 -4 195z" />
    <glyph glyph-name="O_C.dlig" horiz-adv-x="2103" 
d="M819 -33q-208 0 -382 101t-275 275t-101 382t101 382t275 275t382 101q161 0 305 -64q144 64 306 64q167 0 315 -64t256 -172v-102h-25q-49 119 -210 200.5t-336 81.5q-126 0 -238 -41q176 -98 280.5 -273.5t104.5 -387.5t-104.5 -388t-280.5 -274q110 -40 238 -40
q185 0 335.5 79.5t210.5 202.5h25v-102q-108 -108 -256 -172t-315 -64q-162 0 -306 64q-144 -64 -305 -64zM123 725q0 -144 54 -274t146 -224t221 -149t273 -55q130 0 240 40q-174 98 -277.5 274.5t-103.5 387.5q0 212 103 387.5t278 273.5q-112 41 -240 41
q-192 0 -351.5 -93t-251 -254t-91.5 -355zM737 725q0 -208 105.5 -377.5t281.5 -255.5q178 86 285 255.5t107 377.5q0 209 -107 378t-285 255q-176 -86 -281.5 -255t-105.5 -378z" />
    <glyph glyph-name="O_G.dlig" horiz-adv-x="2164" 
d="M819 -33q-208 0 -382 101t-275 275t-101 382t101 382t275 275t382 101q161 0 305 -64q144 64 306 64q167 0 315 -64t256 -172v-102h-25q-49 119 -210 200.5t-336 81.5q-126 0 -238 -41q176 -98 280.5 -273.5t104.5 -387.5t-104.5 -388t-280.5 -274q110 -40 238 -40
q149 0 280 60t229 167v291q0 88 -2.5 119t-13.5 67v8h82v-8q-4 -53 -4 -186v-322q-107 -117 -256 -184.5t-315 -67.5q-162 0 -306 64q-144 -64 -305 -64zM123 725q0 -144 54 -274t146 -224t221 -149t273 -55q130 0 240 40q-174 98 -277.5 274.5t-103.5 387.5
q0 212 103 387.5t278 273.5q-112 41 -240 41q-192 0 -351.5 -93t-251 -254t-91.5 -355zM737 725q0 -208 105.5 -377.5t281.5 -255.5q178 86 285 255.5t107 377.5q0 209 -107 378t-285 255q-176 -86 -281.5 -255t-105.5 -378z" />
    <glyph glyph-name="O_O.dlig" horiz-adv-x="2252" 
d="M819 -33q-208 0 -382 101t-275 275t-101 382t101 382t275 275t382 101q160 0 307 -64q147 64 308 64q208 0 382 -101t274.5 -275t100.5 -382t-100.5 -382t-274.5 -275t-382 -101q-161 0 -308 64q-147 -64 -307 -64zM123 725q0 -144 54 -274t146 -224t221 -149t273 -55
q129 0 242 43q-175 99 -279 274t-104 385t104 385.5t279 275.5q-112 41 -242 41q-192 0 -351.5 -93t-251 -254t-91.5 -355zM737 725q0 -208 105.5 -377.5t281.5 -255.5q178 86 285 255.5t107 377.5q0 209 -107 378t-285 255q-176 -86 -281.5 -255t-105.5 -378zM1192 1386
q176 -98 280.5 -273.5t104.5 -387.5t-104.5 -388t-280.5 -274q110 -40 240 -40q144 0 273.5 55t222.5 149t147.5 224t54.5 274q0 194 -92.5 355t-253 254t-352.5 93q-128 0 -240 -41z" />
    <glyph glyph-name="uni0412.alt" horiz-adv-x="1304" 
d="M256 8q4 53 4 207v758q0 101 24 185t64 140t93.5 94.5t111 56t117.5 17.5q123 0 212 -67t89 -174q0 -47 -20 -90.5t-53.5 -76t-67.5 -56t-72 -41.5q131 -8 240.5 -68.5t175 -165t65.5 -231.5q0 -218 -151.5 -357t-389.5 -139h-442v8zM322 55h364q216 0 354 125t138 320
q0 186 -156 305t-401 121h-7v32q132 33 213.5 102.5t81.5 156.5q0 88 -69.5 141t-167.5 53q-64 0 -124 -24.5t-112 -73.5t-83 -134t-31 -194v-930z" />
    <glyph glyph-name="uni0420.alt" horiz-adv-x="1255" 
d="M322 215q0 -154 6 -207v-8h-72v8q4 53 4 207v809q0 122 55.5 222.5t154.5 159t220 58.5q190 0 312 -119t122 -305q0 -79 -22.5 -144.5t-60 -110t-89 -75.5t-108.5 -45t-119 -14q-61 0 -111 11v38q36 -8 80 -8q166 0 267.5 91.5t101.5 240.5q0 169 -104 277t-265 108
q-158 0 -265 -107.5t-107 -261.5v-825z" />
    <glyph glyph-name="uni0414.loclBGR" horiz-adv-x="1382" 
d="M668 1434h51l516 -1379h184v-317h-28q-4 46 -6 70.5t-7 55.5t-7.5 45t-10.5 32.5t-12.5 24.5t-18.5 15.5t-23 11t-30.5 4.5t-38 3h-47.5h-995h-47.5t-38 -3t-30.5 -4.5t-23 -11t-18.5 -15.5t-12.5 -24.5t-10.5 -32.5t-7.5 -45t-7 -55.5t-6 -70.5h-29v317h185zM213 55h954
l-477 1284z" />
    <glyph glyph-name="uni041B.loclBGR" horiz-adv-x="1187" 
d="M1130 0h-92v8q0 54 -55 207l-401 1118l-404 -1118q-53 -148 -53 -207v-8h-88v8q27 55 82 207l440 1219h51l439 -1219q57 -159 81 -207v-8z" />
    <glyph glyph-name="uni0414.salt" horiz-adv-x="1316" 
d="M10 55h152q30 0 49 52t39 174l160 938q23 127 16 206v9h666v-9q-5 -66 -5 -206v-1164h164v-317h-28q-4 46 -6 70.5t-7 55.5t-7.5 45t-10.5 32.5t-12.5 24.5t-18.5 15.5t-23 11t-30.5 4.5t-38 3h-47.5h-782h-47.5t-38 -3t-30.5 -4.5t-23 -11t-18.5 -15.5t-12.5 -24.5
t-10.5 -32.5t-7.5 -45t-7 -55.5t-6 -70.5h-29v317zM238 55h788v1323h-534l-197 -1153q-22 -129 -57 -170z" />
    <glyph glyph-name="uni0418.salt" horiz-adv-x="1454" 
d="M1198 1438q-4 -55 -4 -195v-1028q0 -154 4 -207v-8h-65v8q6 53 6 207v1094l-832 -1313h-51q4 55 4 194v1029q0 153 -4 206v9h66v-9q-7 -62 -7 -206v-1096l832 1315h51z" />
    <glyph glyph-name="uni041B.salt" horiz-adv-x="1249" 
d="M362 1434h631v-9q-4 -53 -4 -206v-1004q0 -154 4 -207v-8h-71v8q6 53 6 207v1163h-500l-203 -1190q-16 -101 -45.5 -148.5t-87.5 -47.5q-35 0 -72 16v68h9q32 -19 67 -19q29 0 46 34.5t30 107.5l174 1020q23 127 16 206v9z" />
    <glyph glyph-name="uni04100415.dlig" horiz-adv-x="1751" 
d="M877 1434h765v-66h-8q-53 10 -186 10h-492v-381h527v-55h-527v-887h568q133 0 186 6h8v-61h-827v8q4 53 4 207v168h-533l-98 -182q-24 -44 -41 -78t-25.5 -54.5t-12.5 -31.5t-7 -20l-2 -9v-8h-88v8q20 24 109 187zM393 438h502v922z" />
    <glyph glyph-name="uni04180418.dlig" horiz-adv-x="2406" 
d="M256 1434h72v-9q-6 -53 -6 -206v-1069l890 1288h25q-4 -55 -4 -195v-1093l893 1288h24q-4 -55 -4 -195v-1028q0 -154 4 -207v-8h-71v8q6 53 6 207v1069l-893 -1288h-25q4 55 4 194v1094l-890 -1288h-25q4 55 4 194v1029q0 153 -4 206v9z" />
    <glyph glyph-name="uni0418041D.dlig" horiz-adv-x="2344" 
d="M2017 1434h72v-9q-4 -53 -4 -206v-1004q0 -154 4 -207v-8h-72v8q6 53 6 207v727h-788v-727q0 -154 6 -207v-8h-74v8q7 62 7 207v1069l-893 -1288h-25q4 55 4 194v1029q0 153 -4 206v9h72v-9q-6 -53 -6 -206v-1069l892 1288h25q-4 -55 -4 -195v-246h788v222q0 153 -6 206
v9z" />
    <glyph glyph-name="uni041B042C.dlig" horiz-adv-x="1886" 
d="M362 1434h642v-9q-7 -62 -7 -206v-1164h246q268 0 404.5 108.5t136.5 303.5q0 157 -103 256.5t-264 99.5q-67 0 -141 -18l-10 39q67 26 166 26q181 0 297 -113t116 -290q0 -102 -31.5 -182.5t-85.5 -133t-130 -87.5t-159 -49.5t-179 -14.5h-330v8q6 53 6 207v1163h-508
l-203 -1190q-16 -101 -45.5 -148.5t-87.5 -47.5q-35 0 -72 16v68h9q32 -19 67 -19q29 0 46 34.5t30 107.5l174 1020q23 127 16 206v9z" />
    <glyph glyph-name="uni041C042C.dlig" horiz-adv-x="2347" 
d="M256 1434h41l565 -1026l559 1026h41q-4 -61 -4 -215v-1164h246q268 0 404.5 108.5t136.5 303.5q0 157 -103 256.5t-264 99.5q-67 0 -141 -18l-11 39q67 26 166 26q182 0 298 -113t116 -290q0 -102 -32 -182.5t-85.5 -133t-129.5 -87.5t-159.5 -49.5t-179.5 -14.5h-327v8
q4 53 4 207v1057l-520 -955h-33l-529 957v-1059q0 -145 7 -207v-8h-66v8q4 53 4 207v1004q0 154 -4 215z" />
    <glyph glyph-name="uni041D0415.dlig" horiz-adv-x="1966" 
d="M256 1434h72v-9q-6 -53 -6 -206v-222h790v222q0 153 -6 206v9h752v-62h-9q-53 6 -186 6h-489v-381h524v-55h-524v-887h565q133 0 186 6h8v-61h-827v8q6 53 6 207v727h-790v-727q0 -154 6 -207v-8h-72v8q4 53 4 207v1004q0 153 -4 206v9z" />
    <glyph glyph-name="uni041D042C.dlig" horiz-adv-x="2060" 
d="M256 1434h72v-9q-6 -53 -6 -206v-222h788v222q0 153 -4 206v9h72v-9q-7 -62 -7 -206v-1164h246q268 0 404.5 108.5t136.5 303.5q0 157 -103 256.5t-264 99.5q-67 0 -141 -18l-10 39q67 26 166 26q181 0 297 -113t116 -290q0 -102 -31.5 -182.5t-85.5 -133t-130 -87.5
t-159 -49.5t-179 -14.5h-328v8q4 53 4 207v727h-788v-727q0 -154 6 -207v-8h-72v8q4 53 4 207v1004q0 153 -4 206v9z" />
    <glyph glyph-name="uni041E0415.dlig" horiz-adv-x="2314" 
d="M793 -33q-120 0 -231.5 38t-201.5 107.5t-157.5 163t-104.5 209t-37 240.5t37 240.5t104.5 209t157.5 163t201.5 107.5t231.5 38q220 0 400.5 -126t264.5 -333v195q0 153 -4 206v9h752v-62h-8q-53 6 -187 6h-491v-381h526v-55h-526v-887h567q133 0 186 6h8v-61h-827v8
q4 53 4 207v211q-84 -207 -264.5 -333t-400.5 -126zM121 725q0 -193 88 -354t242.5 -254.5t339.5 -93.5t340 93.5t244 254.5t89 354q0 194 -89 355t-243.5 254t-340.5 93q-139 0 -263.5 -55t-213.5 -148.5t-141 -223.5t-52 -275z" />
    <glyph glyph-name="uni041E041E.dlig" horiz-adv-x="2252" 
d="M819 -33q-208 0 -382 101t-275 275t-101 382t101 382t275 275t382 101q160 0 307 -64q147 64 308 64q208 0 382 -101t274.5 -275t100.5 -382t-100.5 -382t-274.5 -275t-382 -101q-161 0 -308 64q-147 -64 -307 -64zM123 725q0 -144 54 -274t146 -224t221 -149t273 -55
q129 0 242 43q-175 99 -279 274t-104 385t104 385.5t279 275.5q-112 41 -242 41q-192 0 -351.5 -93t-251 -254t-91.5 -355zM737 725q0 -208 105.5 -377.5t281.5 -255.5q178 86 285 255.5t107 377.5q0 209 -107 378t-285 255q-176 -86 -281.5 -255t-105.5 -378zM1192 1386
q176 -98 280.5 -273.5t104.5 -387.5t-104.5 -388t-280.5 -274q110 -40 240 -40q144 0 273.5 55t222.5 149t147.5 224t54.5 274q0 194 -92.5 355t-253 254t-352.5 93q-128 0 -240 -41z" />
    <glyph glyph-name="uni041E0421.dlig" horiz-adv-x="2103" 
d="M819 -33q-208 0 -382 101t-275 275t-101 382t101 382t275 275t382 101q161 0 305 -64q144 64 306 64q167 0 315 -64t256 -172v-102h-25q-49 119 -210 200.5t-336 81.5q-126 0 -238 -41q176 -98 280.5 -273.5t104.5 -387.5t-104.5 -388t-280.5 -274q110 -40 238 -40
q185 0 335.5 79.5t210.5 202.5h25v-102q-108 -108 -256 -172t-315 -64q-162 0 -306 64q-144 -64 -305 -64zM123 725q0 -144 54 -274t146 -224t221 -149t273 -55q130 0 240 40q-174 98 -277.5 274.5t-103.5 387.5q0 212 103 387.5t278 273.5q-112 41 -240 41
q-192 0 -351.5 -93t-251 -254t-91.5 -355zM737 725q0 -208 105.5 -377.5t281.5 -255.5q178 86 285 255.5t107 377.5q0 209 -107 378t-285 255q-176 -86 -281.5 -255t-105.5 -378z" />
    <glyph glyph-name="uni041F042C.dlig" horiz-adv-x="2060" 
d="M256 1434h920v-9q-5 -66 -5 -186v-1184h246q268 0 404.5 108.5t136.5 303.5q0 157 -103 256.5t-264 99.5q-67 0 -141 -18l-10 39q67 26 166 26q181 0 297 -113t116 -290q0 -102 -31.5 -182.5t-85.5 -133t-130 -87.5t-159 -49.5t-179 -14.5h-328v8q4 53 4 207v1163h-788
v-1183q0 -134 6 -187v-8h-72v8q4 53 4 187v1044q0 133 -4 186v9z" />
    <glyph glyph-name="uni0427042C.dlig" horiz-adv-x="1957" 
d="M174 1434h72v-9q-6 -53 -6 -206v-211q0 -156 95 -257.5t273 -101.5q234 0 400 219v351q0 153 -4 206v9h71v-9q-6 -53 -6 -206v-1164h246q268 0 404 108.5t136 303.5q0 157 -102.5 256.5t-263.5 99.5q-67 0 -141 -18l-11 39q67 26 166 26q182 0 298 -113t116 -290
q0 -102 -32 -182.5t-85.5 -133t-129.5 -87.5t-159.5 -49.5t-179.5 -14.5h-330v8q7 62 7 207v582q-166 -203 -414 -203q-198 0 -307 112.5t-109 284.5v228q0 153 -4 206v9z" />
    <glyph glyph-name="uni0428042C.dlig" horiz-adv-x="2471" 
d="M256 1434h72v-9q-6 -53 -6 -206v-1164h575v1164q0 153 -4 206v9h70v-9q-5 -66 -5 -206v-1164h566v1164q0 153 -6 206v9h73v-9q-6 -53 -6 -206v-1164h244q268 0 404.5 108.5t136.5 303.5q0 157 -103 256.5t-264 99.5q-67 0 -141 -18l-11 39q67 26 166 26q182 0 298 -113
t116 -290q0 -102 -32 -182.5t-85.5 -133t-129.5 -87.5t-159.5 -49.5t-179.5 -14.5h-1589v8q4 53 4 207v1004q0 153 -4 206v9z" />
    <glyph glyph-name="uni0306.cy" 
d="M342 1868h61v-2q0 -92 66 -158q61 -55 145 -55q88 0 149.5 60.5t61.5 154.5h62q-3 -119 -78.5 -195t-194.5 -76t-194 76t-78 195z" />
    <glyph glyph-name="uni030C.alt" 
d="M725 1948l61 -52l-278 -305l-21 19z" />
    </font>
</defs>
</svg>
