<?xml version="1.0" standalone="no"?>
<!DOCTYPE svg PUBLIC "-//W3C//DTD SVG 1.1//EN" "http://www.w3.org/Graphics/SVG/1.1/DTD/svg11.dtd" >
<svg xmlns="http://www.w3.org/2000/svg" xmlns:xlink="http://www.w3.org/1999/xlink" version="1.1">
<metadata>
Created by FontForge 20201107 at Tue Feb 13 19:36:19 2024
 By 
Copyright (c) 2023 by Misha Ivanov.
</metadata>
<defs>
<font id="Angst-BoldSerif" horiz-adv-x="0" >
  <font-face 
    font-family="Angst Bold Serif"
    font-weight="700"
    font-stretch="normal"
    units-per-em="2048"
    panose-1="0 0 0 0 0 0 0 0 0 0"
    ascent="1638"
    descent="-410"
    cap-height="1434"
    bbox="-225 -635 2488 2181"
    underline-thickness="102"
    underline-position="-255"
    unicode-range="U+0020-2212"
  />
<missing-glyph horiz-adv-x="1024" 
d="M840 1638v-2048h-650v2048h650zM342 -268h340v67h-209l143 97h66v67h-340v-67h143l-143 -97v-67zM342 10h340v232h-340v-232zM342 365h340v231h-205v-115h70v47h67v-96h-204v164h-68v-231zM342 641h340v205h-68v-135h-272v-70zM342 758h205v143h135v68h-340v-68h135v-76
h-135v-67zM342 1024h340v70h-135v143h-205v-213zM342 1290h340v68h-135v76h135v67h-338v-67h133v-76h-135v-68zM410 78v96h204v-96h-204zM410 1094v73h67v-73h-67z" />
    <glyph glyph-name="T_T.liga" unicode="TT" horiz-adv-x="2048" 
d="M39 1434h2050l49 -822h-24q-16 157 -25 244.5t-24.5 181t-24.5 135.5t-32.5 87.5t-39.5 58t-55 26.5t-69.5 14.5t-92.5 0.5h-20v-1145q0 -47 3.5 -73t16.5 -52t40 -38t71.5 -19.5t113.5 -7.5h154v-25h-2130v25h154q69 0 113.5 7.5t71.5 19.5t40 38t16.5 52t3.5 73v1145
h-63q-110 0 -150 -17q-57 -24 -86 -112q-34 -103 -68 -448q-6 -66 -16 -171h-24zM707 215q0 -47 3.5 -73t16.5 -52t40 -38t71.5 -19.5t113.5 -7.5h226q69 0 113.5 7.5t71.5 19.5t40 38t16.5 52t3.5 73v1145h-102q-106 0 -143 -17q-54 -24 -75 -115q-24 -106 -26 -464v-152
h-24q0 439 -16.5 562.5t-66.5 158.5q-36 26 -132 27h-29h-102v-1145z" />
    <glyph glyph-name="uni04220422.liga" unicode="&#x422;&#x422;" horiz-adv-x="2048" 
d="M39 1434h2050l49 -822h-24q-16 157 -25 244.5t-24.5 181t-24.5 135.5t-32.5 87.5t-39.5 58t-55 26.5t-69.5 14.5t-92.5 0.5h-20v-1145q0 -47 3.5 -73t16.5 -52t40 -38t71.5 -19.5t113.5 -7.5h154v-25h-2130v25h154q69 0 113.5 7.5t71.5 19.5t40 38t16.5 52t3.5 73v1145
h-63q-110 0 -150 -17q-57 -24 -86 -112q-34 -103 -68 -448q-6 -66 -16 -171h-24zM707 215q0 -47 3.5 -73t16.5 -52t40 -38t71.5 -19.5t113.5 -7.5h226q69 0 113.5 7.5t71.5 19.5t40 38t16.5 52t3.5 73v1145h-102q-106 0 -143 -17q-54 -24 -75 -115q-24 -106 -26 -464v-152
h-24q0 439 -16.5 562.5t-66.5 158.5q-36 26 -132 27h-29h-102v-1145z" />
    <glyph glyph-name="uni04070407.liga" unicode="&#x407;&#x407;" horiz-adv-x="1150" 
d="M575 25q52 3 76.5 16.5t35.5 48t11 105.5v1044q0 71 -11 105.5t-35.5 48t-76.5 16.5q-52 -3 -76.5 -16.5t-35 -48t-10.5 -105.5v-1044q0 -71 10.5 -105.5t35 -48t76.5 -16.5zM-61 0v25q57 2 91 7t58.5 15t35 30.5t15 46.5t4.5 71v1044q0 45 -4.5 71t-15 46.5t-35 30.5
t-58.5 15t-91 7v25h1273v-25q-57 -2 -91 -7t-58.5 -15t-35 -30.5t-15 -46.5t-4.5 -71v-1044q0 -45 4.5 -71t15 -46.5t35 -30.5t58.5 -15t91 -7v-25h-1273zM94 1751q0 42 29.5 72t73.5 30q40 0 71 -30.5t31 -71.5q0 -42 -31 -72t-71 -30q-44 0 -73.5 29.5t-29.5 72.5z
M473 1751q0 42 30 72t72 30q41 0 72 -30.5t31 -71.5q0 -42 -30.5 -72t-72.5 -30q-43 0 -72.5 29.5t-29.5 72.5zM852 1751q0 42 30 72t72 30q41 0 72 -30.5t31 -71.5q0 -42 -30.5 -72t-72.5 -30q-43 0 -72.5 29.5t-29.5 72.5z" />
    <glyph glyph-name=".notdef" horiz-adv-x="1024" 
d="M840 1638v-2048h-650v2048h650zM342 -268h340v67h-209l143 97h66v67h-340v-67h143l-143 -97v-67zM342 10h340v232h-340v-232zM342 365h340v231h-205v-115h70v47h67v-96h-204v164h-68v-231zM342 641h340v205h-68v-135h-272v-70zM342 758h205v143h135v68h-340v-68h135v-76
h-135v-67zM342 1024h340v70h-135v143h-205v-213zM342 1290h340v68h-135v76h135v67h-338v-67h133v-76h-135v-68zM410 78v96h204v-96h-204zM410 1094v73h67v-73h-67z" />
    <glyph glyph-name=".null" 
 />
    <glyph glyph-name="nonmarkingreturn" horiz-adv-x="682" 
 />
    <glyph glyph-name="space" unicode=" " horiz-adv-x="716" 
 />
    <glyph glyph-name="space" unicode="&#xa0;" horiz-adv-x="716" 
 />
    <glyph glyph-name="exclam" unicode="!" horiz-adv-x="573" 
d="M287 -12q-66 0 -110 43.5t-44 109.5q0 63 44.5 108.5t109.5 45.5q61 0 107 -46t46 -108q0 -65 -45 -109t-108 -44zM131 1335q-13 93 33 147t123 54q76 0 121 -54.5t32 -148.5q-6 -44 -35.5 -188.5t-59 -320.5t-44.5 -335h-25q-12 159 -43 335t-63.5 321t-38.5 190z" />
    <glyph glyph-name="quotedbl" unicode="&#x22;" horiz-adv-x="880" 
d="M111 850q58 106 82.5 155.5t37 92t3 58.5t-38.5 30q-103 41 -103 143q0 61 44.5 107.5t109.5 46.5q62 0 107.5 -49.5t45.5 -122.5q0 -69 -44.5 -148.5t-181.5 -277.5q-22 -32 -34 -49zM481 1329q0 61 44.5 107.5t109.5 46.5q62 0 107.5 -49.5t45.5 -122.5
q0 -69 -44.5 -148.5t-181.5 -277.5q-22 -32 -34 -49l-28 14q58 106 82.5 155.5t37 92t3 58.5t-38.5 30q-103 41 -103 143z" />
    <glyph glyph-name="numbersign" unicode="#" horiz-adv-x="1515" 
d="M881 1411l-205 -393l477 24l190 416l93 -47l-189 -364l269 14v-103h-316l-223 -430l539 29v-102h-578l-242 -465l-22 10l209 455h-500l-242 -465l-22 10l209 455h-328v24l346 19l213 460h-559v25l584 31l204 444zM408 500l507 26l199 432h-469z" />
    <glyph glyph-name="dollar" unicode="$" horiz-adv-x="1085" 
d="M600 1638l-4 -168q168 -9 313 -61l-32 -610l-29 2q0 139 -13.5 243t-35 168t-55.5 104.5t-69 57t-81 21.5l-10 -488l229 -221q86 -85 134 -175.5t48 -174.5q0 -152 -117.5 -253.5t-328.5 -107.5l-2 -180h-21l-2 180q-244 0 -420 119l78 602l27 -2q-3 -88 -4 -161t9 -132
t19.5 -105.5t28 -82.5t35.5 -62t41 -44.5t45 -29.5t47 -17.5t47 -8.5t45 -2l-8 529l-254 245q-166 158 -166 312q0 68 25 125.5t74.5 104t132.5 74t192 31.5l-4 168h86zM352 1235q0 -60 29 -109.5t100 -117.5l47 -45l-8 432q-74 -9 -121 -52t-47 -108zM551 49q98 6 142 53.5
t44 120.5q0 137 -145 279l-33 33z" />
    <glyph glyph-name="percent" unicode="%" horiz-adv-x="1495" 
d="M1544 1919l80 -59l-1704 -2278l-20 15zM61 1192q0 126 88 208.5t226 82.5t226.5 -82.5t88.5 -208.5q0 -136 -88 -220.5t-227 -84.5t-226.5 84.5t-87.5 220.5zM233 1141q0 -82 33 -132.5t88 -50.5q52 0 91 45.5t56 106t17 121.5q0 80 -33.5 130t-87.5 50q-51 0 -90 -45
t-56.5 -105t-17.5 -120zM805 281q0 126 87.5 208t225.5 82t227 -82t89 -208q0 -136 -88.5 -221t-227.5 -85q-138 0 -225.5 85t-87.5 221zM977 229q0 -82 33 -132t88 -50q52 0 91 45.5t56 105.5t17 121q0 80 -33.5 130.5t-87.5 50.5q-51 0 -90 -45t-56.5 -105.5t-17.5 -120.5
z" />
    <glyph glyph-name="ampersand" unicode="&#x26;" horiz-adv-x="1251" 
d="M1034 918q123 -155 123 -365q0 -140 -65 -270l26 -37q24 -33 50 -60.5t46.5 -45t45.5 -33.5t37.5 -23t32.5 -16.5t22 -10.5v-24q-63 -37 -142 -50t-166 6.5t-155 73.5q-141 -88 -305 -88q-113 0 -209.5 35.5t-161 95.5t-101 138t-36.5 162q0 128 69 237.5t187 175.5
q-103 163 -103 309q0 153 108 247.5t290 94.5q160 0 297 -49v-422h-25q0 117 -22 198t-62.5 123t-86 59.5t-103.5 17.5q-85 0 -126.5 -42t-41.5 -108q0 -92 116 -250l480 -661q37 84 37 180q0 68 -18 129.5t-54.5 115.5t-102 90t-151.5 44v23h270zM324 557q0 -88 28 -173
t77.5 -153.5t126 -110.5t165.5 -42q63 0 123 26q-26 31 -33 41l-442 619q-45 -89 -45 -207z" />
    <glyph glyph-name="quotesingle" unicode="'" horiz-adv-x="573" 
d="M152 936q58 106 82.5 155.5t37 92t3 58.5t-38.5 30q-103 41 -103 143q0 61 44.5 107.5t109.5 46.5q62 0 107.5 -49.5t45.5 -122.5q0 -69 -44.5 -148.5t-181.5 -277.5q-22 -32 -34 -49z" />
    <glyph glyph-name="parenleft" unicode="(" horiz-adv-x="737" 
d="M139 1640q506 -347 506 -923q0 -577 -506 -924l-12 14q231 385 231 910q0 527 -231 909z" />
    <glyph glyph-name="parenright" unicode=")" horiz-adv-x="737" 
d="M610 1626q-231 -382 -231 -909q0 -525 231 -910l-12 -14q-506 347 -506 924q0 576 506 923z" />
    <glyph glyph-name="asterisk" unicode="*" horiz-adv-x="983" 
d="M504 1679l39 -342q4 -2 8 -6l315 139l13 -20l-279 -207v-4v-4l279 -207l-13 -20l-313 137l-10 -4l-39 -342h-25l-39 340q-2 2 -10 6l-313 -135l-13 20l275 203v6v6l-275 203l13 20l315 -137l8 6l39 342h25z" />
    <glyph glyph-name="plus" unicode="+" horiz-adv-x="942" 
d="M51 727l393 14l-16 416h86l-14 -412l391 15v-86l-395 16l-15 -414h-20l-17 414l-393 17v20z" />
    <glyph glyph-name="comma" unicode="," horiz-adv-x="573" 
d="M152 -338q58 106 82.5 155.5t37 92t3 58.5t-38.5 30q-103 41 -103 143q0 61 44.5 107.5t109.5 46.5q62 0 107.5 -49.5t45.5 -122.5q0 -69 -44.5 -148.5t-181.5 -277.5q-22 -32 -34 -49z" />
    <glyph glyph-name="hyphen" unicode="-" horiz-adv-x="819" 
d="M20 727l779 33v-86l-779 33v20z" />
    <glyph glyph-name="period" unicode="." horiz-adv-x="573" 
d="M287 -12q-66 0 -110 43.5t-44 109.5q0 63 44.5 108.5t109.5 45.5q61 0 107 -46t46 -108q0 -65 -45 -109t-108 -44z" />
    <glyph glyph-name="slash" unicode="/" horiz-adv-x="1105" 
d="M1133 2019l90 -45l-1284 -2537l-23 10z" />
    <glyph glyph-name="zero" unicode="0" horiz-adv-x="1392" 
d="M696 -33q-178 0 -318 96t-218 268.5t-78 391.5t78 391.5t218 268.5t318 96q177 0 317.5 -96t219 -268.5t78.5 -391.5t-78.5 -391.5t-219 -268.5t-317.5 -96zM389 612q0 -66 7.5 -137.5t27.5 -151t50 -141.5t79.5 -102.5t110.5 -40.5q72 0 131.5 55t96.5 140t62.5 193.5
t36 209.5t10.5 194q0 67 -7.5 138.5t-27 151.5t-49 142t-79 103t-111.5 41q-72 0 -131.5 -55.5t-97 -141.5t-63 -194.5t-36 -210t-10.5 -193.5z" />
    <glyph glyph-name="one" unicode="1" horiz-adv-x="692" 
d="M20 971l560 581l20 -14q-22 -65 -29.5 -125t-7.5 -174v-1024q0 -81 11.5 -120t37 -53t80.5 -17v-25h-692v25q61 2 99.5 5t69.5 12t46 20t25.5 34t13 49.5t2.5 69.5v881l-221 -144z" />
    <glyph glyph-name="two" unicode="2" horiz-adv-x="1175" 
d="M113 145q188 132 317 251.5t203 231t105.5 213.5t31.5 214q0 180 -58.5 265t-156.5 85q-101 0 -171 -68.5t-98.5 -182t-12 -270t80.5 -323.5l-24 -8l-254 541q77 193 200.5 289t315.5 96q129 0 238 -48.5t178 -147.5t69 -230q0 -111 -50 -222t-137.5 -207.5t-198 -180
t-240.5 -152.5h352q51 0 81 6t52.5 20t33.5 46.5t16 74.5t7 115h25v-553h-905v145z" />
    <glyph glyph-name="three" unicode="3" horiz-adv-x="1126" 
d="M168 1434h879l4 -7l-469 -559h20q134 0 247.5 -52t185 -156.5t71.5 -241.5q0 -123 -68.5 -227t-187.5 -164t-260 -60q-96 0 -189.5 36.5t-168 100t-120.5 159t-46 204.5l233 356l20 -10q-55 -115 -78.5 -222.5t-16.5 -190t34 -152t70 -114t94.5 -69t105.5 -24.5
q112 0 191.5 103t79.5 300q0 162 -77.5 258.5t-205.5 96.5q-17 0 -49 -4l-23 24l265 322l-326 4q-50 1 -81 -6t-53 -22t-33 -48t-16 -75t-7 -113h-25v553z" />
    <glyph glyph-name="four" unicode="4" horiz-adv-x="976" 
d="M834 1516q-13 -54 -17 -113.5t-4 -190.5v-854q47 0 115 7h8v-84h-8q-78 4 -115 4v-70q0 -81 11 -120t35.5 -53t76.5 -17v-25h-676v25q59 2 95.5 5t66 12t44.5 20t25 34t12.5 49.5t2.5 69.5v70h-535l-12 20l854 1221zM88 362q-4 -4 4 -4h414v600z" />
    <glyph glyph-name="five" unicode="5" horiz-adv-x="1290" 
d="M375 1434h669v-443h-24q-2 49 -9.5 76.5t-28.5 46.5t-56 25t-97 6l-430 -2l-55 -322q128 107 318 107q222 0 363.5 -127.5t141.5 -325.5q0 -75 -23 -148t-70.5 -138t-113.5 -114.5t-159 -78.5t-201 -29q-154 0 -267.5 56t-174.5 143l71 403l23 -2q-13 -123 8 -225
t67 -166.5t106 -99.5t126 -35q115 0 201.5 104.5t99.5 303.5q7 104 -16.5 192.5t-84.5 147.5t-151 59q-103 0 -183.5 -33t-154.5 -115l-18 9z" />
    <glyph glyph-name="six" unicode="6" horiz-adv-x="1249" 
d="M637 -33q-129 0 -234 45t-173 122.5t-105 180.5t-37 220q0 135 37 267.5t118 259.5t197 229t287.5 173.5t376.5 94.5v-27q-127 -21 -234.5 -75t-184 -130.5t-134 -169.5t-91.5 -197.5t-50.5 -207.5t-16.5 -207q0 -134 30 -245t88 -179t134 -68q73 0 127 60.5t79.5 150
t25.5 191.5q0 68 -13 134.5t-37.5 124t-66.5 93t-94 35.5q-72 0 -129 -33l-19 31q100 82 246 82q77 0 150 -31t131 -87t93.5 -143.5t35.5 -191.5q0 -95 -33 -182.5t-96.5 -160t-169 -116t-238.5 -43.5z" />
    <glyph glyph-name="seven" unicode="7" horiz-adv-x="880" 
d="M61 1434h881l-555 -1241q-53 -103 -22.5 -135.5t210.5 -32.5v-25h-575v25q65 0 105.5 5t69.5 13.5t50 31.5t34.5 47.5t35.5 72.5l424 948h-443q-63 0 -97 -9t-55.5 -40t-28.5 -78t-9 -135h-25v553z" />
    <glyph glyph-name="eight" unicode="8" horiz-adv-x="1269" 
d="M635 -33q-236 0 -387.5 119.5t-151.5 306.5q0 128 73 228t200 153q-89 53 -140 133t-51 174q0 169 128 277t329 108t329 -108t128 -277q0 -93 -51.5 -174t-139.5 -133q128 -53 200.5 -152.5t72.5 -228.5q0 -187 -151.5 -306.5t-387.5 -119.5zM381 377
q-6 -139 57.5 -237.5t167.5 -98.5q116 0 196 105.5t87 271.5q8 138 -56.5 238t-164.5 100q-119 0 -198 -101.5t-89 -277.5zM449 1081q-2 -66 14.5 -127.5t55 -104t91.5 -42.5q89 0 146.5 95t60.5 220q2 65 -14 125t-54.5 103t-91.5 43q-62 0 -110 -46.5t-72 -116.5t-26 -149
z" />
    <glyph glyph-name="nine" unicode="9" horiz-adv-x="1249" 
d="M612 1470q129 0 234 -45t173 -122t105 -180t37 -220q0 -130 -37 -258.5t-118 -251.5t-197 -221.5t-287.5 -168t-376.5 -91.5v27q127 20 234.5 72t184 126t134 163.5t91.5 191t50.5 201t16.5 200.5q0 134 -30 245t-88 178.5t-134 67.5q-73 0 -127 -60t-79 -149.5
t-25 -191.5q0 -68 13 -134.5t37.5 -124t66.5 -93t94 -35.5q72 0 129 33l18 -31q-100 -82 -246 -82q-77 0 -149.5 31t-131 87t-93.5 143.5t-35 191.5q0 75 20 146.5t63 136t104.5 113t151.5 77t197 28.5z" />
    <glyph glyph-name="colon" unicode=":" horiz-adv-x="573" 
d="M287 295q-66 0 -110 44t-44 110q0 62 44.5 107.5t109.5 45.5q61 0 107 -46t46 -107q0 -65 -45.5 -109.5t-107.5 -44.5zM133 1087q0 63 44.5 108.5t109.5 45.5q61 0 107 -46t46 -108q0 -65 -45 -109t-108 -44q-66 0 -110 43.5t-44 109.5z" />
    <glyph glyph-name="semicolon" unicode=";" horiz-adv-x="573" 
d="M287 940q-66 0 -110 44t-44 110q0 62 44.5 107.5t109.5 45.5q61 0 107 -45.5t46 -107.5q0 -65 -45.5 -109.5t-107.5 -44.5zM133 453q0 61 44.5 107t109.5 46q62 0 107.5 -49.5t45.5 -122.5q0 -69 -44.5 -148.5t-181.5 -277.5q-22 -32 -34 -49l-28 14q58 106 82.5 155.5
t37 92t3 58.5t-38.5 30q-103 41 -103 144z" />
    <glyph glyph-name="less" unicode="&#x3c;" horiz-adv-x="935" 
d="M735 1200l15 -14l-371 -459l371 -459l-15 -14l-530 473z" />
    <glyph glyph-name="equal" unicode="=" horiz-adv-x="942" 
d="M51 911l840 33v-86l-840 33v20zM51 565v21l840 32v-86z" />
    <glyph glyph-name="greater" unicode="&#x3e;" horiz-adv-x="935" 
d="M242 1200l530 -473l-530 -473l-15 14l371 459l-371 459z" />
    <glyph glyph-name="question" unicode="?" horiz-adv-x="911" 
d="M406 -12q-66 0 -110 43.5t-44 109.5q0 63 44.5 108.5t109.5 45.5q61 0 107 -46t46 -108q0 -65 -45 -109t-108 -44zM131 932v493q127 45 279 45q201 0 312.5 -80.5t111.5 -209.5q0 -143 -125 -285l-144 -166q-85 -98 -119 -157t-34 -109q0 -31 12 -66l-18 -20
q-130 90 -130 205q0 54 28 113.5t81 138.5l84 122q100 147 100 269q0 76 -42.5 124t-125.5 48q-33 0 -64 -10.5t-65 -41.5t-59 -80t-41 -135t-16 -198h-25z" />
    <glyph glyph-name="at" unicode="@" horiz-adv-x="1679" 
d="M776 1167q57 0 113 26t88 81l186 -529l191 27l4 -22l-182 -37l32 -92q46 -131 78 -193.5t68 -62.5q42 0 66 91.5t24 248.5q0 137 -28 254.5t-75.5 200t-110.5 141.5t-132.5 87.5t-141.5 28.5q-105 0 -204 -49.5t-175.5 -133.5t-134.5 -191t-89 -228t-31 -237
q0 -92 19.5 -174t63.5 -154.5t109.5 -124.5t162 -82.5t216.5 -30.5q116 0 229 34.5t203 98.5l14 -18q-212 -180 -501 -180q-159 0 -303 61.5t-248 165.5t-165 248t-61 303t61 303t165 248t248.5 165.5t304.5 61.5t304 -61t248 -165t165 -248t61 -304q0 -203 -89 -328
t-210 -125q-109 0 -182 67.5t-125 217.5l-41 113l-309 -64l-44 -119q-26 -72 -26 -104v-4h-107v4q0 1 4 9t13.5 32.5t23.5 62.5zM688 680l266 37l-125 358z" />
    <glyph glyph-name="A" unicode="A" horiz-adv-x="1228" 
d="M530 1434q59 0 116 27.5t91 86.5l471 -1333q43 -122 74 -156t94 -34v-25h-801v25q92 0 148 2t98.5 11t60 19.5t23.5 35t0 50.5t-22 72l-52 150h-634l-58 -148q-14 -35 -20.5 -56.5t-8 -44t5 -34.5t25.5 -24t46 -17t73 -9.5t100 -5.5t134 -1v-25h-611v25q63 0 94 33
t80 157zM225 438h580l-275 791z" />
    <glyph glyph-name="A" unicode="a" horiz-adv-x="1228" 
d="M530 1434q59 0 116 27.5t91 86.5l471 -1333q43 -122 74 -156t94 -34v-25h-801v25q92 0 148 2t98.5 11t60 19.5t23.5 35t0 50.5t-22 72l-52 150h-634l-58 -148q-14 -35 -20.5 -56.5t-8 -44t5 -34.5t25.5 -24t46 -17t73 -9.5t100 -5.5t134 -1v-25h-611v25q63 0 94 33
t80 157zM225 438h580l-275 791z" />
    <glyph glyph-name="B" unicode="B" horiz-adv-x="1320" 
d="M659 1434q199 0 315 -82.5t116 -229.5q0 -92 -59.5 -163.5t-162.5 -100.5q180 -18 296 -125t116 -274q0 -212 -156 -335.5t-422 -123.5h-702v25q52 3 76.5 17t35.5 53t11 120v1004q0 81 -11 120t-35.5 53t-76.5 17v25h659zM430 74h215q149 0 238.5 99t89.5 265
q0 186 -111.5 294t-302.5 108h-47v24l25 2q125 11 195.5 77t70.5 183q0 108 -67.5 171t-184.5 63h-121v-1286z" />
    <glyph glyph-name="B" unicode="b" horiz-adv-x="1320" 
d="M659 1434q199 0 315 -82.5t116 -229.5q0 -92 -59.5 -163.5t-162.5 -100.5q180 -18 296 -125t116 -274q0 -212 -156 -335.5t-422 -123.5h-702v25q52 3 76.5 17t35.5 53t11 120v1004q0 81 -11 120t-35.5 53t-76.5 17v25h659zM430 74h215q149 0 238.5 99t89.5 265
q0 186 -111.5 294t-302.5 108h-47v24l25 2q125 11 195.5 77t70.5 183q0 108 -67.5 171t-184.5 63h-121v-1286z" />
    <glyph glyph-name="C" unicode="C" horiz-adv-x="1488" 
d="M1386 1247l-186 -514l-22 6q41 178 37.5 304t-48 205.5t-109.5 116t-147 36.5q-103 0 -194.5 -44.5t-158 -120.5t-114.5 -174.5t-72 -209t-24 -221.5q0 -140 41 -253t109.5 -183.5t154.5 -108t181 -37.5q88 0 172 33.5t156 98.5t125.5 170t74.5 237h24v-385
q-108 -108 -256 -172t-315 -64q-156 0 -295.5 59.5t-240 161t-159.5 241.5t-59 296t59 296t159.5 241.5t240 161t295.5 59.5q167 0 315 -64t256 -172z" />
    <glyph glyph-name="C" unicode="c" horiz-adv-x="1488" 
d="M1386 1247l-186 -514l-22 6q41 178 37.5 304t-48 205.5t-109.5 116t-147 36.5q-103 0 -194.5 -44.5t-158 -120.5t-114.5 -174.5t-72 -209t-24 -221.5q0 -140 41 -253t109.5 -183.5t154.5 -108t181 -37.5q88 0 172 33.5t156 98.5t125.5 170t74.5 237h24v-385
q-108 -108 -256 -172t-315 -64q-156 0 -295.5 59.5t-240 161t-159.5 241.5t-59 296t59 296t159.5 241.5t240 161t295.5 59.5q167 0 315 -64t256 -172z" />
    <glyph glyph-name="D" unicode="D" horiz-adv-x="1597" 
d="M766 1434q168 0 311 -53t244 -147t158 -227.5t57 -289.5q0 -197 -100.5 -361.5t-277.5 -260t-392 -95.5h-766v25q52 3 76.5 17t35.5 53t11 120v1004q0 81 -11 120t-35.5 53t-76.5 17v25h766zM430 74h201q115 0 213 44.5t166.5 119.5t117.5 173t72 205.5t23 217.5
q0 526 -482 526h-311v-1286z" />
    <glyph glyph-name="D" unicode="d" horiz-adv-x="1597" 
d="M766 1434q168 0 311 -53t244 -147t158 -227.5t57 -289.5q0 -197 -100.5 -361.5t-277.5 -260t-392 -95.5h-766v25q52 3 76.5 17t35.5 53t11 120v1004q0 81 -11 120t-35.5 53t-76.5 17v25h766zM430 74h201q115 0 213 44.5t166.5 119.5t117.5 173t72 205.5t23 217.5
q0 526 -482 526h-311v-1286z" />
    <glyph glyph-name="E" unicode="E" horiz-adv-x="1116" 
d="M0 1434h1010l39 -414l-25 -2q-9 81 -17.5 133t-21.5 92.5t-27 61.5t-38.5 34.5t-51 17t-69.5 3.5h-369v-352l440 -25v-25l-440 -24v-860h324q62 0 92.5 1.5t71 16.5t57.5 34.5t42 72t36 111.5t28.5 170.5t29 232t28.5 311.5h24l-76 -1024h-1087v25q52 3 76.5 17t35.5 53
t11 120v1004q0 81 -11 120t-35.5 53t-76.5 17v25z" />
    <glyph glyph-name="E" unicode="e" horiz-adv-x="1116" 
d="M0 1434h1010l39 -414l-25 -2q-9 81 -17.5 133t-21.5 92.5t-27 61.5t-38.5 34.5t-51 17t-69.5 3.5h-369v-352l440 -25v-25l-440 -24v-860h324q62 0 92.5 1.5t71 16.5t57.5 34.5t42 72t36 111.5t28.5 170.5t29 232t28.5 311.5h24l-76 -1024h-1087v25q52 3 76.5 17t35.5 53
t11 120v1004q0 81 -11 120t-35.5 53t-76.5 17v25z" />
    <glyph glyph-name="F" unicode="F" horiz-adv-x="1009" 
d="M0 1434h1075l-340 -856l-20 8q163 431 192 565q29 132 -15 174q-33 31 -144 34q-23 1 -66 1h-252v-359l279 -24v-25l-279 -24v-713q0 -38 0.5 -59.5t6 -45t11.5 -34.5t23 -22.5t34.5 -15.5t51.5 -8t68.5 -4.5t91.5 -0.5v-25h-717v25q52 3 76.5 17t35.5 53t11 120v1004
q0 81 -11 120t-35.5 53t-76.5 17v25z" />
    <glyph glyph-name="F" unicode="f" horiz-adv-x="1009" 
d="M0 1434h1075l-340 -856l-20 8q163 431 192 565q29 132 -15 174q-33 31 -144 34q-23 1 -66 1h-252v-359l279 -24v-25l-279 -24v-713q0 -38 0.5 -59.5t6 -45t11.5 -34.5t23 -22.5t34.5 -15.5t51.5 -8t68.5 -4.5t91.5 -0.5v-25h-717v25q52 3 76.5 17t35.5 53t11 120v1004
q0 81 -11 120t-35.5 53t-76.5 17v25z" />
    <glyph glyph-name="G" unicode="G" horiz-adv-x="1550" 
d="M1386 1247l-157 -428l-23 8q44 193 9.5 320.5t-114.5 190.5t-190 63q-103 0 -194.5 -44.5t-158 -120.5t-114.5 -174.5t-72 -209t-24 -221.5q0 -140 41 -253t109.5 -183.5t154.5 -108t181 -37.5q140 0 253 49v342q0 68 -2.5 106t-15 72.5t-30 49.5t-56.5 26.5t-84.5 14
t-124.5 2.5v24h612v-24v-170v-338q-109 -108 -257.5 -172t-313.5 -64q-156 0 -295.5 59.5t-240 161t-159.5 241.5t-59 296t59 296t159.5 241.5t240 161t295.5 59.5q167 0 315 -64t256 -172z" />
    <glyph glyph-name="G" unicode="g" horiz-adv-x="1550" 
d="M1386 1247l-157 -428l-23 8q44 193 9.5 320.5t-114.5 190.5t-190 63q-103 0 -194.5 -44.5t-158 -120.5t-114.5 -174.5t-72 -209t-24 -221.5q0 -140 41 -253t109.5 -183.5t154.5 -108t181 -37.5q140 0 253 49v342q0 68 -2.5 106t-15 72.5t-30 49.5t-56.5 26.5t-84.5 14
t-124.5 2.5v24h612v-24v-170v-338q-109 -108 -257.5 -172t-313.5 -64q-156 0 -295.5 59.5t-240 161t-159.5 241.5t-59 296t59 296t159.5 241.5t240 161t295.5 59.5q167 0 315 -64t256 -172z" />
    <glyph glyph-name="H" unicode="H" horiz-adv-x="1433" 
d="M758 1434h676v-25q-52 -3 -76.5 -17t-35.5 -53t-11 -120v-1004q0 -81 11 -120t35.5 -53t76.5 -17v-25h-676v25q59 2 95.5 5t66 12t44.5 20t25 34t12.5 49.5t2.5 69.5v709h-574v-709q0 -43 2.5 -69.5t12.5 -49.5t25 -34t44.5 -20t66 -12t95.5 -5v-25h-676v25q52 3 76.5 17
t35.5 53t11 120v1004q0 81 -11 120t-35.5 53t-76.5 17v25h676v-25q-59 -2 -95.5 -5t-66 -12t-44.5 -20t-25 -34t-12.5 -49.5t-2.5 -69.5v-222h574v222q0 43 -2.5 69.5t-12.5 49.5t-25 34t-44.5 20t-66 12t-95.5 5v25z" />
    <glyph glyph-name="H" unicode="h" horiz-adv-x="1433" 
d="M758 1434h676v-25q-52 -3 -76.5 -17t-35.5 -53t-11 -120v-1004q0 -81 11 -120t35.5 -53t76.5 -17v-25h-676v25q59 2 95.5 5t66 12t44.5 20t25 34t12.5 49.5t2.5 69.5v709h-574v-709q0 -43 2.5 -69.5t12.5 -49.5t25 -34t44.5 -20t66 -12t95.5 -5v-25h-676v25q52 3 76.5 17
t35.5 53t11 120v1004q0 81 -11 120t-35.5 53t-76.5 17v25h676v-25q-59 -2 -95.5 -5t-66 -12t-44.5 -20t-25 -34t-12.5 -49.5t-2.5 -69.5v-222h574v222q0 43 -2.5 69.5t-12.5 49.5t-25 34t-44.5 20t-66 12t-95.5 5v25z" />
    <glyph glyph-name="I" unicode="I" horiz-adv-x="583" 
d="M0 1434h584v-25q-45 -2 -69.5 -9t-41.5 -28.5t-22 -56t-5 -96.5v-1004q0 -62 5 -96.5t22 -56t41.5 -28.5t69.5 -9v-25h-584v25q61 3 88.5 17.5t39 52.5t11.5 120v1004q0 82 -11.5 120t-39 52.5t-88.5 17.5v25z" />
    <glyph glyph-name="I" unicode="i" horiz-adv-x="583" 
d="M0 1434h584v-25q-45 -2 -69.5 -9t-41.5 -28.5t-22 -56t-5 -96.5v-1004q0 -62 5 -96.5t22 -56t41.5 -28.5t69.5 -9v-25h-584v25q61 3 88.5 17.5t39 52.5t11.5 120v1004q0 82 -11.5 120t-39 52.5t-88.5 17.5v25z" />
    <glyph glyph-name="J" unicode="J" horiz-adv-x="624" 
d="M-23 1434h648v-25q-45 -2 -69.5 -9t-41.5 -28.5t-22 -56t-5 -96.5v-971q0 -286 -184 -451.5t-528 -165.5v25q220 49 312.5 190.5t92.5 425.5v947q0 43 -2.5 69.5t-11 49t-21 34.5t-37 20.5t-54.5 11.5t-77 5v25z" />
    <glyph glyph-name="J" unicode="j" horiz-adv-x="624" 
d="M-23 1434h648v-25q-45 -2 -69.5 -9t-41.5 -28.5t-22 -56t-5 -96.5v-971q0 -286 -184 -451.5t-528 -165.5v25q220 49 312.5 190.5t92.5 425.5v947q0 43 -2.5 69.5t-11 49t-21 34.5t-37 20.5t-54.5 11.5t-77 5v25z" />
    <glyph glyph-name="K" unicode="K" horiz-adv-x="1288" 
d="M0 1434h676v-25q-59 -2 -95.5 -5t-66 -12t-44.5 -20t-25 -34t-12.5 -49.5t-2.5 -69.5v-402l426 402q35 33 56.5 54.5t38.5 42.5t21.5 33t0 23.5t-19 17t-42.5 10t-63.5 6.5t-89.5 3v25h633v-25q-61 -2 -98.5 -4t-76 -12.5t-59 -18.5t-57 -35t-60 -48.5t-77.5 -71.5
l-101 -93l352 -870q29 -72 63.5 -127.5t57.5 -77.5t35 -26v-25q-160 -42 -294.5 32.5t-198.5 243.5l-242 639l-205 -190v-510q0 -43 2.5 -69.5t12.5 -49.5t25 -34t44.5 -20t66 -12t95.5 -5v-25h-676v25q52 3 76.5 17t35.5 53t11 120v1004q0 81 -11 120t-35.5 53t-76.5 17v25
z" />
    <glyph glyph-name="K" unicode="k" horiz-adv-x="1288" 
d="M0 1434h676v-25q-59 -2 -95.5 -5t-66 -12t-44.5 -20t-25 -34t-12.5 -49.5t-2.5 -69.5v-402l426 402q35 33 56.5 54.5t38.5 42.5t21.5 33t0 23.5t-19 17t-42.5 10t-63.5 6.5t-89.5 3v25h633v-25q-61 -2 -98.5 -4t-76 -12.5t-59 -18.5t-57 -35t-60 -48.5t-77.5 -71.5
l-101 -93l352 -870q29 -72 63.5 -127.5t57.5 -77.5t35 -26v-25q-160 -42 -294.5 32.5t-198.5 243.5l-242 639l-205 -190v-510q0 -43 2.5 -69.5t12.5 -49.5t25 -34t44.5 -20t66 -12t95.5 -5v-25h-676v25q52 3 76.5 17t35.5 53t11 120v1004q0 81 -11 120t-35.5 53t-76.5 17v25
z" />
    <glyph glyph-name="L" unicode="L" horiz-adv-x="921" 
d="M0 1434h676v-25q-59 -2 -95.5 -5t-66 -12t-44.5 -20t-25 -34t-12.5 -49.5t-2.5 -69.5v-1145h232q135 0 177 19q58 27 52 116q-9 109 -137 440q-27 71 -66 168l23 8l344 -825h-1055v25q52 3 76.5 17t35.5 53t11 120v1004q0 81 -11 120t-35.5 53t-76.5 17v25z" />
    <glyph glyph-name="L" unicode="l" horiz-adv-x="921" 
d="M0 1434h676v-25q-59 -2 -95.5 -5t-66 -12t-44.5 -20t-25 -34t-12.5 -49.5t-2.5 -69.5v-1145h232q135 0 177 19q58 27 52 116q-9 109 -137 440q-27 71 -66 168l23 8l344 -825h-1055v25q52 3 76.5 17t35.5 53t11 120v1004q0 81 -11 120t-35.5 53t-76.5 17v25z" />
    <glyph glyph-name="M" unicode="M" horiz-adv-x="1720" 
d="M0 1749l18 10l844 -1306l840 1306l18 -10q-51 -93 -74 -139.5t-42 -114t-24 -137t-5 -187.5v-956q0 -81 11 -120t35.5 -53t76.5 -17v-25h-895v25q116 2 187.5 4.5t128 12t83 20t43.5 35t20 49t3 69.5v733l-539 -839h-10l-500 774v-668q0 -45 3 -69.5t18.5 -49t39.5 -35
t75 -19.5t115 -12t169 -5v-25h-616v25q52 3 76 17t35 53t11 120v956q0 118 -5 187.5t-24 137t-42 114t-74 139.5z" />
    <glyph glyph-name="M" unicode="m" horiz-adv-x="1720" 
d="M0 1749l18 10l844 -1306l840 1306l18 -10q-51 -93 -74 -139.5t-42 -114t-24 -137t-5 -187.5v-956q0 -81 11 -120t35.5 -53t76.5 -17v-25h-895v25q116 2 187.5 4.5t128 12t83 20t43.5 35t20 49t3 69.5v733l-539 -839h-10l-500 774v-668q0 -45 3 -69.5t18.5 -49t39.5 -35
t75 -19.5t115 -12t169 -5v-25h-616v25q52 3 76 17t35 53t11 120v956q0 118 -5 187.5t-24 137t-42 114t-74 139.5z" />
    <glyph glyph-name="N" unicode="N" horiz-adv-x="1454" 
d="M41 1694l18 14l1158 -1315v826q0 46 -3.5 70t-21.5 48.5t-47 35t-90.5 20t-139.5 12t-206 4.5v25h745v-25q-73 -3 -105.5 -17.5t-45.5 -52t-13 -120.5v-1016q0 -131 6 -190t31.5 -121.5t85.5 -151.5l-18 -14l-1157 1314v-825q0 -34 1.5 -54t10 -42t21 -33t40 -23.5
t61.5 -17.5t90.5 -10t121.5 -7t161 -3v-25h-745v25q73 3 105.5 17.5t45.5 52t13 120.5v1016q0 101 -2.5 148t-15 103.5t-36 100.5t-69.5 111z" />
    <glyph glyph-name="N" unicode="n" horiz-adv-x="1454" 
d="M41 1694l18 14l1158 -1315v826q0 46 -3.5 70t-21.5 48.5t-47 35t-90.5 20t-139.5 12t-206 4.5v25h745v-25q-73 -3 -105.5 -17.5t-45.5 -52t-13 -120.5v-1016q0 -131 6 -190t31.5 -121.5t85.5 -151.5l-18 -14l-1157 1314v-825q0 -34 1.5 -54t10 -42t21 -33t40 -23.5
t61.5 -17.5t90.5 -10t121.5 -7t161 -3v-25h-745v25q73 3 105.5 17.5t45.5 52t13 120.5v1016q0 101 -2.5 148t-15 103.5t-36 100.5t-69.5 111z" />
    <glyph glyph-name="O" unicode="O" horiz-adv-x="1638" 
d="M819 -33q-208 0 -382 101t-275 275t-101 382t101 382t275 275t382 101t382 -101t275 -275t101 -382t-101 -382t-275 -275t-382 -101zM348 541q0 -230 91 -361t263 -131q86 0 167 40t144 107t116 154t88 183t54 193t19 183q0 230 -91 361t-263 131q-86 0 -167 -40
t-144 -107t-116 -154t-88 -183t-54 -193t-19 -183z" />
    <glyph glyph-name="O" unicode="o" horiz-adv-x="1638" 
d="M819 -33q-208 0 -382 101t-275 275t-101 382t101 382t275 275t382 101t382 -101t275 -275t101 -382t-101 -382t-275 -275t-382 -101zM348 541q0 -230 91 -361t263 -131q86 0 167 40t144 107t116 154t88 183t54 193t19 183q0 230 -91 361t-263 131q-86 0 -167 -40
t-144 -107t-116 -154t-88 -183t-54 -193t-19 -183z" />
    <glyph glyph-name="P" unicode="P" horiz-adv-x="1210" 
d="M649 1434q267 0 422.5 -121t155.5 -332q0 -110 -46.5 -200.5t-125 -148.5t-179 -89t-212.5 -31q-81 0 -152 14v21h4q195 0 299.5 119t104.5 309q0 169 -97.5 277t-247.5 108h-145v-1145q0 -44 2.5 -69.5t14.5 -49t30 -34.5t55 -20t83.5 -12t121.5 -5v-25h-737v25
q52 3 76.5 17t35.5 53t11 120v1004q0 81 -11 120t-35.5 53t-76.5 17v25h649z" />
    <glyph glyph-name="P" unicode="p" horiz-adv-x="1210" 
d="M649 1434q267 0 422.5 -121t155.5 -332q0 -110 -46.5 -200.5t-125 -148.5t-179 -89t-212.5 -31q-81 0 -152 14v21h4q195 0 299.5 119t104.5 309q0 169 -97.5 277t-247.5 108h-145v-1145q0 -44 2.5 -69.5t14.5 -49t30 -34.5t55 -20t83.5 -12t121.5 -5v-25h-737v25
q52 3 76.5 17t35.5 53t11 120v1004q0 81 -11 120t-35.5 53t-76.5 17v25h649z" />
    <glyph glyph-name="Q" unicode="Q" horiz-adv-x="1669" 
d="M1792 -322q-128 -28 -225 -28q-366 0 -512 354q-110 -37 -236 -37q-208 0 -382 101t-275 275t-101 382t101 382t275 275t382 101t382 -101t275 -275t101 -382q0 -196 -91 -363t-247 -270q108 -187 252.5 -288t300.5 -101v-25zM348 909q0 -86 19 -183t54 -193t88 -183
t116 -154t144 -107t167 -40q52 0 108 17l-380 1067l22 10l496 -987q108 129 108 385q0 86 -19 183t-54 193t-88 183t-116 154t-144 107t-167 40q-172 0 -263 -131t-91 -361z" />
    <glyph glyph-name="Q" unicode="q" horiz-adv-x="1669" 
d="M1792 -322q-128 -28 -225 -28q-366 0 -512 354q-110 -37 -236 -37q-208 0 -382 101t-275 275t-101 382t101 382t275 275t382 101t382 -101t275 -275t101 -382q0 -196 -91 -363t-247 -270q108 -187 252.5 -288t300.5 -101v-25zM348 909q0 -86 19 -183t54 -193t88 -183
t116 -154t144 -107t167 -40q52 0 108 17l-380 1067l22 10l496 -987q108 129 108 385q0 86 -19 183t-54 193t-88 183t-116 154t-144 107t-167 40q-172 0 -263 -131t-91 -361z" />
    <glyph glyph-name="R" unicode="R" horiz-adv-x="1370" 
d="M764 1434q251 0 391.5 -81t140.5 -227q0 -117 -83.5 -193t-239.5 -102l254 -567q47 -106 96.5 -164t87.5 -75v-25q-170 -33 -311.5 37t-210.5 235l-275 654l17 20q67 -33 137 -33q92 0 154.5 61t62.5 152q0 105 -73.5 169.5t-223.5 64.5h-258v-1145q0 -43 2.5 -69.5
t12.5 -49.5t25 -34t44.5 -20t66 -12t95.5 -5v-25h-676v25q52 3 76.5 17t35.5 53t11 120v1004q0 81 -11 120t-35.5 53t-76.5 17v25h764z" />
    <glyph glyph-name="R" unicode="r" horiz-adv-x="1370" 
d="M764 1434q251 0 391.5 -81t140.5 -227q0 -117 -83.5 -193t-239.5 -102l254 -567q47 -106 96.5 -164t87.5 -75v-25q-170 -33 -311.5 37t-210.5 235l-275 654l17 20q67 -33 137 -33q92 0 154.5 61t62.5 152q0 105 -73.5 169.5t-223.5 64.5h-258v-1145q0 -43 2.5 -69.5
t12.5 -49.5t25 -34t44.5 -20t66 -12t95.5 -5v-25h-676v25q52 3 76.5 17t35.5 53t11 120v1004q0 81 -11 120t-35.5 53t-76.5 17v25h764z" />
    <glyph glyph-name="S" unicode="S" horiz-adv-x="995" 
d="M819 1409l-28 -610l-25 2q0 152 -14 262t-35.5 173.5t-56.5 100.5t-68.5 48.5t-79.5 11.5q-75 0 -125.5 -45t-50.5 -117q0 -57 29 -107.5t96 -123.5l289 -322q145 -164 145 -346q0 -156 -109 -258.5t-303 -102.5q-210 0 -364 119l67 602l25 -2q-9 -169 5 -293t39.5 -190
t67.5 -104.5t76 -48t78 -9.5q74 0 126 44t52 120q0 68 -32.5 129t-98.5 135l-288 322q-70 77 -107 164.5t-37 171.5q0 145 107.5 240t308.5 95q158 0 311 -61z" />
    <glyph glyph-name="S" unicode="s" horiz-adv-x="995" 
d="M819 1409l-28 -610l-25 2q0 152 -14 262t-35.5 173.5t-56.5 100.5t-68.5 48.5t-79.5 11.5q-75 0 -125.5 -45t-50.5 -117q0 -57 29 -107.5t96 -123.5l289 -322q145 -164 145 -346q0 -156 -109 -258.5t-303 -102.5q-210 0 -364 119l67 602l25 -2q-9 -169 5 -293t39.5 -190
t67.5 -104.5t76 -48t78 -9.5q74 0 126 44t52 120q0 68 -32.5 129t-98.5 135l-288 322q-70 77 -107 164.5t-37 171.5q0 145 107.5 240t308.5 95q158 0 311 -61z" />
    <glyph glyph-name="T" unicode="T" horiz-adv-x="1024" 
d="M39 1434h1026l49 -822h-24q-16 157 -25 244.5t-24.5 181t-24.5 135.5t-32.5 87.5t-39.5 58t-55 26.5t-69.5 14.5t-92.5 0.5h-20v-1145q0 -47 3.5 -73t16.5 -52t40 -38t71.5 -19.5t113.5 -7.5h154v-25h-1106v25h154q69 0 113.5 7.5t71.5 19.5t40 38t16.5 52t3.5 73v1145
h-63q-110 0 -150 -17q-57 -24 -86 -112q-34 -103 -68 -448q-6 -66 -16 -171h-24z" />
    <glyph glyph-name="T" unicode="t" horiz-adv-x="1024" 
d="M39 1434h1026l49 -822h-24q-16 157 -25 244.5t-24.5 181t-24.5 135.5t-32.5 87.5t-39.5 58t-55 26.5t-69.5 14.5t-92.5 0.5h-20v-1145q0 -47 3.5 -73t16.5 -52t40 -38t71.5 -19.5t113.5 -7.5h154v-25h-1106v25h154q69 0 113.5 7.5t71.5 19.5t40 38t16.5 52t3.5 73v1145
h-63q-110 0 -150 -17q-57 -24 -86 -112q-34 -103 -68 -448q-6 -66 -16 -171h-24z" />
    <glyph glyph-name="U" unicode="U" horiz-adv-x="1404" 
d="M-20 1434h811v-25q-63 -1 -106 -3t-81 -7t-61 -10.5t-42 -17t-28 -23.5t-15 -33t-7.5 -42t-1.5 -54v-678q0 -211 100.5 -334t273.5 -123t282 119t109 313v703q0 33 -1.5 54t-7.5 42t-15 33t-28 23.5t-42 17t-61 10.5t-81 7t-106 3v25h598v-25q-51 -2 -80.5 -7t-51.5 -16
t-32 -33.5t-14 -52.5t-4 -81v-691q0 -262 -154 -411.5t-419 -149.5q-264 0 -419 148t-155 401v703q0 83 -12.5 120.5t-44.5 52t-104 17.5v25z" />
    <glyph glyph-name="U" unicode="u" horiz-adv-x="1404" 
d="M-20 1434h811v-25q-63 -1 -106 -3t-81 -7t-61 -10.5t-42 -17t-28 -23.5t-15 -33t-7.5 -42t-1.5 -54v-678q0 -211 100.5 -334t273.5 -123t282 119t109 313v703q0 33 -1.5 54t-7.5 42t-15 33t-28 23.5t-42 17t-61 10.5t-81 7t-106 3v25h598v-25q-51 -2 -80.5 -7t-51.5 -16
t-32 -33.5t-14 -52.5t-4 -81v-691q0 -262 -154 -411.5t-419 -149.5q-264 0 -419 148t-155 401v703q0 83 -12.5 120.5t-44.5 52t-104 17.5v25z" />
    <glyph glyph-name="V" unicode="V" horiz-adv-x="1187" 
d="M-106 1434h780v-25q-88 0 -141 -2t-93 -11t-56.5 -19.5t-22 -35t0.5 -50.5t21 -72l340 -1002l371 1002q13 35 19 56t7 43.5t-5 34t-24 23.5t-43.5 17t-69 9.5t-95 5.5t-127.5 1v25h590v-25q-64 0 -94.5 -33.5t-77.5 -158.5l-455 -1217q-59 0 -116 -28t-91 -87l-453 1332
q-42 124 -72 158t-93 34v25z" />
    <glyph glyph-name="V" unicode="v" horiz-adv-x="1187" 
d="M-106 1434h780v-25q-88 0 -141 -2t-93 -11t-56.5 -19.5t-22 -35t0.5 -50.5t21 -72l340 -1002l371 1002q13 35 19 56t7 43.5t-5 34t-24 23.5t-43.5 17t-69 9.5t-95 5.5t-127.5 1v25h590v-25q-64 0 -94.5 -33.5t-77.5 -158.5l-455 -1217q-59 0 -116 -28t-91 -87l-453 1332
q-42 124 -72 158t-93 34v25z" />
    <glyph glyph-name="W" unicode="W" horiz-adv-x="2045" 
d="M-76 1434h1037v-25h-273q-88 0 -140.5 -2t-92 -11t-56.5 -19.5t-22 -35t0.5 -50t19.5 -72.5l303 -983l381 1300h4l510 -1333l320 1016q11 36 16.5 57.5t6.5 44t-4 34t-20.5 23t-37 16.5t-60 9t-82 5t-110.5 1h-407v25h944v-25q-61 0 -91 -33.5t-77 -156.5l-383 -1219
q-57 -7 -115 -36t-92 -79l-420 1061l-274 -946q-57 -7 -115 -36t-92 -79l-432 1334q-38 119 -67.5 154.5t-78.5 35.5v25z" />
    <glyph glyph-name="W" unicode="w" horiz-adv-x="2045" 
d="M-76 1434h1037v-25h-273q-88 0 -140.5 -2t-92 -11t-56.5 -19.5t-22 -35t0.5 -50t19.5 -72.5l303 -983l381 1300h4l510 -1333l320 1016q11 36 16.5 57.5t6.5 44t-4 34t-20.5 23t-37 16.5t-60 9t-82 5t-110.5 1h-407v25h944v-25q-61 0 -91 -33.5t-77 -156.5l-383 -1219
q-57 -7 -115 -36t-92 -79l-420 1061l-274 -946q-57 -7 -115 -36t-92 -79l-432 1334q-38 119 -67.5 154.5t-78.5 35.5v25z" />
    <glyph glyph-name="X" unicode="X" horiz-adv-x="1316" 
d="M-78 1434h764v-21q-93 0 -141 -5t-68.5 -22.5t-12.5 -44t40 -75.5l233 -357l228 357q31 49 38.5 75.5t-14.5 44t-72.5 22.5t-148.5 5v21h573v-21q-49 0 -80.5 -2t-61 -11t-47 -19.5t-41 -36.5t-41 -51t-48.5 -74l-242 -377l410 -625q86 -130 128 -163.5t120 -33.5v-20
h-795l-2 20q70 0 115.5 2t77.5 9t46 16.5t15.5 27.5t-8.5 39t-31 54l-311 475l-303 -475q-21 -33 -30.5 -54t-7.5 -39t16.5 -27.5t48 -16.5t80.5 -9t120 -2v-20h-604v20q59 0 95 5t65 14t55 35.5t47 55t59 87.5l316 494l-332 506q-86 130 -128 163t-120 33v21z" />
    <glyph glyph-name="X" unicode="x" horiz-adv-x="1316" 
d="M-78 1434h764v-21q-93 0 -141 -5t-68.5 -22.5t-12.5 -44t40 -75.5l233 -357l228 357q31 49 38.5 75.5t-14.5 44t-72.5 22.5t-148.5 5v21h573v-21q-49 0 -80.5 -2t-61 -11t-47 -19.5t-41 -36.5t-41 -51t-48.5 -74l-242 -377l410 -625q86 -130 128 -163.5t120 -33.5v-20
h-795l-2 20q70 0 115.5 2t77.5 9t46 16.5t15.5 27.5t-8.5 39t-31 54l-311 475l-303 -475q-21 -33 -30.5 -54t-7.5 -39t16.5 -27.5t48 -16.5t80.5 -9t120 -2v-20h-604v20q59 0 95 5t65 14t55 35.5t47 55t59 87.5l316 494l-332 506q-86 130 -128 163t-120 33v21z" />
    <glyph glyph-name="Y" unicode="Y" horiz-adv-x="1267" 
d="M119 1217q-50 71 -75.5 102.5t-58.5 55.5t-63.5 29t-85.5 5v25h869v-25q-224 0 -269 -26q-36 -20 -5 -75q9 -16 26 -40l309 -437l297 435q50 73 37 100q-17 34 -152 40q-54 3 -141 3v25h625v-25q-55 0 -88.5 -5t-61 -13.5t-53.5 -34.5t-48 -54t-61 -85l-293 -429v-593
q0 -56 6.5 -85t34 -49.5t73 -27t132.5 -8.5v-25h-799v25q87 2 132.5 8.5t73 27t34 49.5t6.5 85v452z" />
    <glyph glyph-name="Y" unicode="y" horiz-adv-x="1267" 
d="M119 1217q-50 71 -75.5 102.5t-58.5 55.5t-63.5 29t-85.5 5v25h869v-25q-224 0 -269 -26q-36 -20 -5 -75q9 -16 26 -40l309 -437l297 435q50 73 37 100q-17 34 -152 40q-54 3 -141 3v25h625v-25q-55 0 -88.5 -5t-61 -13.5t-53.5 -34.5t-48 -54t-61 -85l-293 -429v-593
q0 -56 6.5 -85t34 -49.5t73 -27t132.5 -8.5v-25h-799v25q87 2 132.5 8.5t73 27t34 49.5t6.5 85v452z" />
    <glyph glyph-name="Z" unicode="Z" horiz-adv-x="1167" 
d="M154 1434h972l-630 -1360h317q103 0 133 16q41 23 32 107q-9 86 -99 378l22 11l225 -586h-1003l631 1360h-287q-103 0 -133 -16q-42 -24 -32 -109q10 -87 99 -377l-22 -10z" />
    <glyph glyph-name="Z" unicode="z" horiz-adv-x="1167" 
d="M154 1434h972l-630 -1360h317q103 0 133 16q41 23 32 107q-9 86 -99 378l22 11l225 -586h-1003l631 1360h-287q-103 0 -133 -16q-42 -24 -32 -109q10 -87 99 -377l-22 -10z" />
    <glyph glyph-name="bracketleft" unicode="[" horiz-adv-x="716" 
d="M106 1638l488 -82l-2 -22l-199 -23v-1589l199 -22l2 -23l-488 -82v1843z" />
    <glyph glyph-name="backslash" unicode="\" horiz-adv-x="1105" 
d="M-29 2019l1217 -2572l-23 -10l-1284 2537z" />
    <glyph glyph-name="bracketright" unicode="]" horiz-adv-x="716" 
d="M610 1638v-1843l-487 82l2 23l199 22v1589l-199 23l-2 22z" />
    <glyph glyph-name="asciicircum" unicode="^" horiz-adv-x="1228" 
d="M1040 1024l-12 -14l-412 336l-413 -336l-13 14l426 477z" />
    <glyph glyph-name="underscore" unicode="_" horiz-adv-x="1536" 
d="M92 59l1352 31v-102l-1352 30v41z" />
    <glyph glyph-name="braceleft" unicode="{" horiz-adv-x="962" 
d="M879 -190q-209 0 -301 31t-150 132q-26 49 -42.5 135.5t-23.5 165.5t-23.5 165.5t-43.5 135.5q-32 60 -88.5 91.5t-155.5 46.5v20q99 15 155.5 47t88.5 92q27 49 43.5 135.5t23.5 166t23.5 166t42.5 135.5q58 101 150 132t301 31v-24q-104 -11 -150 -139
q-24 -67 -41 -190.5t-37.5 -232.5t-58.5 -169q-38 -62 -97.5 -106t-103.5 -44v-16q44 0 103.5 -45t97.5 -107q38 -60 58.5 -169t37.5 -232.5t41 -190.5q46 -128 150 -139v-24z" />
    <glyph glyph-name="braceright" unicode="}" horiz-adv-x="962" 
d="M84 -166q103 11 149 139q24 67 41 190.5t38 232.5t59 169q39 62 97.5 107t102.5 45v16q-44 0 -103 44t-97 106q-38 60 -59 169t-38 232.5t-41 190.5q-46 128 -149 139v24q209 0 301 -31t150 -132q26 -49 42.5 -135.5t23.5 -166t23.5 -166t43.5 -135.5q32 -61 88.5 -92.5
t154.5 -46.5v-20q-99 -15 -155 -46.5t-88 -91.5q-27 -49 -43.5 -135.5t-23.5 -165.5t-23.5 -165.5t-42.5 -135.5q-58 -101 -150 -132t-301 -31v24z" />
    <glyph glyph-name="asciitilde" unicode="~" horiz-adv-x="997" 
d="M457 692q100 -51 180 -51q113 0 199 90l-13 19q-36 -19 -61 -19t-52.5 12t-80 42.5t-88.5 48.5q-100 51 -181 51q-112 0 -198 -90l12 -19q36 19 62 19q25 0 52.5 -12t80 -42.5t88.5 -48.5z" />
    <glyph glyph-name="section" unicode="&#xa7;" horiz-adv-x="1140" 
d="M913 1430l31 -498l-20 -2q-11 92 -29 165t-38 121t-46 83t-48.5 53.5t-51.5 29t-49.5 13t-47.5 2.5q-70 0 -115.5 -36t-45.5 -99q0 -95 112 -213l279 -291q149 -155 149 -320q0 -97 -55.5 -173.5t-157.5 -114.5q142 -157 142 -306q0 -127 -105.5 -206.5t-286.5 -79.5
q-197 0 -346 96l-32 498l20 2q14 -103 35 -185t43.5 -136t52.5 -93t55.5 -59.5t59 -32.5t56.5 -14.5t54 -2.5q66 0 115 39t49 105q0 96 -106 205l-279 290q-149 155 -149 322q0 97 55 173t158 114q-142 159 -142 288q0 79 32 138.5t89 95t129 52.5t158 17q160 0 276 -40z
M344 715q0 -113 139 -258l258 -267q66 43 66 123q0 113 -139 258l-258 267q-66 -43 -66 -123z" />
    <glyph glyph-name="guillemotleft" unicode="&#xab;" horiz-adv-x="1024" 
d="M193 729l309 365l16 -13l-186 -352l186 -352l-16 -12zM461 729l366 506l17 -10l-244 -496l244 -496l-17 -10z" />
    <glyph glyph-name="plusminus" unicode="&#xb1;" horiz-adv-x="942" 
d="M51 850l391 14l-14 232h86l-14 -228l391 15v-86l-395 16l-15 -229h-20l-15 229l-395 16v21zM51 420v20l840 33v-86z" />
    <glyph glyph-name="guillemotright" unicode="&#xbb;" horiz-adv-x="1024" 
d="M831 729l-309 -364l-16 12l186 352l-186 352l16 13zM180 233l244 496l-244 496l17 10l366 -506l-366 -506z" />
    <glyph glyph-name="Agrave" unicode="&#xc0;" horiz-adv-x="1228" 
d="M530 1434q59 0 116 27.5t91 86.5l471 -1333q43 -122 74 -156t94 -34v-25h-801v25q92 0 148 2t98.5 11t60 19.5t23.5 35t0 50.5t-22 72l-52 150h-634l-58 -148q-14 -35 -20.5 -56.5t-8 -44t5 -34.5t25.5 -24t46 -17t73 -9.5t100 -5.5t134 -1v-25h-611v25q63 0 94 33
t80 157zM225 438h580l-275 791zM426 1860l84 69l229 -352l-18 -14z" />
    <glyph glyph-name="Agrave" unicode="&#xe0;" horiz-adv-x="1228" 
d="M530 1434q59 0 116 27.5t91 86.5l471 -1333q43 -122 74 -156t94 -34v-25h-801v25q92 0 148 2t98.5 11t60 19.5t23.5 35t0 50.5t-22 72l-52 150h-634l-58 -148q-14 -35 -20.5 -56.5t-8 -44t5 -34.5t25.5 -24t46 -17t73 -9.5t100 -5.5t134 -1v-25h-611v25q63 0 94 33
t80 157zM225 438h580l-275 791zM426 1860l84 69l229 -352l-18 -14z" />
    <glyph glyph-name="Aacute" unicode="&#xc1;" horiz-adv-x="1228" 
d="M530 1434q59 0 116 27.5t91 86.5l471 -1333q43 -122 74 -156t94 -34v-25h-801v25q92 0 148 2t98.5 11t60 19.5t23.5 35t0 50.5t-22 72l-52 150h-634l-58 -148q-14 -35 -20.5 -56.5t-8 -44t5 -34.5t25.5 -24t46 -17t73 -9.5t100 -5.5t134 -1v-25h-611v25q63 0 94 33
t80 157zM225 438h580l-275 791zM492 1608l229 352l84 -70l-295 -297z" />
    <glyph glyph-name="Aacute" unicode="&#xe1;" horiz-adv-x="1228" 
d="M530 1434q59 0 116 27.5t91 86.5l471 -1333q43 -122 74 -156t94 -34v-25h-801v25q92 0 148 2t98.5 11t60 19.5t23.5 35t0 50.5t-22 72l-52 150h-634l-58 -148q-14 -35 -20.5 -56.5t-8 -44t5 -34.5t25.5 -24t46 -17t73 -9.5t100 -5.5t134 -1v-25h-611v25q63 0 94 33
t80 157zM225 438h580l-275 791zM492 1608l229 352l84 -70l-295 -297z" />
    <glyph glyph-name="Acircumflex" unicode="&#xc2;" horiz-adv-x="1228" 
d="M530 1434q59 0 116 27.5t91 86.5l471 -1333q43 -122 74 -156t94 -34v-25h-801v25q92 0 148 2t98.5 11t60 19.5t23.5 35t0 50.5t-22 72l-52 150h-634l-58 -148q-14 -35 -20.5 -56.5t-8 -44t5 -34.5t25.5 -24t46 -17t73 -9.5t100 -5.5t134 -1v-25h-611v25q63 0 94 33
t80 157zM225 438h580l-275 791zM338 1638l280 244l281 -244l-18 -28l-273 96l-252 -96z" />
    <glyph glyph-name="Acircumflex" unicode="&#xe2;" horiz-adv-x="1228" 
d="M530 1434q59 0 116 27.5t91 86.5l471 -1333q43 -122 74 -156t94 -34v-25h-801v25q92 0 148 2t98.5 11t60 19.5t23.5 35t0 50.5t-22 72l-52 150h-634l-58 -148q-14 -35 -20.5 -56.5t-8 -44t5 -34.5t25.5 -24t46 -17t73 -9.5t100 -5.5t134 -1v-25h-611v25q63 0 94 33
t80 157zM225 438h580l-275 791zM338 1638l280 244l281 -244l-18 -28l-273 96l-252 -96z" />
    <glyph glyph-name="Atilde" unicode="&#xc3;" horiz-adv-x="1228" 
d="M530 1434q59 0 116 27.5t91 86.5l471 -1333q43 -122 74 -156t94 -34v-25h-801v25q92 0 148 2t98.5 11t60 19.5t23.5 35t0 50.5t-22 72l-52 150h-634l-58 -148q-14 -35 -20.5 -56.5t-8 -44t5 -34.5t25.5 -24t46 -17t73 -9.5t100 -5.5t134 -1v-25h-611v25q63 0 94 33
t80 157zM225 438h580l-275 791zM225 1712q34 104 86 152.5t127 48.5q77 0 215 -64q140 -63 215 -63t123 76l21 -11q-33 -103 -85 -151.5t-128 -48.5q-79 0 -215 63q-142 64 -215 64q-75 0 -123 -76z" />
    <glyph glyph-name="Atilde" unicode="&#xe3;" horiz-adv-x="1228" 
d="M530 1434q59 0 116 27.5t91 86.5l471 -1333q43 -122 74 -156t94 -34v-25h-801v25q92 0 148 2t98.5 11t60 19.5t23.5 35t0 50.5t-22 72l-52 150h-634l-58 -148q-14 -35 -20.5 -56.5t-8 -44t5 -34.5t25.5 -24t46 -17t73 -9.5t100 -5.5t134 -1v-25h-611v25q63 0 94 33
t80 157zM225 438h580l-275 791zM225 1712q34 104 86 152.5t127 48.5q77 0 215 -64q140 -63 215 -63t123 76l21 -11q-33 -103 -85 -151.5t-128 -48.5q-79 0 -215 63q-142 64 -215 64q-75 0 -123 -76z" />
    <glyph glyph-name="Adieresis" unicode="&#xc4;" horiz-adv-x="1228" 
d="M530 1434q59 0 116 27.5t91 86.5l471 -1333q43 -122 74 -156t94 -34v-25h-801v25q92 0 148 2t98.5 11t60 19.5t23.5 35t0 50.5t-22 72l-52 150h-634l-58 -148q-14 -35 -20.5 -56.5t-8 -44t5 -34.5t25.5 -24t46 -17t73 -9.5t100 -5.5t134 -1v-25h-611v25q63 0 94 33
t80 157zM225 438h580l-275 791zM342 1753q0 41 29.5 71.5t72.5 30.5q40 0 71.5 -31t31.5 -71q0 -43 -31 -73.5t-72 -30.5q-44 0 -73 30t-29 74zM690 1753q0 39 30 69.5t73 30.5q40 0 71 -31t31 -69q0 -43 -30.5 -73.5t-71.5 -30.5q-44 0 -73.5 30t-29.5 74z" />
    <glyph glyph-name="Adieresis" unicode="&#xe4;" horiz-adv-x="1228" 
d="M530 1434q59 0 116 27.5t91 86.5l471 -1333q43 -122 74 -156t94 -34v-25h-801v25q92 0 148 2t98.5 11t60 19.5t23.5 35t0 50.5t-22 72l-52 150h-634l-58 -148q-14 -35 -20.5 -56.5t-8 -44t5 -34.5t25.5 -24t46 -17t73 -9.5t100 -5.5t134 -1v-25h-611v25q63 0 94 33
t80 157zM225 438h580l-275 791zM342 1753q0 41 29.5 71.5t72.5 30.5q40 0 71.5 -31t31.5 -71q0 -43 -31 -73.5t-72 -30.5q-44 0 -73 30t-29 74zM690 1753q0 39 30 69.5t73 30.5q40 0 71 -31t31 -69q0 -43 -30.5 -73.5t-71.5 -30.5q-44 0 -73.5 30t-29.5 74z" />
    <glyph glyph-name="Aring" unicode="&#xc5;" horiz-adv-x="1228" 
d="M530 1434q59 0 116 27.5t91 86.5l471 -1333q43 -122 74 -156t94 -34v-25h-801v25q92 0 148 2t98.5 11t60 19.5t23.5 35t0 50.5t-22 72l-52 150h-634l-58 -148q-14 -35 -20.5 -56.5t-8 -44t5 -34.5t25.5 -24t46 -17t73 -9.5t100 -5.5t134 -1v-25h-611v25q63 0 94 33
t80 157zM225 438h580l-275 791zM455 1780q0 71 45.5 117.5t117.5 46.5t118 -46.5t46 -117.5q0 -72 -46 -118t-118 -46t-117.5 46t-45.5 118zM547 1765q0 -36 18 -61t43 -25q35 0 58.5 35.5t23.5 79.5q0 36 -18 61t-43 25q-35 0 -58.5 -35.5t-23.5 -79.5z" />
    <glyph glyph-name="Aring" unicode="&#xe5;" horiz-adv-x="1228" 
d="M530 1434q59 0 116 27.5t91 86.5l471 -1333q43 -122 74 -156t94 -34v-25h-801v25q92 0 148 2t98.5 11t60 19.5t23.5 35t0 50.5t-22 72l-52 150h-634l-58 -148q-14 -35 -20.5 -56.5t-8 -44t5 -34.5t25.5 -24t46 -17t73 -9.5t100 -5.5t134 -1v-25h-611v25q63 0 94 33
t80 157zM225 438h580l-275 791zM455 1780q0 71 45.5 117.5t117.5 46.5t118 -46.5t46 -117.5q0 -72 -46 -118t-118 -46t-117.5 46t-45.5 118zM547 1765q0 -36 18 -61t43 -25q35 0 58.5 35.5t23.5 79.5q0 36 -18 61t-43 25q-35 0 -58.5 -35.5t-23.5 -79.5z" />
    <glyph glyph-name="AE" unicode="&#xc6;" horiz-adv-x="1751" 
d="M717 1434h928l38 -414l-24 -2q-9 81 -17.5 133t-21.5 92.5t-27 61.5t-38.5 34.5t-51 17t-69.5 3.5h-369v-352l440 -25v-25l-440 -24v-860h324q62 0 92.5 1.5t71 16.5t57.5 34.5t42 72t36 111.5t28.5 170.5t29 232t28.5 311.5h24l-76 -1024h-1087v25q52 3 76.5 17t35.5 53
t11 120v152h-490l-82 -166q-21 -43 -30.5 -67t-7.5 -46.5t16 -32.5t50.5 -18t86 -10t131.5 -2l-2 -25h-526l2 25q65 0 101.5 31t90.5 139zM305 438h453v912z" />
    <glyph glyph-name="AE" unicode="&#xe6;" horiz-adv-x="1751" 
d="M717 1434h928l38 -414l-24 -2q-9 81 -17.5 133t-21.5 92.5t-27 61.5t-38.5 34.5t-51 17t-69.5 3.5h-369v-352l440 -25v-25l-440 -24v-860h324q62 0 92.5 1.5t71 16.5t57.5 34.5t42 72t36 111.5t28.5 170.5t29 232t28.5 311.5h24l-76 -1024h-1087v25q52 3 76.5 17t35.5 53
t11 120v152h-490l-82 -166q-21 -43 -30.5 -67t-7.5 -46.5t16 -32.5t50.5 -18t86 -10t131.5 -2l-2 -25h-526l2 25q65 0 101.5 31t90.5 139zM305 438h453v912z" />
    <glyph glyph-name="Ccedilla" unicode="&#xc7;" horiz-adv-x="1488" 
d="M1386 1247l-186 -514l-22 6q41 178 37.5 304t-48 205.5t-109.5 116t-147 36.5q-103 0 -194.5 -44.5t-158 -120.5t-114.5 -174.5t-72 -209t-24 -221.5q0 -140 41 -253t109.5 -183.5t154.5 -108t181 -37.5q88 0 172 33.5t156 98.5t125.5 170t74.5 237h24v-385
q-106 -106 -253 -170.5t-312 -65.5l-67 -82q92 6 143 -32t51 -91q0 -59 -53 -98t-126 -47.5t-151 0.5l7 23q74 -7 131 14.5t57 77.5q0 38 -38 70.5t-113 45.5v19l94 102q-145 11 -274 75t-221.5 164t-146 234.5t-53.5 282.5q0 156 59 296t159.5 241.5t240 161t295.5 59.5
q167 0 315 -64t256 -172z" />
    <glyph glyph-name="Ccedilla" unicode="&#xe7;" horiz-adv-x="1488" 
d="M1386 1247l-186 -514l-22 6q41 178 37.5 304t-48 205.5t-109.5 116t-147 36.5q-103 0 -194.5 -44.5t-158 -120.5t-114.5 -174.5t-72 -209t-24 -221.5q0 -140 41 -253t109.5 -183.5t154.5 -108t181 -37.5q88 0 172 33.5t156 98.5t125.5 170t74.5 237h24v-385
q-106 -106 -253 -170.5t-312 -65.5l-67 -82q92 6 143 -32t51 -91q0 -59 -53 -98t-126 -47.5t-151 0.5l7 23q74 -7 131 14.5t57 77.5q0 38 -38 70.5t-113 45.5v19l94 102q-145 11 -274 75t-221.5 164t-146 234.5t-53.5 282.5q0 156 59 296t159.5 241.5t240 161t295.5 59.5
q167 0 315 -64t256 -172z" />
    <glyph glyph-name="Egrave" unicode="&#xc8;" horiz-adv-x="1116" 
d="M0 1434h1010l39 -414l-25 -2q-9 81 -17.5 133t-21.5 92.5t-27 61.5t-38.5 34.5t-51 17t-69.5 3.5h-369v-352l440 -25v-25l-440 -24v-860h324q62 0 92.5 1.5t71 16.5t57.5 34.5t42 72t36 111.5t28.5 170.5t29 232t28.5 311.5h24l-76 -1024h-1087v25q52 3 76.5 17t35.5 53
t11 120v1004q0 81 -11 120t-35.5 53t-76.5 17v25zM391 1860l84 69l230 -352l-19 -14z" />
    <glyph glyph-name="Egrave" unicode="&#xe8;" horiz-adv-x="1116" 
d="M0 1434h1010l39 -414l-25 -2q-9 81 -17.5 133t-21.5 92.5t-27 61.5t-38.5 34.5t-51 17t-69.5 3.5h-369v-352l440 -25v-25l-440 -24v-860h324q62 0 92.5 1.5t71 16.5t57.5 34.5t42 72t36 111.5t28.5 170.5t29 232t28.5 311.5h24l-76 -1024h-1087v25q52 3 76.5 17t35.5 53
t11 120v1004q0 81 -11 120t-35.5 53t-76.5 17v25zM391 1860l84 69l230 -352l-19 -14z" />
    <glyph glyph-name="Eacute" unicode="&#xc9;" horiz-adv-x="1116" 
d="M0 1434h1010l39 -414l-25 -2q-9 81 -17.5 133t-21.5 92.5t-27 61.5t-38.5 34.5t-51 17t-69.5 3.5h-369v-352l440 -25v-25l-440 -24v-860h324q62 0 92.5 1.5t71 16.5t57.5 34.5t42 72t36 111.5t28.5 170.5t29 232t28.5 311.5h24l-76 -1024h-1087v25q52 3 76.5 17t35.5 53
t11 120v1004q0 81 -11 120t-35.5 53t-76.5 17v25zM457 1608l229 352l84 -70l-295 -297z" />
    <glyph glyph-name="Eacute" unicode="&#xe9;" horiz-adv-x="1116" 
d="M0 1434h1010l39 -414l-25 -2q-9 81 -17.5 133t-21.5 92.5t-27 61.5t-38.5 34.5t-51 17t-69.5 3.5h-369v-352l440 -25v-25l-440 -24v-860h324q62 0 92.5 1.5t71 16.5t57.5 34.5t42 72t36 111.5t28.5 170.5t29 232t28.5 311.5h24l-76 -1024h-1087v25q52 3 76.5 17t35.5 53
t11 120v1004q0 81 -11 120t-35.5 53t-76.5 17v25zM457 1608l229 352l84 -70l-295 -297z" />
    <glyph glyph-name="Ecircumflex" unicode="&#xca;" horiz-adv-x="1116" 
d="M0 1434h1010l39 -414l-25 -2q-9 81 -17.5 133t-21.5 92.5t-27 61.5t-38.5 34.5t-51 17t-69.5 3.5h-369v-352l440 -25v-25l-440 -24v-860h324q62 0 92.5 1.5t71 16.5t57.5 34.5t42 72t36 111.5t28.5 170.5t29 232t28.5 311.5h24l-76 -1024h-1087v25q52 3 76.5 17t35.5 53
t11 120v1004q0 81 -11 120t-35.5 53t-76.5 17v25zM303 1638l281 244l280 -244l-18 -28l-273 96l-251 -96z" />
    <glyph glyph-name="Ecircumflex" unicode="&#xea;" horiz-adv-x="1116" 
d="M0 1434h1010l39 -414l-25 -2q-9 81 -17.5 133t-21.5 92.5t-27 61.5t-38.5 34.5t-51 17t-69.5 3.5h-369v-352l440 -25v-25l-440 -24v-860h324q62 0 92.5 1.5t71 16.5t57.5 34.5t42 72t36 111.5t28.5 170.5t29 232t28.5 311.5h24l-76 -1024h-1087v25q52 3 76.5 17t35.5 53
t11 120v1004q0 81 -11 120t-35.5 53t-76.5 17v25zM303 1638l281 244l280 -244l-18 -28l-273 96l-251 -96z" />
    <glyph glyph-name="Edieresis" unicode="&#xcb;" horiz-adv-x="1116" 
d="M0 1434h1010l39 -414l-25 -2q-9 81 -17.5 133t-21.5 92.5t-27 61.5t-38.5 34.5t-51 17t-69.5 3.5h-369v-352l440 -25v-25l-440 -24v-860h324q62 0 92.5 1.5t71 16.5t57.5 34.5t42 72t36 111.5t28.5 170.5t29 232t28.5 311.5h24l-76 -1024h-1087v25q52 3 76.5 17t35.5 53
t11 120v1004q0 81 -11 120t-35.5 53t-76.5 17v25zM307 1753q0 41 30 71.5t73 30.5q40 0 71 -31t31 -71q0 -43 -30.5 -73.5t-71.5 -30.5q-44 0 -73.5 30t-29.5 74zM655 1753q0 39 30 69.5t73 30.5q40 0 71 -31t31 -69q0 -43 -30.5 -73.5t-71.5 -30.5q-44 0 -73.5 30t-29.5 74
z" />
    <glyph glyph-name="Edieresis" unicode="&#xeb;" horiz-adv-x="1116" 
d="M0 1434h1010l39 -414l-25 -2q-9 81 -17.5 133t-21.5 92.5t-27 61.5t-38.5 34.5t-51 17t-69.5 3.5h-369v-352l440 -25v-25l-440 -24v-860h324q62 0 92.5 1.5t71 16.5t57.5 34.5t42 72t36 111.5t28.5 170.5t29 232t28.5 311.5h24l-76 -1024h-1087v25q52 3 76.5 17t35.5 53
t11 120v1004q0 81 -11 120t-35.5 53t-76.5 17v25zM307 1753q0 41 30 71.5t73 30.5q40 0 71 -31t31 -71q0 -43 -30.5 -73.5t-71.5 -30.5q-44 0 -73.5 30t-29.5 74zM655 1753q0 39 30 69.5t73 30.5q40 0 71 -31t31 -69q0 -43 -30.5 -73.5t-71.5 -30.5q-44 0 -73.5 30t-29.5 74
z" />
    <glyph glyph-name="Iacute" unicode="&#xcd;" horiz-adv-x="583" 
d="M0 1434h584v-25q-45 -2 -69.5 -9t-41.5 -28.5t-22 -56t-5 -96.5v-1004q0 -62 5 -96.5t22 -56t41.5 -28.5t69.5 -9v-25h-584v25q61 3 88.5 17.5t39 52.5t11.5 120v1004q0 82 -11.5 120t-39 52.5t-88.5 17.5v25zM166 1608l229 352l84 -70l-295 -297z" />
    <glyph glyph-name="Iacute" unicode="&#xed;" horiz-adv-x="583" 
d="M0 1434h584v-25q-45 -2 -69.5 -9t-41.5 -28.5t-22 -56t-5 -96.5v-1004q0 -62 5 -96.5t22 -56t41.5 -28.5t69.5 -9v-25h-584v25q61 3 88.5 17.5t39 52.5t11.5 120v1004q0 82 -11.5 120t-39 52.5t-88.5 17.5v25zM166 1608l229 352l84 -70l-295 -297z" />
    <glyph glyph-name="Icircumflex" unicode="&#xce;" horiz-adv-x="583" 
d="M0 1434h584v-25q-45 -2 -69.5 -9t-41.5 -28.5t-22 -56t-5 -96.5v-1004q0 -62 5 -96.5t22 -56t41.5 -28.5t69.5 -9v-25h-584v25q61 3 88.5 17.5t39 52.5t11.5 120v1004q0 82 -11.5 120t-39 52.5t-88.5 17.5v25zM12 1638l281 244l280 -244l-18 -28l-272 96l-252 -96z" />
    <glyph glyph-name="Icircumflex" unicode="&#xee;" horiz-adv-x="583" 
d="M0 1434h584v-25q-45 -2 -69.5 -9t-41.5 -28.5t-22 -56t-5 -96.5v-1004q0 -62 5 -96.5t22 -56t41.5 -28.5t69.5 -9v-25h-584v25q61 3 88.5 17.5t39 52.5t11.5 120v1004q0 82 -11.5 120t-39 52.5t-88.5 17.5v25zM12 1638l281 244l280 -244l-18 -28l-272 96l-252 -96z" />
    <glyph glyph-name="Idieresis" unicode="&#xcf;" horiz-adv-x="583" 
d="M0 1434h584v-25q-45 -2 -69.5 -9t-41.5 -28.5t-22 -56t-5 -96.5v-1004q0 -62 5 -96.5t22 -56t41.5 -28.5t69.5 -9v-25h-584v25q61 3 88.5 17.5t39 52.5t11.5 120v1004q0 82 -11.5 120t-39 52.5t-88.5 17.5v25zM16 1753q0 41 30 71.5t73 30.5q40 0 71 -31t31 -71
q0 -43 -30.5 -73.5t-71.5 -30.5q-44 0 -73.5 30t-29.5 74zM365 1753q0 39 29.5 69.5t72.5 30.5q40 0 71 -31t31 -69q0 -43 -30.5 -73.5t-71.5 -30.5q-44 0 -73 30t-29 74z" />
    <glyph glyph-name="Idieresis" unicode="&#xef;" horiz-adv-x="583" 
d="M0 1434h584v-25q-45 -2 -69.5 -9t-41.5 -28.5t-22 -56t-5 -96.5v-1004q0 -62 5 -96.5t22 -56t41.5 -28.5t69.5 -9v-25h-584v25q61 3 88.5 17.5t39 52.5t11.5 120v1004q0 82 -11.5 120t-39 52.5t-88.5 17.5v25zM16 1753q0 41 30 71.5t73 30.5q40 0 71 -31t31 -71
q0 -43 -30.5 -73.5t-71.5 -30.5q-44 0 -73.5 30t-29.5 74zM365 1753q0 39 29.5 69.5t72.5 30.5q40 0 71 -31t31 -69q0 -43 -30.5 -73.5t-71.5 -30.5q-44 0 -73 30t-29 74z" />
    <glyph glyph-name="Eth" unicode="&#xd0;" horiz-adv-x="1597" 
d="M766 1434q168 0 311 -53t244 -147t158 -227.5t57 -289.5q0 -197 -100.5 -361.5t-277.5 -260t-392 -95.5h-766v25q52 3 76.5 17t35.5 53t11 120v496l-123 -6v86l123 -7v435q0 81 -11 120t-35.5 53t-76.5 17v25h766zM430 74h201q115 0 213 44.5t166.5 119.5t117.5 173
t72 205.5t23 217.5q0 526 -482 526h-311v-588l348 -14v-21l-348 -14v-649z" />
    <glyph glyph-name="Eth" unicode="&#xf0;" horiz-adv-x="1597" 
d="M766 1434q168 0 311 -53t244 -147t158 -227.5t57 -289.5q0 -197 -100.5 -361.5t-277.5 -260t-392 -95.5h-766v25q52 3 76.5 17t35.5 53t11 120v496l-123 -6v86l123 -7v435q0 81 -11 120t-35.5 53t-76.5 17v25h766zM430 74h201q115 0 213 44.5t166.5 119.5t117.5 173
t72 205.5t23 217.5q0 526 -482 526h-311v-588l348 -14v-21l-348 -14v-649z" />
    <glyph glyph-name="Ntilde" unicode="&#xd1;" horiz-adv-x="1454" 
d="M41 1694l18 14l1158 -1315v826q0 46 -3.5 70t-21.5 48.5t-47 35t-90.5 20t-139.5 12t-206 4.5v25h745v-25q-73 -3 -105.5 -17.5t-45.5 -52t-13 -120.5v-1016q0 -131 6 -190t31.5 -121.5t85.5 -151.5l-18 -14l-1157 1314v-825q0 -34 1.5 -54t10 -42t21 -33t40 -23.5
t61.5 -17.5t90.5 -10t121.5 -7t161 -3v-25h-745v25q73 3 105.5 17.5t45.5 52t13 120.5v1016q0 101 -2.5 148t-15 103.5t-36 100.5t-69.5 111zM362 1712q34 104 86 152.5t127 48.5q78 0 216 -64q140 -63 215 -63q74 0 122 76l21 -11q-33 -103 -85 -151.5t-128 -48.5
q-79 0 -215 63q-142 64 -215 64q-75 0 -123 -76z" />
    <glyph glyph-name="Ntilde" unicode="&#xf1;" horiz-adv-x="1454" 
d="M41 1694l18 14l1158 -1315v826q0 46 -3.5 70t-21.5 48.5t-47 35t-90.5 20t-139.5 12t-206 4.5v25h745v-25q-73 -3 -105.5 -17.5t-45.5 -52t-13 -120.5v-1016q0 -131 6 -190t31.5 -121.5t85.5 -151.5l-18 -14l-1157 1314v-825q0 -34 1.5 -54t10 -42t21 -33t40 -23.5
t61.5 -17.5t90.5 -10t121.5 -7t161 -3v-25h-745v25q73 3 105.5 17.5t45.5 52t13 120.5v1016q0 101 -2.5 148t-15 103.5t-36 100.5t-69.5 111zM362 1712q34 104 86 152.5t127 48.5q78 0 216 -64q140 -63 215 -63q74 0 122 76l21 -11q-33 -103 -85 -151.5t-128 -48.5
q-79 0 -215 63q-142 64 -215 64q-75 0 -123 -76z" />
    <glyph glyph-name="Ograve" unicode="&#xd2;" horiz-adv-x="1638" 
d="M819 -33q-208 0 -382 101t-275 275t-101 382t101 382t275 275t382 101t382 -101t275 -275t101 -382t-101 -382t-275 -275t-382 -101zM348 541q0 -230 91 -361t263 -131q86 0 167 40t144 107t116 154t88 183t54 193t19 183q0 230 -91 361t-263 131q-86 0 -167 -40
t-144 -107t-116 -154t-88 -183t-54 -193t-19 -183zM645 1860l84 69l229 -352l-18 -14z" />
    <glyph glyph-name="Ograve" unicode="&#xf2;" horiz-adv-x="1638" 
d="M819 -33q-208 0 -382 101t-275 275t-101 382t101 382t275 275t382 101t382 -101t275 -275t101 -382t-101 -382t-275 -275t-382 -101zM348 541q0 -230 91 -361t263 -131q86 0 167 40t144 107t116 154t88 183t54 193t19 183q0 230 -91 361t-263 131q-86 0 -167 -40
t-144 -107t-116 -154t-88 -183t-54 -193t-19 -183zM645 1860l84 69l229 -352l-18 -14z" />
    <glyph glyph-name="Oacute" unicode="&#xd3;" horiz-adv-x="1638" 
d="M819 -33q-208 0 -382 101t-275 275t-101 382t101 382t275 275t382 101t382 -101t275 -275t101 -382t-101 -382t-275 -275t-382 -101zM348 541q0 -230 91 -361t263 -131q86 0 167 40t144 107t116 154t88 183t54 193t19 183q0 230 -91 361t-263 131q-86 0 -167 -40
t-144 -107t-116 -154t-88 -183t-54 -193t-19 -183zM711 1608l229 352l84 -70l-295 -297z" />
    <glyph glyph-name="Oacute" unicode="&#xf3;" horiz-adv-x="1638" 
d="M819 -33q-208 0 -382 101t-275 275t-101 382t101 382t275 275t382 101t382 -101t275 -275t101 -382t-101 -382t-275 -275t-382 -101zM348 541q0 -230 91 -361t263 -131q86 0 167 40t144 107t116 154t88 183t54 193t19 183q0 230 -91 361t-263 131q-86 0 -167 -40
t-144 -107t-116 -154t-88 -183t-54 -193t-19 -183zM711 1608l229 352l84 -70l-295 -297z" />
    <glyph glyph-name="Ocircumflex" unicode="&#xd4;" horiz-adv-x="1638" 
d="M819 -33q-208 0 -382 101t-275 275t-101 382t101 382t275 275t382 101t382 -101t275 -275t101 -382t-101 -382t-275 -275t-382 -101zM348 541q0 -230 91 -361t263 -131q86 0 167 40t144 107t116 154t88 183t54 193t19 183q0 230 -91 361t-263 131q-86 0 -167 -40
t-144 -107t-116 -154t-88 -183t-54 -193t-19 -183zM557 1638l281 244l280 -244l-18 -28l-273 96l-252 -96z" />
    <glyph glyph-name="Ocircumflex" unicode="&#xf4;" horiz-adv-x="1638" 
d="M819 -33q-208 0 -382 101t-275 275t-101 382t101 382t275 275t382 101t382 -101t275 -275t101 -382t-101 -382t-275 -275t-382 -101zM348 541q0 -230 91 -361t263 -131q86 0 167 40t144 107t116 154t88 183t54 193t19 183q0 230 -91 361t-263 131q-86 0 -167 -40
t-144 -107t-116 -154t-88 -183t-54 -193t-19 -183zM557 1638l281 244l280 -244l-18 -28l-273 96l-252 -96z" />
    <glyph glyph-name="Otilde" unicode="&#xd5;" horiz-adv-x="1638" 
d="M819 -33q-208 0 -382 101t-275 275t-101 382t101 382t275 275t382 101t382 -101t275 -275t101 -382t-101 -382t-275 -275t-382 -101zM348 541q0 -230 91 -361t263 -131q86 0 167 40t144 107t116 154t88 183t54 193t19 183q0 230 -91 361t-263 131q-86 0 -167 -40
t-144 -107t-116 -154t-88 -183t-54 -193t-19 -183zM424 1712q34 104 86 152.5t127 48.5q77 0 215 -64q140 -63 215 -63t123 76l20 -11q-33 -103 -85 -151.5t-128 -48.5q-79 0 -215 63q-142 64 -215 64q-75 0 -123 -76z" />
    <glyph glyph-name="Otilde" unicode="&#xf5;" horiz-adv-x="1638" 
d="M819 -33q-208 0 -382 101t-275 275t-101 382t101 382t275 275t382 101t382 -101t275 -275t101 -382t-101 -382t-275 -275t-382 -101zM348 541q0 -230 91 -361t263 -131q86 0 167 40t144 107t116 154t88 183t54 193t19 183q0 230 -91 361t-263 131q-86 0 -167 -40
t-144 -107t-116 -154t-88 -183t-54 -193t-19 -183zM424 1712q34 104 86 152.5t127 48.5q77 0 215 -64q140 -63 215 -63t123 76l20 -11q-33 -103 -85 -151.5t-128 -48.5q-79 0 -215 63q-142 64 -215 64q-75 0 -123 -76z" />
    <glyph glyph-name="Odieresis" unicode="&#xd6;" horiz-adv-x="1638" 
d="M819 -33q-208 0 -382 101t-275 275t-101 382t101 382t275 275t382 101t382 -101t275 -275t101 -382t-101 -382t-275 -275t-382 -101zM348 541q0 -230 91 -361t263 -131q86 0 167 40t144 107t116 154t88 183t54 193t19 183q0 230 -91 361t-263 131q-86 0 -167 -40
t-144 -107t-116 -154t-88 -183t-54 -193t-19 -183zM561 1753q0 41 30 71.5t73 30.5q40 0 71 -31t31 -71q0 -43 -30.5 -73.5t-71.5 -30.5q-44 0 -73.5 30t-29.5 74zM909 1753q0 39 30 69.5t73 30.5q40 0 71 -31t31 -69q0 -43 -30.5 -73.5t-71.5 -30.5q-44 0 -73.5 30
t-29.5 74z" />
    <glyph glyph-name="Odieresis" unicode="&#xf6;" horiz-adv-x="1638" 
d="M819 -33q-208 0 -382 101t-275 275t-101 382t101 382t275 275t382 101t382 -101t275 -275t101 -382t-101 -382t-275 -275t-382 -101zM348 541q0 -230 91 -361t263 -131q86 0 167 40t144 107t116 154t88 183t54 193t19 183q0 230 -91 361t-263 131q-86 0 -167 -40
t-144 -107t-116 -154t-88 -183t-54 -193t-19 -183zM561 1753q0 41 30 71.5t73 30.5q40 0 71 -31t31 -71q0 -43 -30.5 -73.5t-71.5 -30.5q-44 0 -73.5 30t-29.5 74zM909 1753q0 39 30 69.5t73 30.5q40 0 71 -31t31 -69q0 -43 -30.5 -73.5t-71.5 -30.5q-44 0 -73.5 30
t-29.5 74z" />
    <glyph glyph-name="Oslash" unicode="&#xd8;" horiz-adv-x="1638" 
d="M819 -33q-144 0 -274 51l-295 -581l-23 10l279 588q-201 89 -323 275t-122 415q0 208 101 382t275 275t382 101q179 0 334 -76l291 612l90 -45l-307 -608q161 -102 255.5 -271t94.5 -370q0 -208 -101 -382t-275 -275t-382 -101zM348 541q0 -164 47 -279t137 -170
l592 1254q-76 55 -188 55q-86 0 -167 -40t-144 -107t-116 -154t-88 -183t-54 -193t-19 -183zM571 74q61 -25 131 -25q86 0 167 40t144 107t116 154t88 183t54 193t19 183q0 251 -104 379z" />
    <glyph glyph-name="Oslash" unicode="&#xf8;" horiz-adv-x="1638" 
d="M819 -33q-144 0 -274 51l-295 -581l-23 10l279 588q-201 89 -323 275t-122 415q0 208 101 382t275 275t382 101q179 0 334 -76l291 612l90 -45l-307 -608q161 -102 255.5 -271t94.5 -370q0 -208 -101 -382t-275 -275t-382 -101zM348 541q0 -164 47 -279t137 -170
l592 1254q-76 55 -188 55q-86 0 -167 -40t-144 -107t-116 -154t-88 -183t-54 -193t-19 -183zM571 74q61 -25 131 -25q86 0 167 40t144 107t116 154t88 183t54 193t19 183q0 251 -104 379z" />
    <glyph glyph-name="Ugrave" unicode="&#xd9;" horiz-adv-x="1404" 
d="M-20 1434h811v-25q-63 -1 -106 -3t-81 -7t-61 -10.5t-42 -17t-28 -23.5t-15 -33t-7.5 -42t-1.5 -54v-678q0 -211 100.5 -334t273.5 -123t282 119t109 313v703q0 33 -1.5 54t-7.5 42t-15 33t-28 23.5t-42 17t-61 10.5t-81 7t-106 3v25h598v-25q-51 -2 -80.5 -7t-51.5 -16
t-32 -33.5t-14 -52.5t-4 -81v-691q0 -262 -154 -411.5t-419 -149.5q-264 0 -419 148t-155 401v703q0 83 -12.5 120.5t-44.5 52t-104 17.5v25zM594 1860l84 69l229 -352l-18 -14z" />
    <glyph glyph-name="Ugrave" unicode="&#xf9;" horiz-adv-x="1404" 
d="M-20 1434h811v-25q-63 -1 -106 -3t-81 -7t-61 -10.5t-42 -17t-28 -23.5t-15 -33t-7.5 -42t-1.5 -54v-678q0 -211 100.5 -334t273.5 -123t282 119t109 313v703q0 33 -1.5 54t-7.5 42t-15 33t-28 23.5t-42 17t-61 10.5t-81 7t-106 3v25h598v-25q-51 -2 -80.5 -7t-51.5 -16
t-32 -33.5t-14 -52.5t-4 -81v-691q0 -262 -154 -411.5t-419 -149.5q-264 0 -419 148t-155 401v703q0 83 -12.5 120.5t-44.5 52t-104 17.5v25zM594 1860l84 69l229 -352l-18 -14z" />
    <glyph glyph-name="Uacute" unicode="&#xda;" horiz-adv-x="1404" 
d="M-20 1434h811v-25q-63 -1 -106 -3t-81 -7t-61 -10.5t-42 -17t-28 -23.5t-15 -33t-7.5 -42t-1.5 -54v-678q0 -211 100.5 -334t273.5 -123t282 119t109 313v703q0 33 -1.5 54t-7.5 42t-15 33t-28 23.5t-42 17t-61 10.5t-81 7t-106 3v25h598v-25q-51 -2 -80.5 -7t-51.5 -16
t-32 -33.5t-14 -52.5t-4 -81v-691q0 -262 -154 -411.5t-419 -149.5q-264 0 -419 148t-155 401v703q0 83 -12.5 120.5t-44.5 52t-104 17.5v25zM680 1608l229 352l84 -70l-295 -297z" />
    <glyph glyph-name="Uacute" unicode="&#xfa;" horiz-adv-x="1404" 
d="M-20 1434h811v-25q-63 -1 -106 -3t-81 -7t-61 -10.5t-42 -17t-28 -23.5t-15 -33t-7.5 -42t-1.5 -54v-678q0 -211 100.5 -334t273.5 -123t282 119t109 313v703q0 33 -1.5 54t-7.5 42t-15 33t-28 23.5t-42 17t-61 10.5t-81 7t-106 3v25h598v-25q-51 -2 -80.5 -7t-51.5 -16
t-32 -33.5t-14 -52.5t-4 -81v-691q0 -262 -154 -411.5t-419 -149.5q-264 0 -419 148t-155 401v703q0 83 -12.5 120.5t-44.5 52t-104 17.5v25zM680 1608l229 352l84 -70l-295 -297z" />
    <glyph glyph-name="Ucircumflex" unicode="&#xdb;" horiz-adv-x="1404" 
d="M-20 1434h811v-25q-63 -1 -106 -3t-81 -7t-61 -10.5t-42 -17t-28 -23.5t-15 -33t-7.5 -42t-1.5 -54v-678q0 -211 100.5 -334t273.5 -123t282 119t109 313v703q0 33 -1.5 54t-7.5 42t-15 33t-28 23.5t-42 17t-61 10.5t-81 7t-106 3v25h598v-25q-51 -2 -80.5 -7t-51.5 -16
t-32 -33.5t-14 -52.5t-4 -81v-691q0 -262 -154 -411.5t-419 -149.5q-264 0 -419 148t-155 401v703q0 83 -12.5 120.5t-44.5 52t-104 17.5v25zM506 1638l280 244l281 -244l-18 -28l-273 96l-252 -96z" />
    <glyph glyph-name="Ucircumflex" unicode="&#xfb;" horiz-adv-x="1404" 
d="M-20 1434h811v-25q-63 -1 -106 -3t-81 -7t-61 -10.5t-42 -17t-28 -23.5t-15 -33t-7.5 -42t-1.5 -54v-678q0 -211 100.5 -334t273.5 -123t282 119t109 313v703q0 33 -1.5 54t-7.5 42t-15 33t-28 23.5t-42 17t-61 10.5t-81 7t-106 3v25h598v-25q-51 -2 -80.5 -7t-51.5 -16
t-32 -33.5t-14 -52.5t-4 -81v-691q0 -262 -154 -411.5t-419 -149.5q-264 0 -419 148t-155 401v703q0 83 -12.5 120.5t-44.5 52t-104 17.5v25zM506 1638l280 244l281 -244l-18 -28l-273 96l-252 -96z" />
    <glyph glyph-name="Udieresis" unicode="&#xdc;" horiz-adv-x="1404" 
d="M-20 1434h811v-25q-63 -1 -106 -3t-81 -7t-61 -10.5t-42 -17t-28 -23.5t-15 -33t-7.5 -42t-1.5 -54v-678q0 -211 100.5 -334t273.5 -123t282 119t109 313v703q0 33 -1.5 54t-7.5 42t-15 33t-28 23.5t-42 17t-61 10.5t-81 7t-106 3v25h598v-25q-51 -2 -80.5 -7t-51.5 -16
t-32 -33.5t-14 -52.5t-4 -81v-691q0 -262 -154 -411.5t-419 -149.5q-264 0 -419 148t-155 401v703q0 83 -12.5 120.5t-44.5 52t-104 17.5v25zM510 1753q0 41 29.5 71.5t72.5 30.5q40 0 71.5 -31t31.5 -71q0 -43 -31 -73.5t-72 -30.5q-44 0 -73 30t-29 74zM858 1753
q0 39 30 69.5t73 30.5q40 0 71 -31t31 -69q0 -43 -30.5 -73.5t-71.5 -30.5q-44 0 -73.5 30t-29.5 74z" />
    <glyph glyph-name="Udieresis" unicode="&#xfc;" horiz-adv-x="1404" 
d="M-20 1434h811v-25q-63 -1 -106 -3t-81 -7t-61 -10.5t-42 -17t-28 -23.5t-15 -33t-7.5 -42t-1.5 -54v-678q0 -211 100.5 -334t273.5 -123t282 119t109 313v703q0 33 -1.5 54t-7.5 42t-15 33t-28 23.5t-42 17t-61 10.5t-81 7t-106 3v25h598v-25q-51 -2 -80.5 -7t-51.5 -16
t-32 -33.5t-14 -52.5t-4 -81v-691q0 -262 -154 -411.5t-419 -149.5q-264 0 -419 148t-155 401v703q0 83 -12.5 120.5t-44.5 52t-104 17.5v25zM510 1753q0 41 29.5 71.5t72.5 30.5q40 0 71.5 -31t31.5 -71q0 -43 -31 -73.5t-72 -30.5q-44 0 -73 30t-29 74zM858 1753
q0 39 30 69.5t73 30.5q40 0 71 -31t31 -69q0 -43 -30.5 -73.5t-71.5 -30.5q-44 0 -73.5 30t-29.5 74z" />
    <glyph glyph-name="Yacute" unicode="&#xdd;" horiz-adv-x="1267" 
d="M119 1217q-50 71 -75.5 102.5t-58.5 55.5t-63.5 29t-85.5 5v25h869v-25q-224 0 -269 -26q-36 -20 -5 -75q9 -16 26 -40l309 -437l297 435q50 73 37 100q-17 34 -152 40q-54 3 -141 3v25h625v-25q-55 0 -88.5 -5t-61 -13.5t-53.5 -34.5t-48 -54t-61 -85l-293 -429v-593
q0 -56 6.5 -85t34 -49.5t73 -27t132.5 -8.5v-25h-799v25q87 2 132.5 8.5t73 27t34 49.5t6.5 85v452zM643 1608l229 352l84 -70l-294 -297z" />
    <glyph glyph-name="Yacute" unicode="&#xfd;" horiz-adv-x="1267" 
d="M119 1217q-50 71 -75.5 102.5t-58.5 55.5t-63.5 29t-85.5 5v25h869v-25q-224 0 -269 -26q-36 -20 -5 -75q9 -16 26 -40l309 -437l297 435q50 73 37 100q-17 34 -152 40q-54 3 -141 3v25h625v-25q-55 0 -88.5 -5t-61 -13.5t-53.5 -34.5t-48 -54t-61 -85l-293 -429v-593
q0 -56 6.5 -85t34 -49.5t73 -27t132.5 -8.5v-25h-799v25q87 2 132.5 8.5t73 27t34 49.5t6.5 85v452zM643 1608l229 352l84 -70l-294 -297z" />
    <glyph glyph-name="Thorn" unicode="&#xde;" horiz-adv-x="1251" 
d="M649 1217q267 0 422.5 -121t155.5 -332t-155.5 -332t-422.5 -121h-219v-96q0 -44 2.5 -69.5t14.5 -49t30 -34.5t55 -20t83.5 -12t121.5 -5v-25h-737v25q52 3 76.5 17t35.5 53t11 120v1004q0 81 -11 120t-35.5 53t-76.5 17v25h737v-25q-75 -2 -121.5 -5t-83.5 -12t-55 -20
t-30 -34.5t-14.5 -49t-2.5 -69.5v-2h219zM430 385h145q150 0 247.5 107t97.5 272t-97.5 272t-247.5 107h-145v-758z" />
    <glyph glyph-name="Thorn" unicode="&#xfe;" horiz-adv-x="1251" 
d="M649 1217q267 0 422.5 -121t155.5 -332t-155.5 -332t-422.5 -121h-219v-96q0 -44 2.5 -69.5t14.5 -49t30 -34.5t55 -20t83.5 -12t121.5 -5v-25h-737v25q52 3 76.5 17t35.5 53t11 120v1004q0 81 -11 120t-35.5 53t-76.5 17v25h737v-25q-75 -2 -121.5 -5t-83.5 -12t-55 -20
t-30 -34.5t-14.5 -49t-2.5 -69.5v-2h219zM430 385h145q150 0 247.5 107t97.5 272t-97.5 272t-247.5 107h-145v-758z" />
    <glyph glyph-name="uni1E9E" unicode="&#xdf;" horiz-adv-x="1306" 
d="M567 453q4 -116 27.5 -199.5t61 -128t79 -64.5t90.5 -20q73 -1 117.5 45.5t44.5 126.5q0 124 -127 287l-375 483l17 21q51 -31 114 -31q93 0 165.5 57.5t72.5 151.5q0 98 -62.5 160.5t-158.5 62.5q-97 0 -160 -84t-63 -264v-842q0 -74 5 -117.5t10 -54t13 -18.5v-25h-458
v25q52 3 76 17t35 53t11 120v797q0 118 48 210.5t128 147t175.5 82t199.5 27.5q122 0 222.5 -32t162.5 -95.5t62 -147.5q0 -90 -64.5 -161t-189.5 -105l237 -244q183 -191 183 -354q0 -90 -38 -163.5t-99 -117.5t-132.5 -67t-144.5 -23q-100 0 -181.5 29t-127.5 80v375h24z
" />
    <glyph glyph-name="uni1E9E" unicode="&#x1e9e;" horiz-adv-x="1306" 
d="M567 453q4 -116 27.5 -199.5t61 -128t79 -64.5t90.5 -20q73 -1 117.5 45.5t44.5 126.5q0 124 -127 287l-375 483l17 21q51 -31 114 -31q93 0 165.5 57.5t72.5 151.5q0 98 -62.5 160.5t-158.5 62.5q-97 0 -160 -84t-63 -264v-842q0 -74 5 -117.5t10 -54t13 -18.5v-25h-458
v25q52 3 76 17t35 53t11 120v797q0 118 48 210.5t128 147t175.5 82t199.5 27.5q122 0 222.5 -32t162.5 -95.5t62 -147.5q0 -90 -64.5 -161t-189.5 -105l237 -244q183 -191 183 -354q0 -90 -38 -163.5t-99 -117.5t-132.5 -67t-144.5 -23q-100 0 -181.5 29t-127.5 80v375h24z
" />
    <glyph glyph-name="Amacron" unicode="&#x100;" horiz-adv-x="1228" 
d="M530 1434q59 0 116 27.5t91 86.5l471 -1333q43 -122 74 -156t94 -34v-25h-801v25q92 0 148 2t98.5 11t60 19.5t23.5 35t0 50.5t-22 72l-52 150h-634l-58 -148q-14 -35 -20.5 -56.5t-8 -44t5 -34.5t25.5 -24t46 -17t73 -9.5t100 -5.5t134 -1v-25h-611v25q63 0 94 33
t80 157zM209 1735v20l778 51v-123zM225 438h580l-275 791z" />
    <glyph glyph-name="Amacron" unicode="&#x101;" horiz-adv-x="1228" 
d="M530 1434q59 0 116 27.5t91 86.5l471 -1333q43 -122 74 -156t94 -34v-25h-801v25q92 0 148 2t98.5 11t60 19.5t23.5 35t0 50.5t-22 72l-52 150h-634l-58 -148q-14 -35 -20.5 -56.5t-8 -44t5 -34.5t25.5 -24t46 -17t73 -9.5t100 -5.5t134 -1v-25h-611v25q63 0 94 33
t80 157zM209 1735v20l778 51v-123zM225 438h580l-275 791z" />
    <glyph glyph-name="Abreve" unicode="&#x102;" horiz-adv-x="1228" 
d="M530 1434q59 0 116 27.5t91 86.5l471 -1333q43 -122 74 -156t94 -34v-25h-801v25q92 0 148 2t98.5 11t60 19.5t23.5 35t0 50.5t-22 72l-52 150h-634l-58 -148q-14 -35 -20.5 -56.5t-8 -44t5 -34.5t25.5 -24t46 -17t73 -9.5t100 -5.5t134 -1v-25h-611v25q63 0 94 33
t80 157zM225 438h580l-275 791zM324 1868l858 313l8 -22q-149 -55 -266 -110.5t-184.5 -99.5t-111.5 -85t-59.5 -68.5t-15.5 -48.5q0 -39 27 -59.5t69 -20.5q78 0 150 57t82 144h32q0 -119 -83 -195t-212 -76t-211.5 76t-82.5 195z" />
    <glyph glyph-name="Abreve" unicode="&#x103;" horiz-adv-x="1228" 
d="M530 1434q59 0 116 27.5t91 86.5l471 -1333q43 -122 74 -156t94 -34v-25h-801v25q92 0 148 2t98.5 11t60 19.5t23.5 35t0 50.5t-22 72l-52 150h-634l-58 -148q-14 -35 -20.5 -56.5t-8 -44t5 -34.5t25.5 -24t46 -17t73 -9.5t100 -5.5t134 -1v-25h-611v25q63 0 94 33
t80 157zM225 438h580l-275 791zM324 1868l858 313l8 -22q-149 -55 -266 -110.5t-184.5 -99.5t-111.5 -85t-59.5 -68.5t-15.5 -48.5q0 -39 27 -59.5t69 -20.5q78 0 150 57t82 144h32q0 -119 -83 -195t-212 -76t-211.5 76t-82.5 195z" />
    <glyph glyph-name="Aogonek" unicode="&#x104;" horiz-adv-x="1228" 
d="M530 1434q59 0 116 27.5t91 86.5l471 -1333q43 -122 74 -156t94 -34v-25h-231q-110 -35 -158.5 -70.5t-48.5 -79.5q0 -48 47.5 -82t134.5 -34q31 0 47 2l7 -23q-112 -75 -218 -75q-75 0 -119 42t-44 99q0 70 61 126.5t180 94.5h-459v25q92 0 148 2t98.5 11t60 19.5
t23.5 35t0 50.5t-22 72l-52 150h-634l-58 -148q-14 -35 -20.5 -56.5t-8 -44t5 -34.5t25.5 -24t46 -17t73 -9.5t100 -5.5t134 -1v-25h-611v25q63 0 94 33t80 157zM225 438h580l-275 791z" />
    <glyph glyph-name="Aogonek" unicode="&#x105;" horiz-adv-x="1228" 
d="M530 1434q59 0 116 27.5t91 86.5l471 -1333q43 -122 74 -156t94 -34v-25h-231q-110 -35 -158.5 -70.5t-48.5 -79.5q0 -48 47.5 -82t134.5 -34q31 0 47 2l7 -23q-112 -75 -218 -75q-75 0 -119 42t-44 99q0 70 61 126.5t180 94.5h-459v25q92 0 148 2t98.5 11t60 19.5
t23.5 35t0 50.5t-22 72l-52 150h-634l-58 -148q-14 -35 -20.5 -56.5t-8 -44t5 -34.5t25.5 -24t46 -17t73 -9.5t100 -5.5t134 -1v-25h-611v25q63 0 94 33t80 157zM225 438h580l-275 791z" />
    <glyph glyph-name="Cacute" unicode="&#x106;" horiz-adv-x="1488" 
d="M1386 1247l-186 -514l-22 6q41 178 37.5 304t-48 205.5t-109.5 116t-147 36.5q-103 0 -194.5 -44.5t-158 -120.5t-114.5 -174.5t-72 -209t-24 -221.5q0 -140 41 -253t109.5 -183.5t154.5 -108t181 -37.5q88 0 172 33.5t156 98.5t125.5 170t74.5 237h24v-385
q-108 -108 -256 -172t-315 -64q-156 0 -295.5 59.5t-240 161t-159.5 241.5t-59 296t59 296t159.5 241.5t240 161t295.5 59.5q167 0 315 -64t256 -172zM690 1608l230 352l84 -70l-295 -297z" />
    <glyph glyph-name="Cacute" unicode="&#x107;" horiz-adv-x="1488" 
d="M1386 1247l-186 -514l-22 6q41 178 37.5 304t-48 205.5t-109.5 116t-147 36.5q-103 0 -194.5 -44.5t-158 -120.5t-114.5 -174.5t-72 -209t-24 -221.5q0 -140 41 -253t109.5 -183.5t154.5 -108t181 -37.5q88 0 172 33.5t156 98.5t125.5 170t74.5 237h24v-385
q-108 -108 -256 -172t-315 -64q-156 0 -295.5 59.5t-240 161t-159.5 241.5t-59 296t59 296t159.5 241.5t240 161t295.5 59.5q167 0 315 -64t256 -172zM690 1608l230 352l84 -70l-295 -297z" />
    <glyph glyph-name="Cdotaccent" unicode="&#x10a;" horiz-adv-x="1488" 
d="M1386 1247l-186 -514l-22 6q41 178 37.5 304t-48 205.5t-109.5 116t-147 36.5q-103 0 -194.5 -44.5t-158 -120.5t-114.5 -174.5t-72 -209t-24 -221.5q0 -140 41 -253t109.5 -183.5t154.5 -108t181 -37.5q88 0 172 33.5t156 98.5t125.5 170t74.5 237h24v-385
q-108 -108 -256 -172t-315 -64q-156 0 -295.5 59.5t-240 161t-159.5 241.5t-59 296t59 296t159.5 241.5t240 161t295.5 59.5q167 0 315 -64t256 -172zM694 1753q0 50 36 85.5t87 35.5t87 -35.5t36 -85.5q0 -52 -36 -88.5t-87 -36.5t-87 36.5t-36 88.5z" />
    <glyph glyph-name="Cdotaccent" unicode="&#x10b;" horiz-adv-x="1488" 
d="M1386 1247l-186 -514l-22 6q41 178 37.5 304t-48 205.5t-109.5 116t-147 36.5q-103 0 -194.5 -44.5t-158 -120.5t-114.5 -174.5t-72 -209t-24 -221.5q0 -140 41 -253t109.5 -183.5t154.5 -108t181 -37.5q88 0 172 33.5t156 98.5t125.5 170t74.5 237h24v-385
q-108 -108 -256 -172t-315 -64q-156 0 -295.5 59.5t-240 161t-159.5 241.5t-59 296t59 296t159.5 241.5t240 161t295.5 59.5q167 0 315 -64t256 -172zM694 1753q0 50 36 85.5t87 35.5t87 -35.5t36 -85.5q0 -52 -36 -88.5t-87 -36.5t-87 36.5t-36 88.5z" />
    <glyph glyph-name="Ccaron" unicode="&#x10c;" horiz-adv-x="1488" 
d="M1386 1247l-186 -514l-22 6q41 178 37.5 304t-48 205.5t-109.5 116t-147 36.5q-103 0 -194.5 -44.5t-158 -120.5t-114.5 -174.5t-72 -209t-24 -221.5q0 -140 41 -253t109.5 -183.5t154.5 -108t181 -37.5q88 0 172 33.5t156 98.5t125.5 170t74.5 237h24v-385
q-108 -108 -256 -172t-315 -64q-156 0 -295.5 59.5t-240 161t-159.5 241.5t-59 296t59 296t159.5 241.5t240 161t295.5 59.5q167 0 315 -64t256 -172zM537 1839l18 29l272 -96l252 96l19 -29l-281 -244z" />
    <glyph glyph-name="Ccaron" unicode="&#x10d;" horiz-adv-x="1488" 
d="M1386 1247l-186 -514l-22 6q41 178 37.5 304t-48 205.5t-109.5 116t-147 36.5q-103 0 -194.5 -44.5t-158 -120.5t-114.5 -174.5t-72 -209t-24 -221.5q0 -140 41 -253t109.5 -183.5t154.5 -108t181 -37.5q88 0 172 33.5t156 98.5t125.5 170t74.5 237h24v-385
q-108 -108 -256 -172t-315 -64q-156 0 -295.5 59.5t-240 161t-159.5 241.5t-59 296t59 296t159.5 241.5t240 161t295.5 59.5q167 0 315 -64t256 -172zM537 1839l18 29l272 -96l252 96l19 -29l-281 -244z" />
    <glyph glyph-name="Dcaron" unicode="&#x10e;" horiz-adv-x="1597" 
d="M766 1434q168 0 311 -53t244 -147t158 -227.5t57 -289.5q0 -197 -100.5 -361.5t-277.5 -260t-392 -95.5h-766v25q52 3 76.5 17t35.5 53t11 120v1004q0 81 -11 120t-35.5 53t-76.5 17v25h766zM430 74h201q115 0 213 44.5t166.5 119.5t117.5 173t72 205.5t23 217.5
q0 526 -482 526h-311v-1286zM508 1839l18 29l273 -96l252 96l18 -29l-281 -244z" />
    <glyph glyph-name="Dcaron" unicode="&#x10f;" horiz-adv-x="1597" 
d="M766 1434q168 0 311 -53t244 -147t158 -227.5t57 -289.5q0 -197 -100.5 -361.5t-277.5 -260t-392 -95.5h-766v25q52 3 76.5 17t35.5 53t11 120v1004q0 81 -11 120t-35.5 53t-76.5 17v25h766zM430 74h201q115 0 213 44.5t166.5 119.5t117.5 173t72 205.5t23 217.5
q0 526 -482 526h-311v-1286zM508 1839l18 29l273 -96l252 96l18 -29l-281 -244z" />
    <glyph glyph-name="Dcroat" unicode="&#x110;" horiz-adv-x="1597" 
d="M766 1434q168 0 311 -53t244 -147t158 -227.5t57 -289.5q0 -197 -100.5 -361.5t-277.5 -260t-392 -95.5h-766v25q52 3 76.5 17t35.5 53t11 120v496l-123 -6v86l123 -7v435q0 81 -11 120t-35.5 53t-76.5 17v25h766zM430 74h201q115 0 213 44.5t166.5 119.5t117.5 173
t72 205.5t23 217.5q0 526 -482 526h-311v-588l348 -14v-21l-348 -14v-649z" />
    <glyph glyph-name="Dcroat" unicode="&#x111;" horiz-adv-x="1597" 
d="M766 1434q168 0 311 -53t244 -147t158 -227.5t57 -289.5q0 -197 -100.5 -361.5t-277.5 -260t-392 -95.5h-766v25q52 3 76.5 17t35.5 53t11 120v496l-123 -6v86l123 -7v435q0 81 -11 120t-35.5 53t-76.5 17v25h766zM430 74h201q115 0 213 44.5t166.5 119.5t117.5 173
t72 205.5t23 217.5q0 526 -482 526h-311v-588l348 -14v-21l-348 -14v-649z" />
    <glyph glyph-name="Emacron" unicode="&#x112;" horiz-adv-x="1116" 
d="M0 1434h1010l39 -414l-25 -2q-9 81 -17.5 133t-21.5 92.5t-27 61.5t-38.5 34.5t-51 17t-69.5 3.5h-369v-352l440 -25v-25l-440 -24v-860h324q62 0 92.5 1.5t71 16.5t57.5 34.5t42 72t36 111.5t28.5 170.5t29 232t28.5 311.5h24l-76 -1024h-1087v25q52 3 76.5 17t35.5 53
t11 120v1004q0 81 -11 120t-35.5 53t-76.5 17v25zM174 1735v20l778 51v-123z" />
    <glyph glyph-name="Emacron" unicode="&#x113;" horiz-adv-x="1116" 
d="M0 1434h1010l39 -414l-25 -2q-9 81 -17.5 133t-21.5 92.5t-27 61.5t-38.5 34.5t-51 17t-69.5 3.5h-369v-352l440 -25v-25l-440 -24v-860h324q62 0 92.5 1.5t71 16.5t57.5 34.5t42 72t36 111.5t28.5 170.5t29 232t28.5 311.5h24l-76 -1024h-1087v25q52 3 76.5 17t35.5 53
t11 120v1004q0 81 -11 120t-35.5 53t-76.5 17v25zM174 1735v20l778 51v-123z" />
    <glyph glyph-name="Edotaccent" unicode="&#x116;" horiz-adv-x="1116" 
d="M0 1434h1010l39 -414l-25 -2q-9 81 -17.5 133t-21.5 92.5t-27 61.5t-38.5 34.5t-51 17t-69.5 3.5h-369v-352l440 -25v-25l-440 -24v-860h324q62 0 92.5 1.5t71 16.5t57.5 34.5t42 72t36 111.5t28.5 170.5t29 232t28.5 311.5h24l-76 -1024h-1087v25q52 3 76.5 17t35.5 53
t11 120v1004q0 81 -11 120t-35.5 53t-76.5 17v25zM461 1753q0 50 36 85.5t87 35.5t87 -35.5t36 -85.5q0 -52 -36 -88.5t-87 -36.5t-87 36.5t-36 88.5z" />
    <glyph glyph-name="Edotaccent" unicode="&#x117;" horiz-adv-x="1116" 
d="M0 1434h1010l39 -414l-25 -2q-9 81 -17.5 133t-21.5 92.5t-27 61.5t-38.5 34.5t-51 17t-69.5 3.5h-369v-352l440 -25v-25l-440 -24v-860h324q62 0 92.5 1.5t71 16.5t57.5 34.5t42 72t36 111.5t28.5 170.5t29 232t28.5 311.5h24l-76 -1024h-1087v25q52 3 76.5 17t35.5 53
t11 120v1004q0 81 -11 120t-35.5 53t-76.5 17v25zM461 1753q0 50 36 85.5t87 35.5t87 -35.5t36 -85.5q0 -52 -36 -88.5t-87 -36.5t-87 36.5t-36 88.5z" />
    <glyph glyph-name="Eogonek" unicode="&#x118;" horiz-adv-x="1116" 
d="M0 1434h1010l39 -414l-25 -2q-9 81 -17.5 133t-21.5 92.5t-27 61.5t-38.5 34.5t-51 17t-69.5 3.5h-369v-352l440 -25v-25l-440 -24v-860h324q62 0 92.5 1.5t71 16.5t57.5 34.5t42 72t36 111.5t28.5 170.5t29 232t28.5 311.5h24l-76 -1024q-110 -35 -158 -70.5t-48 -79.5
q0 -48 47.5 -82t134.5 -34q31 0 47 2l6 -23q-112 -75 -217 -75q-75 0 -119.5 42t-44.5 99q0 70 61.5 126.5t180.5 94.5h-977v25q52 3 76.5 17t35.5 53t11 120v1004q0 81 -11 120t-35.5 53t-76.5 17v25z" />
    <glyph glyph-name="Eogonek" unicode="&#x119;" horiz-adv-x="1116" 
d="M0 1434h1010l39 -414l-25 -2q-9 81 -17.5 133t-21.5 92.5t-27 61.5t-38.5 34.5t-51 17t-69.5 3.5h-369v-352l440 -25v-25l-440 -24v-860h324q62 0 92.5 1.5t71 16.5t57.5 34.5t42 72t36 111.5t28.5 170.5t29 232t28.5 311.5h24l-76 -1024q-110 -35 -158 -70.5t-48 -79.5
q0 -48 47.5 -82t134.5 -34q31 0 47 2l6 -23q-112 -75 -217 -75q-75 0 -119.5 42t-44.5 99q0 70 61.5 126.5t180.5 94.5h-977v25q52 3 76.5 17t35.5 53t11 120v1004q0 81 -11 120t-35.5 53t-76.5 17v25z" />
    <glyph glyph-name="Ecaron" unicode="&#x11a;" horiz-adv-x="1116" 
d="M0 1434h1010l39 -414l-25 -2q-9 81 -17.5 133t-21.5 92.5t-27 61.5t-38.5 34.5t-51 17t-69.5 3.5h-369v-352l440 -25v-25l-440 -24v-860h324q62 0 92.5 1.5t71 16.5t57.5 34.5t42 72t36 111.5t28.5 170.5t29 232t28.5 311.5h24l-76 -1024h-1087v25q52 3 76.5 17t35.5 53
t11 120v1004q0 81 -11 120t-35.5 53t-76.5 17v25zM303 1839l19 29l272 -96l252 96l18 -29l-280 -244z" />
    <glyph glyph-name="Ecaron" unicode="&#x11b;" horiz-adv-x="1116" 
d="M0 1434h1010l39 -414l-25 -2q-9 81 -17.5 133t-21.5 92.5t-27 61.5t-38.5 34.5t-51 17t-69.5 3.5h-369v-352l440 -25v-25l-440 -24v-860h324q62 0 92.5 1.5t71 16.5t57.5 34.5t42 72t36 111.5t28.5 170.5t29 232t28.5 311.5h24l-76 -1024h-1087v25q52 3 76.5 17t35.5 53
t11 120v1004q0 81 -11 120t-35.5 53t-76.5 17v25zM303 1839l19 29l272 -96l252 96l18 -29l-280 -244z" />
    <glyph glyph-name="Gbreve" unicode="&#x11e;" horiz-adv-x="1550" 
d="M1386 1247l-157 -428l-23 8q44 193 9.5 320.5t-114.5 190.5t-190 63q-103 0 -194.5 -44.5t-158 -120.5t-114.5 -174.5t-72 -209t-24 -221.5q0 -140 41 -253t109.5 -183.5t154.5 -108t181 -37.5q140 0 253 49v342q0 68 -2.5 106t-15 72.5t-30 49.5t-56.5 26.5t-84.5 14
t-124.5 2.5v24h612v-24v-170v-338q-109 -108 -257.5 -172t-313.5 -64q-156 0 -295.5 59.5t-240 161t-159.5 241.5t-59 296t59 296t159.5 241.5t240 161t295.5 59.5q167 0 315 -64t256 -172zM543 1868l858 313l8 -22q-149 -55 -266 -110.5t-184.5 -99.5t-111.5 -85
t-59.5 -68.5t-15.5 -48.5q0 -39 27 -59.5t69 -20.5q78 0 150 57t82 144h33q0 -119 -83 -195t-212 -76t-212 76t-83 195z" />
    <glyph glyph-name="Gbreve" unicode="&#x11f;" horiz-adv-x="1550" 
d="M1386 1247l-157 -428l-23 8q44 193 9.5 320.5t-114.5 190.5t-190 63q-103 0 -194.5 -44.5t-158 -120.5t-114.5 -174.5t-72 -209t-24 -221.5q0 -140 41 -253t109.5 -183.5t154.5 -108t181 -37.5q140 0 253 49v342q0 68 -2.5 106t-15 72.5t-30 49.5t-56.5 26.5t-84.5 14
t-124.5 2.5v24h612v-24v-170v-338q-109 -108 -257.5 -172t-313.5 -64q-156 0 -295.5 59.5t-240 161t-159.5 241.5t-59 296t59 296t159.5 241.5t240 161t295.5 59.5q167 0 315 -64t256 -172zM543 1868l858 313l8 -22q-149 -55 -266 -110.5t-184.5 -99.5t-111.5 -85
t-59.5 -68.5t-15.5 -48.5q0 -39 27 -59.5t69 -20.5q78 0 150 57t82 144h33q0 -119 -83 -195t-212 -76t-212 76t-83 195z" />
    <glyph glyph-name="Gdotaccent" unicode="&#x120;" horiz-adv-x="1550" 
d="M1386 1247l-157 -428l-23 8q44 193 9.5 320.5t-114.5 190.5t-190 63q-103 0 -194.5 -44.5t-158 -120.5t-114.5 -174.5t-72 -209t-24 -221.5q0 -140 41 -253t109.5 -183.5t154.5 -108t181 -37.5q140 0 253 49v342q0 68 -2.5 106t-15 72.5t-30 49.5t-56.5 26.5t-84.5 14
t-124.5 2.5v24h612v-24v-170v-338q-109 -108 -257.5 -172t-313.5 -64q-156 0 -295.5 59.5t-240 161t-159.5 241.5t-59 296t59 296t159.5 241.5t240 161t295.5 59.5q167 0 315 -64t256 -172zM715 1753q0 50 36 85.5t87 35.5t87 -35.5t36 -85.5q0 -52 -36 -88.5t-87 -36.5
t-87 36.5t-36 88.5z" />
    <glyph glyph-name="Gdotaccent" unicode="&#x121;" horiz-adv-x="1550" 
d="M1386 1247l-157 -428l-23 8q44 193 9.5 320.5t-114.5 190.5t-190 63q-103 0 -194.5 -44.5t-158 -120.5t-114.5 -174.5t-72 -209t-24 -221.5q0 -140 41 -253t109.5 -183.5t154.5 -108t181 -37.5q140 0 253 49v342q0 68 -2.5 106t-15 72.5t-30 49.5t-56.5 26.5t-84.5 14
t-124.5 2.5v24h612v-24v-170v-338q-109 -108 -257.5 -172t-313.5 -64q-156 0 -295.5 59.5t-240 161t-159.5 241.5t-59 296t59 296t159.5 241.5t240 161t295.5 59.5q167 0 315 -64t256 -172zM715 1753q0 50 36 85.5t87 35.5t87 -35.5t36 -85.5q0 -52 -36 -88.5t-87 -36.5
t-87 36.5t-36 88.5z" />
    <glyph glyph-name="uni0122" unicode="&#x122;" horiz-adv-x="1550" 
d="M1386 1247l-157 -428l-23 8q44 193 9.5 320.5t-114.5 190.5t-190 63q-103 0 -194.5 -44.5t-158 -120.5t-114.5 -174.5t-72 -209t-24 -221.5q0 -140 41 -253t109.5 -183.5t154.5 -108t181 -37.5q140 0 253 49v342q0 68 -2.5 106t-15 72.5t-30 49.5t-56.5 26.5t-84.5 14
t-124.5 2.5v24h612v-24v-170v-338q-109 -108 -257.5 -172t-313.5 -64q-156 0 -295.5 59.5t-240 161t-159.5 241.5t-59 296t59 296t159.5 241.5t240 161t295.5 59.5q167 0 315 -64t256 -172zM680 -240q0 48 36 85.5t87 37.5q50 0 86.5 -39.5t36.5 -97.5q0 -56 -34 -117
t-147 -223q-18 -27 -28 -41l-23 12q31 55 48 88t31.5 64.5t18.5 48t3 31t-9.5 22.5t-23.5 15q-82 31 -82 114z" />
    <glyph glyph-name="uni0122" unicode="&#x123;" horiz-adv-x="1550" 
d="M1386 1247l-157 -428l-23 8q44 193 9.5 320.5t-114.5 190.5t-190 63q-103 0 -194.5 -44.5t-158 -120.5t-114.5 -174.5t-72 -209t-24 -221.5q0 -140 41 -253t109.5 -183.5t154.5 -108t181 -37.5q140 0 253 49v342q0 68 -2.5 106t-15 72.5t-30 49.5t-56.5 26.5t-84.5 14
t-124.5 2.5v24h612v-24v-170v-338q-109 -108 -257.5 -172t-313.5 -64q-156 0 -295.5 59.5t-240 161t-159.5 241.5t-59 296t59 296t159.5 241.5t240 161t295.5 59.5q167 0 315 -64t256 -172zM680 -240q0 48 36 85.5t87 37.5q50 0 86.5 -39.5t36.5 -97.5q0 -56 -34 -117
t-147 -223q-18 -27 -28 -41l-23 12q31 55 48 88t31.5 64.5t18.5 48t3 31t-9.5 22.5t-23.5 15q-82 31 -82 114z" />
    <glyph glyph-name="Imacron" unicode="&#x12a;" horiz-adv-x="583" 
d="M0 1434h584v-25q-45 -2 -69.5 -9t-41.5 -28.5t-22 -56t-5 -96.5v-1004q0 -62 5 -96.5t22 -56t41.5 -28.5t69.5 -9v-25h-584v25q61 3 88.5 17.5t39 52.5t11.5 120v1004q0 82 -11.5 120t-39 52.5t-88.5 17.5v25zM-117 1735v20l779 51v-123z" />
    <glyph glyph-name="Imacron" unicode="&#x12b;" horiz-adv-x="583" 
d="M0 1434h584v-25q-45 -2 -69.5 -9t-41.5 -28.5t-22 -56t-5 -96.5v-1004q0 -62 5 -96.5t22 -56t41.5 -28.5t69.5 -9v-25h-584v25q61 3 88.5 17.5t39 52.5t11.5 120v1004q0 82 -11.5 120t-39 52.5t-88.5 17.5v25zM-117 1735v20l779 51v-123z" />
    <glyph glyph-name="Idotaccent" unicode="&#x130;" horiz-adv-x="583" 
d="M0 1434h584v-25q-45 -2 -69.5 -9t-41.5 -28.5t-22 -56t-5 -96.5v-1004q0 -62 5 -96.5t22 -56t41.5 -28.5t69.5 -9v-25h-584v25q61 3 88.5 17.5t39 52.5t11.5 120v1004q0 82 -11.5 120t-39 52.5t-88.5 17.5v25zM170 1753q0 50 36 85.5t87 35.5t87 -35.5t36 -85.5
q0 -52 -36 -88.5t-87 -36.5t-87 36.5t-36 88.5z" />
    <glyph glyph-name="IJ" unicode="&#x132;" horiz-adv-x="1208" 
d="M0 1434h1208v-25q-60 -3 -87 -17.5t-38.5 -52.5t-11.5 -120v-971q0 -286 -184.5 -451.5t-528.5 -165.5v25q220 50 313 191t93 425v947q0 62 -5.5 95t-27 55t-56 29.5t-100.5 10.5q-81 -6 -105 -40.5t-24 -149.5v-1004q0 -62 5 -96.5t22 -56t41.5 -28.5t69.5 -9v-25h-584
v25q61 3 88.5 17.5t39 52.5t11.5 120v1004q0 82 -11.5 120t-39 52.5t-88.5 17.5v25z" />
    <glyph glyph-name="IJ" unicode="&#x133;" horiz-adv-x="1208" 
d="M0 1434h1208v-25q-60 -3 -87 -17.5t-38.5 -52.5t-11.5 -120v-971q0 -286 -184.5 -451.5t-528.5 -165.5v25q220 50 313 191t93 425v947q0 62 -5.5 95t-27 55t-56 29.5t-100.5 10.5q-81 -6 -105 -40.5t-24 -149.5v-1004q0 -62 5 -96.5t22 -56t41.5 -28.5t69.5 -9v-25h-584
v25q61 3 88.5 17.5t39 52.5t11.5 120v1004q0 82 -11.5 120t-39 52.5t-88.5 17.5v25z" />
    <glyph glyph-name="uni0136" unicode="&#x136;" horiz-adv-x="1288" 
d="M0 1434h676v-25q-59 -2 -95.5 -5t-66 -12t-44.5 -20t-25 -34t-12.5 -49.5t-2.5 -69.5v-402l426 402q35 33 56.5 54.5t38.5 42.5t21.5 33t0 23.5t-19 17t-42.5 10t-63.5 6.5t-89.5 3v25h633v-25q-61 -2 -98.5 -4t-76 -12.5t-59 -18.5t-57 -35t-60 -48.5t-77.5 -71.5
l-101 -93l352 -870q29 -72 63.5 -127.5t57.5 -77.5t35 -26v-25q-160 -42 -294.5 32.5t-198.5 243.5l-242 639l-205 -190v-510q0 -43 2.5 -69.5t12.5 -49.5t25 -34t44.5 -20t66 -12t95.5 -5v-25h-676v25q52 3 76.5 17t35.5 53t11 120v1004q0 81 -11 120t-35.5 53t-76.5 17v25
zM598 -219q0 48 36 85.5t87 37.5q50 0 86.5 -39.5t36.5 -97.5q0 -56 -34 -117t-147 -223q-18 -27 -28 -41l-23 12q31 56 48 88.5t31.5 64t18.5 47.5t3 31t-9.5 22.5t-23.5 14.5q-82 31 -82 115z" />
    <glyph glyph-name="uni0136" unicode="&#x137;" horiz-adv-x="1288" 
d="M0 1434h676v-25q-59 -2 -95.5 -5t-66 -12t-44.5 -20t-25 -34t-12.5 -49.5t-2.5 -69.5v-402l426 402q35 33 56.5 54.5t38.5 42.5t21.5 33t0 23.5t-19 17t-42.5 10t-63.5 6.5t-89.5 3v25h633v-25q-61 -2 -98.5 -4t-76 -12.5t-59 -18.5t-57 -35t-60 -48.5t-77.5 -71.5
l-101 -93l352 -870q29 -72 63.5 -127.5t57.5 -77.5t35 -26v-25q-160 -42 -294.5 32.5t-198.5 243.5l-242 639l-205 -190v-510q0 -43 2.5 -69.5t12.5 -49.5t25 -34t44.5 -20t66 -12t95.5 -5v-25h-676v25q52 3 76.5 17t35.5 53t11 120v1004q0 81 -11 120t-35.5 53t-76.5 17v25
zM598 -219q0 48 36 85.5t87 37.5q50 0 86.5 -39.5t36.5 -97.5q0 -56 -34 -117t-147 -223q-18 -27 -28 -41l-23 12q31 56 48 88.5t31.5 64t18.5 47.5t3 31t-9.5 22.5t-23.5 14.5q-82 31 -82 115z" />
    <glyph glyph-name="Lacute" unicode="&#x139;" horiz-adv-x="921" 
d="M0 1434h676v-25q-59 -2 -95.5 -5t-66 -12t-44.5 -20t-25 -34t-12.5 -49.5t-2.5 -69.5v-1145h232q135 0 177 19q58 27 52 116q-9 109 -137 440q-27 71 -66 168l23 8l344 -825h-1055v25q52 3 76.5 17t35.5 53t11 120v1004q0 81 -11 120t-35.5 53t-76.5 17v25zM180 1608
l230 352l84 -70l-295 -297z" />
    <glyph glyph-name="Lacute" unicode="&#x13a;" horiz-adv-x="921" 
d="M0 1434h676v-25q-59 -2 -95.5 -5t-66 -12t-44.5 -20t-25 -34t-12.5 -49.5t-2.5 -69.5v-1145h232q135 0 177 19q58 27 52 116q-9 109 -137 440q-27 71 -66 168l23 8l344 -825h-1055v25q52 3 76.5 17t35.5 53t11 120v1004q0 81 -11 120t-35.5 53t-76.5 17v25zM180 1608
l230 352l84 -70l-295 -297z" />
    <glyph glyph-name="uni013B" unicode="&#x13b;" horiz-adv-x="921" 
d="M0 1434h676v-25q-59 -2 -95.5 -5t-66 -12t-44.5 -20t-25 -34t-12.5 -49.5t-2.5 -69.5v-1145h232q135 0 177 19q58 27 52 116q-9 109 -137 440q-27 71 -66 168l23 8l344 -825h-1055v25q52 3 76.5 17t35.5 53t11 120v1004q0 81 -11 120t-35.5 53t-76.5 17v25zM412 -229
q0 48 36 85.5t87 37.5q50 0 86 -40t36 -98q0 -57 -35.5 -120t-150.5 -229q-14 -21 -22 -32l-23 13q31 56 48 88.5t31.5 64t18.5 47.5t3 31t-9.5 22.5t-23.5 14.5q-82 31 -82 115z" />
    <glyph glyph-name="uni013B" unicode="&#x13c;" horiz-adv-x="921" 
d="M0 1434h676v-25q-59 -2 -95.5 -5t-66 -12t-44.5 -20t-25 -34t-12.5 -49.5t-2.5 -69.5v-1145h232q135 0 177 19q58 27 52 116q-9 109 -137 440q-27 71 -66 168l23 8l344 -825h-1055v25q52 3 76.5 17t35.5 53t11 120v1004q0 81 -11 120t-35.5 53t-76.5 17v25zM412 -229
q0 48 36 85.5t87 37.5q50 0 86 -40t36 -98q0 -57 -35.5 -120t-150.5 -229q-14 -21 -22 -32l-23 13q31 56 48 88.5t31.5 64t18.5 47.5t3 31t-9.5 22.5t-23.5 14.5q-82 31 -82 115z" />
    <glyph glyph-name="Lcaron" unicode="&#x13d;" horiz-adv-x="1013" 
d="M0 1434h676v-25q-59 -2 -95.5 -5t-66 -12t-44.5 -20t-25 -34t-12.5 -49.5t-2.5 -69.5v-1145h232q135 0 177 19q58 27 52 116q-9 109 -137 440q-27 71 -66 168l23 8l344 -825h-1055v25q52 3 76.5 17t35.5 53t11 120v1004q0 81 -11 120t-35.5 53t-76.5 17v25zM842 1092
l18 471l107 -19l-111 -457z" />
    <glyph glyph-name="Lcaron" unicode="&#x13e;" horiz-adv-x="1013" 
d="M0 1434h676v-25q-59 -2 -95.5 -5t-66 -12t-44.5 -20t-25 -34t-12.5 -49.5t-2.5 -69.5v-1145h232q135 0 177 19q58 27 52 116q-9 109 -137 440q-27 71 -66 168l23 8l344 -825h-1055v25q52 3 76.5 17t35.5 53t11 120v1004q0 81 -11 120t-35.5 53t-76.5 17v25zM842 1092
l18 471l107 -19l-111 -457z" />
    <glyph glyph-name="Lslash" unicode="&#x141;" horiz-adv-x="921" 
d="M0 1434h676v-25q-59 -2 -95.5 -5t-66 -12t-44.5 -20t-25 -34t-12.5 -49.5t-2.5 -69.5v-299l373 231l43 -76l-416 -223v-778h232q135 0 177 19q58 27 52 116q-9 109 -137 440q-27 71 -66 168l23 8l344 -825h-1055v25q52 3 76.5 17t35.5 53t11 120v471l-215 -115l-10 19
l225 139v490q0 81 -11 120t-35.5 53t-76.5 17v25z" />
    <glyph glyph-name="Lslash" unicode="&#x142;" horiz-adv-x="921" 
d="M0 1434h676v-25q-59 -2 -95.5 -5t-66 -12t-44.5 -20t-25 -34t-12.5 -49.5t-2.5 -69.5v-299l373 231l43 -76l-416 -223v-778h232q135 0 177 19q58 27 52 116q-9 109 -137 440q-27 71 -66 168l23 8l344 -825h-1055v25q52 3 76.5 17t35.5 53t11 120v471l-215 -115l-10 19
l225 139v490q0 81 -11 120t-35.5 53t-76.5 17v25z" />
    <glyph glyph-name="Nacute" unicode="&#x143;" horiz-adv-x="1454" 
d="M41 1694l18 14l1158 -1315v826q0 46 -3.5 70t-21.5 48.5t-47 35t-90.5 20t-139.5 12t-206 4.5v25h745v-25q-73 -3 -105.5 -17.5t-45.5 -52t-13 -120.5v-1016q0 -131 6 -190t31.5 -121.5t85.5 -151.5l-18 -14l-1157 1314v-825q0 -34 1.5 -54t10 -42t21 -33t40 -23.5
t61.5 -17.5t90.5 -10t121.5 -7t161 -3v-25h-745v25q73 3 105.5 17.5t45.5 52t13 120.5v1016q0 101 -2.5 148t-15 103.5t-36 100.5t-69.5 111zM600 1608l229 352l84 -70l-295 -297z" />
    <glyph glyph-name="Nacute" unicode="&#x144;" horiz-adv-x="1454" 
d="M41 1694l18 14l1158 -1315v826q0 46 -3.5 70t-21.5 48.5t-47 35t-90.5 20t-139.5 12t-206 4.5v25h745v-25q-73 -3 -105.5 -17.5t-45.5 -52t-13 -120.5v-1016q0 -131 6 -190t31.5 -121.5t85.5 -151.5l-18 -14l-1157 1314v-825q0 -34 1.5 -54t10 -42t21 -33t40 -23.5
t61.5 -17.5t90.5 -10t121.5 -7t161 -3v-25h-745v25q73 3 105.5 17.5t45.5 52t13 120.5v1016q0 101 -2.5 148t-15 103.5t-36 100.5t-69.5 111zM600 1608l229 352l84 -70l-295 -297z" />
    <glyph glyph-name="uni0145" unicode="&#x145;" horiz-adv-x="1454" 
d="M41 1694l18 14l1158 -1315v826q0 46 -3.5 70t-21.5 48.5t-47 35t-90.5 20t-139.5 12t-206 4.5v25h745v-25q-73 -3 -105.5 -17.5t-45.5 -52t-13 -120.5v-1016q0 -131 6 -190t31.5 -121.5t85.5 -151.5l-18 -14l-1157 1314v-825q0 -34 1.5 -54t10 -42t21 -33t40 -23.5
t61.5 -17.5t90.5 -10t121.5 -7t161 -3v-25h-745v25q73 3 105.5 17.5t45.5 52t13 120.5v1016q0 101 -2.5 148t-15 103.5t-36 100.5t-69.5 111zM598 -240q0 48 36 85.5t87 37.5q50 0 86.5 -39.5t36.5 -97.5q0 -56 -34 -117t-147 -223q-18 -27 -28 -41l-23 12q31 55 48 88
t31.5 64.5t18.5 48t3 31t-9.5 22.5t-23.5 15q-82 31 -82 114z" />
    <glyph glyph-name="uni0145" unicode="&#x146;" horiz-adv-x="1454" 
d="M41 1694l18 14l1158 -1315v826q0 46 -3.5 70t-21.5 48.5t-47 35t-90.5 20t-139.5 12t-206 4.5v25h745v-25q-73 -3 -105.5 -17.5t-45.5 -52t-13 -120.5v-1016q0 -131 6 -190t31.5 -121.5t85.5 -151.5l-18 -14l-1157 1314v-825q0 -34 1.5 -54t10 -42t21 -33t40 -23.5
t61.5 -17.5t90.5 -10t121.5 -7t161 -3v-25h-745v25q73 3 105.5 17.5t45.5 52t13 120.5v1016q0 101 -2.5 148t-15 103.5t-36 100.5t-69.5 111zM598 -240q0 48 36 85.5t87 37.5q50 0 86.5 -39.5t36.5 -97.5q0 -56 -34 -117t-147 -223q-18 -27 -28 -41l-23 12q31 55 48 88
t31.5 64.5t18.5 48t3 31t-9.5 22.5t-23.5 15q-82 31 -82 114z" />
    <glyph glyph-name="Ncaron" unicode="&#x147;" horiz-adv-x="1454" 
d="M41 1694l18 14l1158 -1315v826q0 46 -3.5 70t-21.5 48.5t-47 35t-90.5 20t-139.5 12t-206 4.5v25h745v-25q-73 -3 -105.5 -17.5t-45.5 -52t-13 -120.5v-1016q0 -131 6 -190t31.5 -121.5t85.5 -151.5l-18 -14l-1157 1314v-825q0 -34 1.5 -54t10 -42t21 -33t40 -23.5
t61.5 -17.5t90.5 -10t121.5 -7t161 -3v-25h-745v25q73 3 105.5 17.5t45.5 52t13 120.5v1016q0 101 -2.5 148t-15 103.5t-36 100.5t-69.5 111zM446 1839l19 29l272 -96l252 96l19 -29l-281 -244z" />
    <glyph glyph-name="Ncaron" unicode="&#x148;" horiz-adv-x="1454" 
d="M41 1694l18 14l1158 -1315v826q0 46 -3.5 70t-21.5 48.5t-47 35t-90.5 20t-139.5 12t-206 4.5v25h745v-25q-73 -3 -105.5 -17.5t-45.5 -52t-13 -120.5v-1016q0 -131 6 -190t31.5 -121.5t85.5 -151.5l-18 -14l-1157 1314v-825q0 -34 1.5 -54t10 -42t21 -33t40 -23.5
t61.5 -17.5t90.5 -10t121.5 -7t161 -3v-25h-745v25q73 3 105.5 17.5t45.5 52t13 120.5v1016q0 101 -2.5 148t-15 103.5t-36 100.5t-69.5 111zM446 1839l19 29l272 -96l252 96l19 -29l-281 -244z" />
    <glyph glyph-name="Omacron" unicode="&#x14c;" horiz-adv-x="1638" 
d="M819 -33q-208 0 -382 101t-275 275t-101 382t101 382t275 275t382 101t382 -101t275 -275t101 -382t-101 -382t-275 -275t-382 -101zM348 541q0 -230 91 -361t263 -131q86 0 167 40t144 107t116 154t88 183t54 193t19 183q0 230 -91 361t-263 131q-86 0 -167 -40
t-144 -107t-116 -154t-88 -183t-54 -193t-19 -183zM428 1735v20l778 51v-123z" />
    <glyph glyph-name="Omacron" unicode="&#x14d;" horiz-adv-x="1638" 
d="M819 -33q-208 0 -382 101t-275 275t-101 382t101 382t275 275t382 101t382 -101t275 -275t101 -382t-101 -382t-275 -275t-382 -101zM348 541q0 -230 91 -361t263 -131q86 0 167 40t144 107t116 154t88 183t54 193t19 183q0 230 -91 361t-263 131q-86 0 -167 -40
t-144 -107t-116 -154t-88 -183t-54 -193t-19 -183zM428 1735v20l778 51v-123z" />
    <glyph glyph-name="Ohungarumlaut" unicode="&#x150;" horiz-adv-x="1638" 
d="M819 -33q-208 0 -382 101t-275 275t-101 382t101 382t275 275t382 101t382 -101t275 -275t101 -382t-101 -382t-275 -275t-382 -101zM348 541q0 -230 91 -361t263 -131q86 0 167 40t144 107t116 154t88 183t54 193t19 183q0 230 -91 361t-263 131q-86 0 -167 -40
t-144 -107t-116 -154t-88 -183t-54 -193t-19 -183zM696 1655l144 321l92 -57l-219 -277zM897 1665l244 297l82 -74l-310 -237z" />
    <glyph glyph-name="Ohungarumlaut" unicode="&#x151;" horiz-adv-x="1638" 
d="M819 -33q-208 0 -382 101t-275 275t-101 382t101 382t275 275t382 101t382 -101t275 -275t101 -382t-101 -382t-275 -275t-382 -101zM348 541q0 -230 91 -361t263 -131q86 0 167 40t144 107t116 154t88 183t54 193t19 183q0 230 -91 361t-263 131q-86 0 -167 -40
t-144 -107t-116 -154t-88 -183t-54 -193t-19 -183zM696 1655l144 321l92 -57l-219 -277zM897 1665l244 297l82 -74l-310 -237z" />
    <glyph glyph-name="OE" unicode="&#x152;" horiz-adv-x="2314" 
d="M819 -33q-208 0 -382 101t-275 275t-101 382t101 382t275 275t382 101q286 0 500 -185q-9 101 -39 111v25h928l39 -414l-25 -2q-9 81 -17.5 133t-21.5 92.5t-27 61.5t-38.5 34.5t-51 17t-69.5 3.5h-369v-352l440 -25v-25l-440 -24v-860h324q62 0 92.5 1.5t71 16.5
t57.5 34.5t42 72t36 111.5t28.5 170.5t29 232t28.5 311.5h24l-75 -1024h-1006v25q35 15 39 129q-213 -187 -500 -187zM348 541q0 -230 91 -361t263 -131q92 0 178.5 40t154 107t124.5 154t94 183t57.5 193t20.5 183q0 230 -97.5 361t-281.5 131q-107 0 -205 -56t-169 -147.5
t-124 -205t-79.5 -230.5t-26.5 -221z" />
    <glyph glyph-name="OE" unicode="&#x153;" horiz-adv-x="2314" 
d="M819 -33q-208 0 -382 101t-275 275t-101 382t101 382t275 275t382 101q286 0 500 -185q-9 101 -39 111v25h928l39 -414l-25 -2q-9 81 -17.5 133t-21.5 92.5t-27 61.5t-38.5 34.5t-51 17t-69.5 3.5h-369v-352l440 -25v-25l-440 -24v-860h324q62 0 92.5 1.5t71 16.5
t57.5 34.5t42 72t36 111.5t28.5 170.5t29 232t28.5 311.5h24l-75 -1024h-1006v25q35 15 39 129q-213 -187 -500 -187zM348 541q0 -230 91 -361t263 -131q92 0 178.5 40t154 107t124.5 154t94 183t57.5 193t20.5 183q0 230 -97.5 361t-281.5 131q-107 0 -205 -56t-169 -147.5
t-124 -205t-79.5 -230.5t-26.5 -221z" />
    <glyph glyph-name="Racute" unicode="&#x154;" horiz-adv-x="1370" 
d="M764 1434q251 0 391.5 -81t140.5 -227q0 -117 -83.5 -193t-239.5 -102l254 -567q47 -106 96.5 -164t87.5 -75v-25q-170 -33 -311.5 37t-210.5 235l-275 654l17 20q67 -33 137 -33q92 0 154.5 61t62.5 152q0 105 -73.5 169.5t-223.5 64.5h-258v-1145q0 -43 2.5 -69.5
t12.5 -49.5t25 -34t44.5 -20t66 -12t95.5 -5v-25h-676v25q52 3 76.5 17t35.5 53t11 120v1004q0 81 -11 120t-35.5 53t-76.5 17v25h764zM559 1608l229 352l84 -70l-294 -297z" />
    <glyph glyph-name="Racute" unicode="&#x155;" horiz-adv-x="1370" 
d="M764 1434q251 0 391.5 -81t140.5 -227q0 -117 -83.5 -193t-239.5 -102l254 -567q47 -106 96.5 -164t87.5 -75v-25q-170 -33 -311.5 37t-210.5 235l-275 654l17 20q67 -33 137 -33q92 0 154.5 61t62.5 152q0 105 -73.5 169.5t-223.5 64.5h-258v-1145q0 -43 2.5 -69.5
t12.5 -49.5t25 -34t44.5 -20t66 -12t95.5 -5v-25h-676v25q52 3 76.5 17t35.5 53t11 120v1004q0 81 -11 120t-35.5 53t-76.5 17v25h764zM559 1608l229 352l84 -70l-294 -297z" />
    <glyph glyph-name="uni0156" unicode="&#x156;" horiz-adv-x="1370" 
d="M764 1434q251 0 391.5 -81t140.5 -227q0 -117 -83.5 -193t-239.5 -102l254 -567q47 -106 96.5 -164t87.5 -75v-25q-170 -33 -311.5 37t-210.5 235l-275 654l17 20q67 -33 137 -33q92 0 154.5 61t62.5 152q0 105 -73.5 169.5t-223.5 64.5h-258v-1145q0 -43 2.5 -69.5
t12.5 -49.5t25 -34t44.5 -20t66 -12t95.5 -5v-25h-676v25q52 3 76.5 17t35.5 53t11 120v1004q0 81 -11 120t-35.5 53t-76.5 17v25h764zM588 -219q0 48 36 85.5t87 37.5q50 0 86.5 -39.5t36.5 -97.5q0 -56 -34 -117t-147 -223q-18 -27 -28 -41l-23 12q31 56 48 88.5t31.5 64
t18.5 47.5t3 31t-9.5 22.5t-23.5 14.5q-82 31 -82 115z" />
    <glyph glyph-name="uni0156" unicode="&#x157;" horiz-adv-x="1370" 
d="M764 1434q251 0 391.5 -81t140.5 -227q0 -117 -83.5 -193t-239.5 -102l254 -567q47 -106 96.5 -164t87.5 -75v-25q-170 -33 -311.5 37t-210.5 235l-275 654l17 20q67 -33 137 -33q92 0 154.5 61t62.5 152q0 105 -73.5 169.5t-223.5 64.5h-258v-1145q0 -43 2.5 -69.5
t12.5 -49.5t25 -34t44.5 -20t66 -12t95.5 -5v-25h-676v25q52 3 76.5 17t35.5 53t11 120v1004q0 81 -11 120t-35.5 53t-76.5 17v25h764zM588 -219q0 48 36 85.5t87 37.5q50 0 86.5 -39.5t36.5 -97.5q0 -56 -34 -117t-147 -223q-18 -27 -28 -41l-23 12q31 56 48 88.5t31.5 64
t18.5 47.5t3 31t-9.5 22.5t-23.5 14.5q-82 31 -82 115z" />
    <glyph glyph-name="Rcaron" unicode="&#x158;" horiz-adv-x="1370" 
d="M764 1434q251 0 391.5 -81t140.5 -227q0 -117 -83.5 -193t-239.5 -102l254 -567q47 -106 96.5 -164t87.5 -75v-25q-170 -33 -311.5 37t-210.5 235l-275 654l17 20q67 -33 137 -33q92 0 154.5 61t62.5 152q0 105 -73.5 169.5t-223.5 64.5h-258v-1145q0 -43 2.5 -69.5
t12.5 -49.5t25 -34t44.5 -20t66 -12t95.5 -5v-25h-676v25q52 3 76.5 17t35.5 53t11 120v1004q0 81 -11 120t-35.5 53t-76.5 17v25h764zM406 1839l18 29l272 -96l252 96l19 -29l-281 -244z" />
    <glyph glyph-name="Rcaron" unicode="&#x159;" horiz-adv-x="1370" 
d="M764 1434q251 0 391.5 -81t140.5 -227q0 -117 -83.5 -193t-239.5 -102l254 -567q47 -106 96.5 -164t87.5 -75v-25q-170 -33 -311.5 37t-210.5 235l-275 654l17 20q67 -33 137 -33q92 0 154.5 61t62.5 152q0 105 -73.5 169.5t-223.5 64.5h-258v-1145q0 -43 2.5 -69.5
t12.5 -49.5t25 -34t44.5 -20t66 -12t95.5 -5v-25h-676v25q52 3 76.5 17t35.5 53t11 120v1004q0 81 -11 120t-35.5 53t-76.5 17v25h764zM406 1839l18 29l272 -96l252 96l19 -29l-281 -244z" />
    <glyph glyph-name="Sacute" unicode="&#x15a;" horiz-adv-x="995" 
d="M819 1409l-28 -610l-25 2q0 152 -14 262t-35.5 173.5t-56.5 100.5t-68.5 48.5t-79.5 11.5q-75 0 -125.5 -45t-50.5 -117q0 -57 29 -107.5t96 -123.5l289 -322q145 -164 145 -346q0 -156 -109 -258.5t-303 -102.5q-210 0 -364 119l67 602l25 -2q-9 -169 5 -293t39.5 -190
t67.5 -104.5t76 -48t78 -9.5q74 0 126 44t52 120q0 68 -32.5 129t-98.5 135l-288 322q-70 77 -107 164.5t-37 171.5q0 145 107.5 240t308.5 95q158 0 311 -61zM395 1608l230 352l84 -70l-295 -297z" />
    <glyph glyph-name="Sacute" unicode="&#x15b;" horiz-adv-x="995" 
d="M819 1409l-28 -610l-25 2q0 152 -14 262t-35.5 173.5t-56.5 100.5t-68.5 48.5t-79.5 11.5q-75 0 -125.5 -45t-50.5 -117q0 -57 29 -107.5t96 -123.5l289 -322q145 -164 145 -346q0 -156 -109 -258.5t-303 -102.5q-210 0 -364 119l67 602l25 -2q-9 -169 5 -293t39.5 -190
t67.5 -104.5t76 -48t78 -9.5q74 0 126 44t52 120q0 68 -32.5 129t-98.5 135l-288 322q-70 77 -107 164.5t-37 171.5q0 145 107.5 240t308.5 95q158 0 311 -61zM395 1608l230 352l84 -70l-295 -297z" />
    <glyph glyph-name="Scedilla" unicode="&#x15e;" horiz-adv-x="995" 
d="M819 1409l-28 -610l-25 2q0 152 -14 262t-35.5 173.5t-56.5 100.5t-68.5 48.5t-79.5 11.5q-75 0 -125.5 -45t-50.5 -117q0 -57 29 -107.5t96 -123.5l289 -322q145 -164 145 -346q0 -140 -88.5 -238t-249.5 -118l-78 -95q92 6 143.5 -32.5t51.5 -90.5q0 -59 -53 -98
t-126 -47.5t-151 0.5l6 23q74 -7 131.5 14.5t57.5 77.5q0 38 -38.5 70.5t-113.5 45.5v19l100 108h-4q-210 0 -364 119l67 602l25 -2q-9 -169 5 -293t39.5 -190t67.5 -104.5t76 -48t78 -9.5q74 0 126 44t52 120q0 68 -32.5 129t-98.5 135l-288 322q-70 77 -107 164.5
t-37 171.5q0 145 107.5 240t308.5 95q158 0 311 -61z" />
    <glyph glyph-name="Scedilla" unicode="&#x15f;" horiz-adv-x="995" 
d="M819 1409l-28 -610l-25 2q0 152 -14 262t-35.5 173.5t-56.5 100.5t-68.5 48.5t-79.5 11.5q-75 0 -125.5 -45t-50.5 -117q0 -57 29 -107.5t96 -123.5l289 -322q145 -164 145 -346q0 -140 -88.5 -238t-249.5 -118l-78 -95q92 6 143.5 -32.5t51.5 -90.5q0 -59 -53 -98
t-126 -47.5t-151 0.5l6 23q74 -7 131.5 14.5t57.5 77.5q0 38 -38.5 70.5t-113.5 45.5v19l100 108h-4q-210 0 -364 119l67 602l25 -2q-9 -169 5 -293t39.5 -190t67.5 -104.5t76 -48t78 -9.5q74 0 126 44t52 120q0 68 -32.5 129t-98.5 135l-288 322q-70 77 -107 164.5
t-37 171.5q0 145 107.5 240t308.5 95q158 0 311 -61z" />
    <glyph glyph-name="Scaron" unicode="&#x160;" horiz-adv-x="995" 
d="M819 1409l-28 -610l-25 2q0 152 -14 262t-35.5 173.5t-56.5 100.5t-68.5 48.5t-79.5 11.5q-75 0 -125.5 -45t-50.5 -117q0 -57 29 -107.5t96 -123.5l289 -322q145 -164 145 -346q0 -156 -109 -258.5t-303 -102.5q-210 0 -364 119l67 602l25 -2q-9 -169 5 -293t39.5 -190
t67.5 -104.5t76 -48t78 -9.5q74 0 126 44t52 120q0 68 -32.5 129t-98.5 135l-288 322q-70 77 -107 164.5t-37 171.5q0 145 107.5 240t308.5 95q158 0 311 -61zM242 1839l18 29l272 -96l252 96l19 -29l-281 -244z" />
    <glyph glyph-name="Scaron" unicode="&#x161;" horiz-adv-x="995" 
d="M819 1409l-28 -610l-25 2q0 152 -14 262t-35.5 173.5t-56.5 100.5t-68.5 48.5t-79.5 11.5q-75 0 -125.5 -45t-50.5 -117q0 -57 29 -107.5t96 -123.5l289 -322q145 -164 145 -346q0 -156 -109 -258.5t-303 -102.5q-210 0 -364 119l67 602l25 -2q-9 -169 5 -293t39.5 -190
t67.5 -104.5t76 -48t78 -9.5q74 0 126 44t52 120q0 68 -32.5 129t-98.5 135l-288 322q-70 77 -107 164.5t-37 171.5q0 145 107.5 240t308.5 95q158 0 311 -61zM242 1839l18 29l272 -96l252 96l19 -29l-281 -244z" />
    <glyph glyph-name="uni0162" unicode="&#x162;" horiz-adv-x="1024" 
d="M39 1434h1026l49 -822h-24q-16 157 -25 244.5t-24.5 181t-24.5 135.5t-32.5 87.5t-39.5 58t-55 26.5t-69.5 14.5t-92.5 0.5h-20v-1145q0 -47 3.5 -73t16.5 -52t40 -38t71.5 -19.5t113.5 -7.5h154v-25h-492l-94 -115q92 6 143.5 -32.5t51.5 -90.5q0 -59 -53 -98
t-126 -47.5t-151 0.5l6 23q74 -7 131.5 14.5t57.5 77.5q0 38 -38.5 70.5t-113.5 45.5v19l123 133h-551v25h154q69 0 113.5 7.5t71.5 19.5t40 38t16.5 52t3.5 73v1145h-63q-110 0 -150 -17q-57 -24 -86 -112q-34 -103 -68 -448q-6 -66 -16 -171h-24z" />
    <glyph glyph-name="uni0162" unicode="&#x163;" horiz-adv-x="1024" 
d="M39 1434h1026l49 -822h-24q-16 157 -25 244.5t-24.5 181t-24.5 135.5t-32.5 87.5t-39.5 58t-55 26.5t-69.5 14.5t-92.5 0.5h-20v-1145q0 -47 3.5 -73t16.5 -52t40 -38t71.5 -19.5t113.5 -7.5h154v-25h-492l-94 -115q92 6 143.5 -32.5t51.5 -90.5q0 -59 -53 -98
t-126 -47.5t-151 0.5l6 23q74 -7 131.5 14.5t57.5 77.5q0 38 -38.5 70.5t-113.5 45.5v19l123 133h-551v25h154q69 0 113.5 7.5t71.5 19.5t40 38t16.5 52t3.5 73v1145h-63q-110 0 -150 -17q-57 -24 -86 -112q-34 -103 -68 -448q-6 -66 -16 -171h-24z" />
    <glyph glyph-name="Tcaron" unicode="&#x164;" horiz-adv-x="1024" 
d="M39 1434h1026l49 -822h-24q-16 157 -25 244.5t-24.5 181t-24.5 135.5t-32.5 87.5t-39.5 58t-55 26.5t-69.5 14.5t-92.5 0.5h-20v-1145q0 -47 3.5 -73t16.5 -52t40 -38t71.5 -19.5t113.5 -7.5h154v-25h-1106v25h154q69 0 113.5 7.5t71.5 19.5t40 38t16.5 52t3.5 73v1145
h-63q-110 0 -150 -17q-57 -24 -86 -112q-34 -103 -68 -448q-6 -66 -16 -171h-24zM272 1839l19 29l272 -96l252 96l19 -29l-281 -244z" />
    <glyph glyph-name="Tcaron" unicode="&#x165;" horiz-adv-x="1024" 
d="M39 1434h1026l49 -822h-24q-16 157 -25 244.5t-24.5 181t-24.5 135.5t-32.5 87.5t-39.5 58t-55 26.5t-69.5 14.5t-92.5 0.5h-20v-1145q0 -47 3.5 -73t16.5 -52t40 -38t71.5 -19.5t113.5 -7.5h154v-25h-1106v25h154q69 0 113.5 7.5t71.5 19.5t40 38t16.5 52t3.5 73v1145
h-63q-110 0 -150 -17q-57 -24 -86 -112q-34 -103 -68 -448q-6 -66 -16 -171h-24zM272 1839l19 29l272 -96l252 96l19 -29l-281 -244z" />
    <glyph glyph-name="Utilde" unicode="&#x168;" horiz-adv-x="1404" 
d="M-20 1434h811v-25q-63 -1 -106 -3t-81 -7t-61 -10.5t-42 -17t-28 -23.5t-15 -33t-7.5 -42t-1.5 -54v-678q0 -211 100.5 -334t273.5 -123t282 119t109 313v703q0 33 -1.5 54t-7.5 42t-15 33t-28 23.5t-42 17t-61 10.5t-81 7t-106 3v25h598v-25q-51 -2 -80.5 -7t-51.5 -16
t-32 -33.5t-14 -52.5t-4 -81v-691q0 -262 -154 -411.5t-419 -149.5q-264 0 -419 148t-155 401v703q0 83 -12.5 120.5t-44.5 52t-104 17.5v25zM373 1712q34 104 86 152.5t127 48.5q77 0 215 -64q140 -63 215 -63t123 76l20 -11q-33 -103 -85 -151.5t-128 -48.5q-79 0 -215 63
q-142 64 -215 64q-75 0 -123 -76z" />
    <glyph glyph-name="Utilde" unicode="&#x169;" horiz-adv-x="1404" 
d="M-20 1434h811v-25q-63 -1 -106 -3t-81 -7t-61 -10.5t-42 -17t-28 -23.5t-15 -33t-7.5 -42t-1.5 -54v-678q0 -211 100.5 -334t273.5 -123t282 119t109 313v703q0 33 -1.5 54t-7.5 42t-15 33t-28 23.5t-42 17t-61 10.5t-81 7t-106 3v25h598v-25q-51 -2 -80.5 -7t-51.5 -16
t-32 -33.5t-14 -52.5t-4 -81v-691q0 -262 -154 -411.5t-419 -149.5q-264 0 -419 148t-155 401v703q0 83 -12.5 120.5t-44.5 52t-104 17.5v25zM373 1712q34 104 86 152.5t127 48.5q77 0 215 -64q140 -63 215 -63t123 76l20 -11q-33 -103 -85 -151.5t-128 -48.5q-79 0 -215 63
q-142 64 -215 64q-75 0 -123 -76z" />
    <glyph glyph-name="Umacron" unicode="&#x16a;" horiz-adv-x="1404" 
d="M-20 1434h811v-25q-63 -1 -106 -3t-81 -7t-61 -10.5t-42 -17t-28 -23.5t-15 -33t-7.5 -42t-1.5 -54v-678q0 -211 100.5 -334t273.5 -123t282 119t109 313v703q0 33 -1.5 54t-7.5 42t-15 33t-28 23.5t-42 17t-61 10.5t-81 7t-106 3v25h598v-25q-51 -2 -80.5 -7t-51.5 -16
t-32 -33.5t-14 -52.5t-4 -81v-691q0 -262 -154 -411.5t-419 -149.5q-264 0 -419 148t-155 401v703q0 83 -12.5 120.5t-44.5 52t-104 17.5v25zM377 1735v20l778 51v-123z" />
    <glyph glyph-name="Umacron" unicode="&#x16b;" horiz-adv-x="1404" 
d="M-20 1434h811v-25q-63 -1 -106 -3t-81 -7t-61 -10.5t-42 -17t-28 -23.5t-15 -33t-7.5 -42t-1.5 -54v-678q0 -211 100.5 -334t273.5 -123t282 119t109 313v703q0 33 -1.5 54t-7.5 42t-15 33t-28 23.5t-42 17t-61 10.5t-81 7t-106 3v25h598v-25q-51 -2 -80.5 -7t-51.5 -16
t-32 -33.5t-14 -52.5t-4 -81v-691q0 -262 -154 -411.5t-419 -149.5q-264 0 -419 148t-155 401v703q0 83 -12.5 120.5t-44.5 52t-104 17.5v25zM377 1735v20l778 51v-123z" />
    <glyph glyph-name="Uring" unicode="&#x16e;" horiz-adv-x="1404" 
d="M-20 1434h811v-25q-63 -1 -106 -3t-81 -7t-61 -10.5t-42 -17t-28 -23.5t-15 -33t-7.5 -42t-1.5 -54v-678q0 -211 100.5 -334t273.5 -123t282 119t109 313v703q0 33 -1.5 54t-7.5 42t-15 33t-28 23.5t-42 17t-61 10.5t-81 7t-106 3v25h598v-25q-51 -2 -80.5 -7t-51.5 -16
t-32 -33.5t-14 -52.5t-4 -81v-691q0 -262 -154 -411.5t-419 -149.5q-264 0 -419 148t-155 401v703q0 83 -12.5 120.5t-44.5 52t-104 17.5v25zM623 1780q0 71 45.5 117.5t117.5 46.5t118 -46.5t46 -117.5q0 -72 -46 -118t-118 -46t-117.5 46t-45.5 118zM715 1765
q0 -36 18 -61t43 -25q35 0 58.5 35.5t23.5 79.5q0 36 -18 61t-43 25q-35 0 -58.5 -35.5t-23.5 -79.5z" />
    <glyph glyph-name="Uring" unicode="&#x16f;" horiz-adv-x="1404" 
d="M-20 1434h811v-25q-63 -1 -106 -3t-81 -7t-61 -10.5t-42 -17t-28 -23.5t-15 -33t-7.5 -42t-1.5 -54v-678q0 -211 100.5 -334t273.5 -123t282 119t109 313v703q0 33 -1.5 54t-7.5 42t-15 33t-28 23.5t-42 17t-61 10.5t-81 7t-106 3v25h598v-25q-51 -2 -80.5 -7t-51.5 -16
t-32 -33.5t-14 -52.5t-4 -81v-691q0 -262 -154 -411.5t-419 -149.5q-264 0 -419 148t-155 401v703q0 83 -12.5 120.5t-44.5 52t-104 17.5v25zM623 1780q0 71 45.5 117.5t117.5 46.5t118 -46.5t46 -117.5q0 -72 -46 -118t-118 -46t-117.5 46t-45.5 118zM715 1765
q0 -36 18 -61t43 -25q35 0 58.5 35.5t23.5 79.5q0 36 -18 61t-43 25q-35 0 -58.5 -35.5t-23.5 -79.5z" />
    <glyph glyph-name="Uhungarumlaut" unicode="&#x170;" horiz-adv-x="1404" 
d="M-20 1434h811v-25q-63 -1 -106 -3t-81 -7t-61 -10.5t-42 -17t-28 -23.5t-15 -33t-7.5 -42t-1.5 -54v-678q0 -211 100.5 -334t273.5 -123t282 119t109 313v703q0 33 -1.5 54t-7.5 42t-15 33t-28 23.5t-42 17t-61 10.5t-81 7t-106 3v25h598v-25q-51 -2 -80.5 -7t-51.5 -16
t-32 -33.5t-14 -52.5t-4 -81v-691q0 -262 -154 -411.5t-419 -149.5q-264 0 -419 148t-155 401v703q0 83 -12.5 120.5t-44.5 52t-104 17.5v25zM645 1655l143 321l93 -57l-219 -277zM846 1665l244 297l81 -74l-309 -237z" />
    <glyph glyph-name="Uhungarumlaut" unicode="&#x171;" horiz-adv-x="1404" 
d="M-20 1434h811v-25q-63 -1 -106 -3t-81 -7t-61 -10.5t-42 -17t-28 -23.5t-15 -33t-7.5 -42t-1.5 -54v-678q0 -211 100.5 -334t273.5 -123t282 119t109 313v703q0 33 -1.5 54t-7.5 42t-15 33t-28 23.5t-42 17t-61 10.5t-81 7t-106 3v25h598v-25q-51 -2 -80.5 -7t-51.5 -16
t-32 -33.5t-14 -52.5t-4 -81v-691q0 -262 -154 -411.5t-419 -149.5q-264 0 -419 148t-155 401v703q0 83 -12.5 120.5t-44.5 52t-104 17.5v25zM645 1655l143 321l93 -57l-219 -277zM846 1665l244 297l81 -74l-309 -237z" />
    <glyph glyph-name="Uogonek" unicode="&#x172;" horiz-adv-x="1404" 
d="M-20 1434h811v-25q-63 -1 -106 -3t-81 -7t-61 -10.5t-42 -17t-28 -23.5t-15 -33t-7.5 -42t-1.5 -54v-678q0 -211 100.5 -334t273.5 -123t282 119t109 313v703q0 33 -1.5 54t-7.5 42t-15 33t-28 23.5t-42 17t-61 10.5t-81 7t-106 3v25h598v-25q-51 -2 -80.5 -7t-51.5 -16
t-32 -33.5t-14 -52.5t-4 -81v-691q0 -204 -95 -341.5t-267 -190.5q-108 -34 -155.5 -68.5t-47.5 -79.5q0 -48 47.5 -82t134.5 -34q31 0 47 2l6 -23q-113 -76 -217 -76q-74 0 -118.5 42.5t-44.5 99.5q0 117 163 190h-26q-264 0 -419 148t-155 401v703q0 83 -12.5 120.5
t-44.5 52t-104 17.5v25z" />
    <glyph glyph-name="Uogonek" unicode="&#x173;" horiz-adv-x="1404" 
d="M-20 1434h811v-25q-63 -1 -106 -3t-81 -7t-61 -10.5t-42 -17t-28 -23.5t-15 -33t-7.5 -42t-1.5 -54v-678q0 -211 100.5 -334t273.5 -123t282 119t109 313v703q0 33 -1.5 54t-7.5 42t-15 33t-28 23.5t-42 17t-61 10.5t-81 7t-106 3v25h598v-25q-51 -2 -80.5 -7t-51.5 -16
t-32 -33.5t-14 -52.5t-4 -81v-691q0 -204 -95 -341.5t-267 -190.5q-108 -34 -155.5 -68.5t-47.5 -79.5q0 -48 47.5 -82t134.5 -34q31 0 47 2l6 -23q-113 -76 -217 -76q-74 0 -118.5 42.5t-44.5 99.5q0 117 163 190h-26q-264 0 -419 148t-155 401v703q0 83 -12.5 120.5
t-44.5 52t-104 17.5v25z" />
    <glyph glyph-name="Wcircumflex" unicode="&#x174;" horiz-adv-x="2045" 
d="M-76 1434h1037v-25h-273q-88 0 -140.5 -2t-92 -11t-56.5 -19.5t-22 -35t0.5 -50t19.5 -72.5l303 -983l381 1300h4l510 -1333l320 1016q11 36 16.5 57.5t6.5 44t-4 34t-20.5 23t-37 16.5t-60 9t-82 5t-110.5 1h-407v25h944v-25q-61 0 -91 -33.5t-77 -156.5l-383 -1219
q-57 -7 -115 -36t-92 -79l-420 1061l-274 -946q-57 -7 -115 -36t-92 -79l-432 1334q-38 119 -67.5 154.5t-78.5 35.5v25zM825 1638l281 244l280 -244l-18 -28l-272 96l-252 -96z" />
    <glyph glyph-name="Wcircumflex" unicode="&#x175;" horiz-adv-x="2045" 
d="M-76 1434h1037v-25h-273q-88 0 -140.5 -2t-92 -11t-56.5 -19.5t-22 -35t0.5 -50t19.5 -72.5l303 -983l381 1300h4l510 -1333l320 1016q11 36 16.5 57.5t6.5 44t-4 34t-20.5 23t-37 16.5t-60 9t-82 5t-110.5 1h-407v25h944v-25q-61 0 -91 -33.5t-77 -156.5l-383 -1219
q-57 -7 -115 -36t-92 -79l-420 1061l-274 -946q-57 -7 -115 -36t-92 -79l-432 1334q-38 119 -67.5 154.5t-78.5 35.5v25zM825 1638l281 244l280 -244l-18 -28l-272 96l-252 -96z" />
    <glyph glyph-name="Ycircumflex" unicode="&#x176;" horiz-adv-x="1267" 
d="M119 1217q-50 71 -75.5 102.5t-58.5 55.5t-63.5 29t-85.5 5v25h869v-25q-224 0 -269 -26q-36 -20 -5 -75q9 -16 26 -40l309 -437l297 435q50 73 37 100q-17 34 -152 40q-54 3 -141 3v25h625v-25q-55 0 -88.5 -5t-61 -13.5t-53.5 -34.5t-48 -54t-61 -85l-293 -429v-593
q0 -56 6.5 -85t34 -49.5t73 -27t132.5 -8.5v-25h-799v25q87 2 132.5 8.5t73 27t34 49.5t6.5 85v452zM489 1638l281 244l281 -244l-19 -28l-272 96l-252 -96z" />
    <glyph glyph-name="Ycircumflex" unicode="&#x177;" horiz-adv-x="1267" 
d="M119 1217q-50 71 -75.5 102.5t-58.5 55.5t-63.5 29t-85.5 5v25h869v-25q-224 0 -269 -26q-36 -20 -5 -75q9 -16 26 -40l309 -437l297 435q50 73 37 100q-17 34 -152 40q-54 3 -141 3v25h625v-25q-55 0 -88.5 -5t-61 -13.5t-53.5 -34.5t-48 -54t-61 -85l-293 -429v-593
q0 -56 6.5 -85t34 -49.5t73 -27t132.5 -8.5v-25h-799v25q87 2 132.5 8.5t73 27t34 49.5t6.5 85v452zM489 1638l281 244l281 -244l-19 -28l-272 96l-252 -96z" />
    <glyph glyph-name="Zacute" unicode="&#x179;" horiz-adv-x="1167" 
d="M154 1434h972l-630 -1360h317q103 0 133 16q41 23 32 107q-9 86 -99 378l22 11l225 -586h-1003l631 1360h-287q-103 0 -133 -16q-42 -24 -32 -109q10 -87 99 -377l-22 -10zM518 1608l230 352l83 -70l-294 -297z" />
    <glyph glyph-name="Zacute" unicode="&#x17a;" horiz-adv-x="1167" 
d="M154 1434h972l-630 -1360h317q103 0 133 16q41 23 32 107q-9 86 -99 378l22 11l225 -586h-1003l631 1360h-287q-103 0 -133 -16q-42 -24 -32 -109q10 -87 99 -377l-22 -10zM518 1608l230 352l83 -70l-294 -297z" />
    <glyph glyph-name="Zdotaccent" unicode="&#x17b;" horiz-adv-x="1167" 
d="M154 1434h972l-630 -1360h317q103 0 133 16q41 23 32 107q-9 86 -99 378l22 11l225 -586h-1003l631 1360h-287q-103 0 -133 -16q-42 -24 -32 -109q10 -87 99 -377l-22 -10zM522 1753q0 50 36 85.5t87 35.5t87 -35.5t36 -85.5q0 -52 -36 -88.5t-87 -36.5t-87 36.5
t-36 88.5z" />
    <glyph glyph-name="Zdotaccent" unicode="&#x17c;" horiz-adv-x="1167" 
d="M154 1434h972l-630 -1360h317q103 0 133 16q41 23 32 107q-9 86 -99 378l22 11l225 -586h-1003l631 1360h-287q-103 0 -133 -16q-42 -24 -32 -109q10 -87 99 -377l-22 -10zM522 1753q0 50 36 85.5t87 35.5t87 -35.5t36 -85.5q0 -52 -36 -88.5t-87 -36.5t-87 36.5
t-36 88.5z" />
    <glyph glyph-name="Zcaron" unicode="&#x17d;" horiz-adv-x="1167" 
d="M154 1434h972l-630 -1360h317q103 0 133 16q41 23 32 107q-9 86 -99 378l22 11l225 -586h-1003l631 1360h-287q-103 0 -133 -16q-42 -24 -32 -109q10 -87 99 -377l-22 -10zM365 1839l18 29l272 -96l252 96l19 -29l-281 -244z" />
    <glyph glyph-name="Zcaron" unicode="&#x17e;" horiz-adv-x="1167" 
d="M154 1434h972l-630 -1360h317q103 0 133 16q41 23 32 107q-9 86 -99 378l22 11l225 -586h-1003l631 1360h-287q-103 0 -133 -16q-42 -24 -32 -109q10 -87 99 -377l-22 -10zM365 1839l18 29l272 -96l252 96l19 -29l-281 -244z" />
    <glyph glyph-name="uni01DE" unicode="&#x1de;" horiz-adv-x="1228" 
d="M530 1434q59 0 116 27.5t91 86.5l471 -1333q43 -122 74 -156t94 -34v-25h-801v25q92 0 148 2t98.5 11t60 19.5t23.5 35t0 50.5t-22 72l-52 150h-634l-58 -148q-14 -35 -20.5 -56.5t-8 -44t5 -34.5t25.5 -24t46 -17t73 -9.5t100 -5.5t134 -1v-25h-611v25q63 0 94 33
t80 157zM225 438h580l-275 791zM240 2025v21l778 51v-123zM342 1753q0 41 29.5 71.5t72.5 30.5q40 0 71.5 -31t31.5 -71q0 -43 -31 -73.5t-72 -30.5q-44 0 -73 30t-29 74zM690 1753q0 39 30 69.5t73 30.5q40 0 71 -31t31 -69q0 -43 -30.5 -73.5t-71.5 -30.5q-44 0 -73.5 30
t-29.5 74z" />
    <glyph glyph-name="uni01DE" unicode="&#x1df;" horiz-adv-x="1228" 
d="M530 1434q59 0 116 27.5t91 86.5l471 -1333q43 -122 74 -156t94 -34v-25h-801v25q92 0 148 2t98.5 11t60 19.5t23.5 35t0 50.5t-22 72l-52 150h-634l-58 -148q-14 -35 -20.5 -56.5t-8 -44t5 -34.5t25.5 -24t46 -17t73 -9.5t100 -5.5t134 -1v-25h-611v25q63 0 94 33
t80 157zM225 438h580l-275 791zM240 2025v21l778 51v-123zM342 1753q0 41 29.5 71.5t72.5 30.5q40 0 71.5 -31t31.5 -71q0 -43 -31 -73.5t-72 -30.5q-44 0 -73 30t-29 74zM690 1753q0 39 30 69.5t73 30.5q40 0 71 -31t31 -69q0 -43 -30.5 -73.5t-71.5 -30.5q-44 0 -73.5 30
t-29.5 74z" />
    <glyph glyph-name="uni0218" unicode="&#x218;" horiz-adv-x="995" 
d="M819 1409l-28 -610l-25 2q0 152 -14 262t-35.5 173.5t-56.5 100.5t-68.5 48.5t-79.5 11.5q-75 0 -125.5 -45t-50.5 -117q0 -57 29 -107.5t96 -123.5l289 -322q145 -164 145 -346q0 -156 -109 -258.5t-303 -102.5q-210 0 -364 119l67 602l25 -2q-9 -169 5 -293t39.5 -190
t67.5 -104.5t76 -48t78 -9.5q74 0 126 44t52 120q0 68 -32.5 129t-98.5 135l-288 322q-70 77 -107 164.5t-37 171.5q0 145 107.5 240t308.5 95q158 0 311 -61zM403 -219q0 48 36 85.5t87 37.5q50 0 86.5 -39.5t36.5 -97.5q0 -56 -34 -117t-147 -223q-18 -27 -28 -41l-22 12
q30 55 47.5 88t32 64t18.5 47.5t2.5 31t-10 22.5t-23.5 15q-82 31 -82 115z" />
    <glyph glyph-name="uni0218" unicode="&#x219;" horiz-adv-x="995" 
d="M819 1409l-28 -610l-25 2q0 152 -14 262t-35.5 173.5t-56.5 100.5t-68.5 48.5t-79.5 11.5q-75 0 -125.5 -45t-50.5 -117q0 -57 29 -107.5t96 -123.5l289 -322q145 -164 145 -346q0 -156 -109 -258.5t-303 -102.5q-210 0 -364 119l67 602l25 -2q-9 -169 5 -293t39.5 -190
t67.5 -104.5t76 -48t78 -9.5q74 0 126 44t52 120q0 68 -32.5 129t-98.5 135l-288 322q-70 77 -107 164.5t-37 171.5q0 145 107.5 240t308.5 95q158 0 311 -61zM403 -219q0 48 36 85.5t87 37.5q50 0 86.5 -39.5t36.5 -97.5q0 -56 -34 -117t-147 -223q-18 -27 -28 -41l-22 12
q30 55 47.5 88t32 64t18.5 47.5t2.5 31t-10 22.5t-23.5 15q-82 31 -82 115z" />
    <glyph glyph-name="uni021A" unicode="&#x21a;" horiz-adv-x="1024" 
d="M39 1434h1026l49 -822h-24q-16 157 -25 244.5t-24.5 181t-24.5 135.5t-32.5 87.5t-39.5 58t-55 26.5t-69.5 14.5t-92.5 0.5h-20v-1145q0 -47 3.5 -73t16.5 -52t40 -38t71.5 -19.5t113.5 -7.5h154v-25h-1106v25h154q69 0 113.5 7.5t71.5 19.5t40 38t16.5 52t3.5 73v1145
h-63q-110 0 -150 -17q-57 -24 -86 -112q-34 -103 -68 -448q-6 -66 -16 -171h-24zM434 -219q0 48 36 85.5t87 37.5q50 0 86.5 -39.5t36.5 -97.5q0 -56 -34 -117t-147 -223q-18 -27 -28 -41l-22 12q30 55 47.5 88t32 64t18.5 47.5t2.5 31t-10 22.5t-23.5 15q-82 31 -82 115z
" />
    <glyph glyph-name="uni021A" unicode="&#x21b;" horiz-adv-x="1024" 
d="M39 1434h1026l49 -822h-24q-16 157 -25 244.5t-24.5 181t-24.5 135.5t-32.5 87.5t-39.5 58t-55 26.5t-69.5 14.5t-92.5 0.5h-20v-1145q0 -47 3.5 -73t16.5 -52t40 -38t71.5 -19.5t113.5 -7.5h154v-25h-1106v25h154q69 0 113.5 7.5t71.5 19.5t40 38t16.5 52t3.5 73v1145
h-63q-110 0 -150 -17q-57 -24 -86 -112q-34 -103 -68 -448q-6 -66 -16 -171h-24zM434 -219q0 48 36 85.5t87 37.5q50 0 86.5 -39.5t36.5 -97.5q0 -56 -34 -117t-147 -223q-18 -27 -28 -41l-22 12q30 55 47.5 88t32 64t18.5 47.5t2.5 31t-10 22.5t-23.5 15q-82 31 -82 115z
" />
    <glyph glyph-name="uni0228" unicode="&#x228;" horiz-adv-x="1116" 
d="M0 1434h1010l39 -414l-25 -2q-9 81 -17.5 133t-21.5 92.5t-27 61.5t-38.5 34.5t-51 17t-69.5 3.5h-369v-352l440 -25v-25l-440 -24v-860h324q62 0 92.5 1.5t71 16.5t57.5 34.5t42 72t36 111.5t28.5 170.5t29 232t28.5 311.5h24l-76 -1024h-423l-95 -115q92 6 143.5 -32.5
t51.5 -90.5q0 -59 -53 -98t-126 -47.5t-151 0.5l6 23q74 -7 131.5 14.5t57.5 77.5q0 38 -38.5 70.5t-113.5 45.5v19l123 133h-600v25q52 3 76.5 17t35.5 53t11 120v1004q0 81 -11 120t-35.5 53t-76.5 17v25z" />
    <glyph glyph-name="uni0228" unicode="&#x229;" horiz-adv-x="1116" 
d="M0 1434h1010l39 -414l-25 -2q-9 81 -17.5 133t-21.5 92.5t-27 61.5t-38.5 34.5t-51 17t-69.5 3.5h-369v-352l440 -25v-25l-440 -24v-860h324q62 0 92.5 1.5t71 16.5t57.5 34.5t42 72t36 111.5t28.5 170.5t29 232t28.5 311.5h24l-76 -1024h-423l-95 -115q92 6 143.5 -32.5
t51.5 -90.5q0 -59 -53 -98t-126 -47.5t-151 0.5l6 23q74 -7 131.5 14.5t57.5 77.5q0 38 -38.5 70.5t-113.5 45.5v19l123 133h-600v25q52 3 76.5 17t35.5 53t11 120v1004q0 81 -11 120t-35.5 53t-76.5 17v25z" />
    <glyph glyph-name="uni02BC" unicode="&#x2bc;" horiz-adv-x="573" 
d="M266 1538l146 -25l-146 -546l-30 4z" />
    <glyph glyph-name="gravecomb" unicode="&#x300;" 
d="M506 1929l229 -352l-18 -14l-295 297z" />
    <glyph glyph-name="acutecomb" unicode="&#x301;" 
d="M717 1960l84 -70l-295 -297l-19 15z" />
    <glyph glyph-name="uni0302" unicode="&#x302;" 
d="M877 1610l-273 96l-252 -96l-18 28l280 244l281 -244z" />
    <glyph glyph-name="tildecomb" unicode="&#x303;" 
d="M774 1651q-79 0 -215 63q-142 64 -215 64q-75 0 -123 -76l-20 10q34 104 86 152.5t127 48.5q77 0 215 -64q140 -63 215 -63t123 76l20 -11q-33 -103 -85 -151.5t-128 -48.5z" />
    <glyph glyph-name="uni0304" unicode="&#x304;" 
d="M205 1755l778 51v-123l-778 52v20z" />
    <glyph glyph-name="uni0306" unicode="&#x306;" 
d="M319 1868l859 313l8 -22q-149 -55 -266 -110.5t-184.5 -99.5t-111.5 -85t-59.5 -68.5t-15.5 -48.5q0 -39 27 -59.5t69 -20.5q78 0 150 57t82 144h32q0 -119 -83 -195t-212 -76t-212 76t-83 195z" />
    <glyph glyph-name="uni0307" unicode="&#x307;" 
d="M614 1628q-51 0 -86.5 36.5t-35.5 88.5q0 50 35.5 85.5t86.5 35.5t87 -35.5t36 -85.5q0 -52 -36 -88.5t-87 -36.5z" />
    <glyph glyph-name="uni0308" unicode="&#x308;" 
d="M440 1649q-44 0 -73 30t-29 74q0 41 29.5 71.5t72.5 30.5q40 0 71.5 -31t31.5 -71q0 -43 -31 -73.5t-72 -30.5zM686 1753q0 39 29.5 69.5t72.5 30.5q40 0 71.5 -31t31.5 -69q0 -43 -31 -73.5t-72 -30.5q-44 0 -73 30t-29 74z" />
    <glyph glyph-name="uni030A" unicode="&#x30a;" 
d="M451 1780q0 71 45.5 117.5t117.5 46.5t118 -46.5t46 -117.5q0 -72 -46 -118t-118 -46t-117.5 46t-45.5 118zM543 1765q0 -36 18 -61t43 -25q35 0 58.5 35.5t23.5 79.5q0 36 -18 61t-43 25q-35 0 -58.5 -35.5t-23.5 -79.5z" />
    <glyph glyph-name="uni030B" unicode="&#x30b;" 
d="M616 1976l93 -57l-220 -277l-16 13zM674 1665l244 297l81 -74l-309 -237z" />
    <glyph glyph-name="uni030C" unicode="&#x30c;" 
d="M352 1868l273 -96l252 96l18 -29l-281 -244l-280 244z" />
    <glyph glyph-name="uni0312" unicode="&#x312;" 
d="M422 1599q-58 -107 -82.5 -156t-37 -91t-3 -58t38.5 -30q102 -41 102 -144q0 -61 -44 -107t-109 -46q-63 0 -108.5 50t-45.5 122q0 69 44.5 148.5t181.5 277.5q22 32 34 49z" />
    <glyph glyph-name="uni0326" unicode="&#x326;" 
d="M182 -602q31 56 48 88.5t31.5 64t18.5 47.5t3 31t-9.5 22.5t-23.5 14.5q-82 31 -82 115q0 48 36 85.5t87 37.5q50 0 86.5 -39.5t36.5 -97.5q0 -56 -34 -117t-147 -223q-18 -27 -28 -41z" />
    <glyph glyph-name="uni0327" unicode="&#x327;" 
d="M567 18l47 -18l-94 -115q92 6 143.5 -32.5t51.5 -90.5q0 -59 -53 -98t-126 -47.5t-151 0.5l6 23q74 -7 131.5 14.5t57.5 77.5q0 38 -38.5 70.5t-113.5 45.5v19z" />
    <glyph glyph-name="uni0328" unicode="&#x328;" 
d="M426 -362q-75 0 -119.5 42t-44.5 99q0 84 89.5 149t262.5 101v-29q-110 -35 -158 -70.5t-48 -79.5q0 -48 47.5 -82t134.5 -34q31 0 47 2l6 -23q-112 -75 -217 -75z" />
    <glyph glyph-name="uni0401" unicode="&#x401;" horiz-adv-x="1116" 
d="M0 1434h1010l39 -414l-25 -2q-9 81 -17.5 133t-21.5 92.5t-27 61.5t-38.5 34.5t-51 17t-69.5 3.5h-369v-352l440 -25v-25l-440 -24v-860h324q62 0 92.5 1.5t71 16.5t57.5 34.5t42 72t36 111.5t28.5 170.5t29 232t28.5 311.5h24l-76 -1024h-1087v25q52 3 76.5 17t35.5 53
t11 120v1004q0 81 -11 120t-35.5 53t-76.5 17v25zM307 1753q0 41 30 71.5t73 30.5q40 0 71 -31t31 -71q0 -43 -30.5 -73.5t-71.5 -30.5q-44 0 -73.5 30t-29.5 74zM655 1753q0 39 30 69.5t73 30.5q40 0 71 -31t31 -69q0 -43 -30.5 -73.5t-71.5 -30.5q-44 0 -73.5 30t-29.5 74
z" />
    <glyph glyph-name="uni0401" unicode="&#x451;" horiz-adv-x="1116" 
d="M0 1434h1010l39 -414l-25 -2q-9 81 -17.5 133t-21.5 92.5t-27 61.5t-38.5 34.5t-51 17t-69.5 3.5h-369v-352l440 -25v-25l-440 -24v-860h324q62 0 92.5 1.5t71 16.5t57.5 34.5t42 72t36 111.5t28.5 170.5t29 232t28.5 311.5h24l-76 -1024h-1087v25q52 3 76.5 17t35.5 53
t11 120v1004q0 81 -11 120t-35.5 53t-76.5 17v25zM307 1753q0 41 30 71.5t73 30.5q40 0 71 -31t31 -71q0 -43 -30.5 -73.5t-71.5 -30.5q-44 0 -73.5 30t-29.5 74zM655 1753q0 39 30 69.5t73 30.5q40 0 71 -31t31 -69q0 -43 -30.5 -73.5t-71.5 -30.5q-44 0 -73.5 30t-29.5 74
z" />
    <glyph glyph-name="uni0402" unicode="&#x402;" horiz-adv-x="1540" 
d="M932 842q-123 0 -225 -51v-576q0 -47 3.5 -73t16.5 -52t40 -38t71.5 -19.5t113.5 -7.5h125q58 91 88.5 203t30.5 223q0 109 -27 195.5t-88 141t-149 54.5zM-8 612l47 822h948l29 -482h4q117 0 210.5 -41.5t152 -112.5t89.5 -161t31 -191q0 -97 -27.5 -191t-86.5 -179.5
t-142.5 -150.5t-204.5 -103.5t-264 -38.5v24q169 38 281 193h-1059v25h154q69 0 113.5 7.5t71.5 19.5t40 38t16.5 52t3.5 73v1145h-63q-110 0 -150 -17q-57 -24 -86 -112q-34 -103 -68 -448q-6 -66 -16 -171h-24zM707 858q127 88 284 94q-11 84 -18 131.5t-18.5 98t-18.5 74
t-25 48t-31 32t-43 15.5t-55.5 8.5t-72.5 0.5h-2v-502z" />
    <glyph glyph-name="uni0402" unicode="&#x452;" horiz-adv-x="1540" 
d="M932 842q-123 0 -225 -51v-576q0 -47 3.5 -73t16.5 -52t40 -38t71.5 -19.5t113.5 -7.5h125q58 91 88.5 203t30.5 223q0 109 -27 195.5t-88 141t-149 54.5zM-8 612l47 822h948l29 -482h4q117 0 210.5 -41.5t152 -112.5t89.5 -161t31 -191q0 -97 -27.5 -191t-86.5 -179.5
t-142.5 -150.5t-204.5 -103.5t-264 -38.5v24q169 38 281 193h-1059v25h154q69 0 113.5 7.5t71.5 19.5t40 38t16.5 52t3.5 73v1145h-63q-110 0 -150 -17q-57 -24 -86 -112q-34 -103 -68 -448q-6 -66 -16 -171h-24zM707 858q127 88 284 94q-11 84 -18 131.5t-18.5 98t-18.5 74
t-25 48t-31 32t-43 15.5t-55.5 8.5t-72.5 0.5h-2v-502z" />
    <glyph glyph-name="uni0403" unicode="&#x403;" horiz-adv-x="983" 
d="M0 1434h1034l-344 -826l-22 8q166 416 194 551q25 124 -24 162q-38 29 -157 31h-40h-211v-1145q0 -43 2.5 -69.5t12.5 -49.5t25 -34t44.5 -20t66 -12t95.5 -5v-25h-676v25q52 3 76.5 17t35.5 53t11 120v1004q0 81 -11 120t-35.5 53t-76.5 17v25zM487 1608l230 352l84 -70
l-295 -297z" />
    <glyph glyph-name="uni0403" unicode="&#x453;" horiz-adv-x="983" 
d="M0 1434h1034l-344 -826l-22 8q166 416 194 551q25 124 -24 162q-38 29 -157 31h-40h-211v-1145q0 -43 2.5 -69.5t12.5 -49.5t25 -34t44.5 -20t66 -12t95.5 -5v-25h-676v25q52 3 76.5 17t35.5 53t11 120v1004q0 81 -11 120t-35.5 53t-76.5 17v25zM487 1608l230 352l84 -70
l-295 -297z" />
    <glyph glyph-name="uni0404" unicode="&#x404;" horiz-adv-x="1488" 
d="M1102 776q-32 19 -60 19q-25 0 -52.5 -12t-80.5 -42.5t-90 -48.5q-87 -49 -172 -49q-105 0 -207 86l11 19q28 -7 47 -7q10 0 20 1t22 4t20.5 5t23.5 8.5t23.5 9.5t28 12.5t28.5 14l34 17l37 18.5q99 54 183 54q113 0 196 -90zM61 725q0 156 59 296t159.5 241.5t240 161
t295.5 59.5q167 0 315 -64t256 -172l-139 -379l-22 6q25 128 10 226t-61.5 165t-114.5 101.5t-148 34.5q-103 0 -194.5 -44.5t-158 -120.5t-114.5 -174.5t-72 -209t-24 -221.5q0 -140 41 -253t109.5 -183.5t154.5 -108t181 -37.5q88 0 172 33.5t156 98.5t125.5 170t74.5 237
h24v-385q-108 -108 -256 -172t-315 -64q-156 0 -295.5 59.5t-240 161t-159.5 241.5t-59 296z" />
    <glyph glyph-name="uni0404" unicode="&#x454;" horiz-adv-x="1488" 
d="M1102 776q-32 19 -60 19q-25 0 -52.5 -12t-80.5 -42.5t-90 -48.5q-87 -49 -172 -49q-105 0 -207 86l11 19q28 -7 47 -7q10 0 20 1t22 4t20.5 5t23.5 8.5t23.5 9.5t28 12.5t28.5 14l34 17l37 18.5q99 54 183 54q113 0 196 -90zM61 725q0 156 59 296t159.5 241.5t240 161
t295.5 59.5q167 0 315 -64t256 -172l-139 -379l-22 6q25 128 10 226t-61.5 165t-114.5 101.5t-148 34.5q-103 0 -194.5 -44.5t-158 -120.5t-114.5 -174.5t-72 -209t-24 -221.5q0 -140 41 -253t109.5 -183.5t154.5 -108t181 -37.5q88 0 172 33.5t156 98.5t125.5 170t74.5 237
h24v-385q-108 -108 -256 -172t-315 -64q-156 0 -295.5 59.5t-240 161t-159.5 241.5t-59 296z" />
    <glyph glyph-name="uni0405" unicode="&#x405;" horiz-adv-x="995" 
d="M819 1409l-28 -610l-25 2q0 152 -14 262t-35.5 173.5t-56.5 100.5t-68.5 48.5t-79.5 11.5q-75 0 -125.5 -45t-50.5 -117q0 -57 29 -107.5t96 -123.5l289 -322q145 -164 145 -346q0 -156 -109 -258.5t-303 -102.5q-210 0 -364 119l67 602l25 -2q-9 -169 5 -293t39.5 -190
t67.5 -104.5t76 -48t78 -9.5q74 0 126 44t52 120q0 68 -32.5 129t-98.5 135l-288 322q-70 77 -107 164.5t-37 171.5q0 145 107.5 240t308.5 95q158 0 311 -61z" />
    <glyph glyph-name="uni0405" unicode="&#x455;" horiz-adv-x="995" 
d="M819 1409l-28 -610l-25 2q0 152 -14 262t-35.5 173.5t-56.5 100.5t-68.5 48.5t-79.5 11.5q-75 0 -125.5 -45t-50.5 -117q0 -57 29 -107.5t96 -123.5l289 -322q145 -164 145 -346q0 -156 -109 -258.5t-303 -102.5q-210 0 -364 119l67 602l25 -2q-9 -169 5 -293t39.5 -190
t67.5 -104.5t76 -48t78 -9.5q74 0 126 44t52 120q0 68 -32.5 129t-98.5 135l-288 322q-70 77 -107 164.5t-37 171.5q0 145 107.5 240t308.5 95q158 0 311 -61z" />
    <glyph glyph-name="uni0406" unicode="&#x406;" horiz-adv-x="583" 
d="M0 1434h584v-25q-45 -2 -69.5 -9t-41.5 -28.5t-22 -56t-5 -96.5v-1004q0 -62 5 -96.5t22 -56t41.5 -28.5t69.5 -9v-25h-584v25q61 3 88.5 17.5t39 52.5t11.5 120v1004q0 82 -11.5 120t-39 52.5t-88.5 17.5v25z" />
    <glyph glyph-name="uni0406" unicode="&#x456;" horiz-adv-x="583" 
d="M0 1434h584v-25q-45 -2 -69.5 -9t-41.5 -28.5t-22 -56t-5 -96.5v-1004q0 -62 5 -96.5t22 -56t41.5 -28.5t69.5 -9v-25h-584v25q61 3 88.5 17.5t39 52.5t11.5 120v1004q0 82 -11.5 120t-39 52.5t-88.5 17.5v25z" />
    <glyph glyph-name="uni0407" unicode="&#x407;" horiz-adv-x="583" 
d="M0 1434h584v-25q-45 -2 -69.5 -9t-41.5 -28.5t-22 -56t-5 -96.5v-1004q0 -62 5 -96.5t22 -56t41.5 -28.5t69.5 -9v-25h-584v25q61 3 88.5 17.5t39 52.5t11.5 120v1004q0 82 -11.5 120t-39 52.5t-88.5 17.5v25zM16 1753q0 41 30 71.5t73 30.5q40 0 71 -31t31 -71
q0 -43 -30.5 -73.5t-71.5 -30.5q-44 0 -73.5 30t-29.5 74zM365 1753q0 39 29.5 69.5t72.5 30.5q40 0 71 -31t31 -69q0 -43 -30.5 -73.5t-71.5 -30.5q-44 0 -73 30t-29 74z" />
    <glyph glyph-name="uni0407" unicode="&#x457;" horiz-adv-x="583" 
d="M0 1434h584v-25q-45 -2 -69.5 -9t-41.5 -28.5t-22 -56t-5 -96.5v-1004q0 -62 5 -96.5t22 -56t41.5 -28.5t69.5 -9v-25h-584v25q61 3 88.5 17.5t39 52.5t11.5 120v1004q0 82 -11.5 120t-39 52.5t-88.5 17.5v25zM16 1753q0 41 30 71.5t73 30.5q40 0 71 -31t31 -71
q0 -43 -30.5 -73.5t-71.5 -30.5q-44 0 -73.5 30t-29.5 74zM365 1753q0 39 29.5 69.5t72.5 30.5q40 0 71 -31t31 -69q0 -43 -30.5 -73.5t-71.5 -30.5q-44 0 -73 30t-29 74z" />
    <glyph glyph-name="uni0408" unicode="&#x408;" horiz-adv-x="624" 
d="M-23 1434h648v-25q-45 -2 -69.5 -9t-41.5 -28.5t-22 -56t-5 -96.5v-971q0 -286 -184 -451.5t-528 -165.5v25q220 49 312.5 190.5t92.5 425.5v947q0 43 -2.5 69.5t-11 49t-21 34.5t-37 20.5t-54.5 11.5t-77 5v25z" />
    <glyph glyph-name="uni0408" unicode="&#x458;" horiz-adv-x="624" 
d="M-23 1434h648v-25q-45 -2 -69.5 -9t-41.5 -28.5t-22 -56t-5 -96.5v-971q0 -286 -184 -451.5t-528 -165.5v25q220 49 312.5 190.5t92.5 425.5v947q0 43 -2.5 69.5t-11 49t-21 34.5t-37 20.5t-54.5 11.5t-77 5v25z" />
    <glyph glyph-name="uni0409" unicode="&#x409;" horiz-adv-x="1886" 
d="M0 1434h1413v-25q-75 -2 -121.5 -5t-83.5 -12t-55 -20t-30 -34.5t-14.5 -49t-2.5 -69.5v-1145h141q111 0 193.5 59.5t122 149.5t39.5 194q0 76 -23 146t-67 126t-115.5 89.5t-161.5 33.5q-7 0 -20.5 -1t-20.5 -1v21q108 31 213 31q78 0 149 -14.5t135 -46.5t110.5 -79.5
t74 -118.5t27.5 -157q0 -238 -159.5 -372t-443.5 -134h-747v25q59 2 95.5 5t66 12t44.5 20t25 34t12.5 49.5t2.5 69.5v1145h-353l-178 -1049q-12 -69 -20.5 -110.5t-23.5 -88.5t-32.5 -72t-44 -41.5t-61.5 -16.5q-36 0 -86 18v578h25q6 -121 32 -181.5t62 -60.5t68 60
t53 182l108 641q6 34 8 56t-1.5 43.5t-12 34t-27.5 23.5t-44 16.5t-66 10t-88.5 5.5t-116.5 1v25z" />
    <glyph glyph-name="uni0409" unicode="&#x459;" horiz-adv-x="1886" 
d="M0 1434h1413v-25q-75 -2 -121.5 -5t-83.5 -12t-55 -20t-30 -34.5t-14.5 -49t-2.5 -69.5v-1145h141q111 0 193.5 59.5t122 149.5t39.5 194q0 76 -23 146t-67 126t-115.5 89.5t-161.5 33.5q-7 0 -20.5 -1t-20.5 -1v21q108 31 213 31q78 0 149 -14.5t135 -46.5t110.5 -79.5
t74 -118.5t27.5 -157q0 -238 -159.5 -372t-443.5 -134h-747v25q59 2 95.5 5t66 12t44.5 20t25 34t12.5 49.5t2.5 69.5v1145h-353l-178 -1049q-12 -69 -20.5 -110.5t-23.5 -88.5t-32.5 -72t-44 -41.5t-61.5 -16.5q-36 0 -86 18v578h25q6 -121 32 -181.5t62 -60.5t68 60
t53 182l108 641q6 34 8 56t-1.5 43.5t-12 34t-27.5 23.5t-44 16.5t-66 10t-88.5 5.5t-116.5 1v25z" />
    <glyph glyph-name="uni040A" unicode="&#x40a;" horiz-adv-x="2060" 
d="M0 1434h676v-25q-59 -2 -95.5 -5t-66 -12t-44.5 -20t-25 -34t-12.5 -49.5t-2.5 -69.5v-222h543v222q0 43 -2.5 69.5t-11.5 49t-22 34.5t-39 20.5t-57.5 11.5t-82.5 5v25h829v-25q-75 -2 -121.5 -5t-83.5 -12t-55 -20t-30 -34.5t-14.5 -49t-2.5 -69.5v-1145h141
q111 0 193.5 59.5t122 149.5t39.5 194q0 76 -23 146t-67 126t-115.5 89.5t-161.5 33.5q-7 0 -20.5 -1t-20.5 -1v21q108 31 213 31q78 0 149 -14.5t135 -46.5t110.5 -79.5t74 -118.5t27.5 -157q0 -238 -159 -372t-443 -134h-717v25q51 2 82.5 5t57.5 11.5t39 20.5t22 34.5
t11.5 49t2.5 69.5v709h-543v-709q0 -43 2.5 -69.5t12.5 -49.5t25 -34t44.5 -20t66 -12t95.5 -5v-25h-676v25q52 3 76.5 17t35.5 53t11 120v1004q0 81 -11 120t-35.5 53t-76.5 17v25z" />
    <glyph glyph-name="uni040A" unicode="&#x45a;" horiz-adv-x="2060" 
d="M0 1434h676v-25q-59 -2 -95.5 -5t-66 -12t-44.5 -20t-25 -34t-12.5 -49.5t-2.5 -69.5v-222h543v222q0 43 -2.5 69.5t-11.5 49t-22 34.5t-39 20.5t-57.5 11.5t-82.5 5v25h829v-25q-75 -2 -121.5 -5t-83.5 -12t-55 -20t-30 -34.5t-14.5 -49t-2.5 -69.5v-1145h141
q111 0 193.5 59.5t122 149.5t39.5 194q0 76 -23 146t-67 126t-115.5 89.5t-161.5 33.5q-7 0 -20.5 -1t-20.5 -1v21q108 31 213 31q78 0 149 -14.5t135 -46.5t110.5 -79.5t74 -118.5t27.5 -157q0 -238 -159 -372t-443 -134h-717v25q51 2 82.5 5t57.5 11.5t39 20.5t22 34.5
t11.5 49t2.5 69.5v709h-543v-709q0 -43 2.5 -69.5t12.5 -49.5t25 -34t44.5 -20t66 -12t95.5 -5v-25h-676v25q52 3 76.5 17t35.5 53t11 120v1004q0 81 -11 120t-35.5 53t-76.5 17v25z" />
    <glyph glyph-name="uni040B" unicode="&#x40b;" horiz-adv-x="1550" 
d="M39 1434h948l29 -482h4q228 0 349.5 -112t121.5 -285v-340q0 -80 10 -119.5t30 -53.5t62 -17v-25h-1593v25h154q69 0 113.5 7.5t71.5 19.5t40 38t16.5 52t3.5 73v1145h-63q-110 0 -150 -17q-57 -24 -86 -112q-34 -103 -68 -448q-6 -66 -16 -171h-24zM707 215
q0 -47 3.5 -73t16.5 -52t40 -38t71.5 -19.5t113.5 -7.5h33q46 2 75.5 5t53.5 11.5t36 20.5t20.5 34.5t11 49t2.5 69.5v324q0 137 -66.5 220t-185.5 83q-123 0 -225 -51v-576zM707 858q127 88 284 94q-11 84 -18 131.5t-18.5 98t-18.5 74t-25 48t-31 32t-43 15.5t-55.5 8.5
t-72.5 0.5h-2v-502z" />
    <glyph glyph-name="uni040B" unicode="&#x45b;" horiz-adv-x="1550" 
d="M39 1434h948l29 -482h4q228 0 349.5 -112t121.5 -285v-340q0 -80 10 -119.5t30 -53.5t62 -17v-25h-1593v25h154q69 0 113.5 7.5t71.5 19.5t40 38t16.5 52t3.5 73v1145h-63q-110 0 -150 -17q-57 -24 -86 -112q-34 -103 -68 -448q-6 -66 -16 -171h-24zM707 215
q0 -47 3.5 -73t16.5 -52t40 -38t71.5 -19.5t113.5 -7.5h33q46 2 75.5 5t53.5 11.5t36 20.5t20.5 34.5t11 49t2.5 69.5v324q0 137 -66.5 220t-185.5 83q-123 0 -225 -51v-576zM707 858q127 88 284 94q-11 84 -18 131.5t-18.5 98t-18.5 74t-25 48t-31 32t-43 15.5t-55.5 8.5
t-72.5 0.5h-2v-502z" />
    <glyph glyph-name="uni040C" unicode="&#x40c;" horiz-adv-x="1288" 
d="M0 1434h676v-25q-59 -2 -95.5 -5t-66 -12t-44.5 -20t-25 -34t-12.5 -49.5t-2.5 -69.5v-402l426 402q35 33 56.5 54.5t38.5 42.5t21.5 33t0 23.5t-19 17t-42.5 10t-63.5 6.5t-89.5 3v25h633v-25q-61 -2 -98.5 -4t-76 -12.5t-59 -18.5t-57 -35t-60 -48.5t-77.5 -71.5
l-101 -93l352 -870q29 -72 63.5 -127.5t57.5 -77.5t35 -26v-25q-160 -42 -294.5 32.5t-198.5 243.5l-242 639l-205 -190v-510q0 -43 2.5 -69.5t12.5 -49.5t25 -34t44.5 -20t66 -12t95.5 -5v-25h-676v25q52 3 76.5 17t35.5 53t11 120v1004q0 81 -11 120t-35.5 53t-76.5 17v25
zM559 1608l229 352l84 -70l-294 -297z" />
    <glyph glyph-name="uni040C" unicode="&#x45c;" horiz-adv-x="1288" 
d="M0 1434h676v-25q-59 -2 -95.5 -5t-66 -12t-44.5 -20t-25 -34t-12.5 -49.5t-2.5 -69.5v-402l426 402q35 33 56.5 54.5t38.5 42.5t21.5 33t0 23.5t-19 17t-42.5 10t-63.5 6.5t-89.5 3v25h633v-25q-61 -2 -98.5 -4t-76 -12.5t-59 -18.5t-57 -35t-60 -48.5t-77.5 -71.5
l-101 -93l352 -870q29 -72 63.5 -127.5t57.5 -77.5t35 -26v-25q-160 -42 -294.5 32.5t-198.5 243.5l-242 639l-205 -190v-510q0 -43 2.5 -69.5t12.5 -49.5t25 -34t44.5 -20t66 -12t95.5 -5v-25h-676v25q52 3 76.5 17t35.5 53t11 120v1004q0 81 -11 120t-35.5 53t-76.5 17v25
zM559 1608l229 352l84 -70l-294 -297z" />
    <glyph glyph-name="uni040E" unicode="&#x40e;" horiz-adv-x="1386" 
d="M-219 1434h1065v-25q-169 -2 -249.5 -9t-116.5 -31t-23 -58.5t63 -104.5l391 -551l387 633q34 56 18 78q-25 33 -201 40q-72 3 -187 3v25h745v-25q-66 -2 -107 -7.5t-71 -14t-53.5 -30.5t-40.5 -44.5t-45 -69.5l-549 -903q-126 -205 -223 -288t-211 -83q-129 0 -211 77.5
t-82 199.5q0 119 79.5 191.5t190.5 72.5q146 0 250 -121l-18 -22q-64 67 -156 67q-64 0 -107 -38t-43 -111q0 -67 43.5 -115.5t122.5 -48.5q61 0 129.5 45t128.5 143l48 78l-607 815q-39 53 -59 78.5t-48 54t-47 38.5t-52 20.5t-66.5 12.5t-87.5 3v25zM528 1868l858 313
l9 -22q-149 -55 -266 -110.5t-184.5 -99.5t-111.5 -85t-59.5 -68.5t-15.5 -48.5q0 -39 27 -59.5t69 -20.5q78 0 149.5 57t81.5 144h33q0 -119 -83 -195t-212 -76t-212 76t-83 195z" />
    <glyph glyph-name="uni040E" unicode="&#x45e;" horiz-adv-x="1386" 
d="M-219 1434h1065v-25q-169 -2 -249.5 -9t-116.5 -31t-23 -58.5t63 -104.5l391 -551l387 633q34 56 18 78q-25 33 -201 40q-72 3 -187 3v25h745v-25q-66 -2 -107 -7.5t-71 -14t-53.5 -30.5t-40.5 -44.5t-45 -69.5l-549 -903q-126 -205 -223 -288t-211 -83q-129 0 -211 77.5
t-82 199.5q0 119 79.5 191.5t190.5 72.5q146 0 250 -121l-18 -22q-64 67 -156 67q-64 0 -107 -38t-43 -111q0 -67 43.5 -115.5t122.5 -48.5q61 0 129.5 45t128.5 143l48 78l-607 815q-39 53 -59 78.5t-48 54t-47 38.5t-52 20.5t-66.5 12.5t-87.5 3v25zM528 1868l858 313
l9 -22q-149 -55 -266 -110.5t-184.5 -99.5t-111.5 -85t-59.5 -68.5t-15.5 -48.5q0 -39 27 -59.5t69 -20.5q78 0 149.5 57t81.5 144h33q0 -119 -83 -195t-212 -76t-212 76t-83 195z" />
    <glyph glyph-name="uni040F" unicode="&#x40f;" horiz-adv-x="1433" 
d="M0 25q52 3 76.5 17t35.5 53t11 120v1004q0 81 -11 120t-35.5 53t-76.5 17v25h676v-25q-59 -2 -95.5 -5t-66 -12t-44.5 -20t-25 -34t-12.5 -49.5t-2.5 -69.5v-1145h574v1145q0 43 -2.5 69.5t-12.5 49.5t-25 34t-44.5 20t-66 12t-95.5 5v25h676v-25q-52 -3 -76.5 -17
t-35.5 -53t-11 -120v-1004q0 -81 11 -120t35.5 -53t76.5 -17v-25h-656l-49 -328h-24l-50 328h-655v25z" />
    <glyph glyph-name="uni040F" unicode="&#x45f;" horiz-adv-x="1433" 
d="M0 25q52 3 76.5 17t35.5 53t11 120v1004q0 81 -11 120t-35.5 53t-76.5 17v25h676v-25q-59 -2 -95.5 -5t-66 -12t-44.5 -20t-25 -34t-12.5 -49.5t-2.5 -69.5v-1145h574v1145q0 43 -2.5 69.5t-12.5 49.5t-25 34t-44.5 20t-66 12t-95.5 5v25h676v-25q-52 -3 -76.5 -17
t-35.5 -53t-11 -120v-1004q0 -81 11 -120t35.5 -53t76.5 -17v-25h-656l-49 -328h-24l-50 328h-655v25z" />
    <glyph glyph-name="uni0410" unicode="&#x410;" horiz-adv-x="1228" 
d="M530 1434q59 0 116 27.5t91 86.5l471 -1333q43 -122 74 -156t94 -34v-25h-801v25q92 0 148 2t98.5 11t60 19.5t23.5 35t0 50.5t-22 72l-52 150h-634l-58 -148q-14 -35 -20.5 -56.5t-8 -44t5 -34.5t25.5 -24t46 -17t73 -9.5t100 -5.5t134 -1v-25h-611v25q63 0 94 33
t80 157zM225 438h580l-275 791z" />
    <glyph glyph-name="uni0410" unicode="&#x430;" horiz-adv-x="1228" 
d="M530 1434q59 0 116 27.5t91 86.5l471 -1333q43 -122 74 -156t94 -34v-25h-801v25q92 0 148 2t98.5 11t60 19.5t23.5 35t0 50.5t-22 72l-52 150h-634l-58 -148q-14 -35 -20.5 -56.5t-8 -44t5 -34.5t25.5 -24t46 -17t73 -9.5t100 -5.5t134 -1v-25h-611v25q63 0 94 33
t80 157zM225 438h580l-275 791z" />
    <glyph glyph-name="uni0411" unicode="&#x411;" horiz-adv-x="1290" 
d="M0 1434h1034l-190 -457l-23 10q23 69 37.5 116t22 88.5t8.5 66.5t-9.5 45.5t-25 30.5t-44.5 16.5t-61.5 8t-82.5 1.5h-236v-1286h135q111 0 193.5 59.5t122 149.5t39.5 194q0 76 -23 146t-67 126t-115.5 89.5t-161.5 33.5q-7 0 -20.5 -1t-20.5 -1v21q108 31 213 31
q78 0 149 -14.5t135 -46.5t110.5 -79.5t74 -118.5t27.5 -157q0 -238 -159.5 -372t-443.5 -134h-618v25q52 3 76.5 17t35.5 53t11 120v1004q0 81 -11 120t-35.5 53t-76.5 17v25z" />
    <glyph glyph-name="uni0411" unicode="&#x431;" horiz-adv-x="1290" 
d="M0 1434h1034l-190 -457l-23 10q23 69 37.5 116t22 88.5t8.5 66.5t-9.5 45.5t-25 30.5t-44.5 16.5t-61.5 8t-82.5 1.5h-236v-1286h135q111 0 193.5 59.5t122 149.5t39.5 194q0 76 -23 146t-67 126t-115.5 89.5t-161.5 33.5q-7 0 -20.5 -1t-20.5 -1v21q108 31 213 31
q78 0 149 -14.5t135 -46.5t110.5 -79.5t74 -118.5t27.5 -157q0 -238 -159.5 -372t-443.5 -134h-618v25q52 3 76.5 17t35.5 53t11 120v1004q0 81 -11 120t-35.5 53t-76.5 17v25z" />
    <glyph glyph-name="uni0412" unicode="&#x412;" horiz-adv-x="1320" 
d="M659 1434q199 0 315 -82.5t116 -229.5q0 -92 -59.5 -163.5t-162.5 -100.5q180 -18 296 -125t116 -274q0 -212 -156 -335.5t-422 -123.5h-702v25q52 3 76.5 17t35.5 53t11 120v1004q0 81 -11 120t-35.5 53t-76.5 17v25h659zM430 74h215q149 0 238.5 99t89.5 265
q0 186 -111.5 294t-302.5 108h-47v24l25 2q125 11 195.5 77t70.5 183q0 108 -67.5 171t-184.5 63h-121v-1286z" />
    <glyph glyph-name="uni0412" unicode="&#x432;" horiz-adv-x="1320" 
d="M659 1434q199 0 315 -82.5t116 -229.5q0 -92 -59.5 -163.5t-162.5 -100.5q180 -18 296 -125t116 -274q0 -212 -156 -335.5t-422 -123.5h-702v25q52 3 76.5 17t35.5 53t11 120v1004q0 81 -11 120t-35.5 53t-76.5 17v25h659zM430 74h215q149 0 238.5 99t89.5 265
q0 186 -111.5 294t-302.5 108h-47v24l25 2q125 11 195.5 77t70.5 183q0 108 -67.5 171t-184.5 63h-121v-1286z" />
    <glyph glyph-name="uni0413" unicode="&#x413;" horiz-adv-x="983" 
d="M0 1434h1034l-344 -826l-22 8q166 416 194 551q25 124 -24 162q-38 29 -157 31h-40h-211v-1145q0 -43 2.5 -69.5t12.5 -49.5t25 -34t44.5 -20t66 -12t95.5 -5v-25h-676v25q52 3 76.5 17t35.5 53t11 120v1004q0 81 -11 120t-35.5 53t-76.5 17v25z" />
    <glyph glyph-name="uni0413" unicode="&#x433;" horiz-adv-x="983" 
d="M0 1434h1034l-344 -826l-22 8q166 416 194 551q25 124 -24 162q-38 29 -157 31h-40h-211v-1145q0 -43 2.5 -69.5t12.5 -49.5t25 -34t44.5 -20t66 -12t95.5 -5v-25h-676v25q52 3 76.5 17t35.5 53t11 120v1004q0 81 -11 120t-35.5 53t-76.5 17v25z" />
    <glyph glyph-name="uni0414" unicode="&#x414;" horiz-adv-x="1382" 
d="M594 1434q59 0 116 27.5t91 86.5l522 -1474h164l-279 -484l-22 13q34 78 54 136.5t28.5 101.5t1 71.5t-21.5 46t-46 26.5t-65 12t-86 3h-717q-53 0 -86 -3t-65 -12t-46 -26.5t-21.5 -46t1 -71.5t28.5 -101.5t54 -136.5l-23 -13l-278 484h170zM147 74h848l-401 1155z" />
    <glyph glyph-name="uni0414" unicode="&#x434;" horiz-adv-x="1382" 
d="M594 1434q59 0 116 27.5t91 86.5l522 -1474h164l-279 -484l-22 13q34 78 54 136.5t28.5 101.5t1 71.5t-21.5 46t-46 26.5t-65 12t-86 3h-717q-53 0 -86 -3t-65 -12t-46 -26.5t-21.5 -46t1 -71.5t28.5 -101.5t54 -136.5l-23 -13l-278 484h170zM147 74h848l-401 1155z" />
    <glyph glyph-name="uni0415" unicode="&#x415;" horiz-adv-x="1116" 
d="M0 1434h1010l39 -414l-25 -2q-9 81 -17.5 133t-21.5 92.5t-27 61.5t-38.5 34.5t-51 17t-69.5 3.5h-369v-352l440 -25v-25l-440 -24v-860h324q62 0 92.5 1.5t71 16.5t57.5 34.5t42 72t36 111.5t28.5 170.5t29 232t28.5 311.5h24l-76 -1024h-1087v25q52 3 76.5 17t35.5 53
t11 120v1004q0 81 -11 120t-35.5 53t-76.5 17v25z" />
    <glyph glyph-name="uni0415" unicode="&#x435;" horiz-adv-x="1116" 
d="M0 1434h1010l39 -414l-25 -2q-9 81 -17.5 133t-21.5 92.5t-27 61.5t-38.5 34.5t-51 17t-69.5 3.5h-369v-352l440 -25v-25l-440 -24v-860h324q62 0 92.5 1.5t71 16.5t57.5 34.5t42 72t36 111.5t28.5 170.5t29 232t28.5 311.5h24l-76 -1024h-1087v25q52 3 76.5 17t35.5 53
t11 120v1004q0 81 -11 120t-35.5 53t-76.5 17v25z" />
    <glyph glyph-name="uni0416" unicode="&#x416;" horiz-adv-x="1990" 
d="M-102 1434h632v-25q-53 -1 -89 -3t-64.5 -6.5t-43.5 -9.5t-20.5 -15.5t-2 -21t17.5 -29.5t32.5 -37.5t49.5 -47.5l448 -422v402q0 43 -2.5 69.5t-12.5 49.5t-25 34t-44.5 20t-66 12t-95.5 5v25h766v-25q-59 -2 -95.5 -5t-66 -12t-44 -20t-24.5 -34t-12.5 -49.5
t-2.5 -69.5v-402l448 422q41 39 62.5 61.5t32 43.5t3 31t-35 18t-70 11t-113.5 5v25h633v-25q-61 -2 -98.5 -4t-75 -12t-57 -17t-53.5 -32t-54 -43.5t-69 -63.5l-121 -111l352 -870q29 -72 63.5 -127.5t57.5 -77.5t35 -26v-25q-160 -42 -295 32.5t-199 243.5l-242 639
l-204 -190v-510q0 -43 2.5 -69.5t12.5 -49.5t24.5 -34t44 -20t66 -12t95.5 -5v-25h-766v25q59 2 95.5 5t66 12t44.5 20t25 34t12.5 49.5t2.5 69.5v510l-205 190l-241 -639q-64 -169 -199 -243.5t-295 -32.5v25q12 4 35 26t57.5 77.5t63.5 127.5l352 870l-121 111
q-49 45 -69 63.5t-54 43.5t-53.5 32t-57 17t-75 12t-98.5 4v25z" />
    <glyph glyph-name="uni0416" unicode="&#x436;" horiz-adv-x="1990" 
d="M-102 1434h632v-25q-53 -1 -89 -3t-64.5 -6.5t-43.5 -9.5t-20.5 -15.5t-2 -21t17.5 -29.5t32.5 -37.5t49.5 -47.5l448 -422v402q0 43 -2.5 69.5t-12.5 49.5t-25 34t-44.5 20t-66 12t-95.5 5v25h766v-25q-59 -2 -95.5 -5t-66 -12t-44 -20t-24.5 -34t-12.5 -49.5
t-2.5 -69.5v-402l448 422q41 39 62.5 61.5t32 43.5t3 31t-35 18t-70 11t-113.5 5v25h633v-25q-61 -2 -98.5 -4t-75 -12t-57 -17t-53.5 -32t-54 -43.5t-69 -63.5l-121 -111l352 -870q29 -72 63.5 -127.5t57.5 -77.5t35 -26v-25q-160 -42 -295 32.5t-199 243.5l-242 639
l-204 -190v-510q0 -43 2.5 -69.5t12.5 -49.5t24.5 -34t44 -20t66 -12t95.5 -5v-25h-766v25q59 2 95.5 5t66 12t44.5 20t25 34t12.5 49.5t2.5 69.5v510l-205 190l-241 -639q-64 -169 -199 -243.5t-295 -32.5v25q12 4 35 26t57.5 77.5t63.5 127.5l352 870l-121 111
q-49 45 -69 63.5t-54 43.5t-53.5 32t-57 17t-75 12t-98.5 4v25z" />
    <glyph glyph-name="uni0417" unicode="&#x417;" horiz-adv-x="1122" 
d="M147 1298q61 71 175.5 119.5t228.5 48.5q185 0 291 -80.5t106 -199.5q0 -87 -54 -158t-153 -117q120 -24 205.5 -90t125.5 -152t40 -184q0 -73 -23 -144.5t-71 -136.5t-116 -114t-164.5 -78.5t-209.5 -29.5q-167 0 -293.5 76t-189.5 192l164 467l22 -8
q-42 -188 -14.5 -333.5t107 -233t182.5 -87.5q113 0 195.5 110t82.5 298q0 77 -18.5 144.5t-56 123.5t-102 88.5t-148.5 32.5q-35 0 -53 -2v41q127 28 199.5 110.5t72.5 174.5q0 102 -54 159t-132 54q-111 -2 -206.5 -111.5t-113.5 -300.5h-25v321z" />
    <glyph glyph-name="uni0417" unicode="&#x437;" horiz-adv-x="1122" 
d="M147 1298q61 71 175.5 119.5t228.5 48.5q185 0 291 -80.5t106 -199.5q0 -87 -54 -158t-153 -117q120 -24 205.5 -90t125.5 -152t40 -184q0 -73 -23 -144.5t-71 -136.5t-116 -114t-164.5 -78.5t-209.5 -29.5q-167 0 -293.5 76t-189.5 192l164 467l22 -8
q-42 -188 -14.5 -333.5t107 -233t182.5 -87.5q113 0 195.5 110t82.5 298q0 77 -18.5 144.5t-56 123.5t-102 88.5t-148.5 32.5q-35 0 -53 -2v41q127 28 199.5 110.5t72.5 174.5q0 102 -54 159t-132 54q-111 -2 -206.5 -111.5t-113.5 -300.5h-25v321z" />
    <glyph glyph-name="uni0418" unicode="&#x418;" horiz-adv-x="1495" 
d="M0 1434h682v-25q-59 -2 -95.5 -5t-66 -12t-44.5 -20t-25 -34t-12.5 -49.5t-2.5 -69.5v-840l1032 1327l21 -16q-58 -78 -81.5 -129.5t-32.5 -124.5t-9 -224v-1017q0 -71 11.5 -105.5t37 -48t80.5 -16.5v-25h-682v25q58 2 95.5 5t66.5 11.5t44 19t25 31t12.5 43.5t2.5 60
v862l-1032 -1333l-21 16q58 78 81.5 129t32.5 124t9 224v1002q0 81 -11.5 120t-37 53t-80.5 17v25z" />
    <glyph glyph-name="uni0418" unicode="&#x438;" horiz-adv-x="1495" 
d="M0 1434h682v-25q-59 -2 -95.5 -5t-66 -12t-44.5 -20t-25 -34t-12.5 -49.5t-2.5 -69.5v-840l1032 1327l21 -16q-58 -78 -81.5 -129.5t-32.5 -124.5t-9 -224v-1017q0 -71 11.5 -105.5t37 -48t80.5 -16.5v-25h-682v25q58 2 95.5 5t66.5 11.5t44 19t25 31t12.5 43.5t2.5 60
v862l-1032 -1333l-21 16q58 78 81.5 129t32.5 124t9 224v1002q0 81 -11.5 120t-37 53t-80.5 17v25z" />
    <glyph glyph-name="uni0419" unicode="&#x419;" horiz-adv-x="1495" 
d="M0 1434h682v-25q-59 -2 -95.5 -5t-66 -12t-44.5 -20t-25 -34t-12.5 -49.5t-2.5 -69.5v-840l1032 1327l21 -16q-58 -78 -81.5 -129.5t-32.5 -124.5t-9 -224v-1017q0 -71 11.5 -105.5t37 -48t80.5 -16.5v-25h-682v25q58 2 95.5 5t66.5 11.5t44 19t25 31t12.5 43.5t2.5 60
v862l-1032 -1333l-21 16q58 78 81.5 129t32.5 124t9 224v1002q0 81 -11.5 120t-37 53t-80.5 17v25zM453 1868l858 313l8 -22q-149 -55 -266 -110.5t-184.5 -99.5t-111.5 -85t-59.5 -68.5t-15.5 -48.5q0 -39 27 -59.5t69 -20.5q78 0 150 57t82 144h32q0 -119 -82.5 -195
t-211.5 -76t-212 76t-83 195z" />
    <glyph glyph-name="uni0419" unicode="&#x439;" horiz-adv-x="1495" 
d="M0 1434h682v-25q-59 -2 -95.5 -5t-66 -12t-44.5 -20t-25 -34t-12.5 -49.5t-2.5 -69.5v-840l1032 1327l21 -16q-58 -78 -81.5 -129.5t-32.5 -124.5t-9 -224v-1017q0 -71 11.5 -105.5t37 -48t80.5 -16.5v-25h-682v25q58 2 95.5 5t66.5 11.5t44 19t25 31t12.5 43.5t2.5 60
v862l-1032 -1333l-21 16q58 78 81.5 129t32.5 124t9 224v1002q0 81 -11.5 120t-37 53t-80.5 17v25zM453 1868l858 313l8 -22q-149 -55 -266 -110.5t-184.5 -99.5t-111.5 -85t-59.5 -68.5t-15.5 -48.5q0 -39 27 -59.5t69 -20.5q78 0 150 57t82 144h32q0 -119 -82.5 -195
t-211.5 -76t-212 76t-83 195z" />
    <glyph glyph-name="uni041A" unicode="&#x41a;" horiz-adv-x="1288" 
d="M0 1434h676v-25q-59 -2 -95.5 -5t-66 -12t-44.5 -20t-25 -34t-12.5 -49.5t-2.5 -69.5v-402l426 402q35 33 56.5 54.5t38.5 42.5t21.5 33t0 23.5t-19 17t-42.5 10t-63.5 6.5t-89.5 3v25h633v-25q-61 -2 -98.5 -4t-76 -12.5t-59 -18.5t-57 -35t-60 -48.5t-77.5 -71.5
l-101 -93l352 -870q29 -72 63.5 -127.5t57.5 -77.5t35 -26v-25q-160 -42 -294.5 32.5t-198.5 243.5l-242 639l-205 -190v-510q0 -43 2.5 -69.5t12.5 -49.5t25 -34t44.5 -20t66 -12t95.5 -5v-25h-676v25q52 3 76.5 17t35.5 53t11 120v1004q0 81 -11 120t-35.5 53t-76.5 17v25
z" />
    <glyph glyph-name="uni041A" unicode="&#x43a;" horiz-adv-x="1288" 
d="M0 1434h676v-25q-59 -2 -95.5 -5t-66 -12t-44.5 -20t-25 -34t-12.5 -49.5t-2.5 -69.5v-402l426 402q35 33 56.5 54.5t38.5 42.5t21.5 33t0 23.5t-19 17t-42.5 10t-63.5 6.5t-89.5 3v25h633v-25q-61 -2 -98.5 -4t-76 -12.5t-59 -18.5t-57 -35t-60 -48.5t-77.5 -71.5
l-101 -93l352 -870q29 -72 63.5 -127.5t57.5 -77.5t35 -26v-25q-160 -42 -294.5 32.5t-198.5 243.5l-242 639l-205 -190v-510q0 -43 2.5 -69.5t12.5 -49.5t25 -34t44.5 -20t66 -12t95.5 -5v-25h-676v25q52 3 76.5 17t35.5 53t11 120v1004q0 81 -11 120t-35.5 53t-76.5 17v25
z" />
    <glyph glyph-name="uni041B" unicode="&#x41b;" horiz-adv-x="1187" 
d="M1294 0h-780v25q88 0 141 2t93 11t56.5 19.5t22 35t-0.5 50.5t-21 72l-340 1002l-371 -1002q-13 -35 -19 -56t-7 -43.5t5 -34t24 -23.5t43.5 -17t69 -9.5t95 -5.5t127.5 -1v-25h-590v25q64 0 94.5 33.5t77.5 158.5l455 1217q59 0 116 27.5t91 86.5l452 -1331
q42 -123 72.5 -157.5t93.5 -34.5v-25z" />
    <glyph glyph-name="uni041B" unicode="&#x43b;" horiz-adv-x="1187" 
d="M1294 0h-780v25q88 0 141 2t93 11t56.5 19.5t22 35t-0.5 50.5t-21 72l-340 1002l-371 -1002q-13 -35 -19 -56t-7 -43.5t5 -34t24 -23.5t43.5 -17t69 -9.5t95 -5.5t127.5 -1v-25h-590v25q64 0 94.5 33.5t77.5 158.5l455 1217q59 0 116 27.5t91 86.5l452 -1331
q42 -123 72.5 -157.5t93.5 -34.5v-25z" />
    <glyph glyph-name="uni041C" unicode="&#x41c;" horiz-adv-x="1720" 
d="M0 1749l18 10l844 -1306l840 1306l18 -10q-51 -93 -74 -139.5t-42 -114t-24 -137t-5 -187.5v-956q0 -81 11 -120t35.5 -53t76.5 -17v-25h-895v25q116 2 187.5 4.5t128 12t83 20t43.5 35t20 49t3 69.5v733l-539 -839h-10l-500 774v-668q0 -45 3 -69.5t18.5 -49t39.5 -35
t75 -19.5t115 -12t169 -5v-25h-616v25q52 3 76 17t35 53t11 120v956q0 118 -5 187.5t-24 137t-42 114t-74 139.5z" />
    <glyph glyph-name="uni041C" unicode="&#x43c;" horiz-adv-x="1720" 
d="M0 1749l18 10l844 -1306l840 1306l18 -10q-51 -93 -74 -139.5t-42 -114t-24 -137t-5 -187.5v-956q0 -81 11 -120t35.5 -53t76.5 -17v-25h-895v25q116 2 187.5 4.5t128 12t83 20t43.5 35t20 49t3 69.5v733l-539 -839h-10l-500 774v-668q0 -45 3 -69.5t18.5 -49t39.5 -35
t75 -19.5t115 -12t169 -5v-25h-616v25q52 3 76 17t35 53t11 120v956q0 118 -5 187.5t-24 137t-42 114t-74 139.5z" />
    <glyph glyph-name="uni041D" unicode="&#x41d;" horiz-adv-x="1433" 
d="M758 1434h676v-25q-52 -3 -76.5 -17t-35.5 -53t-11 -120v-1004q0 -81 11 -120t35.5 -53t76.5 -17v-25h-676v25q59 2 95.5 5t66 12t44.5 20t25 34t12.5 49.5t2.5 69.5v709h-574v-709q0 -43 2.5 -69.5t12.5 -49.5t25 -34t44.5 -20t66 -12t95.5 -5v-25h-676v25q52 3 76.5 17
t35.5 53t11 120v1004q0 81 -11 120t-35.5 53t-76.5 17v25h676v-25q-59 -2 -95.5 -5t-66 -12t-44.5 -20t-25 -34t-12.5 -49.5t-2.5 -69.5v-222h574v222q0 43 -2.5 69.5t-12.5 49.5t-25 34t-44.5 20t-66 12t-95.5 5v25z" />
    <glyph glyph-name="uni041D" unicode="&#x43d;" horiz-adv-x="1433" 
d="M758 1434h676v-25q-52 -3 -76.5 -17t-35.5 -53t-11 -120v-1004q0 -81 11 -120t35.5 -53t76.5 -17v-25h-676v25q59 2 95.5 5t66 12t44.5 20t25 34t12.5 49.5t2.5 69.5v709h-574v-709q0 -43 2.5 -69.5t12.5 -49.5t25 -34t44.5 -20t66 -12t95.5 -5v-25h-676v25q52 3 76.5 17
t35.5 53t11 120v1004q0 81 -11 120t-35.5 53t-76.5 17v25h676v-25q-59 -2 -95.5 -5t-66 -12t-44.5 -20t-25 -34t-12.5 -49.5t-2.5 -69.5v-222h574v222q0 43 -2.5 69.5t-12.5 49.5t-25 34t-44.5 20t-66 12t-95.5 5v25z" />
    <glyph glyph-name="uni041E" unicode="&#x41e;" horiz-adv-x="1638" 
d="M819 -33q-208 0 -382 101t-275 275t-101 382t101 382t275 275t382 101t382 -101t275 -275t101 -382t-101 -382t-275 -275t-382 -101zM348 541q0 -230 91 -361t263 -131q86 0 167 40t144 107t116 154t88 183t54 193t19 183q0 230 -91 361t-263 131q-86 0 -167 -40
t-144 -107t-116 -154t-88 -183t-54 -193t-19 -183z" />
    <glyph glyph-name="uni041E" unicode="&#x43e;" horiz-adv-x="1638" 
d="M819 -33q-208 0 -382 101t-275 275t-101 382t101 382t275 275t382 101t382 -101t275 -275t101 -382t-101 -382t-275 -275t-382 -101zM348 541q0 -230 91 -361t263 -131q86 0 167 40t144 107t116 154t88 183t54 193t19 183q0 230 -91 361t-263 131q-86 0 -167 -40
t-144 -107t-116 -154t-88 -183t-54 -193t-19 -183z" />
    <glyph glyph-name="uni041F" unicode="&#x41f;" horiz-adv-x="1433" 
d="M0 1434h1434v-25q-52 -3 -76.5 -17t-35.5 -53t-11 -120v-1004q0 -81 11 -120t35.5 -53t76.5 -17v-25h-676v25q59 2 95.5 5t66 12t44.5 20t25 34t12.5 49.5t2.5 69.5v1145h-574v-1145q0 -43 2.5 -69.5t12.5 -49.5t25 -34t44.5 -20t66 -12t95.5 -5v-25h-676v25
q52 3 76.5 17t35.5 53t11 120v1004q0 81 -11 120t-35.5 53t-76.5 17v25z" />
    <glyph glyph-name="uni041F" unicode="&#x43f;" horiz-adv-x="1433" 
d="M0 1434h1434v-25q-52 -3 -76.5 -17t-35.5 -53t-11 -120v-1004q0 -81 11 -120t35.5 -53t76.5 -17v-25h-676v25q59 2 95.5 5t66 12t44.5 20t25 34t12.5 49.5t2.5 69.5v1145h-574v-1145q0 -43 2.5 -69.5t12.5 -49.5t25 -34t44.5 -20t66 -12t95.5 -5v-25h-676v25
q52 3 76.5 17t35.5 53t11 120v1004q0 81 -11 120t-35.5 53t-76.5 17v25z" />
    <glyph glyph-name="uni0420" unicode="&#x420;" horiz-adv-x="1210" 
d="M649 1434q267 0 422.5 -121t155.5 -332q0 -110 -46.5 -200.5t-125 -148.5t-179 -89t-212.5 -31q-81 0 -152 14v21h4q195 0 299.5 119t104.5 309q0 169 -97.5 277t-247.5 108h-145v-1145q0 -44 2.5 -69.5t14.5 -49t30 -34.5t55 -20t83.5 -12t121.5 -5v-25h-737v25
q52 3 76.5 17t35.5 53t11 120v1004q0 81 -11 120t-35.5 53t-76.5 17v25h649z" />
    <glyph glyph-name="uni0420" unicode="&#x440;" horiz-adv-x="1210" 
d="M649 1434q267 0 422.5 -121t155.5 -332q0 -110 -46.5 -200.5t-125 -148.5t-179 -89t-212.5 -31q-81 0 -152 14v21h4q195 0 299.5 119t104.5 309q0 169 -97.5 277t-247.5 108h-145v-1145q0 -44 2.5 -69.5t14.5 -49t30 -34.5t55 -20t83.5 -12t121.5 -5v-25h-737v25
q52 3 76.5 17t35.5 53t11 120v1004q0 81 -11 120t-35.5 53t-76.5 17v25h649z" />
    <glyph glyph-name="uni0421" unicode="&#x421;" horiz-adv-x="1488" 
d="M1386 1247l-186 -514l-22 6q41 178 37.5 304t-48 205.5t-109.5 116t-147 36.5q-103 0 -194.5 -44.5t-158 -120.5t-114.5 -174.5t-72 -209t-24 -221.5q0 -140 41 -253t109.5 -183.5t154.5 -108t181 -37.5q88 0 172 33.5t156 98.5t125.5 170t74.5 237h24v-385
q-108 -108 -256 -172t-315 -64q-156 0 -295.5 59.5t-240 161t-159.5 241.5t-59 296t59 296t159.5 241.5t240 161t295.5 59.5q167 0 315 -64t256 -172z" />
    <glyph glyph-name="uni0421" unicode="&#x441;" horiz-adv-x="1488" 
d="M1386 1247l-186 -514l-22 6q41 178 37.5 304t-48 205.5t-109.5 116t-147 36.5q-103 0 -194.5 -44.5t-158 -120.5t-114.5 -174.5t-72 -209t-24 -221.5q0 -140 41 -253t109.5 -183.5t154.5 -108t181 -37.5q88 0 172 33.5t156 98.5t125.5 170t74.5 237h24v-385
q-108 -108 -256 -172t-315 -64q-156 0 -295.5 59.5t-240 161t-159.5 241.5t-59 296t59 296t159.5 241.5t240 161t295.5 59.5q167 0 315 -64t256 -172z" />
    <glyph glyph-name="uni0422" unicode="&#x422;" horiz-adv-x="1024" 
d="M39 1434h1026l49 -822h-24q-16 157 -25 244.5t-24.5 181t-24.5 135.5t-32.5 87.5t-39.5 58t-55 26.5t-69.5 14.5t-92.5 0.5h-20v-1145q0 -47 3.5 -73t16.5 -52t40 -38t71.5 -19.5t113.5 -7.5h154v-25h-1106v25h154q69 0 113.5 7.5t71.5 19.5t40 38t16.5 52t3.5 73v1145
h-63q-110 0 -150 -17q-57 -24 -86 -112q-34 -103 -68 -448q-6 -66 -16 -171h-24z" />
    <glyph glyph-name="uni0422" unicode="&#x442;" horiz-adv-x="1024" 
d="M39 1434h1026l49 -822h-24q-16 157 -25 244.5t-24.5 181t-24.5 135.5t-32.5 87.5t-39.5 58t-55 26.5t-69.5 14.5t-92.5 0.5h-20v-1145q0 -47 3.5 -73t16.5 -52t40 -38t71.5 -19.5t113.5 -7.5h154v-25h-1106v25h154q69 0 113.5 7.5t71.5 19.5t40 38t16.5 52t3.5 73v1145
h-63q-110 0 -150 -17q-57 -24 -86 -112q-34 -103 -68 -448q-6 -66 -16 -171h-24z" />
    <glyph glyph-name="uni0423" unicode="&#x423;" horiz-adv-x="1386" 
d="M-219 1434h1065v-25q-169 -2 -249.5 -9t-116.5 -31t-23 -58.5t63 -104.5l391 -551l387 633q34 56 18 78q-25 33 -201 40q-72 3 -187 3v25h745v-25q-66 -2 -107 -7.5t-71 -14t-53.5 -30.5t-40.5 -44.5t-45 -69.5l-549 -903q-126 -205 -223 -288t-211 -83q-129 0 -211 77.5
t-82 199.5q0 119 79.5 191.5t190.5 72.5q146 0 250 -121l-18 -22q-64 67 -156 67q-64 0 -107 -38t-43 -111q0 -67 43.5 -115.5t122.5 -48.5q61 0 129.5 45t128.5 143l48 78l-607 815q-39 53 -59 78.5t-48 54t-47 38.5t-52 20.5t-66.5 12.5t-87.5 3v25z" />
    <glyph glyph-name="uni0423" unicode="&#x443;" horiz-adv-x="1386" 
d="M-219 1434h1065v-25q-169 -2 -249.5 -9t-116.5 -31t-23 -58.5t63 -104.5l391 -551l387 633q34 56 18 78q-25 33 -201 40q-72 3 -187 3v25h745v-25q-66 -2 -107 -7.5t-71 -14t-53.5 -30.5t-40.5 -44.5t-45 -69.5l-549 -903q-126 -205 -223 -288t-211 -83q-129 0 -211 77.5
t-82 199.5q0 119 79.5 191.5t190.5 72.5q146 0 250 -121l-18 -22q-64 67 -156 67q-64 0 -107 -38t-43 -111q0 -67 43.5 -115.5t122.5 -48.5q61 0 129.5 45t128.5 143l48 78l-607 815q-39 53 -59 78.5t-48 54t-47 38.5t-52 20.5t-66.5 12.5t-87.5 3v25z" />
    <glyph glyph-name="uni0424" unicode="&#x424;" horiz-adv-x="1773" 
d="M346 1784q91 -51 144.5 -80.5t120.5 -60.5t103 -45.5t91.5 -25t85.5 -10.5t85.5 10.5t91.5 25t103 45.5t120.5 60.5t144.5 80.5l10 -19q-120 -77 -182 -119.5t-114 -82t-71 -66t-28 -52t-9 -61.5q327 -34 514 -195t187 -413q0 -251 -187 -410.5t-514 -193.5
q1 -33 10.5 -58t29.5 -51.5t71.5 -65t114 -81t178.5 -117.5l-10 -18q-91 51 -144.5 80t-120.5 60t-103 45.5t-91.5 24.5t-85.5 10t-85.5 -10t-91.5 -24.5t-103 -45.5t-120.5 -60t-144.5 -80l-10 18q115 75 176 117t112 81t71 65.5t29.5 51.5t10.5 58q-329 32 -516.5 193.5
t-187.5 414.5t187 412.5t517 191.5q0 30 -4 50.5t-21.5 46.5t-39.5 47.5t-73 59.5t-107 75.5t-154 101.5zM340 717q0 -182 106.5 -309t288.5 -172v1085q-96 -27 -173 -91t-124.5 -147t-72.5 -177t-25 -189zM1042 236q96 28 172.5 92t123.5 147t71.5 176.5t24.5 188.5
q0 181 -105.5 307.5t-286.5 171.5v-1083z" />
    <glyph glyph-name="uni0424" unicode="&#x444;" horiz-adv-x="1773" 
d="M346 1784q91 -51 144.5 -80.5t120.5 -60.5t103 -45.5t91.5 -25t85.5 -10.5t85.5 10.5t91.5 25t103 45.5t120.5 60.5t144.5 80.5l10 -19q-120 -77 -182 -119.5t-114 -82t-71 -66t-28 -52t-9 -61.5q327 -34 514 -195t187 -413q0 -251 -187 -410.5t-514 -193.5
q1 -33 10.5 -58t29.5 -51.5t71.5 -65t114 -81t178.5 -117.5l-10 -18q-91 51 -144.5 80t-120.5 60t-103 45.5t-91.5 24.5t-85.5 10t-85.5 -10t-91.5 -24.5t-103 -45.5t-120.5 -60t-144.5 -80l-10 18q115 75 176 117t112 81t71 65.5t29.5 51.5t10.5 58q-329 32 -516.5 193.5
t-187.5 414.5t187 412.5t517 191.5q0 30 -4 50.5t-21.5 46.5t-39.5 47.5t-73 59.5t-107 75.5t-154 101.5zM340 717q0 -182 106.5 -309t288.5 -172v1085q-96 -27 -173 -91t-124.5 -147t-72.5 -177t-25 -189zM1042 236q96 28 172.5 92t123.5 147t71.5 176.5t24.5 188.5
q0 181 -105.5 307.5t-286.5 171.5v-1083z" />
    <glyph glyph-name="uni0425" unicode="&#x425;" horiz-adv-x="1316" 
d="M-78 1434h764v-21q-93 0 -141 -5t-68.5 -22.5t-12.5 -44t40 -75.5l233 -357l228 357q31 49 38.5 75.5t-14.5 44t-72.5 22.5t-148.5 5v21h573v-21q-49 0 -80.5 -2t-61 -11t-47 -19.5t-41 -36.5t-41 -51t-48.5 -74l-242 -377l410 -625q86 -130 128 -163.5t120 -33.5v-20
h-795l-2 20q70 0 115.5 2t77.5 9t46 16.5t15.5 27.5t-8.5 39t-31 54l-311 475l-303 -475q-21 -33 -30.5 -54t-7.5 -39t16.5 -27.5t48 -16.5t80.5 -9t120 -2v-20h-604v20q59 0 95 5t65 14t55 35.5t47 55t59 87.5l316 494l-332 506q-86 130 -128 163t-120 33v21z" />
    <glyph glyph-name="uni0425" unicode="&#x445;" horiz-adv-x="1316" 
d="M-78 1434h764v-21q-93 0 -141 -5t-68.5 -22.5t-12.5 -44t40 -75.5l233 -357l228 357q31 49 38.5 75.5t-14.5 44t-72.5 22.5t-148.5 5v21h573v-21q-49 0 -80.5 -2t-61 -11t-47 -19.5t-41 -36.5t-41 -51t-48.5 -74l-242 -377l410 -625q86 -130 128 -163.5t120 -33.5v-20
h-795l-2 20q70 0 115.5 2t77.5 9t46 16.5t15.5 27.5t-8.5 39t-31 54l-311 475l-303 -475q-21 -33 -30.5 -54t-7.5 -39t16.5 -27.5t48 -16.5t80.5 -9t120 -2v-20h-604v20q59 0 95 5t65 14t55 35.5t47 55t59 87.5l316 494l-332 506q-86 130 -128 163t-120 33v21z" />
    <glyph glyph-name="uni0426" unicode="&#x426;" horiz-adv-x="1433" 
d="M0 1434h676v-25q-59 -2 -95.5 -5t-66 -12t-44.5 -20t-25 -34t-12.5 -49.5t-2.5 -69.5v-1145h574v1145q0 43 -2.5 69.5t-12.5 49.5t-25 34t-44.5 20t-66 12t-95.5 5v25h676v-25q-52 -3 -76.5 -17t-35.5 -53t-11 -120v-1145h184l-262 -484l-23 13q34 78 54 136.5
t28.5 101.5t1 71.5t-21.5 46t-46 26.5t-65 12t-86 3h-1075v25q52 3 76.5 17t35.5 53t11 120v1004q0 81 -11 120t-35.5 53t-76.5 17v25z" />
    <glyph glyph-name="uni0426" unicode="&#x446;" horiz-adv-x="1433" 
d="M0 1434h676v-25q-59 -2 -95.5 -5t-66 -12t-44.5 -20t-25 -34t-12.5 -49.5t-2.5 -69.5v-1145h574v1145q0 43 -2.5 69.5t-12.5 49.5t-25 34t-44.5 20t-66 12t-95.5 5v25h676v-25q-52 -3 -76.5 -17t-35.5 -53t-11 -120v-1145h184l-262 -484l-23 13q34 78 54 136.5
t28.5 101.5t1 71.5t-21.5 46t-46 26.5t-65 12t-86 3h-1075v25q52 3 76.5 17t35.5 53t11 120v1004q0 81 -11 120t-35.5 53t-76.5 17v25z" />
    <glyph glyph-name="uni0427" unicode="&#x427;" horiz-adv-x="1331" 
d="M-20 1434h614v-25q-72 -2 -109 -9t-60.5 -29t-29.5 -55t-6 -97v-283q0 -137 66.5 -220t185.5 -83q145 0 260 72v514q0 64 -6 97t-29.5 55t-60.5 29t-109 9v25h635v-25q-52 -3 -76.5 -17t-35.5 -53t-11 -120v-1004q0 -81 11 -120t35.5 -53t76.5 -17v-25h-676v25
q59 2 95.5 5t66 12t44.5 20t25 34t12.5 49.5t2.5 69.5v428q-146 -121 -348 -121q-228 0 -349.5 112.5t-121.5 285.5v299q0 80 -10 119.5t-30 53.5t-62 17v25z" />
    <glyph glyph-name="uni0427" unicode="&#x447;" horiz-adv-x="1331" 
d="M-20 1434h614v-25q-72 -2 -109 -9t-60.5 -29t-29.5 -55t-6 -97v-283q0 -137 66.5 -220t185.5 -83q145 0 260 72v514q0 64 -6 97t-29.5 55t-60.5 29t-109 9v25h635v-25q-52 -3 -76.5 -17t-35.5 -53t-11 -120v-1004q0 -81 11 -120t35.5 -53t76.5 -17v-25h-676v25
q59 2 95.5 5t66 12t44.5 20t25 34t12.5 49.5t2.5 69.5v428q-146 -121 -348 -121q-228 0 -349.5 112.5t-121.5 285.5v299q0 80 -10 119.5t-30 53.5t-62 17v25z" />
    <glyph glyph-name="uni0428" unicode="&#x428;" horiz-adv-x="1849" 
d="M0 1434h565v-25q-55 -3 -80 -17t-37 -53t-12 -120v-1145h334v1145q0 81 -11.5 120t-36 53t-75.5 17v25h553v-25q-51 -3 -75.5 -17t-36 -53t-11.5 -120v-1145h336v1145q0 81 -12 120t-37.5 53t-81.5 17v25h567v-25q-55 -3 -80 -17t-37 -53t-12 -120v-1004q0 -81 12 -120
t37 -53t80 -17v-25h-1849v25q55 3 80.5 17t37 53t11.5 120v1004q0 81 -11.5 120t-37 53t-80.5 17v25z" />
    <glyph glyph-name="uni0428" unicode="&#x448;" horiz-adv-x="1849" 
d="M0 1434h565v-25q-55 -3 -80 -17t-37 -53t-12 -120v-1145h334v1145q0 81 -11.5 120t-36 53t-75.5 17v25h553v-25q-51 -3 -75.5 -17t-36 -53t-11.5 -120v-1145h336v1145q0 81 -12 120t-37.5 53t-81.5 17v25h567v-25q-55 -3 -80 -17t-37 -53t-12 -120v-1004q0 -81 12 -120
t37 -53t80 -17v-25h-1849v25q55 3 80.5 17t37 53t11.5 120v1004q0 81 -11.5 120t-37 53t-80.5 17v25z" />
    <glyph glyph-name="uni0429" unicode="&#x429;" horiz-adv-x="1849" 
d="M0 1434h565v-25q-55 -3 -80 -17t-37 -53t-12 -120v-1145h334v1145q0 81 -11.5 120t-36 53t-75.5 17v25h553v-25q-51 -3 -75.5 -17t-36 -53t-11.5 -120v-1145h336v1145q0 81 -12 120t-37.5 53t-81.5 17v25h567v-25q-55 -3 -80 -17t-37 -53t-12 -120v-1145h185l-263 -484
l-22 13q34 78 54 136.5t28.5 101.5t1 71.5t-21.5 46t-46 26.5t-65 12t-86 3h-1485v25q55 3 80 17t37 53t12 120v1004q0 81 -12 120t-37 53t-80 17v25z" />
    <glyph glyph-name="uni0429" unicode="&#x449;" horiz-adv-x="1849" 
d="M0 1434h565v-25q-55 -3 -80 -17t-37 -53t-12 -120v-1145h334v1145q0 81 -11.5 120t-36 53t-75.5 17v25h553v-25q-51 -3 -75.5 -17t-36 -53t-11.5 -120v-1145h336v1145q0 81 -12 120t-37.5 53t-81.5 17v25h567v-25q-55 -3 -80 -17t-37 -53t-12 -120v-1145h185l-263 -484
l-22 13q34 78 54 136.5t28.5 101.5t1 71.5t-21.5 46t-46 26.5t-65 12t-86 3h-1485v25q55 3 80 17t37 53t12 120v1004q0 81 -12 120t-37 53t-80 17v25z" />
    <glyph glyph-name="uni042A" unicode="&#x42a;" horiz-adv-x="1361" 
d="M-6 1434h895v-25q-74 -2 -121.5 -5t-84 -11.5t-54.5 -18.5t-30 -31t-14.5 -43.5t-2.5 -60.5v-1165h141q84 0 152.5 34.5t111.5 92t66.5 128.5t23.5 148q0 76 -23 146t-66.5 126t-115 89.5t-161.5 33.5q-7 0 -20.5 -1t-20.5 -1v21q109 31 213 31q99 0 185 -24t157 -72
t112 -130.5t41 -189.5q0 -238 -159 -372t-443 -134h-624v25q52 3 76.5 16.5t35 48t10.5 105.5v1183q-36 0 -57.5 -1t-46 -8t-37.5 -16t-27.5 -30.5t-20 -46t-11 -68t-5 -91.5t3 -120.5t8 -151t13.5 -188.5l-24 -2z" />
    <glyph glyph-name="uni042A" unicode="&#x44a;" horiz-adv-x="1361" 
d="M-6 1434h895v-25q-74 -2 -121.5 -5t-84 -11.5t-54.5 -18.5t-30 -31t-14.5 -43.5t-2.5 -60.5v-1165h141q84 0 152.5 34.5t111.5 92t66.5 128.5t23.5 148q0 76 -23 146t-66.5 126t-115 89.5t-161.5 33.5q-7 0 -20.5 -1t-20.5 -1v21q109 31 213 31q99 0 185 -24t157 -72
t112 -130.5t41 -189.5q0 -238 -159 -372t-443 -134h-624v25q52 3 76.5 16.5t35 48t10.5 105.5v1183q-36 0 -57.5 -1t-46 -8t-37.5 -16t-27.5 -30.5t-20 -46t-11 -68t-5 -91.5t3 -120.5t8 -151t13.5 -188.5l-24 -2z" />
    <glyph glyph-name="uni042B" unicode="&#x42b;" horiz-adv-x="1835" 
d="M950 1434h885v-25q-86 -5 -111.5 -36t-25.5 -134v-1044q0 -103 25.5 -134t111.5 -36v-25h-584v25q86 5 112 36t26 134v1044q0 39 -3.5 61t-19 43.5t-41 31t-78 18t-121 11.5t-176.5 5v25zM0 0v25q52 3 76.5 16.5t35.5 48t11 105.5v1044q0 71 -11 105.5t-35.5 48
t-76.5 16.5v25h868v-25q-108 -2 -176.5 -5t-120.5 -11.5t-77.5 -18t-41.5 -31.5t-19 -43.5t-3 -60.5v-1165h135q111 0 193.5 59.5t122 149.5t39.5 194q0 76 -23 146t-67 126t-115.5 89.5t-161.5 33.5q-7 0 -20.5 -1t-20.5 -1v21q108 31 213 31q78 0 149 -14.5t135 -46.5
t110.5 -79.5t74 -118.5t27.5 -157q0 -238 -159.5 -372t-443.5 -134h-618z" />
    <glyph glyph-name="uni042B" unicode="&#x44b;" horiz-adv-x="1835" 
d="M950 1434h885v-25q-86 -5 -111.5 -36t-25.5 -134v-1044q0 -103 25.5 -134t111.5 -36v-25h-584v25q86 5 112 36t26 134v1044q0 39 -3.5 61t-19 43.5t-41 31t-78 18t-121 11.5t-176.5 5v25zM0 0v25q52 3 76.5 16.5t35.5 48t11 105.5v1044q0 71 -11 105.5t-35.5 48
t-76.5 16.5v25h868v-25q-108 -2 -176.5 -5t-120.5 -11.5t-77.5 -18t-41.5 -31.5t-19 -43.5t-3 -60.5v-1165h135q111 0 193.5 59.5t122 149.5t39.5 194q0 76 -23 146t-67 126t-115.5 89.5t-161.5 33.5q-7 0 -20.5 -1t-20.5 -1v21q108 31 213 31q78 0 149 -14.5t135 -46.5
t110.5 -79.5t74 -118.5t27.5 -157q0 -238 -159.5 -372t-443.5 -134h-618z" />
    <glyph glyph-name="uni042C" unicode="&#x42c;" horiz-adv-x="1210" 
d="M0 1434h737v-25q-75 -2 -121.5 -5t-83.5 -12t-55 -20t-30 -34.5t-14.5 -49t-2.5 -69.5v-1145h141q111 0 193.5 59.5t122 149.5t39.5 194q0 76 -23 146t-67 126t-115.5 89.5t-161.5 33.5q-7 0 -20.5 -1t-20.5 -1v21q108 31 213 31q78 0 149 -14.5t135 -46.5t110.5 -79.5
t74 -118.5t27.5 -157q0 -238 -159 -372t-443 -134h-625v25q52 3 76.5 17t35.5 53t11 120v1004q0 81 -11 120t-35.5 53t-76.5 17v25z" />
    <glyph glyph-name="uni042C" unicode="&#x44c;" horiz-adv-x="1210" 
d="M0 1434h737v-25q-75 -2 -121.5 -5t-83.5 -12t-55 -20t-30 -34.5t-14.5 -49t-2.5 -69.5v-1145h141q111 0 193.5 59.5t122 149.5t39.5 194q0 76 -23 146t-67 126t-115.5 89.5t-161.5 33.5q-7 0 -20.5 -1t-20.5 -1v21q108 31 213 31q78 0 149 -14.5t135 -46.5t110.5 -79.5
t74 -118.5t27.5 -157q0 -238 -159 -372t-443 -134h-625v25q52 3 76.5 17t35.5 53t11 120v1004q0 81 -11 120t-35.5 53t-76.5 17v25z" />
    <glyph glyph-name="uni042D" unicode="&#x42d;" horiz-adv-x="1488" 
d="M375 795q83 90 196 90q84 0 183 -54l37 -18.5l34 -17t28.5 -14t28 -12.5t23.5 -9.5t23.5 -8.5t20.5 -5t22 -4t20 -1q19 0 47 7l11 -19q-102 -86 -205 -86q-78 0 -174 49q-36 18 -88.5 48.5t-80 42.5t-52.5 12q-26 0 -62 -19zM102 203v385h25q21 -133 68 -237.5
t110 -169.5t136.5 -98.5t152.5 -33.5q102 0 199 53t175 149t125.5 244.5t47.5 323.5q0 140 -41 253t-109.5 183.5t-154.5 108t-181 37.5q-223 0 -332.5 -139t-58.5 -388l-22 -6l-140 379q108 108 256.5 172t315.5 64q208 0 381 -101t272.5 -275t99.5 -382t-99.5 -382
t-272.5 -275t-381 -101q-167 0 -315.5 64t-256.5 172z" />
    <glyph glyph-name="uni042D" unicode="&#x44d;" horiz-adv-x="1488" 
d="M375 795q83 90 196 90q84 0 183 -54l37 -18.5l34 -17t28.5 -14t28 -12.5t23.5 -9.5t23.5 -8.5t20.5 -5t22 -4t20 -1q19 0 47 7l11 -19q-102 -86 -205 -86q-78 0 -174 49q-36 18 -88.5 48.5t-80 42.5t-52.5 12q-26 0 -62 -19zM102 203v385h25q21 -133 68 -237.5
t110 -169.5t136.5 -98.5t152.5 -33.5q102 0 199 53t175 149t125.5 244.5t47.5 323.5q0 140 -41 253t-109.5 183.5t-154.5 108t-181 37.5q-223 0 -332.5 -139t-58.5 -388l-22 -6l-140 379q108 108 256.5 172t315.5 64q208 0 381 -101t272.5 -275t99.5 -382t-99.5 -382
t-272.5 -275t-381 -101q-167 0 -315.5 64t-256.5 172z" />
    <glyph glyph-name="uni042E" unicode="&#x42e;" horiz-adv-x="2230" 
d="M1411 -33q-208 0 -382 101t-275 275t-101 382v14l-207 -22v-502q0 -62 5 -96.5t22 -56t41.5 -28.5t69.5 -9v-25h-584v25q61 3 88.5 17.5t39 52.5t11.5 120v1004q0 82 -11.5 120t-39 52.5t-88.5 17.5v25h584v-25q-45 -2 -69.5 -9t-41.5 -28.5t-22 -56t-5 -96.5v-435h209
q15 194 118.5 354t272 252.5t365.5 92.5q208 0 382 -101t275 -275t101 -382t-101 -382t-275 -275t-382 -101zM940 541q0 -230 91 -361t263 -131q86 0 167 40t144 107t116 154t88 183t54 193t19 183q0 230 -91 361t-263 131q-86 0 -167 -40t-144 -107t-116 -154t-88 -183
t-54 -193t-19 -183z" />
    <glyph glyph-name="uni042E" unicode="&#x44e;" horiz-adv-x="2230" 
d="M1411 -33q-208 0 -382 101t-275 275t-101 382v14l-207 -22v-502q0 -62 5 -96.5t22 -56t41.5 -28.5t69.5 -9v-25h-584v25q61 3 88.5 17.5t39 52.5t11.5 120v1004q0 82 -11.5 120t-39 52.5t-88.5 17.5v25h584v-25q-45 -2 -69.5 -9t-41.5 -28.5t-22 -56t-5 -96.5v-435h209
q15 194 118.5 354t272 252.5t365.5 92.5q208 0 382 -101t275 -275t101 -382t-101 -382t-275 -275t-382 -101zM940 541q0 -230 91 -361t263 -131q86 0 167 40t144 107t116 154t88 183t54 193t19 183q0 230 -91 361t-263 131q-86 0 -167 -40t-144 -107t-116 -154t-88 -183
t-54 -193t-19 -183z" />
    <glyph glyph-name="uni042F" unicode="&#x42f;" horiz-adv-x="1370" 
d="M37 25q38 17 87.5 75t96.5 164l254 567q-156 26 -239.5 102t-83.5 193q0 152 146.5 230t438.5 78h633v-25q-52 -3 -76.5 -17t-35.5 -53t-11 -120v-1004q0 -81 11 -120t35.5 -53t76.5 -17v-25h-676v25q59 2 95.5 5t66 12t44.5 20t25 34t12.5 49.5t2.5 69.5v1145h-164
q-157 0 -242 -74t-85 -174q0 -82 61.5 -140.5t169.5 -58.5q70 0 137 33l17 -20l-275 -654q-69 -165 -210.5 -235t-311.5 -37v25z" />
    <glyph glyph-name="uni042F" unicode="&#x44f;" horiz-adv-x="1370" 
d="M37 25q38 17 87.5 75t96.5 164l254 567q-156 26 -239.5 102t-83.5 193q0 152 146.5 230t438.5 78h633v-25q-52 -3 -76.5 -17t-35.5 -53t-11 -120v-1004q0 -81 11 -120t35.5 -53t76.5 -17v-25h-676v25q59 2 95.5 5t66 12t44.5 20t25 34t12.5 49.5t2.5 69.5v1145h-164
q-157 0 -242 -74t-85 -174q0 -82 61.5 -140.5t169.5 -58.5q70 0 137 33l17 -20l-275 -654q-69 -165 -210.5 -235t-311.5 -37v25z" />
    <glyph glyph-name="uni0462" unicode="&#x462;" horiz-adv-x="1251" 
d="M-82 1249l205 6v168q0 81 -11 120t-35.5 53.5t-76.5 17.5v24h737v-24q-64 -1 -106.5 -4t-78 -8t-55.5 -15.5t-35 -22.5t-21 -34.5t-8.5 -45.5t-2.5 -61v-157l553 16v-86l-553 16v-1138h135q111 0 193.5 59.5t122 149.5t39.5 194q0 76 -23 146t-67 126t-115.5 89.5
t-161.5 33.5q-7 0 -20.5 -1t-20.5 -1v21q108 31 213 31q78 0 149 -14.5t135 -46.5t110.5 -79.5t74 -118.5t27.5 -157q0 -238 -159.5 -372t-443.5 -134h-618v25q52 3 76.5 17t35.5 53t11 120v1008l-205 6v20z" />
    <glyph glyph-name="uni0462" unicode="&#x463;" horiz-adv-x="1251" 
d="M-82 1249l205 6v168q0 81 -11 120t-35.5 53.5t-76.5 17.5v24h737v-24q-64 -1 -106.5 -4t-78 -8t-55.5 -15.5t-35 -22.5t-21 -34.5t-8.5 -45.5t-2.5 -61v-157l553 16v-86l-553 16v-1138h135q111 0 193.5 59.5t122 149.5t39.5 194q0 76 -23 146t-67 126t-115.5 89.5
t-161.5 33.5q-7 0 -20.5 -1t-20.5 -1v21q108 31 213 31q78 0 149 -14.5t135 -46.5t110.5 -79.5t74 -118.5t27.5 -157q0 -238 -159.5 -372t-443.5 -134h-618v25q52 3 76.5 17t35.5 53t11 120v1008l-205 6v20z" />
    <glyph glyph-name="uni046A" unicode="&#x46a;" horiz-adv-x="1992" 
d="M-102 1434h2197v-25q-61 -2 -98.5 -4t-75 -12t-57 -17t-53.5 -32t-54 -43.5t-69 -63.5l-121 -111l352 -870q29 -72 63.5 -127.5t57.5 -77.5t35 -26v-25q-160 -42 -295 32.5t-199 243.5l-242 639l-204 -190v-510q0 -43 2.5 -69.5t12.5 -49.5t24.5 -34t44 -20t66 -12
t95.5 -5v-25h-768v25q59 2 95.5 5t66 12t44.5 20t25 34t12.5 49.5t2.5 69.5v510l-205 190l-241 -639q-64 -169 -199 -243.5t-295 -32.5v25q12 4 35 26t57.5 77.5t63.5 127.5l352 870l-121 111q-49 45 -69 63.5t-54 43.5t-53.5 32t-57 17t-75 12t-98.5 4v25zM461 1190
l538 -500l531 500q41 38 63 61t32.5 44t3 31t-35 18t-70.5 11t-114 5h-827q-199 0 -219 -32t98 -138z" />
    <glyph glyph-name="uni046A" unicode="&#x46b;" horiz-adv-x="1992" 
d="M-102 1434h2197v-25q-61 -2 -98.5 -4t-75 -12t-57 -17t-53.5 -32t-54 -43.5t-69 -63.5l-121 -111l352 -870q29 -72 63.5 -127.5t57.5 -77.5t35 -26v-25q-160 -42 -295 32.5t-199 243.5l-242 639l-204 -190v-510q0 -43 2.5 -69.5t12.5 -49.5t24.5 -34t44 -20t66 -12
t95.5 -5v-25h-768v25q59 2 95.5 5t66 12t44.5 20t25 34t12.5 49.5t2.5 69.5v510l-205 190l-241 -639q-64 -169 -199 -243.5t-295 -32.5v25q12 4 35 26t57.5 77.5t63.5 127.5l352 870l-121 111q-49 45 -69 63.5t-54 43.5t-53.5 32t-57 17t-75 12t-98.5 4v25zM461 1190
l538 -500l531 500q41 38 63 61t32.5 44t3 31t-35 18t-70.5 11t-114 5h-827q-199 0 -219 -32t98 -138z" />
    <glyph glyph-name="uni0490" unicode="&#x490;" horiz-adv-x="983" 
d="M610 1434q46 0 76.5 2t60.5 8.5t46 18.5t28 32.5t11.5 49t-8.5 69t-27 93t-49 120.5l22 12l264 -479h-604v-1145q0 -43 2.5 -69.5t12.5 -49.5t25 -34t44.5 -20t66 -12t95.5 -5v-25h-676v25q52 3 76.5 17t35.5 53t11 120v1024q0 71 -11 105.5t-35.5 48t-76.5 16.5v25h610z
" />
    <glyph glyph-name="uni0490" unicode="&#x491;" horiz-adv-x="983" 
d="M610 1434q46 0 76.5 2t60.5 8.5t46 18.5t28 32.5t11.5 49t-8.5 69t-27 93t-49 120.5l22 12l264 -479h-604v-1145q0 -43 2.5 -69.5t12.5 -49.5t25 -34t44.5 -20t66 -12t95.5 -5v-25h-676v25q52 3 76.5 17t35.5 53t11 120v1024q0 71 -11 105.5t-35.5 48t-76.5 16.5v25h610z
" />
    <glyph glyph-name="uni1E20" unicode="&#x1e20;" horiz-adv-x="1550" 
d="M1386 1247l-157 -428l-23 8q44 193 9.5 320.5t-114.5 190.5t-190 63q-103 0 -194.5 -44.5t-158 -120.5t-114.5 -174.5t-72 -209t-24 -221.5q0 -140 41 -253t109.5 -183.5t154.5 -108t181 -37.5q140 0 253 49v342q0 68 -2.5 106t-15 72.5t-30 49.5t-56.5 26.5t-84.5 14
t-124.5 2.5v24h612v-24v-170v-338q-109 -108 -257.5 -172t-313.5 -64q-156 0 -295.5 59.5t-240 161t-159.5 241.5t-59 296t59 296t159.5 241.5t240 161t295.5 59.5q167 0 315 -64t256 -172zM428 1735v20l778 51v-123z" />
    <glyph glyph-name="uni1E20" unicode="&#x1e21;" horiz-adv-x="1550" 
d="M1386 1247l-157 -428l-23 8q44 193 9.5 320.5t-114.5 190.5t-190 63q-103 0 -194.5 -44.5t-158 -120.5t-114.5 -174.5t-72 -209t-24 -221.5q0 -140 41 -253t109.5 -183.5t154.5 -108t181 -37.5q140 0 253 49v342q0 68 -2.5 106t-15 72.5t-30 49.5t-56.5 26.5t-84.5 14
t-124.5 2.5v24h612v-24v-170v-338q-109 -108 -257.5 -172t-313.5 -64q-156 0 -295.5 59.5t-240 161t-159.5 241.5t-59 296t59 296t159.5 241.5t240 161t295.5 59.5q167 0 315 -64t256 -172zM428 1735v20l778 51v-123z" />
    <glyph glyph-name="Wgrave" unicode="&#x1e80;" horiz-adv-x="2045" 
d="M-76 1434h1037v-25h-273q-88 0 -140.5 -2t-92 -11t-56.5 -19.5t-22 -35t0.5 -50t19.5 -72.5l303 -983l381 1300h4l510 -1333l320 1016q11 36 16.5 57.5t6.5 44t-4 34t-20.5 23t-37 16.5t-60 9t-82 5t-110.5 1h-407v25h944v-25q-61 0 -91 -33.5t-77 -156.5l-383 -1219
q-57 -7 -115 -36t-92 -79l-420 1061l-274 -946q-57 -7 -115 -36t-92 -79l-432 1334q-38 119 -67.5 154.5t-78.5 35.5v25zM913 1860l84 69l230 -352l-19 -14z" />
    <glyph glyph-name="Wgrave" unicode="&#x1e81;" horiz-adv-x="2045" 
d="M-76 1434h1037v-25h-273q-88 0 -140.5 -2t-92 -11t-56.5 -19.5t-22 -35t0.5 -50t19.5 -72.5l303 -983l381 1300h4l510 -1333l320 1016q11 36 16.5 57.5t6.5 44t-4 34t-20.5 23t-37 16.5t-60 9t-82 5t-110.5 1h-407v25h944v-25q-61 0 -91 -33.5t-77 -156.5l-383 -1219
q-57 -7 -115 -36t-92 -79l-420 1061l-274 -946q-57 -7 -115 -36t-92 -79l-432 1334q-38 119 -67.5 154.5t-78.5 35.5v25zM913 1860l84 69l230 -352l-19 -14z" />
    <glyph glyph-name="Wacute" unicode="&#x1e82;" horiz-adv-x="2045" 
d="M-76 1434h1037v-25h-273q-88 0 -140.5 -2t-92 -11t-56.5 -19.5t-22 -35t0.5 -50t19.5 -72.5l303 -983l381 1300h4l510 -1333l320 1016q11 36 16.5 57.5t6.5 44t-4 34t-20.5 23t-37 16.5t-60 9t-82 5t-110.5 1h-407v25h944v-25q-61 0 -91 -33.5t-77 -156.5l-383 -1219
q-57 -7 -115 -36t-92 -79l-420 1061l-274 -946q-57 -7 -115 -36t-92 -79l-432 1334q-38 119 -67.5 154.5t-78.5 35.5v25zM979 1608l229 352l84 -70l-295 -297z" />
    <glyph glyph-name="Wacute" unicode="&#x1e83;" horiz-adv-x="2045" 
d="M-76 1434h1037v-25h-273q-88 0 -140.5 -2t-92 -11t-56.5 -19.5t-22 -35t0.5 -50t19.5 -72.5l303 -983l381 1300h4l510 -1333l320 1016q11 36 16.5 57.5t6.5 44t-4 34t-20.5 23t-37 16.5t-60 9t-82 5t-110.5 1h-407v25h944v-25q-61 0 -91 -33.5t-77 -156.5l-383 -1219
q-57 -7 -115 -36t-92 -79l-420 1061l-274 -946q-57 -7 -115 -36t-92 -79l-432 1334q-38 119 -67.5 154.5t-78.5 35.5v25zM979 1608l229 352l84 -70l-295 -297z" />
    <glyph glyph-name="Wdieresis" unicode="&#x1e84;" horiz-adv-x="2045" 
d="M-76 1434h1037v-25h-273q-88 0 -140.5 -2t-92 -11t-56.5 -19.5t-22 -35t0.5 -50t19.5 -72.5l303 -983l381 1300h4l510 -1333l320 1016q11 36 16.5 57.5t6.5 44t-4 34t-20.5 23t-37 16.5t-60 9t-82 5t-110.5 1h-407v25h944v-25q-61 0 -91 -33.5t-77 -156.5l-383 -1219
q-57 -7 -115 -36t-92 -79l-420 1061l-274 -946q-57 -7 -115 -36t-92 -79l-432 1334q-38 119 -67.5 154.5t-78.5 35.5v25zM829 1753q0 41 30 71.5t73 30.5q40 0 71 -31t31 -71q0 -43 -30.5 -73.5t-71.5 -30.5q-44 0 -73.5 30t-29.5 74zM1178 1753q0 39 29.5 69.5t72.5 30.5
q40 0 71 -31t31 -69q0 -43 -30.5 -73.5t-71.5 -30.5q-44 0 -73 30t-29 74z" />
    <glyph glyph-name="Wdieresis" unicode="&#x1e85;" horiz-adv-x="2045" 
d="M-76 1434h1037v-25h-273q-88 0 -140.5 -2t-92 -11t-56.5 -19.5t-22 -35t0.5 -50t19.5 -72.5l303 -983l381 1300h4l510 -1333l320 1016q11 36 16.5 57.5t6.5 44t-4 34t-20.5 23t-37 16.5t-60 9t-82 5t-110.5 1h-407v25h944v-25q-61 0 -91 -33.5t-77 -156.5l-383 -1219
q-57 -7 -115 -36t-92 -79l-420 1061l-274 -946q-57 -7 -115 -36t-92 -79l-432 1334q-38 119 -67.5 154.5t-78.5 35.5v25zM829 1753q0 41 30 71.5t73 30.5q40 0 71 -31t31 -71q0 -43 -30.5 -73.5t-71.5 -30.5q-44 0 -73.5 30t-29.5 74zM1178 1753q0 39 29.5 69.5t72.5 30.5
q40 0 71 -31t31 -69q0 -43 -30.5 -73.5t-71.5 -30.5q-44 0 -73 30t-29 74z" />
    <glyph glyph-name="uni1EBC" unicode="&#x1ebc;" horiz-adv-x="1116" 
d="M0 1434h1010l39 -414l-25 -2q-9 81 -17.5 133t-21.5 92.5t-27 61.5t-38.5 34.5t-51 17t-69.5 3.5h-369v-352l440 -25v-25l-440 -24v-860h324q62 0 92.5 1.5t71 16.5t57.5 34.5t42 72t36 111.5t28.5 170.5t29 232t28.5 311.5h24l-76 -1024h-1087v25q52 3 76.5 17t35.5 53
t11 120v1004q0 81 -11 120t-35.5 53t-76.5 17v25zM170 1712q34 104 86 152.5t127 48.5q77 0 215 -64q140 -63 215 -63t123 76l20 -11q-33 -103 -85 -151.5t-128 -48.5q-79 0 -215 63q-142 64 -215 64q-75 0 -123 -76z" />
    <glyph glyph-name="uni1EBC" unicode="&#x1ebd;" horiz-adv-x="1116" 
d="M0 1434h1010l39 -414l-25 -2q-9 81 -17.5 133t-21.5 92.5t-27 61.5t-38.5 34.5t-51 17t-69.5 3.5h-369v-352l440 -25v-25l-440 -24v-860h324q62 0 92.5 1.5t71 16.5t57.5 34.5t42 72t36 111.5t28.5 170.5t29 232t28.5 311.5h24l-76 -1024h-1087v25q52 3 76.5 17t35.5 53
t11 120v1004q0 81 -11 120t-35.5 53t-76.5 17v25zM170 1712q34 104 86 152.5t127 48.5q77 0 215 -64q140 -63 215 -63t123 76l20 -11q-33 -103 -85 -151.5t-128 -48.5q-79 0 -215 63q-142 64 -215 64q-75 0 -123 -76z" />
    <glyph glyph-name="Ygrave" unicode="&#x1ef2;" horiz-adv-x="1267" 
d="M119 1217q-50 71 -75.5 102.5t-58.5 55.5t-63.5 29t-85.5 5v25h869v-25q-224 0 -269 -26q-36 -20 -5 -75q9 -16 26 -40l309 -437l297 435q50 73 37 100q-17 34 -152 40q-54 3 -141 3v25h625v-25q-55 0 -88.5 -5t-61 -13.5t-53.5 -34.5t-48 -54t-61 -85l-293 -429v-593
q0 -56 6.5 -85t34 -49.5t73 -27t132.5 -8.5v-25h-799v25q87 2 132.5 8.5t73 27t34 49.5t6.5 85v452zM578 1860l84 69l229 -352l-19 -14z" />
    <glyph glyph-name="Ygrave" unicode="&#x1ef3;" horiz-adv-x="1267" 
d="M119 1217q-50 71 -75.5 102.5t-58.5 55.5t-63.5 29t-85.5 5v25h869v-25q-224 0 -269 -26q-36 -20 -5 -75q9 -16 26 -40l309 -437l297 435q50 73 37 100q-17 34 -152 40q-54 3 -141 3v25h625v-25q-55 0 -88.5 -5t-61 -13.5t-53.5 -34.5t-48 -54t-61 -85l-293 -429v-593
q0 -56 6.5 -85t34 -49.5t73 -27t132.5 -8.5v-25h-799v25q87 2 132.5 8.5t73 27t34 49.5t6.5 85v452zM578 1860l84 69l229 -352l-19 -14z" />
    <glyph glyph-name="uni1EF8" unicode="&#x1ef8;" horiz-adv-x="1267" 
d="M119 1217q-50 71 -75.5 102.5t-58.5 55.5t-63.5 29t-85.5 5v25h869v-25q-224 0 -269 -26q-36 -20 -5 -75q9 -16 26 -40l309 -437l297 435q50 73 37 100q-17 34 -152 40q-54 3 -141 3v25h625v-25q-55 0 -88.5 -5t-61 -13.5t-53.5 -34.5t-48 -54t-61 -85l-293 -429v-593
q0 -56 6.5 -85t34 -49.5t73 -27t132.5 -8.5v-25h-799v25q87 2 132.5 8.5t73 27t34 49.5t6.5 85v452zM356 1712q34 104 86 152.5t127 48.5q77 0 215 -64q140 -63 215 -63t123 76l21 -11q-33 -103 -85 -151.5t-128 -48.5q-79 0 -215 63q-142 64 -215 64q-75 0 -123 -76z" />
    <glyph glyph-name="uni1EF8" unicode="&#x1ef9;" horiz-adv-x="1267" 
d="M119 1217q-50 71 -75.5 102.5t-58.5 55.5t-63.5 29t-85.5 5v25h869v-25q-224 0 -269 -26q-36 -20 -5 -75q9 -16 26 -40l309 -437l297 435q50 73 37 100q-17 34 -152 40q-54 3 -141 3v25h625v-25q-55 0 -88.5 -5t-61 -13.5t-53.5 -34.5t-48 -54t-61 -85l-293 -429v-593
q0 -56 6.5 -85t34 -49.5t73 -27t132.5 -8.5v-25h-799v25q87 2 132.5 8.5t73 27t34 49.5t6.5 85v452zM356 1712q34 104 86 152.5t127 48.5q77 0 215 -64q140 -63 215 -63t123 76l21 -11q-33 -103 -85 -151.5t-128 -48.5q-79 0 -215 63q-142 64 -215 64q-75 0 -123 -76z" />
    <glyph glyph-name="uni2002" unicode="&#x2002;" horiz-adv-x="614" 
 />
    <glyph glyph-name="uni200A" unicode="&#x200a;" horiz-adv-x="286" 
 />
    <glyph glyph-name="endash" unicode="&#x2013;" horiz-adv-x="1167" 
d="M51 727l1065 33v-86l-1065 33v20z" />
    <glyph glyph-name="emdash" unicode="&#x2014;" horiz-adv-x="1536" 
d="M92 737l1352 31v-102l-1352 30v41z" />
    <glyph glyph-name="quoteleft" unicode="&#x2018;" horiz-adv-x="573" 
d="M422 1575q-58 -106 -82.5 -155.5t-37 -92t-3 -58.5t38.5 -30q102 -41 102 -143q0 -62 -44 -108t-109 -46q-63 0 -108.5 50t-45.5 122q0 69 44.5 148.5t181.5 277.5q22 32 34 49z" />
    <glyph glyph-name="quoteright" unicode="&#x2019;" horiz-adv-x="573" 
d="M152 850q58 106 82.5 155.5t37 92t3 58.5t-38.5 30q-103 41 -103 143q0 61 44.5 107.5t109.5 46.5q62 0 107.5 -49.5t45.5 -122.5q0 -69 -44.5 -148.5t-181.5 -277.5q-22 -32 -34 -49z" />
    <glyph glyph-name="bullet" unicode="&#x2022;" horiz-adv-x="798" 
d="M399 557q-75 0 -127.5 52.5t-52.5 127.5q0 74 52.5 126t127.5 52t128 -52t53 -126q0 -75 -53 -127.5t-128 -52.5z" />
    <glyph glyph-name="Euro" unicode="&#x20ac;" horiz-adv-x="1611" 
d="M1509 1247l-168 -461l-22 7q34 158 26.5 273t-53 189.5t-111 110t-147.5 35.5q-99 0 -186.5 -40.5t-153 -111t-113 -161t-75.5 -195.5l600 18v-86l-612 19q-23 -115 -23 -213v-23l635 19v-86l-633 18q11 -123 55 -221.5t111 -160.5t148 -95t169 -33t172 33.5t156.5 98.5
t126 170t74.5 237h24v-385q-108 -108 -256 -172t-315 -64q-181 0 -338 78t-260.5 214.5t-138.5 307.5l-221 6v21l215 6q-11 75 -11 125q0 52 11 127l-215 6v21l221 6q36 171 140 307t260.5 213.5t336.5 77.5q167 0 315 -64t256 -172z" />
    <glyph glyph-name="uni20B4" unicode="&#x20b4;" horiz-adv-x="1009" 
d="M176 1409q153 61 311 61q201 0 308.5 -95t107.5 -240q0 -120 -121 -265l136 -8v-86l-193 29l-131 -148l283 -39v-524q-154 -119 -365 -119q-194 0 -303 102.5t-109 258.5q0 79 42 156.5t124 169.5l2 4l-190 41l4 22l217 -31l133 150l-256 37v524zM201 903l268 -14l86 94
q104 114 104 252q0 72 -50.5 117t-125.5 45q-132 0 -197.5 -115t-84.5 -379zM340 213q0 -76 52 -120t126 -44q151 0 228 114.5t102 375.5l-301 65l-96 -106q-111 -125 -111 -285z" />
    <glyph glyph-name="uni20BD" unicode="&#x20bd;" horiz-adv-x="1343" 
d="M649 1434q267 0 422.5 -109t155.5 -299q0 -99 -46.5 -180t-125 -133.5t-179 -80.5t-212.5 -28q-76 0 -152 12v21h4q195 0 299.5 106.5t104.5 276.5q0 152 -97 246t-248 94h-145v-930l541 21v-103l-541 21v-154q0 -44 2.5 -69.5t14.5 -49t30 -34.5t55 -20t83.5 -12
t121.5 -5v-25h-737v25q52 3 76.5 17t35.5 53t11 120v166l-143 6v25l143 6v801q0 81 -11 120t-35.5 53t-76.5 17v25h649z" />
    <glyph glyph-name="uni2116" unicode="&#x2116;" horiz-adv-x="2140" 
d="M41 1694l18 14l1158 -1315v826q0 46 -3.5 70t-21.5 48.5t-47 35t-90.5 20t-139.5 12t-206 4.5v25h745v-25q-73 -3 -105.5 -17.5t-45.5 -52t-13 -120.5v-1016q0 -131 6 -190t31.5 -121.5t85.5 -151.5l-18 -14l-1157 1314v-825q0 -34 1.5 -54t10 -42t21 -33t40 -23.5
t61.5 -17.5t90.5 -10t121.5 -7t161 -3v-25h-745v25q73 3 105.5 17.5t45.5 52t13 120.5v1016q0 101 -2.5 148t-15 103.5t-36 100.5t-69.5 111zM1413 707v20l655 33v-86zM1430 1176q0 126 87.5 208t225.5 82t226.5 -82t88.5 -208q0 -136 -88 -221t-227 -85q-138 0 -225.5 85
t-87.5 221zM1602 1124q0 -82 32.5 -132t87.5 -50q52 0 91 45.5t56 105.5t17 121q0 80 -33.5 130.5t-87.5 50.5q-51 0 -90 -45t-56 -105.5t-17 -120.5z" />
    <glyph glyph-name="minus" unicode="&#x2212;" horiz-adv-x="942" 
d="M51 727l840 33v-86l-840 33v20z" />
    <glyph glyph-name="uni004A0301" horiz-adv-x="624" 
d="M-23 1434h648v-25q-45 -2 -69.5 -9t-41.5 -28.5t-22 -56t-5 -96.5v-971q0 -286 -184 -451.5t-528 -165.5v25q220 49 312.5 190.5t92.5 425.5v947q0 43 -2.5 69.5t-11 49t-21 34.5t-37 20.5t-54.5 11.5t-77 5v25zM227 1608l230 352l84 -70l-295 -297z" />
    <glyph glyph-name="B.salt" horiz-adv-x="1304" 
d="M0 27q53 2 78 15.5t37 53.5t12 121v733q0 101 29 187t78.5 145.5t114 101.5t135 62t143.5 20q98 0 183 -34t141.5 -105t56.5 -164q0 -176 -201 -356q61 20 135 20q68 0 129.5 -20t112 -58t80.5 -101t30 -142q0 -139 -77.5 -255.5t-212 -183.5t-295.5 -67l-709 2v25z
M434 74h137q183 0 299.5 109.5t116.5 279.5q0 114 -51 176.5t-141 62.5q-104 0 -234 -84l-8 11q101 128 165 274t64 260q0 102 -43 166t-112 64q-193 0 -193 -387v-932z" />
    <glyph glyph-name="P.salt" horiz-adv-x="1255" 
d="M430 215q0 -44 2.5 -69.5t14.5 -49t30 -34.5t55 -20t83.5 -12t121.5 -5v-25h-737v25q52 3 76.5 17t35.5 53t11 120v735q0 155 76 273t204.5 179.5t288.5 61.5q131 0 235.5 -37t168.5 -98.5t97.5 -137t33.5 -157.5q0 -80 -31 -154.5t-88.5 -133.5t-148.5 -94.5t-201 -35.5
q-127 0 -246 48v18h8q186 2 290.5 103.5t104.5 281.5q0 137 -60 230.5t-167 93.5q-115 0 -186.5 -105.5t-71.5 -279.5v-791z" />
    <glyph glyph-name="A_E.dlig" horiz-adv-x="1751" 
d="M717 1434h928l38 -414l-24 -2q-9 81 -17.5 133t-21.5 92.5t-27 61.5t-38.5 34.5t-51 17t-69.5 3.5h-369v-352l440 -25v-25l-440 -24v-860h324q62 0 92.5 1.5t71 16.5t57.5 34.5t42 72t36 111.5t28.5 170.5t29 232t28.5 311.5h24l-76 -1024h-1087v25q52 3 76.5 17t35.5 53
t11 120v152h-490l-82 -166q-21 -43 -30.5 -67t-7.5 -46.5t16 -32.5t50.5 -18t86 -10t131.5 -2l-2 -25h-526l2 25q65 0 101.5 31t90.5 139zM305 438h453v912z" />
    <glyph glyph-name="D_O.dlig" horiz-adv-x="2211" 
d="M766 1434q139 0 270 -39q161 88 357 88q208 0 382 -101t274.5 -275t100.5 -382t-100.5 -382t-274.5 -275t-382 -101q-181 0 -344 80q-130 -47 -283 -47h-766v25q52 3 76.5 17t35.5 53t11 120v1004q0 81 -11 120t-35.5 53t-76.5 17v25h766zM430 74h201q150 0 268 73
q-124 106 -194 256t-70 322q0 184 80.5 342.5t220.5 265.5q-86 27 -195 27h-311v-1286zM922 541q0 -202 67 -324q113 107 173.5 273.5t60.5 343.5q0 222 -84 350q-100 -133 -158.5 -310.5t-58.5 -332.5zM1128 80q67 -31 148 -31q86 0 167 40t144 107t116 154t88 183t54 193
t19 183q0 230 -91.5 361t-263.5 131q-136 0 -266 -105q139 -97 216 -246.5t77 -332.5q0 -207 -110.5 -377t-297.5 -260z" />
    <glyph glyph-name="H_D.dlig" horiz-adv-x="2447" 
d="M0 1434h676v-25q-59 -2 -95.5 -5t-66 -12t-44.5 -20t-25 -34t-12.5 -49.5t-2.5 -69.5v-222h574v222q0 43 -2.5 69.5t-12.5 49.5t-25 34t-44.5 20t-66 12t-95.5 5v25h858q168 0 311 -53t244 -147t158 -227.5t57 -289.5q0 -197 -100.5 -361.5t-277.5 -260t-392 -95.5h-858
v25q59 2 95.5 5t66 12t44.5 20t25 34t12.5 49.5t2.5 69.5v709h-574v-709q0 -43 2.5 -69.5t12.5 -49.5t25 -34t44.5 -20t66 -12t95.5 -5v-25h-676v25q52 3 76.5 17t35.5 53t11 120v1004q0 81 -11 120t-35.5 53t-76.5 17v25zM1311 74h170q115 0 213 44.5t166.5 119.5
t117.5 173t72 205.5t23 217.5q0 526 -482 526h-280v-1286z" />
    <glyph glyph-name="H_E.dlig" horiz-adv-x="1966" 
d="M0 1434h676v-25q-59 -2 -95.5 -5t-66 -12t-44.5 -20t-25 -34t-12.5 -49.5t-2.5 -69.5v-222h553v222q0 43 -2.5 69.5t-11.5 49.5t-22.5 34.5t-41 20t-61 11.5t-86.5 5v25h1102l38 -414l-24 -2q-9 81 -17.5 133t-21.5 92.5t-27 61.5t-38.5 34.5t-51 17t-69.5 3.5h-359v-352
l430 -25v-25l-430 -24v-860h314q62 0 92.5 1.5t71 16.5t57.5 34.5t42 72t36 111.5t28.5 170.5t29 232t28.5 311.5h24l-76 -1024h-1179v25q53 2 86.5 5t61 11.5t41 20t22.5 34.5t11.5 49.5t2.5 69.5v709h-553v-709q0 -43 2.5 -69.5t12.5 -49.5t25 -34t44.5 -20t66 -12
t95.5 -5v-25h-676v25q52 3 76.5 17t35.5 53t11 120v1004q0 81 -11 120t-35.5 53t-76.5 17v25z" />
    <glyph glyph-name="N_N.dlig" horiz-adv-x="2437" 
d="M41 1694l18 14l1123 -1315v838q0 101 -2.5 148t-15 103.5t-36 100.5t-69.5 111l18 14l1123 -1315v826q0 46 -3.5 70t-21.5 48.5t-47 35t-90.5 20t-139.5 12t-206 4.5v25h745v-25q-73 -3 -105.5 -17.5t-45.5 -52t-13 -120.5v-1016q0 -131 6 -190t31.5 -121.5t85.5 -151.5
l-18 -14l-1123 1302v-825q0 -131 6 -190t31.5 -121.5t85.5 -151.5l-18 -14l-1122 1314v-825q0 -46 3 -70t21 -48.5t46.5 -34.5t89.5 -20t139 -12.5t206 -4.5v-25h-743v25q73 3 105.5 17.5t45.5 52t13 120.5v1016q0 101 -2.5 148t-15 103.5t-36 100.5t-69.5 111z" />
    <glyph glyph-name="O_C.dlig" horiz-adv-x="2103" 
d="M819 -33q-208 0 -382 101t-275 275t-101 382t101 382t275 275t382 101q161 0 305 -64q144 64 306 64q167 0 315 -64t256 -172l-186 -514l-23 6q41 178 37.5 304t-47.5 205.5t-109 116t-147 36.5q-133 0 -246 -74q139 -105 218 -262t79 -340q0 -195 -89 -360.5
t-243 -268.5q96 -47 203 -47q88 0 172 33.5t156 98.5t125.5 170t74.5 237h25v-385q-108 -108 -256 -172t-315 -64q-162 0 -306 64q-144 -64 -305 -64zM348 541q0 -230 91 -361t263 -131q132 0 246 90q-128 104 -200 257t-72 329q0 209 101.5 384t273.5 273q-55 19 -115 19
q-86 0 -167 -40t-144 -107t-116 -154t-88 -183t-54 -193t-19 -183zM963 631q0 -226 102 -375q104 131 164.5 312.5t60.5 340.5q0 229 -88 357q-114 -110 -176.5 -281.5t-62.5 -353.5z" />
    <glyph glyph-name="O_G.dlig" horiz-adv-x="2164" 
d="M819 -33q-208 0 -382 101t-275 275t-101 382t101 382t275 275t382 101q161 0 305 -64q144 64 306 64q167 0 315 -64t256 -172l-158 -428l-22 8q44 193 9.5 320.5t-114.5 190.5t-190 63q-133 0 -246 -74q136 -103 215 -257.5t82 -334.5h424v-24v-170v-338
q-109 -108 -257.5 -172t-313.5 -64q-162 0 -306 64q-144 -64 -305 -64zM348 541q0 -230 91 -361t263 -131q132 0 246 90q-128 104 -200 257t-72 329q0 209 101.5 384t273.5 273q-55 19 -115 19q-86 0 -167 -40t-144 -107t-116 -154t-88 -183t-54 -193t-19 -183zM963 631
q0 -226 102 -375q104 131 164.5 312.5t60.5 340.5q0 229 -88 357q-114 -110 -176.5 -281.5t-62.5 -353.5zM1245 96q96 -47 203 -47q141 0 254 49v342q0 140 -22 192t-103 68q-6 -188 -94.5 -346t-237.5 -258z" />
    <glyph glyph-name="O_O.dlig" horiz-adv-x="2252" 
d="M819 -33q-208 0 -382 101t-275 275t-101 382t101 382t275 275t382 101q160 0 307 -64q147 64 308 64q208 0 382 -101t274.5 -275t100.5 -382t-100.5 -382t-274.5 -275t-382 -101q-161 0 -308 64q-147 -64 -307 -64zM348 541q0 -230 91 -361t263 -131q127 0 248 90
q-129 106 -201.5 258.5t-72.5 327.5q0 208 102.5 382.5t274.5 274.5q-55 19 -117 19q-86 0 -167 -40t-144 -107t-116 -154t-88 -183t-54 -193t-19 -183zM963 541q0 -206 69 -326q118 131 188 326.5t70 367.5q0 206 -69 326q-118 -131 -188 -326.5t-70 -367.5zM1200 68
q55 -19 117 -19q86 0 167 40t144 107t116 154t88 183t54 193t19 183q0 230 -91.5 361t-263.5 131q-126 0 -247 -90q129 -106 201.5 -258.5t72.5 -327.5q0 -208 -102.5 -382.5t-274.5 -274.5z" />
    <glyph glyph-name="uni0412.alt" horiz-adv-x="1304" 
d="M0 27q53 2 78 15.5t37 53.5t12 121v733q0 101 29 187t78.5 145.5t114 101.5t135 62t143.5 20q98 0 183 -34t141.5 -105t56.5 -164q0 -176 -201 -356q61 20 135 20q68 0 129.5 -20t112 -58t80.5 -101t30 -142q0 -139 -77.5 -255.5t-212 -183.5t-295.5 -67l-709 2v25z
M434 74h137q183 0 299.5 109.5t116.5 279.5q0 114 -51 176.5t-141 62.5q-104 0 -234 -84l-8 11q101 128 165 274t64 260q0 102 -43 166t-112 64q-193 0 -193 -387v-932z" />
    <glyph glyph-name="uni0420.alt" horiz-adv-x="1255" 
d="M430 215q0 -44 2.5 -69.5t14.5 -49t30 -34.5t55 -20t83.5 -12t121.5 -5v-25h-737v25q52 3 76.5 17t35.5 53t11 120v735q0 155 76 273t204.5 179.5t288.5 61.5q131 0 235.5 -37t168.5 -98.5t97.5 -137t33.5 -157.5q0 -80 -31 -154.5t-88.5 -133.5t-148.5 -94.5t-201 -35.5
q-127 0 -246 48v18h8q186 2 290.5 103.5t104.5 281.5q0 137 -60 230.5t-167 93.5q-115 0 -186.5 -105.5t-71.5 -279.5v-791z" />
    <glyph glyph-name="uni0414.loclBGR" horiz-adv-x="1382" 
d="M594 1434q59 0 116 27.5t91 86.5l522 -1474h164l-279 -484l-22 13q34 78 54 136.5t28.5 101.5t1 71.5t-21.5 46t-46 26.5t-65 12t-86 3h-717q-53 0 -86 -3t-65 -12t-46 -26.5t-21.5 -46t1 -71.5t28.5 -101.5t54 -136.5l-23 -13l-278 484h170zM147 74h848l-401 1155z" />
    <glyph glyph-name="uni041B.loclBGR" horiz-adv-x="1187" 
d="M1294 0h-780v25q88 0 141 2t93 11t56.5 19.5t22 35t-0.5 50.5t-21 72l-340 1002l-371 -1002q-13 -35 -19 -56t-7 -43.5t5 -34t24 -23.5t43.5 -17t69 -9.5t95 -5.5t127.5 -1v-25h-590v25q64 0 94.5 33.5t77.5 158.5l455 1217q59 0 116 27.5t91 86.5l452 -1331
q42 -123 72.5 -157.5t93.5 -34.5v-25z" />
    <glyph glyph-name="uni0414.salt" horiz-adv-x="1316" 
d="M-72 74h189q27 0 45.5 48.5t36.5 153.5l159 943q8 44 9.5 72t-6 51t-22 34.5t-46.5 19.5t-72 10.5t-104 2.5v25h1149v-25q-52 -3 -76.5 -17t-35.5 -53t-11 -120v-1145h215l-279 -484l-22 13q34 78 54 136.5t28.5 101.5t1 71.5t-21.5 46t-46 26.5t-65 12t-86 3h-557
q-46 0 -76.5 -2t-60.5 -8.5t-46 -18.5t-28 -32.5t-11 -49.5t9 -70t27.5 -94t49.5 -122l-22 -13zM217 74h619v1286h-379l-193 -1135q-18 -102 -47 -151z" />
    <glyph glyph-name="uni0418.salt" horiz-adv-x="1454" 
d="M1413 1694q-46 -67 -69.5 -111t-36 -100.5t-15 -103.5t-2.5 -148v-1016q0 -83 13 -120.5t45.5 -52t105.5 -17.5v-25h-745v25q128 2 206 4.5t139.5 12t90.5 20t47 35t21.5 48.5t3.5 70v825l-1158 -1314l-18 14q60 89 85.5 151.5t31.5 121.5t6 190v1016q0 83 -13 120.5
t-45.5 52t-105.5 17.5v25h745v-25q-96 -1 -161 -3t-121.5 -7t-90.5 -10t-61.5 -17.5t-40 -23.5t-21 -33t-10 -42t-1.5 -54v-826l1157 1315z" />
    <glyph glyph-name="uni041B.salt" horiz-adv-x="1249" 
d="M0 1434h1249v-25q-52 -3 -76.5 -17t-35.5 -53t-11 -120v-1004q0 -81 11 -120t35.5 -53t76.5 -17v-25h-676v25q59 2 95.5 5t66 12t44.5 20t25 34t12.5 49.5t2.5 69.5v1145h-373l-178 -1049q-11 -59 -18 -93t-18 -78t-23.5 -68t-30 -47t-40.5 -33t-52 -10q-36 0 -86 18v578
h25q6 -121 32 -181.5t62 -60.5t68 60t53 182l108 641q6 34 8 56t-1.5 43.5t-12 34t-27.5 23.5t-44 16.5t-66 10t-88.5 5.5t-116.5 1v25z" />
    <glyph glyph-name="uni04100415.dlig" horiz-adv-x="1751" 
d="M717 1434h928l38 -414l-24 -2q-9 81 -17.5 133t-21.5 92.5t-27 61.5t-38.5 34.5t-51 17t-69.5 3.5h-369v-352l440 -25v-25l-440 -24v-860h324q62 0 92.5 1.5t71 16.5t57.5 34.5t42 72t36 111.5t28.5 170.5t29 232t28.5 311.5h24l-76 -1024h-1087v25q52 3 76.5 17t35.5 53
t11 120v152h-490l-82 -166q-21 -43 -30.5 -67t-7.5 -46.5t16 -32.5t50.5 -18t86 -10t131.5 -2l-2 -25h-526l2 25q65 0 101.5 31t90.5 139zM305 438h453v912z" />
    <glyph glyph-name="uni04180418.dlig" horiz-adv-x="2406" 
d="M0 1434h682v-25q-59 -2 -95.5 -5t-66 -12t-44.5 -20t-25 -34t-12.5 -49.5t-2.5 -69.5v-838l1024 1325l21 -16q-58 -78 -81.5 -129.5t-32.5 -124.5t-9 -224v-831l1022 1325l20 -16q-58 -78 -81.5 -129.5t-32.5 -124.5t-9 -224v-1017q0 -71 11.5 -105.5t37 -48t80.5 -16.5
v-25h-682v25q58 2 95.5 5t66.5 11.5t44 19t25 31t12.5 43.5t2.5 60v862l-1022 -1333l-20 16q58 78 81.5 129t32.5 124t9 224v840l-1024 -1333l-21 16q58 78 81.5 129t32.5 124t9 224v1002q0 81 -11.5 120t-37 53t-80.5 17v25z" />
    <glyph glyph-name="uni0418041D.dlig" horiz-adv-x="2344" 
d="M1669 1434h676v-25q-52 -3 -76.5 -17t-35.5 -53t-11 -120v-1004q0 -81 11 -120t35.5 -53t76.5 -17v-25h-676v25q59 2 95.5 5t66 12t44.5 20t25 34t12.5 49.5t2.5 69.5v709h-561v-709q0 -44 2 -69.5t11 -49t23 -34.5t43 -20t65 -12t95 -5v-25h-792v25q59 2 95.5 5t66 12
t44.5 20t25 34t12.5 49.5t2.5 69.5v842l-1020 -1333l-21 16q58 78 81.5 129t32.5 124t9 224v1002q0 81 -11.5 120t-37 53t-80.5 17v25h682v-25q-59 -2 -95.5 -5t-66 -12t-44.5 -20t-25 -34t-12.5 -49.5t-2.5 -69.5v-838l1020 1325l21 -16q-58 -78 -81.5 -129.5t-32.5 -124.5
t-9 -224v-215h561v222q0 43 -2.5 69.5t-12.5 49.5t-25 34t-44.5 20t-66 12t-95.5 5v25z" />
    <glyph glyph-name="uni041B042C.dlig" horiz-adv-x="1886" 
d="M0 1434h1413v-25q-75 -2 -121.5 -5t-83.5 -12t-55 -20t-30 -34.5t-14.5 -49t-2.5 -69.5v-1145h141q111 0 193.5 59.5t122 149.5t39.5 194q0 76 -23 146t-67 126t-115.5 89.5t-161.5 33.5q-7 0 -20.5 -1t-20.5 -1v21q108 31 213 31q78 0 149 -14.5t135 -46.5t110.5 -79.5
t74 -118.5t27.5 -157q0 -238 -159.5 -372t-443.5 -134h-747v25q59 2 95.5 5t66 12t44.5 20t25 34t12.5 49.5t2.5 69.5v1145h-353l-178 -1049q-12 -69 -20.5 -110.5t-23.5 -88.5t-32.5 -72t-44 -41.5t-61.5 -16.5q-36 0 -86 18v578h25q6 -121 32 -181.5t62 -60.5t68 60
t53 182l108 641q6 34 8 56t-1.5 43.5t-12 34t-27.5 23.5t-44 16.5t-66 10t-88.5 5.5t-116.5 1v25z" />
    <glyph glyph-name="uni041C042C.dlig" horiz-adv-x="2347" 
d="M0 1749l18 10l840 -1306l840 1306l18 -10q-53 -92 -76.5 -139.5t-43 -114.5t-24.5 -136.5t-5 -187.5v-1097h141q84 0 152.5 34.5t111.5 92t66.5 128.5t23.5 148q0 76 -23 146t-66.5 126t-115 89.5t-161.5 33.5q-7 0 -20.5 -1t-20.5 -1v21q109 31 213 31q99 0 185 -24
t157 -72t112 -130.5t41 -189.5q0 -238 -159 -372t-443 -134h-962v25q115 2 186 4.5t126.5 12t82 20t43.5 35t20 49t3 69.5v733l-535 -839h-10l-496 772v-666q0 -45 3 -69.5t18.5 -49t39.5 -35t75 -19.5t115 -12t169 -5v-25h-616v25q52 3 76 17t35 53t11 120v956
q0 118 -5 187.5t-24 137t-42 114t-74 139.5z" />
    <glyph glyph-name="uni041D0415.dlig" horiz-adv-x="1966" 
d="M0 1434h676v-25q-59 -2 -95.5 -5t-66 -12t-44.5 -20t-25 -34t-12.5 -49.5t-2.5 -69.5v-222h553v222q0 43 -2.5 69.5t-11.5 49.5t-22.5 34.5t-41 20t-61 11.5t-86.5 5v25h1102l38 -414l-24 -2q-9 81 -17.5 133t-21.5 92.5t-27 61.5t-38.5 34.5t-51 17t-69.5 3.5h-359v-352
l430 -25v-25l-430 -24v-860h314q62 0 92.5 1.5t71 16.5t57.5 34.5t42 72t36 111.5t28.5 170.5t29 232t28.5 311.5h24l-76 -1024h-1179v25q53 2 86.5 5t61 11.5t41 20t22.5 34.5t11.5 49.5t2.5 69.5v709h-553v-709q0 -43 2.5 -69.5t12.5 -49.5t25 -34t44.5 -20t66 -12
t95.5 -5v-25h-676v25q52 3 76.5 17t35.5 53t11 120v1004q0 81 -11 120t-35.5 53t-76.5 17v25z" />
    <glyph glyph-name="uni041D042C.dlig" horiz-adv-x="2060" 
d="M0 1434h676v-25q-59 -2 -95.5 -5t-66 -12t-44.5 -20t-25 -34t-12.5 -49.5t-2.5 -69.5v-222h543v222q0 43 -2.5 69.5t-11.5 49t-22 34.5t-39 20.5t-57.5 11.5t-82.5 5v25h829v-25q-75 -2 -121.5 -5t-83.5 -12t-55 -20t-30 -34.5t-14.5 -49t-2.5 -69.5v-1145h141
q111 0 193.5 59.5t122 149.5t39.5 194q0 76 -23 146t-67 126t-115.5 89.5t-161.5 33.5q-7 0 -20.5 -1t-20.5 -1v21q108 31 213 31q78 0 149 -14.5t135 -46.5t110.5 -79.5t74 -118.5t27.5 -157q0 -238 -159 -372t-443 -134h-717v25q51 2 82.5 5t57.5 11.5t39 20.5t22 34.5
t11.5 49t2.5 69.5v709h-543v-709q0 -43 2.5 -69.5t12.5 -49.5t25 -34t44.5 -20t66 -12t95.5 -5v-25h-676v25q52 3 76.5 17t35.5 53t11 120v1004q0 81 -11 120t-35.5 53t-76.5 17v25z" />
    <glyph glyph-name="uni041E0415.dlig" horiz-adv-x="2314" 
d="M819 -33q-208 0 -382 101t-275 275t-101 382t101 382t275 275t382 101q286 0 500 -185q-9 101 -39 111v25h928l39 -414l-25 -2q-9 81 -17.5 133t-21.5 92.5t-27 61.5t-38.5 34.5t-51 17t-69.5 3.5h-369v-352l440 -25v-25l-440 -24v-860h324q62 0 92.5 1.5t71 16.5
t57.5 34.5t42 72t36 111.5t28.5 170.5t29 232t28.5 311.5h24l-75 -1024h-1006v25q35 15 39 129q-213 -187 -500 -187zM348 541q0 -230 91 -361t263 -131q92 0 178.5 40t154 107t124.5 154t94 183t57.5 193t20.5 183q0 230 -97.5 361t-281.5 131q-107 0 -205 -56t-169 -147.5
t-124 -205t-79.5 -230.5t-26.5 -221z" />
    <glyph glyph-name="uni041E041E.dlig" horiz-adv-x="2252" 
d="M819 -33q-208 0 -382 101t-275 275t-101 382t101 382t275 275t382 101q160 0 307 -64q147 64 308 64q208 0 382 -101t274.5 -275t100.5 -382t-100.5 -382t-274.5 -275t-382 -101q-161 0 -308 64q-147 -64 -307 -64zM348 541q0 -230 91 -361t263 -131q127 0 248 90
q-129 106 -201.5 258.5t-72.5 327.5q0 208 102.5 382.5t274.5 274.5q-55 19 -117 19q-86 0 -167 -40t-144 -107t-116 -154t-88 -183t-54 -193t-19 -183zM963 541q0 -206 69 -326q118 131 188 326.5t70 367.5q0 206 -69 326q-118 -131 -188 -326.5t-70 -367.5zM1200 68
q55 -19 117 -19q86 0 167 40t144 107t116 154t88 183t54 193t19 183q0 230 -91.5 361t-263.5 131q-126 0 -247 -90q129 -106 201.5 -258.5t72.5 -327.5q0 -208 -102.5 -382.5t-274.5 -274.5z" />
    <glyph glyph-name="uni041E0421.dlig" horiz-adv-x="2103" 
d="M819 -33q-208 0 -382 101t-275 275t-101 382t101 382t275 275t382 101q161 0 305 -64q144 64 306 64q167 0 315 -64t256 -172l-186 -514l-23 6q41 178 37.5 304t-47.5 205.5t-109 116t-147 36.5q-133 0 -246 -74q139 -105 218 -262t79 -340q0 -195 -89 -360.5
t-243 -268.5q96 -47 203 -47q88 0 172 33.5t156 98.5t125.5 170t74.5 237h25v-385q-108 -108 -256 -172t-315 -64q-162 0 -306 64q-144 -64 -305 -64zM348 541q0 -230 91 -361t263 -131q132 0 246 90q-128 104 -200 257t-72 329q0 209 101.5 384t273.5 273q-55 19 -115 19
q-86 0 -167 -40t-144 -107t-116 -154t-88 -183t-54 -193t-19 -183zM963 631q0 -226 102 -375q104 131 164.5 312.5t60.5 340.5q0 229 -88 357q-114 -110 -176.5 -281.5t-62.5 -353.5z" />
    <glyph glyph-name="uni041F042C.dlig" horiz-adv-x="2060" 
d="M0 1434h1587v-25q-75 -2 -121.5 -5t-83.5 -12t-55 -20t-30 -34.5t-14.5 -49t-2.5 -69.5v-1145h141q111 0 193.5 59.5t122 149.5t39.5 194q0 76 -23 146t-67 126t-115.5 89.5t-161.5 33.5q-7 0 -20.5 -1t-20.5 -1v21q108 31 213 31q78 0 149 -14.5t135 -46.5t110.5 -79.5
t74 -118.5t27.5 -157q0 -238 -159 -372t-443 -134h-717v25q51 2 82.5 5t57.5 11.5t39 20.5t22 34.5t11.5 49t2.5 69.5v1145h-543v-1145q0 -43 2.5 -69.5t12.5 -49.5t25 -34t44.5 -20t66 -12t95.5 -5v-25h-676v25q52 3 76.5 17t35.5 53t11 120v1004q0 81 -11 120t-35.5 53
t-76.5 17v25z" />
    <glyph glyph-name="uni0427042C.dlig" horiz-adv-x="1957" 
d="M-20 1434h614v-25q-72 -2 -109 -9t-60.5 -29t-29.5 -55t-6 -97v-283q0 -137 66.5 -220t185.5 -83q129 0 229 53v533q0 81 -11 120t-35 53t-76 17v25h737v-25q-75 -2 -121.5 -5t-83.5 -12t-55 -20t-30 -34.5t-14.5 -49t-2.5 -69.5v-1145h141q84 0 152.5 34.5t111.5 92
t66.5 128.5t23.5 148q0 76 -23 146t-66.5 126t-115 89.5t-161.5 33.5q-7 0 -20.5 -1t-20.5 -1v21q109 31 213 31q99 0 185 -24t157 -72t112 -130.5t41 -189.5q0 -238 -159 -372t-443 -134h-747v25q59 2 95.5 5t66 12t44 20t24.5 34t12.5 49.5t2.5 69.5v408
q-137 -101 -317 -101q-228 0 -349.5 112.5t-121.5 285.5v299q0 80 -10 119.5t-30 53.5t-62 17v25z" />
    <glyph glyph-name="uni0428042C.dlig" horiz-adv-x="2471" 
d="M0 1434h555v-25q-49 -3 -72.5 -17t-35 -53.5t-11.5 -119.5v-1145h320v1145q0 80 -11.5 119.5t-35 53.5t-72.5 17v25h547v-25q-50 -3 -74 -17t-35.5 -53t-11.5 -120v-1145h321v1145q0 81 -11 120t-34.5 53t-72.5 17v25h733v-25q-75 -2 -121.5 -5t-83.5 -12t-55 -20
t-30 -34.5t-14.5 -49t-2.5 -69.5v-1145h141q84 0 152.5 34.5t111.5 92t66.5 128.5t23.5 148q0 76 -23 146t-66.5 126t-115 89.5t-161.5 33.5q-7 0 -20.5 -1t-20.5 -1v21q108 31 213 31q99 0 185 -24t157 -72t112 -130.5t41 -189.5q0 -238 -159 -372t-443 -134h-1886v25
q55 3 80.5 17t37 53t11.5 120v1004q0 81 -11.5 120t-37 53t-80.5 17v25z" />
    <glyph glyph-name="uni0306.cy" 
d="M319 1868l859 313l8 -22q-149 -55 -266 -110.5t-184.5 -99.5t-111.5 -85t-59.5 -68.5t-15.5 -48.5q0 -39 27 -59.5t69 -20.5q78 0 150 57t82 144h32q0 -119 -83 -195t-212 -76t-212 76t-83 195z" />
    <glyph glyph-name="uni030C.alt" 
d="M717 1960l84 -70l-295 -297l-19 15z" />
    </font>
</defs>
</svg>
