<?xml version="1.0" standalone="no"?>
<!DOCTYPE svg PUBLIC "-//W3C//DTD SVG 1.1//EN" "http://www.w3.org/Graphics/SVG/1.1/DTD/svg11.dtd" >
<svg xmlns="http://www.w3.org/2000/svg" xmlns:xlink="http://www.w3.org/1999/xlink" version="1.1">
<metadata>
Created by FontForge 20201107 at Tue Feb 13 19:36:19 2024
 By 
Copyright (c) 2023 by Misha Ivanov.
</metadata>
<defs>
<font id="Angst-Normal" horiz-adv-x="0" >
  <font-face 
    font-family="Angst Normal"
    font-weight="400"
    font-stretch="normal"
    units-per-em="2048"
    panose-1="0 0 0 0 0 0 0 0 0 0"
    ascent="1638"
    descent="-410"
    cap-height="1434"
    bbox="-102 -524 2431 2042"
    underline-thickness="102"
    underline-position="-255"
    unicode-range="U+0020-2212"
  />
<missing-glyph horiz-adv-x="1024" 
d="M840 1638v-2048h-650v2048h650zM342 -268h340v67h-209l143 97h66v67h-340v-67h143l-143 -97v-67zM342 10h340v232h-340v-232zM342 365h340v231h-205v-115h70v47h67v-96h-204v164h-68v-231zM342 641h340v205h-68v-135h-272v-70zM342 758h205v143h135v68h-340v-68h135v-76
h-135v-67zM342 1024h340v70h-135v143h-205v-213zM342 1290h340v68h-135v76h135v67h-338v-67h133v-76h-135v-68zM410 78v96h204v-96h-204zM410 1094v73h67v-73h-67z" />
    <glyph glyph-name="T_T.liga" unicode="TT" horiz-adv-x="2048" 
d="M41 1434h1964v-76h-8q-38 10 -68.5 12t-118.5 2h-188v-1157q0 -137 8 -192l2 -15v-8h-194v8l2 15q8 55 8 192v1157h-236h-186h-8h-232h-188v-1157q0 -137 8 -192l2 -15v-8h-194v8l2 15q8 55 8 192v1157h-188q-88 0 -118.5 -2t-68.5 -12h-8v76z" />
    <glyph glyph-name="uni04220422.liga" unicode="&#x422;&#x422;" horiz-adv-x="2048" 
d="M41 1434h1964v-76h-8q-38 10 -68.5 12t-118.5 2h-188v-1157q0 -137 8 -192l2 -15v-8h-194v8l2 15q8 55 8 192v1157h-236h-186h-8h-232h-188v-1157q0 -137 8 -192l2 -15v-8h-194v8l2 15q8 55 8 192v1157h-188q-88 0 -118.5 -2t-68.5 -12h-8v76z" />
    <glyph glyph-name="uni04070407.liga" unicode="&#x407;&#x407;" horiz-adv-x="1150" 
d="M770 8q10 53 10 187v1044q0 133 -10 186v9h195v-9q-11 -58 -11 -186v-1044q0 -129 11 -187v-8h-195v8zM133 1751q0 41 30.5 71.5t72.5 30.5q41 0 71.5 -30.5t30.5 -71.5q0 -42 -30 -72t-72 -30q-43 0 -73 29.5t-30 72.5zM186 0v8q11 58 11 187v1044q0 128 -11 186v9h195
v-9q-10 -53 -10 -186v-1044q0 -134 10 -187v-8h-195zM473 1751q0 42 30 72t72 30q41 0 72 -30.5t31 -71.5q0 -42 -30.5 -72t-72.5 -30q-43 0 -72.5 29.5t-29.5 72.5zM813 1751q0 42 30 72t72 30q41 0 72 -30.5t31 -71.5q0 -42 -30.5 -72t-72.5 -30q-43 0 -72.5 29.5
t-29.5 72.5z" />
    <glyph glyph-name=".notdef" horiz-adv-x="1024" 
d="M840 1638v-2048h-650v2048h650zM342 -268h340v67h-209l143 97h66v67h-340v-67h143l-143 -97v-67zM342 10h340v232h-340v-232zM342 365h340v231h-205v-115h70v47h67v-96h-204v164h-68v-231zM342 641h340v205h-68v-135h-272v-70zM342 758h205v143h135v68h-340v-68h135v-76
h-135v-67zM342 1024h340v70h-135v143h-205v-213zM342 1290h340v68h-135v76h135v67h-338v-67h133v-76h-135v-68zM410 78v96h204v-96h-204zM410 1094v73h67v-73h-67z" />
    <glyph glyph-name=".null" 
 />
    <glyph glyph-name="nonmarkingreturn" horiz-adv-x="682" 
 />
    <glyph glyph-name="space" unicode=" " horiz-adv-x="716" 
 />
    <glyph glyph-name="space" unicode="&#xa0;" horiz-adv-x="716" 
 />
    <glyph glyph-name="exclam" unicode="!" horiz-adv-x="573" 
d="M287 -12q-47 0 -80 32.5t-33 79.5q0 45 33 79t80 34q45 0 78.5 -34t33.5 -79q0 -47 -33 -79.5t-79 -32.5zM168 1384q-6 65 27 108.5t92 43.5t90.5 -43t25.5 -109q-8 -84 -29.5 -301t-35.5 -381.5t-23 -318.5h-59q-10 155 -24 315t-36 389t-28 297z" />
    <glyph glyph-name="quotedbl" unicode="&#x22;" horiz-adv-x="880" 
d="M174 1036q127 153 112 203q-3 11 -16 14q-40 9 -67 36t-27 75q0 46 33.5 79.5t79.5 33.5q48 0 80 -37t32 -97q0 -66 -40.5 -141.5t-145.5 -193.5zM510 1036q127 153 112 203q-3 11 -16 14q-40 9 -67 36t-27 75q0 46 33.5 79.5t79.5 33.5q48 0 80 -37t32 -97
q0 -66 -40.5 -141.5t-145.5 -193.5z" />
    <glyph glyph-name="numbersign" unicode="#" horiz-adv-x="1515" 
d="M735 1417l-131 -418h490l137 435l59 -17l-131 -418h275v-61h-295l-140 -442h435v-62h-455l-141 -450l-58 16l138 434h-494l-141 -450l-58 16l137 434h-280v62h299l139 442h-438v61h457l137 435zM444 496h492l139 442h-491z" />
    <glyph glyph-name="dollar" unicode="$" horiz-adv-x="1085" 
d="M584 1638v-168q158 -3 309 -49l10 -190h-43q-32 86 -106 130.5t-170 47.5v-578l194 -184q185 -177 185 -368q0 -130 -103 -212.5t-287 -91.5v-180h-61v180q-101 3 -200.5 29.5t-172.5 75.5l-6 190h43q37 -105 130.5 -166t205.5 -67v627l-205 194q-72 67 -117 149t-45 160
q0 127 99.5 211.5t277.5 91.5v168h62zM328 1212q0 -135 151 -280l43 -41v516q-88 -12 -141 -62.5t-53 -132.5zM573 39q94 9 147.5 62.5t53.5 142.5q0 169 -168 329l-33 31v-565z" />
    <glyph glyph-name="percent" unicode="%" horiz-adv-x="1495" 
d="M1327 1585l49 -37l-1206 -1657l-51 37zM61 1192q0 126 88 208.5t226 82.5t226.5 -82.5t88.5 -208.5q0 -136 -88 -220.5t-227 -84.5t-226.5 84.5t-87.5 220.5zM207 1178q0 -99 48 -164.5t122 -65.5q80 0 126 72.5t46 173.5q0 99 -48.5 163t-121.5 64q-78 0 -125 -73
t-47 -170zM805 281q0 126 87.5 208t225.5 82t227 -82t89 -208q0 -136 -88.5 -221t-227.5 -85q-138 0 -225.5 85t-87.5 221zM948 266q0 -99 47.5 -164t122.5 -65q80 0 126 72.5t46 173.5q0 99 -48.5 163t-121.5 64q-78 0 -125 -73.5t-47 -170.5z" />
    <glyph glyph-name="ampersand" unicode="&#x26;" horiz-adv-x="1251" 
d="M1020 918q123 -155 123 -365q0 -114 -45 -223q256 -280 360 -291v-33q-53 -20 -106.5 -20t-97.5 14.5t-91 43.5t-82.5 60t-76.5 72q-79 -94 -193 -147.5t-242 -53.5q-113 0 -209.5 35.5t-161 95.5t-101 138t-36.5 162q0 142 84 259.5t222 178.5q-131 151 -131 301
q0 139 106 232t270 93q160 0 297 -49l9 -190h-25q-31 88 -102.5 133t-161.5 45q-104 0 -167 -64.5t-63 -158.5q0 -125 117 -250l543 -563q24 74 24 155q0 124 -61.5 223.5t-181.5 143.5v23h180zM246 440q0 -99 30 -178t82 -127t117 -73t139 -25q103 0 196 47t161 129
l-568 590q-78 -66 -117.5 -162.5t-39.5 -200.5z" />
    <glyph glyph-name="quotesingle" unicode="'" horiz-adv-x="573" 
d="M172 1047q127 153 112 203q-3 11 -16 14q-94 20 -94 110q0 46 33.5 79.5t79.5 33.5q48 0 80 -36.5t32 -96.5q0 -67 -41 -142.5t-145 -193.5z" />
    <glyph glyph-name="parenleft" unicode="(" horiz-adv-x="737" 
d="M616 1616q-65 -113 -105 -195.5t-78.5 -193t-56.5 -235.5t-18 -275t18 -275t56.5 -235.5t78.5 -193t105 -195.5l-28 -25q-96 98 -165.5 191t-125.5 205.5t-84.5 244.5t-28.5 283t28.5 283t84.5 244t125.5 205t165.5 191z" />
    <glyph glyph-name="parenright" unicode=")" horiz-adv-x="737" 
d="M150 1640q96 -98 165.5 -191t125.5 -205t84 -244t28 -283t-28 -283t-84 -244.5t-125.5 -206t-165.5 -190.5l-29 25q65 113 105 195.5t78.5 193t56.5 235.5t18 275t-18 275t-56.5 235.5t-78.5 193t-105 195.5z" />
    <glyph glyph-name="asterisk" unicode="*" horiz-adv-x="983" 
d="M524 1577l-4 -268q18 -12 19 -13l229 140l33 -56l-236 -131v-10v-10l236 -131l-33 -56l-229 138q-14 -9 -19 -11l4 -268h-65l4 270q-11 4 -19 9l-229 -138l-33 56l236 131v10v10l-236 131l33 56l231 -138q5 5 17 9l-4 270h65z" />
    <glyph glyph-name="plus" unicode="+" horiz-adv-x="942" 
d="M51 748h389v409h62v-409h389v-62h-389v-410h-62v410h-389v62z" />
    <glyph glyph-name="comma" unicode="," horiz-adv-x="573" 
d="M172 -227q127 153 112 203q-3 11 -16 14q-94 20 -94 110q0 46 33.5 79.5t79.5 33.5q48 0 80 -36.5t32 -96.5q0 -67 -41 -142.5t-145 -193.5z" />
    <glyph glyph-name="hyphen" unicode="-" horiz-adv-x="819" 
d="M20 748h779v-62h-779v62z" />
    <glyph glyph-name="period" unicode="." horiz-adv-x="573" 
d="M287 -12q-47 0 -80 32.5t-33 79.5q0 45 33 79t80 34q45 0 78.5 -34t33.5 -79q0 -47 -33 -79.5t-79 -32.5z" />
    <glyph glyph-name="slash" unicode="/" horiz-adv-x="1105" 
d="M977 1653l55 -27l-901 -1841l-55 27z" />
    <glyph glyph-name="zero" unicode="0" horiz-adv-x="1392" 
d="M696 -33q-178 0 -318 96t-218 268.5t-78 391.5t78 391.5t218 268.5t318 96q177 0 317.5 -96t219 -268.5t78.5 -391.5t-78.5 -391.5t-219 -268.5t-317.5 -96zM266 700q0 -194 53 -346.5t151 -238.5t224 -86q101 0 184.5 60t136.5 161t82 230t29 270q0 294 -118.5 480.5
t-305.5 186.5q-101 0 -185 -59.5t-138 -159.5t-83.5 -228.5t-29.5 -269.5z" />
    <glyph glyph-name="one" unicode="1" horiz-adv-x="692" 
d="M133 1120l326 324h39q-11 -60 -11 -195v-1034q0 -149 11 -207v-8h-199v8q10 38 12 71t2 136v981l-145 -115z" />
    <glyph glyph-name="two" unicode="2" horiz-adv-x="1175" 
d="M154 53q157 113 278.5 228t198 215t125.5 199t68.5 181t19.5 160q0 180 -85 280.5t-204 100.5q-137 0 -227.5 -106.5t-81.5 -286.5h-33l-27 279q71 87 170 131.5t213 44.5q209 0 331 -115.5t122 -312.5q0 -218 -157.5 -432.5t-456.5 -444.5h374q103 0 136 2t71 12h8v-188
h-843v53z" />
    <glyph glyph-name="three" unicode="3" horiz-adv-x="1126" 
d="M147 1434h805l4 -7l-460 -526h30q146 0 259 -50t179 -150.5t66 -237.5q0 -134 -65 -247.5t-181.5 -181t-257.5 -67.5q-153 0 -267.5 76t-174.5 193l49 196l37 -6q-16 -177 87 -287t247 -110q70 0 135 28t117 78t83 128t31 171q-14 183 -131.5 283.5t-322.5 101.5h-6
l-29 45l342 396h-361q-99 0 -133 -2.5t-73 -12.5h-9v189z" />
    <glyph glyph-name="four" unicode="4" horiz-adv-x="976" 
d="M772 1444q-10 -61 -10 -195v-817q133 0 186 6h8v-71h-8q-53 4 -186 4v-156q0 -154 10 -207v-8h-199v8q10 39 12.5 73.5t2.5 133.5v156h-576l-12 22l733 1051h39zM104 432h484v696l-484 -692q-4 -4 0 -4z" />
    <glyph glyph-name="five" unicode="5" horiz-adv-x="1290" 
d="M375 1434h649v-189h-8q-39 10 -73.5 12.5t-133.5 2.5h-401l-80 -463q136 112 309 112q89 0 171.5 -31t147 -86.5t103.5 -139.5t39 -183q0 -101 -40 -193.5t-108 -160.5t-164 -108t-204 -40q-144 0 -256.5 58.5t-180.5 156.5l52 252l34 -4q0 -76 23.5 -147t67 -128
t111.5 -91.5t149 -34.5q107 0 185.5 58t115.5 149.5t37 203.5q0 192 -86.5 300t-221.5 108q-86 0 -171.5 -41t-153.5 -117l-37 15z" />
    <glyph glyph-name="six" unicode="6" horiz-adv-x="1249" 
d="M631 -33q-115 0 -207.5 45.5t-150.5 124.5t-88.5 180.5t-30.5 217.5q0 127 34.5 255.5t107.5 250t176 217t250.5 157t319.5 68.5v-56q-146 -16 -267.5 -80t-202.5 -156t-137.5 -207t-81.5 -232.5t-25 -233.5q0 -122 25.5 -217.5t69 -153.5t97 -88t113.5 -30
q121 0 210 110t89 299q0 103 -32 191t-101.5 146.5t-163.5 58.5q-54 0 -109 -19l-22 55q81 37 174 37q82 0 158 -30t136.5 -85t97 -141.5t36.5 -191.5q0 -93 -31 -179.5t-88.5 -157t-150 -113t-205.5 -42.5z" />
    <glyph glyph-name="seven" unicode="7" horiz-adv-x="880" 
d="M61 1434h840l-555 -1241q-49 -110 -63 -185l-2 -8h-97v8q47 75 97 187l475 1065h-480q-99 0 -133 -2.5t-73 -12.5h-9v189z" />
    <glyph glyph-name="eight" unicode="8" horiz-adv-x="1269" 
d="M635 -33q-207 0 -339 119.5t-132 306.5q0 127 62 226.5t171 152.5q-81 52 -128.5 133.5t-47.5 175.5q0 159 120.5 272t293.5 113t293.5 -113t120.5 -272q0 -93 -48 -175t-129 -134q109 -53 171.5 -152.5t62.5 -226.5q0 -187 -132 -306.5t-339 -119.5zM348 387
q0 -150 84 -254t205 -104q117 0 201 104.5t84 253.5q0 146 -84 250t-201 104q-121 0 -205 -103.5t-84 -250.5zM406 1104q0 -127 67.5 -216t163.5 -89q93 0 160 89t67 216q0 124 -67 212.5t-160 88.5q-95 0 -163 -88.5t-68 -212.5z" />
    <glyph glyph-name="nine" unicode="9" horiz-adv-x="1249" 
d="M618 1470q115 0 207.5 -45.5t151 -124t89 -180t30.5 -217.5q0 -125 -34.5 -252t-108 -247t-176 -214.5t-250.5 -155t-320 -67.5v53q105 12 198 48.5t164.5 90t130.5 123t99.5 146.5t68.5 161.5t41 167t13 163.5q0 237 -89.5 363t-216.5 126q-121 0 -210 -110.5
t-89 -299.5q0 -76 19 -146t55 -126t94 -89.5t129 -33.5q54 0 109 19l22 -56q-81 -37 -174 -37q-82 0 -158 30t-136.5 85.5t-97 142t-36.5 191.5q0 93 31 179.5t88.5 156.5t150 112.5t205.5 42.5z" />
    <glyph glyph-name="colon" unicode=":" horiz-adv-x="573" 
d="M287 295q-47 0 -80 33t-33 80q0 45 33 78.5t80 33.5q45 0 78.5 -33.5t33.5 -78.5q0 -47 -33 -80t-79 -33zM174 1047q0 45 33 78.5t80 33.5q45 0 78.5 -33.5t33.5 -78.5q0 -47 -33 -80t-79 -33q-47 0 -80 33t-33 80z" />
    <glyph glyph-name="semicolon" unicode=";" horiz-adv-x="573" 
d="M287 934q-47 0 -80 33t-33 80q0 45 33 78.5t80 33.5q45 0 78.5 -33.5t33.5 -78.5q0 -47 -33 -80t-79 -33zM172 82q127 153 112 203q-3 11 -16 14q-40 9 -67 36t-27 75q0 46 33.5 79t79.5 33q48 0 80 -36.5t32 -96.5q0 -67 -41 -142.5t-145 -193.5z" />
    <glyph glyph-name="less" unicode="&#x3c;" horiz-adv-x="935" 
d="M731 1198l41 -43l-455 -428l451 -426l-37 -45l-526 471z" />
    <glyph glyph-name="equal" unicode="=" horiz-adv-x="942" 
d="M51 932h840v-62h-840v62zM51 543v61h840v-61h-840z" />
    <glyph glyph-name="greater" unicode="&#x3e;" horiz-adv-x="935" 
d="M246 1198l526 -471l-526 -471l-37 45l450 426l-454 428z" />
    <glyph glyph-name="question" unicode="?" horiz-adv-x="911" 
d="M389 -12q-47 0 -80 32.5t-33 79.5q0 45 33 79t80 34q45 0 79 -34t34 -79q0 -47 -33.5 -79.5t-79.5 -32.5zM123 1231l8 194q129 45 297 45q169 0 264.5 -75t95.5 -203q0 -141 -155 -315l-111 -123q-73 -81 -109 -143t-36 -117q0 -44 26 -86l-28 -27q-99 73 -99 170
q0 109 117 256l99 125q122 152 122 287q0 85 -52.5 137.5t-149.5 52.5q-86 0 -154.5 -45t-97.5 -133h-37z" />
    <glyph glyph-name="at" unicode="@" horiz-adv-x="1679" 
d="M764 1167q119 0 199 54l233 -664q77 -223 152 -223q49 0 82.5 100.5t33.5 245.5q0 104 -18 205t-63 203.5t-111.5 179.5t-172 125.5t-237.5 48.5q-131 0 -246 -56t-196 -152.5t-127.5 -228.5t-46.5 -280q0 -197 75.5 -361t212.5 -260t306 -96q249 0 469 158l30 -39
q-101 -86 -229.5 -133t-269.5 -47q-160 0 -304.5 61t-248.5 165t-165 248t-61 304t61 304t165 248t248.5 165t304.5 61t304 -61t248 -165t165 -248t61 -304q0 -105 -26.5 -193t-70 -143.5t-96 -86t-106.5 -30.5q-109 0 -182 67.5t-125 217.5l-19 51h-368l-45 -121
q-27 -75 -27 -104v-4h-80v4q0 1 4 9t13.5 32.5t23.5 62.5zM647 670h326l-160 452z" />
    <glyph glyph-name="A" unicode="A" horiz-adv-x="1228" 
d="M532 1434q94 0 158 43l447 -1262q52 -148 82 -207v-8h-203v8q0 52 -53 207l-58 162h-715l-61 -160q-14 -35 -24 -64.5t-16 -50t-9.5 -36t-4.5 -26t-1.5 -16t0 -10.5t0.5 -6v-8h-105v8q26 52 88 207zM215 438h670l-318 908z" />
    <glyph glyph-name="A" unicode="a" horiz-adv-x="1228" 
d="M532 1434q94 0 158 43l447 -1262q52 -148 82 -207v-8h-203v8q0 52 -53 207l-58 162h-715l-61 -160q-14 -35 -24 -64.5t-16 -50t-9.5 -36t-4.5 -26t-1.5 -16t0 -10.5t0.5 -6v-8h-105v8q26 52 88 207zM215 438h670l-318 908z" />
    <glyph glyph-name="B" unicode="B" horiz-adv-x="1320" 
d="M586 1434q202 0 321 -80t119 -217q0 -98 -57.5 -170.5t-157.5 -104.5q218 -17 343.5 -124.5t125.5 -278.5q0 -212 -156 -335.5t-422 -123.5h-507v8q10 53 10 207v1004q0 153 -10 206v9h391zM379 61h303q193 0 305.5 104.5t112.5 285.5q0 174 -140.5 269t-388.5 103l-69 2
v56l49 4q139 11 217 72t78 169q0 114 -76 180t-205 66h-186v-1311z" />
    <glyph glyph-name="B" unicode="b" horiz-adv-x="1320" 
d="M586 1434q202 0 321 -80t119 -217q0 -98 -57.5 -170.5t-157.5 -104.5q218 -17 343.5 -124.5t125.5 -278.5q0 -212 -156 -335.5t-422 -123.5h-507v8q10 53 10 207v1004q0 153 -10 206v9h391zM379 61h303q193 0 305.5 104.5t112.5 285.5q0 174 -140.5 269t-388.5 103l-69 2
v56l49 4q139 11 217 72t78 169q0 114 -76 180t-205 66h-186v-1311z" />
    <glyph glyph-name="C" unicode="C" horiz-adv-x="1488" 
d="M1386 1247v-203h-36q-28 119 -104 206t-177 129t-215 42q-90 0 -176.5 -26.5t-165 -83t-137.5 -136.5t-94 -196.5t-35 -253.5q0 -142 33 -259t89.5 -197t132 -135t158.5 -80t172 -25q182 0 329 101.5t190 275.5h36v-203q-108 -108 -256 -172t-315 -64q-156 0 -295.5 59.5
t-240 161t-159.5 241.5t-59 296t59 296t159.5 241.5t240 161t295.5 59.5q167 0 315 -64t256 -172z" />
    <glyph glyph-name="C" unicode="c" horiz-adv-x="1488" 
d="M1386 1247v-203h-36q-28 119 -104 206t-177 129t-215 42q-90 0 -176.5 -26.5t-165 -83t-137.5 -136.5t-94 -196.5t-35 -253.5q0 -142 33 -259t89.5 -197t132 -135t158.5 -80t172 -25q182 0 329 101.5t190 275.5h36v-203q-108 -108 -256 -172t-315 -64q-156 0 -295.5 59.5
t-240 161t-159.5 241.5t-59 296t59 296t159.5 241.5t240 161t295.5 59.5q167 0 315 -64t256 -172z" />
    <glyph glyph-name="D" unicode="D" horiz-adv-x="1597" 
d="M766 1434q168 0 311 -53t244 -147t158 -227.5t57 -289.5q0 -197 -100.5 -361.5t-277.5 -260t-392 -95.5h-571v8q10 53 10 207v1004q0 153 -10 206v9h571zM379 61h369q115 0 214.5 38t171 103.5t123 152t76.5 185t25 201.5q0 177 -75 320t-215 227t-320 84h-369v-1311z
" />
    <glyph glyph-name="D" unicode="d" horiz-adv-x="1597" 
d="M766 1434q168 0 311 -53t244 -147t158 -227.5t57 -289.5q0 -197 -100.5 -361.5t-277.5 -260t-392 -95.5h-571v8q10 53 10 207v1004q0 153 -10 206v9h571zM379 61h369q115 0 214.5 38t171 103.5t123 152t76.5 185t25 201.5q0 177 -75 320t-215 227t-320 84h-369v-1311z
" />
    <glyph glyph-name="E" unicode="E" horiz-adv-x="1116" 
d="M195 1434h815v-72h-6q-51 10 -189 10h-436v-375h471v-61h-471v-875h491q99 0 133.5 2.5t73.5 12.5h8v-76h-890v8q10 53 10 207v1004q0 153 -10 206v9z" />
    <glyph glyph-name="E" unicode="e" horiz-adv-x="1116" 
d="M195 1434h815v-72h-6q-51 10 -189 10h-436v-375h471v-61h-471v-875h491q99 0 133.5 2.5t73.5 12.5h8v-76h-890v8q10 53 10 207v1004q0 153 -10 206v9z" />
    <glyph glyph-name="F" unicode="F" horiz-adv-x="1009" 
d="M195 1434h835v-76h-8q-38 10 -68 12t-118 2h-457v-375h461v-61h-461v-721q0 -103 2 -136t12 -71v-8h-198v8q10 53 10 207v1004q0 153 -10 206v9z" />
    <glyph glyph-name="F" unicode="f" horiz-adv-x="1009" 
d="M195 1434h835v-76h-8q-38 10 -68 12t-118 2h-457v-375h461v-61h-461v-721q0 -103 2 -136t12 -71v-8h-198v8q10 53 10 207v1004q0 153 -10 206v9z" />
    <glyph glyph-name="G" unicode="G" horiz-adv-x="1550" 
d="M1386 1247v-203h-36q-28 119 -104 206t-177 129t-215 42q-90 0 -176.5 -26.5t-165 -83t-137.5 -136.5t-94 -196.5t-35 -253.5q0 -142 33 -259t89.5 -197t132 -135t158.5 -80t172 -25q111 0 210 42.5t171 125.5v344q0 122 -14 186v8h199v-8q-11 -58 -11 -186v-322
q-107 -117 -256 -184.5t-315 -67.5q-156 0 -295.5 59.5t-240 161t-159.5 241.5t-59 296t59 296t159.5 241.5t240 161t295.5 59.5q167 0 315 -64t256 -172z" />
    <glyph glyph-name="G" unicode="g" horiz-adv-x="1550" 
d="M1386 1247v-203h-36q-28 119 -104 206t-177 129t-215 42q-90 0 -176.5 -26.5t-165 -83t-137.5 -136.5t-94 -196.5t-35 -253.5q0 -142 33 -259t89.5 -197t132 -135t158.5 -80t172 -25q111 0 210 42.5t171 125.5v344q0 122 -14 186v8h199v-8q-11 -58 -11 -186v-322
q-107 -117 -256 -184.5t-315 -67.5q-156 0 -295.5 59.5t-240 161t-159.5 241.5t-59 296t59 296t159.5 241.5t240 161t295.5 59.5q167 0 315 -64t256 -172z" />
    <glyph glyph-name="H" unicode="H" horiz-adv-x="1433" 
d="M1040 1434h199v-9q-10 -53 -10 -206v-1004q0 -154 10 -207v-8h-199v8q10 39 12.5 73.5t2.5 133.5v721h-676v-721q0 -103 2 -136t12 -71v-8h-198v8q10 53 10 207v1004q0 153 -10 206v9h198v-9q-10 -38 -12 -70.5t-2 -135.5v-222h676v222q0 99 -2.5 133t-12.5 73v9z" />
    <glyph glyph-name="H" unicode="h" horiz-adv-x="1433" 
d="M1040 1434h199v-9q-10 -53 -10 -206v-1004q0 -154 10 -207v-8h-199v8q10 39 12.5 73.5t2.5 133.5v721h-676v-721q0 -103 2 -136t12 -71v-8h-198v8q10 53 10 207v1004q0 153 -10 206v9h198v-9q-10 -38 -12 -70.5t-2 -135.5v-222h676v222q0 99 -2.5 133t-12.5 73v9z" />
    <glyph glyph-name="I" unicode="I" horiz-adv-x="583" 
d="M195 1434h194v-9q-10 -53 -10 -206v-1004q0 -154 10 -207v-8h-194v8q10 53 10 207v1004q0 153 -10 206v9z" />
    <glyph glyph-name="I" unicode="i" horiz-adv-x="583" 
d="M195 1434h194v-9q-10 -53 -10 -206v-1004q0 -154 10 -207v-8h-194v8q10 53 10 207v1004q0 153 -10 206v9z" />
    <glyph glyph-name="J" unicode="J" horiz-adv-x="624" 
d="M236 1434h194v-9q-10 -53 -10 -206v-971q0 -269 -141 -421t-381 -181v37q164 40 256 186.5t92 402.5v947q0 153 -10 206v9z" />
    <glyph glyph-name="J" unicode="j" horiz-adv-x="624" 
d="M236 1434h194v-9q-10 -53 -10 -206v-971q0 -269 -141 -421t-381 -181v37q164 40 256 186.5t92 402.5v947q0 153 -10 206v9z" />
    <glyph glyph-name="K" unicode="K" horiz-adv-x="1288" 
d="M195 1434h198v-9q-10 -38 -12 -70.5t-2 -135.5v-414l442 414q98 90 140.5 135t54.5 71l4 9h117v-7q-54 -38 -232 -208l-211 -201l387 -658q172 -293 269 -333l-2 -31q-58 -7 -110.5 5.5t-92.5 37t-79 65t-66.5 79.5t-57.5 91l-375 629l-188 -176v-512q0 -103 2 -136
t12 -71v-8h-198v8q10 53 10 207v1004q0 153 -10 206v9z" />
    <glyph glyph-name="K" unicode="k" horiz-adv-x="1288" 
d="M195 1434h198v-9q-10 -38 -12 -70.5t-2 -135.5v-414l442 414q98 90 140.5 135t54.5 71l4 9h117v-7q-54 -38 -232 -208l-211 -201l387 -658q172 -293 269 -333l-2 -31q-58 -7 -110.5 5.5t-92.5 37t-79 65t-66.5 79.5t-57.5 91l-375 629l-188 -176v-512q0 -103 2 -136
t12 -71v-8h-198v8q10 53 10 207v1004q0 153 -10 206v9z" />
    <glyph glyph-name="L" unicode="L" horiz-adv-x="921" 
d="M195 1434h198v-9q-10 -38 -12 -70.5t-2 -135.5v-1158h348q99 0 133.5 2.5t73.5 12.5h8v-76h-747v8q10 53 10 207v1004q0 153 -10 206v9z" />
    <glyph glyph-name="L" unicode="l" horiz-adv-x="921" 
d="M195 1434h198v-9q-10 -38 -12 -70.5t-2 -135.5v-1158h348q99 0 133.5 2.5t73.5 12.5h8v-76h-747v8q10 53 10 207v1004q0 153 -10 206v9z" />
    <glyph glyph-name="M" unicode="M" horiz-adv-x="1720" 
d="M195 1434h38l646 -1037l608 1037h39q-10 -66 -10 -195v-1024q0 -154 10 -207v-8h-199v8q10 38 12 71t2 136v848l-505 -860h-41l-529 848v-836q0 -99 2.5 -133.5t12.5 -73.5v-8h-86v8q10 53 10 207v1024q0 129 -10 195z" />
    <glyph glyph-name="M" unicode="m" horiz-adv-x="1720" 
d="M195 1434h38l646 -1037l608 1037h39q-10 -66 -10 -195v-1024q0 -154 10 -207v-8h-199v8q10 38 12 71t2 136v848l-505 -860h-41l-529 848v-836q0 -99 2.5 -133.5t12.5 -73.5v-8h-86v8q10 53 10 207v1024q0 129 -10 195z" />
    <glyph glyph-name="N" unicode="N" horiz-adv-x="1454" 
d="M195 1444h38l955 -1145v920q0 103 -2 135.5t-12 70.5v9h86v-9q-11 -58 -11 -206v-1035q0 -127 11 -194h-39l-955 1145v-920q0 -99 2.5 -133.5t12.5 -73.5v-8h-86v8q10 53 10 207v1034q0 134 -10 195z" />
    <glyph glyph-name="N" unicode="n" horiz-adv-x="1454" 
d="M195 1444h38l955 -1145v920q0 103 -2 135.5t-12 70.5v9h86v-9q-11 -58 -11 -206v-1035q0 -127 11 -194h-39l-955 1145v-920q0 -99 2.5 -133.5t12.5 -73.5v-8h-86v8q10 53 10 207v1034q0 134 -10 195z" />
    <glyph glyph-name="O" unicode="O" horiz-adv-x="1638" 
d="M819 -33q-208 0 -382 101t-275 275t-101 382t101 382t275 275t382 101t382 -101t275 -275t101 -382t-101 -382t-275 -275t-382 -101zM246 725q0 -192 69.5 -351t195.5 -252t282 -93q171 0 309 93t214.5 252t76.5 351q0 193 -70 352t-196.5 251.5t-284.5 92.5
q-170 0 -307 -92.5t-213 -251.5t-76 -352z" />
    <glyph glyph-name="O" unicode="o" horiz-adv-x="1638" 
d="M819 -33q-208 0 -382 101t-275 275t-101 382t101 382t275 275t382 101t382 -101t275 -275t101 -382t-101 -382t-275 -275t-382 -101zM246 725q0 -192 69.5 -351t195.5 -252t282 -93q171 0 309 93t214.5 252t76.5 351q0 193 -70 352t-196.5 251.5t-284.5 92.5
q-170 0 -307 -92.5t-213 -251.5t-76 -352z" />
    <glyph glyph-name="P" unicode="P" horiz-adv-x="1210" 
d="M584 1434q281 0 433 -117.5t152 -335.5q0 -220 -152 -352.5t-401 -132.5q-52 0 -110 6v61h29q215 0 330.5 105t115.5 297q0 174 -110.5 290.5t-307.5 116.5h-184v-1157q0 -103 2 -136t12 -71v-8h-198v8q10 53 10 207v1004q0 153 -10 206v9h389z" />
    <glyph glyph-name="P" unicode="p" horiz-adv-x="1210" 
d="M584 1434q281 0 433 -117.5t152 -335.5q0 -220 -152 -352.5t-401 -132.5q-52 0 -110 6v61h29q215 0 330.5 105t115.5 297q0 174 -110.5 290.5t-307.5 116.5h-184v-1157q0 -103 2 -136t12 -71v-8h-198v8q10 53 10 207v1004q0 153 -10 206v9h389z" />
    <glyph glyph-name="Q" unicode="Q" horiz-adv-x="1669" 
d="M1651 -342q-20 -2 -58 -2q-94 0 -170.5 25t-136.5 74.5t-106 112t-90 148.5q-125 -49 -271 -49q-208 0 -382 101t-275 275t-101 382t101 382t275 275t382 101t382 -101t275 -275t101 -382q0 -202 -97.5 -374t-262.5 -273q46 -80 89 -140t96 -114t115.5 -88t133.5 -47v-31
zM252 725q0 -192 76.5 -351t214.5 -252t309 -93q156 0 282 93t195.5 252t69.5 351q0 193 -76 352t-213 251.5t-307 92.5q-158 0 -284.5 -92.5t-196.5 -251.5t-70 -352z" />
    <glyph glyph-name="Q" unicode="q" horiz-adv-x="1669" 
d="M1651 -342q-20 -2 -58 -2q-94 0 -170.5 25t-136.5 74.5t-106 112t-90 148.5q-125 -49 -271 -49q-208 0 -382 101t-275 275t-101 382t101 382t275 275t382 101t382 -101t275 -275t101 -382q0 -202 -97.5 -374t-262.5 -273q46 -80 89 -140t96 -114t115.5 -88t133.5 -47v-31
zM252 725q0 -192 76.5 -351t214.5 -252t309 -93q156 0 282 93t195.5 252t69.5 351q0 193 -76 352t-213 251.5t-307 92.5q-158 0 -284.5 -92.5t-196.5 -251.5t-70 -352z" />
    <glyph glyph-name="R" unicode="R" horiz-adv-x="1370" 
d="M672 1434q253 0 394.5 -91t141.5 -247q0 -138 -113.5 -219t-320.5 -93l289 -438q188 -288 287 -319l-2 -31q-71 -13 -133.5 2t-114.5 56.5t-90.5 87t-81.5 110.5l-369 553l14 26h43q197 0 305.5 73.5t108.5 201.5q0 132 -107.5 199t-310.5 67h-233v-1157q0 -103 2 -136
t12 -71v-8h-198v8q10 53 10 207v1004q0 153 -10 206v9h477z" />
    <glyph glyph-name="R" unicode="r" horiz-adv-x="1370" 
d="M672 1434q253 0 394.5 -91t141.5 -247q0 -138 -113.5 -219t-320.5 -93l289 -438q188 -288 287 -319l-2 -31q-71 -13 -133.5 2t-114.5 56.5t-90.5 87t-81.5 110.5l-369 553l14 26h43q197 0 305.5 73.5t108.5 201.5q0 132 -107.5 199t-310.5 67h-233v-1157q0 -103 2 -136
t12 -71v-8h-198v8q10 53 10 207v1004q0 153 -10 206v9h477z" />
    <glyph glyph-name="S" unicode="S" horiz-adv-x="995" 
d="M795 1421l8 -190h-37q-29 88 -97.5 133t-154.5 45q-93 0 -152 -51.5t-59 -145.5q0 -65 31 -136t88 -132l278 -301q170 -185 170 -356q0 -137 -104.5 -224.5t-282.5 -87.5q-91 0 -184 26.5t-160 78.5l-6 190h37q34 -112 122 -172.5t191 -60.5q101 0 162.5 57t61.5 154
q0 134 -129 272l-279 301q-162 176 -162 346q0 131 97.5 217t263.5 86q160 0 297 -49z" />
    <glyph glyph-name="S" unicode="s" horiz-adv-x="995" 
d="M795 1421l8 -190h-37q-29 88 -97.5 133t-154.5 45q-93 0 -152 -51.5t-59 -145.5q0 -65 31 -136t88 -132l278 -301q170 -185 170 -356q0 -137 -104.5 -224.5t-282.5 -87.5q-91 0 -184 26.5t-160 78.5l-6 190h37q34 -112 122 -172.5t191 -60.5q101 0 162.5 57t61.5 154
q0 134 -129 272l-279 301q-162 176 -162 346q0 131 97.5 217t263.5 86q160 0 297 -49z" />
    <glyph glyph-name="T" unicode="T" horiz-adv-x="1024" 
d="M41 1434h940v-76h-8q-38 10 -68.5 12t-118.5 2h-188v-1157q0 -137 8 -192l2 -15v-8h-194v8l2 15q8 55 8 192v1157h-188q-88 0 -118.5 -2t-68.5 -12h-8v76z" />
    <glyph glyph-name="T" unicode="t" horiz-adv-x="1024" 
d="M41 1434h940v-76h-8q-38 10 -68.5 12t-118.5 2h-188v-1157q0 -137 8 -192l2 -15v-8h-194v8l2 15q8 55 8 192v1157h-188q-88 0 -118.5 -2t-68.5 -12h-8v76z" />
    <glyph glyph-name="U" unicode="U" horiz-adv-x="1404" 
d="M174 1434h199v-9q-10 -39 -12.5 -73t-2.5 -133v-678q0 -211 109.5 -334t296.5 -123q185 0 295 118t110 314v703q0 103 -2 135.5t-12 70.5v9h86v-9q-10 -53 -10 -206v-674q0 -270 -144.5 -424t-379.5 -154t-379 154t-144 424v674q0 153 -10 206v9z" />
    <glyph glyph-name="U" unicode="u" horiz-adv-x="1404" 
d="M174 1434h199v-9q-10 -39 -12.5 -73t-2.5 -133v-678q0 -211 109.5 -334t296.5 -123q185 0 295 118t110 314v703q0 103 -2 135.5t-12 70.5v9h86v-9q-10 -53 -10 -206v-674q0 -270 -144.5 -424t-379.5 -154t-379 154t-144 424v674q0 153 -10 206v9z" />
    <glyph glyph-name="V" unicode="V" horiz-adv-x="1187" 
d="M10 1434h201v-9q0 -46 53 -206l379 -1125l416 1125q55 148 55 206v9h105v-9q-42 -84 -89 -208l-454 -1217q-94 0 -158 -43l-428 1262q-45 136 -80 206v9z" />
    <glyph glyph-name="V" unicode="v" horiz-adv-x="1187" 
d="M10 1434h201v-9q0 -46 53 -206l379 -1125l416 1125q55 148 55 206v9h105v-9q-42 -84 -89 -208l-454 -1217q-94 0 -158 -43l-428 1262q-45 136 -80 206v9z" />
    <glyph glyph-name="W" unicode="W" horiz-adv-x="2045" 
d="M61 1434h207v-15q0 -65 49 -200l398 -1119l385 1366h8l428 -1362l340 1115q43 136 43 200v15h96v-9q-23 -44 -73 -206l-373 -1219q-37 0 -82 -11.5t-76 -31.5l-354 1135l-307 -1092q-37 0 -82 -11.5t-76 -31.5l-449 1262q-56 156 -82 206v9z" />
    <glyph glyph-name="W" unicode="w" horiz-adv-x="2045" 
d="M61 1434h207v-15q0 -65 49 -200l398 -1119l385 1366h8l428 -1362l340 1115q43 136 43 200v15h96v-9q-23 -44 -73 -206l-373 -1219q-37 0 -82 -11.5t-76 -31.5l-354 1135l-307 -1092q-37 0 -82 -11.5t-76 -31.5l-449 1262q-56 156 -82 206v9z" />
    <glyph glyph-name="X" unicode="X" horiz-adv-x="1316" 
d="M20 1434h240l2 -9q8 -24 27 -52q19 -27 78 -107l303 -410l288 408q24 34 41 59t26 38.5t15.5 26t7.5 15t4 12t3 10.5l2 9h98v-9q-48 -48 -160 -208l-286 -412l434 -588q118 -161 166 -209v-8h-240l-2 8q-6 20 -22 44t-84 116l-383 518l-365 -518q-63 -90 -79.5 -116
t-22.5 -44l-2 -8h-99v8q47 47 162 209l367 522l-353 478q-118 160 -166 208v9z" />
    <glyph glyph-name="X" unicode="x" horiz-adv-x="1316" 
d="M20 1434h240l2 -9q8 -24 27 -52q19 -27 78 -107l303 -410l288 408q24 34 41 59t26 38.5t15.5 26t7.5 15t4 12t3 10.5l2 9h98v-9q-48 -48 -160 -208l-286 -412l434 -588q118 -161 166 -209v-8h-240l-2 8q-6 20 -22 44t-84 116l-383 518l-365 -518q-63 -90 -79.5 -116
t-22.5 -44l-2 -8h-99v8q47 47 162 209l367 522l-353 478q-118 160 -166 208v9z" />
    <glyph glyph-name="Y" unicode="Y" horiz-adv-x="1267" 
d="M154 1217q-97 141 -164 208v9h241l2 -9q6 -20 22 -45.5t77 -113.5l375 -537l376 537q70 99 83.5 120t19.5 39l2 9h100v-9q-53 -53 -164 -208l-364 -517v-505q0 -134 10 -187v-8h-195v8q11 58 11 187v405z" />
    <glyph glyph-name="Y" unicode="y" horiz-adv-x="1267" 
d="M154 1217q-97 141 -164 208v9h241l2 -9q6 -20 22 -45.5t77 -113.5l375 -537l376 537q70 99 83.5 120t19.5 39l2 9h100v-9q-53 -53 -164 -208l-364 -517v-505q0 -134 10 -187v-8h-195v8q11 58 11 187v405z" />
    <glyph glyph-name="Z" unicode="Z" horiz-adv-x="1167" 
d="M154 1434h931l-768 -1373h531q130 0 188 17h6v-78h-960l770 1372h-504q-141 0 -188 -16h-6v78z" />
    <glyph glyph-name="Z" unicode="z" horiz-adv-x="1167" 
d="M154 1434h931l-768 -1373h531q130 0 188 17h6v-78h-960l770 1372h-504q-141 0 -188 -16h-6v78z" />
    <glyph glyph-name="bracketleft" unicode="[" horiz-adv-x="716" 
d="M178 1638h416v-61h-242v-1720h242v-62h-416v1843z" />
    <glyph glyph-name="backslash" unicode="\" horiz-adv-x="1105" 
d="M127 1653l901 -1841l-55 -27l-901 1841z" />
    <glyph glyph-name="bracketright" unicode="]" horiz-adv-x="716" 
d="M539 1638v-1843h-416v62h242v1720h-242v61h416z" />
    <glyph glyph-name="asciicircum" unicode="^" horiz-adv-x="1228" 
d="M1038 1028l-45 -43l-379 406l-378 -402l-46 39l424 473z" />
    <glyph glyph-name="underscore" unicode="_" horiz-adv-x="1536" 
d="M92 61h1352v-61h-1352v61z" />
    <glyph glyph-name="braceleft" unicode="{" horiz-adv-x="962" 
d="M860 -190q-165 0 -251 43t-128 120q-26 49 -42.5 135.5t-23.5 165.5t-23.5 165.5t-43.5 135.5q-29 55 -73.5 81.5t-110.5 45.5v41q42 12 70.5 24t61 39t52.5 66q27 49 43.5 135.5t23.5 166t23.5 166t42.5 135.5q42 77 128 120t251 43v-51q-72 -8 -121.5 -33t-79.5 -81
q-33 -60 -50 -180l-34 -240t-49 -179q-31 -56 -80.5 -93.5t-107.5 -49.5v-16q57 -9 107 -47t81 -95q32 -59 49 -178.5t34 -239.5t50 -180q30 -56 79.5 -81t121.5 -33v-51z" />
    <glyph glyph-name="braceright" unicode="}" horiz-adv-x="962" 
d="M102 -139q72 8 121.5 33t79.5 81q33 60 50 180t34 239.5t49 178.5q31 57 81.5 95t107.5 47v16q-58 12 -108 49.5t-81 93.5q-32 59 -49 179l-34 240t-50 180q-30 56 -79.5 81t-121.5 33v51q165 0 251 -43t128 -120q26 -49 42.5 -135.5t23.5 -166t23.5 -166t43.5 -135.5
q29 -55 74.5 -82.5t110.5 -46.5v-41q-43 -12 -71 -23.5t-61 -38.5t-53 -65q-27 -49 -43.5 -135.5t-23.5 -165.5t-23.5 -165.5t-42.5 -135.5q-42 -77 -128 -120t-251 -43v51z" />
    <glyph glyph-name="asciitilde" unicode="~" horiz-adv-x="997" 
d="M473 674q128 -66 215 -66q96 0 178 76l-16 25q-38 -21 -68 -21q-21 0 -47.5 9.5t-50.5 22.5l-72 39t-88 46q-126 65 -215 65q-98 0 -178 -75l16 -25q38 21 68 21q21 0 47.5 -9.5t50.5 -22.5l72 -39t88 -46z" />
    <glyph glyph-name="section" unicode="&#xa7;" horiz-adv-x="1140" 
d="M913 1432l15 -238h-37q-78 215 -301 215q-80 0 -125 -46.5t-45 -129.5q0 -48 24 -97t49.5 -78.5t63.5 -64.5l289 -262q147 -136 147 -291q0 -99 -63 -181t-160 -116q129 -126 129 -266q0 -131 -98 -225t-238 -94q-234 0 -387 90l-14 239h37q57 -127 158.5 -197.5
t201.5 -70.5q82 0 131 51t49 129q0 134 -133 258l-284 260q-159 146 -162 301q-3 96 65 171t176 102q-145 142 -145 293q0 122 100.5 204t253.5 82q179 0 303 -38zM326 670q0 -118 137 -246l260 -236q108 35 108 172q0 72 -30.5 132t-100.5 124l-243 224q-131 -20 -131 -170
z" />
    <glyph glyph-name="guillemotleft" unicode="&#xab;" horiz-adv-x="1024" 
d="M225 727l316 371l47 -37l-264 -334l262 -332l-45 -39zM494 727l315 371l45 -37l-262 -334l260 -332l-43 -39z" />
    <glyph glyph-name="plusminus" unicode="&#xb1;" horiz-adv-x="942" 
d="M51 870h389v226h62v-226h389v-61h-389v-225h-62v225h-389v61zM51 399v62h840v-62h-840z" />
    <glyph glyph-name="guillemotright" unicode="&#xbb;" horiz-adv-x="1024" 
d="M799 727l-316 -371l-45 39l262 332l-264 334l47 37zM170 1061l45 37l315 -371l-315 -371l-43 39l260 332z" />
    <glyph glyph-name="Agrave" unicode="&#xc0;" horiz-adv-x="1228" 
d="M532 1434q94 0 158 43l447 -1262q52 -148 82 -207v-8h-203v8q0 52 -53 207l-58 162h-715l-61 -160q-14 -35 -24 -64.5t-16 -50t-9.5 -36t-4.5 -26t-1.5 -16t0 -10.5t0.5 -6v-8h-105v8q26 52 88 207zM215 438h670l-318 908zM416 1860l82 65l223 -328l-37 -32z" />
    <glyph glyph-name="Agrave" unicode="&#xe0;" horiz-adv-x="1228" 
d="M532 1434q94 0 158 43l447 -1262q52 -148 82 -207v-8h-203v8q0 52 -53 207l-58 162h-715l-61 -160q-14 -35 -24 -64.5t-16 -50t-9.5 -36t-4.5 -26t-1.5 -16t0 -10.5t0.5 -6v-8h-105v8q26 52 88 207zM215 438h670l-318 908zM416 1860l82 65l223 -328l-37 -32z" />
    <glyph glyph-name="Aacute" unicode="&#xc1;" horiz-adv-x="1228" 
d="M532 1434q94 0 158 43l447 -1262q52 -148 82 -207v-8h-203v8q0 52 -53 207l-58 162h-715l-61 -160q-14 -35 -24 -64.5t-16 -50t-9.5 -36t-4.5 -26t-1.5 -16t0 -10.5t0.5 -6v-8h-105v8q26 52 88 207zM215 438h670l-318 908zM469 1618l223 328l82 -66l-268 -295z" />
    <glyph glyph-name="Aacute" unicode="&#xe1;" horiz-adv-x="1228" 
d="M532 1434q94 0 158 43l447 -1262q52 -148 82 -207v-8h-203v8q0 52 -53 207l-58 162h-715l-61 -160q-14 -35 -24 -64.5t-16 -50t-9.5 -36t-4.5 -26t-1.5 -16t0 -10.5t0.5 -6v-8h-105v8q26 52 88 207zM215 438h670l-318 908zM469 1618l223 328l82 -66l-268 -295z" />
    <glyph glyph-name="Acircumflex" unicode="&#xc2;" horiz-adv-x="1228" 
d="M532 1434q94 0 158 43l447 -1262q52 -148 82 -207v-8h-203v8q0 52 -53 207l-58 162h-715l-61 -160q-14 -35 -24 -64.5t-16 -50t-9.5 -36t-4.5 -26t-1.5 -16t0 -10.5t0.5 -6v-8h-105v8q26 52 88 207zM215 438h670l-318 908zM332 1606l272 235l273 -235l-31 -41l-248 143
l-236 -143z" />
    <glyph glyph-name="Acircumflex" unicode="&#xe2;" horiz-adv-x="1228" 
d="M532 1434q94 0 158 43l447 -1262q52 -148 82 -207v-8h-203v8q0 52 -53 207l-58 162h-715l-61 -160q-14 -35 -24 -64.5t-16 -50t-9.5 -36t-4.5 -26t-1.5 -16t0 -10.5t0.5 -6v-8h-105v8q26 52 88 207zM215 438h670l-318 908zM332 1606l272 235l273 -235l-31 -41l-248 143
l-236 -143z" />
    <glyph glyph-name="Atilde" unicode="&#xc3;" horiz-adv-x="1228" 
d="M532 1434q94 0 158 43l447 -1262q52 -148 82 -207v-8h-203v8q0 52 -53 207l-58 162h-715l-61 -160q-14 -35 -24 -64.5t-16 -50t-9.5 -36t-4.5 -26t-1.5 -16t0 -10.5t0.5 -6v-8h-105v8q26 52 88 207zM215 438h670l-318 908zM274 1724q39 68 86 95.5t117 27.5q47 0 160 -37
q143 -55 203 -55q55 0 96 35l18 -18q-39 -68 -85.5 -95.5t-116.5 -27.5q-47 0 -160 37q-143 55 -203 55q-55 0 -96 -35z" />
    <glyph glyph-name="Atilde" unicode="&#xe3;" horiz-adv-x="1228" 
d="M532 1434q94 0 158 43l447 -1262q52 -148 82 -207v-8h-203v8q0 52 -53 207l-58 162h-715l-61 -160q-14 -35 -24 -64.5t-16 -50t-9.5 -36t-4.5 -26t-1.5 -16t0 -10.5t0.5 -6v-8h-105v8q26 52 88 207zM215 438h670l-318 908zM274 1724q39 68 86 95.5t117 27.5q47 0 160 -37
q143 -55 203 -55q55 0 96 35l18 -18q-39 -68 -85.5 -95.5t-116.5 -27.5q-47 0 -160 37q-143 55 -203 55q-55 0 -96 -35z" />
    <glyph glyph-name="Adieresis" unicode="&#xc4;" horiz-adv-x="1228" 
d="M532 1434q94 0 158 43l447 -1262q52 -148 82 -207v-8h-203v8q0 52 -53 207l-58 162h-715l-61 -160q-14 -35 -24 -64.5t-16 -50t-9.5 -36t-4.5 -26t-1.5 -16t0 -10.5t0.5 -6v-8h-105v8q26 52 88 207zM215 438h670l-318 908zM338 1741q0 39 26.5 65.5t65.5 26.5
q38 0 65 -27t27 -65q0 -39 -26.5 -65.5t-65.5 -26.5q-40 0 -66 26t-26 66zM686 1741q0 37 26.5 64.5t65.5 27.5q37 0 64.5 -27.5t27.5 -64.5q0 -39 -27.5 -65.5t-64.5 -26.5q-40 0 -66 26t-26 66z" />
    <glyph glyph-name="Adieresis" unicode="&#xe4;" horiz-adv-x="1228" 
d="M532 1434q94 0 158 43l447 -1262q52 -148 82 -207v-8h-203v8q0 52 -53 207l-58 162h-715l-61 -160q-14 -35 -24 -64.5t-16 -50t-9.5 -36t-4.5 -26t-1.5 -16t0 -10.5t0.5 -6v-8h-105v8q26 52 88 207zM215 438h670l-318 908zM338 1741q0 39 26.5 65.5t65.5 26.5
q38 0 65 -27t27 -65q0 -39 -26.5 -65.5t-65.5 -26.5q-40 0 -66 26t-26 66zM686 1741q0 37 26.5 64.5t65.5 27.5q37 0 64.5 -27.5t27.5 -64.5q0 -39 -27.5 -65.5t-64.5 -26.5q-40 0 -66 26t-26 66z" />
    <glyph glyph-name="Aring" unicode="&#xc5;" horiz-adv-x="1228" 
d="M532 1434q94 0 158 43l447 -1262q52 -148 82 -207v-8h-203v8q0 52 -53 207l-58 162h-715l-61 -160q-14 -35 -24 -64.5t-16 -50t-9.5 -36t-4.5 -26t-1.5 -16t0 -10.5t0.5 -6v-8h-105v8q26 52 88 207zM215 438h670l-318 908zM440 1780q0 71 46 117.5t118 46.5t118 -46.5
t46 -117.5q0 -72 -46 -118t-118 -46t-118 46t-46 118zM520 1780q0 -44 24 -74.5t60 -30.5t60 30.5t24 74.5q0 43 -24 73.5t-60 30.5t-60 -30.5t-24 -73.5z" />
    <glyph glyph-name="Aring" unicode="&#xe5;" horiz-adv-x="1228" 
d="M532 1434q94 0 158 43l447 -1262q52 -148 82 -207v-8h-203v8q0 52 -53 207l-58 162h-715l-61 -160q-14 -35 -24 -64.5t-16 -50t-9.5 -36t-4.5 -26t-1.5 -16t0 -10.5t0.5 -6v-8h-105v8q26 52 88 207zM215 438h670l-318 908zM440 1780q0 71 46 117.5t118 46.5t118 -46.5
t46 -117.5q0 -72 -46 -118t-118 -46t-118 46t-46 118zM520 1780q0 -44 24 -74.5t60 -30.5t60 30.5t24 74.5q0 43 -24 73.5t-60 30.5t-60 -30.5t-24 -73.5z" />
    <glyph glyph-name="AE" unicode="&#xc6;" horiz-adv-x="1751" 
d="M803 1434h842v-72h-7q-51 10 -188 10h-436v-375h471v-61h-471v-875h491q99 0 133.5 2.5t73.5 12.5h8v-76h-891v8q11 58 11 207v162h-564l-98 -176q-25 -44 -42 -78.5t-24.5 -54t-11 -31.5t-4.5 -19.5t-2 -9.5v-8h-104v8q22 27 112 187zM311 438h529v936z" />
    <glyph glyph-name="AE" unicode="&#xe6;" horiz-adv-x="1751" 
d="M803 1434h842v-72h-7q-51 10 -188 10h-436v-375h471v-61h-471v-875h491q99 0 133.5 2.5t73.5 12.5h8v-76h-891v8q11 58 11 207v162h-564l-98 -176q-25 -44 -42 -78.5t-24.5 -54t-11 -31.5t-4.5 -19.5t-2 -9.5v-8h-104v8q22 27 112 187zM311 438h529v936z" />
    <glyph glyph-name="Ccedilla" unicode="&#xc7;" horiz-adv-x="1488" 
d="M1386 1247v-203h-36q-28 119 -104 206t-177 129t-215 42q-90 0 -176.5 -26.5t-165 -83t-137.5 -136.5t-94 -196.5t-35 -253.5q0 -142 33 -259t89.5 -197t132 -135t158.5 -80t172 -25q182 0 329 101.5t190 275.5h36v-203q-105 -105 -248 -169t-304 -67l-46 -76
q68 -1 107 -32.5t39 -77.5q0 -66 -75 -117t-214 -51v41q89 1 136.5 34t47.5 76q0 35 -30.5 60t-85.5 26l-6 21l63 98q-148 8 -279.5 71t-225.5 163t-149 236t-55 286q0 156 59 296t159.5 241.5t240 161t295.5 59.5q167 0 315 -64t256 -172z" />
    <glyph glyph-name="Ccedilla" unicode="&#xe7;" horiz-adv-x="1488" 
d="M1386 1247v-203h-36q-28 119 -104 206t-177 129t-215 42q-90 0 -176.5 -26.5t-165 -83t-137.5 -136.5t-94 -196.5t-35 -253.5q0 -142 33 -259t89.5 -197t132 -135t158.5 -80t172 -25q182 0 329 101.5t190 275.5h36v-203q-105 -105 -248 -169t-304 -67l-46 -76
q68 -1 107 -32.5t39 -77.5q0 -66 -75 -117t-214 -51v41q89 1 136.5 34t47.5 76q0 35 -30.5 60t-85.5 26l-6 21l63 98q-148 8 -279.5 71t-225.5 163t-149 236t-55 286q0 156 59 296t159.5 241.5t240 161t295.5 59.5q167 0 315 -64t256 -172z" />
    <glyph glyph-name="Egrave" unicode="&#xc8;" horiz-adv-x="1116" 
d="M195 1434h815v-72h-6q-51 10 -189 10h-436v-375h471v-61h-471v-875h491q99 0 133.5 2.5t73.5 12.5h8v-76h-890v8q10 53 10 207v1004q0 153 -10 206v9zM432 1860l82 65l223 -328l-37 -32z" />
    <glyph glyph-name="Egrave" unicode="&#xe8;" horiz-adv-x="1116" 
d="M195 1434h815v-72h-6q-51 10 -189 10h-436v-375h471v-61h-471v-875h491q99 0 133.5 2.5t73.5 12.5h8v-76h-890v8q10 53 10 207v1004q0 153 -10 206v9zM432 1860l82 65l223 -328l-37 -32z" />
    <glyph glyph-name="Eacute" unicode="&#xc9;" horiz-adv-x="1116" 
d="M195 1434h815v-72h-6q-51 10 -189 10h-436v-375h471v-61h-471v-875h491q99 0 133.5 2.5t73.5 12.5h8v-76h-890v8q10 53 10 207v1004q0 153 -10 206v9zM485 1618l224 328l82 -66l-269 -295z" />
    <glyph glyph-name="Eacute" unicode="&#xe9;" horiz-adv-x="1116" 
d="M195 1434h815v-72h-6q-51 10 -189 10h-436v-375h471v-61h-471v-875h491q99 0 133.5 2.5t73.5 12.5h8v-76h-890v8q10 53 10 207v1004q0 153 -10 206v9zM485 1618l224 328l82 -66l-269 -295z" />
    <glyph glyph-name="Ecircumflex" unicode="&#xca;" horiz-adv-x="1116" 
d="M195 1434h815v-72h-6q-51 10 -189 10h-436v-375h471v-61h-471v-875h491q99 0 133.5 2.5t73.5 12.5h8v-76h-890v8q10 53 10 207v1004q0 153 -10 206v9zM348 1606l273 235l272 -235l-31 -41l-248 143l-235 -143z" />
    <glyph glyph-name="Ecircumflex" unicode="&#xea;" horiz-adv-x="1116" 
d="M195 1434h815v-72h-6q-51 10 -189 10h-436v-375h471v-61h-471v-875h491q99 0 133.5 2.5t73.5 12.5h8v-76h-890v8q10 53 10 207v1004q0 153 -10 206v9zM348 1606l273 235l272 -235l-31 -41l-248 143l-235 -143z" />
    <glyph glyph-name="Edieresis" unicode="&#xcb;" horiz-adv-x="1116" 
d="M195 1434h815v-72h-6q-51 10 -189 10h-436v-375h471v-61h-471v-875h491q99 0 133.5 2.5t73.5 12.5h8v-76h-890v8q10 53 10 207v1004q0 153 -10 206v9zM354 1741q0 39 26.5 65.5t65.5 26.5q38 0 65.5 -27t27.5 -65q0 -39 -27 -65.5t-66 -26.5q-40 0 -66 26t-26 66z
M702 1741q0 37 27 64.5t66 27.5q37 0 64.5 -27.5t27.5 -64.5q0 -39 -27.5 -65.5t-64.5 -26.5q-40 0 -66.5 26t-26.5 66z" />
    <glyph glyph-name="Edieresis" unicode="&#xeb;" horiz-adv-x="1116" 
d="M195 1434h815v-72h-6q-51 10 -189 10h-436v-375h471v-61h-471v-875h491q99 0 133.5 2.5t73.5 12.5h8v-76h-890v8q10 53 10 207v1004q0 153 -10 206v9zM354 1741q0 39 26.5 65.5t65.5 26.5q38 0 65.5 -27t27.5 -65q0 -39 -27 -65.5t-66 -26.5q-40 0 -66 26t-26 66z
M702 1741q0 37 27 64.5t66 27.5q37 0 64.5 -27.5t27.5 -64.5q0 -39 -27.5 -65.5t-64.5 -26.5q-40 0 -66.5 26t-26.5 66z" />
    <glyph glyph-name="Iacute" unicode="&#xcd;" horiz-adv-x="583" 
d="M195 1434h194v-9q-10 -53 -10 -206v-1004q0 -154 10 -207v-8h-194v8q10 53 10 207v1004q0 153 -10 206v9zM158 1618l223 328l82 -66l-268 -295z" />
    <glyph glyph-name="Iacute" unicode="&#xed;" horiz-adv-x="583" 
d="M195 1434h194v-9q-10 -53 -10 -206v-1004q0 -154 10 -207v-8h-194v8q10 53 10 207v1004q0 153 -10 206v9zM158 1618l223 328l82 -66l-268 -295z" />
    <glyph glyph-name="Icircumflex" unicode="&#xce;" horiz-adv-x="583" 
d="M195 1434h194v-9q-10 -53 -10 -206v-1004q0 -154 10 -207v-8h-194v8q10 53 10 207v1004q0 153 -10 206v9zM20 1606l273 235l272 -235l-30 -41l-248 143l-236 -143z" />
    <glyph glyph-name="Icircumflex" unicode="&#xee;" horiz-adv-x="583" 
d="M195 1434h194v-9q-10 -53 -10 -206v-1004q0 -154 10 -207v-8h-194v8q10 53 10 207v1004q0 153 -10 206v9zM20 1606l273 235l272 -235l-30 -41l-248 143l-236 -143z" />
    <glyph glyph-name="Idieresis" unicode="&#xcf;" horiz-adv-x="583" 
d="M195 1434h194v-9q-10 -53 -10 -206v-1004q0 -154 10 -207v-8h-194v8q10 53 10 207v1004q0 153 -10 206v9zM27 1741q0 39 26.5 65.5t65.5 26.5q38 0 65 -27t27 -65q0 -39 -26.5 -65.5t-65.5 -26.5q-40 0 -66 26t-26 66zM375 1741q0 37 26.5 64.5t65.5 27.5
q37 0 64.5 -27.5t27.5 -64.5q0 -39 -27.5 -65.5t-64.5 -26.5q-40 0 -66 26t-26 66z" />
    <glyph glyph-name="Idieresis" unicode="&#xef;" horiz-adv-x="583" 
d="M195 1434h194v-9q-10 -53 -10 -206v-1004q0 -154 10 -207v-8h-194v8q10 53 10 207v1004q0 153 -10 206v9zM27 1741q0 39 26.5 65.5t65.5 26.5q38 0 65 -27t27 -65q0 -39 -26.5 -65.5t-65.5 -26.5q-40 0 -66 26t-26 66zM375 1741q0 37 26.5 64.5t65.5 27.5
q37 0 64.5 -27.5t27.5 -64.5q0 -39 -27.5 -65.5t-64.5 -26.5q-40 0 -66 26t-26 66z" />
    <glyph glyph-name="Eth" unicode="&#xd0;" horiz-adv-x="1597" 
d="M766 1434q168 0 311 -53t244 -147t158 -227.5t57 -289.5q0 -197 -100.5 -361.5t-277.5 -260t-392 -95.5h-571v8q10 53 10 207v502h-205v61h205v441q0 153 -10 206v9h571zM379 61h369q115 0 214.5 38t171 103.5t123 152t76.5 185t25 201.5q0 177 -75 320t-215 227t-320 84
h-369v-594h399v-61h-399v-656z" />
    <glyph glyph-name="Eth" unicode="&#xf0;" horiz-adv-x="1597" 
d="M766 1434q168 0 311 -53t244 -147t158 -227.5t57 -289.5q0 -197 -100.5 -361.5t-277.5 -260t-392 -95.5h-571v8q10 53 10 207v502h-205v61h205v441q0 153 -10 206v9h571zM379 61h369q115 0 214.5 38t171 103.5t123 152t76.5 185t25 201.5q0 177 -75 320t-215 227t-320 84
h-369v-594h399v-61h-399v-656z" />
    <glyph glyph-name="Ntilde" unicode="&#xd1;" horiz-adv-x="1454" 
d="M195 1444h38l955 -1145v920q0 103 -2 135.5t-12 70.5v9h86v-9q-11 -58 -11 -206v-1035q0 -127 11 -194h-39l-955 1145v-920q0 -99 2.5 -133.5t12.5 -73.5v-8h-86v8q10 53 10 207v1034q0 134 -10 195zM377 1724q39 68 86 95.5t117 27.5q46 0 159 -37q143 -55 203 -55
q55 0 96 35l19 -18q-39 -68 -86 -95.5t-117 -27.5q-47 0 -160 37q-143 55 -202 55q-56 0 -97 -35z" />
    <glyph glyph-name="Ntilde" unicode="&#xf1;" horiz-adv-x="1454" 
d="M195 1444h38l955 -1145v920q0 103 -2 135.5t-12 70.5v9h86v-9q-11 -58 -11 -206v-1035q0 -127 11 -194h-39l-955 1145v-920q0 -99 2.5 -133.5t12.5 -73.5v-8h-86v8q10 53 10 207v1034q0 134 -10 195zM377 1724q39 68 86 95.5t117 27.5q46 0 159 -37q143 -55 203 -55
q55 0 96 35l19 -18q-39 -68 -86 -95.5t-117 -27.5q-47 0 -160 37q-143 55 -202 55q-56 0 -97 -35z" />
    <glyph glyph-name="Ograve" unicode="&#xd2;" horiz-adv-x="1638" 
d="M819 -33q-208 0 -382 101t-275 275t-101 382t101 382t275 275t382 101t382 -101t275 -275t101 -382t-101 -382t-275 -275t-382 -101zM246 725q0 -192 69.5 -351t195.5 -252t282 -93q171 0 309 93t214.5 252t76.5 351q0 193 -70 352t-196.5 251.5t-284.5 92.5
q-170 0 -307 -92.5t-213 -251.5t-76 -352zM649 1860l82 65l223 -328l-36 -32z" />
    <glyph glyph-name="Ograve" unicode="&#xf2;" horiz-adv-x="1638" 
d="M819 -33q-208 0 -382 101t-275 275t-101 382t101 382t275 275t382 101t382 -101t275 -275t101 -382t-101 -382t-275 -275t-382 -101zM246 725q0 -192 69.5 -351t195.5 -252t282 -93q171 0 309 93t214.5 252t76.5 351q0 193 -70 352t-196.5 251.5t-284.5 92.5
q-170 0 -307 -92.5t-213 -251.5t-76 -352zM649 1860l82 65l223 -328l-36 -32z" />
    <glyph glyph-name="Oacute" unicode="&#xd3;" horiz-adv-x="1638" 
d="M819 -33q-208 0 -382 101t-275 275t-101 382t101 382t275 275t382 101t382 -101t275 -275t101 -382t-101 -382t-275 -275t-382 -101zM246 725q0 -192 69.5 -351t195.5 -252t282 -93q171 0 309 93t214.5 252t76.5 351q0 193 -70 352t-196.5 251.5t-284.5 92.5
q-170 0 -307 -92.5t-213 -251.5t-76 -352zM702 1618l224 328l82 -66l-269 -295z" />
    <glyph glyph-name="Oacute" unicode="&#xf3;" horiz-adv-x="1638" 
d="M819 -33q-208 0 -382 101t-275 275t-101 382t101 382t275 275t382 101t382 -101t275 -275t101 -382t-101 -382t-275 -275t-382 -101zM246 725q0 -192 69.5 -351t195.5 -252t282 -93q171 0 309 93t214.5 252t76.5 351q0 193 -70 352t-196.5 251.5t-284.5 92.5
q-170 0 -307 -92.5t-213 -251.5t-76 -352zM702 1618l224 328l82 -66l-269 -295z" />
    <glyph glyph-name="Ocircumflex" unicode="&#xd4;" horiz-adv-x="1638" 
d="M819 -33q-208 0 -382 101t-275 275t-101 382t101 382t275 275t382 101t382 -101t275 -275t101 -382t-101 -382t-275 -275t-382 -101zM246 725q0 -192 69.5 -351t195.5 -252t282 -93q171 0 309 93t214.5 252t76.5 351q0 193 -70 352t-196.5 251.5t-284.5 92.5
q-170 0 -307 -92.5t-213 -251.5t-76 -352zM565 1606l273 235l272 -235l-31 -41l-248 143l-235 -143z" />
    <glyph glyph-name="Ocircumflex" unicode="&#xf4;" horiz-adv-x="1638" 
d="M819 -33q-208 0 -382 101t-275 275t-101 382t101 382t275 275t382 101t382 -101t275 -275t101 -382t-101 -382t-275 -275t-382 -101zM246 725q0 -192 69.5 -351t195.5 -252t282 -93q171 0 309 93t214.5 252t76.5 351q0 193 -70 352t-196.5 251.5t-284.5 92.5
q-170 0 -307 -92.5t-213 -251.5t-76 -352zM565 1606l273 235l272 -235l-31 -41l-248 143l-235 -143z" />
    <glyph glyph-name="Otilde" unicode="&#xd5;" horiz-adv-x="1638" 
d="M819 -33q-208 0 -382 101t-275 275t-101 382t101 382t275 275t382 101t382 -101t275 -275t101 -382t-101 -382t-275 -275t-382 -101zM246 725q0 -192 69.5 -351t195.5 -252t282 -93q171 0 309 93t214.5 252t76.5 351q0 193 -70 352t-196.5 251.5t-284.5 92.5
q-170 0 -307 -92.5t-213 -251.5t-76 -352zM487 1724q39 68 86 95.5t117 27.5q47 0 160 -37q143 -55 203 -55q55 0 96 35l18 -18q-39 -68 -85.5 -95.5t-116.5 -27.5q-47 0 -160 37q-143 55 -203 55q-55 0 -96 -35z" />
    <glyph glyph-name="Otilde" unicode="&#xf5;" horiz-adv-x="1638" 
d="M819 -33q-208 0 -382 101t-275 275t-101 382t101 382t275 275t382 101t382 -101t275 -275t101 -382t-101 -382t-275 -275t-382 -101zM246 725q0 -192 69.5 -351t195.5 -252t282 -93q171 0 309 93t214.5 252t76.5 351q0 193 -70 352t-196.5 251.5t-284.5 92.5
q-170 0 -307 -92.5t-213 -251.5t-76 -352zM487 1724q39 68 86 95.5t117 27.5q47 0 160 -37q143 -55 203 -55q55 0 96 35l18 -18q-39 -68 -85.5 -95.5t-116.5 -27.5q-47 0 -160 37q-143 55 -203 55q-55 0 -96 -35z" />
    <glyph glyph-name="Odieresis" unicode="&#xd6;" horiz-adv-x="1638" 
d="M819 -33q-208 0 -382 101t-275 275t-101 382t101 382t275 275t382 101t382 -101t275 -275t101 -382t-101 -382t-275 -275t-382 -101zM246 725q0 -192 69.5 -351t195.5 -252t282 -93q171 0 309 93t214.5 252t76.5 351q0 193 -70 352t-196.5 251.5t-284.5 92.5
q-170 0 -307 -92.5t-213 -251.5t-76 -352zM571 1741q0 39 26.5 65.5t66.5 26.5q38 0 65 -27t27 -65q0 -39 -26.5 -65.5t-65.5 -26.5q-40 0 -66.5 26t-26.5 66zM920 1741q0 37 26.5 64.5t65.5 27.5q37 0 64.5 -27.5t27.5 -64.5q0 -39 -27.5 -65.5t-64.5 -26.5q-40 0 -66 26
t-26 66z" />
    <glyph glyph-name="Odieresis" unicode="&#xf6;" horiz-adv-x="1638" 
d="M819 -33q-208 0 -382 101t-275 275t-101 382t101 382t275 275t382 101t382 -101t275 -275t101 -382t-101 -382t-275 -275t-382 -101zM246 725q0 -192 69.5 -351t195.5 -252t282 -93q171 0 309 93t214.5 252t76.5 351q0 193 -70 352t-196.5 251.5t-284.5 92.5
q-170 0 -307 -92.5t-213 -251.5t-76 -352zM571 1741q0 39 26.5 65.5t66.5 26.5q38 0 65 -27t27 -65q0 -39 -26.5 -65.5t-65.5 -26.5q-40 0 -66.5 26t-26.5 66zM920 1741q0 37 26.5 64.5t65.5 27.5q37 0 64.5 -27.5t27.5 -64.5q0 -39 -27.5 -65.5t-64.5 -26.5q-40 0 -66 26
t-26 66z" />
    <glyph glyph-name="Oslash" unicode="&#xd8;" horiz-adv-x="1638" 
d="M819 -33q-140 0 -264 47l-113 -229l-55 27l111 225q-197 92 -317 277t-120 411q0 208 101 382t275 275t382 101q185 0 346 -82l123 252l55 -27l-124 -256q164 -100 261 -271.5t97 -373.5q0 -208 -101 -382t-275 -275t-382 -101zM246 725q0 -201 76.5 -366t209.5 -253
l596 1221q-131 94 -286 94q-170 0 -307 -92.5t-213 -251.5t-76 -352zM586 76q92 -47 207 -47q171 0 309 93t214.5 252t76.5 351q0 171 -57 318t-158 243z" />
    <glyph glyph-name="Oslash" unicode="&#xf8;" horiz-adv-x="1638" 
d="M819 -33q-140 0 -264 47l-113 -229l-55 27l111 225q-197 92 -317 277t-120 411q0 208 101 382t275 275t382 101q185 0 346 -82l123 252l55 -27l-124 -256q164 -100 261 -271.5t97 -373.5q0 -208 -101 -382t-275 -275t-382 -101zM246 725q0 -201 76.5 -366t209.5 -253
l596 1221q-131 94 -286 94q-170 0 -307 -92.5t-213 -251.5t-76 -352zM586 76q92 -47 207 -47q171 0 309 93t214.5 252t76.5 351q0 171 -57 318t-158 243z" />
    <glyph glyph-name="Ugrave" unicode="&#xd9;" horiz-adv-x="1404" 
d="M174 1434h199v-9q-10 -39 -12.5 -73t-2.5 -133v-678q0 -211 109.5 -334t296.5 -123q185 0 295 118t110 314v703q0 103 -2 135.5t-12 70.5v9h86v-9q-10 -53 -10 -206v-674q0 -270 -144.5 -424t-379.5 -154t-379 154t-144 424v674q0 153 -10 206v9zM557 1860l82 65
l223 -328l-37 -32z" />
    <glyph glyph-name="Ugrave" unicode="&#xf9;" horiz-adv-x="1404" 
d="M174 1434h199v-9q-10 -39 -12.5 -73t-2.5 -133v-678q0 -211 109.5 -334t296.5 -123q185 0 295 118t110 314v703q0 103 -2 135.5t-12 70.5v9h86v-9q-10 -53 -10 -206v-674q0 -270 -144.5 -424t-379.5 -154t-379 154t-144 424v674q0 153 -10 206v9zM557 1860l82 65
l223 -328l-37 -32z" />
    <glyph glyph-name="Uacute" unicode="&#xda;" horiz-adv-x="1404" 
d="M174 1434h199v-9q-10 -39 -12.5 -73t-2.5 -133v-678q0 -211 109.5 -334t296.5 -123q185 0 295 118t110 314v703q0 103 -2 135.5t-12 70.5v9h86v-9q-10 -53 -10 -206v-674q0 -270 -144.5 -424t-379.5 -154t-379 154t-144 424v674q0 153 -10 206v9zM643 1618l223 328
l82 -66l-268 -295z" />
    <glyph glyph-name="Uacute" unicode="&#xfa;" horiz-adv-x="1404" 
d="M174 1434h199v-9q-10 -39 -12.5 -73t-2.5 -133v-678q0 -211 109.5 -334t296.5 -123q185 0 295 118t110 314v703q0 103 -2 135.5t-12 70.5v9h86v-9q-10 -53 -10 -206v-674q0 -270 -144.5 -424t-379.5 -154t-379 154t-144 424v674q0 153 -10 206v9zM643 1618l223 328
l82 -66l-268 -295z" />
    <glyph glyph-name="Ucircumflex" unicode="&#xdb;" horiz-adv-x="1404" 
d="M174 1434h199v-9q-10 -39 -12.5 -73t-2.5 -133v-678q0 -211 109.5 -334t296.5 -123q185 0 295 118t110 314v703q0 103 -2 135.5t-12 70.5v9h86v-9q-10 -53 -10 -206v-674q0 -270 -144.5 -424t-379.5 -154t-379 154t-144 424v674q0 153 -10 206v9zM492 1606l272 235
l272 -235l-30 -41l-248 143l-236 -143z" />
    <glyph glyph-name="Ucircumflex" unicode="&#xfb;" horiz-adv-x="1404" 
d="M174 1434h199v-9q-10 -39 -12.5 -73t-2.5 -133v-678q0 -211 109.5 -334t296.5 -123q185 0 295 118t110 314v703q0 103 -2 135.5t-12 70.5v9h86v-9q-10 -53 -10 -206v-674q0 -270 -144.5 -424t-379.5 -154t-379 154t-144 424v674q0 153 -10 206v9zM492 1606l272 235
l272 -235l-30 -41l-248 143l-236 -143z" />
    <glyph glyph-name="Udieresis" unicode="&#xdc;" horiz-adv-x="1404" 
d="M174 1434h199v-9q-10 -39 -12.5 -73t-2.5 -133v-678q0 -211 109.5 -334t296.5 -123q185 0 295 118t110 314v703q0 103 -2 135.5t-12 70.5v9h86v-9q-10 -53 -10 -206v-674q0 -270 -144.5 -424t-379.5 -154t-379 154t-144 424v674q0 153 -10 206v9zM498 1741
q0 39 26.5 65.5t65.5 26.5q38 0 65 -27t27 -65q0 -39 -26.5 -65.5t-65.5 -26.5q-40 0 -66 26t-26 66zM846 1741q0 37 26.5 64.5t65.5 27.5q37 0 64.5 -27.5t27.5 -64.5q0 -39 -27.5 -65.5t-64.5 -26.5q-40 0 -66 26t-26 66z" />
    <glyph glyph-name="Udieresis" unicode="&#xfc;" horiz-adv-x="1404" 
d="M174 1434h199v-9q-10 -39 -12.5 -73t-2.5 -133v-678q0 -211 109.5 -334t296.5 -123q185 0 295 118t110 314v703q0 103 -2 135.5t-12 70.5v9h86v-9q-10 -53 -10 -206v-674q0 -270 -144.5 -424t-379.5 -154t-379 154t-144 424v674q0 153 -10 206v9zM498 1741
q0 39 26.5 65.5t65.5 26.5q38 0 65 -27t27 -65q0 -39 -26.5 -65.5t-65.5 -26.5q-40 0 -66 26t-26 66zM846 1741q0 37 26.5 64.5t65.5 27.5q37 0 64.5 -27.5t27.5 -64.5q0 -39 -27.5 -65.5t-64.5 -26.5q-40 0 -66 26t-26 66z" />
    <glyph glyph-name="Yacute" unicode="&#xdd;" horiz-adv-x="1267" 
d="M154 1217q-97 141 -164 208v9h241l2 -9q6 -20 22 -45.5t77 -113.5l375 -537l376 537q70 99 83.5 120t19.5 39l2 9h100v-9q-53 -53 -164 -208l-364 -517v-505q0 -134 10 -187v-8h-195v8q11 58 11 187v405zM537 1618l223 328l82 -66l-269 -295z" />
    <glyph glyph-name="Yacute" unicode="&#xfd;" horiz-adv-x="1267" 
d="M154 1217q-97 141 -164 208v9h241l2 -9q6 -20 22 -45.5t77 -113.5l375 -537l376 537q70 99 83.5 120t19.5 39l2 9h100v-9q-53 -53 -164 -208l-364 -517v-505q0 -134 10 -187v-8h-195v8q11 58 11 187v405zM537 1618l223 328l82 -66l-269 -295z" />
    <glyph glyph-name="Thorn" unicode="&#xde;" horiz-adv-x="1251" 
d="M584 1219q281 0 433 -117.5t152 -335.5t-152 -335.5t-433 -117.5h-205v-98q0 -103 2 -136t12 -71v-8h-198v8q10 53 10 207v1004q0 99 -2.5 133t-12.5 73v9h199v-9q-10 -53 -10 -206h205zM379 375h184q100 0 180.5 32t131.5 86.5t78.5 124.5t27.5 148t-27.5 148
t-78.5 124.5t-131.5 86.5t-180.5 32h-184v-782z" />
    <glyph glyph-name="Thorn" unicode="&#xfe;" horiz-adv-x="1251" 
d="M584 1219q281 0 433 -117.5t152 -335.5t-152 -335.5t-433 -117.5h-205v-98q0 -103 2 -136t12 -71v-8h-198v8q10 53 10 207v1004q0 99 -2.5 133t-12.5 73v9h199v-9q-10 -53 -10 -206h205zM379 375h184q100 0 180.5 32t131.5 86.5t78.5 124.5t27.5 148t-27.5 148
t-78.5 124.5t-131.5 86.5t-180.5 32h-184v-782z" />
    <glyph glyph-name="uni1E9E" unicode="&#xdf;" horiz-adv-x="1306" 
d="M559 266q51 -116 135 -176.5t183 -60.5q108 0 165.5 61t57.5 158q0 71 -33 148.5t-96 144.5l-350 372v33h4q148 1 224.5 69t76.5 173q0 101 -76.5 165t-196.5 64q-57 0 -108.5 -20.5t-94 -61.5t-67.5 -112.5t-25 -165.5v-842q0 -149 11 -207v-8h-195v8q10 53 10 207v797
q0 97 27 176.5t72 132.5t107 89.5t129 52.5t140 16q189 0 310 -84.5t121 -216.5q0 -94 -56.5 -171t-159.5 -116l222 -229q170 -176 170 -363q0 -144 -104.5 -238t-284.5 -94q-91 0 -186 27.5t-163 79.5l-6 192h37z" />
    <glyph glyph-name="uni1E9E" unicode="&#x1e9e;" horiz-adv-x="1306" 
d="M559 266q51 -116 135 -176.5t183 -60.5q108 0 165.5 61t57.5 158q0 71 -33 148.5t-96 144.5l-350 372v33h4q148 1 224.5 69t76.5 173q0 101 -76.5 165t-196.5 64q-57 0 -108.5 -20.5t-94 -61.5t-67.5 -112.5t-25 -165.5v-842q0 -149 11 -207v-8h-195v8q10 53 10 207v797
q0 97 27 176.5t72 132.5t107 89.5t129 52.5t140 16q189 0 310 -84.5t121 -216.5q0 -94 -56.5 -171t-159.5 -116l222 -229q170 -176 170 -363q0 -144 -104.5 -238t-284.5 -94q-91 0 -186 27.5t-163 79.5l-6 192h37z" />
    <glyph glyph-name="Amacron" unicode="&#x100;" horiz-adv-x="1228" 
d="M532 1434q94 0 158 43l447 -1262q52 -148 82 -207v-8h-203v8q0 52 -53 207l-58 162h-715l-61 -160q-14 -35 -24 -64.5t-16 -50t-9.5 -36t-4.5 -26t-1.5 -16t0 -10.5t0.5 -6v-8h-105v8q26 52 88 207zM215 438h670l-318 908zM215 1679v84h778v-84h-778z" />
    <glyph glyph-name="Amacron" unicode="&#x101;" horiz-adv-x="1228" 
d="M532 1434q94 0 158 43l447 -1262q52 -148 82 -207v-8h-203v8q0 52 -53 207l-58 162h-715l-61 -160q-14 -35 -24 -64.5t-16 -50t-9.5 -36t-4.5 -26t-1.5 -16t0 -10.5t0.5 -6v-8h-105v8q26 52 88 207zM215 438h670l-318 908zM215 1679v84h778v-84h-778z" />
    <glyph glyph-name="Abreve" unicode="&#x102;" horiz-adv-x="1228" 
d="M532 1434q94 0 158 43l447 -1262q52 -148 82 -207v-8h-203v8q0 52 -53 207l-58 162h-715l-61 -160q-14 -35 -24 -64.5t-16 -50t-9.5 -36t-4.5 -26t-1.5 -16t0 -10.5t0.5 -6v-8h-105v8q26 52 88 207zM215 438h670l-318 908zM309 1868h88v-2q0 -89 56 -148q53 -59 151 -59
q89 0 146 53.5t61 155.5h88q-5 -120 -86 -195.5t-209 -75.5t-209 75.5t-86 195.5z" />
    <glyph glyph-name="Abreve" unicode="&#x103;" horiz-adv-x="1228" 
d="M532 1434q94 0 158 43l447 -1262q52 -148 82 -207v-8h-203v8q0 52 -53 207l-58 162h-715l-61 -160q-14 -35 -24 -64.5t-16 -50t-9.5 -36t-4.5 -26t-1.5 -16t0 -10.5t0.5 -6v-8h-105v8q26 52 88 207zM215 438h670l-318 908zM309 1868h88v-2q0 -89 56 -148q53 -59 151 -59
q89 0 146 53.5t61 155.5h88q-5 -120 -86 -195.5t-209 -75.5t-209 75.5t-86 195.5z" />
    <glyph glyph-name="Aogonek" unicode="&#x104;" horiz-adv-x="1228" 
d="M532 1434q94 0 158 43l447 -1262q52 -148 82 -207v-8h-193q-102 -51 -148.5 -96t-46.5 -92q0 -43 33.5 -71t91.5 -28q26 0 56 6l12 -32q-93 -52 -172 -52q-66 0 -105.5 35.5t-39.5 89.5q0 72 76 141.5t233 127.5q-11 61 -53 186l-58 162h-715l-61 -160q-14 -35 -24 -64.5
t-16 -50t-9.5 -36t-4.5 -26t-1.5 -16t0 -10.5t0.5 -6v-8h-105v8q26 52 88 207zM215 438h670l-318 908z" />
    <glyph glyph-name="Aogonek" unicode="&#x105;" horiz-adv-x="1228" 
d="M532 1434q94 0 158 43l447 -1262q52 -148 82 -207v-8h-193q-102 -51 -148.5 -96t-46.5 -92q0 -43 33.5 -71t91.5 -28q26 0 56 6l12 -32q-93 -52 -172 -52q-66 0 -105.5 35.5t-39.5 89.5q0 72 76 141.5t233 127.5q-11 61 -53 186l-58 162h-715l-61 -160q-14 -35 -24 -64.5
t-16 -50t-9.5 -36t-4.5 -26t-1.5 -16t0 -10.5t0.5 -6v-8h-105v8q26 52 88 207zM215 438h670l-318 908z" />
    <glyph glyph-name="Cacute" unicode="&#x106;" horiz-adv-x="1488" 
d="M1386 1247v-203h-36q-28 119 -104 206t-177 129t-215 42q-90 0 -176.5 -26.5t-165 -83t-137.5 -136.5t-94 -196.5t-35 -253.5q0 -142 33 -259t89.5 -197t132 -135t158.5 -80t172 -25q182 0 329 101.5t190 275.5h36v-203q-108 -108 -256 -172t-315 -64q-156 0 -295.5 59.5
t-240 161t-159.5 241.5t-59 296t59 296t159.5 241.5t240 161t295.5 59.5q167 0 315 -64t256 -172zM682 1618l223 328l82 -66l-268 -295z" />
    <glyph glyph-name="Cacute" unicode="&#x107;" horiz-adv-x="1488" 
d="M1386 1247v-203h-36q-28 119 -104 206t-177 129t-215 42q-90 0 -176.5 -26.5t-165 -83t-137.5 -136.5t-94 -196.5t-35 -253.5q0 -142 33 -259t89.5 -197t132 -135t158.5 -80t172 -25q182 0 329 101.5t190 275.5h36v-203q-108 -108 -256 -172t-315 -64q-156 0 -295.5 59.5
t-240 161t-159.5 241.5t-59 296t59 296t159.5 241.5t240 161t295.5 59.5q167 0 315 -64t256 -172zM682 1618l223 328l82 -66l-268 -295z" />
    <glyph glyph-name="Cdotaccent" unicode="&#x10a;" horiz-adv-x="1488" 
d="M1386 1247v-203h-36q-28 119 -104 206t-177 129t-215 42q-90 0 -176.5 -26.5t-165 -83t-137.5 -136.5t-94 -196.5t-35 -253.5q0 -142 33 -259t89.5 -197t132 -135t158.5 -80t172 -25q182 0 329 101.5t190 275.5h36v-203q-108 -108 -256 -172t-315 -64q-156 0 -295.5 59.5
t-240 161t-159.5 241.5t-59 296t59 296t159.5 241.5t240 161t295.5 59.5q167 0 315 -64t256 -172zM715 1741q0 43 29.5 72.5t72.5 29.5q42 0 72.5 -30t30.5 -72t-30.5 -72.5t-72.5 -30.5q-43 0 -72.5 30t-29.5 73z" />
    <glyph glyph-name="Cdotaccent" unicode="&#x10b;" horiz-adv-x="1488" 
d="M1386 1247v-203h-36q-28 119 -104 206t-177 129t-215 42q-90 0 -176.5 -26.5t-165 -83t-137.5 -136.5t-94 -196.5t-35 -253.5q0 -142 33 -259t89.5 -197t132 -135t158.5 -80t172 -25q182 0 329 101.5t190 275.5h36v-203q-108 -108 -256 -172t-315 -64q-156 0 -295.5 59.5
t-240 161t-159.5 241.5t-59 296t59 296t159.5 241.5t240 161t295.5 59.5q167 0 315 -64t256 -172zM715 1741q0 43 29.5 72.5t72.5 29.5q42 0 72.5 -30t30.5 -72t-30.5 -72.5t-72.5 -30.5q-43 0 -72.5 30t-29.5 73z" />
    <glyph glyph-name="Ccaron" unicode="&#x10c;" horiz-adv-x="1488" 
d="M1386 1247v-203h-36q-28 119 -104 206t-177 129t-215 42q-90 0 -176.5 -26.5t-165 -83t-137.5 -136.5t-94 -196.5t-35 -253.5q0 -142 33 -259t89.5 -197t132 -135t158.5 -80t172 -25q182 0 329 101.5t190 275.5h36v-203q-108 -108 -256 -172t-315 -64q-156 0 -295.5 59.5
t-240 161t-159.5 241.5t-59 296t59 296t159.5 241.5t240 161t295.5 59.5q167 0 315 -64t256 -172zM545 1831l30 41l248 -143l236 143l31 -41l-273 -236z" />
    <glyph glyph-name="Ccaron" unicode="&#x10d;" horiz-adv-x="1488" 
d="M1386 1247v-203h-36q-28 119 -104 206t-177 129t-215 42q-90 0 -176.5 -26.5t-165 -83t-137.5 -136.5t-94 -196.5t-35 -253.5q0 -142 33 -259t89.5 -197t132 -135t158.5 -80t172 -25q182 0 329 101.5t190 275.5h36v-203q-108 -108 -256 -172t-315 -64q-156 0 -295.5 59.5
t-240 161t-159.5 241.5t-59 296t59 296t159.5 241.5t240 161t295.5 59.5q167 0 315 -64t256 -172zM545 1831l30 41l248 -143l236 143l31 -41l-273 -236z" />
    <glyph glyph-name="Dcaron" unicode="&#x10e;" horiz-adv-x="1597" 
d="M766 1434q168 0 311 -53t244 -147t158 -227.5t57 -289.5q0 -197 -100.5 -361.5t-277.5 -260t-392 -95.5h-571v8q10 53 10 207v1004q0 153 -10 206v9h571zM379 61h369q115 0 214.5 38t171 103.5t123 152t76.5 185t25 201.5q0 177 -75 320t-215 227t-320 84h-369v-1311z
M528 1831l31 41l248 -143l235 143l31 -41l-272 -236z" />
    <glyph glyph-name="Dcaron" unicode="&#x10f;" horiz-adv-x="1597" 
d="M766 1434q168 0 311 -53t244 -147t158 -227.5t57 -289.5q0 -197 -100.5 -361.5t-277.5 -260t-392 -95.5h-571v8q10 53 10 207v1004q0 153 -10 206v9h571zM379 61h369q115 0 214.5 38t171 103.5t123 152t76.5 185t25 201.5q0 177 -75 320t-215 227t-320 84h-369v-1311z
M528 1831l31 41l248 -143l235 143l31 -41l-272 -236z" />
    <glyph glyph-name="Dcroat" unicode="&#x110;" horiz-adv-x="1597" 
d="M766 1434q168 0 311 -53t244 -147t158 -227.5t57 -289.5q0 -197 -100.5 -361.5t-277.5 -260t-392 -95.5h-571v8q10 53 10 207v502h-205v61h205v441q0 153 -10 206v9h571zM379 61h369q115 0 214.5 38t171 103.5t123 152t76.5 185t25 201.5q0 177 -75 320t-215 227t-320 84
h-369v-594h399v-61h-399v-656z" />
    <glyph glyph-name="Dcroat" unicode="&#x111;" horiz-adv-x="1597" 
d="M766 1434q168 0 311 -53t244 -147t158 -227.5t57 -289.5q0 -197 -100.5 -361.5t-277.5 -260t-392 -95.5h-571v8q10 53 10 207v502h-205v61h205v441q0 153 -10 206v9h571zM379 61h369q115 0 214.5 38t171 103.5t123 152t76.5 185t25 201.5q0 177 -75 320t-215 227t-320 84
h-369v-594h399v-61h-399v-656z" />
    <glyph glyph-name="Emacron" unicode="&#x112;" horiz-adv-x="1116" 
d="M195 1434h815v-72h-6q-51 10 -189 10h-436v-375h471v-61h-471v-875h491q99 0 133.5 2.5t73.5 12.5h8v-76h-890v8q10 53 10 207v1004q0 153 -10 206v9zM215 1679v84h778v-84h-778z" />
    <glyph glyph-name="Emacron" unicode="&#x113;" horiz-adv-x="1116" 
d="M195 1434h815v-72h-6q-51 10 -189 10h-436v-375h471v-61h-471v-875h491q99 0 133.5 2.5t73.5 12.5h8v-76h-890v8q10 53 10 207v1004q0 153 -10 206v9zM215 1679v84h778v-84h-778z" />
    <glyph glyph-name="Edotaccent" unicode="&#x116;" horiz-adv-x="1116" 
d="M195 1434h815v-72h-6q-51 10 -189 10h-436v-375h471v-61h-471v-875h491q99 0 133.5 2.5t73.5 12.5h8v-76h-890v8q10 53 10 207v1004q0 153 -10 206v9zM518 1741q0 43 30 72.5t73 29.5q42 0 72 -30t30 -72q0 -43 -30.5 -73t-71.5 -30q-43 0 -73 30t-30 73z" />
    <glyph glyph-name="Edotaccent" unicode="&#x117;" horiz-adv-x="1116" 
d="M195 1434h815v-72h-6q-51 10 -189 10h-436v-375h471v-61h-471v-875h491q99 0 133.5 2.5t73.5 12.5h8v-76h-890v8q10 53 10 207v1004q0 153 -10 206v9zM518 1741q0 43 30 72.5t73 29.5q42 0 72 -30t30 -72q0 -43 -30.5 -73t-71.5 -30q-43 0 -73 30t-30 73z" />
    <glyph glyph-name="Eogonek" unicode="&#x118;" horiz-adv-x="1116" 
d="M195 1434h815v-72h-6q-51 10 -189 10h-436v-375h471v-61h-471v-875h491q99 0 133.5 2.5t73.5 12.5h8v-76q-102 -51 -148 -95.5t-46 -92.5q0 -43 33.5 -71t91.5 -28q25 0 55 6l12 -32q-93 -52 -172 -52q-66 0 -105.5 35.5t-39.5 89.5q0 134 235 240h-806v8q10 53 10 207
v1004q0 153 -10 206v9z" />
    <glyph glyph-name="Eogonek" unicode="&#x119;" horiz-adv-x="1116" 
d="M195 1434h815v-72h-6q-51 10 -189 10h-436v-375h471v-61h-471v-875h491q99 0 133.5 2.5t73.5 12.5h8v-76q-102 -51 -148 -95.5t-46 -92.5q0 -43 33.5 -71t91.5 -28q25 0 55 6l12 -32q-93 -52 -172 -52q-66 0 -105.5 35.5t-39.5 89.5q0 134 235 240h-806v8q10 53 10 207
v1004q0 153 -10 206v9z" />
    <glyph glyph-name="Ecaron" unicode="&#x11a;" horiz-adv-x="1116" 
d="M195 1434h815v-72h-6q-51 10 -189 10h-436v-375h471v-61h-471v-875h491q99 0 133.5 2.5t73.5 12.5h8v-76h-890v8q10 53 10 207v1004q0 153 -10 206v9zM348 1831l31 41l248 -143l235 143l31 -41l-272 -236z" />
    <glyph glyph-name="Ecaron" unicode="&#x11b;" horiz-adv-x="1116" 
d="M195 1434h815v-72h-6q-51 10 -189 10h-436v-375h471v-61h-471v-875h491q99 0 133.5 2.5t73.5 12.5h8v-76h-890v8q10 53 10 207v1004q0 153 -10 206v9zM348 1831l31 41l248 -143l235 143l31 -41l-272 -236z" />
    <glyph glyph-name="Gbreve" unicode="&#x11e;" horiz-adv-x="1550" 
d="M1386 1247v-203h-36q-28 119 -104 206t-177 129t-215 42q-90 0 -176.5 -26.5t-165 -83t-137.5 -136.5t-94 -196.5t-35 -253.5q0 -142 33 -259t89.5 -197t132 -135t158.5 -80t172 -25q111 0 210 42.5t171 125.5v344q0 122 -14 186v8h199v-8q-11 -58 -11 -186v-322
q-107 -117 -256 -184.5t-315 -67.5q-156 0 -295.5 59.5t-240 161t-159.5 241.5t-59 296t59 296t159.5 241.5t240 161t295.5 59.5q167 0 315 -64t256 -172zM532 1868h89v-2q0 -90 55 -148q53 -59 151 -59q89 0 146 53.5t61 155.5h88q-5 -120 -86 -195.5t-209 -75.5t-209 75.5
t-86 195.5z" />
    <glyph glyph-name="Gbreve" unicode="&#x11f;" horiz-adv-x="1550" 
d="M1386 1247v-203h-36q-28 119 -104 206t-177 129t-215 42q-90 0 -176.5 -26.5t-165 -83t-137.5 -136.5t-94 -196.5t-35 -253.5q0 -142 33 -259t89.5 -197t132 -135t158.5 -80t172 -25q111 0 210 42.5t171 125.5v344q0 122 -14 186v8h199v-8q-11 -58 -11 -186v-322
q-107 -117 -256 -184.5t-315 -67.5q-156 0 -295.5 59.5t-240 161t-159.5 241.5t-59 296t59 296t159.5 241.5t240 161t295.5 59.5q167 0 315 -64t256 -172zM532 1868h89v-2q0 -90 55 -148q53 -59 151 -59q89 0 146 53.5t61 155.5h88q-5 -120 -86 -195.5t-209 -75.5t-209 75.5
t-86 195.5z" />
    <glyph glyph-name="Gdotaccent" unicode="&#x120;" horiz-adv-x="1550" 
d="M1386 1247v-203h-36q-28 119 -104 206t-177 129t-215 42q-90 0 -176.5 -26.5t-165 -83t-137.5 -136.5t-94 -196.5t-35 -253.5q0 -142 33 -259t89.5 -197t132 -135t158.5 -80t172 -25q111 0 210 42.5t171 125.5v344q0 122 -14 186v8h199v-8q-11 -58 -11 -186v-322
q-107 -117 -256 -184.5t-315 -67.5q-156 0 -295.5 59.5t-240 161t-159.5 241.5t-59 296t59 296t159.5 241.5t240 161t295.5 59.5q167 0 315 -64t256 -172zM725 1741q0 43 29.5 72.5t72.5 29.5q42 0 72.5 -30t30.5 -72t-30.5 -72.5t-72.5 -30.5q-43 0 -72.5 30t-29.5 73z" />
    <glyph glyph-name="Gdotaccent" unicode="&#x121;" horiz-adv-x="1550" 
d="M1386 1247v-203h-36q-28 119 -104 206t-177 129t-215 42q-90 0 -176.5 -26.5t-165 -83t-137.5 -136.5t-94 -196.5t-35 -253.5q0 -142 33 -259t89.5 -197t132 -135t158.5 -80t172 -25q111 0 210 42.5t171 125.5v344q0 122 -14 186v8h199v-8q-11 -58 -11 -186v-322
q-107 -117 -256 -184.5t-315 -67.5q-156 0 -295.5 59.5t-240 161t-159.5 241.5t-59 296t59 296t159.5 241.5t240 161t295.5 59.5q167 0 315 -64t256 -172zM725 1741q0 43 29.5 72.5t72.5 29.5q42 0 72.5 -30t30.5 -72t-30.5 -72.5t-72.5 -30.5q-43 0 -72.5 30t-29.5 73z" />
    <glyph glyph-name="uni0122" unicode="&#x122;" horiz-adv-x="1550" 
d="M1386 1247v-203h-36q-28 119 -104 206t-177 129t-215 42q-90 0 -176.5 -26.5t-165 -83t-137.5 -136.5t-94 -196.5t-35 -253.5q0 -142 33 -259t89.5 -197t132 -135t158.5 -80t172 -25q111 0 210 42.5t171 125.5v344q0 122 -14 186v8h199v-8q-11 -58 -11 -186v-322
q-107 -117 -256 -184.5t-315 -67.5q-156 0 -295.5 59.5t-240 161t-159.5 241.5t-59 296t59 296t159.5 241.5t240 161t295.5 59.5q167 0 315 -64t256 -172zM700 -502q109 134 88 167q-3 6 -10 7q-76 16 -76 88q0 37 27 63.5t64 26.5q39 0 64.5 -29t25.5 -77q0 -53 -33 -113.5
t-117 -154.5z" />
    <glyph glyph-name="uni0122" unicode="&#x123;" horiz-adv-x="1550" 
d="M1386 1247v-203h-36q-28 119 -104 206t-177 129t-215 42q-90 0 -176.5 -26.5t-165 -83t-137.5 -136.5t-94 -196.5t-35 -253.5q0 -142 33 -259t89.5 -197t132 -135t158.5 -80t172 -25q111 0 210 42.5t171 125.5v344q0 122 -14 186v8h199v-8q-11 -58 -11 -186v-322
q-107 -117 -256 -184.5t-315 -67.5q-156 0 -295.5 59.5t-240 161t-159.5 241.5t-59 296t59 296t159.5 241.5t240 161t295.5 59.5q167 0 315 -64t256 -172zM700 -502q109 134 88 167q-3 6 -10 7q-76 16 -76 88q0 37 27 63.5t64 26.5q39 0 64.5 -29t25.5 -77q0 -53 -33 -113.5
t-117 -154.5z" />
    <glyph glyph-name="Imacron" unicode="&#x12a;" horiz-adv-x="583" 
d="M195 1434h194v-9q-10 -53 -10 -206v-1004q0 -154 10 -207v-8h-194v8q10 53 10 207v1004q0 153 -10 206v9zM-96 1679v84h778v-84h-778z" />
    <glyph glyph-name="Imacron" unicode="&#x12b;" horiz-adv-x="583" 
d="M195 1434h194v-9q-10 -53 -10 -206v-1004q0 -154 10 -207v-8h-194v8q10 53 10 207v1004q0 153 -10 206v9zM-96 1679v84h778v-84h-778z" />
    <glyph glyph-name="Idotaccent" unicode="&#x130;" horiz-adv-x="583" 
d="M195 1434h194v-9q-10 -53 -10 -206v-1004q0 -154 10 -207v-8h-194v8q10 53 10 207v1004q0 153 -10 206v9zM190 1741q0 43 30 72.5t73 29.5q42 0 72 -30t30 -72q0 -43 -30.5 -73t-71.5 -30q-43 0 -73 30t-30 73z" />
    <glyph glyph-name="IJ" unicode="&#x132;" horiz-adv-x="1208" 
d="M195 1434h194v-9q-10 -53 -10 -206v-1004q0 -154 10 -207v-8h-194v8q10 53 10 207v1004q0 153 -10 206v9zM481 -354v37q164 40 256 186.5t92 402.5v947q0 153 -10 206v9h195v-9q-10 -53 -10 -206v-971q0 -269 -141.5 -421t-381.5 -181z" />
    <glyph glyph-name="IJ" unicode="&#x133;" horiz-adv-x="1208" 
d="M195 1434h194v-9q-10 -53 -10 -206v-1004q0 -154 10 -207v-8h-194v8q10 53 10 207v1004q0 153 -10 206v9zM481 -354v37q164 40 256 186.5t92 402.5v947q0 153 -10 206v9h195v-9q-10 -53 -10 -206v-971q0 -269 -141.5 -421t-381.5 -181z" />
    <glyph glyph-name="uni0136" unicode="&#x136;" horiz-adv-x="1288" 
d="M195 1434h198v-9q-10 -38 -12 -70.5t-2 -135.5v-414l442 414q98 90 140.5 135t54.5 71l4 9h117v-7q-54 -38 -232 -208l-211 -201l387 -658q172 -293 269 -333l-2 -31q-58 -7 -110.5 5.5t-92.5 37t-79 65t-66.5 79.5t-57.5 91l-375 629l-188 -176v-512q0 -103 2 -136
t12 -71v-8h-198v8q10 53 10 207v1004q0 153 -10 206v9zM618 -481q109 134 88 167q-3 6 -10 7q-75 15 -75 88q0 37 26.5 63.5t63.5 26.5q39 0 64.5 -29t25.5 -78q0 -53 -33 -113.5t-117 -154.5z" />
    <glyph glyph-name="uni0136" unicode="&#x137;" horiz-adv-x="1288" 
d="M195 1434h198v-9q-10 -38 -12 -70.5t-2 -135.5v-414l442 414q98 90 140.5 135t54.5 71l4 9h117v-7q-54 -38 -232 -208l-211 -201l387 -658q172 -293 269 -333l-2 -31q-58 -7 -110.5 5.5t-92.5 37t-79 65t-66.5 79.5t-57.5 91l-375 629l-188 -176v-512q0 -103 2 -136
t12 -71v-8h-198v8q10 53 10 207v1004q0 153 -10 206v9zM618 -481q109 134 88 167q-3 6 -10 7q-75 15 -75 88q0 37 26.5 63.5t63.5 26.5q39 0 64.5 -29t25.5 -78q0 -53 -33 -113.5t-117 -154.5z" />
    <glyph glyph-name="Lacute" unicode="&#x139;" horiz-adv-x="921" 
d="M195 1434h198v-9q-10 -38 -12 -70.5t-2 -135.5v-1158h348q99 0 133.5 2.5t73.5 12.5h8v-76h-747v8q10 53 10 207v1004q0 153 -10 206v9zM162 1618l223 328l82 -66l-268 -295z" />
    <glyph glyph-name="Lacute" unicode="&#x13a;" horiz-adv-x="921" 
d="M195 1434h198v-9q-10 -38 -12 -70.5t-2 -135.5v-1158h348q99 0 133.5 2.5t73.5 12.5h8v-76h-747v8q10 53 10 207v1004q0 153 -10 206v9zM162 1618l223 328l82 -66l-268 -295z" />
    <glyph glyph-name="uni013B" unicode="&#x13b;" horiz-adv-x="921" 
d="M195 1434h198v-9q-10 -38 -12 -70.5t-2 -135.5v-1158h348q99 0 133.5 2.5t73.5 12.5h8v-76h-747v8q10 53 10 207v1004q0 153 -10 206v9zM473 -492q107 132 89 167q-3 6 -11 8q-76 16 -76 88q0 37 26.5 63.5t63.5 26.5q39 0 64.5 -29t25.5 -78q0 -53 -32.5 -113.5
t-116.5 -154.5z" />
    <glyph glyph-name="uni013B" unicode="&#x13c;" horiz-adv-x="921" 
d="M195 1434h198v-9q-10 -38 -12 -70.5t-2 -135.5v-1158h348q99 0 133.5 2.5t73.5 12.5h8v-76h-747v8q10 53 10 207v1004q0 153 -10 206v9zM473 -492q107 132 89 167q-3 6 -11 8q-76 16 -76 88q0 37 26.5 63.5t63.5 26.5q39 0 64.5 -29t25.5 -78q0 -53 -32.5 -113.5
t-116.5 -154.5z" />
    <glyph glyph-name="Lcaron" unicode="&#x13d;" horiz-adv-x="1013" 
d="M195 1434h198v-9q-10 -38 -12 -70.5t-2 -135.5v-1158h348q99 0 133.5 2.5t73.5 12.5h8v-76h-747v8q10 53 10 207v1004q0 153 -10 206v9zM741 1094l29 350l104 -17l-75 -344z" />
    <glyph glyph-name="Lcaron" unicode="&#x13e;" horiz-adv-x="1013" 
d="M195 1434h198v-9q-10 -38 -12 -70.5t-2 -135.5v-1158h348q99 0 133.5 2.5t73.5 12.5h8v-76h-747v8q10 53 10 207v1004q0 153 -10 206v9zM741 1094l29 350l104 -17l-75 -344z" />
    <glyph glyph-name="Lslash" unicode="&#x141;" horiz-adv-x="921" 
d="M195 1434h198v-9q-10 -38 -12 -70.5t-2 -135.5v-385l532 307l31 -54l-563 -325v-701h348q99 0 133.5 2.5t73.5 12.5h8v-76h-747v8q10 53 10 207v447l-185 -107l-30 53l215 125v486q0 153 -10 206v9z" />
    <glyph glyph-name="Lslash" unicode="&#x142;" horiz-adv-x="921" 
d="M195 1434h198v-9q-10 -38 -12 -70.5t-2 -135.5v-385l532 307l31 -54l-563 -325v-701h348q99 0 133.5 2.5t73.5 12.5h8v-76h-747v8q10 53 10 207v447l-185 -107l-30 53l215 125v486q0 153 -10 206v9z" />
    <glyph glyph-name="Nacute" unicode="&#x143;" horiz-adv-x="1454" 
d="M195 1444h38l955 -1145v920q0 103 -2 135.5t-12 70.5v9h86v-9q-11 -58 -11 -206v-1035q0 -127 11 -194h-39l-955 1145v-920q0 -99 2.5 -133.5t12.5 -73.5v-8h-86v8q10 53 10 207v1034q0 134 -10 195zM633 1618l223 328l82 -66l-268 -295z" />
    <glyph glyph-name="Nacute" unicode="&#x144;" horiz-adv-x="1454" 
d="M195 1444h38l955 -1145v920q0 103 -2 135.5t-12 70.5v9h86v-9q-11 -58 -11 -206v-1035q0 -127 11 -194h-39l-955 1145v-920q0 -99 2.5 -133.5t12.5 -73.5v-8h-86v8q10 53 10 207v1034q0 134 -10 195zM633 1618l223 328l82 -66l-268 -295z" />
    <glyph glyph-name="uni0145" unicode="&#x145;" horiz-adv-x="1454" 
d="M195 1444h38l955 -1145v920q0 103 -2 135.5t-12 70.5v9h86v-9q-11 -58 -11 -206v-1035q0 -127 11 -194h-39l-955 1145v-920q0 -99 2.5 -133.5t12.5 -73.5v-8h-86v8q10 53 10 207v1034q0 134 -10 195zM618 -502q109 134 88 167q-3 6 -10 7q-75 15 -75 88q0 37 26.5 63.5
t63.5 26.5q39 0 64.5 -29t25.5 -77q0 -53 -33 -113.5t-117 -154.5z" />
    <glyph glyph-name="uni0145" unicode="&#x146;" horiz-adv-x="1454" 
d="M195 1444h38l955 -1145v920q0 103 -2 135.5t-12 70.5v9h86v-9q-11 -58 -11 -206v-1035q0 -127 11 -194h-39l-955 1145v-920q0 -99 2.5 -133.5t12.5 -73.5v-8h-86v8q10 53 10 207v1034q0 134 -10 195zM618 -502q109 134 88 167q-3 6 -10 7q-75 15 -75 88q0 37 26.5 63.5
t63.5 26.5q39 0 64.5 -29t25.5 -77q0 -53 -33 -113.5t-117 -154.5z" />
    <glyph glyph-name="Ncaron" unicode="&#x147;" horiz-adv-x="1454" 
d="M195 1444h38l955 -1145v920q0 103 -2 135.5t-12 70.5v9h86v-9q-11 -58 -11 -206v-1035q0 -127 11 -194h-39l-955 1145v-920q0 -99 2.5 -133.5t12.5 -73.5v-8h-86v8q10 53 10 207v1034q0 134 -10 195zM455 1831l30 41l248 -143l236 143l30 -41l-272 -236z" />
    <glyph glyph-name="Ncaron" unicode="&#x148;" horiz-adv-x="1454" 
d="M195 1444h38l955 -1145v920q0 103 -2 135.5t-12 70.5v9h86v-9q-11 -58 -11 -206v-1035q0 -127 11 -194h-39l-955 1145v-920q0 -99 2.5 -133.5t12.5 -73.5v-8h-86v8q10 53 10 207v1034q0 134 -10 195zM455 1831l30 41l248 -143l236 143l30 -41l-272 -236z" />
    <glyph glyph-name="Omacron" unicode="&#x14c;" horiz-adv-x="1638" 
d="M819 -33q-208 0 -382 101t-275 275t-101 382t101 382t275 275t382 101t382 -101t275 -275t101 -382t-101 -382t-275 -275t-382 -101zM246 725q0 -192 69.5 -351t195.5 -252t282 -93q171 0 309 93t214.5 252t76.5 351q0 193 -70 352t-196.5 251.5t-284.5 92.5
q-170 0 -307 -92.5t-213 -251.5t-76 -352zM449 1679v84h778v-84h-778z" />
    <glyph glyph-name="Omacron" unicode="&#x14d;" horiz-adv-x="1638" 
d="M819 -33q-208 0 -382 101t-275 275t-101 382t101 382t275 275t382 101t382 -101t275 -275t101 -382t-101 -382t-275 -275t-382 -101zM246 725q0 -192 69.5 -351t195.5 -252t282 -93q171 0 309 93t214.5 252t76.5 351q0 193 -70 352t-196.5 251.5t-284.5 92.5
q-170 0 -307 -92.5t-213 -251.5t-76 -352zM449 1679v84h778v-84h-778z" />
    <glyph glyph-name="Ohungarumlaut" unicode="&#x150;" horiz-adv-x="1638" 
d="M819 -33q-208 0 -382 101t-275 275t-101 382t101 382t275 275t382 101t382 -101t275 -275t101 -382t-101 -382t-275 -275t-382 -101zM246 725q0 -192 69.5 -351t195.5 -252t282 -93q171 0 309 93t214.5 252t76.5 351q0 193 -70 352t-196.5 251.5t-284.5 92.5
q-170 0 -307 -92.5t-213 -251.5t-76 -352zM680 1659l135 274l92 -45l-188 -248zM881 1679l239 258l78 -65l-278 -225z" />
    <glyph glyph-name="Ohungarumlaut" unicode="&#x151;" horiz-adv-x="1638" 
d="M819 -33q-208 0 -382 101t-275 275t-101 382t101 382t275 275t382 101t382 -101t275 -275t101 -382t-101 -382t-275 -275t-382 -101zM246 725q0 -192 69.5 -351t195.5 -252t282 -93q171 0 309 93t214.5 252t76.5 351q0 193 -70 352t-196.5 251.5t-284.5 92.5
q-170 0 -307 -92.5t-213 -251.5t-76 -352zM680 1659l135 274l92 -45l-188 -248zM881 1679l239 258l78 -65l-278 -225z" />
    <glyph glyph-name="OE" unicode="&#x152;" horiz-adv-x="2314" 
d="M819 -33q-208 0 -382 101t-275 275t-101 382t101 382t275 275t382 101q176 0 327.5 -73.5t256.5 -203.5v13q0 153 -10 206v9h815v-72h-6q-51 10 -189 10h-436v-375h471v-61h-471v-875h491q99 0 133.5 2.5t73.5 12.5h9v-76h-891v8q10 53 10 207v29
q-105 -130 -256.5 -203.5t-327.5 -73.5zM246 725q0 -192 69.5 -351t195.5 -252t282 -93q176 0 319 93t222 252t79 351q0 193 -72 352t-202.5 251.5t-294.5 92.5q-128 0 -240 -54.5t-190 -147.5t-123 -221.5t-45 -272.5z" />
    <glyph glyph-name="OE" unicode="&#x153;" horiz-adv-x="2314" 
d="M819 -33q-208 0 -382 101t-275 275t-101 382t101 382t275 275t382 101q176 0 327.5 -73.5t256.5 -203.5v13q0 153 -10 206v9h815v-72h-6q-51 10 -189 10h-436v-375h471v-61h-471v-875h491q99 0 133.5 2.5t73.5 12.5h9v-76h-891v8q10 53 10 207v29
q-105 -130 -256.5 -203.5t-327.5 -73.5zM246 725q0 -192 69.5 -351t195.5 -252t282 -93q176 0 319 93t222 252t79 351q0 193 -72 352t-202.5 251.5t-294.5 92.5q-128 0 -240 -54.5t-190 -147.5t-123 -221.5t-45 -272.5z" />
    <glyph glyph-name="Racute" unicode="&#x154;" horiz-adv-x="1370" 
d="M672 1434q253 0 394.5 -91t141.5 -247q0 -138 -113.5 -219t-320.5 -93l289 -438q188 -288 287 -319l-2 -31q-71 -13 -133.5 2t-114.5 56.5t-90.5 87t-81.5 110.5l-369 553l14 26h43q197 0 305.5 73.5t108.5 201.5q0 132 -107.5 199t-310.5 67h-233v-1157q0 -103 2 -136
t12 -71v-8h-198v8q10 53 10 207v1004q0 153 -10 206v9h477zM551 1618l223 328l82 -66l-268 -295z" />
    <glyph glyph-name="Racute" unicode="&#x155;" horiz-adv-x="1370" 
d="M672 1434q253 0 394.5 -91t141.5 -247q0 -138 -113.5 -219t-320.5 -93l289 -438q188 -288 287 -319l-2 -31q-71 -13 -133.5 2t-114.5 56.5t-90.5 87t-81.5 110.5l-369 553l14 26h43q197 0 305.5 73.5t108.5 201.5q0 132 -107.5 199t-310.5 67h-233v-1157q0 -103 2 -136
t12 -71v-8h-198v8q10 53 10 207v1004q0 153 -10 206v9h477zM551 1618l223 328l82 -66l-268 -295z" />
    <glyph glyph-name="uni0156" unicode="&#x156;" horiz-adv-x="1370" 
d="M672 1434q253 0 394.5 -91t141.5 -247q0 -138 -113.5 -219t-320.5 -93l289 -438q188 -288 287 -319l-2 -31q-71 -13 -133.5 2t-114.5 56.5t-90.5 87t-81.5 110.5l-369 553l14 26h43q197 0 305.5 73.5t108.5 201.5q0 132 -107.5 199t-310.5 67h-233v-1157q0 -103 2 -136
t12 -71v-8h-198v8q10 53 10 207v1004q0 153 -10 206v9h477zM618 -481q109 134 88 167q-3 6 -10 7q-75 15 -75 88q0 37 26.5 63.5t63.5 26.5q39 0 64.5 -29t25.5 -78q0 -53 -33 -113.5t-117 -154.5z" />
    <glyph glyph-name="uni0156" unicode="&#x157;" horiz-adv-x="1370" 
d="M672 1434q253 0 394.5 -91t141.5 -247q0 -138 -113.5 -219t-320.5 -93l289 -438q188 -288 287 -319l-2 -31q-71 -13 -133.5 2t-114.5 56.5t-90.5 87t-81.5 110.5l-369 553l14 26h43q197 0 305.5 73.5t108.5 201.5q0 132 -107.5 199t-310.5 67h-233v-1157q0 -103 2 -136
t12 -71v-8h-198v8q10 53 10 207v1004q0 153 -10 206v9h477zM618 -481q109 134 88 167q-3 6 -10 7q-75 15 -75 88q0 37 26.5 63.5t63.5 26.5q39 0 64.5 -29t25.5 -78q0 -53 -33 -113.5t-117 -154.5z" />
    <glyph glyph-name="Rcaron" unicode="&#x158;" horiz-adv-x="1370" 
d="M672 1434q253 0 394.5 -91t141.5 -247q0 -138 -113.5 -219t-320.5 -93l289 -438q188 -288 287 -319l-2 -31q-71 -13 -133.5 2t-114.5 56.5t-90.5 87t-81.5 110.5l-369 553l14 26h43q197 0 305.5 73.5t108.5 201.5q0 132 -107.5 199t-310.5 67h-233v-1157q0 -103 2 -136
t12 -71v-8h-198v8q10 53 10 207v1004q0 153 -10 206v9h477zM414 1831l30 41l248 -143l236 143l30 -41l-272 -236z" />
    <glyph glyph-name="Rcaron" unicode="&#x159;" horiz-adv-x="1370" 
d="M672 1434q253 0 394.5 -91t141.5 -247q0 -138 -113.5 -219t-320.5 -93l289 -438q188 -288 287 -319l-2 -31q-71 -13 -133.5 2t-114.5 56.5t-90.5 87t-81.5 110.5l-369 553l14 26h43q197 0 305.5 73.5t108.5 201.5q0 132 -107.5 199t-310.5 67h-233v-1157q0 -103 2 -136
t12 -71v-8h-198v8q10 53 10 207v1004q0 153 -10 206v9h477zM414 1831l30 41l248 -143l236 143l30 -41l-272 -236z" />
    <glyph glyph-name="Sacute" unicode="&#x15a;" horiz-adv-x="995" 
d="M795 1421l8 -190h-37q-29 88 -97.5 133t-154.5 45q-93 0 -152 -51.5t-59 -145.5q0 -65 31 -136t88 -132l278 -301q170 -185 170 -356q0 -137 -104.5 -224.5t-282.5 -87.5q-91 0 -184 26.5t-160 78.5l-6 190h37q34 -112 122 -172.5t191 -60.5q101 0 162.5 57t61.5 154
q0 134 -129 272l-279 301q-162 176 -162 346q0 131 97.5 217t263.5 86q160 0 297 -49zM362 1618l224 328l82 -66l-269 -295z" />
    <glyph glyph-name="Sacute" unicode="&#x15b;" horiz-adv-x="995" 
d="M795 1421l8 -190h-37q-29 88 -97.5 133t-154.5 45q-93 0 -152 -51.5t-59 -145.5q0 -65 31 -136t88 -132l278 -301q170 -185 170 -356q0 -137 -104.5 -224.5t-282.5 -87.5q-91 0 -184 26.5t-160 78.5l-6 190h37q34 -112 122 -172.5t191 -60.5q101 0 162.5 57t61.5 154
q0 134 -129 272l-279 301q-162 176 -162 346q0 131 97.5 217t263.5 86q160 0 297 -49zM362 1618l224 328l82 -66l-269 -295z" />
    <glyph glyph-name="Scedilla" unicode="&#x15e;" horiz-adv-x="995" 
d="M795 1421l8 -190h-37q-29 88 -97.5 133t-154.5 45q-93 0 -152 -51.5t-59 -145.5q0 -65 31 -136t88 -132l278 -301q170 -185 170 -356q0 -123 -85 -206.5t-234 -100.5l-51 -89q68 -1 106.5 -32.5t38.5 -77.5q0 -66 -75 -117t-214 -51v41q89 1 137 34t48 76q0 35 -31 60
t-86 26l-6 21l67 104h-2q-91 0 -184 26.5t-160 78.5l-6 190h37q34 -112 122 -172.5t191 -60.5q101 0 162.5 57t61.5 154q0 134 -129 272l-279 301q-162 176 -162 346q0 131 97.5 217t263.5 86q160 0 297 -49z" />
    <glyph glyph-name="Scedilla" unicode="&#x15f;" horiz-adv-x="995" 
d="M795 1421l8 -190h-37q-29 88 -97.5 133t-154.5 45q-93 0 -152 -51.5t-59 -145.5q0 -65 31 -136t88 -132l278 -301q170 -185 170 -356q0 -123 -85 -206.5t-234 -100.5l-51 -89q68 -1 106.5 -32.5t38.5 -77.5q0 -66 -75 -117t-214 -51v41q89 1 137 34t48 76q0 35 -31 60
t-86 26l-6 21l67 104h-2q-91 0 -184 26.5t-160 78.5l-6 190h37q34 -112 122 -172.5t191 -60.5q101 0 162.5 57t61.5 154q0 134 -129 272l-279 301q-162 176 -162 346q0 131 97.5 217t263.5 86q160 0 297 -49z" />
    <glyph glyph-name="Scaron" unicode="&#x160;" horiz-adv-x="995" 
d="M795 1421l8 -190h-37q-29 88 -97.5 133t-154.5 45q-93 0 -152 -51.5t-59 -145.5q0 -65 31 -136t88 -132l278 -301q170 -185 170 -356q0 -137 -104.5 -224.5t-282.5 -87.5q-91 0 -184 26.5t-160 78.5l-6 190h37q34 -112 122 -172.5t191 -60.5q101 0 162.5 57t61.5 154
q0 134 -129 272l-279 301q-162 176 -162 346q0 131 97.5 217t263.5 86q160 0 297 -49zM225 1831l31 41l248 -143l235 143l31 -41l-272 -236z" />
    <glyph glyph-name="Scaron" unicode="&#x161;" horiz-adv-x="995" 
d="M795 1421l8 -190h-37q-29 88 -97.5 133t-154.5 45q-93 0 -152 -51.5t-59 -145.5q0 -65 31 -136t88 -132l278 -301q170 -185 170 -356q0 -137 -104.5 -224.5t-282.5 -87.5q-91 0 -184 26.5t-160 78.5l-6 190h37q34 -112 122 -172.5t191 -60.5q101 0 162.5 57t61.5 154
q0 134 -129 272l-279 301q-162 176 -162 346q0 131 97.5 217t263.5 86q160 0 297 -49zM225 1831l31 41l248 -143l235 143l31 -41l-272 -236z" />
    <glyph glyph-name="uni0162" unicode="&#x162;" horiz-adv-x="1024" 
d="M41 1434h940v-76h-8q-38 10 -68.5 12t-118.5 2h-188v-1157q0 -137 8 -192l2 -15v-8h-55l-64 -109q68 -1 107 -32.5t39 -77.5q0 -66 -75 -117t-214 -51v41q89 1 136.5 34t47.5 76q0 35 -30.5 60t-85.5 26l-6 21l81 129h-75v8l2 15q8 55 8 192v1157h-188q-88 0 -118.5 -2
t-68.5 -12h-8v76z" />
    <glyph glyph-name="uni0162" unicode="&#x163;" horiz-adv-x="1024" 
d="M41 1434h940v-76h-8q-38 10 -68.5 12t-118.5 2h-188v-1157q0 -137 8 -192l2 -15v-8h-55l-64 -109q68 -1 107 -32.5t39 -77.5q0 -66 -75 -117t-214 -51v41q89 1 136.5 34t47.5 76q0 35 -30.5 60t-85.5 26l-6 21l81 129h-75v8l2 15q8 55 8 192v1157h-188q-88 0 -118.5 -2
t-68.5 -12h-8v76z" />
    <glyph glyph-name="Tcaron" unicode="&#x164;" horiz-adv-x="1024" 
d="M41 1434h940v-76h-8q-38 10 -68.5 12t-118.5 2h-188v-1157q0 -137 8 -192l2 -15v-8h-194v8l2 15q8 55 8 192v1157h-188q-88 0 -118.5 -2t-68.5 -12h-8v76zM238 1831l30 41l248 -143l236 143l30 -41l-272 -236z" />
    <glyph glyph-name="Tcaron" unicode="&#x165;" horiz-adv-x="1024" 
d="M41 1434h940v-76h-8q-38 10 -68.5 12t-118.5 2h-188v-1157q0 -137 8 -192l2 -15v-8h-194v8l2 15q8 55 8 192v1157h-188q-88 0 -118.5 -2t-68.5 -12h-8v76zM238 1831l30 41l248 -143l236 143l30 -41l-272 -236z" />
    <glyph glyph-name="Utilde" unicode="&#x168;" horiz-adv-x="1404" 
d="M174 1434h199v-9q-10 -39 -12.5 -73t-2.5 -133v-678q0 -211 109.5 -334t296.5 -123q185 0 295 118t110 314v703q0 103 -2 135.5t-12 70.5v9h86v-9q-10 -53 -10 -206v-674q0 -270 -144.5 -424t-379.5 -154t-379 154t-144 424v674q0 153 -10 206v9zM395 1724q39 68 86 95.5
t117 27.5q47 0 160 -37q143 -55 203 -55q55 0 96 35l18 -18q-39 -68 -86 -95.5t-117 -27.5q-46 0 -159 37q-143 55 -203 55q-55 0 -96 -35z" />
    <glyph glyph-name="Utilde" unicode="&#x169;" horiz-adv-x="1404" 
d="M174 1434h199v-9q-10 -39 -12.5 -73t-2.5 -133v-678q0 -211 109.5 -334t296.5 -123q185 0 295 118t110 314v703q0 103 -2 135.5t-12 70.5v9h86v-9q-10 -53 -10 -206v-674q0 -270 -144.5 -424t-379.5 -154t-379 154t-144 424v674q0 153 -10 206v9zM395 1724q39 68 86 95.5
t117 27.5q47 0 160 -37q143 -55 203 -55q55 0 96 35l18 -18q-39 -68 -86 -95.5t-117 -27.5q-46 0 -159 37q-143 55 -203 55q-55 0 -96 -35z" />
    <glyph glyph-name="Umacron" unicode="&#x16a;" horiz-adv-x="1404" 
d="M174 1434h199v-9q-10 -39 -12.5 -73t-2.5 -133v-678q0 -211 109.5 -334t296.5 -123q185 0 295 118t110 314v703q0 103 -2 135.5t-12 70.5v9h86v-9q-10 -53 -10 -206v-674q0 -270 -144.5 -424t-379.5 -154t-379 154t-144 424v674q0 153 -10 206v9zM375 1679v84h778v-84
h-778z" />
    <glyph glyph-name="Umacron" unicode="&#x16b;" horiz-adv-x="1404" 
d="M174 1434h199v-9q-10 -39 -12.5 -73t-2.5 -133v-678q0 -211 109.5 -334t296.5 -123q185 0 295 118t110 314v703q0 103 -2 135.5t-12 70.5v9h86v-9q-10 -53 -10 -206v-674q0 -270 -144.5 -424t-379.5 -154t-379 154t-144 424v674q0 153 -10 206v9zM375 1679v84h778v-84
h-778z" />
    <glyph glyph-name="Uring" unicode="&#x16e;" horiz-adv-x="1404" 
d="M174 1434h199v-9q-10 -39 -12.5 -73t-2.5 -133v-678q0 -211 109.5 -334t296.5 -123q185 0 295 118t110 314v703q0 103 -2 135.5t-12 70.5v9h86v-9q-10 -53 -10 -206v-674q0 -270 -144.5 -424t-379.5 -154t-379 154t-144 424v674q0 153 -10 206v9zM582 1780
q0 71 45.5 117.5t117.5 46.5t118 -46.5t46 -117.5q0 -72 -46 -118t-118 -46t-117.5 46t-45.5 118zM662 1780q0 -44 23.5 -74.5t59.5 -30.5t60 30.5t24 74.5q0 43 -24 73.5t-60 30.5t-59.5 -30t-23.5 -74z" />
    <glyph glyph-name="Uring" unicode="&#x16f;" horiz-adv-x="1404" 
d="M174 1434h199v-9q-10 -39 -12.5 -73t-2.5 -133v-678q0 -211 109.5 -334t296.5 -123q185 0 295 118t110 314v703q0 103 -2 135.5t-12 70.5v9h86v-9q-10 -53 -10 -206v-674q0 -270 -144.5 -424t-379.5 -154t-379 154t-144 424v674q0 153 -10 206v9zM582 1780
q0 71 45.5 117.5t117.5 46.5t118 -46.5t46 -117.5q0 -72 -46 -118t-118 -46t-117.5 46t-45.5 118zM662 1780q0 -44 23.5 -74.5t59.5 -30.5t60 30.5t24 74.5q0 43 -24 73.5t-60 30.5t-59.5 -30t-23.5 -74z" />
    <glyph glyph-name="Uhungarumlaut" unicode="&#x170;" horiz-adv-x="1404" 
d="M174 1434h199v-9q-10 -39 -12.5 -73t-2.5 -133v-678q0 -211 109.5 -334t296.5 -123q185 0 295 118t110 314v703q0 103 -2 135.5t-12 70.5v9h86v-9q-10 -53 -10 -206v-674q0 -270 -144.5 -424t-379.5 -154t-379 154t-144 424v674q0 153 -10 206v9zM606 1659l135 274
l93 -45l-189 -248zM807 1679l240 258l77 -65l-278 -225z" />
    <glyph glyph-name="Uhungarumlaut" unicode="&#x171;" horiz-adv-x="1404" 
d="M174 1434h199v-9q-10 -39 -12.5 -73t-2.5 -133v-678q0 -211 109.5 -334t296.5 -123q185 0 295 118t110 314v703q0 103 -2 135.5t-12 70.5v9h86v-9q-10 -53 -10 -206v-674q0 -270 -144.5 -424t-379.5 -154t-379 154t-144 424v674q0 153 -10 206v9zM606 1659l135 274
l93 -45l-189 -248zM807 1679l240 258l77 -65l-278 -225z" />
    <glyph glyph-name="Uogonek" unicode="&#x172;" horiz-adv-x="1404" 
d="M174 1434h199v-9q-10 -39 -12.5 -73t-2.5 -133v-678q0 -211 109.5 -334t296.5 -123q185 0 295 118t110 314v703q0 103 -2 135.5t-12 70.5v9h86v-9q-10 -53 -10 -206v-674q0 -194 -77.5 -331t-213.5 -200q-99 -49 -143.5 -93.5t-44.5 -90.5q0 -43 33.5 -70.5t91.5 -27.5
q25 0 55 6l12 -33q-91 -51 -172 -51q-66 0 -105.5 35.5t-39.5 89.5q0 105 143 192q-40 -4 -63 -4q-235 0 -379 154t-144 424v674q0 153 -10 206v9z" />
    <glyph glyph-name="Uogonek" unicode="&#x173;" horiz-adv-x="1404" 
d="M174 1434h199v-9q-10 -39 -12.5 -73t-2.5 -133v-678q0 -211 109.5 -334t296.5 -123q185 0 295 118t110 314v703q0 103 -2 135.5t-12 70.5v9h86v-9q-10 -53 -10 -206v-674q0 -194 -77.5 -331t-213.5 -200q-99 -49 -143.5 -93.5t-44.5 -90.5q0 -43 33.5 -70.5t91.5 -27.5
q25 0 55 6l12 -33q-91 -51 -172 -51q-66 0 -105.5 35.5t-39.5 89.5q0 105 143 192q-40 -4 -63 -4q-235 0 -379 154t-144 424v674q0 153 -10 206v9z" />
    <glyph glyph-name="Wcircumflex" unicode="&#x174;" horiz-adv-x="2045" 
d="M61 1434h207v-15q0 -65 49 -200l398 -1119l385 1366h8l428 -1362l340 1115q43 136 43 200v15h96v-9q-23 -44 -73 -206l-373 -1219q-37 0 -82 -11.5t-76 -31.5l-354 1135l-307 -1092q-37 0 -82 -11.5t-76 -31.5l-449 1262q-56 156 -82 206v9zM831 1606l273 235l272 -235
l-30 -41l-248 143l-236 -143z" />
    <glyph glyph-name="Wcircumflex" unicode="&#x175;" horiz-adv-x="2045" 
d="M61 1434h207v-15q0 -65 49 -200l398 -1119l385 1366h8l428 -1362l340 1115q43 136 43 200v15h96v-9q-23 -44 -73 -206l-373 -1219q-37 0 -82 -11.5t-76 -31.5l-354 1135l-307 -1092q-37 0 -82 -11.5t-76 -31.5l-449 1262q-56 156 -82 206v9zM831 1606l273 235l272 -235
l-30 -41l-248 143l-236 -143z" />
    <glyph glyph-name="Ycircumflex" unicode="&#x176;" horiz-adv-x="1267" 
d="M154 1217q-97 141 -164 208v9h241l2 -9q6 -20 22 -45.5t77 -113.5l375 -537l376 537q70 99 83.5 120t19.5 39l2 9h100v-9q-53 -53 -164 -208l-364 -517v-505q0 -134 10 -187v-8h-195v8q11 58 11 187v405zM399 1606l273 235l272 -235l-31 -41l-247 143l-236 -143z" />
    <glyph glyph-name="Ycircumflex" unicode="&#x177;" horiz-adv-x="1267" 
d="M154 1217q-97 141 -164 208v9h241l2 -9q6 -20 22 -45.5t77 -113.5l375 -537l376 537q70 99 83.5 120t19.5 39l2 9h100v-9q-53 -53 -164 -208l-364 -517v-505q0 -134 10 -187v-8h-195v8q11 58 11 187v405zM399 1606l273 235l272 -235l-31 -41l-247 143l-236 -143z" />
    <glyph glyph-name="Zacute" unicode="&#x179;" horiz-adv-x="1167" 
d="M154 1434h931l-768 -1373h531q130 0 188 17h6v-78h-960l770 1372h-504q-141 0 -188 -16h-6v78zM489 1618l224 328l82 -66l-269 -295z" />
    <glyph glyph-name="Zacute" unicode="&#x17a;" horiz-adv-x="1167" 
d="M154 1434h931l-768 -1373h531q130 0 188 17h6v-78h-960l770 1372h-504q-141 0 -188 -16h-6v78zM489 1618l224 328l82 -66l-269 -295z" />
    <glyph glyph-name="Zdotaccent" unicode="&#x17b;" horiz-adv-x="1167" 
d="M154 1434h931l-768 -1373h531q130 0 188 17h6v-78h-960l770 1372h-504q-141 0 -188 -16h-6v78zM522 1741q0 43 30 72.5t73 29.5q42 0 72 -30t30 -72q0 -43 -30.5 -73t-71.5 -30q-43 0 -73 30t-30 73z" />
    <glyph glyph-name="Zdotaccent" unicode="&#x17c;" horiz-adv-x="1167" 
d="M154 1434h931l-768 -1373h531q130 0 188 17h6v-78h-960l770 1372h-504q-141 0 -188 -16h-6v78zM522 1741q0 43 30 72.5t73 29.5q42 0 72 -30t30 -72q0 -43 -30.5 -73t-71.5 -30q-43 0 -73 30t-30 73z" />
    <glyph glyph-name="Zcaron" unicode="&#x17d;" horiz-adv-x="1167" 
d="M154 1434h931l-768 -1373h531q130 0 188 17h6v-78h-960l770 1372h-504q-141 0 -188 -16h-6v78zM352 1831l31 41l248 -143l235 143l31 -41l-272 -236z" />
    <glyph glyph-name="Zcaron" unicode="&#x17e;" horiz-adv-x="1167" 
d="M154 1434h931l-768 -1373h531q130 0 188 17h6v-78h-960l770 1372h-504q-141 0 -188 -16h-6v78zM352 1831l31 41l248 -143l235 143l31 -41l-272 -236z" />
    <glyph glyph-name="uni01DE" unicode="&#x1de;" horiz-adv-x="1228" 
d="M532 1434q94 0 158 43l447 -1262q52 -148 82 -207v-8h-203v8q0 52 -53 207l-58 162h-715l-61 -160q-14 -35 -24 -64.5t-16 -50t-9.5 -36t-4.5 -26t-1.5 -16t0 -10.5t0.5 -6v-8h-105v8q26 52 88 207zM215 438h670l-318 908zM240 1958v84h778v-84h-778zM338 1741
q0 39 26.5 65.5t65.5 26.5q38 0 65 -27t27 -65q0 -39 -26.5 -65.5t-65.5 -26.5q-40 0 -66 26t-26 66zM686 1741q0 37 26.5 64.5t65.5 27.5q37 0 64.5 -27.5t27.5 -64.5q0 -39 -27.5 -65.5t-64.5 -26.5q-40 0 -66 26t-26 66z" />
    <glyph glyph-name="uni01DE" unicode="&#x1df;" horiz-adv-x="1228" 
d="M532 1434q94 0 158 43l447 -1262q52 -148 82 -207v-8h-203v8q0 52 -53 207l-58 162h-715l-61 -160q-14 -35 -24 -64.5t-16 -50t-9.5 -36t-4.5 -26t-1.5 -16t0 -10.5t0.5 -6v-8h-105v8q26 52 88 207zM215 438h670l-318 908zM240 1958v84h778v-84h-778zM338 1741
q0 39 26.5 65.5t65.5 26.5q38 0 65 -27t27 -65q0 -39 -26.5 -65.5t-65.5 -26.5q-40 0 -66 26t-26 66zM686 1741q0 37 26.5 64.5t65.5 27.5q37 0 64.5 -27.5t27.5 -64.5q0 -39 -27.5 -65.5t-64.5 -26.5q-40 0 -66 26t-26 66z" />
    <glyph glyph-name="uni0218" unicode="&#x218;" horiz-adv-x="995" 
d="M795 1421l8 -190h-37q-29 88 -97.5 133t-154.5 45q-93 0 -152 -51.5t-59 -145.5q0 -65 31 -136t88 -132l278 -301q170 -185 170 -356q0 -137 -104.5 -224.5t-282.5 -87.5q-91 0 -184 26.5t-160 78.5l-6 190h37q34 -112 122 -172.5t191 -60.5q101 0 162.5 57t61.5 154
q0 134 -129 272l-279 301q-162 176 -162 346q0 131 97.5 217t263.5 86q160 0 297 -49zM410 -481q108 132 88 166q-3 6 -11 8q-75 15 -75 88q0 37 26.5 63.5t63.5 26.5q39 0 64.5 -29t25.5 -78q0 -53 -33 -113.5t-117 -154.5z" />
    <glyph glyph-name="uni0218" unicode="&#x219;" horiz-adv-x="995" 
d="M795 1421l8 -190h-37q-29 88 -97.5 133t-154.5 45q-93 0 -152 -51.5t-59 -145.5q0 -65 31 -136t88 -132l278 -301q170 -185 170 -356q0 -137 -104.5 -224.5t-282.5 -87.5q-91 0 -184 26.5t-160 78.5l-6 190h37q34 -112 122 -172.5t191 -60.5q101 0 162.5 57t61.5 154
q0 134 -129 272l-279 301q-162 176 -162 346q0 131 97.5 217t263.5 86q160 0 297 -49zM410 -481q108 132 88 166q-3 6 -11 8q-75 15 -75 88q0 37 26.5 63.5t63.5 26.5q39 0 64.5 -29t25.5 -78q0 -53 -33 -113.5t-117 -154.5z" />
    <glyph glyph-name="uni021A" unicode="&#x21a;" horiz-adv-x="1024" 
d="M41 1434h940v-76h-8q-38 10 -68.5 12t-118.5 2h-188v-1157q0 -137 8 -192l2 -15v-8h-194v8l2 15q8 55 8 192v1157h-188q-88 0 -118.5 -2t-68.5 -12h-8v76zM422 -481q109 134 88 167q-3 6 -10 7q-76 16 -76 88q0 37 26.5 63.5t63.5 26.5q39 0 64.5 -29t25.5 -78
q0 -53 -32.5 -113.5t-116.5 -154.5z" />
    <glyph glyph-name="uni021A" unicode="&#x21b;" horiz-adv-x="1024" 
d="M41 1434h940v-76h-8q-38 10 -68.5 12t-118.5 2h-188v-1157q0 -137 8 -192l2 -15v-8h-194v8l2 15q8 55 8 192v1157h-188q-88 0 -118.5 -2t-68.5 -12h-8v76zM422 -481q109 134 88 167q-3 6 -10 7q-76 16 -76 88q0 37 26.5 63.5t63.5 26.5q39 0 64.5 -29t25.5 -78
q0 -53 -32.5 -113.5t-116.5 -154.5z" />
    <glyph glyph-name="uni0228" unicode="&#x228;" horiz-adv-x="1116" 
d="M195 1434h815v-72h-6q-51 10 -189 10h-436v-375h471v-61h-471v-875h491q99 0 133.5 2.5t73.5 12.5h8v-76h-387l-63 -109q68 -1 106.5 -32.5t38.5 -77.5q0 -66 -74.5 -117t-213.5 -51v41q89 1 136.5 34t47.5 76q0 35 -31 60t-86 26l-6 21l82 129h-440v8q10 53 10 207v1004
q0 153 -10 206v9z" />
    <glyph glyph-name="uni0228" unicode="&#x229;" horiz-adv-x="1116" 
d="M195 1434h815v-72h-6q-51 10 -189 10h-436v-375h471v-61h-471v-875h491q99 0 133.5 2.5t73.5 12.5h8v-76h-387l-63 -109q68 -1 106.5 -32.5t38.5 -77.5q0 -66 -74.5 -117t-213.5 -51v41q89 1 136.5 34t47.5 76q0 35 -31 60t-86 26l-6 21l82 129h-440v8q10 53 10 207v1004
q0 153 -10 206v9z" />
    <glyph glyph-name="uni02BC" unicode="&#x2bc;" horiz-adv-x="573" 
d="M258 1511l141 -20l-114 -526l-66 12z" />
    <glyph glyph-name="gravecomb" unicode="&#x300;" 
d="M508 1925l223 -328l-37 -32l-268 295z" />
    <glyph glyph-name="acutecomb" unicode="&#x301;" 
d="M702 1946l82 -66l-268 -295l-37 33z" />
    <glyph glyph-name="uni0302" unicode="&#x302;" 
d="M856 1606l-248 143l-235 -143l-31 41l272 235l273 -235z" />
    <glyph glyph-name="tildecomb" unicode="&#x303;" 
d="M741 1649q-46 0 -159 37q-143 55 -203 55q-55 0 -96 -35l-19 18q39 68 86 95.5t117 27.5q47 0 160 -37q143 -55 202 -55q56 0 97 35l18 -18q-39 -68 -86 -95.5t-117 -27.5z" />
    <glyph glyph-name="uni0304" unicode="&#x304;" 
d="M225 1763h779v-84h-779v84z" />
    <glyph glyph-name="uni0306" unicode="&#x306;" 
d="M319 1868h89v-2q0 -90 55 -148q53 -59 151 -59q89 0 146 53.5t61 155.5h88q-5 -120 -86 -195.5t-209 -75.5t-209 75.5t-86 195.5z" />
    <glyph glyph-name="uni0307" unicode="&#x307;" 
d="M614 1638q-43 0 -72.5 30t-29.5 73t29.5 72.5t72.5 29.5q42 0 72.5 -30t30.5 -72t-30.5 -72.5t-72.5 -30.5z" />
    <glyph glyph-name="uni0308" unicode="&#x308;" 
d="M440 1649q-40 0 -66 26t-26 66q0 39 26.5 65.5t65.5 26.5q38 0 65 -27t27 -65q0 -39 -26.5 -65.5t-65.5 -26.5zM696 1741q0 37 26.5 64.5t65.5 27.5q37 0 65 -27.5t28 -64.5q0 -39 -27.5 -65.5t-65.5 -26.5q-40 0 -66 26t-26 66z" />
    <glyph glyph-name="uni030A" unicode="&#x30a;" 
d="M451 1780q0 71 45.5 117.5t117.5 46.5t118 -46.5t46 -117.5q0 -72 -46 -118t-118 -46t-117.5 46t-45.5 118zM530 1780q0 -44 24 -74.5t60 -30.5t60 30.5t24 74.5q0 43 -24 73.5t-60 30.5t-60 -30.5t-24 -73.5z" />
    <glyph glyph-name="uni030B" unicode="&#x30b;" 
d="M592 1933l92 -45l-188 -248l-39 19zM657 1679l240 258l78 -65l-279 -225z" />
    <glyph glyph-name="uni030C" unicode="&#x30c;" 
d="M373 1872l248 -143l235 143l31 -41l-273 -236l-272 236z" />
    <glyph glyph-name="uni0312" unicode="&#x312;" 
d="M401 1485q-127 -153 -112 -203q3 -11 16 -14q40 -9 67 -36t27 -75q0 -46 -33 -79.5t-79 -33.5q-48 0 -80.5 37t-32.5 97q0 66 40.5 141.5t145.5 193.5z" />
    <glyph glyph-name="uni0326" unicode="&#x326;" 
d="M199 -481q108 132 88 166q-3 6 -11 8q-75 15 -75 88q0 37 26.5 63.5t63.5 26.5q39 0 64.5 -29t25.5 -78q0 -53 -33 -113.5t-117 -154.5z" />
    <glyph glyph-name="uni0327" unicode="&#x327;" 
d="M514 25l47 -25l-63 -109q68 -1 106.5 -32.5t38.5 -77.5q0 -66 -75 -117t-214 -51v41q89 1 137 34t48 76q0 35 -31 60t-86 26l-6 21z" />
    <glyph glyph-name="uni0328" unicode="&#x328;" 
d="M440 -365q-66 0 -105.5 35.5t-39.5 89.5q0 74 78.5 144.5t240.5 128.5v-33q-102 -51 -148 -95.5t-46 -92.5q0 -43 33.5 -71t91.5 -28q25 0 55 6l12 -32q-93 -52 -172 -52z" />
    <glyph glyph-name="uni0401" unicode="&#x401;" horiz-adv-x="1116" 
d="M195 1434h815v-72h-6q-51 10 -189 10h-436v-375h471v-61h-471v-875h491q99 0 133.5 2.5t73.5 12.5h8v-76h-890v8q10 53 10 207v1004q0 153 -10 206v9zM354 1741q0 39 26.5 65.5t65.5 26.5q38 0 65.5 -27t27.5 -65q0 -39 -27 -65.5t-66 -26.5q-40 0 -66 26t-26 66z
M702 1741q0 37 27 64.5t66 27.5q37 0 64.5 -27.5t27.5 -64.5q0 -39 -27.5 -65.5t-64.5 -26.5q-40 0 -66.5 26t-26.5 66z" />
    <glyph glyph-name="uni0401" unicode="&#x451;" horiz-adv-x="1116" 
d="M195 1434h815v-72h-6q-51 10 -189 10h-436v-375h471v-61h-471v-875h491q99 0 133.5 2.5t73.5 12.5h8v-76h-890v8q10 53 10 207v1004q0 153 -10 206v9zM354 1741q0 39 26.5 65.5t65.5 26.5q38 0 65.5 -27t27.5 -65q0 -39 -27 -65.5t-66 -26.5q-40 0 -66 26t-26 66z
M702 1741q0 37 27 64.5t66 27.5q37 0 64.5 -27.5t27.5 -64.5q0 -39 -27.5 -65.5t-64.5 -26.5q-40 0 -66.5 26t-26.5 66z" />
    <glyph glyph-name="uni0402" unicode="&#x402;" horiz-adv-x="1540" 
d="M942 825q-204 0 -344 -143v-467q0 -137 8 -192l2 -15v-8h-194v8l2 15q8 55 8 192v1157h-188q-88 0 -118.5 -2t-68.5 -12h-8v76h940v-76h-8q-38 10 -68.5 12t-118.5 2h-188v-608q150 143 358 143q114 0 204.5 -39.5t146 -107t84 -152.5t28.5 -182q0 -107 -35.5 -211
t-100.5 -192t-168.5 -149t-229.5 -77v37q84 20 152.5 79.5t111.5 141t66.5 176t23.5 189.5q0 112 -30.5 201t-99.5 146.5t-167 57.5z" />
    <glyph glyph-name="uni0402" unicode="&#x452;" horiz-adv-x="1540" 
d="M942 825q-204 0 -344 -143v-467q0 -137 8 -192l2 -15v-8h-194v8l2 15q8 55 8 192v1157h-188q-88 0 -118.5 -2t-68.5 -12h-8v76h940v-76h-8q-38 10 -68.5 12t-118.5 2h-188v-608q150 143 358 143q114 0 204.5 -39.5t146 -107t84 -152.5t28.5 -182q0 -107 -35.5 -211
t-100.5 -192t-168.5 -149t-229.5 -77v37q84 20 152.5 79.5t111.5 141t66.5 176t23.5 189.5q0 112 -30.5 201t-99.5 146.5t-167 57.5z" />
    <glyph glyph-name="uni0403" unicode="&#x403;" horiz-adv-x="983" 
d="M195 1434h727v-76h-9q-38 10 -68 12t-118 2h-348v-1157q0 -103 2 -136t12 -71v-8h-198v8q10 53 10 207v1004q0 153 -10 206v9zM479 1618l223 328l82 -66l-268 -295z" />
    <glyph glyph-name="uni0403" unicode="&#x453;" horiz-adv-x="983" 
d="M195 1434h727v-76h-9q-38 10 -68 12t-118 2h-348v-1157q0 -103 2 -136t12 -71v-8h-198v8q10 53 10 207v1004q0 153 -10 206v9zM479 1618l223 328l82 -66l-268 -295z" />
    <glyph glyph-name="uni0404" unicode="&#x404;" horiz-adv-x="1488" 
d="M1104 770q-38 21 -68 21q-21 0 -47.5 -9.5t-50.5 -22.5l-72 -39t-88 -46q-128 -66 -213 -66q-96 0 -176 74l17 25q35 -21 63 -21q26 0 55.5 12.5t93.5 48t109 58.5q126 65 215 65q98 0 178 -75zM61 725q0 156 59 296t159.5 241.5t240 161t295.5 59.5q167 0 315 -64
t256 -172v-203h-36q-28 119 -104 206t-177 129t-215 42q-90 0 -176.5 -26.5t-165 -83t-137.5 -136.5t-94 -196.5t-35 -253.5q0 -142 33 -259t89.5 -197t132 -135t158.5 -80t172 -25q182 0 329 101.5t190 275.5h36v-203q-108 -108 -256 -172t-315 -64q-156 0 -295.5 59.5
t-240 161t-159.5 241.5t-59 296z" />
    <glyph glyph-name="uni0404" unicode="&#x454;" horiz-adv-x="1488" 
d="M1104 770q-38 21 -68 21q-21 0 -47.5 -9.5t-50.5 -22.5l-72 -39t-88 -46q-128 -66 -213 -66q-96 0 -176 74l17 25q35 -21 63 -21q26 0 55.5 12.5t93.5 48t109 58.5q126 65 215 65q98 0 178 -75zM61 725q0 156 59 296t159.5 241.5t240 161t295.5 59.5q167 0 315 -64
t256 -172v-203h-36q-28 119 -104 206t-177 129t-215 42q-90 0 -176.5 -26.5t-165 -83t-137.5 -136.5t-94 -196.5t-35 -253.5q0 -142 33 -259t89.5 -197t132 -135t158.5 -80t172 -25q182 0 329 101.5t190 275.5h36v-203q-108 -108 -256 -172t-315 -64q-156 0 -295.5 59.5
t-240 161t-159.5 241.5t-59 296z" />
    <glyph glyph-name="uni0405" unicode="&#x405;" horiz-adv-x="995" 
d="M795 1421l8 -190h-37q-29 88 -97.5 133t-154.5 45q-93 0 -152 -51.5t-59 -145.5q0 -65 31 -136t88 -132l278 -301q170 -185 170 -356q0 -137 -104.5 -224.5t-282.5 -87.5q-91 0 -184 26.5t-160 78.5l-6 190h37q34 -112 122 -172.5t191 -60.5q101 0 162.5 57t61.5 154
q0 134 -129 272l-279 301q-162 176 -162 346q0 131 97.5 217t263.5 86q160 0 297 -49z" />
    <glyph glyph-name="uni0405" unicode="&#x455;" horiz-adv-x="995" 
d="M795 1421l8 -190h-37q-29 88 -97.5 133t-154.5 45q-93 0 -152 -51.5t-59 -145.5q0 -65 31 -136t88 -132l278 -301q170 -185 170 -356q0 -137 -104.5 -224.5t-282.5 -87.5q-91 0 -184 26.5t-160 78.5l-6 190h37q34 -112 122 -172.5t191 -60.5q101 0 162.5 57t61.5 154
q0 134 -129 272l-279 301q-162 176 -162 346q0 131 97.5 217t263.5 86q160 0 297 -49z" />
    <glyph glyph-name="uni0406" unicode="&#x406;" horiz-adv-x="583" 
d="M195 1434h194v-9q-10 -53 -10 -206v-1004q0 -154 10 -207v-8h-194v8q10 53 10 207v1004q0 153 -10 206v9z" />
    <glyph glyph-name="uni0406" unicode="&#x456;" horiz-adv-x="583" 
d="M195 1434h194v-9q-10 -53 -10 -206v-1004q0 -154 10 -207v-8h-194v8q10 53 10 207v1004q0 153 -10 206v9z" />
    <glyph glyph-name="uni0407" unicode="&#x407;" horiz-adv-x="583" 
d="M195 1434h194v-9q-10 -53 -10 -206v-1004q0 -154 10 -207v-8h-194v8q10 53 10 207v1004q0 153 -10 206v9zM27 1741q0 39 26.5 65.5t65.5 26.5q38 0 65 -27t27 -65q0 -39 -26.5 -65.5t-65.5 -26.5q-40 0 -66 26t-26 66zM375 1741q0 37 26.5 64.5t65.5 27.5
q37 0 64.5 -27.5t27.5 -64.5q0 -39 -27.5 -65.5t-64.5 -26.5q-40 0 -66 26t-26 66z" />
    <glyph glyph-name="uni0407" unicode="&#x457;" horiz-adv-x="583" 
d="M195 1434h194v-9q-10 -53 -10 -206v-1004q0 -154 10 -207v-8h-194v8q10 53 10 207v1004q0 153 -10 206v9zM27 1741q0 39 26.5 65.5t65.5 26.5q38 0 65 -27t27 -65q0 -39 -26.5 -65.5t-65.5 -26.5q-40 0 -66 26t-26 66zM375 1741q0 37 26.5 64.5t65.5 27.5
q37 0 64.5 -27.5t27.5 -64.5q0 -39 -27.5 -65.5t-64.5 -26.5q-40 0 -66 26t-26 66z" />
    <glyph glyph-name="uni0408" unicode="&#x408;" horiz-adv-x="624" 
d="M236 1434h194v-9q-10 -53 -10 -206v-971q0 -269 -141 -421t-381 -181v37q164 40 256 186.5t92 402.5v947q0 153 -10 206v9z" />
    <glyph glyph-name="uni0408" unicode="&#x458;" horiz-adv-x="624" 
d="M236 1434h194v-9q-10 -53 -10 -206v-971q0 -269 -141 -421t-381 -181v37q164 40 256 186.5t92 402.5v947q0 153 -10 206v9z" />
    <glyph glyph-name="uni0409" unicode="&#x409;" horiz-adv-x="1886" 
d="M354 1434h715v-9q-10 -38 -12 -70.5t-2 -135.5v-1158h184q192 0 305 110.5t113 297.5q0 190 -115 296.5t-307 106.5q-31 0 -47 -2v62q61 6 119 6q115 0 211.5 -27t170 -81t115 -142t41.5 -203q0 -224 -157.5 -354.5t-427.5 -130.5h-404v8q10 38 12 71t2 136v1157h-434
l-196 -1147q-23 -128 -52 -180.5t-88 -52.5q-43 0 -80 16v150h21q36 -19 57 -19q64 0 88 142l160 938q15 87 15.5 131.5t-7.5 74.5v9z" />
    <glyph glyph-name="uni0409" unicode="&#x459;" horiz-adv-x="1886" 
d="M354 1434h715v-9q-10 -38 -12 -70.5t-2 -135.5v-1158h184q192 0 305 110.5t113 297.5q0 190 -115 296.5t-307 106.5q-31 0 -47 -2v62q61 6 119 6q115 0 211.5 -27t170 -81t115 -142t41.5 -203q0 -224 -157.5 -354.5t-427.5 -130.5h-404v8q10 38 12 71t2 136v1157h-434
l-196 -1147q-23 -128 -52 -180.5t-88 -52.5q-43 0 -80 16v150h21q36 -19 57 -19q64 0 88 142l160 938q15 87 15.5 131.5t-7.5 74.5v9z" />
    <glyph glyph-name="uni040A" unicode="&#x40a;" horiz-adv-x="2060" 
d="M195 1434h198v-9q-10 -38 -12 -70.5t-2 -135.5v-222h676v222q0 148 -11 206v9h199v-9q-10 -38 -12 -70.5t-2 -135.5v-1158h184q192 0 305 110.5t113 297.5q0 190 -115 296.5t-307 106.5q-31 0 -47 -2v62q62 6 119 6q115 0 211.5 -27t170 -81t115 -142t41.5 -203
q0 -224 -157.5 -354.5t-427.5 -130.5h-390v8q11 58 11 207v721h-676v-721q0 -103 2 -136t12 -71v-8h-198v8q10 53 10 207v1004q0 153 -10 206v9z" />
    <glyph glyph-name="uni040A" unicode="&#x45a;" horiz-adv-x="2060" 
d="M195 1434h198v-9q-10 -38 -12 -70.5t-2 -135.5v-222h676v222q0 148 -11 206v9h199v-9q-10 -38 -12 -70.5t-2 -135.5v-1158h184q192 0 305 110.5t113 297.5q0 190 -115 296.5t-307 106.5q-31 0 -47 -2v62q62 6 119 6q115 0 211.5 -27t170 -81t115 -142t41.5 -203
q0 -224 -157.5 -354.5t-427.5 -130.5h-390v8q11 58 11 207v721h-676v-721q0 -103 2 -136t12 -71v-8h-198v8q10 53 10 207v1004q0 153 -10 206v9z" />
    <glyph glyph-name="uni040B" unicode="&#x40b;" horiz-adv-x="1550" 
d="M41 1434h940v-76h-8q-38 10 -68.5 12t-118.5 2h-188v-608q150 143 358 143q218 0 334.5 -112t116.5 -285v-295q0 -154 10 -207v-8h-198v8q10 38 12 71t2 136v279q0 149 -76.5 240t-214.5 91q-204 0 -344 -143v-467q0 -137 8 -192l2 -15v-8h-194v8l2 15q8 55 8 192v1157
h-188q-88 0 -118.5 -2t-68.5 -12h-8v76z" />
    <glyph glyph-name="uni040B" unicode="&#x45b;" horiz-adv-x="1550" 
d="M41 1434h940v-76h-8q-38 10 -68.5 12t-118.5 2h-188v-608q150 143 358 143q218 0 334.5 -112t116.5 -285v-295q0 -154 10 -207v-8h-198v8q10 38 12 71t2 136v279q0 149 -76.5 240t-214.5 91q-204 0 -344 -143v-467q0 -137 8 -192l2 -15v-8h-194v8l2 15q8 55 8 192v1157
h-188q-88 0 -118.5 -2t-68.5 -12h-8v76z" />
    <glyph glyph-name="uni040C" unicode="&#x40c;" horiz-adv-x="1288" 
d="M195 1434h198v-9q-10 -38 -12 -70.5t-2 -135.5v-414l442 414q98 90 140.5 135t54.5 71l4 9h117v-7q-54 -38 -232 -208l-211 -201l387 -658q172 -293 269 -333l-2 -31q-58 -7 -110.5 5.5t-92.5 37t-79 65t-66.5 79.5t-57.5 91l-375 629l-188 -176v-512q0 -103 2 -136
t12 -71v-8h-198v8q10 53 10 207v1004q0 153 -10 206v9zM596 1618l223 328l82 -66l-268 -295z" />
    <glyph glyph-name="uni040C" unicode="&#x45c;" horiz-adv-x="1288" 
d="M195 1434h198v-9q-10 -38 -12 -70.5t-2 -135.5v-414l442 414q98 90 140.5 135t54.5 71l4 9h117v-7q-54 -38 -232 -208l-211 -201l387 -658q172 -293 269 -333l-2 -31q-58 -7 -110.5 5.5t-92.5 37t-79 65t-66.5 79.5t-57.5 91l-375 629l-188 -176v-512q0 -103 2 -136
t12 -71v-8h-198v8q10 53 10 207v1004q0 153 -10 206v9zM596 1618l223 328l82 -66l-268 -295z" />
    <glyph glyph-name="uni040E" unicode="&#x40e;" horiz-adv-x="1386" 
d="M72 1434h233v-4q4 -13 16 -33.5t25.5 -39t41 -56.5t46.5 -64l451 -639l389 639q13 21 32.5 52t29.5 47.5t21.5 36.5t17 33t7.5 24v4h91v-9q-36 -38 -125 -186l-549 -899q-124 -202 -219 -286.5t-207 -84.5q-129 0 -211 77.5t-82 199.5q0 117 80.5 190.5t189.5 73.5
q114 0 203 -80l-16 -29q-47 33 -109 33q-72 0 -119 -42t-47 -120q0 -74 50.5 -121t129.5 -47q61 0 133 50.5t136 156.5l82 133l-576 795q-15 21 -38 52t-33.5 45.5t-25 33.5t-25.5 31.5t-23 23.5v9zM514 1868h88v-2q0 -90 55 -148q53 -59 152 -59q89 0 146 53.5t61 155.5h88
q-5 -120 -86 -195.5t-209 -75.5t-209 75.5t-86 195.5z" />
    <glyph glyph-name="uni040E" unicode="&#x45e;" horiz-adv-x="1386" 
d="M72 1434h233v-4q4 -13 16 -33.5t25.5 -39t41 -56.5t46.5 -64l451 -639l389 639q13 21 32.5 52t29.5 47.5t21.5 36.5t17 33t7.5 24v4h91v-9q-36 -38 -125 -186l-549 -899q-124 -202 -219 -286.5t-207 -84.5q-129 0 -211 77.5t-82 199.5q0 117 80.5 190.5t189.5 73.5
q114 0 203 -80l-16 -29q-47 33 -109 33q-72 0 -119 -42t-47 -120q0 -74 50.5 -121t129.5 -47q61 0 133 50.5t136 156.5l82 133l-576 795q-15 21 -38 52t-33.5 45.5t-25 33.5t-25.5 31.5t-23 23.5v9zM514 1868h88v-2q0 -90 55 -148q53 -59 152 -59q89 0 146 53.5t61 155.5h88
q-5 -120 -86 -195.5t-209 -75.5t-209 75.5t-86 195.5z" />
    <glyph glyph-name="uni040F" unicode="&#x40f;" horiz-adv-x="1433" 
d="M195 8q10 53 10 207v1004q0 153 -10 206v9h198v-9q-10 -38 -12 -70.5t-2 -135.5v-1158h676v1158q0 99 -2.5 133t-12.5 73v9h199v-9q-10 -53 -10 -206v-1004q0 -154 10 -207v-8h-491v-225h-62v225h-491v8z" />
    <glyph glyph-name="uni040F" unicode="&#x45f;" horiz-adv-x="1433" 
d="M195 8q10 53 10 207v1004q0 153 -10 206v9h198v-9q-10 -38 -12 -70.5t-2 -135.5v-1158h676v1158q0 99 -2.5 133t-12.5 73v9h199v-9q-10 -53 -10 -206v-1004q0 -154 10 -207v-8h-491v-225h-62v225h-491v8z" />
    <glyph glyph-name="uni0410" unicode="&#x410;" horiz-adv-x="1228" 
d="M532 1434q94 0 158 43l447 -1262q52 -148 82 -207v-8h-203v8q0 52 -53 207l-58 162h-715l-61 -160q-14 -35 -24 -64.5t-16 -50t-9.5 -36t-4.5 -26t-1.5 -16t0 -10.5t0.5 -6v-8h-105v8q26 52 88 207zM215 438h670l-318 908z" />
    <glyph glyph-name="uni0410" unicode="&#x430;" horiz-adv-x="1228" 
d="M532 1434q94 0 158 43l447 -1262q52 -148 82 -207v-8h-203v8q0 52 -53 207l-58 162h-715l-61 -160q-14 -35 -24 -64.5t-16 -50t-9.5 -36t-4.5 -26t-1.5 -16t0 -10.5t0.5 -6v-8h-105v8q26 52 88 207zM215 438h670l-318 908z" />
    <glyph glyph-name="uni0411" unicode="&#x411;" horiz-adv-x="1290" 
d="M195 1434h849v-76h-8q-38 10 -68 12t-118 2h-471v-1311h184q192 0 305 110.5t113 297.5q0 190 -115 296.5t-307 106.5q-31 0 -47 -2v62q62 6 119 6q115 0 211.5 -27t170 -81t115 -142t41.5 -203q0 -224 -157.5 -354.5t-427.5 -130.5h-389v8q10 53 10 207v1004
q0 153 -10 206v9z" />
    <glyph glyph-name="uni0411" unicode="&#x431;" horiz-adv-x="1290" 
d="M195 1434h849v-76h-8q-38 10 -68 12t-118 2h-471v-1311h184q192 0 305 110.5t113 297.5q0 190 -115 296.5t-307 106.5q-31 0 -47 -2v62q62 6 119 6q115 0 211.5 -27t170 -81t115 -142t41.5 -203q0 -224 -157.5 -354.5t-427.5 -130.5h-389v8q10 53 10 207v1004
q0 153 -10 206v9z" />
    <glyph glyph-name="uni0412" unicode="&#x412;" horiz-adv-x="1320" 
d="M586 1434q202 0 321 -80t119 -217q0 -98 -57.5 -170.5t-157.5 -104.5q218 -17 343.5 -124.5t125.5 -278.5q0 -212 -156 -335.5t-422 -123.5h-507v8q10 53 10 207v1004q0 153 -10 206v9h391zM379 61h303q193 0 305.5 104.5t112.5 285.5q0 174 -140.5 269t-388.5 103l-69 2
v56l49 4q139 11 217 72t78 169q0 114 -76 180t-205 66h-186v-1311z" />
    <glyph glyph-name="uni0412" unicode="&#x432;" horiz-adv-x="1320" 
d="M586 1434q202 0 321 -80t119 -217q0 -98 -57.5 -170.5t-157.5 -104.5q218 -17 343.5 -124.5t125.5 -278.5q0 -212 -156 -335.5t-422 -123.5h-507v8q10 53 10 207v1004q0 153 -10 206v9h391zM379 61h303q193 0 305.5 104.5t112.5 285.5q0 174 -140.5 269t-388.5 103l-69 2
v56l49 4q139 11 217 72t78 169q0 114 -76 180t-205 66h-186v-1311z" />
    <glyph glyph-name="uni0413" unicode="&#x413;" horiz-adv-x="983" 
d="M195 1434h727v-76h-9q-38 10 -68 12t-118 2h-348v-1157q0 -103 2 -136t12 -71v-8h-198v8q10 53 10 207v1004q0 153 -10 206v9z" />
    <glyph glyph-name="uni0413" unicode="&#x433;" horiz-adv-x="983" 
d="M195 1434h727v-76h-9q-38 10 -68 12t-118 2h-348v-1157q0 -103 2 -136t12 -71v-8h-198v8q10 53 10 207v1004q0 153 -10 206v9z" />
    <glyph glyph-name="uni0414" unicode="&#x414;" horiz-adv-x="1382" 
d="M625 1434q93 0 157 43l502 -1416h129v-323h-37q-2 66 -4 103t-10.5 70.5t-19 47.5t-33.5 25.5t-50 13.5t-73 2h-1000q-46 0 -73 -2t-50 -13.5t-33.5 -25.5t-19 -47.5t-10.5 -70.5t-4 -103h-37v323h131zM162 61h946l-449 1285z" />
    <glyph glyph-name="uni0414" unicode="&#x434;" horiz-adv-x="1382" 
d="M625 1434q93 0 157 43l502 -1416h129v-323h-37q-2 66 -4 103t-10.5 70.5t-19 47.5t-33.5 25.5t-50 13.5t-73 2h-1000q-46 0 -73 -2t-50 -13.5t-33.5 -25.5t-19 -47.5t-10.5 -70.5t-4 -103h-37v323h131zM162 61h946l-449 1285z" />
    <glyph glyph-name="uni0415" unicode="&#x415;" horiz-adv-x="1116" 
d="M195 1434h815v-72h-6q-51 10 -189 10h-436v-375h471v-61h-471v-875h491q99 0 133.5 2.5t73.5 12.5h8v-76h-890v8q10 53 10 207v1004q0 153 -10 206v9z" />
    <glyph glyph-name="uni0415" unicode="&#x435;" horiz-adv-x="1116" 
d="M195 1434h815v-72h-6q-51 10 -189 10h-436v-375h471v-61h-471v-875h491q99 0 133.5 2.5t73.5 12.5h8v-76h-890v8q10 53 10 207v1004q0 153 -10 206v9z" />
    <glyph glyph-name="uni0416" unicode="&#x416;" horiz-adv-x="1990" 
d="M152 1434h116l4 -9q21 -47 117 -135l520 -485v414q0 103 -2 135.5t-12 70.5v9h201v-9q-10 -39 -12.5 -73t-2.5 -133v-414l521 485q94 86 116 135l4 9h117v-7q-49 -35 -184 -163l-258 -246l387 -658q172 -294 268 -333l-2 -31q-58 -7 -110.5 5.5t-92 36.5t-78.5 65
t-66.5 80t-57.5 91l-375 629l-189 -176v-512q0 -99 2.5 -133.5t12.5 -73.5v-8h-201v8q10 38 12 71t2 136v512l-188 176l-375 -629q-30 -52 -57.5 -91t-66.5 -80t-78.5 -65t-92 -36.5t-110.5 -5.5l-2 31q96 39 268 333l387 658l-258 246q-135 128 -184 163v7z" />
    <glyph glyph-name="uni0416" unicode="&#x436;" horiz-adv-x="1990" 
d="M152 1434h116l4 -9q21 -47 117 -135l520 -485v414q0 103 -2 135.5t-12 70.5v9h201v-9q-10 -39 -12.5 -73t-2.5 -133v-414l521 485q94 86 116 135l4 9h117v-7q-49 -35 -184 -163l-258 -246l387 -658q172 -294 268 -333l-2 -31q-58 -7 -110.5 5.5t-92 36.5t-78.5 65
t-66.5 80t-57.5 91l-375 629l-189 -176v-512q0 -99 2.5 -133.5t12.5 -73.5v-8h-201v8q10 38 12 71t2 136v512l-188 176l-375 -629q-30 -52 -57.5 -91t-66.5 -80t-78.5 -65t-92 -36.5t-110.5 -5.5l-2 31q96 39 268 333l387 658l-258 246q-135 128 -184 163v7z" />
    <glyph glyph-name="uni0417" unicode="&#x417;" horiz-adv-x="1122" 
d="M170 1313q62 73 157.5 113t202.5 40q147 0 252 -73.5t105 -206.5q0 -89 -55.5 -166.5t-155.5 -116.5q79 -9 149.5 -41t125.5 -84t87.5 -130t32.5 -171q0 -100 -43 -191t-116.5 -158t-178 -106.5t-221.5 -39.5q-170 0 -298.5 76t-193.5 192v172h37q24 -163 143.5 -271
t286.5 -108q104 0 194 47t148 141.5t58 217.5q0 185 -113.5 285t-322.5 100q-31 0 -66 -3v60q161 28 251.5 106t90.5 189q0 103 -57.5 161t-143.5 58q-118 0 -204 -71t-115 -226h-37v205z" />
    <glyph glyph-name="uni0417" unicode="&#x437;" horiz-adv-x="1122" 
d="M170 1313q62 73 157.5 113t202.5 40q147 0 252 -73.5t105 -206.5q0 -89 -55.5 -166.5t-155.5 -116.5q79 -9 149.5 -41t125.5 -84t87.5 -130t32.5 -171q0 -100 -43 -191t-116.5 -158t-178 -106.5t-221.5 -39.5q-170 0 -298.5 76t-193.5 192v172h37q24 -163 143.5 -271
t286.5 -108q104 0 194 47t148 141.5t58 217.5q0 185 -113.5 285t-322.5 100q-31 0 -66 -3v60q161 28 251.5 106t90.5 189q0 103 -57.5 161t-143.5 58q-118 0 -204 -71t-115 -226h-37v205z" />
    <glyph glyph-name="uni0418" unicode="&#x418;" horiz-adv-x="1495" 
d="M195 1434h198v-9q-10 -38 -12 -70.5t-2 -135.5v-938l883 1163h38q-10 -55 -10 -195v-1034q0 -154 10 -207v-8h-198v8q10 38 12 71t2 136v938l-883 -1163h-38q10 55 10 194v1035q0 153 -10 206v9z" />
    <glyph glyph-name="uni0418" unicode="&#x438;" horiz-adv-x="1495" 
d="M195 1434h198v-9q-10 -38 -12 -70.5t-2 -135.5v-938l883 1163h38q-10 -55 -10 -195v-1034q0 -154 10 -207v-8h-198v8q10 38 12 71t2 136v938l-883 -1163h-38q10 55 10 194v1035q0 153 -10 206v9z" />
    <glyph glyph-name="uni0419" unicode="&#x419;" horiz-adv-x="1495" 
d="M195 1434h198v-9q-10 -38 -12 -70.5t-2 -135.5v-938l883 1163h38q-10 -55 -10 -195v-1034q0 -154 10 -207v-8h-198v8q10 38 12 71t2 136v938l-883 -1163h-38q10 55 10 194v1035q0 153 -10 206v9zM453 1868h88v-2q0 -90 55 -148q53 -59 152 -59q89 0 145.5 53.5
t60.5 155.5h88q-5 -120 -85.5 -195.5t-208.5 -75.5t-209 75.5t-86 195.5z" />
    <glyph glyph-name="uni0419" unicode="&#x439;" horiz-adv-x="1495" 
d="M195 1434h198v-9q-10 -38 -12 -70.5t-2 -135.5v-938l883 1163h38q-10 -55 -10 -195v-1034q0 -154 10 -207v-8h-198v8q10 38 12 71t2 136v938l-883 -1163h-38q10 55 10 194v1035q0 153 -10 206v9zM453 1868h88v-2q0 -90 55 -148q53 -59 152 -59q89 0 145.5 53.5
t60.5 155.5h88q-5 -120 -85.5 -195.5t-208.5 -75.5t-209 75.5t-86 195.5z" />
    <glyph glyph-name="uni041A" unicode="&#x41a;" horiz-adv-x="1288" 
d="M195 1434h198v-9q-10 -38 -12 -70.5t-2 -135.5v-414l442 414q98 90 140.5 135t54.5 71l4 9h117v-7q-54 -38 -232 -208l-211 -201l387 -658q172 -293 269 -333l-2 -31q-58 -7 -110.5 5.5t-92.5 37t-79 65t-66.5 79.5t-57.5 91l-375 629l-188 -176v-512q0 -103 2 -136
t12 -71v-8h-198v8q10 53 10 207v1004q0 153 -10 206v9z" />
    <glyph glyph-name="uni041A" unicode="&#x43a;" horiz-adv-x="1288" 
d="M195 1434h198v-9q-10 -38 -12 -70.5t-2 -135.5v-414l442 414q98 90 140.5 135t54.5 71l4 9h117v-7q-54 -38 -232 -208l-211 -201l387 -658q172 -293 269 -333l-2 -31q-58 -7 -110.5 5.5t-92.5 37t-79 65t-66.5 79.5t-57.5 91l-375 629l-188 -176v-512q0 -103 2 -136
t12 -71v-8h-198v8q10 53 10 207v1004q0 153 -10 206v9z" />
    <glyph glyph-name="uni041B" unicode="&#x41b;" horiz-adv-x="1187" 
d="M1178 0h-201v8q0 47 -53 207l-379 1124l-416 -1124q-55 -148 -55 -207v-8h-105v8q36 72 88 209l455 1217q94 0 158 43l428 -1262q46 -139 80 -207v-8z" />
    <glyph glyph-name="uni041B" unicode="&#x43b;" horiz-adv-x="1187" 
d="M1178 0h-201v8q0 47 -53 207l-379 1124l-416 -1124q-55 -148 -55 -207v-8h-105v8q36 72 88 209l455 1217q94 0 158 43l428 -1262q46 -139 80 -207v-8z" />
    <glyph glyph-name="uni041C" unicode="&#x41c;" horiz-adv-x="1720" 
d="M195 1434h38l646 -1037l608 1037h39q-10 -66 -10 -195v-1024q0 -154 10 -207v-8h-199v8q10 38 12 71t2 136v848l-505 -860h-41l-529 848v-836q0 -99 2.5 -133.5t12.5 -73.5v-8h-86v8q10 53 10 207v1024q0 129 -10 195z" />
    <glyph glyph-name="uni041C" unicode="&#x43c;" horiz-adv-x="1720" 
d="M195 1434h38l646 -1037l608 1037h39q-10 -66 -10 -195v-1024q0 -154 10 -207v-8h-199v8q10 38 12 71t2 136v848l-505 -860h-41l-529 848v-836q0 -99 2.5 -133.5t12.5 -73.5v-8h-86v8q10 53 10 207v1024q0 129 -10 195z" />
    <glyph glyph-name="uni041D" unicode="&#x41d;" horiz-adv-x="1433" 
d="M1040 1434h199v-9q-10 -53 -10 -206v-1004q0 -154 10 -207v-8h-199v8q10 39 12.5 73.5t2.5 133.5v721h-676v-721q0 -103 2 -136t12 -71v-8h-198v8q10 53 10 207v1004q0 153 -10 206v9h198v-9q-10 -38 -12 -70.5t-2 -135.5v-222h676v222q0 99 -2.5 133t-12.5 73v9z" />
    <glyph glyph-name="uni041D" unicode="&#x43d;" horiz-adv-x="1433" 
d="M1040 1434h199v-9q-10 -53 -10 -206v-1004q0 -154 10 -207v-8h-199v8q10 39 12.5 73.5t2.5 133.5v721h-676v-721q0 -103 2 -136t12 -71v-8h-198v8q10 53 10 207v1004q0 153 -10 206v9h198v-9q-10 -38 -12 -70.5t-2 -135.5v-222h676v222q0 99 -2.5 133t-12.5 73v9z" />
    <glyph glyph-name="uni041E" unicode="&#x41e;" horiz-adv-x="1638" 
d="M819 -33q-208 0 -382 101t-275 275t-101 382t101 382t275 275t382 101t382 -101t275 -275t101 -382t-101 -382t-275 -275t-382 -101zM246 725q0 -192 69.5 -351t195.5 -252t282 -93q171 0 309 93t214.5 252t76.5 351q0 193 -70 352t-196.5 251.5t-284.5 92.5
q-170 0 -307 -92.5t-213 -251.5t-76 -352z" />
    <glyph glyph-name="uni041E" unicode="&#x43e;" horiz-adv-x="1638" 
d="M819 -33q-208 0 -382 101t-275 275t-101 382t101 382t275 275t382 101t382 -101t275 -275t101 -382t-101 -382t-275 -275t-382 -101zM246 725q0 -192 69.5 -351t195.5 -252t282 -93q171 0 309 93t214.5 252t76.5 351q0 193 -70 352t-196.5 251.5t-284.5 92.5
q-170 0 -307 -92.5t-213 -251.5t-76 -352z" />
    <glyph glyph-name="uni041F" unicode="&#x41f;" horiz-adv-x="1433" 
d="M195 1434h1044v-9q-10 -53 -10 -206v-1004q0 -154 10 -207v-8h-199v8q10 39 12.5 73.5t2.5 133.5v1157h-676v-1157q0 -103 2 -136t12 -71v-8h-198v8q10 53 10 207v1004q0 153 -10 206v9z" />
    <glyph glyph-name="uni041F" unicode="&#x43f;" horiz-adv-x="1433" 
d="M195 1434h1044v-9q-10 -53 -10 -206v-1004q0 -154 10 -207v-8h-199v8q10 39 12.5 73.5t2.5 133.5v1157h-676v-1157q0 -103 2 -136t12 -71v-8h-198v8q10 53 10 207v1004q0 153 -10 206v9z" />
    <glyph glyph-name="uni0420" unicode="&#x420;" horiz-adv-x="1210" 
d="M584 1434q281 0 433 -117.5t152 -335.5q0 -220 -152 -352.5t-401 -132.5q-52 0 -110 6v61h29q215 0 330.5 105t115.5 297q0 174 -110.5 290.5t-307.5 116.5h-184v-1157q0 -103 2 -136t12 -71v-8h-198v8q10 53 10 207v1004q0 153 -10 206v9h389z" />
    <glyph glyph-name="uni0420" unicode="&#x440;" horiz-adv-x="1210" 
d="M584 1434q281 0 433 -117.5t152 -335.5q0 -220 -152 -352.5t-401 -132.5q-52 0 -110 6v61h29q215 0 330.5 105t115.5 297q0 174 -110.5 290.5t-307.5 116.5h-184v-1157q0 -103 2 -136t12 -71v-8h-198v8q10 53 10 207v1004q0 153 -10 206v9h389z" />
    <glyph glyph-name="uni0421" unicode="&#x421;" horiz-adv-x="1488" 
d="M1386 1247v-203h-36q-28 119 -104 206t-177 129t-215 42q-90 0 -176.5 -26.5t-165 -83t-137.5 -136.5t-94 -196.5t-35 -253.5q0 -142 33 -259t89.5 -197t132 -135t158.5 -80t172 -25q182 0 329 101.5t190 275.5h36v-203q-108 -108 -256 -172t-315 -64q-156 0 -295.5 59.5
t-240 161t-159.5 241.5t-59 296t59 296t159.5 241.5t240 161t295.5 59.5q167 0 315 -64t256 -172z" />
    <glyph glyph-name="uni0421" unicode="&#x441;" horiz-adv-x="1488" 
d="M1386 1247v-203h-36q-28 119 -104 206t-177 129t-215 42q-90 0 -176.5 -26.5t-165 -83t-137.5 -136.5t-94 -196.5t-35 -253.5q0 -142 33 -259t89.5 -197t132 -135t158.5 -80t172 -25q182 0 329 101.5t190 275.5h36v-203q-108 -108 -256 -172t-315 -64q-156 0 -295.5 59.5
t-240 161t-159.5 241.5t-59 296t59 296t159.5 241.5t240 161t295.5 59.5q167 0 315 -64t256 -172z" />
    <glyph glyph-name="uni0422" unicode="&#x422;" horiz-adv-x="1024" 
d="M41 1434h940v-76h-8q-38 10 -68.5 12t-118.5 2h-188v-1157q0 -137 8 -192l2 -15v-8h-194v8l2 15q8 55 8 192v1157h-188q-88 0 -118.5 -2t-68.5 -12h-8v76z" />
    <glyph glyph-name="uni0422" unicode="&#x442;" horiz-adv-x="1024" 
d="M41 1434h940v-76h-8q-38 10 -68.5 12t-118.5 2h-188v-1157q0 -137 8 -192l2 -15v-8h-194v8l2 15q8 55 8 192v1157h-188q-88 0 -118.5 -2t-68.5 -12h-8v76z" />
    <glyph glyph-name="uni0423" unicode="&#x423;" horiz-adv-x="1386" 
d="M72 1434h233v-4q4 -13 16 -33.5t25.5 -39t41 -56.5t46.5 -64l451 -639l389 639q13 21 32.5 52t29.5 47.5t21.5 36.5t17 33t7.5 24v4h91v-9q-36 -38 -125 -186l-549 -899q-124 -202 -219 -286.5t-207 -84.5q-129 0 -211 77.5t-82 199.5q0 117 80.5 190.5t189.5 73.5
q114 0 203 -80l-16 -29q-47 33 -109 33q-72 0 -119 -42t-47 -120q0 -74 50.5 -121t129.5 -47q61 0 133 50.5t136 156.5l82 133l-576 795q-15 21 -38 52t-33.5 45.5t-25 33.5t-25.5 31.5t-23 23.5v9z" />
    <glyph glyph-name="uni0423" unicode="&#x443;" horiz-adv-x="1386" 
d="M72 1434h233v-4q4 -13 16 -33.5t25.5 -39t41 -56.5t46.5 -64l451 -639l389 639q13 21 32.5 52t29.5 47.5t21.5 36.5t17 33t7.5 24v4h91v-9q-36 -38 -125 -186l-549 -899q-124 -202 -219 -286.5t-207 -84.5q-129 0 -211 77.5t-82 199.5q0 117 80.5 190.5t189.5 73.5
q114 0 203 -80l-16 -29q-47 33 -109 33q-72 0 -119 -42t-47 -120q0 -74 50.5 -121t129.5 -47q61 0 133 50.5t136 156.5l82 133l-576 795q-15 21 -38 52t-33.5 45.5t-25 33.5t-25.5 31.5t-23 23.5v9z" />
    <glyph glyph-name="uni0424" unicode="&#x424;" horiz-adv-x="1773" 
d="M791 1565h194v-9q-10 -51 -10 -124q225 -15 399.5 -101.5t271.5 -229.5t97 -321q0 -177 -97 -319t-271.5 -227.5t-399.5 -100.5q0 -74 10 -125v-8h-194v8q10 51 10 125q-169 12 -312 64.5t-244 137t-157.5 200.5t-56.5 249q0 177 97 319t272 228t401 101q0 73 -10 124v9z
M215 762q0 -231 160.5 -387.5t425.5 -179.5v1175q-180 -18 -315.5 -108t-203 -220t-67.5 -280zM975 195q136 14 248 69.5t184.5 138.5t112 186t39.5 214q0 231 -160.5 387.5t-423.5 179.5v-1175z" />
    <glyph glyph-name="uni0424" unicode="&#x444;" horiz-adv-x="1773" 
d="M791 1565h194v-9q-10 -51 -10 -124q225 -15 399.5 -101.5t271.5 -229.5t97 -321q0 -177 -97 -319t-271.5 -227.5t-399.5 -100.5q0 -74 10 -125v-8h-194v8q10 51 10 125q-169 12 -312 64.5t-244 137t-157.5 200.5t-56.5 249q0 177 97 319t272 228t401 101q0 73 -10 124v9z
M215 762q0 -231 160.5 -387.5t425.5 -179.5v1175q-180 -18 -315.5 -108t-203 -220t-67.5 -280zM975 195q136 14 248 69.5t184.5 138.5t112 186t39.5 214q0 231 -160.5 387.5t-423.5 179.5v-1175z" />
    <glyph glyph-name="uni0425" unicode="&#x425;" horiz-adv-x="1316" 
d="M20 1434h240l2 -9q8 -24 27 -52q19 -27 78 -107l303 -410l288 408q24 34 41 59t26 38.5t15.5 26t7.5 15t4 12t3 10.5l2 9h98v-9q-48 -48 -160 -208l-286 -412l434 -588q118 -161 166 -209v-8h-240l-2 8q-6 20 -22 44t-84 116l-383 518l-365 -518q-63 -90 -79.5 -116
t-22.5 -44l-2 -8h-99v8q47 47 162 209l367 522l-353 478q-118 160 -166 208v9z" />
    <glyph glyph-name="uni0425" unicode="&#x445;" horiz-adv-x="1316" 
d="M20 1434h240l2 -9q8 -24 27 -52q19 -27 78 -107l303 -410l288 408q24 34 41 59t26 38.5t15.5 26t7.5 15t4 12t3 10.5l2 9h98v-9q-48 -48 -160 -208l-286 -412l434 -588q118 -161 166 -209v-8h-240l-2 8q-6 20 -22 44t-84 116l-383 518l-365 -518q-63 -90 -79.5 -116
t-22.5 -44l-2 -8h-99v8q47 47 162 209l367 522l-353 478q-118 160 -166 208v9z" />
    <glyph glyph-name="uni0426" unicode="&#x426;" horiz-adv-x="1433" 
d="M195 1434h198v-9q-10 -38 -12 -70.5t-2 -135.5v-1158h676v1158q0 99 -2.5 133t-12.5 73v9h199v-9q-10 -53 -10 -206v-1158h129v-323h-37q-2 66 -4 103t-10.5 70t-19 47.5t-34 25.5t-50.5 13.5t-73 2.5h-935v8q10 53 10 207v1004q0 153 -10 206v9z" />
    <glyph glyph-name="uni0426" unicode="&#x446;" horiz-adv-x="1433" 
d="M195 1434h198v-9q-10 -38 -12 -70.5t-2 -135.5v-1158h676v1158q0 99 -2.5 133t-12.5 73v9h199v-9q-10 -53 -10 -206v-1158h129v-323h-37q-2 66 -4 103t-10.5 70t-19 47.5t-34 25.5t-50.5 13.5t-73 2.5h-935v8q10 53 10 207v1004q0 153 -10 206v9z" />
    <glyph glyph-name="uni0427" unicode="&#x427;" horiz-adv-x="1331" 
d="M133 1434h199v-9q-10 -39 -12.5 -73t-2.5 -133v-238q0 -149 76.5 -240.5t214.5 -91.5q203 0 344 144v426q0 103 -2 135.5t-12 70.5v9h199v-9q-11 -58 -11 -206v-1004q0 -149 11 -207v-8h-199v8q10 38 12 71t2 136v496q-151 -144 -358 -144q-218 0 -334.5 112.5
t-116.5 285.5v254q0 153 -10 206v9z" />
    <glyph glyph-name="uni0427" unicode="&#x447;" horiz-adv-x="1331" 
d="M133 1434h199v-9q-10 -39 -12.5 -73t-2.5 -133v-238q0 -149 76.5 -240.5t214.5 -91.5q203 0 344 144v426q0 103 -2 135.5t-12 70.5v9h199v-9q-11 -58 -11 -206v-1004q0 -149 11 -207v-8h-199v8q10 38 12 71t2 136v496q-151 -144 -358 -144q-218 0 -334.5 112.5
t-116.5 285.5v254q0 153 -10 206v9z" />
    <glyph glyph-name="uni0428" unicode="&#x428;" horiz-adv-x="1849" 
d="M195 1434h198v-9q-10 -53 -10 -206v-1158h455v1158q0 148 -11 206v9h195v-9q-10 -53 -10 -206v-1158h454v1158q0 153 -10 206v9h199v-9q-10 -39 -12.5 -73t-2.5 -133v-1004q0 -99 2.5 -133.5t12.5 -73.5v-8h-1460v8q10 38 12 71t2 136v1004q0 103 -2 135.5t-12 70.5v9z
" />
    <glyph glyph-name="uni0428" unicode="&#x448;" horiz-adv-x="1849" 
d="M195 1434h198v-9q-10 -53 -10 -206v-1158h455v1158q0 148 -11 206v9h195v-9q-10 -53 -10 -206v-1158h454v1158q0 153 -10 206v9h199v-9q-10 -39 -12.5 -73t-2.5 -133v-1004q0 -99 2.5 -133.5t12.5 -73.5v-8h-1460v8q10 38 12 71t2 136v1004q0 103 -2 135.5t-12 70.5v9z
" />
    <glyph glyph-name="uni0429" unicode="&#x429;" horiz-adv-x="1849" 
d="M195 1434h198v-9q-10 -53 -10 -206v-1158h455v1158q0 148 -11 206v9h195v-9q-10 -53 -10 -206v-1158h454v1158q0 153 -10 206v9h199v-9q-10 -39 -12.5 -73t-2.5 -133v-1158h107v-323h-37q-5 87 -14.5 135.5t-32 78.5t-54.5 39t-89 9h-1325v8q10 38 12 71t2 136v1004
q0 103 -2 135.5t-12 70.5v9z" />
    <glyph glyph-name="uni0429" unicode="&#x449;" horiz-adv-x="1849" 
d="M195 1434h198v-9q-10 -53 -10 -206v-1158h455v1158q0 148 -11 206v9h195v-9q-10 -53 -10 -206v-1158h454v1158q0 153 -10 206v9h199v-9q-10 -39 -12.5 -73t-2.5 -133v-1158h107v-323h-37q-5 87 -14.5 135.5t-32 78.5t-54.5 39t-89 9h-1325v8q10 38 12 71t2 136v1004
q0 103 -2 135.5t-12 70.5v9z" />
    <glyph glyph-name="uni042A" unicode="&#x42a;" horiz-adv-x="1361" 
d="M51 1434h496v-9q-10 -39 -12.5 -70.5t-2.5 -115.5v-1178h183q192 0 305 110.5t113 297.5q0 190 -115 296.5t-307 106.5q-31 0 -47 -2v62q61 6 118 6q115 0 211.5 -27t170.5 -81t115.5 -142t41.5 -203q0 -224 -158 -354.5t-428 -130.5h-387v8q10 53 10 187v1177h-112
q-88 0 -118.5 -2t-68.5 -12h-8v76z" />
    <glyph glyph-name="uni042A" unicode="&#x44a;" horiz-adv-x="1361" 
d="M51 1434h496v-9q-10 -39 -12.5 -70.5t-2.5 -115.5v-1178h183q192 0 305 110.5t113 297.5q0 190 -115 296.5t-307 106.5q-31 0 -47 -2v62q61 6 118 6q115 0 211.5 -27t170.5 -81t115.5 -142t41.5 -203q0 -224 -158 -354.5t-428 -130.5h-387v8q10 53 10 187v1177h-112
q-88 0 -118.5 -2t-68.5 -12h-8v76z" />
    <glyph glyph-name="uni042B" unicode="&#x42b;" horiz-adv-x="1835" 
d="M1446 1434h194v-9q-10 -53 -10 -186v-1044q0 -134 10 -187v-8h-194v8q10 53 10 187v1044q0 133 -10 186v9zM195 0v8q10 53 10 187v1044q0 133 -10 186v9h198v-9q-10 -38 -12 -68t-2 -118v-1178h184q192 0 305 110.5t113 297.5q0 190 -115 296.5t-307 106.5q-31 0 -47 -2
v62q62 6 119 6q115 0 211.5 -27t170 -81t115 -142t41.5 -203q0 -224 -157.5 -354.5t-427.5 -130.5h-389z" />
    <glyph glyph-name="uni042B" unicode="&#x44b;" horiz-adv-x="1835" 
d="M1446 1434h194v-9q-10 -53 -10 -186v-1044q0 -134 10 -187v-8h-194v8q10 53 10 187v1044q0 133 -10 186v9zM195 0v8q10 53 10 187v1044q0 133 -10 186v9h198v-9q-10 -38 -12 -68t-2 -118v-1178h184q192 0 305 110.5t113 297.5q0 190 -115 296.5t-307 106.5q-31 0 -47 -2
v62q62 6 119 6q115 0 211.5 -27t170 -81t115 -142t41.5 -203q0 -224 -157.5 -354.5t-427.5 -130.5h-389z" />
    <glyph glyph-name="uni042C" unicode="&#x42c;" horiz-adv-x="1210" 
d="M195 1434h198v-9q-10 -38 -12 -70.5t-2 -135.5v-1158h184q192 0 305 110.5t113 297.5q0 190 -115 296.5t-307 106.5q-31 0 -47 -2v62q62 6 119 6q115 0 211.5 -27t170 -81t115 -142t41.5 -203q0 -224 -157.5 -354.5t-427.5 -130.5h-389v8q10 53 10 207v1004
q0 153 -10 206v9z" />
    <glyph glyph-name="uni042C" unicode="&#x44c;" horiz-adv-x="1210" 
d="M195 1434h198v-9q-10 -38 -12 -70.5t-2 -135.5v-1158h184q192 0 305 110.5t113 297.5q0 190 -115 296.5t-307 106.5q-31 0 -47 -2v62q62 6 119 6q115 0 211.5 -27t170 -81t115 -142t41.5 -203q0 -224 -157.5 -354.5t-427.5 -130.5h-389v8q10 53 10 207v1004
q0 153 -10 206v9z" />
    <glyph glyph-name="uni042D" unicode="&#x42d;" horiz-adv-x="1488" 
d="M369 795q80 75 178 75q89 0 215 -65q41 -20 88.5 -46.5t72 -39.5t51 -23t46.5 -10q28 0 63 21l17 -25q-80 -74 -176 -74q-85 0 -213 66q-40 20 -88 46l-72 39t-50.5 22.5t-47.5 9.5q-31 0 -68 -21zM102 203v203h37q28 -119 104 -206t177 -129t215 -42q90 0 176.5 26.5
t165 83t137.5 136.5t94 196.5t35 253.5q0 141 -33.5 258.5t-89.5 197.5t-132 135t-159 80t-172 25q-182 0 -328.5 -101.5t-189.5 -275.5h-37v203q108 108 256.5 172t315.5 64q208 0 381 -101t272.5 -275t99.5 -382t-99.5 -382t-272.5 -275t-381 -101q-167 0 -315.5 64
t-256.5 172z" />
    <glyph glyph-name="uni042D" unicode="&#x44d;" horiz-adv-x="1488" 
d="M369 795q80 75 178 75q89 0 215 -65q41 -20 88.5 -46.5t72 -39.5t51 -23t46.5 -10q28 0 63 21l17 -25q-80 -74 -176 -74q-85 0 -213 66q-40 20 -88 46l-72 39t-50.5 22.5t-47.5 9.5q-31 0 -68 -21zM102 203v203h37q28 -119 104 -206t177 -129t215 -42q90 0 176.5 26.5
t165 83t137.5 136.5t94 196.5t35 253.5q0 141 -33.5 258.5t-89.5 197.5t-132 135t-159 80t-172 25q-182 0 -328.5 -101.5t-189.5 -275.5h-37v203q108 108 256.5 172t315.5 64q208 0 381 -101t272.5 -275t99.5 -382t-99.5 -382t-272.5 -275t-381 -101q-167 0 -315.5 64
t-256.5 172z" />
    <glyph glyph-name="uni042E" unicode="&#x42e;" horiz-adv-x="2230" 
d="M1411 -33q-156 0 -296 59t-241 160t-160.5 241t-60.5 296h-274v-508q0 -154 10 -207v-8h-194v8q10 53 10 207v1004q0 153 -10 206v9h194v-9q-10 -53 -10 -206v-435h276q15 194 118.5 354t272 252.5t365.5 92.5q208 0 382 -101t275 -275t101 -382t-101 -382t-275 -275
t-382 -101zM838 725q0 -192 69 -351t195 -252t282 -93q171 0 309 93t215 252t77 351q0 193 -70 352t-196.5 251.5t-284.5 92.5q-170 0 -307 -92.5t-213 -251.5t-76 -352z" />
    <glyph glyph-name="uni042E" unicode="&#x44e;" horiz-adv-x="2230" 
d="M1411 -33q-156 0 -296 59t-241 160t-160.5 241t-60.5 296h-274v-508q0 -154 10 -207v-8h-194v8q10 53 10 207v1004q0 153 -10 206v9h194v-9q-10 -53 -10 -206v-435h276q15 194 118.5 354t272 252.5t365.5 92.5q208 0 382 -101t275 -275t101 -382t-101 -382t-275 -275
t-382 -101zM838 725q0 -192 69 -351t195 -252t282 -93q171 0 309 93t215 252t77 351q0 193 -70 352t-196.5 251.5t-284.5 92.5q-170 0 -307 -92.5t-213 -251.5t-76 -352z" />
    <glyph glyph-name="uni042F" unicode="&#x42f;" horiz-adv-x="1370" 
d="M23 27q98 31 286 319l289 438q-209 12 -322.5 95.5t-113.5 226.5q0 155 140.5 241.5t395.5 86.5h478v-9q-11 -58 -11 -206v-1004q0 -149 11 -207v-8h-199v8q10 38 12 71t2 136v1157h-233q-201 0 -309.5 -71.5t-108.5 -204.5q0 -127 108 -196t308 -69h43l14 -26l-369 -553
q-43 -65 -81.5 -110.5t-90.5 -87t-114 -56.5t-133 -2z" />
    <glyph glyph-name="uni042F" unicode="&#x44f;" horiz-adv-x="1370" 
d="M23 27q98 31 286 319l289 438q-209 12 -322.5 95.5t-113.5 226.5q0 155 140.5 241.5t395.5 86.5h478v-9q-11 -58 -11 -206v-1004q0 -149 11 -207v-8h-199v8q10 38 12 71t2 136v1157h-233q-201 0 -309.5 -71.5t-108.5 -204.5q0 -127 108 -196t308 -69h43l14 -26l-369 -553
q-43 -65 -81.5 -110.5t-90.5 -87t-114 -56.5t-133 -2z" />
    <glyph glyph-name="uni0462" unicode="&#x462;" horiz-adv-x="1251" 
d="M0 1270h205v153q0 154 -10 207v8h198v-8q-10 -38 -12 -71t-2 -136v-153h686v-62h-686v-1147h184q192 0 305 110.5t113 297.5q0 190 -115 296.5t-307 106.5q-31 0 -47 -2v62q62 6 119 6q115 0 211.5 -27t170 -81t115 -142t41.5 -203q0 -224 -157.5 -354.5t-427.5 -130.5
h-389v8q10 53 10 207v993h-205v62z" />
    <glyph glyph-name="uni0462" unicode="&#x463;" horiz-adv-x="1251" 
d="M0 1270h205v153q0 154 -10 207v8h198v-8q-10 -38 -12 -71t-2 -136v-153h686v-62h-686v-1147h184q192 0 305 110.5t113 297.5q0 190 -115 296.5t-307 106.5q-31 0 -47 -2v62q62 6 119 6q115 0 211.5 -27t170 -81t115 -142t41.5 -203q0 -224 -157.5 -354.5t-427.5 -130.5
h-389v8q10 53 10 207v993h-205v62z" />
    <glyph glyph-name="uni046A" unicode="&#x46a;" horiz-adv-x="1992" 
d="M152 1434h1689v-7q-49 -35 -184 -163l-305 -289l415 -629q191 -289 287 -319l-2 -31q-31 -8 -63 -5.5t-58.5 6t-53.5 16.5t-49 26t-45.5 33.5t-42 39.5t-38.5 44t-36 47t-34 49l-407 608l-142 -133v-512q0 -99 2.5 -133.5t12.5 -73.5v-8h-203v8q10 38 12 71t2 136v512
l-141 133l-408 -608q-18 -27 -34 -49t-36 -47t-38.5 -44t-41.5 -39.5t-45.5 -33.5t-49.5 -26t-53 -16.5t-58 -6t-63 5.5l-2 31q94 30 286 319l416 629l-305 289q-135 128 -184 163v7zM305 1368l692 -645l691 645q4 4 0 4h-1383q-4 0 0 -4z" />
    <glyph glyph-name="uni046A" unicode="&#x46b;" horiz-adv-x="1992" 
d="M152 1434h1689v-7q-49 -35 -184 -163l-305 -289l415 -629q191 -289 287 -319l-2 -31q-31 -8 -63 -5.5t-58.5 6t-53.5 16.5t-49 26t-45.5 33.5t-42 39.5t-38.5 44t-36 47t-34 49l-407 608l-142 -133v-512q0 -99 2.5 -133.5t12.5 -73.5v-8h-203v8q10 38 12 71t2 136v512
l-141 133l-408 -608q-18 -27 -34 -49t-36 -47t-38.5 -44t-41.5 -39.5t-45.5 -33.5t-49.5 -26t-53 -16.5t-58 -6t-63 5.5l-2 31q94 30 286 319l416 629l-305 289q-135 128 -184 163v7zM305 1368l692 -645l691 645q4 4 0 4h-1383q-4 0 0 -4z" />
    <glyph glyph-name="uni0490" unicode="&#x490;" horiz-adv-x="983" 
d="M694 1434q76 0 112.5 20t54 73.5t24.5 168.5h37v-324h-543v-1157q0 -103 2 -136t12 -71v-8h-198v8q10 53 10 207v1024q0 133 -10 186v9h499z" />
    <glyph glyph-name="uni0490" unicode="&#x491;" horiz-adv-x="983" 
d="M694 1434q76 0 112.5 20t54 73.5t24.5 168.5h37v-324h-543v-1157q0 -103 2 -136t12 -71v-8h-198v8q10 53 10 207v1024q0 133 -10 186v9h499z" />
    <glyph glyph-name="uni1E20" unicode="&#x1e20;" horiz-adv-x="1550" 
d="M1386 1247v-203h-36q-28 119 -104 206t-177 129t-215 42q-90 0 -176.5 -26.5t-165 -83t-137.5 -136.5t-94 -196.5t-35 -253.5q0 -142 33 -259t89.5 -197t132 -135t158.5 -80t172 -25q111 0 210 42.5t171 125.5v344q0 122 -14 186v8h199v-8q-11 -58 -11 -186v-322
q-107 -117 -256 -184.5t-315 -67.5q-156 0 -295.5 59.5t-240 161t-159.5 241.5t-59 296t59 296t159.5 241.5t240 161t295.5 59.5q167 0 315 -64t256 -172zM438 1679v84h779v-84h-779z" />
    <glyph glyph-name="uni1E20" unicode="&#x1e21;" horiz-adv-x="1550" 
d="M1386 1247v-203h-36q-28 119 -104 206t-177 129t-215 42q-90 0 -176.5 -26.5t-165 -83t-137.5 -136.5t-94 -196.5t-35 -253.5q0 -142 33 -259t89.5 -197t132 -135t158.5 -80t172 -25q111 0 210 42.5t171 125.5v344q0 122 -14 186v8h199v-8q-11 -58 -11 -186v-322
q-107 -117 -256 -184.5t-315 -67.5q-156 0 -295.5 59.5t-240 161t-159.5 241.5t-59 296t59 296t159.5 241.5t240 161t295.5 59.5q167 0 315 -64t256 -172zM438 1679v84h779v-84h-779z" />
    <glyph glyph-name="Wgrave" unicode="&#x1e80;" horiz-adv-x="2045" 
d="M61 1434h207v-15q0 -65 49 -200l398 -1119l385 1366h8l428 -1362l340 1115q43 136 43 200v15h96v-9q-23 -44 -73 -206l-373 -1219q-37 0 -82 -11.5t-76 -31.5l-354 1135l-307 -1092q-37 0 -82 -11.5t-76 -31.5l-449 1262q-56 156 -82 206v9zM915 1860l82 65l224 -328
l-37 -32z" />
    <glyph glyph-name="Wgrave" unicode="&#x1e81;" horiz-adv-x="2045" 
d="M61 1434h207v-15q0 -65 49 -200l398 -1119l385 1366h8l428 -1362l340 1115q43 136 43 200v15h96v-9q-23 -44 -73 -206l-373 -1219q-37 0 -82 -11.5t-76 -31.5l-354 1135l-307 -1092q-37 0 -82 -11.5t-76 -31.5l-449 1262q-56 156 -82 206v9zM915 1860l82 65l224 -328
l-37 -32z" />
    <glyph glyph-name="Wacute" unicode="&#x1e82;" horiz-adv-x="2045" 
d="M61 1434h207v-15q0 -65 49 -200l398 -1119l385 1366h8l428 -1362l340 1115q43 136 43 200v15h96v-9q-23 -44 -73 -206l-373 -1219q-37 0 -82 -11.5t-76 -31.5l-354 1135l-307 -1092q-37 0 -82 -11.5t-76 -31.5l-449 1262q-56 156 -82 206v9zM969 1618l223 328l82 -66
l-268 -295z" />
    <glyph glyph-name="Wacute" unicode="&#x1e83;" horiz-adv-x="2045" 
d="M61 1434h207v-15q0 -65 49 -200l398 -1119l385 1366h8l428 -1362l340 1115q43 136 43 200v15h96v-9q-23 -44 -73 -206l-373 -1219q-37 0 -82 -11.5t-76 -31.5l-354 1135l-307 -1092q-37 0 -82 -11.5t-76 -31.5l-449 1262q-56 156 -82 206v9zM969 1618l223 328l82 -66
l-268 -295z" />
    <glyph glyph-name="Wdieresis" unicode="&#x1e84;" horiz-adv-x="2045" 
d="M61 1434h207v-15q0 -65 49 -200l398 -1119l385 1366h8l428 -1362l340 1115q43 136 43 200v15h96v-9q-23 -44 -73 -206l-373 -1219q-37 0 -82 -11.5t-76 -31.5l-354 1135l-307 -1092q-37 0 -82 -11.5t-76 -31.5l-449 1262q-56 156 -82 206v9zM838 1741q0 39 26.5 65.5
t65.5 26.5q38 0 65 -27t27 -65q0 -39 -26.5 -65.5t-65.5 -26.5q-40 0 -66 26t-26 66zM1186 1741q0 37 26.5 64.5t65.5 27.5q37 0 64.5 -27.5t27.5 -64.5q0 -39 -27.5 -65.5t-64.5 -26.5q-40 0 -66 26t-26 66z" />
    <glyph glyph-name="Wdieresis" unicode="&#x1e85;" horiz-adv-x="2045" 
d="M61 1434h207v-15q0 -65 49 -200l398 -1119l385 1366h8l428 -1362l340 1115q43 136 43 200v15h96v-9q-23 -44 -73 -206l-373 -1219q-37 0 -82 -11.5t-76 -31.5l-354 1135l-307 -1092q-37 0 -82 -11.5t-76 -31.5l-449 1262q-56 156 -82 206v9zM838 1741q0 39 26.5 65.5
t65.5 26.5q38 0 65 -27t27 -65q0 -39 -26.5 -65.5t-65.5 -26.5q-40 0 -66 26t-26 66zM1186 1741q0 37 26.5 64.5t65.5 27.5q37 0 64.5 -27.5t27.5 -64.5q0 -39 -27.5 -65.5t-64.5 -26.5q-40 0 -66 26t-26 66z" />
    <glyph glyph-name="uni1EBC" unicode="&#x1ebc;" horiz-adv-x="1116" 
d="M195 1434h815v-72h-6q-51 10 -189 10h-436v-375h471v-61h-471v-875h491q99 0 133.5 2.5t73.5 12.5h8v-76h-890v8q10 53 10 207v1004q0 153 -10 206v9zM270 1724q39 68 86 95.5t117 27.5q47 0 160 -37q143 -55 203 -55q55 0 96 35l18 -18q-39 -68 -85.5 -95.5
t-116.5 -27.5q-47 0 -160 37q-143 55 -203 55q-55 0 -96 -35z" />
    <glyph glyph-name="uni1EBC" unicode="&#x1ebd;" horiz-adv-x="1116" 
d="M195 1434h815v-72h-6q-51 10 -189 10h-436v-375h471v-61h-471v-875h491q99 0 133.5 2.5t73.5 12.5h8v-76h-890v8q10 53 10 207v1004q0 153 -10 206v9zM270 1724q39 68 86 95.5t117 27.5q47 0 160 -37q143 -55 203 -55q55 0 96 35l18 -18q-39 -68 -85.5 -95.5
t-116.5 -27.5q-47 0 -160 37q-143 55 -203 55q-55 0 -96 -35z" />
    <glyph glyph-name="Ygrave" unicode="&#x1ef2;" horiz-adv-x="1267" 
d="M154 1217q-97 141 -164 208v9h241l2 -9q6 -20 22 -45.5t77 -113.5l375 -537l376 537q70 99 83.5 120t19.5 39l2 9h100v-9q-53 -53 -164 -208l-364 -517v-505q0 -134 10 -187v-8h-195v8q11 58 11 187v405zM483 1860l82 65l223 -328l-36 -32z" />
    <glyph glyph-name="Ygrave" unicode="&#x1ef3;" horiz-adv-x="1267" 
d="M154 1217q-97 141 -164 208v9h241l2 -9q6 -20 22 -45.5t77 -113.5l375 -537l376 537q70 99 83.5 120t19.5 39l2 9h100v-9q-53 -53 -164 -208l-364 -517v-505q0 -134 10 -187v-8h-195v8q11 58 11 187v405zM483 1860l82 65l223 -328l-36 -32z" />
    <glyph glyph-name="uni1EF8" unicode="&#x1ef8;" horiz-adv-x="1267" 
d="M154 1217q-97 141 -164 208v9h241l2 -9q6 -20 22 -45.5t77 -113.5l375 -537l376 537q70 99 83.5 120t19.5 39l2 9h100v-9q-53 -53 -164 -208l-364 -517v-505q0 -134 10 -187v-8h-195v8q11 58 11 187v405zM322 1724q39 68 85.5 95.5t116.5 27.5q47 0 160 -37
q143 -55 203 -55q55 0 96 35l18 -18q-39 -68 -85.5 -95.5t-116.5 -27.5q-47 0 -160 37q-143 55 -203 55q-55 0 -96 -35z" />
    <glyph glyph-name="uni1EF8" unicode="&#x1ef9;" horiz-adv-x="1267" 
d="M154 1217q-97 141 -164 208v9h241l2 -9q6 -20 22 -45.5t77 -113.5l375 -537l376 537q70 99 83.5 120t19.5 39l2 9h100v-9q-53 -53 -164 -208l-364 -517v-505q0 -134 10 -187v-8h-195v8q11 58 11 187v405zM322 1724q39 68 85.5 95.5t116.5 27.5q47 0 160 -37
q143 -55 203 -55q55 0 96 35l18 -18q-39 -68 -85.5 -95.5t-116.5 -27.5q-47 0 -160 37q-143 55 -203 55q-55 0 -96 -35z" />
    <glyph glyph-name="uni2002" unicode="&#x2002;" horiz-adv-x="614" 
 />
    <glyph glyph-name="uni200A" unicode="&#x200a;" horiz-adv-x="286" 
 />
    <glyph glyph-name="endash" unicode="&#x2013;" horiz-adv-x="1167" 
d="M51 748h1065v-62h-1065v62z" />
    <glyph glyph-name="emdash" unicode="&#x2014;" horiz-adv-x="1536" 
d="M92 748h1352v-62h-1352v62z" />
    <glyph glyph-name="quoteleft" unicode="&#x2018;" horiz-adv-x="573" 
d="M401 1464q-127 -153 -112 -203q3 -11 16 -14q94 -20 94 -110q0 -46 -33 -79.5t-79 -33.5q-48 0 -80.5 36.5t-32.5 96.5q0 67 41 142.5t145 193.5z" />
    <glyph glyph-name="quoteright" unicode="&#x2019;" horiz-adv-x="573" 
d="M172 1036q127 153 112 203q-3 11 -16 14q-40 9 -67 36t-27 75q0 46 33.5 79.5t79.5 33.5q48 0 80 -37t32 -97q0 -66 -40.5 -141.5t-145.5 -193.5z" />
    <glyph glyph-name="bullet" unicode="&#x2022;" horiz-adv-x="798" 
d="M399 582q-64 0 -108.5 45t-44.5 110q0 63 44.5 108.5t108.5 45.5t109 -45.5t45 -108.5q0 -65 -45 -110t-109 -45z" />
    <glyph glyph-name="Euro" unicode="&#x20ac;" horiz-adv-x="1611" 
d="M1509 1247v-203h-36q-28 119 -104 206t-177 129t-215 42q-98 0 -191.5 -32.5t-175 -95t-141.5 -164.5t-84 -230h782v-61h-792q-6 -52 -6 -113t6 -113h792v-61h-784q22 -132 79 -234.5t135.5 -164t169 -92.5t187.5 -31q182 0 329 101.5t190 275.5h36v-203
q-108 -108 -256 -172t-315 -64q-268 0 -472 164.5t-263 419.5h-172v61h162q-9 55 -9 113q0 57 9 113h-162v61h172q59 255 263 419.5t472 164.5q167 0 315 -64t256 -172z" />
    <glyph glyph-name="uni20B4" unicode="&#x20b4;" horiz-adv-x="1009" 
d="M209 1421q137 49 297 49q166 0 263 -86t97 -217q0 -128 -127 -284l183 -13v-61l-232 16l-178 -190l410 -31v-61l-463 35l-43 -48q-59 -64 -93 -137.5t-34 -140.5q0 -94 60 -154.5t171 -60.5q103 0 191.5 61t122.5 172h36l-6 -190q-67 -52 -160 -78.5t-184 -26.5
q-178 0 -282.5 87.5t-104.5 224.5q0 135 143 303l-194 14v62l246 -19l176 193l-422 30v62l475 -35l35 37q53 56 85 127.5t32 138.5q0 90 -57.5 149.5t-162.5 59.5q-86 0 -154 -45t-97 -133h-37z" />
    <glyph glyph-name="uni20BD" unicode="&#x20bd;" horiz-adv-x="1343" 
d="M707 1434q281 0 433 -106t152 -302q0 -197 -152.5 -316.5t-400.5 -119.5q-51 0 -110 6v55h28q216 0 331.5 94t115.5 267q0 157 -110.5 261.5t-307.5 104.5h-184v-946h631v-61h-631v-156q0 -103 2 -136t12 -71v-8h-199v8q11 58 11 207v156h-123v61h123v787q0 148 -11 206
v9h390z" />
    <glyph glyph-name="uni2116" unicode="&#x2116;" horiz-adv-x="2140" 
d="M195 1444h38l955 -1145v920q0 103 -2 135.5t-12 70.5v9h86v-9q-11 -58 -11 -206v-1035q0 -127 11 -194h-39l-955 1145v-920q0 -99 2.5 -133.5t12.5 -73.5v-8h-86v8q10 53 10 207v1034q0 134 -10 195zM1378 686v62h609v-62h-609zM1389 1176q0 126 87.5 208t225.5 82
t226.5 -82t88.5 -208q0 -136 -88 -221t-227 -85q-138 0 -225.5 85t-87.5 221zM1532 1161q0 -99 47.5 -164t122.5 -65q80 0 126 72.5t46 173.5q0 99 -48.5 163t-121.5 64q-78 0 -125 -73.5t-47 -170.5z" />
    <glyph glyph-name="minus" unicode="&#x2212;" horiz-adv-x="942" 
d="M51 748h840v-62h-840v62z" />
    <glyph glyph-name="uni004A0301" horiz-adv-x="624" 
d="M236 1434h194v-9q-10 -53 -10 -206v-971q0 -269 -141 -421t-381 -181v37q164 40 256 186.5t92 402.5v947q0 153 -10 206v9zM215 1618l223 328l82 -66l-268 -295z" />
    <glyph glyph-name="B.salt" horiz-adv-x="1304" 
d="M195 8q9 38 10.5 71t1.5 136l2 735q0 237 130.5 375.5t350.5 138.5q142 0 233 -67.5t91 -173.5q0 -44 -18.5 -85t-49.5 -72t-63 -54t-66 -39q93 -5 175.5 -34t151.5 -83.5t109.5 -144.5t40.5 -205q0 -139 -77.5 -255.5t-212 -183.5t-295.5 -67h-514v8zM383 61h305
q133 0 230.5 58.5t145.5 154t48 215.5q0 409 -467 412h-6v31q117 59 166 122.5t49 139.5q0 97 -48.5 153t-135.5 56q-120 0 -203.5 -111t-83.5 -286v-945z" />
    <glyph glyph-name="P.salt" horiz-adv-x="1255" 
d="M379 215q0 -103 2 -136t12 -71v-8h-198v8q10 53 10 207v807q0 121 64 222.5t174.5 160.5t242.5 59q214 0 348.5 -127t134.5 -315q0 -96 -36.5 -175.5t-96.5 -129t-134 -76.5t-152 -27q-63 0 -125 19v61h14q92 3 164.5 35.5t116 84.5t66 115t22.5 132q0 88 -34 165
t-104 127t-163 50q-136 0 -232 -105.5t-96 -257.5v-825z" />
    <glyph glyph-name="A_E.dlig" horiz-adv-x="1751" 
d="M803 1434h842v-72h-7q-51 10 -188 10h-436v-375h471v-61h-471v-875h491q99 0 133.5 2.5t73.5 12.5h8v-76h-891v8q11 58 11 207v162h-564l-98 -176q-25 -44 -42 -78.5t-24.5 -54t-11 -31.5t-4.5 -19.5t-2 -9.5v-8h-104v8q22 27 112 187zM311 438h529v936z" />
    <glyph glyph-name="D_O.dlig" horiz-adv-x="2211" 
d="M766 1434q139 0 270 -39q161 88 357 88q208 0 382 -101t274.5 -275t100.5 -382t-100.5 -382t-274.5 -275t-382 -101q-181 0 -344 80q-130 -47 -283 -47h-571v8q10 53 10 207v1004q0 153 -10 206v9h571zM379 61h369q109 0 215 37q-152 105 -240 269.5t-88 357.5
q0 189 84 350t229 266q-95 31 -200 31h-369v-1311zM819 725q0 -181 63 -334t173 -246q145 88 224 249.5t79 346.5q0 180 -78.5 325.5t-218.5 225.5q-114 -95 -178 -243.5t-64 -323.5zM1141 86q105 -57 225 -57q171 0 309 93t214.5 252t76.5 351q0 193 -70 352t-196.5 251.5
t-284.5 92.5q-145 0 -268 -69q182 -87 285.5 -253.5t103.5 -381.5q0 -203 -106.5 -371t-288.5 -260z" />
    <glyph glyph-name="H_D.dlig" horiz-adv-x="2447" 
d="M195 1434h198v-9q-10 -38 -12 -70.5t-2 -135.5v-222h676v222q0 99 -2.5 133t-12.5 73v9h576q168 0 311 -53t244 -147t158 -227.5t57 -289.5q0 -197 -100.5 -361.5t-277.5 -260t-392 -95.5h-576v8q10 39 12.5 73.5t2.5 133.5v721h-676v-721q0 -103 2 -136t12 -71v-8h-198
v8q10 53 10 207v1004q0 153 -10 206v9zM1229 61h368q115 0 214.5 38t171.5 103.5t123.5 152t76.5 185t25 201.5q0 176 -75.5 319.5t-215.5 227.5t-320 84h-368v-1311z" />
    <glyph glyph-name="H_E.dlig" horiz-adv-x="1966" 
d="M195 1434h198v-9q-10 -38 -12 -70.5t-2 -135.5v-222h676v222q0 99 -2.5 133t-12.5 73v9h820v-72h-7q-51 10 -188 10h-436v-375h471v-61h-471v-875h491q99 0 133.5 2.5t73.5 12.5h8v-76h-895v8q10 39 12.5 73.5t2.5 133.5v721h-676v-721q0 -103 2 -136t12 -71v-8h-198v8
q10 53 10 207v1004q0 153 -10 206v9z" />
    <glyph glyph-name="N_N.dlig" horiz-adv-x="2437" 
d="M195 1444h38l955 -1145v950q0 134 -10 195h39l954 -1145v920q0 103 -2 135.5t-12 70.5v9h86v-9q-11 -58 -11 -206v-1035q0 -127 11 -194h-39l-955 1145v-951q0 -127 11 -194h-39l-955 1145v-920q0 -99 2.5 -133.5t12.5 -73.5v-8h-86v8q10 53 10 207v1034q0 134 -10 195z
" />
    <glyph glyph-name="O_C.dlig" horiz-adv-x="2103" 
d="M819 -33q-208 0 -382 101t-275 275t-101 382t101 382t275 275t382 101q161 0 305 -64q144 64 306 64q167 0 315 -64t256 -172v-203h-37q-28 119 -104 206t-177 129t-215 42q-127 0 -245 -53q163 -101 258.5 -271.5t95.5 -371.5q0 -204 -98 -376t-265 -273
q112 -47 232 -47q182 0 328.5 101.5t189.5 275.5h37v-203q-108 -108 -256 -172t-315 -64q-162 0 -306 64q-144 -64 -305 -64zM246 725q0 -192 69.5 -351t195.5 -252t282 -93q124 0 235 51q-162 101 -257 271.5t-95 373.5q0 206 99 379.5t267 273.5q-97 43 -200 43
q-170 0 -307 -92.5t-213 -251.5t-76 -352zM860 725q0 -211 68.5 -359.5t187.5 -232.5q129 92 203 248.5t74 343.5q0 189 -68.5 345.5t-187.5 248.5q-126 -85 -201.5 -235.5t-75.5 -358.5z" />
    <glyph glyph-name="O_G.dlig" horiz-adv-x="2164" 
d="M819 -33q-208 0 -382 101t-275 275t-101 382t101 382t275 275t382 101q161 0 305 -64q144 64 306 64q167 0 315 -64t256 -172v-203h-37q-28 119 -104 206t-177 129t-215 42q-127 0 -245 -53q163 -101 258.5 -271.5t95.5 -371.5q0 -204 -98 -376t-265 -273
q112 -47 232 -47q111 0 210 42.5t171 125.5v344q0 117 -15 186v8h199v-8q-10 -53 -10 -186v-322q-107 -117 -256 -184.5t-315 -67.5q-162 0 -306 64q-144 -64 -305 -64zM246 725q0 -192 69.5 -351t195.5 -252t282 -93q124 0 235 51q-162 101 -257 271.5t-95 373.5
q0 206 99 379.5t267 273.5q-97 43 -200 43q-170 0 -307 -92.5t-213 -251.5t-76 -352zM860 725q0 -211 68.5 -359.5t187.5 -232.5q129 92 203 248.5t74 343.5q0 189 -68.5 345.5t-187.5 248.5q-126 -85 -201.5 -235.5t-75.5 -358.5z" />
    <glyph glyph-name="O_O.dlig" horiz-adv-x="2252" 
d="M819 -33q-208 0 -382 101t-275 275t-101 382t101 382t275 275t382 101q160 0 307 -64q147 64 308 64q208 0 382 -101t274.5 -275t100.5 -382t-100.5 -382t-274.5 -275t-382 -101q-161 0 -308 64q-147 -64 -307 -64zM246 725q0 -192 69.5 -351t195.5 -252t282 -93
q128 0 237 53q-163 101 -258.5 271.5t-95.5 371.5q0 206 99.5 378.5t268.5 272.5q-95 45 -202 45q-170 0 -307 -92.5t-213 -251.5t-76 -352zM860 725q0 -188 67.5 -345.5t186.5 -248.5q130 91 204.5 248.5t74.5 345.5q0 189 -68.5 345.5t-187.5 248.5q-129 -92 -203 -248.5
t-74 -345.5zM1208 72q94 -43 199 -43q171 0 309 93t214.5 252t76.5 351q0 193 -70 352t-196.5 251.5t-284.5 92.5q-124 0 -235 -51q164 -101 260 -272t96 -373q0 -206 -100 -378.5t-269 -274.5z" />
    <glyph glyph-name="uni0412.alt" horiz-adv-x="1304" 
d="M195 8q9 38 10.5 71t1.5 136l2 735q0 237 130.5 375.5t350.5 138.5q142 0 233 -67.5t91 -173.5q0 -44 -18.5 -85t-49.5 -72t-63 -54t-66 -39q93 -5 175.5 -34t151.5 -83.5t109.5 -144.5t40.5 -205q0 -139 -77.5 -255.5t-212 -183.5t-295.5 -67h-514v8zM383 61h305
q133 0 230.5 58.5t145.5 154t48 215.5q0 409 -467 412h-6v31q117 59 166 122.5t49 139.5q0 97 -48.5 153t-135.5 56q-120 0 -203.5 -111t-83.5 -286v-945z" />
    <glyph glyph-name="uni0420.alt" horiz-adv-x="1255" 
d="M379 215q0 -103 2 -136t12 -71v-8h-198v8q10 53 10 207v807q0 121 64 222.5t174.5 160.5t242.5 59q214 0 348.5 -127t134.5 -315q0 -96 -36.5 -175.5t-96.5 -129t-134 -76.5t-152 -27q-63 0 -125 19v61h14q92 3 164.5 35.5t116 84.5t66 115t22.5 132q0 88 -34 165
t-104 127t-163 50q-136 0 -232 -105.5t-96 -257.5v-825z" />
    <glyph glyph-name="uni0414.loclBGR" horiz-adv-x="1382" 
d="M625 1434q93 0 157 43l502 -1416h129v-323h-37q-2 66 -4 103t-10.5 70.5t-19 47.5t-33.5 25.5t-50 13.5t-73 2h-1000q-46 0 -73 -2t-50 -13.5t-33.5 -25.5t-19 -47.5t-10.5 -70.5t-4 -103h-37v323h131zM162 61h946l-449 1285z" />
    <glyph glyph-name="uni041B.loclBGR" horiz-adv-x="1187" 
d="M1178 0h-201v8q0 47 -53 207l-379 1124l-416 -1124q-55 -148 -55 -207v-8h-105v8q36 72 88 209l455 1217q94 0 158 43l428 -1262q46 -139 80 -207v-8z" />
    <glyph glyph-name="uni0414.salt" horiz-adv-x="1316" 
d="M10 61h117q30 0 49 51t39 169l160 938q15 87 15.5 131.5t-7.5 74.5v9h737v-9q-10 -53 -10 -206v-1158h131v-323h-37q-2 66 -4 103t-10.5 70.5t-19 47.5t-33.5 25.5t-50 13.5t-73 2h-776q-46 0 -73 -2.5t-50.5 -13.5t-34 -25.5t-19 -47.5t-10.5 -70t-4 -103h-37v323z
M217 61h719v1311h-471l-197 -1147q-19 -117 -51 -164z" />
    <glyph glyph-name="uni0418.salt" horiz-adv-x="1454" 
d="M1260 1444q-11 -67 -11 -195v-1034q0 -149 11 -207v-8h-86v8q10 38 12 71t2 136v920l-955 -1145h-38q10 61 10 194v1035q0 153 -10 206v9h86v-9q-10 -39 -12.5 -73t-2.5 -133v-920l955 1145h39z" />
    <glyph glyph-name="uni041B.salt" horiz-adv-x="1249" 
d="M354 1434h701v-9q-11 -58 -11 -206v-1004q0 -149 11 -207v-8h-199v8q10 38 12 71t2 136v1157h-434l-196 -1147q-23 -128 -52 -180.5t-88 -52.5q-43 0 -80 16v150h21q36 -19 57 -19q64 0 88 142l160 938q15 87 15.5 131.5t-7.5 74.5v9z" />
    <glyph glyph-name="uni04100415.dlig" horiz-adv-x="1751" 
d="M803 1434h842v-72h-7q-51 10 -188 10h-436v-375h471v-61h-471v-875h491q99 0 133.5 2.5t73.5 12.5h8v-76h-891v8q11 58 11 207v162h-564l-98 -176q-25 -44 -42 -78.5t-24.5 -54t-11 -31.5t-4.5 -19.5t-2 -9.5v-8h-104v8q22 27 112 187zM311 438h529v936z" />
    <glyph glyph-name="uni04180418.dlig" horiz-adv-x="2406" 
d="M195 1434h198v-9q-10 -38 -12 -70.5t-2 -135.5v-938l883 1163h38q-10 -55 -10 -195v-968l883 1163h39q-10 -55 -10 -195v-1034q0 -154 10 -207v-8h-199v8q10 39 12.5 73.5t2.5 133.5v938l-883 -1163h-39q10 55 10 194v969l-883 -1163h-38q10 55 10 194v1035
q0 153 -10 206v9z" />
    <glyph glyph-name="uni0418041D.dlig" horiz-adv-x="2344" 
d="M1952 1434h198v-9q-10 -53 -10 -206v-1004q0 -154 10 -207v-8h-198v8q10 38 12 71t2 136v721h-676v-721q0 -99 2.5 -133.5t12.5 -73.5v-8h-203v8q10 38 12 71t2 136v938l-883 -1163h-38q10 55 10 194v1035q0 153 -10 206v9h198v-9q-10 -38 -12 -70.5t-2 -135.5v-938
l883 1163h38q-10 -55 -10 -195v-252h676v222q0 103 -2 135.5t-12 70.5v9z" />
    <glyph glyph-name="uni041B042C.dlig" horiz-adv-x="1886" 
d="M354 1434h715v-9q-10 -38 -12 -70.5t-2 -135.5v-1158h184q192 0 305 110.5t113 297.5q0 190 -115 296.5t-307 106.5q-31 0 -47 -2v62q61 6 119 6q115 0 211.5 -27t170 -81t115 -142t41.5 -203q0 -224 -157.5 -354.5t-427.5 -130.5h-404v8q10 38 12 71t2 136v1157h-434
l-196 -1147q-23 -128 -52 -180.5t-88 -52.5q-43 0 -80 16v150h21q36 -19 57 -19q64 0 88 142l160 938q15 87 15.5 131.5t-7.5 74.5v9z" />
    <glyph glyph-name="uni041C042C.dlig" horiz-adv-x="2347" 
d="M195 1434h38l646 -1037l608 1037h39q-10 -66 -10 -195v-1178h184q192 0 305 110.5t113 297.5q0 190 -115 296.5t-307 106.5q-31 0 -47 -2v62q61 6 118 6q115 0 211.5 -27t170.5 -81t115.5 -142t41.5 -203q0 -224 -158 -354.5t-428 -130.5h-389v8q10 53 10 207v848
l-505 -860h-41l-529 848v-836q0 -99 2.5 -133.5t12.5 -73.5v-8h-86v8q10 53 10 207v1024q0 129 -10 195z" />
    <glyph glyph-name="uni041D0415.dlig" horiz-adv-x="1966" 
d="M195 1434h198v-9q-10 -38 -12 -70.5t-2 -135.5v-222h676v222q0 99 -2.5 133t-12.5 73v9h820v-72h-7q-51 10 -188 10h-436v-375h471v-61h-471v-875h491q99 0 133.5 2.5t73.5 12.5h8v-76h-895v8q10 39 12.5 73.5t2.5 133.5v721h-676v-721q0 -103 2 -136t12 -71v-8h-198v8
q10 53 10 207v1004q0 153 -10 206v9z" />
    <glyph glyph-name="uni041D042C.dlig" horiz-adv-x="2060" 
d="M195 1434h198v-9q-10 -38 -12 -70.5t-2 -135.5v-222h676v222q0 148 -11 206v9h199v-9q-10 -38 -12 -70.5t-2 -135.5v-1158h184q192 0 305 110.5t113 297.5q0 190 -115 296.5t-307 106.5q-31 0 -47 -2v62q62 6 119 6q115 0 211.5 -27t170 -81t115 -142t41.5 -203
q0 -224 -157.5 -354.5t-427.5 -130.5h-390v8q11 58 11 207v721h-676v-721q0 -103 2 -136t12 -71v-8h-198v8q10 53 10 207v1004q0 153 -10 206v9z" />
    <glyph glyph-name="uni041E0415.dlig" horiz-adv-x="2314" 
d="M819 -33q-208 0 -382 101t-275 275t-101 382t101 382t275 275t382 101q176 0 327.5 -73.5t256.5 -203.5v13q0 153 -10 206v9h815v-72h-6q-51 10 -189 10h-436v-375h471v-61h-471v-875h491q99 0 133.5 2.5t73.5 12.5h9v-76h-891v8q10 53 10 207v29
q-105 -130 -256.5 -203.5t-327.5 -73.5zM246 725q0 -192 69.5 -351t195.5 -252t282 -93q176 0 319 93t222 252t79 351q0 193 -72 352t-202.5 251.5t-294.5 92.5q-128 0 -240 -54.5t-190 -147.5t-123 -221.5t-45 -272.5z" />
    <glyph glyph-name="uni041E041E.dlig" horiz-adv-x="2252" 
d="M819 -33q-208 0 -382 101t-275 275t-101 382t101 382t275 275t382 101q160 0 307 -64q147 64 308 64q208 0 382 -101t274.5 -275t100.5 -382t-100.5 -382t-274.5 -275t-382 -101q-161 0 -308 64q-147 -64 -307 -64zM246 725q0 -192 69.5 -351t195.5 -252t282 -93
q128 0 237 53q-163 101 -258.5 271.5t-95.5 371.5q0 206 99.5 378.5t268.5 272.5q-95 45 -202 45q-170 0 -307 -92.5t-213 -251.5t-76 -352zM860 725q0 -188 67.5 -345.5t186.5 -248.5q130 91 204.5 248.5t74.5 345.5q0 189 -68.5 345.5t-187.5 248.5q-129 -92 -203 -248.5
t-74 -345.5zM1208 72q94 -43 199 -43q171 0 309 93t214.5 252t76.5 351q0 193 -70 352t-196.5 251.5t-284.5 92.5q-124 0 -235 -51q164 -101 260 -272t96 -373q0 -206 -100 -378.5t-269 -274.5z" />
    <glyph glyph-name="uni041E0421.dlig" horiz-adv-x="2103" 
d="M819 -33q-208 0 -382 101t-275 275t-101 382t101 382t275 275t382 101q161 0 305 -64q144 64 306 64q167 0 315 -64t256 -172v-203h-37q-28 119 -104 206t-177 129t-215 42q-127 0 -245 -53q163 -101 258.5 -271.5t95.5 -371.5q0 -204 -98 -376t-265 -273
q112 -47 232 -47q182 0 328.5 101.5t189.5 275.5h37v-203q-108 -108 -256 -172t-315 -64q-162 0 -306 64q-144 -64 -305 -64zM246 725q0 -192 69.5 -351t195.5 -252t282 -93q124 0 235 51q-162 101 -257 271.5t-95 373.5q0 206 99 379.5t267 273.5q-97 43 -200 43
q-170 0 -307 -92.5t-213 -251.5t-76 -352zM860 725q0 -211 68.5 -359.5t187.5 -232.5q129 92 203 248.5t74 343.5q0 189 -68.5 345.5t-187.5 248.5q-126 -85 -201.5 -235.5t-75.5 -358.5z" />
    <glyph glyph-name="uni041F042C.dlig" horiz-adv-x="2060" 
d="M195 1434h1048v-9q-10 -38 -12 -70.5t-2 -135.5v-1158h184q192 0 305 110.5t113 297.5q0 190 -115 296.5t-307 106.5q-31 0 -47 -2v62q62 6 119 6q115 0 211.5 -27t170 -81t115 -142t41.5 -203q0 -224 -157.5 -354.5t-427.5 -130.5h-390v8q11 58 11 207v1157h-676v-1157
q0 -103 2 -136t12 -71v-8h-198v8q10 53 10 207v1004q0 153 -10 206v9z" />
    <glyph glyph-name="uni0427042C.dlig" horiz-adv-x="1957" 
d="M133 1434h199v-9q-10 -39 -12.5 -73t-2.5 -133v-238q0 -149 76.5 -240.5t214.5 -91.5q203 0 344 144v426q0 153 -10 206v9h199v-9q-10 -39 -12.5 -73t-2.5 -133v-1158h185q192 0 305 110.5t113 297.5q0 190 -115 296.5t-307 106.5q-31 0 -47 -2v62q62 6 118 6
q115 0 211.5 -27t170.5 -81t115.5 -142t41.5 -203q0 -224 -158 -354.5t-428 -130.5h-393v8q10 38 12 71t2 136v496q-151 -144 -358 -144q-218 0 -334.5 112.5t-116.5 285.5v254q0 153 -10 206v9z" />
    <glyph glyph-name="uni0428042C.dlig" horiz-adv-x="2471" 
d="M195 1434h198v-9q-10 -53 -10 -206v-1158h455v1158q0 148 -11 206v9h195v-9q-10 -53 -10 -206v-1158h454v1158q0 153 -10 206v9h199v-9q-10 -39 -12.5 -73t-2.5 -133v-1158h185q192 0 305 110.5t113 297.5q0 190 -115 296.5t-307 106.5q-31 0 -47 -2v62q62 6 118 6
q115 0 211.5 -27t170.5 -81t115.5 -142t41.5 -203q0 -224 -158 -354.5t-428 -130.5h-1650v8q10 38 12 71t2 136v1004q0 103 -2 135.5t-12 70.5v9z" />
    <glyph glyph-name="uni0306.cy" 
d="M319 1868h89v-2q0 -90 55 -148q53 -59 151 -59q89 0 146 53.5t61 155.5h88q-5 -120 -86 -195.5t-209 -75.5t-209 75.5t-86 195.5z" />
    <glyph glyph-name="uni030C.alt" 
d="M702 1946l82 -66l-268 -295l-37 33z" />
    </font>
</defs>
</svg>
