<?xml version="1.0" standalone="no"?>
<!DOCTYPE svg PUBLIC "-//W3C//DTD SVG 1.1//EN" "http://www.w3.org/Graphics/SVG/1.1/DTD/svg11.dtd" >
<svg xmlns="http://www.w3.org/2000/svg" xmlns:xlink="http://www.w3.org/1999/xlink" version="1.1">
<metadata>
Created by FontForge 20201107 at Thu Feb  2 10:13:40 2023
 By 
Copyright (c) 2023 by Misha Ivanov.
</metadata>
<defs>
<font id="Angst-Regular" horiz-adv-x="0" >
  <font-face 
    font-family="Angst"
    font-weight="400"
    font-stretch="normal"
    units-per-em="1000"
    panose-1="0 0 0 0 0 0 0 0 0 0"
    ascent="800"
    descent="-200"
    cap-height="700"
    bbox="-50 -216 1187 968"
    underline-thickness="50"
    underline-position="-125"
    unicode-range="U+0020-2212"
  />
<missing-glyph horiz-adv-x="500" 
d="M410 -200h-317v1000h317v-1000zM167 118v-113h166v113h-166zM300 38h-100v47h100v-47zM233 291v-56h34v23h33v-47h-100v80h-33v-113h166v113h-100zM300 413v-66h-133v-34h166v100h-33zM167 473v-33h66v-37h-66v-33h100v70h66v33h-166zM233 534h-33v36h33v-36zM167 604
v-104h166v34h-66v70h-100zM168 733v-33h65v-37h-66v-33h166v33h-66v37h66v33h-165zM167 -18v-33h70l-70 -47v-33h166v33h-102l70 47h32v33h-166z" />
    <glyph glyph-name="T_T.liga" unicode="TT" horiz-adv-x="1000" 
d="M1000 700v-30h-4q-12 1 -23.5 2t-28 1h-39.5h-134l14 14v-582q0 -23 0.5 -39.5t0.5 -27t1 -19.5l1 -15v-4h-36v4l1 15q1 9 1 19.5t0.5 27t0.5 39.5v582l14 -14h-156h-34h-22.5h-34.5h-4h-34h-22.5h-34.5h-156l14 14v-582q0 -23 0.5 -39.5t0.5 -27t1 -19.5l1 -15v-4h-36v4
l1 15q1 9 1 19.5t0.5 27t0.5 39.5v582l14 -14h-134h-39.5t-28 -1t-23.5 -2h-4v30h960z" />
    <glyph glyph-name="uni04220422.liga" unicode="&#x422;&#x422;" horiz-adv-x="1000" 
d="M1000 700v-30h-4q-12 1 -23.5 2t-28 1h-39.5h-134l14 14v-582q0 -23 0.5 -39.5t0.5 -27t1 -19.5l1 -15v-4h-36v4l1 15q1 9 1 19.5t0.5 27t0.5 39.5v582l14 -14h-156h-34h-22.5h-34.5h-4h-34h-22.5h-34.5h-156l14 14v-582q0 -23 0.5 -39.5t0.5 -27t1 -19.5l1 -15v-4h-36v4
l1 15q1 9 1 19.5t0.5 27t0.5 39.5v582l14 -14h-134h-39.5t-28 -1t-23.5 -2h-4v30h960z" />
    <glyph glyph-name="uni04070407.liga" unicode="&#x407;&#x407;" horiz-adv-x="562" 
d="M407.5 27.5q0.5 11.5 0.5 28v39.5v510v39.5t-0.5 28t-1.5 23.5v4h34v-4q-1 -12 -1.5 -23.5t-0.5 -28v-39.5v-510v-39.5t0.5 -28t1.5 -23.5v-4h-34v4q1 12 1.5 23.5zM122.5 27.5q0.5 11.5 0.5 28v39.5v510v39.5t-0.5 28t-1.5 23.5v4h34v-4q-1 -12 -1.5 -23.5t-0.5 -28
v-39.5v-510v-39.5t0.5 -28t1.5 -23.5v-4h-34v4q1 12 1.5 23.5zM107 817q-12 12 -12 28q0 17 12 28.5t28 11.5q17 0 28.5 -11.5t11.5 -28.5q0 -16 -11.5 -28t-28.5 -12q-16 0 -28 12zM253 817q-12 12 -12 28q0 17 12 28.5t28 11.5q17 0 28.5 -11.5t11.5 -28.5
q0 -16 -11.5 -28t-28.5 -12q-16 0 -28 12zM399 817q-12 12 -12 28q0 17 12 28.5t28 11.5q17 0 28.5 -11.5t11.5 -28.5q0 -16 -11.5 -28t-28.5 -12q-16 0 -28 12z" />
    <glyph glyph-name=".notdef" horiz-adv-x="500" 
d="M410 -200h-317v1000h317v-1000zM167 118v-113h166v113h-166zM300 38h-100v47h100v-47zM233 291v-56h34v23h33v-47h-100v80h-33v-113h166v113h-100zM300 413v-66h-133v-34h166v100h-33zM167 473v-33h66v-37h-66v-33h100v70h66v33h-166zM233 534h-33v36h33v-36zM167 604
v-104h166v34h-66v70h-100zM168 733v-33h65v-37h-66v-33h166v33h-66v37h66v33h-165zM167 -18v-33h70l-70 -47v-33h166v33h-102l70 47h32v33h-166z" />
    <glyph glyph-name=".null" 
 />
    <glyph glyph-name="nonmarkingreturn" horiz-adv-x="333" 
 />
    <glyph glyph-name="space" unicode=" " horiz-adv-x="350" 
 />
    <glyph glyph-name="space" unicode="&#xa0;" horiz-adv-x="350" 
 />
    <glyph glyph-name="exclam" unicode="!" horiz-adv-x="280" 
d="M112 6q-12 12 -12 28t12 28t28 12t28 -12t12 -28t-12 -28t-28 -12t-28 12zM107.5 736.5q13.5 13.5 34.5 13.5q18 0 31 -13.5t12 -36.5q-3 -46 -6.5 -92t-7.5 -91q-7 -83 -13 -170.5t-8 -159.5h-18q-2 70 -8 153t-13 163q-4 48 -8 97.5t-8 99.5q-1 23 12.5 36.5z" />
    <glyph glyph-name="quotedbl" unicode="&#x22;" horiz-adv-x="430" 
d="M108 556q18 23 29 41t12.5 28.5t-5.5 11.5q-14 2 -25.5 12t-11.5 26q0 17 12 29.5t29 12.5q19 0 30 -13t11 -35q0 -20 -10 -44t-36 -56l-22 -26l-16 10zM244 556q18 23 29 41t12.5 28.5t-5.5 11.5q-14 2 -25.5 12t-11.5 26q0 17 12 29.5t29 12.5q19 0 30 -13t11 -35
q0 -20 -10 -44t-36 -56l-22 -26l-16 10z" />
    <glyph glyph-name="numbersign" unicode="#" horiz-adv-x="740" 
d="M137 -7l-25 6l220 700l26 -6zM700 488v-27h-660v27h660zM700 239v-27h-660v27h660zM408 -7l-25 6l220 700l26 -6z" />
    <glyph glyph-name="dollar" unicode="$" horiz-adv-x="530" 
d="M287 371l-3 -7v-464h-30v464l3 7v429h30v-429zM438 649h-11q-18 16 -39.5 25t-48 13t-61.5 4q-78 0 -118 -27.5t-40 -72.5q0 -39 22.5 -74.5t67.5 -74.5l161 -142q52 -47 73 -84t21 -78q0 -50 -28 -83.5t-74 -50t-102 -16.5q-50 0 -98 13t-84 36l-3 44h10
q27 -23 55.5 -37.5t61 -21.5t70.5 -7q67 0 112.5 32.5t45.5 87.5q0 32 -20 69t-64 75l-161 142q-52 46 -76 86.5t-24 80.5q0 37 23 66.5t67.5 46.5t107.5 17q78 0 149 -22z" />
    <glyph glyph-name="percent" unicode="%" horiz-adv-x="730" 
d="M670 758l-589 -809l-22 15l590 809zM435.5 29q-42.5 41 -42.5 108q0 62 43 102t110 40t110.5 -40t43.5 -102q0 -66 -43 -107.5t-111 -41.5t-110.5 41zM611 30.5q29 15.5 45.5 43t16.5 62.5q0 50 -36 83t-91 33q-36 0 -64.5 -15t-45 -41.5t-16.5 -59.5q0 -54 35.5 -87.5
t90.5 -33.5q36 0 65 15.5zM72.5 474q-42.5 41 -42.5 108q0 62 43 102t110 40t110.5 -40t43.5 -102q0 -66 -43 -107.5t-111 -41.5t-110.5 41zM248 475.5q29 15.5 45.5 43t16.5 62.5q0 50 -36 83t-91 33q-36 0 -64.5 -15t-45 -41.5t-16.5 -59.5q0 -54 35.5 -87.5t90.5 -33.5
q36 0 65 15.5z" />
    <glyph glyph-name="ampersand" unicode="&#x26;" horiz-adv-x="611" 
d="M516 361.5q20 -49.5 20 -102.5q0 -70 -30 -132t-89 -100.5t-142 -38.5q-60 0 -109.5 29t-78 78t-28.5 105q0 64 39.5 125.5t121.5 107.5l16 -17q-77 -47 -112 -102.5t-35 -110.5q0 -51 24.5 -94t67 -68.5t94.5 -25.5q74 0 126.5 34t79 88.5t26.5 114.5q0 59 -24.5 109.5
t-69.5 78.5v8h45q38 -37 58 -86.5zM430 649h-9q-16 16 -34.5 25t-41.5 13t-54 4q-67 0 -102 -27.5t-35 -72.5q0 -38 19.5 -73t58.5 -76l343 -362q35 -37 52.5 -53t27.5 -21q3 -1 5 -3v-8q-17 -5 -32.5 1.5t-31 20.5t-42.5 42l-343 362q-46 48 -66.5 88t-20.5 79
q0 37 20 66.5t58.5 46.5t93.5 17q69 0 130 -22z" />
    <glyph glyph-name="quotesingle" unicode="'" horiz-adv-x="280" 
d="M100 535q18 23 29 41t12.5 28.5t-5.5 11.5q-14 2 -25.5 12t-11.5 26q0 17 12 29.5t29 12.5q19 0 30 -13t11 -35q0 -20 -10 -44t-36 -56l-22 -26l-16 10z" />
    <glyph glyph-name="parenleft" unicode="(" horiz-adv-x="360" 
d="M176.5 654.5q-40.5 -65.5 -63.5 -141.5t-23 -163t23 -163t63.5 -141.5t97.5 -128.5l-17 -18q-96 98 -146.5 203.5t-50.5 247.5t50.5 247.5t146.5 203.5l17 -18q-57 -63 -97.5 -128.5z" />
    <glyph glyph-name="parenright" unicode=")" horiz-adv-x="360" 
d="M157.5 654.5q40.5 -65.5 63.5 -141.5t23 -163t-23 -163t-63.5 -141.5t-97.5 -128.5l17 -18q96 98 146.5 203.5t50.5 247.5t-50.5 247.5t-146.5 203.5l-17 -18q57 -63 97.5 -128.5z" />
    <glyph glyph-name="asterisk" unicode="*" horiz-adv-x="480" 
d="M252 605l12 -165h-48l12 165l-12 165h48zM214.5 579q-10.5 10 -10.5 26q0 15 10.5 25.5t26.5 10.5q15 0 25 -10.5t10 -25.5q0 -16 -10 -26t-25 -10q-16 0 -26.5 10zM246 595l-137 -93l-24 41l149 72l137 93l24 -41zM246 615l149 -72l-24 -41l-137 93l-149 72l24 41z" />
    <glyph glyph-name="plus" unicode="+" horiz-adv-x="460" 
d="M435 364v-27h-410v27h410zM217 565h27v-430h-27v430z" />
    <glyph glyph-name="comma" unicode="," horiz-adv-x="280" 
d="M100 -87q18 23 29 41t12.5 28.5t-5.5 11.5q-14 2 -25.5 12t-11.5 26q0 17 12 29.5t29 12.5q19 0 30 -13t11 -35q0 -20 -10 -44t-36 -56l-22 -26l-16 10z" />
    <glyph glyph-name="hyphen" unicode="-" horiz-adv-x="400" 
d="M390 364v-27h-380v27h380z" />
    <glyph glyph-name="period" unicode="." horiz-adv-x="280" 
d="M112 6q-12 12 -12 28t12 28t28 12t28 -12t12 -28t-12 -28t-28 -12t-28 12z" />
    <glyph glyph-name="slash" unicode="/" horiz-adv-x="540" 
d="M502 795l-440 -899l-24 11l440 899z" />
    <glyph glyph-name="zero" unicode="0" horiz-adv-x="680" 
d="M184.5 31q-68.5 47 -106.5 131t-38 191t38 191t106.5 131t155.5 47t155 -47t106.5 -131t38.5 -191t-38.5 -191t-106.5 -131t-155 -47t-155.5 47zM477.5 55q62.5 44 97.5 122t35 177q0 98 -34 176t-95 121.5t-138 43.5q-79 0 -141 -43.5t-97 -121.5t-35 -176
q0 -99 34 -177t94.5 -122t137.5 -44q79 0 141.5 44z" />
    <glyph glyph-name="one" unicode="1" horiz-adv-x="338" 
d="M201 702h12q-1 -19 -1.5 -40.5t-0.5 -54.5v-502v-46t0.5 -30.5t1.5 -24.5v-4h-35v4q1 12 2 24.5t1 30.5v46v550h14l-114 -125l-15 17z" />
    <glyph glyph-name="two" unicode="2" horiz-adv-x="574" 
d="M303 210.5q81 88.5 114.5 161t33.5 141.5q0 58 -25.5 99.5t-65.5 62.5t-84 21q-40 0 -75.5 -14.5t-60.5 -39t-35 -53.5h-10l-5 47q32 41 80.5 64t102.5 23q55 0 102.5 -24t76.5 -71.5t29 -114.5q0 -87 -43 -167.5t-116.5 -156.5t-190.5 -176l2 14h243h46t30 1.5t25 5.5h4
v-34h-398v10q139 112 220 200.5z" />
    <glyph glyph-name="three" unicode="3" horiz-adv-x="550" 
d="M465 700l2 -3l-242 -270v12q16 1 32 1q81 0 136.5 -29.5t82.5 -78t27 -104.5q0 -61 -30 -117.5t-86 -91.5t-130 -35q-50 0 -93 17.5t-74 47.5t-49 66v84h11q7 -53 35.5 -96t73 -67.5t96.5 -24.5q63 0 112.5 31.5t76.5 82t27 104.5q0 50 -24.5 92t-78 67.5t-135.5 25.5
q-15 0 -31 -1l-10 16l232 259v-18h-249h-46t-30.5 -1.5t-24.5 -4.5h-4v36h393z" />
    <glyph glyph-name="four" unicode="4" horiz-adv-x="477" 
d="M366.5 658.5q-0.5 -20.5 -0.5 -53.5v-500v-46t0.5 -30.5t1.5 -24.5v-4h-35v4q1 12 2 24.5t1 30.5v46v559h14l-305 -454l-0.5 -0.5t-0.5 -1v-0.5h324q33 0 53 0.5t38 1.5h4v-31h-4q-26 2 -91 2h-362l-6 11l342 508h29q-4 -21 -4.5 -41.5z" />
    <glyph glyph-name="five" unicode="5" horiz-adv-x="630" 
d="M490 700v-33h-4q-12 3 -24.5 4.5t-30.5 1.5h-46h-193l16 12l-54 -313l-6 3q36 36 79.5 53.5t89.5 17.5q69 0 118 -30.5t73.5 -80.5t24.5 -107q0 -62 -29.5 -118t-87.5 -91t-139 -35q-61 0 -115.5 26.5t-90.5 78.5l11 52h8q12 -39 40.5 -68.5t68.5 -45.5t83 -16
q70 0 120 31.5t75.5 82t25.5 106.5q0 50 -21 93t-63 69t-102 26q-46 0 -91 -21.5t-82 -64.5l-22 11l61 356h307z" />
    <glyph glyph-name="six" unicode="6" horiz-adv-x="610" 
d="M180.5 21.5q-52.5 37.5 -79 100.5t-26.5 139q0 106 50 211t148.5 175.5t235.5 76.5v-26q-131 -10 -222.5 -76.5t-136.5 -162.5t-45 -194q0 -70 23.5 -128t68.5 -92t108 -34q55 0 98 27t67 74t24 106q0 58 -22.5 103.5t-63 71t-91.5 25.5q-25 0 -48.5 -5t-44.5 -17l-11 18
q24 16 50.5 23.5t55.5 7.5q59 0 106 -28.5t73 -80t26 -116.5q0 -70 -28.5 -124t-77.5 -83t-110 -29q-75 0 -127.5 37.5z" />
    <glyph glyph-name="seven" unicode="7" horiz-adv-x="430" 
d="M440 700l-271 -606q-10 -23 -16.5 -39t-9.5 -27.5t-5 -23.5l-1 -4h-44v4q7 12 14 23.5t14.5 28t18.5 39.5l262 585l4 -10h-271h-46t-30 -1.5t-25 -5.5h-4v37h410z" />
    <glyph glyph-name="eight" unicode="8" horiz-adv-x="620" 
d="M191 10.5q-52 26.5 -81.5 74t-29.5 107.5q0 81 50 137t132 69l-3 -11q-58 12 -95.5 57.5t-37.5 101.5q0 46 24.5 85t66.5 62t93 23t93 -23t66.5 -62t24.5 -85q0 -56 -37.5 -101.5t-95.5 -57.5l-3 11q82 -13 132 -69t50 -137q0 -60 -29.5 -107.5t-81.5 -74t-119 -26.5
t-119 26.5zM413.5 34q45.5 23 71 64.5t25.5 93.5q0 53 -25.5 95t-71 65.5t-103.5 23.5t-103.5 -23.5t-71 -65.5t-25.5 -95q0 -52 25.5 -93.5t71 -64.5t103.5 -23t103.5 23zM387.5 422q35.5 20 56 54t20.5 73t-20.5 71t-56 50.5t-77.5 18.5t-77.5 -18.5t-56 -50.5t-20.5 -71
t20.5 -73t56 -54t77.5 -20t77.5 20z" />
    <glyph glyph-name="nine" unicode="9" horiz-adv-x="610" 
d="M429.5 680.5q52.5 -37.5 79 -100.5t26.5 -139q0 -105 -50 -208.5t-148.5 -173t-235.5 -75.5v25q131 10 222.5 76t136.5 161t45 191q0 70 -23.5 128t-68.5 92t-108 34q-55 0 -98 -27t-67 -74t-24 -106q0 -58 22.5 -103.5t63 -71t91.5 -25.5q25 0 48.5 5t44.5 17l11 -18
q-24 -16 -50.5 -23.5t-55.5 -7.5q-59 0 -106 28.5t-73 80t-26 116.5q0 70 28.5 124t77.5 83t110 29q75 0 127.5 -37.5z" />
    <glyph glyph-name="colon" unicode=":" horiz-adv-x="280" 
d="M112 156q-12 12 -12 28t12 28t28 12t28 -12t12 -28t-12 -28t-28 -12t-28 12zM112 468q-12 12 -12 28t12 28t28 12t28 -12t12 -28t-12 -28t-28 -12t-28 12z" />
    <glyph glyph-name="semicolon" unicode=";" horiz-adv-x="280" 
d="M112 471q-12 12 -12 28t12 28t28 12t28 -12t12 -28t-12 -28t-28 -12t-28 12zM100 65q18 23 29 41t12.5 28.5t-5.5 11.5q-14 2 -25.5 12t-11.5 26q0 17 12 29.5t29 12.5q19 0 30 -13t11 -35q0 -20 -10 -44t-36 -56l-22 -26l-16 10z" />
    <glyph glyph-name="less" unicode="&#x3c;" horiz-adv-x="457" 
d="M369 572l-222 -217l222 -217l-12 -13l-257 230l257 230z" />
    <glyph glyph-name="equal" unicode="=" horiz-adv-x="460" 
d="M435 454v-27h-410v27h410zM435 294v-27h-410v27h410z" />
    <glyph glyph-name="greater" unicode="&#x3e;" horiz-adv-x="457" 
d="M108 572l222 -217l-222 -217l12 -13l257 230l-257 230z" />
    <glyph glyph-name="question" unicode="?" horiz-adv-x="445" 
d="M164 6q-12 12 -12 28t12 28t28 12t28 -12t12 -28t-12 -28t-28 -12t-28 12zM194 718q84 0 127 -35t43 -97q0 -38 -17.5 -72.5t-64.5 -87.5l-56 -65q-6 -8 -13 -16q-17 -23 -26 -44t-9 -42q0 -15 4.5 -30.5t12.5 -33.5l-10 -5q-16 22 -23.5 42t-7.5 39q0 25 12.5 51
t38.5 56l57 66q42 49 57 79t15 63q0 49 -39 77t-106 28q-28 0 -49.5 -4.5t-38.5 -13.5t-32 -24h-9l4 47q61 22 130 22z" />
    <glyph glyph-name="at" unicode="@" horiz-adv-x="820" 
d="M526 327v-27h-235v27h235zM412 626h19l125 -354q18 -52 42 -76t53 -24q28 0 53 21t40.5 62t15.5 99q0 97 -47 178t-127.5 128t-176.5 47t-176 -47t-126.5 -128t-46.5 -178t46.5 -178t126.5 -128t176 -47q63 0 121.5 21t108.5 59l15 -19q-50 -42 -112.5 -65t-131.5 -23
q-104 0 -191.5 50.5t-138 138t-50.5 191.5t50.5 191.5t138 138t191.5 50.5t191.5 -50.5t138 -138t50.5 -191.5q0 -60 -18 -107.5t-49.5 -74.5t-71.5 -27q-38 0 -70 27t-57 100l-119 339h15l-137 -373q-6 -18 -9 -29t-3.5 -15.5t-0.5 -6.5v-2h-39v2q1 2 1 3q2 5 6.5 16.5
t12.5 31.5l142 388h19z" />
    <glyph glyph-name="A" unicode="A" horiz-adv-x="600" 
d="M490 214v-27h-360v27h360zM311 700h12l223 -595q13 -36 22 -57.5t13 -30.5t6 -13v-4h-45v4v2q0 5 -1.5 14.5t-8 30.5t-19.5 55l-212 569h16l-212 -569q-13 -35 -19.5 -56t-8 -30t-1.5 -14v-2v-4h-43v4q2 4 6 13t13 30.5t22 57.5l224 595h13z" />
    <glyph glyph-name="A" unicode="a" horiz-adv-x="600" 
d="M490 214v-27h-360v27h360zM311 700h12l223 -595q13 -36 22 -57.5t13 -30.5t6 -13v-4h-45v4v2q0 5 -1.5 14.5t-8 30.5t-19.5 55l-212 569h16l-212 -569q-13 -35 -19.5 -56t-8 -30t-1.5 -14v-2v-4h-43v4q2 4 6 13t13 30.5t22 57.5l224 595h13z" />
    <glyph glyph-name="B" unicode="B" horiz-adv-x="645" 
d="M157 11l-16 16h175q121 0 186.5 48.5t65.5 138.5q0 92 -68 140t-199 52h-1v16h1q59 10 101 42.5t42 85.5q0 59 -49 91t-136 32h-118l16 16v-678zM416 661q58 -39 58 -106q0 -57 -39 -95.5t-106 -46.5v12q84 0 144.5 -25t92.5 -72.5t32 -113.5q0 -67 -33.5 -115t-97 -73.5
t-151.5 -25.5h-191v4q1 12 1.5 24.5t0.5 30.5v46v490v46t-0.5 30.5t-1.5 24.5v4h134q99 0 157 -39z" />
    <glyph glyph-name="B" unicode="b" horiz-adv-x="645" 
d="M157 11l-16 16h175q121 0 186.5 48.5t65.5 138.5q0 92 -68 140t-199 52h-1v16h1q59 10 101 42.5t42 85.5q0 59 -49 91t-136 32h-118l16 16v-678zM416 661q58 -39 58 -106q0 -57 -39 -95.5t-106 -46.5v12q84 0 144.5 -25t92.5 -72.5t32 -113.5q0 -67 -33.5 -115t-97 -73.5
t-151.5 -25.5h-191v4q1 12 1.5 24.5t0.5 30.5v46v490v46t-0.5 30.5t-1.5 24.5v4h134q99 0 157 -39z" />
    <glyph glyph-name="C" unicode="C" horiz-adv-x="727" 
d="M677 559h-12q-16 38 -57.5 70t-97.5 50t-112 18q-93 0 -170.5 -45.5t-122.5 -124t-45 -173.5q0 -94 45 -172.5t122.5 -124.5t170.5 -46q60 0 114 18t94 49.5t59 70.5h12v-50q-53 -53 -125 -84t-154 -31q-101 0 -185.5 49.5t-133.5 134.5t-49 186t49 186t133.5 134.5
t185.5 49.5q82 0 154 -31t125 -84v-50z" />
    <glyph glyph-name="C" unicode="c" horiz-adv-x="727" 
d="M677 559h-12q-16 38 -57.5 70t-97.5 50t-112 18q-93 0 -170.5 -45.5t-122.5 -124t-45 -173.5q0 -94 45 -172.5t122.5 -124.5t170.5 -46q60 0 114 18t94 49.5t59 70.5h12v-50q-53 -53 -125 -84t-154 -31q-101 0 -185.5 49.5t-133.5 134.5t-49 186t49 186t133.5 134.5
t185.5 49.5q82 0 154 -31t125 -84v-50z" />
    <glyph glyph-name="D" unicode="D" horiz-adv-x="780" 
d="M141 27h219q110 0 191.5 45t125 119t43.5 159q0 94 -45.5 167.5t-127.5 114.5t-186 41h-220l16 16v-678zM568.5 655.5q85.5 -44.5 133.5 -124t48 -181.5q0 -96 -49.5 -176.5t-135.5 -127t-191 -46.5h-249v4q1 12 1.5 24.5t0.5 30.5v46v490v46t-0.5 30.5t-1.5 24.5v4h249
q109 0 194.5 -44.5z" />
    <glyph glyph-name="D" unicode="d" horiz-adv-x="780" 
d="M141 27h219q110 0 191.5 45t125 119t43.5 159q0 94 -45.5 167.5t-127.5 114.5t-186 41h-220l16 16v-678zM568.5 655.5q85.5 -44.5 133.5 -124t48 -181.5q0 -96 -49.5 -176.5t-135.5 -127t-191 -46.5h-249v4q1 12 1.5 24.5t0.5 30.5v46v490v46t-0.5 30.5t-1.5 24.5v4h249
q109 0 194.5 -44.5z" />
    <glyph glyph-name="E" unicode="E" horiz-adv-x="545" 
d="M492 700v-30h-4q-12 1 -23.5 2t-28 1h-39.5h-256l16 16v-215l-12 13h269v-27h-269l12 12v-461l-16 16h293h39.5t28 1t23.5 2h4v-30h-404v4q1 12 1.5 24.5t0.5 30.5v46v490v46t-0.5 30.5t-1.5 24.5v4h367z" />
    <glyph glyph-name="E" unicode="e" horiz-adv-x="545" 
d="M492 700v-30h-4q-12 1 -23.5 2t-28 1h-39.5h-256l16 16v-215l-12 13h269v-27h-269l12 12v-461l-16 16h293h39.5t28 1t23.5 2h4v-30h-404v4q1 12 1.5 24.5t0.5 30.5v46v490v46t-0.5 30.5t-1.5 24.5v4h367z" />
    <glyph glyph-name="F" unicode="F" horiz-adv-x="493" 
d="M502 700v-30h-4q-12 1 -23.5 2t-28 1h-39.5h-266l16 16v-215l-12 13h264v-27h-264l12 12v-367v-46t1 -30.5t2 -24.5v-4h-35v4q1 12 1.5 24.5t0.5 30.5v46v490v46t-0.5 30.5t-1.5 24.5v4h377z" />
    <glyph glyph-name="F" unicode="f" horiz-adv-x="493" 
d="M502 700v-30h-4q-12 1 -23.5 2t-28 1h-39.5h-266l16 16v-215l-12 13h264v-27h-264l12 12v-367v-46t1 -30.5t2 -24.5v-4h-35v4q1 12 1.5 24.5t0.5 30.5v46v490v46t-0.5 30.5t-1.5 24.5v4h377z" />
    <glyph glyph-name="G" unicode="G" horiz-adv-x="757" 
d="M677 559h-12q-16 38 -57.5 70t-97.5 50t-112 18q-93 0 -170.5 -45.5t-122.5 -124t-45 -173.5q0 -94 45 -172.5t122.5 -124.5t170.5 -46q52 0 100.5 15.5t89.5 43.5t72 67l-13 -40v167q0 23 -0.5 39.5t-2 27.5t-5.5 24v4h40v-4q-1 -18 -1.5 -38t-0.5 -53v-157
q-52 -57 -125 -90t-154 -33q-101 0 -185.5 49.5t-133.5 134.5t-49 186t49 186t133.5 134.5t185.5 49.5q82 0 154 -31t125 -84v-50z" />
    <glyph glyph-name="G" unicode="g" horiz-adv-x="757" 
d="M677 559h-12q-16 38 -57.5 70t-97.5 50t-112 18q-93 0 -170.5 -45.5t-122.5 -124t-45 -173.5q0 -94 45 -172.5t122.5 -124.5t170.5 -46q52 0 100.5 15.5t89.5 43.5t72 67l-13 -40v167q0 23 -0.5 39.5t-2 27.5t-5.5 24v4h40v-4q-1 -18 -1.5 -38t-0.5 -53v-157
q-52 -57 -125 -90t-154 -33q-101 0 -185.5 49.5t-133.5 134.5t-49 186t49 186t133.5 134.5t185.5 49.5q82 0 154 -31t125 -84v-50z" />
    <glyph glyph-name="H" unicode="H" horiz-adv-x="700" 
d="M575 700v-4q-1 -12 -1.5 -24.5t-0.5 -30.5v-46v-490v-46t0.5 -30.5t1.5 -24.5v-4h-35v4q1 12 2 24.5t1 30.5v46v490v46t-1 30.5t-2 24.5v4h35zM553 487v-27h-406v27h406zM160 700v-4q-1 -12 -2 -24.5t-1 -30.5v-46v-490v-46t1 -30.5t2 -24.5v-4h-35v4q1 12 1.5 24.5
t0.5 30.5v46v490v46t-0.5 30.5t-1.5 24.5v4h35z" />
    <glyph glyph-name="H" unicode="h" horiz-adv-x="700" 
d="M575 700v-4q-1 -12 -1.5 -24.5t-0.5 -30.5v-46v-490v-46t0.5 -30.5t1.5 -24.5v-4h-35v4q1 12 2 24.5t1 30.5v46v490v46t-1 30.5t-2 24.5v4h35zM553 487v-27h-406v27h406zM160 700v-4q-1 -12 -2 -24.5t-1 -30.5v-46v-490v-46t1 -30.5t2 -24.5v-4h-35v4q1 12 1.5 24.5
t0.5 30.5v46v490v46t-0.5 30.5t-1.5 24.5v4h35z" />
    <glyph glyph-name="I" unicode="I" horiz-adv-x="285" 
d="M159 700v-4q-1 -12 -1.5 -24.5t-0.5 -30.5v-46v-490v-46t0.5 -30.5t1.5 -24.5v-4h-34v4q1 12 1.5 24.5t0.5 30.5v46v490v46t-0.5 30.5t-1.5 24.5v4h34z" />
    <glyph glyph-name="I" unicode="i" horiz-adv-x="285" 
d="M159 700v-4q-1 -12 -1.5 -24.5t-0.5 -30.5v-46v-490v-46t0.5 -30.5t1.5 -24.5v-4h-34v4q1 12 1.5 24.5t0.5 30.5v46v490v46t-0.5 30.5t-1.5 24.5v4h34z" />
    <glyph glyph-name="J" unicode="J" horiz-adv-x="305" 
d="M179 700v-4q-1 -12 -1.5 -23.5t-0.5 -28v-39.5v-484q0 -81 -24 -142t-73.5 -99.5t-125.5 -50.5l-4 12q75 16 118.5 55.5t61 97.5t17.5 139v472v39.5t-1 28t-2 23.5v4h35z" />
    <glyph glyph-name="J" unicode="j" horiz-adv-x="305" 
d="M179 700v-4q-1 -12 -1.5 -23.5t-0.5 -28v-39.5v-484q0 -81 -24 -142t-73.5 -99.5t-125.5 -50.5l-4 12q75 16 118.5 55.5t61 97.5t17.5 139v472v39.5t-1 28t-2 23.5v4h35z" />
    <glyph glyph-name="K" unicode="K" horiz-adv-x="629" 
d="M160 700v-4q-1 -12 -2 -24.5t-1 -30.5v-46v-248h-18l263 248q28 26 48.5 46.5t31 33t14.5 21.5l2 4h57v-3q-10 -7 -20.5 -16t-23.5 -21t-28 -27l-41 -38l-141 -132v15l253 -386q34 -51 47.5 -68.5t22.5 -23.5l-2 -8q-17 -2 -31 7.5t-27 26t-34 49.5l-249 380h12
l-155 -145l19 34v-239v-46t1 -30.5t2 -24.5v-4h-35v4q1 12 1.5 24.5t0.5 30.5v46v490v46t-0.5 30.5t-1.5 24.5v4h35z" />
    <glyph glyph-name="K" unicode="k" horiz-adv-x="629" 
d="M160 700v-4q-1 -12 -2 -24.5t-1 -30.5v-46v-248h-18l263 248q28 26 48.5 46.5t31 33t14.5 21.5l2 4h57v-3q-10 -7 -20.5 -16t-23.5 -21t-28 -27l-41 -38l-141 -132v15l253 -386q34 -51 47.5 -68.5t22.5 -23.5l-2 -8q-17 -2 -31 7.5t-27 26t-34 49.5l-249 380h12
l-155 -145l19 34v-239v-46t1 -30.5t2 -24.5v-4h-35v4q1 12 1.5 24.5t0.5 30.5v46v490v46t-0.5 30.5t-1.5 24.5v4h35z" />
    <glyph glyph-name="L" unicode="L" horiz-adv-x="450" 
d="M160 700v-4q-1 -12 -2 -24.5t-1 -30.5v-46v-584l-16 16h224h39.5t28 1t23.5 2h4v-30h-335v4q1 12 1.5 24.5t0.5 30.5v46v490v46t-0.5 30.5t-1.5 24.5v4h35z" />
    <glyph glyph-name="L" unicode="l" horiz-adv-x="450" 
d="M160 700v-4q-1 -12 -2 -24.5t-1 -30.5v-46v-584l-16 16h224h39.5t28 1t23.5 2h4v-30h-335v4q1 12 1.5 24.5t0.5 30.5v46v490v46t-0.5 30.5t-1.5 24.5v4h35z" />
    <glyph glyph-name="M" unicode="M" horiz-adv-x="840" 
d="M145 700l285 -516h-17l282 516h20q-1 -14 -1.5 -27t-0.5 -31.5v-46.5v-490v-46t0.5 -30.5t1.5 -24.5v-4h-35v4q1 12 2 24.5t1 30.5v46v553h20l-275 -503h-16l-275 498h17v-548v-46t1 -30.5t2 -24.5v-4h-32v4q1 12 1.5 24.5t0.5 30.5v46v490v3v44t-0.5 31t-1.5 27h20z" />
    <glyph glyph-name="M" unicode="m" horiz-adv-x="840" 
d="M145 700l285 -516h-17l282 516h20q-1 -14 -1.5 -27t-0.5 -31.5v-46.5v-490v-46t0.5 -30.5t1.5 -24.5v-4h-35v4q1 12 2 24.5t1 30.5v46v553h20l-275 -503h-16l-275 498h17v-548v-46t1 -30.5t2 -24.5v-4h-32v4q1 12 1.5 24.5t0.5 30.5v46v490v3v44t-0.5 31t-1.5 27h20z" />
    <glyph glyph-name="N" unicode="N" horiz-adv-x="710" 
d="M150 702l418 -661h-12v554v46t-1 30.5t-2 24.5v4h32v-4q-1 -12 -1.5 -24.5t-0.5 -30.5v-46v-502v-40t0.5 -29.5t1.5 -25.5h-25l-421 665h15v-558v-46t1 -30.5t2 -24.5v-4h-32v4q1 12 1.5 24.5t0.5 30.5v46v502v40t-0.5 29.5t-1.5 25.5h25z" />
    <glyph glyph-name="N" unicode="n" horiz-adv-x="710" 
d="M150 702l418 -661h-12v554v46t-1 30.5t-2 24.5v4h32v-4q-1 -12 -1.5 -24.5t-0.5 -30.5v-46v-502v-40t0.5 -29.5t1.5 -25.5h-25l-421 665h15v-558v-46t1 -30.5t2 -24.5v-4h-32v4q1 12 1.5 24.5t0.5 30.5v46v502v40t-0.5 29.5t-1.5 25.5h25z" />
    <glyph glyph-name="O" unicode="O" horiz-adv-x="800" 
d="M214 33.5q-85 49.5 -134.5 134.5t-49.5 186t49.5 186t134.5 134.5t186 49.5t186 -49.5t134.5 -134.5t49.5 -186t-49.5 -186t-134.5 -134.5t-186 -49.5t-186 49.5zM571 57q78 46 123.5 124.5t45.5 172.5q0 95 -45.5 173.5t-123.5 124t-172 45.5t-171.5 -45.5t-122.5 -124
t-45 -173.5q0 -94 45 -172.5t122.5 -124.5t171.5 -46t172 46z" />
    <glyph glyph-name="O" unicode="o" horiz-adv-x="800" 
d="M214 33.5q-85 49.5 -134.5 134.5t-49.5 186t49.5 186t134.5 134.5t186 49.5t186 -49.5t134.5 -134.5t49.5 -186t-49.5 -186t-134.5 -134.5t-186 -49.5t-186 49.5zM571 57q78 46 123.5 124.5t45.5 172.5q0 95 -45.5 173.5t-123.5 124t-172 45.5t-171.5 -45.5t-122.5 -124
t-45 -173.5q0 -94 45 -172.5t122.5 -124.5t171.5 -46t172 46z" />
    <glyph glyph-name="P" unicode="P" horiz-adv-x="591" 
d="M490.5 646q80.5 -54 80.5 -174q0 -63 -27.5 -108t-74 -68t-102.5 -23q-21 0 -40.5 3.5t-38.5 11.5l5 19q18 -5 36.5 -7.5t37.5 -2.5q47 0 87 21t63.5 60.5t23.5 93.5q0 63 -29 108t-88 69t-147 24h-136l16 16v-584v-46t1 -30.5t2 -24.5v-4h-35v4q1 12 1.5 24.5t0.5 30.5
v46v490v46t-0.5 30.5t-1.5 24.5v4h160q125 0 205.5 -54z" />
    <glyph glyph-name="P" unicode="p" horiz-adv-x="591" 
d="M490.5 646q80.5 -54 80.5 -174q0 -63 -27.5 -108t-74 -68t-102.5 -23q-21 0 -40.5 3.5t-38.5 11.5l5 19q18 -5 36.5 -7.5t37.5 -2.5q47 0 87 21t63.5 60.5t23.5 93.5q0 63 -29 108t-88 69t-147 24h-136l16 16v-584v-46t1 -30.5t2 -24.5v-4h-35v4q1 12 1.5 24.5t0.5 30.5
v46v490v46t-0.5 30.5t-1.5 24.5v4h160q125 0 205.5 -54z" />
    <glyph glyph-name="Q" unicode="Q" horiz-adv-x="815" 
d="M776 -163q-81 0 -136 43.5t-100 134.5l3 2l1 13l10 5l11 -8l3 1q28 -57 62 -95.5t75.5 -60t91.5 -25.5v-9q-7 -1 -21 -1zM214 33.5q-85 49.5 -134.5 134.5t-49.5 186t49.5 186t134.5 134.5t186 49.5t186 -49.5t134.5 -134.5t49.5 -186t-49.5 -186t-134.5 -134.5
t-186 -49.5t-186 49.5zM572.5 57q77.5 46 122.5 124.5t45 172.5q0 95 -45 173.5t-122.5 124t-171.5 45.5t-172 -45.5t-123.5 -124t-45.5 -173.5q0 -94 45.5 -172.5t123.5 -124.5t172 -46t171.5 46z" />
    <glyph glyph-name="Q" unicode="q" horiz-adv-x="815" 
d="M776 -163q-81 0 -136 43.5t-100 134.5l3 2l1 13l10 5l11 -8l3 1q28 -57 62 -95.5t75.5 -60t91.5 -25.5v-9q-7 -1 -21 -1zM214 33.5q-85 49.5 -134.5 134.5t-49.5 186t49.5 186t134.5 134.5t186 49.5t186 -49.5t134.5 -134.5t49.5 -186t-49.5 -186t-134.5 -134.5
t-186 -49.5t-186 49.5zM572.5 57q77.5 46 122.5 124.5t45 172.5q0 95 -45 173.5t-122.5 124t-171.5 45.5t-172 -45.5t-123.5 -124t-45.5 -173.5q0 -94 45.5 -172.5t123.5 -124.5t172 -46t171.5 46z" />
    <glyph glyph-name="R" unicode="R" horiz-adv-x="669" 
d="M470 681q59 -19 89.5 -55t30.5 -86q0 -53 -28.5 -88t-83.5 -52.5t-135 -17.5h-8h-8h-8l16 13l216 -304q37 -52 50 -68t23 -22l-2 -8q-23 -3 -42 14.5t-50 61.5l-3 4l-227 320l7 14h21h21q106 0 158.5 33t52.5 98q0 42 -28.5 72.5t-82.5 46.5t-129 16h-179l16 16v-584v-46
t1 -30.5t2 -24.5v-4h-35v4q1 12 1.5 24.5t0.5 30.5v46v490v46t-0.5 30.5t-1.5 24.5v4h203q83 0 142 -19z" />
    <glyph glyph-name="R" unicode="r" horiz-adv-x="669" 
d="M470 681q59 -19 89.5 -55t30.5 -86q0 -53 -28.5 -88t-83.5 -52.5t-135 -17.5h-8h-8h-8l16 13l216 -304q37 -52 50 -68t23 -22l-2 -8q-23 -3 -42 14.5t-50 61.5l-3 4l-227 320l7 14h21h21q106 0 158.5 33t52.5 98q0 42 -28.5 72.5t-82.5 46.5t-129 16h-179l16 16v-584v-46
t1 -30.5t2 -24.5v-4h-35v4q1 12 1.5 24.5t0.5 30.5v46v490v46t-0.5 30.5t-1.5 24.5v4h203q83 0 142 -19z" />
    <glyph glyph-name="S" unicode="S" horiz-adv-x="486" 
d="M390 649h-9q-16 16 -34.5 25t-41.5 13t-54 4q-67 0 -102 -27.5t-35 -72.5q0 -39 19.5 -74.5t58.5 -74.5l140 -142q46 -46 64 -83.5t18 -78.5q0 -50 -24.5 -83.5t-65 -50t-88.5 -16.5q-43 0 -84.5 13t-73.5 36l-3 44h9q23 -23 48 -37.5t53.5 -21.5t61.5 -7q58 0 97.5 32.5
t39.5 87.5q0 32 -17.5 69t-55.5 75l-140 142q-46 46 -66.5 86.5t-20.5 80.5q0 57 45 93.5t127 36.5q69 0 130 -22z" />
    <glyph glyph-name="S" unicode="s" horiz-adv-x="486" 
d="M390 649h-9q-16 16 -34.5 25t-41.5 13t-54 4q-67 0 -102 -27.5t-35 -72.5q0 -39 19.5 -74.5t58.5 -74.5l140 -142q46 -46 64 -83.5t18 -78.5q0 -50 -24.5 -83.5t-65 -50t-88.5 -16.5q-43 0 -84.5 13t-73.5 36l-3 44h9q23 -23 48 -37.5t53.5 -21.5t61.5 -7q58 0 97.5 32.5
t39.5 87.5q0 32 -17.5 69t-55.5 75l-140 142q-46 46 -66.5 86.5t-20.5 80.5q0 57 45 93.5t127 36.5q69 0 130 -22z" />
    <glyph glyph-name="T" unicode="T" horiz-adv-x="500" 
d="M500 700v-30h-4q-12 1 -23.5 2t-28 1h-39.5h-134l14 14v-582q0 -23 0.5 -39.5t0.5 -27t1 -19.5l1 -15v-4h-36v4l1 15q1 9 1 19.5t0.5 27t0.5 39.5v582l14 -14h-134h-39.5t-28 -1t-23.5 -2h-4v30h460z" />
    <glyph glyph-name="T" unicode="t" horiz-adv-x="500" 
d="M500 700v-30h-4q-12 1 -23.5 2t-28 1h-39.5h-134l14 14v-582q0 -23 0.5 -39.5t0.5 -27t1 -19.5l1 -15v-4h-36v4l1 15q1 9 1 19.5t0.5 27t0.5 39.5v582l14 -14h-134h-39.5t-28 -1t-23.5 -2h-4v30h460z" />
    <glyph glyph-name="U" unicode="U" horiz-adv-x="686" 
d="M135 700v-4q-1 -12 -2 -24.5t-1 -30.5v-46v-319q0 -128 57 -196.5t159 -68.5q63 0 109 30t71.5 87.5t25.5 137.5v329v46t-1 30.5t-2 24.5v4h35v-4q-1 -12 -1.5 -24.5t-0.5 -30.5v-46v-319q0 -93 -30.5 -158.5t-86 -99.5t-129.5 -34q-69 0 -122.5 33.5t-83.5 97t-30 151.5
v329v46t-0.5 30.5t-1.5 24.5v4h35z" />
    <glyph glyph-name="U" unicode="u" horiz-adv-x="686" 
d="M135 700v-4q-1 -12 -2 -24.5t-1 -30.5v-46v-319q0 -128 57 -196.5t159 -68.5q63 0 109 30t71.5 87.5t25.5 137.5v329v46t-1 30.5t-2 24.5v4h35v-4q-1 -12 -1.5 -24.5t-0.5 -30.5v-46v-319q0 -93 -30.5 -158.5t-86 -99.5t-129.5 -34q-69 0 -122.5 33.5t-83.5 97t-30 151.5
v329v46t-0.5 30.5t-1.5 24.5v4h35z" />
    <glyph glyph-name="V" unicode="V" horiz-adv-x="580" 
d="M73 700v-4v-1q0 -5 1 -14t7 -30t19 -56l205 -570h-17l205 570q12 34 18 55t7 30t1 14v2v4h43v-4q-2 -4 -6 -13t-12.5 -30.5t-21.5 -57.5l-215 -595h-12.5h-12.5l-214 595q-13 36 -21.5 57.5t-12.5 30.5t-6 13v4h45z" />
    <glyph glyph-name="V" unicode="v" horiz-adv-x="580" 
d="M73 700v-4v-1q0 -5 1 -14t7 -30t19 -56l205 -570h-17l205 570q12 34 18 55t7 30t1 14v2v4h43v-4q-2 -4 -6 -13t-12.5 -30.5t-21.5 -57.5l-215 -595h-12.5h-12.5l-214 595q-13 36 -21.5 57.5t-12.5 30.5t-6 13v4h45z" />
    <glyph glyph-name="W" unicode="W" horiz-adv-x="999" 
d="M56 700v-4v-3q0 -9 2.5 -22.5t8.5 -32t14 -43.5l193 -573h-13l229 678h25l222 -678h-12l195 572q9 27 14 45.5t6.5 31t1.5 22.5v3v4h45v-4q-3 -9 -7 -18q-6 -15 -13.5 -35.5t-17.5 -48.5l-203 -594h-17h-16l-218 666h12l-225 -666h-16h-16l-201 595q-9 26 -15.5 45.5
t-11.5 32.5t-9 23v4h43z" />
    <glyph glyph-name="W" unicode="w" horiz-adv-x="999" 
d="M56 700v-4v-3q0 -9 2.5 -22.5t8.5 -32t14 -43.5l193 -573h-13l229 678h25l222 -678h-12l195 572q9 27 14 45.5t6.5 31t1.5 22.5v3v4h45v-4q-3 -9 -7 -18q-6 -15 -13.5 -35.5t-17.5 -48.5l-203 -594h-17h-16l-218 666h12l-225 -666h-16h-16l-201 595q-9 26 -15.5 45.5
t-11.5 32.5t-9 23v4h43z" />
    <glyph glyph-name="X" unicode="X" horiz-adv-x="643" 
d="M118 700l1 -4l1 -2q2 -6 6.5 -13.5t15.5 -23t29 -40.5l378 -511q23 -31 38.5 -51.5t25.5 -32t17 -18.5v-4h-48l-1 4l-1 2q-2 6 -6 13.5t-15 22.5t-29 40l-379 512q-23 31 -38.5 51.5t-25.5 32t-17 18.5v4h48zM589 693q-7 -8 -16.5 -19t-24.5 -31t-37 -49l-171 -233
l-15 25l171 232q17 23 27.5 38.5t14 23t4.5 13.5q1 2 1 3l1 4h48v-4zM36 7q7 8 16.5 19.5t24.5 31t36 48.5l208 284l15 -25l-207 -283q-17 -23 -27.5 -38.5t-14 -23t-4.5 -13.5l-1 -3l-1 -4h-48v4z" />
    <glyph glyph-name="X" unicode="x" horiz-adv-x="643" 
d="M118 700l1 -4l1 -2q2 -6 6.5 -13.5t15.5 -23t29 -40.5l378 -511q23 -31 38.5 -51.5t25.5 -32t17 -18.5v-4h-48l-1 4l-1 2q-2 6 -6 13.5t-15 22.5t-29 40l-379 512q-23 31 -38.5 51.5t-25.5 32t-17 18.5v4h48zM589 693q-7 -8 -16.5 -19t-24.5 -31t-37 -49l-171 -233
l-15 25l171 232q17 23 27.5 38.5t14 23t4.5 13.5q1 2 1 3l1 4h48v-4zM36 7q7 8 16.5 19.5t24.5 31t36 48.5l208 284l15 -25l-207 -283q-17 -23 -27.5 -38.5t-14 -23t-4.5 -13.5l-1 -3l-1 -4h-48v4z" />
    <glyph glyph-name="Y" unicode="Y" horiz-adv-x="619" 
d="M53 645.5q-15 20.5 -25 32t-17 18.5v4h48l1 -4q2 -6 6.5 -13t14.5 -21.5t27 -38.5l3 -5l203 -289h-7l205 289q18 25 28 40.5t14 23t5 12.5l1 2l1 4h47v-4q-8 -8 -17.5 -19.5t-25 -32t-36.5 -50.5l-220 -309l-219 309q-22 31 -37 51.5zM293.5 27.5q0.5 11.5 0.5 28v39.5
v222h30v-222v-39.5t0.5 -28t1.5 -23.5v-4h-34v4q1 12 1.5 23.5z" />
    <glyph glyph-name="Y" unicode="y" horiz-adv-x="619" 
d="M53 645.5q-15 20.5 -25 32t-17 18.5v4h48l1 -4q2 -6 6.5 -13t14.5 -21.5t27 -38.5l3 -5l203 -289h-7l205 289q18 25 28 40.5t14 23t5 12.5l1 2l1 4h47v-4q-8 -8 -17.5 -19.5t-25 -32t-36.5 -50.5l-220 -309l-219 309q-22 31 -37 51.5zM293.5 27.5q0.5 11.5 0.5 28v39.5
v222h30v-222v-39.5t0.5 -28t1.5 -23.5v-4h-34v4q1 12 1.5 23.5z" />
    <glyph glyph-name="Z" unicode="Z" horiz-adv-x="570" 
d="M519 700l-386 -683l-7 10h308q24 0 41 1t28 3t23 7h3v-38h-440l387 684l6 -11h-292q-24 0 -41 -1t-28 -3t-23 -7h-3v38h424z" />
    <glyph glyph-name="Z" unicode="z" horiz-adv-x="570" 
d="M519 700l-386 -683l-7 10h308q24 0 41 1t28 3t23 7h3v-38h-440l387 684l6 -11h-292q-24 0 -41 -1t-28 -3t-23 -7h-3v38h424z" />
    <glyph glyph-name="bracketleft" unicode="[" horiz-adv-x="350" 
d="M260 800v-27h-120v-846h120v-27h-150v900h150z" />
    <glyph glyph-name="backslash" unicode="\" horiz-adv-x="540" 
d="M38 795l440 -899l24 11l-440 899z" />
    <glyph glyph-name="bracketright" unicode="]" horiz-adv-x="350" 
d="M90 800v-27h120v-846h-120v-27h150v900h-150z" />
    <glyph glyph-name="asciicircum" unicode="^" horiz-adv-x="600" 
d="M493 490l-193 197l-194 -196l-13 11l207 231l207 -231z" />
    <glyph glyph-name="underscore" unicode="_" horiz-adv-x="750" 
d="M705 27v-27h-660v27h660z" />
    <glyph glyph-name="braceleft" unicode="{" horiz-adv-x="470" 
d="M347.5 -82.5q-30.5 10.5 -50.5 28t-33 41.5t-18.5 55.5t-13.5 90.5q-7 60 -13.5 92t-19.5 56q-15 29 -42.5 44t-76.5 23v10q48 8 76 23.5t43 44.5q13 24 19.5 56t13.5 92q8 59 13.5 90.5t18.5 55.5t33 41.5t50.5 28t72.5 10.5v-12q-50 -4 -79.5 -19.5t-45.5 -45.5
q-13 -24 -19.5 -58t-13.5 -91q-7 -55 -13.5 -89t-18.5 -57q-16 -30 -40 -50.5t-53 -26.5v6q29 -6 53 -27t40 -51q12 -23 18.5 -57t13.5 -89q7 -57 13.5 -91.5t19.5 -57.5q16 -30 45.5 -45.5t79.5 -19.5v-12q-42 0 -72.5 10.5z" />
    <glyph glyph-name="braceright" unicode="}" horiz-adv-x="470" 
d="M122.5 -82.5q30.5 10.5 50.5 28t33 41.5t18.5 55.5t13.5 90.5q7 60 13.5 92t19.5 56q15 29 42.5 44t76.5 23v10q-48 8 -76 23.5t-43 44.5q-13 24 -19.5 56t-13.5 92q-8 59 -13.5 90.5t-18.5 55.5t-33 41.5t-50.5 28t-72.5 10.5v-12q50 -4 79.5 -19.5t45.5 -45.5
q13 -24 19.5 -58t13.5 -91q7 -55 13.5 -89t18.5 -57q16 -30 40 -50.5t53 -26.5v6q-29 -6 -53 -27t-40 -51q-12 -23 -18.5 -57t-13.5 -89q-7 -57 -13.5 -91.5t-19.5 -57.5q-16 -30 -45.5 -45.5t-79.5 -19.5v-12q42 0 72.5 10.5z" />
    <glyph glyph-name="asciitilde" unicode="~" horiz-adv-x="487" 
d="M289.5 332q20.5 -6 38.5 -6q45 0 94 40l-5 9q-21 -13 -39 -19t-35 -6q-14 0 -28.5 4t-34.5 12q-9 4 -18.5 8.5t-19.5 9.5q-24 12 -44.5 18t-38.5 6q-45 0 -94 -40l5 -9q21 13 39 19t35 6q14 0 28.5 -4t34.5 -12q9 -4 18.5 -8.5t19.5 -9.5q24 -12 44.5 -18z" />
    <glyph glyph-name="section" unicode="&#xa7;" horiz-adv-x="557" 
d="M448 658h-10q-16 10 -37 17.5t-46 11.5t-49 4q-59 0 -100 -24.5t-41 -69.5q0 -31 23.5 -65.5t58.5 -66.5l157 -143q31 -28 47 -60.5t16 -64.5q0 -35 -19 -64.5t-54.5 -47t-83.5 -17.5v22q57 0 92 29.5t35 74.5q0 36 -14 60.5t-60 67.5l-154 143q-38 35 -56 68.5t-18 62.5
q0 42 24.5 69.5t64.5 40t89 12.5q66 0 132 -22zM168.5 -172.5q20.5 -8.5 42 -12.5t46.5 -4q64 0 102.5 29.5t38.5 78.5q0 35 -14.5 60t-60.5 68l-154 142q-37 34 -55.5 67t-18.5 56q0 40 20 69.5t57 45t89 15.5v-22q-63 0 -99.5 -28t-36.5 -71q0 -31 23.5 -65.5t58.5 -66.5
l157 -142q64 -58 64 -127q0 -41 -22 -71.5t-62 -47.5t-94 -17q-32 0 -67.5 7.5t-64.5 20.5l-3 38h10q23 -14 43.5 -22.5z" />
    <glyph glyph-name="guillemotleft" unicode="&#xab;" horiz-adv-x="500" 
d="M264 537l11 -10l-126 -171l126 -172l-11 -9l-154 181zM423 606l12 -8l-156 -242l156 -242l-12 -8l-182 250z" />
    <glyph glyph-name="plusminus" unicode="&#xb1;" horiz-adv-x="460" 
d="M435 424v-27h-410v27h410zM217 535h27v-250h-27v250zM435 225v-27h-410v27h410z" />
    <glyph glyph-name="guillemotright" unicode="&#xbb;" horiz-adv-x="500" 
d="M236 537l-11 -10l126 -171l-126 -172l11 -9l154 181zM77 606l-12 -8l156 -242l-156 -242l12 -8l182 250z" />
    <glyph glyph-name="Agrave" unicode="&#xc0;" horiz-adv-x="600" 
d="M490 214v-27h-360v27h360zM311 700h12l223 -595q13 -36 22 -57.5t13 -30.5t6 -13v-4h-45v4v2q0 5 -1.5 14.5t-8 30.5t-19.5 55l-212 569h16l-212 -569q-13 -35 -19.5 -56t-8 -30t-1.5 -14v-2v-4h-43v4q2 4 6 13t13 30.5t22 57.5l224 595h13zM217 917l136 -149l10 9
l-116 165z" />
    <glyph glyph-name="Agrave" unicode="&#xe0;" horiz-adv-x="600" 
d="M490 214v-27h-360v27h360zM311 700h12l223 -595q13 -36 22 -57.5t13 -30.5t6 -13v-4h-45v4v2q0 5 -1.5 14.5t-8 30.5t-19.5 55l-212 569h16l-212 -569q-13 -35 -19.5 -56t-8 -30t-1.5 -14v-2v-4h-43v4q2 4 6 13t13 30.5t22 57.5l224 595h13zM217 917l136 -149l10 9
l-116 165z" />
    <glyph glyph-name="Aacute" unicode="&#xc1;" horiz-adv-x="600" 
d="M490 214v-27h-360v27h360zM311 700h12l223 -595q13 -36 22 -57.5t13 -30.5t6 -13v-4h-45v4v2q0 5 -1.5 14.5t-8 30.5t-19.5 55l-212 569h16l-212 -569q-13 -35 -19.5 -56t-8 -30t-1.5 -14v-2v-4h-43v4q2 4 6 13t13 30.5t22 57.5l224 595h13zM393 926l-136 -149l-10 9
l116 165z" />
    <glyph glyph-name="Aacute" unicode="&#xe1;" horiz-adv-x="600" 
d="M490 214v-27h-360v27h360zM311 700h12l223 -595q13 -36 22 -57.5t13 -30.5t6 -13v-4h-45v4v2q0 5 -1.5 14.5t-8 30.5t-19.5 55l-212 569h16l-212 -569q-13 -35 -19.5 -56t-8 -30t-1.5 -14v-2v-4h-43v4q2 4 6 13t13 30.5t22 57.5l224 595h13zM393 926l-136 -149l-10 9
l116 165z" />
    <glyph glyph-name="Acircumflex" unicode="&#xc2;" horiz-adv-x="600" 
d="M490 214v-27h-360v27h360zM311 700h12l223 -595q13 -36 22 -57.5t13 -30.5t6 -13v-4h-45v4v2q0 5 -1.5 14.5t-8 30.5t-19.5 55l-212 569h16l-212 -569q-13 -35 -19.5 -56t-8 -30t-1.5 -14v-2v-4h-43v4q2 4 6 13t13 30.5t22 57.5l224 595h13zM306 867l-133 -100l-11 14
l147 128l147 -128l-11 -14z" />
    <glyph glyph-name="Acircumflex" unicode="&#xe2;" horiz-adv-x="600" 
d="M490 214v-27h-360v27h360zM311 700h12l223 -595q13 -36 22 -57.5t13 -30.5t6 -13v-4h-45v4v2q0 5 -1.5 14.5t-8 30.5t-19.5 55l-212 569h16l-212 -569q-13 -35 -19.5 -56t-8 -30t-1.5 -14v-2v-4h-43v4q2 4 6 13t13 30.5t22 57.5l224 595h13zM306 867l-133 -100l-11 14
l147 128l147 -128l-11 -14z" />
    <glyph glyph-name="Atilde" unicode="&#xc3;" horiz-adv-x="600" 
d="M490 214v-27h-360v27h360zM311 700h12l223 -595q13 -36 22 -57.5t13 -30.5t6 -13v-4h-45v4v2q0 5 -1.5 14.5t-8 30.5t-19.5 55l-212 569h16l-212 -569q-13 -35 -19.5 -56t-8 -30t-1.5 -14v-2v-4h-43v4q2 4 6 13t13 30.5t22 57.5l224 595h13zM369 801q-22 6 -49 17
q-2 2 -8 4l-5 2q-31 13 -51.5 19.5t-39.5 6.5q-39 0 -64 -33l-9 7q17 29 38 42t47 13q19 0 40 -6t49 -18q4 -1 8 -3l8 -3q27 -12 48.5 -18.5t39.5 -6.5q17 0 31.5 7.5t32.5 25.5l9 -7q-21 -30 -41 -42.5t-44 -12.5q-18 0 -40 6z" />
    <glyph glyph-name="Atilde" unicode="&#xe3;" horiz-adv-x="600" 
d="M490 214v-27h-360v27h360zM311 700h12l223 -595q13 -36 22 -57.5t13 -30.5t6 -13v-4h-45v4v2q0 5 -1.5 14.5t-8 30.5t-19.5 55l-212 569h16l-212 -569q-13 -35 -19.5 -56t-8 -30t-1.5 -14v-2v-4h-43v4q2 4 6 13t13 30.5t22 57.5l224 595h13zM369 801q-22 6 -49 17
q-2 2 -8 4l-5 2q-31 13 -51.5 19.5t-39.5 6.5q-39 0 -64 -33l-9 7q17 29 38 42t47 13q19 0 40 -6t49 -18q4 -1 8 -3l8 -3q27 -12 48.5 -18.5t39.5 -6.5q17 0 31.5 7.5t32.5 25.5l9 -7q-21 -30 -41 -42.5t-44 -12.5q-18 0 -40 6z" />
    <glyph glyph-name="Adieresis" unicode="&#xc4;" horiz-adv-x="600" 
d="M490 214v-27h-360v27h360zM311 700h12l223 -595q13 -36 22 -57.5t13 -30.5t6 -13v-4h-45v4v2q0 5 -1.5 14.5t-8 30.5t-19.5 55l-212 569h16l-212 -569q-13 -35 -19.5 -56t-8 -30t-1.5 -14v-2v-4h-43v4q2 4 6 13t13 30.5t22 57.5l224 595h13zM196 817q-12 12 -12 28
q0 17 12 28.5t28 11.5q17 0 28.5 -11.5t11.5 -28.5q0 -16 -11.5 -28t-28.5 -12q-16 0 -28 12zM365.5 816.5q-11.5 11.5 -11.5 28.5t12 28.5t28 11.5q17 0 28.5 -11.5t11.5 -28.5t-11.5 -28.5t-28.5 -11.5t-28.5 11.5z" />
    <glyph glyph-name="Adieresis" unicode="&#xe4;" horiz-adv-x="600" 
d="M490 214v-27h-360v27h360zM311 700h12l223 -595q13 -36 22 -57.5t13 -30.5t6 -13v-4h-45v4v2q0 5 -1.5 14.5t-8 30.5t-19.5 55l-212 569h16l-212 -569q-13 -35 -19.5 -56t-8 -30t-1.5 -14v-2v-4h-43v4q2 4 6 13t13 30.5t22 57.5l224 595h13zM196 817q-12 12 -12 28
q0 17 12 28.5t28 11.5q17 0 28.5 -11.5t11.5 -28.5q0 -16 -11.5 -28t-28.5 -12q-16 0 -28 12zM365.5 816.5q-11.5 11.5 -11.5 28.5t12 28.5t28 11.5q17 0 28.5 -11.5t11.5 -28.5t-11.5 -28.5t-28.5 -11.5t-28.5 11.5z" />
    <glyph glyph-name="Aring" unicode="&#xc5;" horiz-adv-x="600" 
d="M490 214v-27h-360v27h360zM311 700h12l223 -595q13 -36 22 -57.5t13 -30.5t6 -13v-4h-45v4v2q0 5 -1.5 14.5t-8 30.5t-19.5 55l-212 569h16l-212 -569q-13 -35 -19.5 -56t-8 -30t-1.5 -14v-2v-4h-43v4q2 4 6 13t13 30.5t22 57.5l224 595h13zM251.5 926.5
q22.5 22.5 57.5 22.5t57.5 -22.5t22.5 -57.5t-22.5 -57.5t-57.5 -22.5t-57.5 22.5t-22.5 57.5t22.5 57.5zM273 831q14 -15 36 -15t36 15t14 38t-14 38t-36 15t-36 -15t-14 -38t14 -38z" />
    <glyph glyph-name="Aring" unicode="&#xe5;" horiz-adv-x="600" 
d="M490 214v-27h-360v27h360zM311 700h12l223 -595q13 -36 22 -57.5t13 -30.5t6 -13v-4h-45v4v2q0 5 -1.5 14.5t-8 30.5t-19.5 55l-212 569h16l-212 -569q-13 -35 -19.5 -56t-8 -30t-1.5 -14v-2v-4h-43v4q2 4 6 13t13 30.5t22 57.5l224 595h13zM251.5 926.5
q22.5 22.5 57.5 22.5t57.5 -22.5t22.5 -57.5t-22.5 -57.5t-57.5 -22.5t-57.5 22.5t-22.5 57.5t22.5 57.5zM273 831q14 -15 36 -15t36 15t14 38t-14 38t-36 15t-36 -15t-14 -38t14 -38z" />
    <glyph glyph-name="AE" unicode="&#xc6;" horiz-adv-x="855" 
d="M441 214v-27h-270v27h270zM802 700v-32h-4q-12 2 -23.5 3.5t-28 1.5h-39.5h-256l16 16v-215l-12 13h269v-27h-269l12 12v-461l-16 16h293h39.5t28 1t23.5 2h4v-30h-404v4q1 12 1.5 24.5t0.5 30.5v46v570h6l-314 -577q-16 -30 -25 -48.5t-12.5 -28t-4.5 -14.5q-1 -1 -1 -3
v-4h-43v4q3 4 8.5 12t16.5 27.5t28 51.5l332 605h374z" />
    <glyph glyph-name="AE" unicode="&#xe6;" horiz-adv-x="855" 
d="M441 214v-27h-270v27h270zM802 700v-32h-4q-12 2 -23.5 3.5t-28 1.5h-39.5h-256l16 16v-215l-12 13h269v-27h-269l12 12v-461l-16 16h293h39.5t28 1t23.5 2h4v-30h-404v4q1 12 1.5 24.5t0.5 30.5v46v570h6l-314 -577q-16 -30 -25 -48.5t-12.5 -28t-4.5 -14.5q-1 -1 -1 -3
v-4h-43v4q3 4 8.5 12t16.5 27.5t28 51.5l332 605h374z" />
    <glyph glyph-name="Ccedilla" unicode="&#xc7;" horiz-adv-x="727" 
d="M677 559h-12q-16 38 -57.5 70t-97.5 50t-112 18q-93 0 -170.5 -45.5t-122.5 -124t-45 -173.5q0 -94 45 -172.5t122.5 -124.5t170.5 -46q60 0 114 18t94 49.5t59 70.5h12v-50q-53 -53 -125 -84t-154 -31q-101 0 -185.5 49.5t-133.5 134.5t-49 186t49 186t133.5 134.5
t185.5 49.5q82 0 154 -31t125 -84v-50zM416 0l-34 -53l-5 2q25 4 45 -2t31.5 -19.5t11.5 -31.5q0 -28 -22.5 -47t-57 -28.5t-70.5 -9.5v20q49 1 87 18t38 48q0 20 -22.5 30.5t-65.5 3.5l-3 5l46 75z" />
    <glyph glyph-name="Ccedilla" unicode="&#xe7;" horiz-adv-x="727" 
d="M677 559h-12q-16 38 -57.5 70t-97.5 50t-112 18q-93 0 -170.5 -45.5t-122.5 -124t-45 -173.5q0 -94 45 -172.5t122.5 -124.5t170.5 -46q60 0 114 18t94 49.5t59 70.5h12v-50q-53 -53 -125 -84t-154 -31q-101 0 -185.5 49.5t-133.5 134.5t-49 186t49 186t133.5 134.5
t185.5 49.5q82 0 154 -31t125 -84v-50zM416 0l-34 -53l-5 2q25 4 45 -2t31.5 -19.5t11.5 -31.5q0 -28 -22.5 -47t-57 -28.5t-70.5 -9.5v20q49 1 87 18t38 48q0 20 -22.5 30.5t-65.5 3.5l-3 5l46 75z" />
    <glyph glyph-name="Egrave" unicode="&#xc8;" horiz-adv-x="545" 
d="M492 700v-30h-4q-12 1 -23.5 2t-28 1h-39.5h-256l16 16v-215l-12 13h269v-27h-269l12 12v-461l-16 16h293h39.5t28 1t23.5 2h4v-30h-404v4q1 12 1.5 24.5t0.5 30.5v46v490v46t-0.5 30.5t-1.5 24.5v4h367zM213 917l136 -149l10 9l-116 165z" />
    <glyph glyph-name="Egrave" unicode="&#xe8;" horiz-adv-x="545" 
d="M492 700v-30h-4q-12 1 -23.5 2t-28 1h-39.5h-256l16 16v-215l-12 13h269v-27h-269l12 12v-461l-16 16h293h39.5t28 1t23.5 2h4v-30h-404v4q1 12 1.5 24.5t0.5 30.5v46v490v46t-0.5 30.5t-1.5 24.5v4h367zM213 917l136 -149l10 9l-116 165z" />
    <glyph glyph-name="Eacute" unicode="&#xc9;" horiz-adv-x="545" 
d="M492 700v-30h-4q-12 1 -23.5 2t-28 1h-39.5h-256l16 16v-215l-12 13h269v-27h-269l12 12v-461l-16 16h293h39.5t28 1t23.5 2h4v-30h-404v4q1 12 1.5 24.5t0.5 30.5v46v490v46t-0.5 30.5t-1.5 24.5v4h367zM389 926l-136 -149l-10 9l116 165z" />
    <glyph glyph-name="Eacute" unicode="&#xe9;" horiz-adv-x="545" 
d="M492 700v-30h-4q-12 1 -23.5 2t-28 1h-39.5h-256l16 16v-215l-12 13h269v-27h-269l12 12v-461l-16 16h293h39.5t28 1t23.5 2h4v-30h-404v4q1 12 1.5 24.5t0.5 30.5v46v490v46t-0.5 30.5t-1.5 24.5v4h367zM389 926l-136 -149l-10 9l116 165z" />
    <glyph glyph-name="Ecircumflex" unicode="&#xca;" horiz-adv-x="545" 
d="M492 700v-30h-4q-12 1 -23.5 2t-28 1h-39.5h-256l16 16v-215l-12 13h269v-27h-269l12 12v-461l-16 16h293h39.5t28 1t23.5 2h4v-30h-404v4q1 12 1.5 24.5t0.5 30.5v46v490v46t-0.5 30.5t-1.5 24.5v4h367zM302 867l-133 -100l-11 14l147 128l147 -128l-11 -14z" />
    <glyph glyph-name="Ecircumflex" unicode="&#xea;" horiz-adv-x="545" 
d="M492 700v-30h-4q-12 1 -23.5 2t-28 1h-39.5h-256l16 16v-215l-12 13h269v-27h-269l12 12v-461l-16 16h293h39.5t28 1t23.5 2h4v-30h-404v4q1 12 1.5 24.5t0.5 30.5v46v490v46t-0.5 30.5t-1.5 24.5v4h367zM302 867l-133 -100l-11 14l147 128l147 -128l-11 -14z" />
    <glyph glyph-name="Edieresis" unicode="&#xcb;" horiz-adv-x="545" 
d="M492 700v-30h-4q-12 1 -23.5 2t-28 1h-39.5h-256l16 16v-215l-12 13h269v-27h-269l12 12v-461l-16 16h293h39.5t28 1t23.5 2h4v-30h-404v4q1 12 1.5 24.5t0.5 30.5v46v490v46t-0.5 30.5t-1.5 24.5v4h367zM192 817q-12 12 -12 28q0 17 12 28.5t28 11.5q17 0 28.5 -11.5
t11.5 -28.5q0 -16 -11.5 -28t-28.5 -12q-16 0 -28 12zM361.5 816.5q-11.5 11.5 -11.5 28.5t12 28.5t28 11.5q17 0 28.5 -11.5t11.5 -28.5t-11.5 -28.5t-28.5 -11.5t-28.5 11.5z" />
    <glyph glyph-name="Edieresis" unicode="&#xeb;" horiz-adv-x="545" 
d="M492 700v-30h-4q-12 1 -23.5 2t-28 1h-39.5h-256l16 16v-215l-12 13h269v-27h-269l12 12v-461l-16 16h293h39.5t28 1t23.5 2h4v-30h-404v4q1 12 1.5 24.5t0.5 30.5v46v490v46t-0.5 30.5t-1.5 24.5v4h367zM192 817q-12 12 -12 28q0 17 12 28.5t28 11.5q17 0 28.5 -11.5
t11.5 -28.5q0 -16 -11.5 -28t-28.5 -12q-16 0 -28 12zM361.5 816.5q-11.5 11.5 -11.5 28.5t12 28.5t28 11.5q17 0 28.5 -11.5t11.5 -28.5t-11.5 -28.5t-28.5 -11.5t-28.5 11.5z" />
    <glyph glyph-name="Iacute" unicode="&#xcd;" horiz-adv-x="285" 
d="M159 700v-4q-1 -12 -1.5 -24.5t-0.5 -30.5v-46v-490v-46t0.5 -30.5t1.5 -24.5v-4h-34v4q1 12 1.5 24.5t0.5 30.5v46v490v46t-0.5 30.5t-1.5 24.5v4h34zM227 926l-136 -149l-10 9l116 165z" />
    <glyph glyph-name="Iacute" unicode="&#xed;" horiz-adv-x="285" 
d="M159 700v-4q-1 -12 -1.5 -24.5t-0.5 -30.5v-46v-490v-46t0.5 -30.5t1.5 -24.5v-4h-34v4q1 12 1.5 24.5t0.5 30.5v46v490v46t-0.5 30.5t-1.5 24.5v4h34zM227 926l-136 -149l-10 9l116 165z" />
    <glyph glyph-name="Icircumflex" unicode="&#xce;" horiz-adv-x="285" 
d="M159 700v-4q-1 -12 -1.5 -24.5t-0.5 -30.5v-46v-490v-46t0.5 -30.5t1.5 -24.5v-4h-34v4q1 12 1.5 24.5t0.5 30.5v46v490v46t-0.5 30.5t-1.5 24.5v4h34zM140 867l-133 -100l-11 14l147 128l147 -128l-11 -14z" />
    <glyph glyph-name="Icircumflex" unicode="&#xee;" horiz-adv-x="285" 
d="M159 700v-4q-1 -12 -1.5 -24.5t-0.5 -30.5v-46v-490v-46t0.5 -30.5t1.5 -24.5v-4h-34v4q1 12 1.5 24.5t0.5 30.5v46v490v46t-0.5 30.5t-1.5 24.5v4h34zM140 867l-133 -100l-11 14l147 128l147 -128l-11 -14z" />
    <glyph glyph-name="Idieresis" unicode="&#xcf;" horiz-adv-x="285" 
d="M159 700v-4q-1 -12 -1.5 -24.5t-0.5 -30.5v-46v-490v-46t0.5 -30.5t1.5 -24.5v-4h-34v4q1 12 1.5 24.5t0.5 30.5v46v490v46t-0.5 30.5t-1.5 24.5v4h34zM30 817q-12 12 -12 28q0 17 12 28.5t28 11.5q17 0 28.5 -11.5t11.5 -28.5q0 -16 -11.5 -28t-28.5 -12q-16 0 -28 12z
M199.5 816.5q-11.5 11.5 -11.5 28.5t12 28.5t28 11.5q17 0 28.5 -11.5t11.5 -28.5t-11.5 -28.5t-28.5 -11.5t-28.5 11.5z" />
    <glyph glyph-name="Idieresis" unicode="&#xef;" horiz-adv-x="285" 
d="M159 700v-4q-1 -12 -1.5 -24.5t-0.5 -30.5v-46v-490v-46t0.5 -30.5t1.5 -24.5v-4h-34v4q1 12 1.5 24.5t0.5 30.5v46v490v46t-0.5 30.5t-1.5 24.5v4h34zM30 817q-12 12 -12 28q0 17 12 28.5t28 11.5q17 0 28.5 -11.5t11.5 -28.5q0 -16 -11.5 -28t-28.5 -12q-16 0 -28 12z
M199.5 816.5q-11.5 11.5 -11.5 28.5t12 28.5t28 11.5q17 0 28.5 -11.5t11.5 -28.5t-11.5 -28.5t-28.5 -11.5t-28.5 11.5z" />
    <glyph glyph-name="Eth" unicode="&#xd0;" horiz-adv-x="780" 
d="M141 27h219q110 0 191.5 45t125 119t43.5 159q0 94 -45.5 167.5t-127.5 114.5t-186 41h-220l16 16v-678zM568.5 655.5q85.5 -44.5 133.5 -124t48 -181.5q0 -96 -49.5 -176.5t-135.5 -127t-191 -46.5h-249v4q1 12 1.5 24.5t0.5 30.5v46v490v46t-0.5 30.5t-1.5 24.5v4h249
q109 0 194.5 -44.5zM0 379v-27h380v27h-380z" />
    <glyph glyph-name="Eth" unicode="&#xf0;" horiz-adv-x="780" 
d="M141 27h219q110 0 191.5 45t125 119t43.5 159q0 94 -45.5 167.5t-127.5 114.5t-186 41h-220l16 16v-678zM568.5 655.5q85.5 -44.5 133.5 -124t48 -181.5q0 -96 -49.5 -176.5t-135.5 -127t-191 -46.5h-249v4q1 12 1.5 24.5t0.5 30.5v46v490v46t-0.5 30.5t-1.5 24.5v4h249
q109 0 194.5 -44.5zM0 379v-27h380v27h-380z" />
    <glyph glyph-name="Ntilde" unicode="&#xd1;" horiz-adv-x="710" 
d="M150 702l418 -661h-12v554v46t-1 30.5t-2 24.5v4h32v-4q-1 -12 -1.5 -24.5t-0.5 -30.5v-46v-502v-40t0.5 -29.5t1.5 -25.5h-25l-421 665h15v-558v-46t1 -30.5t2 -24.5v-4h-32v4q1 12 1.5 24.5t0.5 30.5v46v502v40t-0.5 29.5t-1.5 25.5h25zM405 801q-22 6 -49 17
q-2 2 -8 4l-5 2q-31 13 -51.5 19.5t-39.5 6.5q-39 0 -64 -33l-9 7q17 29 38 42t47 13q19 0 40 -6t49 -18q4 -1 8 -3l8 -3q27 -12 48.5 -18.5t39.5 -6.5q17 0 31.5 7.5t32.5 25.5l9 -7q-21 -30 -41 -42.5t-44 -12.5q-18 0 -40 6z" />
    <glyph glyph-name="Ntilde" unicode="&#xf1;" horiz-adv-x="710" 
d="M150 702l418 -661h-12v554v46t-1 30.5t-2 24.5v4h32v-4q-1 -12 -1.5 -24.5t-0.5 -30.5v-46v-502v-40t0.5 -29.5t1.5 -25.5h-25l-421 665h15v-558v-46t1 -30.5t2 -24.5v-4h-32v4q1 12 1.5 24.5t0.5 30.5v46v502v40t-0.5 29.5t-1.5 25.5h25zM405 801q-22 6 -49 17
q-2 2 -8 4l-5 2q-31 13 -51.5 19.5t-39.5 6.5q-39 0 -64 -33l-9 7q17 29 38 42t47 13q19 0 40 -6t49 -18q4 -1 8 -3l8 -3q27 -12 48.5 -18.5t39.5 -6.5q17 0 31.5 7.5t32.5 25.5l9 -7q-21 -30 -41 -42.5t-44 -12.5q-18 0 -40 6z" />
    <glyph glyph-name="Ograve" unicode="&#xd2;" horiz-adv-x="800" 
d="M214 33.5q-85 49.5 -134.5 134.5t-49.5 186t49.5 186t134.5 134.5t186 49.5t186 -49.5t134.5 -134.5t49.5 -186t-49.5 -186t-134.5 -134.5t-186 -49.5t-186 49.5zM571 57q78 46 123.5 124.5t45.5 172.5q0 95 -45.5 173.5t-123.5 124t-172 45.5t-171.5 -45.5t-122.5 -124
t-45 -173.5q0 -94 45 -172.5t122.5 -124.5t171.5 -46t172 46zM317 917l136 -149l10 9l-116 165z" />
    <glyph glyph-name="Ograve" unicode="&#xf2;" horiz-adv-x="800" 
d="M214 33.5q-85 49.5 -134.5 134.5t-49.5 186t49.5 186t134.5 134.5t186 49.5t186 -49.5t134.5 -134.5t49.5 -186t-49.5 -186t-134.5 -134.5t-186 -49.5t-186 49.5zM571 57q78 46 123.5 124.5t45.5 172.5q0 95 -45.5 173.5t-123.5 124t-172 45.5t-171.5 -45.5t-122.5 -124
t-45 -173.5q0 -94 45 -172.5t122.5 -124.5t171.5 -46t172 46zM317 917l136 -149l10 9l-116 165z" />
    <glyph glyph-name="Oacute" unicode="&#xd3;" horiz-adv-x="800" 
d="M214 33.5q-85 49.5 -134.5 134.5t-49.5 186t49.5 186t134.5 134.5t186 49.5t186 -49.5t134.5 -134.5t49.5 -186t-49.5 -186t-134.5 -134.5t-186 -49.5t-186 49.5zM571 57q78 46 123.5 124.5t45.5 172.5q0 95 -45.5 173.5t-123.5 124t-172 45.5t-171.5 -45.5t-122.5 -124
t-45 -173.5q0 -94 45 -172.5t122.5 -124.5t171.5 -46t172 46zM493 926l-136 -149l-10 9l116 165z" />
    <glyph glyph-name="Oacute" unicode="&#xf3;" horiz-adv-x="800" 
d="M214 33.5q-85 49.5 -134.5 134.5t-49.5 186t49.5 186t134.5 134.5t186 49.5t186 -49.5t134.5 -134.5t49.5 -186t-49.5 -186t-134.5 -134.5t-186 -49.5t-186 49.5zM571 57q78 46 123.5 124.5t45.5 172.5q0 95 -45.5 173.5t-123.5 124t-172 45.5t-171.5 -45.5t-122.5 -124
t-45 -173.5q0 -94 45 -172.5t122.5 -124.5t171.5 -46t172 46zM493 926l-136 -149l-10 9l116 165z" />
    <glyph glyph-name="Ocircumflex" unicode="&#xd4;" horiz-adv-x="800" 
d="M214 33.5q-85 49.5 -134.5 134.5t-49.5 186t49.5 186t134.5 134.5t186 49.5t186 -49.5t134.5 -134.5t49.5 -186t-49.5 -186t-134.5 -134.5t-186 -49.5t-186 49.5zM571 57q78 46 123.5 124.5t45.5 172.5q0 95 -45.5 173.5t-123.5 124t-172 45.5t-171.5 -45.5t-122.5 -124
t-45 -173.5q0 -94 45 -172.5t122.5 -124.5t171.5 -46t172 46zM406 867l-133 -100l-11 14l147 128l147 -128l-11 -14z" />
    <glyph glyph-name="Ocircumflex" unicode="&#xf4;" horiz-adv-x="800" 
d="M214 33.5q-85 49.5 -134.5 134.5t-49.5 186t49.5 186t134.5 134.5t186 49.5t186 -49.5t134.5 -134.5t49.5 -186t-49.5 -186t-134.5 -134.5t-186 -49.5t-186 49.5zM571 57q78 46 123.5 124.5t45.5 172.5q0 95 -45.5 173.5t-123.5 124t-172 45.5t-171.5 -45.5t-122.5 -124
t-45 -173.5q0 -94 45 -172.5t122.5 -124.5t171.5 -46t172 46zM406 867l-133 -100l-11 14l147 128l147 -128l-11 -14z" />
    <glyph glyph-name="Otilde" unicode="&#xd5;" horiz-adv-x="800" 
d="M214 33.5q-85 49.5 -134.5 134.5t-49.5 186t49.5 186t134.5 134.5t186 49.5t186 -49.5t134.5 -134.5t49.5 -186t-49.5 -186t-134.5 -134.5t-186 -49.5t-186 49.5zM571 57q78 46 123.5 124.5t45.5 172.5q0 95 -45.5 173.5t-123.5 124t-172 45.5t-171.5 -45.5t-122.5 -124
t-45 -173.5q0 -94 45 -172.5t122.5 -124.5t171.5 -46t172 46zM459 801q-22 6 -49 17q-2 2 -8 4l-5 2q-31 13 -51.5 19.5t-39.5 6.5q-39 0 -64 -33l-9 7q17 29 38 42t47 13q19 0 40 -6t49 -18q4 -1 8 -3l8 -3q27 -12 48.5 -18.5t39.5 -6.5q17 0 31.5 7.5t32.5 25.5l9 -7
q-21 -30 -41 -42.5t-44 -12.5q-18 0 -40 6z" />
    <glyph glyph-name="Otilde" unicode="&#xf5;" horiz-adv-x="800" 
d="M214 33.5q-85 49.5 -134.5 134.5t-49.5 186t49.5 186t134.5 134.5t186 49.5t186 -49.5t134.5 -134.5t49.5 -186t-49.5 -186t-134.5 -134.5t-186 -49.5t-186 49.5zM571 57q78 46 123.5 124.5t45.5 172.5q0 95 -45.5 173.5t-123.5 124t-172 45.5t-171.5 -45.5t-122.5 -124
t-45 -173.5q0 -94 45 -172.5t122.5 -124.5t171.5 -46t172 46zM459 801q-22 6 -49 17q-2 2 -8 4l-5 2q-31 13 -51.5 19.5t-39.5 6.5q-39 0 -64 -33l-9 7q17 29 38 42t47 13q19 0 40 -6t49 -18q4 -1 8 -3l8 -3q27 -12 48.5 -18.5t39.5 -6.5q17 0 31.5 7.5t32.5 25.5l9 -7
q-21 -30 -41 -42.5t-44 -12.5q-18 0 -40 6z" />
    <glyph glyph-name="Odieresis" unicode="&#xd6;" horiz-adv-x="800" 
d="M214 33.5q-85 49.5 -134.5 134.5t-49.5 186t49.5 186t134.5 134.5t186 49.5t186 -49.5t134.5 -134.5t49.5 -186t-49.5 -186t-134.5 -134.5t-186 -49.5t-186 49.5zM571 57q78 46 123.5 124.5t45.5 172.5q0 95 -45.5 173.5t-123.5 124t-172 45.5t-171.5 -45.5t-122.5 -124
t-45 -173.5q0 -94 45 -172.5t122.5 -124.5t171.5 -46t172 46zM296 817q-12 12 -12 28q0 17 12 28.5t28 11.5q17 0 28.5 -11.5t11.5 -28.5q0 -16 -11.5 -28t-28.5 -12q-16 0 -28 12zM465.5 816.5q-11.5 11.5 -11.5 28.5t12 28.5t28 11.5q17 0 28.5 -11.5t11.5 -28.5
t-11.5 -28.5t-28.5 -11.5t-28.5 11.5z" />
    <glyph glyph-name="Odieresis" unicode="&#xf6;" horiz-adv-x="800" 
d="M214 33.5q-85 49.5 -134.5 134.5t-49.5 186t49.5 186t134.5 134.5t186 49.5t186 -49.5t134.5 -134.5t49.5 -186t-49.5 -186t-134.5 -134.5t-186 -49.5t-186 49.5zM571 57q78 46 123.5 124.5t45.5 172.5q0 95 -45.5 173.5t-123.5 124t-172 45.5t-171.5 -45.5t-122.5 -124
t-45 -173.5q0 -94 45 -172.5t122.5 -124.5t171.5 -46t172 46zM296 817q-12 12 -12 28q0 17 12 28.5t28 11.5q17 0 28.5 -11.5t11.5 -28.5q0 -16 -11.5 -28t-28.5 -12q-16 0 -28 12zM465.5 816.5q-11.5 11.5 -11.5 28.5t12 28.5t28 11.5q17 0 28.5 -11.5t11.5 -28.5
t-11.5 -28.5t-28.5 -11.5t-28.5 11.5z" />
    <glyph glyph-name="Oslash" unicode="&#xd8;" horiz-adv-x="800" 
d="M214 33.5q-85 49.5 -134.5 134.5t-49.5 186t49.5 186t134.5 134.5t186 49.5t186 -49.5t134.5 -134.5t49.5 -186t-49.5 -186t-134.5 -134.5t-186 -49.5t-186 49.5zM571 57q78 46 123.5 124.5t45.5 172.5q0 95 -45.5 173.5t-123.5 124t-172 45.5t-171.5 -45.5t-122.5 -124
t-45 -173.5q0 -94 45 -172.5t122.5 -124.5t171.5 -46t172 46zM654 795l-440 -899l-24 11l440 899z" />
    <glyph glyph-name="Oslash" unicode="&#xf8;" horiz-adv-x="800" 
d="M214 33.5q-85 49.5 -134.5 134.5t-49.5 186t49.5 186t134.5 134.5t186 49.5t186 -49.5t134.5 -134.5t49.5 -186t-49.5 -186t-134.5 -134.5t-186 -49.5t-186 49.5zM571 57q78 46 123.5 124.5t45.5 172.5q0 95 -45.5 173.5t-123.5 124t-172 45.5t-171.5 -45.5t-122.5 -124
t-45 -173.5q0 -94 45 -172.5t122.5 -124.5t171.5 -46t172 46zM654 795l-440 -899l-24 11l440 899z" />
    <glyph glyph-name="Ugrave" unicode="&#xd9;" horiz-adv-x="686" 
d="M135 700v-4q-1 -12 -2 -24.5t-1 -30.5v-46v-319q0 -128 57 -196.5t159 -68.5q63 0 109 30t71.5 87.5t25.5 137.5v329v46t-1 30.5t-2 24.5v4h35v-4q-1 -12 -1.5 -24.5t-0.5 -30.5v-46v-319q0 -93 -30.5 -158.5t-86 -99.5t-129.5 -34q-69 0 -122.5 33.5t-83.5 97t-30 151.5
v329v46t-0.5 30.5t-1.5 24.5v4h35zM251 917l136 -149l10 9l-116 165z" />
    <glyph glyph-name="Ugrave" unicode="&#xf9;" horiz-adv-x="686" 
d="M135 700v-4q-1 -12 -2 -24.5t-1 -30.5v-46v-319q0 -128 57 -196.5t159 -68.5q63 0 109 30t71.5 87.5t25.5 137.5v329v46t-1 30.5t-2 24.5v4h35v-4q-1 -12 -1.5 -24.5t-0.5 -30.5v-46v-319q0 -93 -30.5 -158.5t-86 -99.5t-129.5 -34q-69 0 -122.5 33.5t-83.5 97t-30 151.5
v329v46t-0.5 30.5t-1.5 24.5v4h35zM251 917l136 -149l10 9l-116 165z" />
    <glyph glyph-name="Uacute" unicode="&#xda;" horiz-adv-x="686" 
d="M135 700v-4q-1 -12 -2 -24.5t-1 -30.5v-46v-319q0 -128 57 -196.5t159 -68.5q63 0 109 30t71.5 87.5t25.5 137.5v329v46t-1 30.5t-2 24.5v4h35v-4q-1 -12 -1.5 -24.5t-0.5 -30.5v-46v-319q0 -93 -30.5 -158.5t-86 -99.5t-129.5 -34q-69 0 -122.5 33.5t-83.5 97t-30 151.5
v329v46t-0.5 30.5t-1.5 24.5v4h35zM427 926l-136 -149l-10 9l116 165z" />
    <glyph glyph-name="Uacute" unicode="&#xfa;" horiz-adv-x="686" 
d="M135 700v-4q-1 -12 -2 -24.5t-1 -30.5v-46v-319q0 -128 57 -196.5t159 -68.5q63 0 109 30t71.5 87.5t25.5 137.5v329v46t-1 30.5t-2 24.5v4h35v-4q-1 -12 -1.5 -24.5t-0.5 -30.5v-46v-319q0 -93 -30.5 -158.5t-86 -99.5t-129.5 -34q-69 0 -122.5 33.5t-83.5 97t-30 151.5
v329v46t-0.5 30.5t-1.5 24.5v4h35zM427 926l-136 -149l-10 9l116 165z" />
    <glyph glyph-name="Ucircumflex" unicode="&#xdb;" horiz-adv-x="686" 
d="M135 700v-4q-1 -12 -2 -24.5t-1 -30.5v-46v-319q0 -128 57 -196.5t159 -68.5q63 0 109 30t71.5 87.5t25.5 137.5v329v46t-1 30.5t-2 24.5v4h35v-4q-1 -12 -1.5 -24.5t-0.5 -30.5v-46v-319q0 -93 -30.5 -158.5t-86 -99.5t-129.5 -34q-69 0 -122.5 33.5t-83.5 97t-30 151.5
v329v46t-0.5 30.5t-1.5 24.5v4h35zM340 867l-133 -100l-11 14l147 128l147 -128l-11 -14z" />
    <glyph glyph-name="Ucircumflex" unicode="&#xfb;" horiz-adv-x="686" 
d="M135 700v-4q-1 -12 -2 -24.5t-1 -30.5v-46v-319q0 -128 57 -196.5t159 -68.5q63 0 109 30t71.5 87.5t25.5 137.5v329v46t-1 30.5t-2 24.5v4h35v-4q-1 -12 -1.5 -24.5t-0.5 -30.5v-46v-319q0 -93 -30.5 -158.5t-86 -99.5t-129.5 -34q-69 0 -122.5 33.5t-83.5 97t-30 151.5
v329v46t-0.5 30.5t-1.5 24.5v4h35zM340 867l-133 -100l-11 14l147 128l147 -128l-11 -14z" />
    <glyph glyph-name="Udieresis" unicode="&#xdc;" horiz-adv-x="686" 
d="M135 700v-4q-1 -12 -2 -24.5t-1 -30.5v-46v-319q0 -128 57 -196.5t159 -68.5q63 0 109 30t71.5 87.5t25.5 137.5v329v46t-1 30.5t-2 24.5v4h35v-4q-1 -12 -1.5 -24.5t-0.5 -30.5v-46v-319q0 -93 -30.5 -158.5t-86 -99.5t-129.5 -34q-69 0 -122.5 33.5t-83.5 97t-30 151.5
v329v46t-0.5 30.5t-1.5 24.5v4h35zM230 817q-12 12 -12 28q0 17 12 28.5t28 11.5q17 0 28.5 -11.5t11.5 -28.5q0 -16 -11.5 -28t-28.5 -12q-16 0 -28 12zM399.5 816.5q-11.5 11.5 -11.5 28.5t12 28.5t28 11.5q17 0 28.5 -11.5t11.5 -28.5t-11.5 -28.5t-28.5 -11.5
t-28.5 11.5z" />
    <glyph glyph-name="Udieresis" unicode="&#xfc;" horiz-adv-x="686" 
d="M135 700v-4q-1 -12 -2 -24.5t-1 -30.5v-46v-319q0 -128 57 -196.5t159 -68.5q63 0 109 30t71.5 87.5t25.5 137.5v329v46t-1 30.5t-2 24.5v4h35v-4q-1 -12 -1.5 -24.5t-0.5 -30.5v-46v-319q0 -93 -30.5 -158.5t-86 -99.5t-129.5 -34q-69 0 -122.5 33.5t-83.5 97t-30 151.5
v329v46t-0.5 30.5t-1.5 24.5v4h35zM230 817q-12 12 -12 28q0 17 12 28.5t28 11.5q17 0 28.5 -11.5t11.5 -28.5q0 -16 -11.5 -28t-28.5 -12q-16 0 -28 12zM399.5 816.5q-11.5 11.5 -11.5 28.5t12 28.5t28 11.5q17 0 28.5 -11.5t11.5 -28.5t-11.5 -28.5t-28.5 -11.5
t-28.5 11.5z" />
    <glyph glyph-name="Yacute" unicode="&#xdd;" horiz-adv-x="619" 
d="M53 645.5q-15 20.5 -25 32t-17 18.5v4h48l1 -4q2 -6 6.5 -13t14.5 -21.5t27 -38.5l3 -5l203 -289h-7l205 289q18 25 28 40.5t14 23t5 12.5l1 2l1 4h47v-4q-8 -8 -17.5 -19.5t-25 -32t-36.5 -50.5l-220 -309l-219 309q-22 31 -37 51.5zM293.5 27.5q0.5 11.5 0.5 28v39.5
v222h30v-222v-39.5t0.5 -28t1.5 -23.5v-4h-34v4q1 12 1.5 23.5zM410 926l-136 -149l-10 9l116 165z" />
    <glyph glyph-name="Yacute" unicode="&#xfd;" horiz-adv-x="619" 
d="M53 645.5q-15 20.5 -25 32t-17 18.5v4h48l1 -4q2 -6 6.5 -13t14.5 -21.5t27 -38.5l3 -5l203 -289h-7l205 289q18 25 28 40.5t14 23t5 12.5l1 2l1 4h47v-4q-8 -8 -17.5 -19.5t-25 -32t-36.5 -50.5l-220 -309l-219 309q-22 31 -37 51.5zM293.5 27.5q0.5 11.5 0.5 28v39.5
v222h30v-222v-39.5t0.5 -28t1.5 -23.5v-4h-34v4q1 12 1.5 23.5zM410 926l-136 -149l-10 9l116 165z" />
    <glyph glyph-name="Thorn" unicode="&#xde;" horiz-adv-x="611" 
d="M490.5 541q80.5 -54 80.5 -174t-80.5 -174t-205.5 -54h-144v27h136q88 0 147 24t88 69t29 108t-29 108t-88 69t-147 24h-136v27h144q125 0 205.5 -54zM159 700v-4q-1 -12 -1.5 -24.5t-0.5 -30.5v-46v-490v-46t1 -30.5t2 -24.5v-4h-35v4q1 12 1.5 24.5t0.5 30.5v46v490v46
t-1 30.5t-2 24.5v4h35z" />
    <glyph glyph-name="Thorn" unicode="&#xfe;" horiz-adv-x="611" 
d="M490.5 541q80.5 -54 80.5 -174t-80.5 -174t-205.5 -54h-144v27h136q88 0 147 24t88 69t29 108t-29 108t-88 69t-147 24h-136v27h144q125 0 205.5 -54zM159 700v-4q-1 -12 -1.5 -24.5t-0.5 -30.5v-46v-490v-46t1 -30.5t2 -24.5v-4h-35v4q1 12 1.5 24.5t0.5 30.5v46v490v46
t-1 30.5t-2 24.5v4h35z" />
    <glyph glyph-name="uni1E9E" unicode="&#xdf;" horiz-adv-x="638" 
d="M312.5 40.5q24.5 -15.5 51.5 -22.5t54 -7q60 0 101.5 32.5t41.5 92.5q0 37 -14.5 70.5t-48.5 67.5l-178 181l6 10h14q33 0 59.5 14t41.5 38t15 54q0 55 -39 89.5t-103 34.5q-77 0 -122 -52t-45 -143v-395q0 -39 0.5 -61t1.5 -40v-4h-34v4q1 12 1.5 24.5t0.5 30.5v46v389
q0 78 27.5 129t71 75t94.5 24t91 -19t62.5 -52.5t22.5 -75.5q0 -33 -17 -64.5t-48.5 -51t-72.5 -19.5l11 13l144 -143q47 -46 67.5 -89.5t20.5 -84.5q0 -43 -20.5 -77.5t-58.5 -54.5t-89 -20q-44 0 -86.5 13t-73.5 36l-3 46h9q19 -23 43.5 -38.5z" />
    <glyph glyph-name="uni1E9E" unicode="&#x1e9e;" horiz-adv-x="638" 
d="M312.5 40.5q24.5 -15.5 51.5 -22.5t54 -7q60 0 101.5 32.5t41.5 92.5q0 37 -14.5 70.5t-48.5 67.5l-178 181l6 10h14q33 0 59.5 14t41.5 38t15 54q0 55 -39 89.5t-103 34.5q-77 0 -122 -52t-45 -143v-395q0 -39 0.5 -61t1.5 -40v-4h-34v4q1 12 1.5 24.5t0.5 30.5v46v389
q0 78 27.5 129t71 75t94.5 24t91 -19t62.5 -52.5t22.5 -75.5q0 -33 -17 -64.5t-48.5 -51t-72.5 -19.5l11 13l144 -143q47 -46 67.5 -89.5t20.5 -84.5q0 -43 -20.5 -77.5t-58.5 -54.5t-89 -20q-44 0 -86.5 13t-73.5 36l-3 46h9q19 -23 43.5 -38.5z" />
    <glyph glyph-name="Amacron" unicode="&#x100;" horiz-adv-x="600" 
d="M490 214v-27h-360v27h360zM311 700h12l223 -595q13 -36 22 -57.5t13 -30.5t6 -13v-4h-45v4v2q0 5 -1.5 14.5t-8 30.5t-19.5 55l-212 569h16l-212 -569q-13 -35 -19.5 -56t-8 -30t-1.5 -14v-2v-4h-43v4q2 4 6 13t13 30.5t22 57.5l224 595h13zM499 847v-27h-380v27h380z
" />
    <glyph glyph-name="Amacron" unicode="&#x101;" horiz-adv-x="600" 
d="M490 214v-27h-360v27h360zM311 700h12l223 -595q13 -36 22 -57.5t13 -30.5t6 -13v-4h-45v4v2q0 5 -1.5 14.5t-8 30.5t-19.5 55l-212 569h16l-212 -569q-13 -35 -19.5 -56t-8 -30t-1.5 -14v-2v-4h-43v4q2 4 6 13t13 30.5t22 57.5l224 595h13zM499 847v-27h-380v27h380z
" />
    <glyph glyph-name="Abreve" unicode="&#x102;" horiz-adv-x="600" 
d="M490 214v-27h-360v27h360zM311 700h12l223 -595q13 -36 22 -57.5t13 -30.5t6 -13v-4h-45v4v2q0 5 -1.5 14.5t-8 30.5t-19.5 55l-212 569h16l-212 -569q-13 -35 -19.5 -56t-8 -30t-1.5 -14v-2v-4h-43v4q2 4 6 13t13 30.5t22 57.5l224 595h13zM206 912v-1q0 -16 4 -30
t11 -25.5t17 -21.5q14 -13 32.5 -20t38.5 -7q28 0 51.5 13.5t37.5 37.5t14 54h30q-2 -58 -38.5 -95t-94.5 -37t-94.5 37t-38.5 95h30z" />
    <glyph glyph-name="Abreve" unicode="&#x103;" horiz-adv-x="600" 
d="M490 214v-27h-360v27h360zM311 700h12l223 -595q13 -36 22 -57.5t13 -30.5t6 -13v-4h-45v4v2q0 5 -1.5 14.5t-8 30.5t-19.5 55l-212 569h16l-212 -569q-13 -35 -19.5 -56t-8 -30t-1.5 -14v-2v-4h-43v4q2 4 6 13t13 30.5t22 57.5l224 595h13zM206 912v-1q0 -16 4 -30
t11 -25.5t17 -21.5q14 -13 32.5 -20t38.5 -7q28 0 51.5 13.5t37.5 37.5t14 54h30q-2 -58 -38.5 -95t-94.5 -37t-94.5 37t-38.5 95h30z" />
    <glyph glyph-name="Aogonek" unicode="&#x104;" horiz-adv-x="600" 
d="M490 214v-27h-360v27h360zM311 700h12l223 -595q13 -36 22 -57.5t13 -30.5t6 -13v-4h-45v4v2q0 5 -1.5 14.5t-8 30.5t-19.5 55l-212 569h16l-212 -569q-13 -35 -19.5 -56t-8 -30t-1.5 -14v-2v-4h-43v4q2 4 6 13t13 30.5t22 57.5l224 595h13zM450 -160.5
q-19 16.5 -19 42.5q0 36 36.5 72.5t108.5 61.5l11 -16q-66 -26 -99 -55.5t-33 -58.5q0 -19 13.5 -31t38.5 -12q33 0 72 19l7 -15q-43 -24 -84 -24q-33 0 -52 16.5z" />
    <glyph glyph-name="Aogonek" unicode="&#x105;" horiz-adv-x="600" 
d="M490 214v-27h-360v27h360zM311 700h12l223 -595q13 -36 22 -57.5t13 -30.5t6 -13v-4h-45v4v2q0 5 -1.5 14.5t-8 30.5t-19.5 55l-212 569h16l-212 -569q-13 -35 -19.5 -56t-8 -30t-1.5 -14v-2v-4h-43v4q2 4 6 13t13 30.5t22 57.5l224 595h13zM450 -160.5
q-19 16.5 -19 42.5q0 36 36.5 72.5t108.5 61.5l11 -16q-66 -26 -99 -55.5t-33 -58.5q0 -19 13.5 -31t38.5 -12q33 0 72 19l7 -15q-43 -24 -84 -24q-33 0 -52 16.5z" />
    <glyph glyph-name="Cacute" unicode="&#x106;" horiz-adv-x="727" 
d="M677 559h-12q-16 38 -57.5 70t-97.5 50t-112 18q-93 0 -170.5 -45.5t-122.5 -124t-45 -173.5q0 -94 45 -172.5t122.5 -124.5t170.5 -46q60 0 114 18t94 49.5t59 70.5h12v-50q-53 -53 -125 -84t-154 -31q-101 0 -185.5 49.5t-133.5 134.5t-49 186t49 186t133.5 134.5
t185.5 49.5q82 0 154 -31t125 -84v-50zM483 926l-136 -149l-10 9l116 165z" />
    <glyph glyph-name="Cacute" unicode="&#x107;" horiz-adv-x="727" 
d="M677 559h-12q-16 38 -57.5 70t-97.5 50t-112 18q-93 0 -170.5 -45.5t-122.5 -124t-45 -173.5q0 -94 45 -172.5t122.5 -124.5t170.5 -46q60 0 114 18t94 49.5t59 70.5h12v-50q-53 -53 -125 -84t-154 -31q-101 0 -185.5 49.5t-133.5 134.5t-49 186t49 186t133.5 134.5
t185.5 49.5q82 0 154 -31t125 -84v-50zM483 926l-136 -149l-10 9l116 165z" />
    <glyph glyph-name="Cdotaccent" unicode="&#x10a;" horiz-adv-x="727" 
d="M677 559h-12q-16 38 -57.5 70t-97.5 50t-112 18q-93 0 -170.5 -45.5t-122.5 -124t-45 -173.5q0 -94 45 -172.5t122.5 -124.5t170.5 -46q60 0 114 18t94 49.5t59 70.5h12v-50q-53 -53 -125 -84t-154 -31q-101 0 -185.5 49.5t-133.5 134.5t-49 186t49 186t133.5 134.5
t185.5 49.5q82 0 154 -31t125 -84v-50zM367 818q-13 13 -13 32q0 18 13 31.5t32 13.5t32 -13.5t13 -31.5q0 -19 -13 -32t-32 -13t-32 13z" />
    <glyph glyph-name="Cdotaccent" unicode="&#x10b;" horiz-adv-x="727" 
d="M677 559h-12q-16 38 -57.5 70t-97.5 50t-112 18q-93 0 -170.5 -45.5t-122.5 -124t-45 -173.5q0 -94 45 -172.5t122.5 -124.5t170.5 -46q60 0 114 18t94 49.5t59 70.5h12v-50q-53 -53 -125 -84t-154 -31q-101 0 -185.5 49.5t-133.5 134.5t-49 186t49 186t133.5 134.5
t185.5 49.5q82 0 154 -31t125 -84v-50zM367 818q-13 13 -13 32q0 18 13 31.5t32 13.5t32 -13.5t13 -31.5q0 -19 -13 -32t-32 -13t-32 13z" />
    <glyph glyph-name="Ccaron" unicode="&#x10c;" horiz-adv-x="727" 
d="M677 559h-12q-16 38 -57.5 70t-97.5 50t-112 18q-93 0 -170.5 -45.5t-122.5 -124t-45 -173.5q0 -94 45 -172.5t122.5 -124.5t170.5 -46q60 0 114 18t94 49.5t59 70.5h12v-50q-53 -53 -125 -84t-154 -31q-101 0 -185.5 49.5t-133.5 134.5t-49 186t49 186t133.5 134.5
t185.5 49.5q82 0 154 -31t125 -84v-50zM402 821l133 100l11 -14l-147 -128l-147 128l11 14z" />
    <glyph glyph-name="Ccaron" unicode="&#x10d;" horiz-adv-x="727" 
d="M677 559h-12q-16 38 -57.5 70t-97.5 50t-112 18q-93 0 -170.5 -45.5t-122.5 -124t-45 -173.5q0 -94 45 -172.5t122.5 -124.5t170.5 -46q60 0 114 18t94 49.5t59 70.5h12v-50q-53 -53 -125 -84t-154 -31q-101 0 -185.5 49.5t-133.5 134.5t-49 186t49 186t133.5 134.5
t185.5 49.5q82 0 154 -31t125 -84v-50zM402 821l133 100l11 -14l-147 -128l-147 128l11 14z" />
    <glyph glyph-name="Dcaron" unicode="&#x10e;" horiz-adv-x="780" 
d="M141 27h219q110 0 191.5 45t125 119t43.5 159q0 94 -45.5 167.5t-127.5 114.5t-186 41h-220l16 16v-678zM568.5 655.5q85.5 -44.5 133.5 -124t48 -181.5q0 -96 -49.5 -176.5t-135.5 -127t-191 -46.5h-249v4q1 12 1.5 24.5t0.5 30.5v46v490v46t-0.5 30.5t-1.5 24.5v4h249
q109 0 194.5 -44.5zM394 821l133 100l11 -14l-147 -128l-147 128l11 14z" />
    <glyph glyph-name="Dcaron" unicode="&#x10f;" horiz-adv-x="780" 
d="M141 27h219q110 0 191.5 45t125 119t43.5 159q0 94 -45.5 167.5t-127.5 114.5t-186 41h-220l16 16v-678zM568.5 655.5q85.5 -44.5 133.5 -124t48 -181.5q0 -96 -49.5 -176.5t-135.5 -127t-191 -46.5h-249v4q1 12 1.5 24.5t0.5 30.5v46v490v46t-0.5 30.5t-1.5 24.5v4h249
q109 0 194.5 -44.5zM394 821l133 100l11 -14l-147 -128l-147 128l11 14z" />
    <glyph glyph-name="Dcroat" unicode="&#x110;" horiz-adv-x="780" 
d="M141 27h219q110 0 191.5 45t125 119t43.5 159q0 94 -45.5 167.5t-127.5 114.5t-186 41h-220l16 16v-678zM568.5 655.5q85.5 -44.5 133.5 -124t48 -181.5q0 -96 -49.5 -176.5t-135.5 -127t-191 -46.5h-249v4q1 12 1.5 24.5t0.5 30.5v46v490v46t-0.5 30.5t-1.5 24.5v4h249
q109 0 194.5 -44.5zM0 379v-27h380v27h-380z" />
    <glyph glyph-name="Dcroat" unicode="&#x111;" horiz-adv-x="780" 
d="M141 27h219q110 0 191.5 45t125 119t43.5 159q0 94 -45.5 167.5t-127.5 114.5t-186 41h-220l16 16v-678zM568.5 655.5q85.5 -44.5 133.5 -124t48 -181.5q0 -96 -49.5 -176.5t-135.5 -127t-191 -46.5h-249v4q1 12 1.5 24.5t0.5 30.5v46v490v46t-0.5 30.5t-1.5 24.5v4h249
q109 0 194.5 -44.5zM0 379v-27h380v27h-380z" />
    <glyph glyph-name="Emacron" unicode="&#x112;" horiz-adv-x="545" 
d="M492 700v-30h-4q-12 1 -23.5 2t-28 1h-39.5h-256l16 16v-215l-12 13h269v-27h-269l12 12v-461l-16 16h293h39.5t28 1t23.5 2h4v-30h-404v4q1 12 1.5 24.5t0.5 30.5v46v490v46t-0.5 30.5t-1.5 24.5v4h367zM496 847v-27h-380v27h380z" />
    <glyph glyph-name="Emacron" unicode="&#x113;" horiz-adv-x="545" 
d="M492 700v-30h-4q-12 1 -23.5 2t-28 1h-39.5h-256l16 16v-215l-12 13h269v-27h-269l12 12v-461l-16 16h293h39.5t28 1t23.5 2h4v-30h-404v4q1 12 1.5 24.5t0.5 30.5v46v490v46t-0.5 30.5t-1.5 24.5v4h367zM496 847v-27h-380v27h380z" />
    <glyph glyph-name="Edotaccent" unicode="&#x116;" horiz-adv-x="545" 
d="M492 700v-30h-4q-12 1 -23.5 2t-28 1h-39.5h-256l16 16v-215l-12 13h269v-27h-269l12 12v-461l-16 16h293h39.5t28 1t23.5 2h4v-30h-404v4q1 12 1.5 24.5t0.5 30.5v46v490v46t-0.5 30.5t-1.5 24.5v4h367zM273 818q-13 13 -13 32q0 18 13 31.5t32 13.5t32 -13.5t13 -31.5
q0 -19 -13 -32t-32 -13t-32 13z" />
    <glyph glyph-name="Edotaccent" unicode="&#x117;" horiz-adv-x="545" 
d="M492 700v-30h-4q-12 1 -23.5 2t-28 1h-39.5h-256l16 16v-215l-12 13h269v-27h-269l12 12v-461l-16 16h293h39.5t28 1t23.5 2h4v-30h-404v4q1 12 1.5 24.5t0.5 30.5v46v490v46t-0.5 30.5t-1.5 24.5v4h367zM273 818q-13 13 -13 32q0 18 13 31.5t32 13.5t32 -13.5t13 -31.5
q0 -19 -13 -32t-32 -13t-32 13z" />
    <glyph glyph-name="Eogonek" unicode="&#x118;" horiz-adv-x="545" 
d="M492 700v-30h-4q-12 1 -23.5 2t-28 1h-39.5h-256l16 16v-215l-12 13h269v-27h-269l12 12v-461l-16 16h293h39.5t28 1t23.5 2h4v-30h-404v4q1 12 1.5 24.5t0.5 30.5v46v490v46t-0.5 30.5t-1.5 24.5v4h367zM392 -160.5q-19 16.5 -19 42.5q0 36 36.5 72.5t108.5 61.5l11 -16
q-66 -26 -99 -55.5t-33 -58.5q0 -19 13.5 -31t38.5 -12q33 0 72 19l7 -15q-43 -24 -84 -24q-33 0 -52 16.5z" />
    <glyph glyph-name="Eogonek" unicode="&#x119;" horiz-adv-x="545" 
d="M492 700v-30h-4q-12 1 -23.5 2t-28 1h-39.5h-256l16 16v-215l-12 13h269v-27h-269l12 12v-461l-16 16h293h39.5t28 1t23.5 2h4v-30h-404v4q1 12 1.5 24.5t0.5 30.5v46v490v46t-0.5 30.5t-1.5 24.5v4h367zM392 -160.5q-19 16.5 -19 42.5q0 36 36.5 72.5t108.5 61.5l11 -16
q-66 -26 -99 -55.5t-33 -58.5q0 -19 13.5 -31t38.5 -12q33 0 72 19l7 -15q-43 -24 -84 -24q-33 0 -52 16.5z" />
    <glyph glyph-name="Ecaron" unicode="&#x11a;" horiz-adv-x="545" 
d="M492 700v-30h-4q-12 1 -23.5 2t-28 1h-39.5h-256l16 16v-215l-12 13h269v-27h-269l12 12v-461l-16 16h293h39.5t28 1t23.5 2h4v-30h-404v4q1 12 1.5 24.5t0.5 30.5v46v490v46t-0.5 30.5t-1.5 24.5v4h367zM308 821l133 100l11 -14l-147 -128l-147 128l11 14z" />
    <glyph glyph-name="Ecaron" unicode="&#x11b;" horiz-adv-x="545" 
d="M492 700v-30h-4q-12 1 -23.5 2t-28 1h-39.5h-256l16 16v-215l-12 13h269v-27h-269l12 12v-461l-16 16h293h39.5t28 1t23.5 2h4v-30h-404v4q1 12 1.5 24.5t0.5 30.5v46v490v46t-0.5 30.5t-1.5 24.5v4h367zM308 821l133 100l11 -14l-147 -128l-147 128l11 14z" />
    <glyph glyph-name="Gbreve" unicode="&#x11e;" horiz-adv-x="757" 
d="M677 559h-12q-16 38 -57.5 70t-97.5 50t-112 18q-93 0 -170.5 -45.5t-122.5 -124t-45 -173.5q0 -94 45 -172.5t122.5 -124.5t170.5 -46q52 0 100.5 15.5t89.5 43.5t72 67l-13 -40v167q0 23 -0.5 39.5t-2 27.5t-5.5 24v4h40v-4q-1 -18 -1.5 -38t-0.5 -53v-157
q-52 -57 -125 -90t-154 -33q-101 0 -185.5 49.5t-133.5 134.5t-49 186t49 186t133.5 134.5t185.5 49.5q82 0 154 -31t125 -84v-50zM301 912v-1q0 -16 4 -30t11 -25.5t17 -21.5q14 -13 32.5 -20t38.5 -7q28 0 51.5 13.5t37.5 37.5t14 54h30q-2 -58 -38.5 -95t-94.5 -37
t-94.5 37t-38.5 95h30z" />
    <glyph glyph-name="Gbreve" unicode="&#x11f;" horiz-adv-x="757" 
d="M677 559h-12q-16 38 -57.5 70t-97.5 50t-112 18q-93 0 -170.5 -45.5t-122.5 -124t-45 -173.5q0 -94 45 -172.5t122.5 -124.5t170.5 -46q52 0 100.5 15.5t89.5 43.5t72 67l-13 -40v167q0 23 -0.5 39.5t-2 27.5t-5.5 24v4h40v-4q-1 -18 -1.5 -38t-0.5 -53v-157
q-52 -57 -125 -90t-154 -33q-101 0 -185.5 49.5t-133.5 134.5t-49 186t49 186t133.5 134.5t185.5 49.5q82 0 154 -31t125 -84v-50zM301 912v-1q0 -16 4 -30t11 -25.5t17 -21.5q14 -13 32.5 -20t38.5 -7q28 0 51.5 13.5t37.5 37.5t14 54h30q-2 -58 -38.5 -95t-94.5 -37
t-94.5 37t-38.5 95h30z" />
    <glyph glyph-name="Gdotaccent" unicode="&#x120;" horiz-adv-x="757" 
d="M677 559h-12q-16 38 -57.5 70t-97.5 50t-112 18q-93 0 -170.5 -45.5t-122.5 -124t-45 -173.5q0 -94 45 -172.5t122.5 -124.5t170.5 -46q52 0 100.5 15.5t89.5 43.5t72 67l-13 -40v167q0 23 -0.5 39.5t-2 27.5t-5.5 24v4h40v-4q-1 -18 -1.5 -38t-0.5 -53v-157
q-52 -57 -125 -90t-154 -33q-101 0 -185.5 49.5t-133.5 134.5t-49 186t49 186t133.5 134.5t185.5 49.5q82 0 154 -31t125 -84v-50zM372 818q-13 13 -13 32q0 18 13 31.5t32 13.5t32 -13.5t13 -31.5q0 -19 -13 -32t-32 -13t-32 13z" />
    <glyph glyph-name="Gdotaccent" unicode="&#x121;" horiz-adv-x="757" 
d="M677 559h-12q-16 38 -57.5 70t-97.5 50t-112 18q-93 0 -170.5 -45.5t-122.5 -124t-45 -173.5q0 -94 45 -172.5t122.5 -124.5t170.5 -46q52 0 100.5 15.5t89.5 43.5t72 67l-13 -40v167q0 23 -0.5 39.5t-2 27.5t-5.5 24v4h40v-4q-1 -18 -1.5 -38t-0.5 -53v-157
q-52 -57 -125 -90t-154 -33q-101 0 -185.5 49.5t-133.5 134.5t-49 186t49 186t133.5 134.5t185.5 49.5q82 0 154 -31t125 -84v-50zM372 818q-13 13 -13 32q0 18 13 31.5t32 13.5t32 -13.5t13 -31.5q0 -19 -13 -32t-32 -13t-32 13z" />
    <glyph glyph-name="uni0122" unicode="&#x122;" horiz-adv-x="757" 
d="M677 559h-12q-16 38 -57.5 70t-97.5 50t-112 18q-93 0 -170.5 -45.5t-122.5 -124t-45 -173.5q0 -94 45 -172.5t122.5 -124.5t170.5 -46q52 0 100.5 15.5t89.5 43.5t72 67l-13 -40v167q0 23 -0.5 39.5t-2 27.5t-5.5 24v4h40v-4q-1 -18 -1.5 -38t-0.5 -53v-157
q-52 -57 -125 -90t-154 -33q-101 0 -185.5 49.5t-133.5 134.5t-49 186t49 186t133.5 134.5t185.5 49.5q82 0 154 -31t125 -84v-50zM354.999 -201.599q14.3994 18.3994 23.1992 32.7988q8.7998 14.4004 10 22.7998q1.2002 8.40039 -4.39941 9.2002
q-11.2002 1.59961 -20.4004 9.59961q-9.19922 8 -9.19922 20.7998q0 13.5996 9.59961 23.5996t23.1992 10q15.2002 0 24 -10.4004q8.7998 -10.3994 8.7998 -27.999q0 -16 -8 -35.1992q-8 -19.2002 -28.7998 -44.7998q-8.7998 -10.3994 -17.5996 -20.7998l-12.7998 8z" />
    <glyph glyph-name="uni0122" unicode="&#x123;" horiz-adv-x="757" 
d="M677 559h-12q-16 38 -57.5 70t-97.5 50t-112 18q-93 0 -170.5 -45.5t-122.5 -124t-45 -173.5q0 -94 45 -172.5t122.5 -124.5t170.5 -46q52 0 100.5 15.5t89.5 43.5t72 67l-13 -40v167q0 23 -0.5 39.5t-2 27.5t-5.5 24v4h40v-4q-1 -18 -1.5 -38t-0.5 -53v-157
q-52 -57 -125 -90t-154 -33q-101 0 -185.5 49.5t-133.5 134.5t-49 186t49 186t133.5 134.5t185.5 49.5q82 0 154 -31t125 -84v-50zM354.999 -201.599q14.3994 18.3994 23.1992 32.7988q8.7998 14.4004 10 22.7998q1.2002 8.40039 -4.39941 9.2002
q-11.2002 1.59961 -20.4004 9.59961q-9.19922 8 -9.19922 20.7998q0 13.5996 9.59961 23.5996t23.1992 10q15.2002 0 24 -10.4004q8.7998 -10.3994 8.7998 -27.999q0 -16 -8 -35.1992q-8 -19.2002 -28.7998 -44.7998q-8.7998 -10.3994 -17.5996 -20.7998l-12.7998 8z" />
    <glyph glyph-name="Imacron" unicode="&#x12a;" horiz-adv-x="285" 
d="M159 700v-4q-1 -12 -1.5 -24.5t-0.5 -30.5v-46v-490v-46t0.5 -30.5t1.5 -24.5v-4h-34v4q1 12 1.5 24.5t0.5 30.5v46v490v46t-0.5 30.5t-1.5 24.5v4h34zM333 847v-27h-380v27h380z" />
    <glyph glyph-name="Imacron" unicode="&#x12b;" horiz-adv-x="285" 
d="M159 700v-4q-1 -12 -1.5 -24.5t-0.5 -30.5v-46v-490v-46t0.5 -30.5t1.5 -24.5v-4h-34v4q1 12 1.5 24.5t0.5 30.5v46v490v46t-0.5 30.5t-1.5 24.5v4h34zM333 847v-27h-380v27h380z" />
    <glyph glyph-name="Idotaccent" unicode="&#x130;" horiz-adv-x="285" 
d="M159 700v-4q-1 -12 -1.5 -24.5t-0.5 -30.5v-46v-490v-46t0.5 -30.5t1.5 -24.5v-4h-34v4q1 12 1.5 24.5t0.5 30.5v46v490v46t-0.5 30.5t-1.5 24.5v4h34zM111 818q-13 13 -13 32q0 18 13 31.5t32 13.5t32 -13.5t13 -31.5q0 -19 -13 -32t-32 -13t-32 13z" />
    <glyph glyph-name="IJ" unicode="&#x132;" horiz-adv-x="590" 
d="M159 700v-4q-1 -12 -1.5 -24.5t-0.5 -30.5v-46v-490v-46t0.5 -30.5t1.5 -24.5v-4h-34v4q1 12 1.5 24.5t0.5 30.5v46v490v46t-0.5 30.5t-1.5 24.5v4h34zM464 700v-4q-1 -12 -1.5 -23.5t-0.5 -28v-39.5v-484q0 -81 -24 -142t-73.5 -99.5t-125.5 -50.5l-4 12
q75 16 118.5 55.5t61 97.5t17.5 139v472v39.5t-1 28t-2 23.5v4h35z" />
    <glyph glyph-name="IJ" unicode="&#x133;" horiz-adv-x="590" 
d="M159 700v-4q-1 -12 -1.5 -24.5t-0.5 -30.5v-46v-490v-46t0.5 -30.5t1.5 -24.5v-4h-34v4q1 12 1.5 24.5t0.5 30.5v46v490v46t-0.5 30.5t-1.5 24.5v4h34zM464 700v-4q-1 -12 -1.5 -23.5t-0.5 -28v-39.5v-484q0 -81 -24 -142t-73.5 -99.5t-125.5 -50.5l-4 12
q75 16 118.5 55.5t61 97.5t17.5 139v472v39.5t-1 28t-2 23.5v4h35z" />
    <glyph glyph-name="uni0136" unicode="&#x136;" horiz-adv-x="629" 
d="M160 700v-4q-1 -12 -2 -24.5t-1 -30.5v-46v-248h-18l263 248q28 26 48.5 46.5t31 33t14.5 21.5l2 4h57v-3q-10 -7 -20.5 -16t-23.5 -21t-28 -27l-41 -38l-141 -132v15l253 -386q34 -51 47.5 -68.5t22.5 -23.5l-2 -8q-17 -2 -31 7.5t-27 26t-34 49.5l-249 380h12
l-155 -145l19 34v-239v-46t1 -30.5t2 -24.5v-4h-35v4q1 12 1.5 24.5t0.5 30.5v46v490v46t-0.5 30.5t-1.5 24.5v4h35zM309.999 -191.599q14.3994 18.3994 23.1992 32.7988q8.7998 14.4004 10 22.7998q1.2002 8.40039 -4.39941 9.2002q-11.2002 1.59961 -20.4004 9.59961
q-9.19922 8 -9.19922 20.7998q0 13.5996 9.59961 23.5996t23.1992 10q15.2002 0 24 -10.4004q8.7998 -10.3994 8.7998 -27.999q0 -16 -8 -35.1992q-8 -19.2002 -28.7998 -44.7998q-8.7998 -10.3994 -17.5996 -20.7998l-12.7998 8z" />
    <glyph glyph-name="uni0136" unicode="&#x137;" horiz-adv-x="629" 
d="M160 700v-4q-1 -12 -2 -24.5t-1 -30.5v-46v-248h-18l263 248q28 26 48.5 46.5t31 33t14.5 21.5l2 4h57v-3q-10 -7 -20.5 -16t-23.5 -21t-28 -27l-41 -38l-141 -132v15l253 -386q34 -51 47.5 -68.5t22.5 -23.5l-2 -8q-17 -2 -31 7.5t-27 26t-34 49.5l-249 380h12
l-155 -145l19 34v-239v-46t1 -30.5t2 -24.5v-4h-35v4q1 12 1.5 24.5t0.5 30.5v46v490v46t-0.5 30.5t-1.5 24.5v4h35zM309.999 -191.599q14.3994 18.3994 23.1992 32.7988q8.7998 14.4004 10 22.7998q1.2002 8.40039 -4.39941 9.2002q-11.2002 1.59961 -20.4004 9.59961
q-9.19922 8 -9.19922 20.7998q0 13.5996 9.59961 23.5996t23.1992 10q15.2002 0 24 -10.4004q8.7998 -10.3994 8.7998 -27.999q0 -16 -8 -35.1992q-8 -19.2002 -28.7998 -44.7998q-8.7998 -10.3994 -17.5996 -20.7998l-12.7998 8z" />
    <glyph glyph-name="Lacute" unicode="&#x139;" horiz-adv-x="450" 
d="M160 700v-4q-1 -12 -2 -24.5t-1 -30.5v-46v-584l-16 16h224h39.5t28 1t23.5 2h4v-30h-335v4q1 12 1.5 24.5t0.5 30.5v46v490v46t-0.5 30.5t-1.5 24.5v4h35zM232 926l-136 -149l-10 9l116 165z" />
    <glyph glyph-name="Lacute" unicode="&#x13a;" horiz-adv-x="450" 
d="M160 700v-4q-1 -12 -2 -24.5t-1 -30.5v-46v-584l-16 16h224h39.5t28 1t23.5 2h4v-30h-335v4q1 12 1.5 24.5t0.5 30.5v46v490v46t-0.5 30.5t-1.5 24.5v4h35zM232 926l-136 -149l-10 9l116 165z" />
    <glyph glyph-name="uni013B" unicode="&#x13b;" horiz-adv-x="450" 
d="M160 700v-4q-1 -12 -2 -24.5t-1 -30.5v-46v-584l-16 16h224h39.5t28 1t23.5 2h4v-30h-335v4q1 12 1.5 24.5t0.5 30.5v46v490v46t-0.5 30.5t-1.5 24.5v4h35zM248.999 -196.599q14.3994 18.3994 23.1992 32.7988q8.7998 14.4004 10 22.7998q1.2002 8.40039 -4.39941 9.2002
q-11.2002 1.59961 -20.4004 9.59961q-9.19922 8 -9.19922 20.7998q0 13.5996 9.59961 23.5996t23.1992 10q15.2002 0 24 -10.4004q8.7998 -10.3994 8.7998 -27.999q0 -16 -8 -35.1992q-8 -19.2002 -28.7998 -44.7998q-8.7998 -10.3994 -17.5996 -20.7998l-12.7998 8z" />
    <glyph glyph-name="uni013B" unicode="&#x13c;" horiz-adv-x="450" 
d="M160 700v-4q-1 -12 -2 -24.5t-1 -30.5v-46v-584l-16 16h224h39.5t28 1t23.5 2h4v-30h-335v4q1 12 1.5 24.5t0.5 30.5v46v490v46t-0.5 30.5t-1.5 24.5v4h35zM248.999 -196.599q14.3994 18.3994 23.1992 32.7988q8.7998 14.4004 10 22.7998q1.2002 8.40039 -4.39941 9.2002
q-11.2002 1.59961 -20.4004 9.59961q-9.19922 8 -9.19922 20.7998q0 13.5996 9.59961 23.5996t23.1992 10q15.2002 0 24 -10.4004q8.7998 -10.3994 8.7998 -27.999q0 -16 -8 -35.1992q-8 -19.2002 -28.7998 -44.7998q-8.7998 -10.3994 -17.5996 -20.7998l-12.7998 8z" />
    <glyph glyph-name="Lcaron" unicode="&#x13d;" horiz-adv-x="495" 
d="M160 700v-4q-1 -12 -2 -24.5t-1 -30.5v-46v-584l-16 16h224h39.5t28 1t23.5 2h4v-30h-335v4q1 12 1.5 24.5t0.5 30.5v46v490v46t-0.5 30.5t-1.5 24.5v4h35zM421 698l-39 -179l-16 2l17 184z" />
    <glyph glyph-name="Lcaron" unicode="&#x13e;" horiz-adv-x="495" 
d="M160 700v-4q-1 -12 -2 -24.5t-1 -30.5v-46v-584l-16 16h224h39.5t28 1t23.5 2h4v-30h-335v4q1 12 1.5 24.5t0.5 30.5v46v490v46t-0.5 30.5t-1.5 24.5v4h35zM421 698l-39 -179l-16 2l17 184z" />
    <glyph glyph-name="Lslash" unicode="&#x141;" horiz-adv-x="450" 
d="M160 700v-4q-1 -12 -2 -24.5t-1 -30.5v-46v-584l-16 16h224h39.5t28 1t23.5 2h4v-30h-335v4q1 12 1.5 24.5t0.5 30.5v46v490v46t-0.5 30.5t-1.5 24.5v4h35zM445.985 555.734l13.5 -23.3828l-450.335 -260l-13.5 23.3828z" />
    <glyph glyph-name="Lslash" unicode="&#x142;" horiz-adv-x="450" 
d="M160 700v-4q-1 -12 -2 -24.5t-1 -30.5v-46v-584l-16 16h224h39.5t28 1t23.5 2h4v-30h-335v4q1 12 1.5 24.5t0.5 30.5v46v490v46t-0.5 30.5t-1.5 24.5v4h35zM445.985 555.734l13.5 -23.3828l-450.335 -260l-13.5 23.3828z" />
    <glyph glyph-name="Nacute" unicode="&#x143;" horiz-adv-x="710" 
d="M150 702l418 -661h-12v554v46t-1 30.5t-2 24.5v4h32v-4q-1 -12 -1.5 -24.5t-0.5 -30.5v-46v-502v-40t0.5 -29.5t1.5 -25.5h-25l-421 665h15v-558v-46t1 -30.5t2 -24.5v-4h-32v4q1 12 1.5 24.5t0.5 30.5v46v502v40t-0.5 29.5t-1.5 25.5h25zM459 926l-136 -149l-10 9
l116 165z" />
    <glyph glyph-name="Nacute" unicode="&#x144;" horiz-adv-x="710" 
d="M150 702l418 -661h-12v554v46t-1 30.5t-2 24.5v4h32v-4q-1 -12 -1.5 -24.5t-0.5 -30.5v-46v-502v-40t0.5 -29.5t1.5 -25.5h-25l-421 665h15v-558v-46t1 -30.5t2 -24.5v-4h-32v4q1 12 1.5 24.5t0.5 30.5v46v502v40t-0.5 29.5t-1.5 25.5h25zM459 926l-136 -149l-10 9
l116 165z" />
    <glyph glyph-name="uni0145" unicode="&#x145;" horiz-adv-x="710" 
d="M150 702l418 -661h-12v554v46t-1 30.5t-2 24.5v4h32v-4q-1 -12 -1.5 -24.5t-0.5 -30.5v-46v-502v-40t0.5 -29.5t1.5 -25.5h-25l-421 665h15v-558v-46t1 -30.5t2 -24.5v-4h-32v4q1 12 1.5 24.5t0.5 30.5v46v502v40t-0.5 29.5t-1.5 25.5h25zM319.999 -201.599
q14.3994 18.3994 23.1992 32.7988q8.7998 14.4004 10 22.7998q1.2002 8.40039 -4.39941 9.2002q-11.2002 1.59961 -20.4004 9.59961q-9.19922 8 -9.19922 20.7998q0 13.5996 9.59961 23.5996t23.1992 10q15.2002 0 24 -10.4004q8.7998 -10.3994 8.7998 -27.999
q0 -16 -8 -35.1992q-8 -19.2002 -28.7998 -44.7998q-8.7998 -10.3994 -17.5996 -20.7998l-12.7998 8z" />
    <glyph glyph-name="uni0145" unicode="&#x146;" horiz-adv-x="710" 
d="M150 702l418 -661h-12v554v46t-1 30.5t-2 24.5v4h32v-4q-1 -12 -1.5 -24.5t-0.5 -30.5v-46v-502v-40t0.5 -29.5t1.5 -25.5h-25l-421 665h15v-558v-46t1 -30.5t2 -24.5v-4h-32v4q1 12 1.5 24.5t0.5 30.5v46v502v40t-0.5 29.5t-1.5 25.5h25zM319.999 -201.599
q14.3994 18.3994 23.1992 32.7988q8.7998 14.4004 10 22.7998q1.2002 8.40039 -4.39941 9.2002q-11.2002 1.59961 -20.4004 9.59961q-9.19922 8 -9.19922 20.7998q0 13.5996 9.59961 23.5996t23.1992 10q15.2002 0 24 -10.4004q8.7998 -10.3994 8.7998 -27.999
q0 -16 -8 -35.1992q-8 -19.2002 -28.7998 -44.7998q-8.7998 -10.3994 -17.5996 -20.7998l-12.7998 8z" />
    <glyph glyph-name="Ncaron" unicode="&#x147;" horiz-adv-x="710" 
d="M150 702l418 -661h-12v554v46t-1 30.5t-2 24.5v4h32v-4q-1 -12 -1.5 -24.5t-0.5 -30.5v-46v-502v-40t0.5 -29.5t1.5 -25.5h-25l-421 665h15v-558v-46t1 -30.5t2 -24.5v-4h-32v4q1 12 1.5 24.5t0.5 30.5v46v502v40t-0.5 29.5t-1.5 25.5h25zM358 821l133 100l11 -14
l-147 -128l-147 128l11 14z" />
    <glyph glyph-name="Ncaron" unicode="&#x148;" horiz-adv-x="710" 
d="M150 702l418 -661h-12v554v46t-1 30.5t-2 24.5v4h32v-4q-1 -12 -1.5 -24.5t-0.5 -30.5v-46v-502v-40t0.5 -29.5t1.5 -25.5h-25l-421 665h15v-558v-46t1 -30.5t2 -24.5v-4h-32v4q1 12 1.5 24.5t0.5 30.5v46v502v40t-0.5 29.5t-1.5 25.5h25zM358 821l133 100l11 -14
l-147 -128l-147 128l11 14z" />
    <glyph glyph-name="Omacron" unicode="&#x14c;" horiz-adv-x="800" 
d="M214 33.5q-85 49.5 -134.5 134.5t-49.5 186t49.5 186t134.5 134.5t186 49.5t186 -49.5t134.5 -134.5t49.5 -186t-49.5 -186t-134.5 -134.5t-186 -49.5t-186 49.5zM571 57q78 46 123.5 124.5t45.5 172.5q0 95 -45.5 173.5t-123.5 124t-172 45.5t-171.5 -45.5t-122.5 -124
t-45 -173.5q0 -94 45 -172.5t122.5 -124.5t171.5 -46t172 46zM599 847v-27h-380v27h380z" />
    <glyph glyph-name="Omacron" unicode="&#x14d;" horiz-adv-x="800" 
d="M214 33.5q-85 49.5 -134.5 134.5t-49.5 186t49.5 186t134.5 134.5t186 49.5t186 -49.5t134.5 -134.5t49.5 -186t-49.5 -186t-134.5 -134.5t-186 -49.5t-186 49.5zM571 57q78 46 123.5 124.5t45.5 172.5q0 95 -45.5 173.5t-123.5 124t-172 45.5t-171.5 -45.5t-122.5 -124
t-45 -173.5q0 -94 45 -172.5t122.5 -124.5t171.5 -46t172 46zM599 847v-27h-380v27h380z" />
    <glyph glyph-name="Ohungarumlaut" unicode="&#x150;" horiz-adv-x="800" 
d="M214 33.5q-85 49.5 -134.5 134.5t-49.5 186t49.5 186t134.5 134.5t186 49.5t186 -49.5t134.5 -134.5t49.5 -186t-49.5 -186t-134.5 -134.5t-186 -49.5t-186 49.5zM571 57q78 46 123.5 124.5t45.5 172.5q0 95 -45.5 173.5t-123.5 124t-172 45.5t-171.5 -45.5t-122.5 -124
t-45 -173.5q0 -94 45 -172.5t122.5 -124.5t171.5 -46t172 46zM441 923l-91 -122l-14 7l68 133zM579 919l-131 -114l-12 10l111 131z" />
    <glyph glyph-name="Ohungarumlaut" unicode="&#x151;" horiz-adv-x="800" 
d="M214 33.5q-85 49.5 -134.5 134.5t-49.5 186t49.5 186t134.5 134.5t186 49.5t186 -49.5t134.5 -134.5t49.5 -186t-49.5 -186t-134.5 -134.5t-186 -49.5t-186 49.5zM571 57q78 46 123.5 124.5t45.5 172.5q0 95 -45.5 173.5t-123.5 124t-172 45.5t-171.5 -45.5t-122.5 -124
t-45 -173.5q0 -94 45 -172.5t122.5 -124.5t171.5 -46t172 46zM441 923l-91 -122l-14 7l68 133zM579 919l-131 -114l-12 10l111 131z" />
    <glyph glyph-name="OE" unicode="&#x152;" horiz-adv-x="1130" 
d="M208 33.5q-82 49.5 -130 134.5t-48 186t48 186t130 134.5t179 49.5q95 0 176 -48.5t129 -133.5t48 -188t-48 -188t-129 -133.5t-176 -48.5q-97 0 -179 49.5zM552 57q75 46 119 124.5t44 172.5q0 95 -44 173.5t-119 124t-166 45.5t-165.5 -45.5t-118 -124t-43.5 -173.5
q0 -94 43.5 -172.5t118.5 -124.5t165 -46q91 0 166 46zM1077 700v-30h-4q-12 1 -23.5 2t-28 1h-39.5h-256l16 16v-215l-12 13h269v-27h-269l12 12v-461l-16 16h293h39.5t28 1t23.5 2h4v-30h-404v4q1 12 1.5 24.5t0.5 30.5v46v135l17 114l-17 114v127v46t-0.5 30.5t-1.5 24.5
v4h367z" />
    <glyph glyph-name="OE" unicode="&#x153;" horiz-adv-x="1130" 
d="M208 33.5q-82 49.5 -130 134.5t-48 186t48 186t130 134.5t179 49.5q95 0 176 -48.5t129 -133.5t48 -188t-48 -188t-129 -133.5t-176 -48.5q-97 0 -179 49.5zM552 57q75 46 119 124.5t44 172.5q0 95 -44 173.5t-119 124t-166 45.5t-165.5 -45.5t-118 -124t-43.5 -173.5
q0 -94 43.5 -172.5t118.5 -124.5t165 -46q91 0 166 46zM1077 700v-30h-4q-12 1 -23.5 2t-28 1h-39.5h-256l16 16v-215l-12 13h269v-27h-269l12 12v-461l-16 16h293h39.5t28 1t23.5 2h4v-30h-404v4q1 12 1.5 24.5t0.5 30.5v46v135l17 114l-17 114v127v46t-0.5 30.5t-1.5 24.5
v4h367z" />
    <glyph glyph-name="Racute" unicode="&#x154;" horiz-adv-x="669" 
d="M470 681q59 -19 89.5 -55t30.5 -86q0 -53 -28.5 -88t-83.5 -52.5t-135 -17.5h-8h-8h-8l16 13l216 -304q37 -52 50 -68t23 -22l-2 -8q-23 -3 -42 14.5t-50 61.5l-3 4l-227 320l7 14h21h21q106 0 158.5 33t52.5 98q0 42 -28.5 72.5t-82.5 46.5t-129 16h-179l16 16v-584v-46
t1 -30.5t2 -24.5v-4h-35v4q1 12 1.5 24.5t0.5 30.5v46v490v46t-0.5 30.5t-1.5 24.5v4h203q83 0 142 -19zM419 926l-136 -149l-10 9l116 165z" />
    <glyph glyph-name="Racute" unicode="&#x155;" horiz-adv-x="669" 
d="M470 681q59 -19 89.5 -55t30.5 -86q0 -53 -28.5 -88t-83.5 -52.5t-135 -17.5h-8h-8h-8l16 13l216 -304q37 -52 50 -68t23 -22l-2 -8q-23 -3 -42 14.5t-50 61.5l-3 4l-227 320l7 14h21h21q106 0 158.5 33t52.5 98q0 42 -28.5 72.5t-82.5 46.5t-129 16h-179l16 16v-584v-46
t1 -30.5t2 -24.5v-4h-35v4q1 12 1.5 24.5t0.5 30.5v46v490v46t-0.5 30.5t-1.5 24.5v4h203q83 0 142 -19zM419 926l-136 -149l-10 9l116 165z" />
    <glyph glyph-name="uni0156" unicode="&#x156;" horiz-adv-x="669" 
d="M470 681q59 -19 89.5 -55t30.5 -86q0 -53 -28.5 -88t-83.5 -52.5t-135 -17.5h-8h-8h-8l16 13l216 -304q37 -52 50 -68t23 -22l-2 -8q-23 -3 -42 14.5t-50 61.5l-3 4l-227 320l7 14h21h21q106 0 158.5 33t52.5 98q0 42 -28.5 72.5t-82.5 46.5t-129 16h-179l16 16v-584v-46
t1 -30.5t2 -24.5v-4h-35v4q1 12 1.5 24.5t0.5 30.5v46v490v46t-0.5 30.5t-1.5 24.5v4h203q83 0 142 -19zM314.999 -191.599q14.3994 18.3994 23.1992 32.7988q8.7998 14.4004 10 22.7998q1.2002 8.40039 -4.39941 9.2002q-11.2002 1.59961 -20.4004 9.59961
q-9.19922 8 -9.19922 20.7998q0 13.5996 9.59961 23.5996t23.1992 10q15.2002 0 24 -10.4004q8.7998 -10.3994 8.7998 -27.999q0 -16 -8 -35.1992q-8 -19.2002 -28.7998 -44.7998q-8.7998 -10.3994 -17.5996 -20.7998l-12.7998 8z" />
    <glyph glyph-name="uni0156" unicode="&#x157;" horiz-adv-x="669" 
d="M470 681q59 -19 89.5 -55t30.5 -86q0 -53 -28.5 -88t-83.5 -52.5t-135 -17.5h-8h-8h-8l16 13l216 -304q37 -52 50 -68t23 -22l-2 -8q-23 -3 -42 14.5t-50 61.5l-3 4l-227 320l7 14h21h21q106 0 158.5 33t52.5 98q0 42 -28.5 72.5t-82.5 46.5t-129 16h-179l16 16v-584v-46
t1 -30.5t2 -24.5v-4h-35v4q1 12 1.5 24.5t0.5 30.5v46v490v46t-0.5 30.5t-1.5 24.5v4h203q83 0 142 -19zM314.999 -191.599q14.3994 18.3994 23.1992 32.7988q8.7998 14.4004 10 22.7998q1.2002 8.40039 -4.39941 9.2002q-11.2002 1.59961 -20.4004 9.59961
q-9.19922 8 -9.19922 20.7998q0 13.5996 9.59961 23.5996t23.1992 10q15.2002 0 24 -10.4004q8.7998 -10.3994 8.7998 -27.999q0 -16 -8 -35.1992q-8 -19.2002 -28.7998 -44.7998q-8.7998 -10.3994 -17.5996 -20.7998l-12.7998 8z" />
    <glyph glyph-name="Rcaron" unicode="&#x158;" horiz-adv-x="669" 
d="M470 681q59 -19 89.5 -55t30.5 -86q0 -53 -28.5 -88t-83.5 -52.5t-135 -17.5h-8h-8h-8l16 13l216 -304q37 -52 50 -68t23 -22l-2 -8q-23 -3 -42 14.5t-50 61.5l-3 4l-227 320l7 14h21h21q106 0 158.5 33t52.5 98q0 42 -28.5 72.5t-82.5 46.5t-129 16h-179l16 16v-584v-46
t1 -30.5t2 -24.5v-4h-35v4q1 12 1.5 24.5t0.5 30.5v46v490v46t-0.5 30.5t-1.5 24.5v4h203q83 0 142 -19zM338 821l133 100l11 -14l-147 -128l-147 128l11 14z" />
    <glyph glyph-name="Rcaron" unicode="&#x159;" horiz-adv-x="669" 
d="M470 681q59 -19 89.5 -55t30.5 -86q0 -53 -28.5 -88t-83.5 -52.5t-135 -17.5h-8h-8h-8l16 13l216 -304q37 -52 50 -68t23 -22l-2 -8q-23 -3 -42 14.5t-50 61.5l-3 4l-227 320l7 14h21h21q106 0 158.5 33t52.5 98q0 42 -28.5 72.5t-82.5 46.5t-129 16h-179l16 16v-584v-46
t1 -30.5t2 -24.5v-4h-35v4q1 12 1.5 24.5t0.5 30.5v46v490v46t-0.5 30.5t-1.5 24.5v4h203q83 0 142 -19zM338 821l133 100l11 -14l-147 -128l-147 128l11 14z" />
    <glyph glyph-name="Sacute" unicode="&#x15a;" horiz-adv-x="486" 
d="M390 649h-9q-16 16 -34.5 25t-41.5 13t-54 4q-67 0 -102 -27.5t-35 -72.5q0 -39 19.5 -74.5t58.5 -74.5l140 -142q46 -46 64 -83.5t18 -78.5q0 -50 -24.5 -83.5t-65 -50t-88.5 -16.5q-43 0 -84.5 13t-73.5 36l-3 44h9q23 -23 48 -37.5t53.5 -21.5t61.5 -7q58 0 97.5 32.5
t39.5 87.5q0 32 -17.5 69t-55.5 75l-140 142q-46 46 -66.5 86.5t-20.5 80.5q0 57 45 93.5t127 36.5q69 0 130 -22zM337 926l-136 -149l-10 9l116 165z" />
    <glyph glyph-name="Sacute" unicode="&#x15b;" horiz-adv-x="486" 
d="M390 649h-9q-16 16 -34.5 25t-41.5 13t-54 4q-67 0 -102 -27.5t-35 -72.5q0 -39 19.5 -74.5t58.5 -74.5l140 -142q46 -46 64 -83.5t18 -78.5q0 -50 -24.5 -83.5t-65 -50t-88.5 -16.5q-43 0 -84.5 13t-73.5 36l-3 44h9q23 -23 48 -37.5t53.5 -21.5t61.5 -7q58 0 97.5 32.5
t39.5 87.5q0 32 -17.5 69t-55.5 75l-140 142q-46 46 -66.5 86.5t-20.5 80.5q0 57 45 93.5t127 36.5q69 0 130 -22zM337 926l-136 -149l-10 9l116 165z" />
    <glyph glyph-name="Scedilla" unicode="&#x15e;" horiz-adv-x="486" 
d="M390 649h-9q-16 16 -34.5 25t-41.5 13t-54 4q-67 0 -102 -27.5t-35 -72.5q0 -39 19.5 -74.5t58.5 -74.5l140 -142q46 -46 64 -83.5t18 -78.5q0 -50 -24.5 -83.5t-65 -50t-88.5 -16.5q-43 0 -84.5 13t-73.5 36l-3 44h9q23 -23 48 -37.5t53.5 -21.5t61.5 -7q58 0 97.5 32.5
t39.5 87.5q0 32 -17.5 69t-55.5 75l-140 142q-46 46 -66.5 86.5t-20.5 80.5q0 57 45 93.5t127 36.5q69 0 130 -22zM275 0l-34 -53l-5 2q25 4 45 -2t31.5 -19.5t11.5 -31.5q0 -28 -22.5 -47t-57 -28.5t-70.5 -9.5v20q49 1 87 18t38 48q0 20 -22.5 30.5t-65.5 3.5l-3 5l46 75z
" />
    <glyph glyph-name="Scedilla" unicode="&#x15f;" horiz-adv-x="486" 
d="M390 649h-9q-16 16 -34.5 25t-41.5 13t-54 4q-67 0 -102 -27.5t-35 -72.5q0 -39 19.5 -74.5t58.5 -74.5l140 -142q46 -46 64 -83.5t18 -78.5q0 -50 -24.5 -83.5t-65 -50t-88.5 -16.5q-43 0 -84.5 13t-73.5 36l-3 44h9q23 -23 48 -37.5t53.5 -21.5t61.5 -7q58 0 97.5 32.5
t39.5 87.5q0 32 -17.5 69t-55.5 75l-140 142q-46 46 -66.5 86.5t-20.5 80.5q0 57 45 93.5t127 36.5q69 0 130 -22zM275 0l-34 -53l-5 2q25 4 45 -2t31.5 -19.5t11.5 -31.5q0 -28 -22.5 -47t-57 -28.5t-70.5 -9.5v20q49 1 87 18t38 48q0 20 -22.5 30.5t-65.5 3.5l-3 5l46 75z
" />
    <glyph glyph-name="Scaron" unicode="&#x160;" horiz-adv-x="486" 
d="M390 649h-9q-16 16 -34.5 25t-41.5 13t-54 4q-67 0 -102 -27.5t-35 -72.5q0 -39 19.5 -74.5t58.5 -74.5l140 -142q46 -46 64 -83.5t18 -78.5q0 -50 -24.5 -83.5t-65 -50t-88.5 -16.5q-43 0 -84.5 13t-73.5 36l-3 44h9q23 -23 48 -37.5t53.5 -21.5t61.5 -7q58 0 97.5 32.5
t39.5 87.5q0 32 -17.5 69t-55.5 75l-140 142q-46 46 -66.5 86.5t-20.5 80.5q0 57 45 93.5t127 36.5q69 0 130 -22zM256 821l133 100l11 -14l-147 -128l-147 128l11 14z" />
    <glyph glyph-name="Scaron" unicode="&#x161;" horiz-adv-x="486" 
d="M390 649h-9q-16 16 -34.5 25t-41.5 13t-54 4q-67 0 -102 -27.5t-35 -72.5q0 -39 19.5 -74.5t58.5 -74.5l140 -142q46 -46 64 -83.5t18 -78.5q0 -50 -24.5 -83.5t-65 -50t-88.5 -16.5q-43 0 -84.5 13t-73.5 36l-3 44h9q23 -23 48 -37.5t53.5 -21.5t61.5 -7q58 0 97.5 32.5
t39.5 87.5q0 32 -17.5 69t-55.5 75l-140 142q-46 46 -66.5 86.5t-20.5 80.5q0 57 45 93.5t127 36.5q69 0 130 -22zM256 821l133 100l11 -14l-147 -128l-147 128l11 14z" />
    <glyph glyph-name="uni0162" unicode="&#x162;" horiz-adv-x="500" 
d="M500 700v-30h-4q-12 1 -23.5 2t-28 1h-39.5h-134l14 14v-582q0 -23 0.5 -39.5t0.5 -27t1 -19.5l1 -15v-4h-36v4l1 15q1 9 1 19.5t0.5 27t0.5 39.5v582l14 -14h-134h-39.5t-28 -1t-23.5 -2h-4v30h460zM288 0l-34 -53l-5 2q25 4 45 -2t31.5 -19.5t11.5 -31.5
q0 -28 -22.5 -47t-57 -28.5t-70.5 -9.5v20q49 1 87 18t38 48q0 20 -22.5 30.5t-65.5 3.5l-3 5l46 75z" />
    <glyph glyph-name="uni0162" unicode="&#x163;" horiz-adv-x="500" 
d="M500 700v-30h-4q-12 1 -23.5 2t-28 1h-39.5h-134l14 14v-582q0 -23 0.5 -39.5t0.5 -27t1 -19.5l1 -15v-4h-36v4l1 15q1 9 1 19.5t0.5 27t0.5 39.5v582l14 -14h-134h-39.5t-28 -1t-23.5 -2h-4v30h460zM288 0l-34 -53l-5 2q25 4 45 -2t31.5 -19.5t11.5 -31.5
q0 -28 -22.5 -47t-57 -28.5t-70.5 -9.5v20q49 1 87 18t38 48q0 20 -22.5 30.5t-65.5 3.5l-3 5l46 75z" />
    <glyph glyph-name="Tcaron" unicode="&#x164;" horiz-adv-x="500" 
d="M500 700v-30h-4q-12 1 -23.5 2t-28 1h-39.5h-134l14 14v-582q0 -23 0.5 -39.5t0.5 -27t1 -19.5l1 -15v-4h-36v4l1 15q1 9 1 19.5t0.5 27t0.5 39.5v582l14 -14h-134h-39.5t-28 -1t-23.5 -2h-4v30h460zM273 821l133 100l11 -14l-147 -128l-147 128l11 14z" />
    <glyph glyph-name="Tcaron" unicode="&#x165;" horiz-adv-x="500" 
d="M500 700v-30h-4q-12 1 -23.5 2t-28 1h-39.5h-134l14 14v-582q0 -23 0.5 -39.5t0.5 -27t1 -19.5l1 -15v-4h-36v4l1 15q1 9 1 19.5t0.5 27t0.5 39.5v582l14 -14h-134h-39.5t-28 -1t-23.5 -2h-4v30h460zM273 821l133 100l11 -14l-147 -128l-147 128l11 14z" />
    <glyph glyph-name="Utilde" unicode="&#x168;" horiz-adv-x="686" 
d="M135 700v-4q-1 -12 -2 -24.5t-1 -30.5v-46v-319q0 -128 57 -196.5t159 -68.5q63 0 109 30t71.5 87.5t25.5 137.5v329v46t-1 30.5t-2 24.5v4h35v-4q-1 -12 -1.5 -24.5t-0.5 -30.5v-46v-319q0 -93 -30.5 -158.5t-86 -99.5t-129.5 -34q-69 0 -122.5 33.5t-83.5 97t-30 151.5
v329v46t-0.5 30.5t-1.5 24.5v4h35zM393 801q-22 6 -49 17q-2 2 -8 4l-5 2q-31 13 -51.5 19.5t-39.5 6.5q-39 0 -64 -33l-9 7q17 29 38 42t47 13q19 0 40 -6t49 -18q4 -1 8 -3l8 -3q27 -12 48.5 -18.5t39.5 -6.5q17 0 31.5 7.5t32.5 25.5l9 -7q-21 -30 -41 -42.5t-44 -12.5
q-18 0 -40 6z" />
    <glyph glyph-name="Utilde" unicode="&#x169;" horiz-adv-x="686" 
d="M135 700v-4q-1 -12 -2 -24.5t-1 -30.5v-46v-319q0 -128 57 -196.5t159 -68.5q63 0 109 30t71.5 87.5t25.5 137.5v329v46t-1 30.5t-2 24.5v4h35v-4q-1 -12 -1.5 -24.5t-0.5 -30.5v-46v-319q0 -93 -30.5 -158.5t-86 -99.5t-129.5 -34q-69 0 -122.5 33.5t-83.5 97t-30 151.5
v329v46t-0.5 30.5t-1.5 24.5v4h35zM393 801q-22 6 -49 17q-2 2 -8 4l-5 2q-31 13 -51.5 19.5t-39.5 6.5q-39 0 -64 -33l-9 7q17 29 38 42t47 13q19 0 40 -6t49 -18q4 -1 8 -3l8 -3q27 -12 48.5 -18.5t39.5 -6.5q17 0 31.5 7.5t32.5 25.5l9 -7q-21 -30 -41 -42.5t-44 -12.5
q-18 0 -40 6z" />
    <glyph glyph-name="Umacron" unicode="&#x16a;" horiz-adv-x="686" 
d="M135 700v-4q-1 -12 -2 -24.5t-1 -30.5v-46v-319q0 -128 57 -196.5t159 -68.5q63 0 109 30t71.5 87.5t25.5 137.5v329v46t-1 30.5t-2 24.5v4h35v-4q-1 -12 -1.5 -24.5t-0.5 -30.5v-46v-319q0 -93 -30.5 -158.5t-86 -99.5t-129.5 -34q-69 0 -122.5 33.5t-83.5 97t-30 151.5
v329v46t-0.5 30.5t-1.5 24.5v4h35zM533 847v-27h-380v27h380z" />
    <glyph glyph-name="Umacron" unicode="&#x16b;" horiz-adv-x="686" 
d="M135 700v-4q-1 -12 -2 -24.5t-1 -30.5v-46v-319q0 -128 57 -196.5t159 -68.5q63 0 109 30t71.5 87.5t25.5 137.5v329v46t-1 30.5t-2 24.5v4h35v-4q-1 -12 -1.5 -24.5t-0.5 -30.5v-46v-319q0 -93 -30.5 -158.5t-86 -99.5t-129.5 -34q-69 0 -122.5 33.5t-83.5 97t-30 151.5
v329v46t-0.5 30.5t-1.5 24.5v4h35zM533 847v-27h-380v27h380z" />
    <glyph glyph-name="Uring" unicode="&#x16e;" horiz-adv-x="686" 
d="M135 700v-4q-1 -12 -2 -24.5t-1 -30.5v-46v-319q0 -128 57 -196.5t159 -68.5q63 0 109 30t71.5 87.5t25.5 137.5v329v46t-1 30.5t-2 24.5v4h35v-4q-1 -12 -1.5 -24.5t-0.5 -30.5v-46v-319q0 -93 -30.5 -158.5t-86 -99.5t-129.5 -34q-69 0 -122.5 33.5t-83.5 97t-30 151.5
v329v46t-0.5 30.5t-1.5 24.5v4h35zM285.5 926.5q22.5 22.5 57.5 22.5t57.5 -22.5t22.5 -57.5t-22.5 -57.5t-57.5 -22.5t-57.5 22.5t-22.5 57.5t22.5 57.5zM307 831q14 -15 36 -15t36 15t14 38t-14 38t-36 15t-36 -15t-14 -38t14 -38z" />
    <glyph glyph-name="Uring" unicode="&#x16f;" horiz-adv-x="686" 
d="M135 700v-4q-1 -12 -2 -24.5t-1 -30.5v-46v-319q0 -128 57 -196.5t159 -68.5q63 0 109 30t71.5 87.5t25.5 137.5v329v46t-1 30.5t-2 24.5v4h35v-4q-1 -12 -1.5 -24.5t-0.5 -30.5v-46v-319q0 -93 -30.5 -158.5t-86 -99.5t-129.5 -34q-69 0 -122.5 33.5t-83.5 97t-30 151.5
v329v46t-0.5 30.5t-1.5 24.5v4h35zM285.5 926.5q22.5 22.5 57.5 22.5t57.5 -22.5t22.5 -57.5t-22.5 -57.5t-57.5 -22.5t-57.5 22.5t-22.5 57.5t22.5 57.5zM307 831q14 -15 36 -15t36 15t14 38t-14 38t-36 15t-36 -15t-14 -38t14 -38z" />
    <glyph glyph-name="Uhungarumlaut" unicode="&#x170;" horiz-adv-x="686" 
d="M135 700v-4q-1 -12 -2 -24.5t-1 -30.5v-46v-319q0 -128 57 -196.5t159 -68.5q63 0 109 30t71.5 87.5t25.5 137.5v329v46t-1 30.5t-2 24.5v4h35v-4q-1 -12 -1.5 -24.5t-0.5 -30.5v-46v-319q0 -93 -30.5 -158.5t-86 -99.5t-129.5 -34q-69 0 -122.5 33.5t-83.5 97t-30 151.5
v329v46t-0.5 30.5t-1.5 24.5v4h35zM375 923l-91 -122l-14 7l68 133zM513 919l-131 -114l-12 10l111 131z" />
    <glyph glyph-name="Uhungarumlaut" unicode="&#x171;" horiz-adv-x="686" 
d="M135 700v-4q-1 -12 -2 -24.5t-1 -30.5v-46v-319q0 -128 57 -196.5t159 -68.5q63 0 109 30t71.5 87.5t25.5 137.5v329v46t-1 30.5t-2 24.5v4h35v-4q-1 -12 -1.5 -24.5t-0.5 -30.5v-46v-319q0 -93 -30.5 -158.5t-86 -99.5t-129.5 -34q-69 0 -122.5 33.5t-83.5 97t-30 151.5
v329v46t-0.5 30.5t-1.5 24.5v4h35zM375 923l-91 -122l-14 7l68 133zM513 919l-131 -114l-12 10l111 131z" />
    <glyph glyph-name="Uogonek" unicode="&#x172;" horiz-adv-x="686" 
d="M135 700v-4q-1 -12 -2 -24.5t-1 -30.5v-46v-319q0 -128 57 -196.5t159 -68.5q63 0 109 30t71.5 87.5t25.5 137.5v329v46t-1 30.5t-2 24.5v4h35v-4q-1 -12 -1.5 -24.5t-0.5 -30.5v-46v-319q0 -93 -30.5 -158.5t-86 -99.5t-129.5 -34q-69 0 -122.5 33.5t-83.5 97t-30 151.5
v329v46t-0.5 30.5t-1.5 24.5v4h35zM299 -158.5q-19 16.5 -19 42.5q0 36 36.5 72.5t108.5 61.5l11 -16q-66 -26 -99 -55.5t-33 -58.5q0 -19 13.5 -31t38.5 -12q33 0 72 19l7 -15q-43 -24 -84 -24q-33 0 -52 16.5z" />
    <glyph glyph-name="Uogonek" unicode="&#x173;" horiz-adv-x="686" 
d="M135 700v-4q-1 -12 -2 -24.5t-1 -30.5v-46v-319q0 -128 57 -196.5t159 -68.5q63 0 109 30t71.5 87.5t25.5 137.5v329v46t-1 30.5t-2 24.5v4h35v-4q-1 -12 -1.5 -24.5t-0.5 -30.5v-46v-319q0 -93 -30.5 -158.5t-86 -99.5t-129.5 -34q-69 0 -122.5 33.5t-83.5 97t-30 151.5
v329v46t-0.5 30.5t-1.5 24.5v4h35zM299 -158.5q-19 16.5 -19 42.5q0 36 36.5 72.5t108.5 61.5l11 -16q-66 -26 -99 -55.5t-33 -58.5q0 -19 13.5 -31t38.5 -12q33 0 72 19l7 -15q-43 -24 -84 -24q-33 0 -52 16.5z" />
    <glyph glyph-name="Wcircumflex" unicode="&#x174;" horiz-adv-x="999" 
d="M56 700v-4v-3q0 -9 2.5 -22.5t8.5 -32t14 -43.5l193 -573h-13l229 678h25l222 -678h-12l195 572q9 27 14 45.5t6.5 31t1.5 22.5v3v4h45v-4q-3 -9 -7 -18q-6 -15 -13.5 -35.5t-17.5 -48.5l-203 -594h-17h-16l-218 666h12l-225 -666h-16h-16l-201 595q-9 26 -15.5 45.5
t-11.5 32.5t-9 23v4h43zM508 867l-133 -100l-11 14l147 128l147 -128l-11 -14z" />
    <glyph glyph-name="Wcircumflex" unicode="&#x175;" horiz-adv-x="999" 
d="M56 700v-4v-3q0 -9 2.5 -22.5t8.5 -32t14 -43.5l193 -573h-13l229 678h25l222 -678h-12l195 572q9 27 14 45.5t6.5 31t1.5 22.5v3v4h45v-4q-3 -9 -7 -18q-6 -15 -13.5 -35.5t-17.5 -48.5l-203 -594h-17h-16l-218 666h12l-225 -666h-16h-16l-201 595q-9 26 -15.5 45.5
t-11.5 32.5t-9 23v4h43zM508 867l-133 -100l-11 14l147 128l147 -128l-11 -14z" />
    <glyph glyph-name="Ycircumflex" unicode="&#x176;" horiz-adv-x="619" 
d="M53 645.5q-15 20.5 -25 32t-17 18.5v4h48l1 -4q2 -6 6.5 -13t14.5 -21.5t27 -38.5l3 -5l203 -289h-7l205 289q18 25 28 40.5t14 23t5 12.5l1 2l1 4h47v-4q-8 -8 -17.5 -19.5t-25 -32t-36.5 -50.5l-220 -309l-219 309q-22 31 -37 51.5zM293.5 27.5q0.5 11.5 0.5 28v39.5
v222h30v-222v-39.5t0.5 -28t1.5 -23.5v-4h-34v4q1 12 1.5 23.5zM323 867l-133 -100l-11 14l147 128l147 -128l-11 -14z" />
    <glyph glyph-name="Ycircumflex" unicode="&#x177;" horiz-adv-x="619" 
d="M53 645.5q-15 20.5 -25 32t-17 18.5v4h48l1 -4q2 -6 6.5 -13t14.5 -21.5t27 -38.5l3 -5l203 -289h-7l205 289q18 25 28 40.5t14 23t5 12.5l1 2l1 4h47v-4q-8 -8 -17.5 -19.5t-25 -32t-36.5 -50.5l-220 -309l-219 309q-22 31 -37 51.5zM293.5 27.5q0.5 11.5 0.5 28v39.5
v222h30v-222v-39.5t0.5 -28t1.5 -23.5v-4h-34v4q1 12 1.5 23.5zM323 867l-133 -100l-11 14l147 128l147 -128l-11 -14z" />
    <glyph glyph-name="Zacute" unicode="&#x179;" horiz-adv-x="570" 
d="M519 700l-386 -683l-7 10h308q24 0 41 1t28 3t23 7h3v-38h-440l387 684l6 -11h-292q-24 0 -41 -1t-28 -3t-23 -7h-3v38h424zM389 926l-136 -149l-10 9l116 165z" />
    <glyph glyph-name="Zacute" unicode="&#x17a;" horiz-adv-x="570" 
d="M519 700l-386 -683l-7 10h308q24 0 41 1t28 3t23 7h3v-38h-440l387 684l6 -11h-292q-24 0 -41 -1t-28 -3t-23 -7h-3v38h424zM389 926l-136 -149l-10 9l116 165z" />
    <glyph glyph-name="Zdotaccent" unicode="&#x17b;" horiz-adv-x="570" 
d="M519 700l-386 -683l-7 10h308q24 0 41 1t28 3t23 7h3v-38h-440l387 684l6 -11h-292q-24 0 -41 -1t-28 -3t-23 -7h-3v38h424zM273 818q-13 13 -13 32q0 18 13 31.5t32 13.5t32 -13.5t13 -31.5q0 -19 -13 -32t-32 -13t-32 13z" />
    <glyph glyph-name="Zdotaccent" unicode="&#x17c;" horiz-adv-x="570" 
d="M519 700l-386 -683l-7 10h308q24 0 41 1t28 3t23 7h3v-38h-440l387 684l6 -11h-292q-24 0 -41 -1t-28 -3t-23 -7h-3v38h424zM273 818q-13 13 -13 32q0 18 13 31.5t32 13.5t32 -13.5t13 -31.5q0 -19 -13 -32t-32 -13t-32 13z" />
    <glyph glyph-name="Zcaron" unicode="&#x17d;" horiz-adv-x="570" 
d="M519 700l-386 -683l-7 10h308q24 0 41 1t28 3t23 7h3v-38h-440l387 684l6 -11h-292q-24 0 -41 -1t-28 -3t-23 -7h-3v38h424zM308 821l133 100l11 -14l-147 -128l-147 128l11 14z" />
    <glyph glyph-name="Zcaron" unicode="&#x17e;" horiz-adv-x="570" 
d="M519 700l-386 -683l-7 10h308q24 0 41 1t28 3t23 7h3v-38h-440l387 684l6 -11h-292q-24 0 -41 -1t-28 -3t-23 -7h-3v38h424zM308 821l133 100l11 -14l-147 -128l-147 128l11 14z" />
    <glyph glyph-name="uni01DE" unicode="&#x1de;" horiz-adv-x="600" 
d="M490 214v-27h-360v27h360zM311 700h12l223 -595q13 -36 22 -57.5t13 -30.5t6 -13v-4h-45v4v2q0 5 -1.5 14.5t-8 30.5t-19.5 55l-212 569h16l-212 -569q-13 -35 -19.5 -56t-8 -30t-1.5 -14v-2v-4h-43v4q2 4 6 13t13 30.5t22 57.5l224 595h13zM196 817q-12 12 -12 28
q0 17 12 28.5t28 11.5q17 0 28.5 -11.5t11.5 -28.5q0 -16 -11.5 -28t-28.5 -12q-16 0 -28 12zM365.5 816.5q-11.5 11.5 -11.5 28.5t12 28.5t28 11.5q17 0 28.5 -11.5t11.5 -28.5t-11.5 -28.5t-28.5 -11.5t-28.5 11.5zM497 968v-27h-380v27h380z" />
    <glyph glyph-name="uni01DE" unicode="&#x1df;" horiz-adv-x="600" 
d="M490 214v-27h-360v27h360zM311 700h12l223 -595q13 -36 22 -57.5t13 -30.5t6 -13v-4h-45v4v2q0 5 -1.5 14.5t-8 30.5t-19.5 55l-212 569h16l-212 -569q-13 -35 -19.5 -56t-8 -30t-1.5 -14v-2v-4h-43v4q2 4 6 13t13 30.5t22 57.5l224 595h13zM196 817q-12 12 -12 28
q0 17 12 28.5t28 11.5q17 0 28.5 -11.5t11.5 -28.5q0 -16 -11.5 -28t-28.5 -12q-16 0 -28 12zM365.5 816.5q-11.5 11.5 -11.5 28.5t12 28.5t28 11.5q17 0 28.5 -11.5t11.5 -28.5t-11.5 -28.5t-28.5 -11.5t-28.5 11.5zM497 968v-27h-380v27h380z" />
    <glyph glyph-name="uni0218" unicode="&#x218;" horiz-adv-x="486" 
d="M390 649h-9q-16 16 -34.5 25t-41.5 13t-54 4q-67 0 -102 -27.5t-35 -72.5q0 -39 19.5 -74.5t58.5 -74.5l140 -142q46 -46 64 -83.5t18 -78.5q0 -50 -24.5 -83.5t-65 -50t-88.5 -16.5q-43 0 -84.5 13t-73.5 36l-3 44h9q23 -23 48 -37.5t53.5 -21.5t61.5 -7q58 0 97.5 32.5
t39.5 87.5q0 32 -17.5 69t-55.5 75l-140 142q-46 46 -66.5 86.5t-20.5 80.5q0 57 45 93.5t127 36.5q69 0 130 -22zM222.999 -191.599q14.3994 18.3994 23.1992 32.7988q8.7998 14.4004 10 22.7998q1.2002 8.40039 -4.39941 9.2002q-11.2002 1.59961 -20.4004 9.59961
q-9.19922 8 -9.19922 20.7998q0 13.5996 9.59961 23.5996t23.1992 10q15.2002 0 24 -10.4004q8.7998 -10.3994 8.7998 -27.999q0 -16 -8 -35.1992q-8 -19.2002 -28.7998 -44.7998q-8.7998 -10.3994 -17.5996 -20.7998l-12.7998 8z" />
    <glyph glyph-name="uni0218" unicode="&#x219;" horiz-adv-x="486" 
d="M390 649h-9q-16 16 -34.5 25t-41.5 13t-54 4q-67 0 -102 -27.5t-35 -72.5q0 -39 19.5 -74.5t58.5 -74.5l140 -142q46 -46 64 -83.5t18 -78.5q0 -50 -24.5 -83.5t-65 -50t-88.5 -16.5q-43 0 -84.5 13t-73.5 36l-3 44h9q23 -23 48 -37.5t53.5 -21.5t61.5 -7q58 0 97.5 32.5
t39.5 87.5q0 32 -17.5 69t-55.5 75l-140 142q-46 46 -66.5 86.5t-20.5 80.5q0 57 45 93.5t127 36.5q69 0 130 -22zM222.999 -191.599q14.3994 18.3994 23.1992 32.7988q8.7998 14.4004 10 22.7998q1.2002 8.40039 -4.39941 9.2002q-11.2002 1.59961 -20.4004 9.59961
q-9.19922 8 -9.19922 20.7998q0 13.5996 9.59961 23.5996t23.1992 10q15.2002 0 24 -10.4004q8.7998 -10.3994 8.7998 -27.999q0 -16 -8 -35.1992q-8 -19.2002 -28.7998 -44.7998q-8.7998 -10.3994 -17.5996 -20.7998l-12.7998 8z" />
    <glyph glyph-name="uni021A" unicode="&#x21a;" horiz-adv-x="500" 
d="M500 700v-30h-4q-12 1 -23.5 2t-28 1h-39.5h-134l14 14v-582q0 -23 0.5 -39.5t0.5 -27t1 -19.5l1 -15v-4h-36v4l1 15q1 9 1 19.5t0.5 27t0.5 39.5v582l14 -14h-134h-39.5t-28 -1t-23.5 -2h-4v30h460zM238.999 -191.599q14.3994 18.3994 23.1992 32.7988
q8.7998 14.4004 10 22.7998q1.2002 8.40039 -4.39941 9.2002q-11.2002 1.59961 -20.4004 9.59961q-9.19922 8 -9.19922 20.7998q0 13.5996 9.59961 23.5996t23.1992 10q15.2002 0 24 -10.4004q8.7998 -10.3994 8.7998 -27.999q0 -16 -8 -35.1992
q-8 -19.2002 -28.7998 -44.7998q-8.7998 -10.3994 -17.5996 -20.7998l-12.7998 8z" />
    <glyph glyph-name="uni021A" unicode="&#x21b;" horiz-adv-x="500" 
d="M500 700v-30h-4q-12 1 -23.5 2t-28 1h-39.5h-134l14 14v-582q0 -23 0.5 -39.5t0.5 -27t1 -19.5l1 -15v-4h-36v4l1 15q1 9 1 19.5t0.5 27t0.5 39.5v582l14 -14h-134h-39.5t-28 -1t-23.5 -2h-4v30h460zM238.999 -191.599q14.3994 18.3994 23.1992 32.7988
q8.7998 14.4004 10 22.7998q1.2002 8.40039 -4.39941 9.2002q-11.2002 1.59961 -20.4004 9.59961q-9.19922 8 -9.19922 20.7998q0 13.5996 9.59961 23.5996t23.1992 10q15.2002 0 24 -10.4004q8.7998 -10.3994 8.7998 -27.999q0 -16 -8 -35.1992
q-8 -19.2002 -28.7998 -44.7998q-8.7998 -10.3994 -17.5996 -20.7998l-12.7998 8z" />
    <glyph glyph-name="uni0228" unicode="&#x228;" horiz-adv-x="545" 
d="M492 700v-30h-4q-12 1 -23.5 2t-28 1h-39.5h-256l16 16v-215l-12 13h269v-27h-269l12 12v-461l-16 16h293h39.5t28 1t23.5 2h4v-30h-404v4q1 12 1.5 24.5t0.5 30.5v46v490v46t-0.5 30.5t-1.5 24.5v4h367zM341 0l-34 -53l-5 2q25 4 45 -2t31.5 -19.5t11.5 -31.5
q0 -28 -22.5 -47t-57 -28.5t-70.5 -9.5v20q49 1 87 18t38 48q0 20 -22.5 30.5t-65.5 3.5l-3 5l46 75z" />
    <glyph glyph-name="uni0228" unicode="&#x229;" horiz-adv-x="545" 
d="M492 700v-30h-4q-12 1 -23.5 2t-28 1h-39.5h-256l16 16v-215l-12 13h269v-27h-269l12 12v-461l-16 16h293h39.5t28 1t23.5 2h4v-30h-404v4q1 12 1.5 24.5t0.5 30.5v46v490v46t-0.5 30.5t-1.5 24.5v4h367zM341 0l-34 -53l-5 2q25 4 45 -2t31.5 -19.5t11.5 -31.5
q0 -28 -22.5 -47t-57 -28.5t-70.5 -9.5v20q49 1 87 18t38 48q0 20 -22.5 30.5t-65.5 3.5l-3 5l46 75z" />
    <glyph glyph-name="uni02BC" unicode="&#x2bc;" horiz-adv-x="280" 
d="M190.64 738.039l-58.5303 -266.439l-17.7959 3.7793l24.291 271.654z" />
    <glyph glyph-name="gravecomb" unicode="&#x300;" 
d="M208 917l136 -149l10 9l-116 165z" />
    <glyph glyph-name="acutecomb" unicode="&#x301;" 
d="M384 926l-136 -149l-10 9l116 165z" />
    <glyph glyph-name="uni0302" unicode="&#x302;" 
d="M297 877l-133 -100l-11 14l147 128l147 -128l-11 -14z" />
    <glyph glyph-name="tildecomb" unicode="&#x303;" 
d="M350 811q-22 6 -49 17q-2 2 -8 4l-5 2q-31 13 -51.5 19.5t-39.5 6.5q-39 0 -64 -33l-9 7q17 29 38 42t47 13q19 0 40 -6t49 -18q4 -1 8 -3l8 -3q27 -12 48.5 -18.5t39.5 -6.5q17 0 31.5 7.5t32.5 25.5l9 -7q-21 -30 -41 -42.5t-44 -12.5q-18 0 -40 6z" />
    <glyph glyph-name="uni0304" unicode="&#x304;" 
d="M490 847v-27h-380v27h380z" />
    <glyph glyph-name="uni0306" unicode="&#x306;" 
d="M197 912v-1q0 -16 4 -30t11 -25.5t17 -21.5q14 -13 32.5 -20t38.5 -7q28 0 51.5 13.5t37.5 37.5t14 54h30q-2 -58 -38.5 -95t-94.5 -37t-94.5 37t-38.5 95h30z" />
    <glyph glyph-name="uni0307" unicode="&#x307;" 
d="M268 818q-13 13 -13 32q0 18 13 31.5t32 13.5t32 -13.5t13 -31.5q0 -19 -13 -32t-32 -13t-32 13z" />
    <glyph glyph-name="uni0308" unicode="&#x308;" 
d="M187 817q-12 12 -12 28q0 17 12 28.5t28 11.5q17 0 28.5 -11.5t11.5 -28.5q0 -16 -11.5 -28t-28.5 -12q-16 0 -28 12zM356.5 816.5q-11.5 11.5 -11.5 28.5t12 28.5t28 11.5q17 0 28.5 -11.5t11.5 -28.5t-11.5 -28.5t-28.5 -11.5t-28.5 11.5z" />
    <glyph glyph-name="uni030A" unicode="&#x30a;" 
d="M242.5 926.5q22.5 22.5 57.5 22.5t57.5 -22.5t22.5 -57.5t-22.5 -57.5t-57.5 -22.5t-57.5 22.5t-22.5 57.5t22.5 57.5zM264 831q14 -15 36 -15t36 15t14 38t-14 38t-36 15t-36 -15t-14 -38t14 -38z" />
    <glyph glyph-name="uni030B" unicode="&#x30b;" 
d="M332 923l-91 -122l-14 7l68 133zM470 919l-131 -114l-12 10l111 131z" />
    <glyph glyph-name="uni030C" unicode="&#x30c;" 
d="M303 821l133 100l11 -14l-147 -128l-147 128l11 14z" />
    <glyph glyph-name="uni0312" unicode="&#x312;" 
d="M180 701q-18 -23 -29 -41t-12.5 -28.5t5.5 -11.5q14 -2 25.5 -12t11.5 -26q0 -17 -12 -29.5t-29 -12.5q-19 0 -30 13t-11 35q0 20 10 44t36 56l22 26l16 -10z" />
    <glyph glyph-name="uni0326" unicode="&#x326;" 
d="M109.999 -191.599q14.3994 18.3994 23.1992 32.7988q8.7998 14.4004 10 22.7998q1.2002 8.40039 -4.39941 9.2002q-11.2002 1.59961 -20.4004 9.59961q-9.19922 8 -9.19922 20.7998q0 13.5996 9.59961 23.5996t23.1992 10q15.2002 0 24 -10.4004
q8.7998 -10.3994 8.7998 -27.999q0 -16 -8 -35.1992q-8 -19.2002 -28.7998 -44.7998q-8.7998 -10.3994 -17.5996 -20.7998l-12.7998 8z" />
    <glyph glyph-name="uni0327" unicode="&#x327;" 
d="M274 0l-34 -53l-5 2q25 4 45 -2t31.5 -19.5t11.5 -31.5q0 -28 -22.5 -47t-57 -28.5t-70.5 -9.5v20q49 1 87 18t38 48q0 20 -22.5 30.5t-65.5 3.5l-3 5l46 75z" />
    <glyph glyph-name="uni0328" unicode="&#x328;" 
d="M163 -160.5q-19 16.5 -19 42.5q0 36 36.5 72.5t108.5 61.5l11 -16q-66 -26 -99 -55.5t-33 -58.5q0 -19 13.5 -31t38.5 -12q33 0 72 19l7 -15q-43 -24 -84 -24q-33 0 -52 16.5z" />
    <glyph glyph-name="uni0401" unicode="&#x401;" horiz-adv-x="545" 
d="M492 700v-30h-4q-12 1 -23.5 2t-28 1h-39.5h-256l16 16v-215l-12 13h269v-27h-269l12 12v-461l-16 16h293h39.5t28 1t23.5 2h4v-30h-404v4q1 12 1.5 24.5t0.5 30.5v46v490v46t-0.5 30.5t-1.5 24.5v4h367zM192 817q-12 12 -12 28q0 17 12 28.5t28 11.5q17 0 28.5 -11.5
t11.5 -28.5q0 -16 -11.5 -28t-28.5 -12q-16 0 -28 12zM361.5 816.5q-11.5 11.5 -11.5 28.5t12 28.5t28 11.5q17 0 28.5 -11.5t11.5 -28.5t-11.5 -28.5t-28.5 -11.5t-28.5 11.5z" />
    <glyph glyph-name="uni0401" unicode="&#x451;" horiz-adv-x="545" 
d="M492 700v-30h-4q-12 1 -23.5 2t-28 1h-39.5h-256l16 16v-215l-12 13h269v-27h-269l12 12v-461l-16 16h293h39.5t28 1t23.5 2h4v-30h-404v4q1 12 1.5 24.5t0.5 30.5v46v490v46t-0.5 30.5t-1.5 24.5v4h367zM192 817q-12 12 -12 28q0 17 12 28.5t28 11.5q17 0 28.5 -11.5
t11.5 -28.5q0 -16 -11.5 -28t-28.5 -12q-16 0 -28 12zM361.5 816.5q-11.5 11.5 -11.5 28.5t12 28.5t28 11.5q17 0 28.5 -11.5t11.5 -28.5t-11.5 -28.5t-28.5 -11.5t-28.5 11.5z" />
    <glyph glyph-name="uni0402" unicode="&#x402;" horiz-adv-x="752" 
d="M375.5 376q-50.5 -27 -92.5 -84l-15 16q46 65 101 93.5t119 28.5q67 0 114 -32t70.5 -85t23.5 -116q0 -67 -26.5 -130t-78 -108t-123.5 -56l-4 12q65 14 110.5 56t68.5 100t23 119q0 57 -21 105.5t-62.5 78t-101.5 29.5q-55 0 -105.5 -27zM500 700v-30h-4q-12 1 -23.5 2
t-28 1h-39.5h-134l14 14v-582q0 -23 0.5 -39.5t0.5 -27t1 -19.5l1 -15v-4h-36v4l1 15q1 9 1 19.5t0.5 27t0.5 39.5v582l14 -14h-134h-39.5t-28 -1t-23.5 -2h-4v30h460z" />
    <glyph glyph-name="uni0402" unicode="&#x452;" horiz-adv-x="752" 
d="M375.5 376q-50.5 -27 -92.5 -84l-15 16q46 65 101 93.5t119 28.5q67 0 114 -32t70.5 -85t23.5 -116q0 -67 -26.5 -130t-78 -108t-123.5 -56l-4 12q65 14 110.5 56t68.5 100t23 119q0 57 -21 105.5t-62.5 78t-101.5 29.5q-55 0 -105.5 -27zM500 700v-30h-4q-12 1 -23.5 2
t-28 1h-39.5h-134l14 14v-582q0 -23 0.5 -39.5t0.5 -27t1 -19.5l1 -15v-4h-36v4l1 15q1 9 1 19.5t0.5 27t0.5 39.5v582l14 -14h-134h-39.5t-28 -1t-23.5 -2h-4v30h460z" />
    <glyph glyph-name="uni0403" unicode="&#x403;" horiz-adv-x="480" 
d="M450 700v-30h-4q-12 1 -23.5 2t-28 1h-39.5h-214l16 16v-584v-46t1 -30.5t2 -24.5v-4h-35v4q1 12 1.5 24.5t0.5 30.5v46v490v46t-0.5 30.5t-1.5 24.5v4h325zM384 926l-136 -149l-10 9l116 165z" />
    <glyph glyph-name="uni0403" unicode="&#x453;" horiz-adv-x="480" 
d="M450 700v-30h-4q-12 1 -23.5 2t-28 1h-39.5h-214l16 16v-584v-46t1 -30.5t2 -24.5v-4h-35v4q1 12 1.5 24.5t0.5 30.5v46v490v46t-0.5 30.5t-1.5 24.5v4h325zM384 926l-136 -149l-10 9l116 165z" />
    <glyph glyph-name="uni0404" unicode="&#x404;" horiz-adv-x="727" 
d="M503 378q-19 6 -37 6q-16 0 -32.5 -4t-37.5 -13q-14 -6 -20.5 -9t-20.5 -9q-53 -24 -91 -24q-25 0 -50 10t-52 30l5 9q46 -25 80 -25q17 0 37 5.5t46 16.5q14 7 28 13q26 12 48.5 18t42.5 6q49 0 102 -40l-5 -9q-24 13 -43 19zM677 559h-12q-16 38 -57.5 70t-97.5 50
t-112 18q-93 0 -170.5 -45.5t-122.5 -124t-45 -173.5q0 -94 45 -172.5t122.5 -124.5t170.5 -46q60 0 114 18t94 49.5t59 70.5h12v-50q-53 -53 -125 -84t-154 -31q-101 0 -185.5 49.5t-133.5 134.5t-49 186t49 186t133.5 134.5t185.5 49.5q82 0 154 -31t125 -84v-50z" />
    <glyph glyph-name="uni0404" unicode="&#x454;" horiz-adv-x="727" 
d="M503 378q-19 6 -37 6q-16 0 -32.5 -4t-37.5 -13q-14 -6 -20.5 -9t-20.5 -9q-53 -24 -91 -24q-25 0 -50 10t-52 30l5 9q46 -25 80 -25q17 0 37 5.5t46 16.5q14 7 28 13q26 12 48.5 18t42.5 6q49 0 102 -40l-5 -9q-24 13 -43 19zM677 559h-12q-16 38 -57.5 70t-97.5 50
t-112 18q-93 0 -170.5 -45.5t-122.5 -124t-45 -173.5q0 -94 45 -172.5t122.5 -124.5t170.5 -46q60 0 114 18t94 49.5t59 70.5h12v-50q-53 -53 -125 -84t-154 -31q-101 0 -185.5 49.5t-133.5 134.5t-49 186t49 186t133.5 134.5t185.5 49.5q82 0 154 -31t125 -84v-50z" />
    <glyph glyph-name="uni0405" unicode="&#x405;" horiz-adv-x="486" 
d="M390 649h-9q-16 16 -34.5 25t-41.5 13t-54 4q-67 0 -102 -27.5t-35 -72.5q0 -39 19.5 -74.5t58.5 -74.5l140 -142q46 -46 64 -83.5t18 -78.5q0 -50 -24.5 -83.5t-65 -50t-88.5 -16.5q-43 0 -84.5 13t-73.5 36l-3 44h9q23 -23 48 -37.5t53.5 -21.5t61.5 -7q58 0 97.5 32.5
t39.5 87.5q0 32 -17.5 69t-55.5 75l-140 142q-46 46 -66.5 86.5t-20.5 80.5q0 57 45 93.5t127 36.5q69 0 130 -22z" />
    <glyph glyph-name="uni0405" unicode="&#x455;" horiz-adv-x="486" 
d="M390 649h-9q-16 16 -34.5 25t-41.5 13t-54 4q-67 0 -102 -27.5t-35 -72.5q0 -39 19.5 -74.5t58.5 -74.5l140 -142q46 -46 64 -83.5t18 -78.5q0 -50 -24.5 -83.5t-65 -50t-88.5 -16.5q-43 0 -84.5 13t-73.5 36l-3 44h9q23 -23 48 -37.5t53.5 -21.5t61.5 -7q58 0 97.5 32.5
t39.5 87.5q0 32 -17.5 69t-55.5 75l-140 142q-46 46 -66.5 86.5t-20.5 80.5q0 57 45 93.5t127 36.5q69 0 130 -22z" />
    <glyph glyph-name="uni0406" unicode="&#x406;" horiz-adv-x="285" 
d="M159 700v-4q-1 -12 -1.5 -24.5t-0.5 -30.5v-46v-490v-46t0.5 -30.5t1.5 -24.5v-4h-34v4q1 12 1.5 24.5t0.5 30.5v46v490v46t-0.5 30.5t-1.5 24.5v4h34z" />
    <glyph glyph-name="uni0406" unicode="&#x456;" horiz-adv-x="285" 
d="M159 700v-4q-1 -12 -1.5 -24.5t-0.5 -30.5v-46v-490v-46t0.5 -30.5t1.5 -24.5v-4h-34v4q1 12 1.5 24.5t0.5 30.5v46v490v46t-0.5 30.5t-1.5 24.5v4h34z" />
    <glyph glyph-name="uni0407" unicode="&#x407;" horiz-adv-x="285" 
d="M159 700v-4q-1 -12 -1.5 -24.5t-0.5 -30.5v-46v-490v-46t0.5 -30.5t1.5 -24.5v-4h-34v4q1 12 1.5 24.5t0.5 30.5v46v490v46t-0.5 30.5t-1.5 24.5v4h34zM30 817q-12 12 -12 28q0 17 12 28.5t28 11.5q17 0 28.5 -11.5t11.5 -28.5q0 -16 -11.5 -28t-28.5 -12q-16 0 -28 12z
M199.5 816.5q-11.5 11.5 -11.5 28.5t12 28.5t28 11.5q17 0 28.5 -11.5t11.5 -28.5t-11.5 -28.5t-28.5 -11.5t-28.5 11.5z" />
    <glyph glyph-name="uni0407" unicode="&#x457;" horiz-adv-x="285" 
d="M159 700v-4q-1 -12 -1.5 -24.5t-0.5 -30.5v-46v-490v-46t0.5 -30.5t1.5 -24.5v-4h-34v4q1 12 1.5 24.5t0.5 30.5v46v490v46t-0.5 30.5t-1.5 24.5v4h34zM30 817q-12 12 -12 28q0 17 12 28.5t28 11.5q17 0 28.5 -11.5t11.5 -28.5q0 -16 -11.5 -28t-28.5 -12q-16 0 -28 12z
M199.5 816.5q-11.5 11.5 -11.5 28.5t12 28.5t28 11.5q17 0 28.5 -11.5t11.5 -28.5t-11.5 -28.5t-28.5 -11.5t-28.5 11.5z" />
    <glyph glyph-name="uni0408" unicode="&#x408;" horiz-adv-x="305" 
d="M179 700v-4q-1 -12 -1.5 -23.5t-0.5 -28v-39.5v-484q0 -81 -24 -142t-73.5 -99.5t-125.5 -50.5l-4 12q75 16 118.5 55.5t61 97.5t17.5 139v472v39.5t-1 28t-2 23.5v4h35z" />
    <glyph glyph-name="uni0408" unicode="&#x458;" horiz-adv-x="305" 
d="M179 700v-4q-1 -12 -1.5 -23.5t-0.5 -28v-39.5v-484q0 -81 -24 -142t-73.5 -99.5t-125.5 -50.5l-4 12q75 16 118.5 55.5t61 97.5t17.5 139v472v39.5t-1 28t-2 23.5v4h35z" />
    <glyph glyph-name="uni0409" unicode="&#x409;" horiz-adv-x="921" 
d="M490 700v-4q-1 -12 -2 -24.5t-1 -30.5v-46v-584l-16 16h136q88 0 147 24t88 69t29 108q0 50 -23 90t-63.5 62t-92.5 22q-15 0 -34.5 -2.5t-34.5 -6.5l-5 19q15 6 37.5 9.5t43.5 3.5q58 0 104 -25t72 -70t26 -102q0 -81 -38.5 -132t-103 -73.5t-144.5 -22.5h-161v4
q1 12 2 24.5t1 30.5v46v584l16 -16h-276l15 16l-102 -597q-8 -49 -22.5 -72.5t-42.5 -23.5q-17 0 -35 8v33h4q5 -3 10.5 -5t11 -3t11.5 -1q14 0 22.5 16.5t14.5 52.5l85 498q4 27 6.5 45t2.5 30t-1 23v3v4h313z" />
    <glyph glyph-name="uni0409" unicode="&#x459;" horiz-adv-x="921" 
d="M490 700v-4q-1 -12 -2 -24.5t-1 -30.5v-46v-584l-16 16h136q88 0 147 24t88 69t29 108q0 50 -23 90t-63.5 62t-92.5 22q-15 0 -34.5 -2.5t-34.5 -6.5l-5 19q15 6 37.5 9.5t43.5 3.5q58 0 104 -25t72 -70t26 -102q0 -81 -38.5 -132t-103 -73.5t-144.5 -22.5h-161v4
q1 12 2 24.5t1 30.5v46v584l16 -16h-276l15 16l-102 -597q-8 -49 -22.5 -72.5t-42.5 -23.5q-17 0 -35 8v33h4q5 -3 10.5 -5t11 -3t11.5 -1q14 0 22.5 16.5t14.5 52.5l85 498q4 27 6.5 45t2.5 30t-1 23v3v4h313z" />
    <glyph glyph-name="uni040A" unicode="&#x40a;" horiz-adv-x="1006" 
d="M553 487v-27h-406v27h406zM160 700v-4q-1 -12 -2 -24.5t-1 -30.5v-46v-490v-46t1 -30.5t2 -24.5v-4h-35v4q1 12 1.5 24.5t0.5 30.5v46v490v46t-0.5 30.5t-1.5 24.5v4h35zM575 700v-4q-1 -12 -2 -24.5t-1 -30.5v-46v-584l-16 16h136q88 0 147 24t88 69t29 108q0 50 -23 90
t-63.5 62t-92.5 22q-15 0 -34.5 -2.5t-34.5 -6.5l-5 19q15 6 37.5 9.5t43.5 3.5q58 0 104 -25t72 -70t26 -102q0 -81 -38.5 -132t-103 -73.5t-144.5 -22.5h-160v4q1 12 1.5 24.5t0.5 30.5v46v490v46t-0.5 30.5t-1.5 24.5v4h35z" />
    <glyph glyph-name="uni040A" unicode="&#x45a;" horiz-adv-x="1006" 
d="M553 487v-27h-406v27h406zM160 700v-4q-1 -12 -2 -24.5t-1 -30.5v-46v-490v-46t1 -30.5t2 -24.5v-4h-35v4q1 12 1.5 24.5t0.5 30.5v46v490v46t-0.5 30.5t-1.5 24.5v4h35zM575 700v-4q-1 -12 -2 -24.5t-1 -30.5v-46v-584l-16 16h136q88 0 147 24t88 69t29 108q0 50 -23 90
t-63.5 62t-92.5 22q-15 0 -34.5 -2.5t-34.5 -6.5l-5 19q15 6 37.5 9.5t43.5 3.5q58 0 104 -25t72 -70t26 -102q0 -81 -38.5 -132t-103 -73.5t-144.5 -22.5h-160v4q1 12 1.5 24.5t0.5 30.5v46v490v46t-0.5 30.5t-1.5 24.5v4h35z" />
    <glyph glyph-name="uni040B" unicode="&#x40b;" horiz-adv-x="757" 
d="M369 401.5q55 28.5 119 28.5q65 0 110.5 -25.5t69 -69.5t23.5 -99v-131v-46t0.5 -30.5t1.5 -24.5v-4h-35v4q1 12 2 24.5t1 30.5v46v123q0 76 -46.5 125.5t-133.5 49.5q-55 0 -105.5 -27t-92.5 -84l-15 16q46 65 101 93.5zM500 700v-30h-4q-12 1 -23.5 2t-28 1h-39.5h-134
l14 14v-582q0 -23 0.5 -39.5t0.5 -27t1 -19.5l1 -15v-4h-36v4l1 15q1 9 1 19.5t0.5 27t0.5 39.5v582l14 -14h-134h-39.5t-28 -1t-23.5 -2h-4v30h460z" />
    <glyph glyph-name="uni040B" unicode="&#x45b;" horiz-adv-x="757" 
d="M369 401.5q55 28.5 119 28.5q65 0 110.5 -25.5t69 -69.5t23.5 -99v-131v-46t0.5 -30.5t1.5 -24.5v-4h-35v4q1 12 2 24.5t1 30.5v46v123q0 76 -46.5 125.5t-133.5 49.5q-55 0 -105.5 -27t-92.5 -84l-15 16q46 65 101 93.5zM500 700v-30h-4q-12 1 -23.5 2t-28 1h-39.5h-134
l14 14v-582q0 -23 0.5 -39.5t0.5 -27t1 -19.5l1 -15v-4h-36v4l1 15q1 9 1 19.5t0.5 27t0.5 39.5v582l14 -14h-134h-39.5t-28 -1t-23.5 -2h-4v30h460z" />
    <glyph glyph-name="uni040C" unicode="&#x40c;" horiz-adv-x="629" 
d="M160 700v-4q-1 -12 -2 -24.5t-1 -30.5v-46v-248h-18l263 248q28 26 48.5 46.5t31 33t14.5 21.5l2 4h57v-3q-10 -7 -20.5 -16t-23.5 -21t-28 -27l-41 -38l-141 -132v15l253 -386q34 -51 47.5 -68.5t22.5 -23.5l-2 -8q-17 -2 -31 7.5t-27 26t-34 49.5l-249 380h12
l-155 -145l19 34v-239v-46t1 -30.5t2 -24.5v-4h-35v4q1 12 1.5 24.5t0.5 30.5v46v490v46t-0.5 30.5t-1.5 24.5v4h35zM439 926l-136 -149l-10 9l116 165z" />
    <glyph glyph-name="uni040C" unicode="&#x45c;" horiz-adv-x="629" 
d="M160 700v-4q-1 -12 -2 -24.5t-1 -30.5v-46v-248h-18l263 248q28 26 48.5 46.5t31 33t14.5 21.5l2 4h57v-3q-10 -7 -20.5 -16t-23.5 -21t-28 -27l-41 -38l-141 -132v15l253 -386q34 -51 47.5 -68.5t22.5 -23.5l-2 -8q-17 -2 -31 7.5t-27 26t-34 49.5l-249 380h12
l-155 -145l19 34v-239v-46t1 -30.5t2 -24.5v-4h-35v4q1 12 1.5 24.5t0.5 30.5v46v490v46t-0.5 30.5t-1.5 24.5v4h35zM439 926l-136 -149l-10 9l116 165z" />
    <glyph glyph-name="uni040E" unicode="&#x40e;" horiz-adv-x="677" 
d="M110 700v-2q2 -7 8.5 -18.5t16.5 -25.5t22 -31q7 -9 14 -19l257 -356l-17 -28l-278 385q-8 12 -17 23q-15 22 -28 39.5t-25 28.5v4h47zM231 202.5q-14 4.5 -29 4.5q-39 0 -69 -27.5t-30 -69.5q0 -40 29 -69t69 -29q35 0 70 34.5t79 105.5l275 452q1 1 1 2q13 22 23.5 39
t17.5 31t8 22v2h44v-4q-9 -9 -17 -20.5t-17 -26.5t-21 -34l-6 -10l-268 -439q-44 -72 -74 -109.5t-58 -54.5t-64 -17q-50 0 -85.5 35.5t-35.5 85.5q0 35 16.5 62.5t44.5 43t60 15.5q19 0 37.5 -5.5t35.5 -17.5l-9 -15q-13 9 -27 13.5zM289 912v-1q0 -16 4 -30t11 -25.5
t17 -21.5q14 -13 32.5 -20t38.5 -7q28 0 51.5 13.5t37.5 37.5t14 54h30q-2 -58 -38.5 -95t-94.5 -37t-94.5 37t-38.5 95h30z" />
    <glyph glyph-name="uni040E" unicode="&#x45e;" horiz-adv-x="677" 
d="M110 700v-2q2 -7 8.5 -18.5t16.5 -25.5t22 -31q7 -9 14 -19l257 -356l-17 -28l-278 385q-8 12 -17 23q-15 22 -28 39.5t-25 28.5v4h47zM231 202.5q-14 4.5 -29 4.5q-39 0 -69 -27.5t-30 -69.5q0 -40 29 -69t69 -29q35 0 70 34.5t79 105.5l275 452q1 1 1 2q13 22 23.5 39
t17.5 31t8 22v2h44v-4q-9 -9 -17 -20.5t-17 -26.5t-21 -34l-6 -10l-268 -439q-44 -72 -74 -109.5t-58 -54.5t-64 -17q-50 0 -85.5 35.5t-35.5 85.5q0 35 16.5 62.5t44.5 43t60 15.5q19 0 37.5 -5.5t35.5 -17.5l-9 -15q-13 9 -27 13.5zM289 912v-1q0 -16 4 -30t11 -25.5
t17 -21.5q14 -13 32.5 -20t38.5 -7q28 0 51.5 13.5t37.5 37.5t14 54h30q-2 -58 -38.5 -95t-94.5 -37t-94.5 37t-38.5 95h30z" />
    <glyph glyph-name="uni040F" unicode="&#x40f;" horiz-adv-x="700" 
d="M126.5 28.5q0.5 12.5 0.5 30.5v46v490v46t-0.5 30.5t-1.5 24.5v4h35v-4q-1 -12 -2 -24.5t-1 -30.5v-46v-584l-16 16h418l-16 -16v584v46t-1 30.5t-2 24.5v4h35v-4q-1 -12 -1.5 -24.5t-0.5 -30.5v-46v-490v-46t0.5 -30.5t1.5 -24.5v-4h-450v4q1 12 1.5 24.5zM335 0h30
v-110h-30v110z" />
    <glyph glyph-name="uni040F" unicode="&#x45f;" horiz-adv-x="700" 
d="M126.5 28.5q0.5 12.5 0.5 30.5v46v490v46t-0.5 30.5t-1.5 24.5v4h35v-4q-1 -12 -2 -24.5t-1 -30.5v-46v-584l-16 16h418l-16 -16v584v46t-1 30.5t-2 24.5v4h35v-4q-1 -12 -1.5 -24.5t-0.5 -30.5v-46v-490v-46t0.5 -30.5t1.5 -24.5v-4h-450v4q1 12 1.5 24.5zM335 0h30
v-110h-30v110z" />
    <glyph glyph-name="uni0410" unicode="&#x410;" horiz-adv-x="600" 
d="M490 214v-27h-360v27h360zM311 700h12l223 -595q13 -36 22 -57.5t13 -30.5t6 -13v-4h-45v4v2q0 5 -1.5 14.5t-8 30.5t-19.5 55l-212 569h16l-212 -569q-13 -35 -19.5 -56t-8 -30t-1.5 -14v-2v-4h-43v4q2 4 6 13t13 30.5t22 57.5l224 595h13z" />
    <glyph glyph-name="uni0410" unicode="&#x430;" horiz-adv-x="600" 
d="M490 214v-27h-360v27h360zM311 700h12l223 -595q13 -36 22 -57.5t13 -30.5t6 -13v-4h-45v4v2q0 5 -1.5 14.5t-8 30.5t-19.5 55l-212 569h16l-212 -569q-13 -35 -19.5 -56t-8 -30t-1.5 -14v-2v-4h-43v4q2 4 6 13t13 30.5t22 57.5l224 595h13z" />
    <glyph glyph-name="uni0411" unicode="&#x411;" horiz-adv-x="630" 
d="M510 700v-30h-4q-12 1 -23.5 2t-28 1h-39.5h-274l16 16v-678l-16 16h136q88 0 147 24t88 69t29 108q0 56 -24.5 95.5t-66.5 59.5t-93 20q-17 0 -34.5 -1.5t-30.5 -4.5l-5 17q19 7 39 10t41 3q56 0 102 -22.5t74 -67.5t28 -109q0 -81 -38.5 -132t-103 -73.5t-144.5 -22.5
h-160v4q1 12 1.5 24.5t0.5 30.5v46v490v46t-0.5 30.5t-1.5 24.5v4h385z" />
    <glyph glyph-name="uni0411" unicode="&#x431;" horiz-adv-x="630" 
d="M510 700v-30h-4q-12 1 -23.5 2t-28 1h-39.5h-274l16 16v-678l-16 16h136q88 0 147 24t88 69t29 108q0 56 -24.5 95.5t-66.5 59.5t-93 20q-17 0 -34.5 -1.5t-30.5 -4.5l-5 17q19 7 39 10t41 3q56 0 102 -22.5t74 -67.5t28 -109q0 -81 -38.5 -132t-103 -73.5t-144.5 -22.5
h-160v4q1 12 1.5 24.5t0.5 30.5v46v490v46t-0.5 30.5t-1.5 24.5v4h385z" />
    <glyph glyph-name="uni0412" unicode="&#x412;" horiz-adv-x="645" 
d="M157 11l-16 16h175q121 0 186.5 48.5t65.5 138.5q0 92 -68 140t-199 52h-1v16h1q59 10 101 42.5t42 85.5q0 59 -49 91t-136 32h-118l16 16v-678zM416 661q58 -39 58 -106q0 -57 -39 -95.5t-106 -46.5v12q84 0 144.5 -25t92.5 -72.5t32 -113.5q0 -67 -33.5 -115t-97 -73.5
t-151.5 -25.5h-191v4q1 12 1.5 24.5t0.5 30.5v46v490v46t-0.5 30.5t-1.5 24.5v4h134q99 0 157 -39z" />
    <glyph glyph-name="uni0412" unicode="&#x432;" horiz-adv-x="645" 
d="M157 11l-16 16h175q121 0 186.5 48.5t65.5 138.5q0 92 -68 140t-199 52h-1v16h1q59 10 101 42.5t42 85.5q0 59 -49 91t-136 32h-118l16 16v-678zM416 661q58 -39 58 -106q0 -57 -39 -95.5t-106 -46.5v12q84 0 144.5 -25t92.5 -72.5t32 -113.5q0 -67 -33.5 -115t-97 -73.5
t-151.5 -25.5h-191v4q1 12 1.5 24.5t0.5 30.5v46v490v46t-0.5 30.5t-1.5 24.5v4h134q99 0 157 -39z" />
    <glyph glyph-name="uni0413" unicode="&#x413;" horiz-adv-x="480" 
d="M450 700v-30h-4q-12 1 -23.5 2t-28 1h-39.5h-214l16 16v-584v-46t1 -30.5t2 -24.5v-4h-35v4q1 12 1.5 24.5t0.5 30.5v46v490v46t-0.5 30.5t-1.5 24.5v4h325z" />
    <glyph glyph-name="uni0413" unicode="&#x433;" horiz-adv-x="480" 
d="M450 700v-30h-4q-12 1 -23.5 2t-28 1h-39.5h-214l16 16v-584v-46t1 -30.5t2 -24.5v-4h-35v4q1 12 1.5 24.5t0.5 30.5v46v490v46t-0.5 30.5t-1.5 24.5v4h325z" />
    <glyph glyph-name="uni0414" unicode="&#x414;" horiz-adv-x="675" 
d="M339 700h12l258 -688h-33l-247 663h16l-247 -663h-31l259 688h13zM693 27v-155h-14q-6 69 -12.5 92.5t-22.5 29.5t-63 6h-486q-47 0 -63 -6t-22.5 -29.5t-12.5 -92.5h-14v155h710z" />
    <glyph glyph-name="uni0414" unicode="&#x434;" horiz-adv-x="675" 
d="M339 700h12l258 -688h-33l-247 663h16l-247 -663h-31l259 688h13zM693 27v-155h-14q-6 69 -12.5 92.5t-22.5 29.5t-63 6h-486q-47 0 -63 -6t-22.5 -29.5t-12.5 -92.5h-14v155h710z" />
    <glyph glyph-name="uni0415" unicode="&#x415;" horiz-adv-x="545" 
d="M492 700v-30h-4q-12 1 -23.5 2t-28 1h-39.5h-256l16 16v-215l-12 13h269v-27h-269l12 12v-461l-16 16h293h39.5t28 1t23.5 2h4v-30h-404v4q1 12 1.5 24.5t0.5 30.5v46v490v46t-0.5 30.5t-1.5 24.5v4h367z" />
    <glyph glyph-name="uni0415" unicode="&#x435;" horiz-adv-x="545" 
d="M492 700v-30h-4q-12 1 -23.5 2t-28 1h-39.5h-256l16 16v-215l-12 13h269v-27h-269l12 12v-461l-16 16h293h39.5t28 1t23.5 2h4v-30h-404v4q1 12 1.5 24.5t0.5 30.5v46v490v46t-0.5 30.5t-1.5 24.5v4h367z" />
    <glyph glyph-name="uni0416" unicode="&#x416;" horiz-adv-x="972" 
d="M130 700l2 -4q4 -8 13 -19.5t20 -23t24 -23.5l300 -283h-18v248v46t-1 30.5t-2 24.5v4h36v-4q-1 -12 -2 -24.5t-1 -30.5v-46v-248h-18l300 283q13 12 24 23.5t20 23t13 19.5l2 4h57v-3q-12 -8 -23.5 -17.5t-24 -21.5t-26.5 -26q-5 -5 -8 -7.5t-8 -7.5l-164 -154v15
l253 -386q34 -51 47.5 -68.5t22.5 -23.5l-2 -8q-17 -2 -31 7.5t-27 26t-34 49.5l-249 380h12l-155 -145l19 34v-239v-46t1 -30.5t2 -24.5v-4h-36v4q1 12 2 24.5t1 30.5v46v239l19 -34l-155 145h12l-249 -380q-21 -33 -34 -49.5t-27 -26t-31 -7.5l-2 8q10 7 24 24.5t46 67.5
l253 386v-15l-164 154q-5 5 -8 7.5t-8 7.5q-14 14 -26.5 26t-24 21.5t-23.5 17.5v3h57z" />
    <glyph glyph-name="uni0416" unicode="&#x436;" horiz-adv-x="972" 
d="M130 700l2 -4q4 -8 13 -19.5t20 -23t24 -23.5l300 -283h-18v248v46t-1 30.5t-2 24.5v4h36v-4q-1 -12 -2 -24.5t-1 -30.5v-46v-248h-18l300 283q13 12 24 23.5t20 23t13 19.5l2 4h57v-3q-12 -8 -23.5 -17.5t-24 -21.5t-26.5 -26q-5 -5 -8 -7.5t-8 -7.5l-164 -154v15
l253 -386q34 -51 47.5 -68.5t22.5 -23.5l-2 -8q-17 -2 -31 7.5t-27 26t-34 49.5l-249 380h12l-155 -145l19 34v-239v-46t1 -30.5t2 -24.5v-4h-36v4q1 12 2 24.5t1 30.5v46v239l19 -34l-155 145h12l-249 -380q-21 -33 -34 -49.5t-27 -26t-31 -7.5l-2 8q10 7 24 24.5t46 67.5
l253 386v-15l-164 154q-5 5 -8 7.5t-8 7.5q-14 14 -26.5 26t-24 21.5t-23.5 17.5v3h57z" />
    <glyph glyph-name="uni0417" unicode="&#x417;" horiz-adv-x="548" 
d="M160 696.5q47 19.5 99 19.5q46 0 86 -15.5t64 -46.5t24 -75q0 -53 -40 -96.5t-108 -52.5v12q59 5 114 -18.5t89.5 -73t34.5 -117.5q0 -65 -36 -121t-98.5 -88.5t-138.5 -32.5q-83 0 -145.5 37t-94.5 94v74h12q8 -48 40 -89t81.5 -65t106.5 -24q68 0 123.5 29t87.5 78.5
t32 107.5q0 89 -63 138.5t-175 49.5q-19 0 -65 -2v24q100 0 156.5 36t56.5 100q0 51 -42 80.5t-96 29.5q-41 0 -75.5 -12t-59.5 -37t-35 -63h-12v64q30 36 77 55.5z" />
    <glyph glyph-name="uni0417" unicode="&#x437;" horiz-adv-x="548" 
d="M160 696.5q47 19.5 99 19.5q46 0 86 -15.5t64 -46.5t24 -75q0 -53 -40 -96.5t-108 -52.5v12q59 5 114 -18.5t89.5 -73t34.5 -117.5q0 -65 -36 -121t-98.5 -88.5t-138.5 -32.5q-83 0 -145.5 37t-94.5 94v74h12q8 -48 40 -89t81.5 -65t106.5 -24q68 0 123.5 29t87.5 78.5
t32 107.5q0 89 -63 138.5t-175 49.5q-19 0 -65 -2v24q100 0 156.5 36t56.5 100q0 51 -42 80.5t-96 29.5q-41 0 -75.5 -12t-59.5 -37t-35 -63h-12v64q30 36 77 55.5z" />
    <glyph glyph-name="uni0418" unicode="&#x418;" horiz-adv-x="730" 
d="M160 700v-4q-1 -12 -2 -24.5t-1 -30.5v-46v-549h-19l455 656h12q-1 -13 -1.5 -25.5t-0.5 -29.5v-40v-502v-46t0.5 -30.5t1.5 -24.5v-4h-35v4q1 12 2 24.5t1 30.5v46v549h19l-455 -656h-12q1 13 1.5 25.5t0.5 29.5v40v502v46t-0.5 30.5t-1.5 24.5v4h35z" />
    <glyph glyph-name="uni0418" unicode="&#x438;" horiz-adv-x="730" 
d="M160 700v-4q-1 -12 -2 -24.5t-1 -30.5v-46v-549h-19l455 656h12q-1 -13 -1.5 -25.5t-0.5 -29.5v-40v-502v-46t0.5 -30.5t1.5 -24.5v-4h-35v4q1 12 2 24.5t1 30.5v46v549h19l-455 -656h-12q1 13 1.5 25.5t0.5 29.5v40v502v46t-0.5 30.5t-1.5 24.5v4h35z" />
    <glyph glyph-name="uni0419" unicode="&#x419;" horiz-adv-x="730" 
d="M160 700v-4q-1 -12 -2 -24.5t-1 -30.5v-46v-549h-19l455 656h12q-1 -13 -1.5 -25.5t-0.5 -29.5v-40v-502v-46t0.5 -30.5t1.5 -24.5v-4h-35v4q1 12 2 24.5t1 30.5v46v549h19l-455 -656h-12q1 13 1.5 25.5t0.5 29.5v40v502v46t-0.5 30.5t-1.5 24.5v4h35zM262 912v-1
q0 -16 4 -30t11 -25.5t17 -21.5q14 -13 32.5 -20t38.5 -7q28 0 51.5 13.5t37.5 37.5t14 54h30q-2 -58 -38.5 -95t-94.5 -37t-94.5 37t-38.5 95h30z" />
    <glyph glyph-name="uni0419" unicode="&#x439;" horiz-adv-x="730" 
d="M160 700v-4q-1 -12 -2 -24.5t-1 -30.5v-46v-549h-19l455 656h12q-1 -13 -1.5 -25.5t-0.5 -29.5v-40v-502v-46t0.5 -30.5t1.5 -24.5v-4h-35v4q1 12 2 24.5t1 30.5v46v549h19l-455 -656h-12q1 13 1.5 25.5t0.5 29.5v40v502v46t-0.5 30.5t-1.5 24.5v4h35zM262 912v-1
q0 -16 4 -30t11 -25.5t17 -21.5q14 -13 32.5 -20t38.5 -7q28 0 51.5 13.5t37.5 37.5t14 54h30q-2 -58 -38.5 -95t-94.5 -37t-94.5 37t-38.5 95h30z" />
    <glyph glyph-name="uni041A" unicode="&#x41a;" horiz-adv-x="629" 
d="M160 700v-4q-1 -12 -2 -24.5t-1 -30.5v-46v-248h-18l263 248q28 26 48.5 46.5t31 33t14.5 21.5l2 4h57v-3q-10 -7 -20.5 -16t-23.5 -21t-28 -27l-41 -38l-141 -132v15l253 -386q34 -51 47.5 -68.5t22.5 -23.5l-2 -8q-17 -2 -31 7.5t-27 26t-34 49.5l-249 380h12
l-155 -145l19 34v-239v-46t1 -30.5t2 -24.5v-4h-35v4q1 12 1.5 24.5t0.5 30.5v46v490v46t-0.5 30.5t-1.5 24.5v4h35z" />
    <glyph glyph-name="uni041A" unicode="&#x43a;" horiz-adv-x="629" 
d="M160 700v-4q-1 -12 -2 -24.5t-1 -30.5v-46v-248h-18l263 248q28 26 48.5 46.5t31 33t14.5 21.5l2 4h57v-3q-10 -7 -20.5 -16t-23.5 -21t-28 -27l-41 -38l-141 -132v15l253 -386q34 -51 47.5 -68.5t22.5 -23.5l-2 -8q-17 -2 -31 7.5t-27 26t-34 49.5l-249 380h12
l-155 -145l19 34v-239v-46t1 -30.5t2 -24.5v-4h-35v4q1 12 1.5 24.5t0.5 30.5v46v490v46t-0.5 30.5t-1.5 24.5v4h35z" />
    <glyph glyph-name="uni041B" unicode="&#x41b;" horiz-adv-x="580" 
d="M507 0v4v1q0 5 -1 14t-7 30t-19 56l-205 570h17l-205 -570q-12 -34 -18 -55t-7 -30t-1 -14v-2v-4h-43v4q2 4 6 13t12.5 30.5t21.5 57.5l215 595h12.5h12.5l214 -595q13 -36 21.5 -57.5t12.5 -30.5t6 -13v-4h-45z" />
    <glyph glyph-name="uni041B" unicode="&#x43b;" horiz-adv-x="580" 
d="M507 0v4v1q0 5 -1 14t-7 30t-19 56l-205 570h17l-205 -570q-12 -34 -18 -55t-7 -30t-1 -14v-2v-4h-43v4q2 4 6 13t12.5 30.5t21.5 57.5l215 595h12.5h12.5l214 -595q13 -36 21.5 -57.5t12.5 -30.5t6 -13v-4h-45z" />
    <glyph glyph-name="uni041C" unicode="&#x41c;" horiz-adv-x="840" 
d="M145 700l285 -516h-17l282 516h20q-1 -14 -1.5 -27t-0.5 -31.5v-46.5v-490v-46t0.5 -30.5t1.5 -24.5v-4h-35v4q1 12 2 24.5t1 30.5v46v553h20l-275 -503h-16l-275 498h17v-548v-46t1 -30.5t2 -24.5v-4h-32v4q1 12 1.5 24.5t0.5 30.5v46v490v3v44t-0.5 31t-1.5 27h20z" />
    <glyph glyph-name="uni041C" unicode="&#x43c;" horiz-adv-x="840" 
d="M145 700l285 -516h-17l282 516h20q-1 -14 -1.5 -27t-0.5 -31.5v-46.5v-490v-46t0.5 -30.5t1.5 -24.5v-4h-35v4q1 12 2 24.5t1 30.5v46v553h20l-275 -503h-16l-275 498h17v-548v-46t1 -30.5t2 -24.5v-4h-32v4q1 12 1.5 24.5t0.5 30.5v46v490v3v44t-0.5 31t-1.5 27h20z" />
    <glyph glyph-name="uni041D" unicode="&#x41d;" horiz-adv-x="700" 
d="M575 700v-4q-1 -12 -1.5 -24.5t-0.5 -30.5v-46v-490v-46t0.5 -30.5t1.5 -24.5v-4h-35v4q1 12 2 24.5t1 30.5v46v490v46t-1 30.5t-2 24.5v4h35zM553 487v-27h-406v27h406zM160 700v-4q-1 -12 -2 -24.5t-1 -30.5v-46v-490v-46t1 -30.5t2 -24.5v-4h-35v4q1 12 1.5 24.5
t0.5 30.5v46v490v46t-0.5 30.5t-1.5 24.5v4h35z" />
    <glyph glyph-name="uni041D" unicode="&#x43d;" horiz-adv-x="700" 
d="M575 700v-4q-1 -12 -1.5 -24.5t-0.5 -30.5v-46v-490v-46t0.5 -30.5t1.5 -24.5v-4h-35v4q1 12 2 24.5t1 30.5v46v490v46t-1 30.5t-2 24.5v4h35zM553 487v-27h-406v27h406zM160 700v-4q-1 -12 -2 -24.5t-1 -30.5v-46v-490v-46t1 -30.5t2 -24.5v-4h-35v4q1 12 1.5 24.5
t0.5 30.5v46v490v46t-0.5 30.5t-1.5 24.5v4h35z" />
    <glyph glyph-name="uni041E" unicode="&#x41e;" horiz-adv-x="800" 
d="M214 33.5q-85 49.5 -134.5 134.5t-49.5 186t49.5 186t134.5 134.5t186 49.5t186 -49.5t134.5 -134.5t49.5 -186t-49.5 -186t-134.5 -134.5t-186 -49.5t-186 49.5zM571 57q78 46 123.5 124.5t45.5 172.5q0 95 -45.5 173.5t-123.5 124t-172 45.5t-171.5 -45.5t-122.5 -124
t-45 -173.5q0 -94 45 -172.5t122.5 -124.5t171.5 -46t172 46z" />
    <glyph glyph-name="uni041E" unicode="&#x43e;" horiz-adv-x="800" 
d="M214 33.5q-85 49.5 -134.5 134.5t-49.5 186t49.5 186t134.5 134.5t186 49.5t186 -49.5t134.5 -134.5t49.5 -186t-49.5 -186t-134.5 -134.5t-186 -49.5t-186 49.5zM571 57q78 46 123.5 124.5t45.5 172.5q0 95 -45.5 173.5t-123.5 124t-172 45.5t-171.5 -45.5t-122.5 -124
t-45 -173.5q0 -94 45 -172.5t122.5 -124.5t171.5 -46t172 46z" />
    <glyph glyph-name="uni041F" unicode="&#x41f;" horiz-adv-x="700" 
d="M575 700v-4q-1 -12 -1.5 -24.5t-0.5 -30.5v-46v-490v-46t0.5 -30.5t1.5 -24.5v-4h-35v4q1 12 2 24.5t1 30.5v46v584l16 -16h-418l16 16v-584v-46t1 -30.5t2 -24.5v-4h-35v4q1 12 1.5 24.5t0.5 30.5v46v490v46t-0.5 30.5t-1.5 24.5v4h450z" />
    <glyph glyph-name="uni041F" unicode="&#x43f;" horiz-adv-x="700" 
d="M575 700v-4q-1 -12 -1.5 -24.5t-0.5 -30.5v-46v-490v-46t0.5 -30.5t1.5 -24.5v-4h-35v4q1 12 2 24.5t1 30.5v46v584l16 -16h-418l16 16v-584v-46t1 -30.5t2 -24.5v-4h-35v4q1 12 1.5 24.5t0.5 30.5v46v490v46t-0.5 30.5t-1.5 24.5v4h450z" />
    <glyph glyph-name="uni0420" unicode="&#x420;" horiz-adv-x="591" 
d="M490.5 646q80.5 -54 80.5 -174q0 -63 -27.5 -108t-74 -68t-102.5 -23q-21 0 -40.5 3.5t-38.5 11.5l5 19q18 -5 36.5 -7.5t37.5 -2.5q47 0 87 21t63.5 60.5t23.5 93.5q0 63 -29 108t-88 69t-147 24h-136l16 16v-584v-46t1 -30.5t2 -24.5v-4h-35v4q1 12 1.5 24.5t0.5 30.5
v46v490v46t-0.5 30.5t-1.5 24.5v4h160q125 0 205.5 -54z" />
    <glyph glyph-name="uni0420" unicode="&#x440;" horiz-adv-x="591" 
d="M490.5 646q80.5 -54 80.5 -174q0 -63 -27.5 -108t-74 -68t-102.5 -23q-21 0 -40.5 3.5t-38.5 11.5l5 19q18 -5 36.5 -7.5t37.5 -2.5q47 0 87 21t63.5 60.5t23.5 93.5q0 63 -29 108t-88 69t-147 24h-136l16 16v-584v-46t1 -30.5t2 -24.5v-4h-35v4q1 12 1.5 24.5t0.5 30.5
v46v490v46t-0.5 30.5t-1.5 24.5v4h160q125 0 205.5 -54z" />
    <glyph glyph-name="uni0421" unicode="&#x421;" horiz-adv-x="727" 
d="M677 559h-12q-16 38 -57.5 70t-97.5 50t-112 18q-93 0 -170.5 -45.5t-122.5 -124t-45 -173.5q0 -94 45 -172.5t122.5 -124.5t170.5 -46q60 0 114 18t94 49.5t59 70.5h12v-50q-53 -53 -125 -84t-154 -31q-101 0 -185.5 49.5t-133.5 134.5t-49 186t49 186t133.5 134.5
t185.5 49.5q82 0 154 -31t125 -84v-50z" />
    <glyph glyph-name="uni0421" unicode="&#x441;" horiz-adv-x="727" 
d="M677 559h-12q-16 38 -57.5 70t-97.5 50t-112 18q-93 0 -170.5 -45.5t-122.5 -124t-45 -173.5q0 -94 45 -172.5t122.5 -124.5t170.5 -46q60 0 114 18t94 49.5t59 70.5h12v-50q-53 -53 -125 -84t-154 -31q-101 0 -185.5 49.5t-133.5 134.5t-49 186t49 186t133.5 134.5
t185.5 49.5q82 0 154 -31t125 -84v-50z" />
    <glyph glyph-name="uni0422" unicode="&#x422;" horiz-adv-x="500" 
d="M500 700v-30h-4q-12 1 -23.5 2t-28 1h-39.5h-134l14 14v-582q0 -23 0.5 -39.5t0.5 -27t1 -19.5l1 -15v-4h-36v4l1 15q1 9 1 19.5t0.5 27t0.5 39.5v582l14 -14h-134h-39.5t-28 -1t-23.5 -2h-4v30h460z" />
    <glyph glyph-name="uni0422" unicode="&#x442;" horiz-adv-x="500" 
d="M500 700v-30h-4q-12 1 -23.5 2t-28 1h-39.5h-134l14 14v-582q0 -23 0.5 -39.5t0.5 -27t1 -19.5l1 -15v-4h-36v4l1 15q1 9 1 19.5t0.5 27t0.5 39.5v582l14 -14h-134h-39.5t-28 -1t-23.5 -2h-4v30h460z" />
    <glyph glyph-name="uni0423" unicode="&#x423;" horiz-adv-x="677" 
d="M110 700v-2q2 -7 8.5 -18.5t16.5 -25.5t22 -31q7 -9 14 -19l257 -356l-17 -28l-278 385q-8 12 -17 23q-15 22 -28 39.5t-25 28.5v4h47zM231 202.5q-14 4.5 -29 4.5q-39 0 -69 -27.5t-30 -69.5q0 -40 29 -69t69 -29q35 0 70 34.5t79 105.5l275 452q1 1 1 2q13 22 23.5 39
t17.5 31t8 22v2h44v-4q-9 -9 -17 -20.5t-17 -26.5t-21 -34l-6 -10l-268 -439q-44 -72 -74 -109.5t-58 -54.5t-64 -17q-50 0 -85.5 35.5t-35.5 85.5q0 35 16.5 62.5t44.5 43t60 15.5q19 0 37.5 -5.5t35.5 -17.5l-9 -15q-13 9 -27 13.5z" />
    <glyph glyph-name="uni0423" unicode="&#x443;" horiz-adv-x="677" 
d="M110 700v-2q2 -7 8.5 -18.5t16.5 -25.5t22 -31q7 -9 14 -19l257 -356l-17 -28l-278 385q-8 12 -17 23q-15 22 -28 39.5t-25 28.5v4h47zM231 202.5q-14 4.5 -29 4.5q-39 0 -69 -27.5t-30 -69.5q0 -40 29 -69t69 -29q35 0 70 34.5t79 105.5l275 452q1 1 1 2q13 22 23.5 39
t17.5 31t8 22v2h44v-4q-9 -9 -17 -20.5t-17 -26.5t-21 -34l-6 -10l-268 -439q-44 -72 -74 -109.5t-58 -54.5t-64 -17q-50 0 -85.5 35.5t-35.5 85.5q0 35 16.5 62.5t44.5 43t60 15.5q19 0 37.5 -5.5t35.5 -17.5l-9 -15q-13 9 -27 13.5z" />
    <glyph glyph-name="uni0424" unicode="&#x424;" horiz-adv-x="866" 
d="M429 764h8.5h12.5v-4q0 -5 -1 -8q0 -10 -0.5 -21t-0.5 -26v-36v-574v-36t0.5 -26t0.5 -21q1 -3 1 -8v-4h-12.5h-8.5h-13v4v4t1 4q0 10 0.5 21t0.5 26v36v574v36t-0.5 26t-0.5 21q-1 2 -1 4v4v4h13zM66.5 545.5q51.5 72.5 144 113.5t212.5 41v-27q-111 0 -197 -37.5
t-133.5 -104t-47.5 -151.5t47.5 -151.5t133.5 -104t197 -37.5v-27q-120 0 -212.5 41t-144 113.5t-51.5 165.5t51.5 165.5zM799.5 214.5q-51.5 -72.5 -144 -113.5t-212.5 -41v27q111 0 197 37.5t133.5 104t47.5 151.5t-47.5 151.5t-133.5 104t-197 37.5v27q120 0 212.5 -41
t144 -113.5t51.5 -165.5t-51.5 -165.5z" />
    <glyph glyph-name="uni0424" unicode="&#x444;" horiz-adv-x="866" 
d="M429 764h8.5h12.5v-4q0 -5 -1 -8q0 -10 -0.5 -21t-0.5 -26v-36v-574v-36t0.5 -26t0.5 -21q1 -3 1 -8v-4h-12.5h-8.5h-13v4v4t1 4q0 10 0.5 21t0.5 26v36v574v36t-0.5 26t-0.5 21q-1 2 -1 4v4v4h13zM66.5 545.5q51.5 72.5 144 113.5t212.5 41v-27q-111 0 -197 -37.5
t-133.5 -104t-47.5 -151.5t47.5 -151.5t133.5 -104t197 -37.5v-27q-120 0 -212.5 41t-144 113.5t-51.5 165.5t51.5 165.5zM799.5 214.5q-51.5 -72.5 -144 -113.5t-212.5 -41v27q111 0 197 37.5t133.5 104t47.5 151.5t-47.5 151.5t-133.5 104t-197 37.5v27q120 0 212.5 -41
t144 -113.5t51.5 -165.5t-51.5 -165.5z" />
    <glyph glyph-name="uni0425" unicode="&#x425;" horiz-adv-x="643" 
d="M118 700l1 -4l1 -2q2 -6 6.5 -13.5t15.5 -23t29 -40.5l378 -511q23 -31 38.5 -51.5t25.5 -32t17 -18.5v-4h-48l-1 4l-1 2q-2 6 -6 13.5t-15 22.5t-29 40l-379 512q-23 31 -38.5 51.5t-25.5 32t-17 18.5v4h48zM589 693q-7 -8 -16.5 -19t-24.5 -31t-37 -49l-171 -233
l-15 25l171 232q17 23 27.5 38.5t14 23t4.5 13.5q1 2 1 3l1 4h48v-4zM36 7q7 8 16.5 19.5t24.5 31t36 48.5l208 284l15 -25l-207 -283q-17 -23 -27.5 -38.5t-14 -23t-4.5 -13.5l-1 -3l-1 -4h-48v4z" />
    <glyph glyph-name="uni0425" unicode="&#x445;" horiz-adv-x="643" 
d="M118 700l1 -4l1 -2q2 -6 6.5 -13.5t15.5 -23t29 -40.5l378 -511q23 -31 38.5 -51.5t25.5 -32t17 -18.5v-4h-48l-1 4l-1 2q-2 6 -6 13.5t-15 22.5t-29 40l-379 512q-23 31 -38.5 51.5t-25.5 32t-17 18.5v4h48zM589 693q-7 -8 -16.5 -19t-24.5 -31t-37 -49l-171 -233
l-15 25l171 232q17 23 27.5 38.5t14 23t4.5 13.5q1 2 1 3l1 4h48v-4zM36 7q7 8 16.5 19.5t24.5 31t36 48.5l208 284l15 -25l-207 -283q-17 -23 -27.5 -38.5t-14 -23t-4.5 -13.5l-1 -3l-1 -4h-48v4z" />
    <glyph glyph-name="uni0426" unicode="&#x426;" horiz-adv-x="700" 
d="M160 700v-4q-1 -12 -2 -24.5t-1 -30.5v-46v-584l-16 16h418l-17 -16v584v46t-1 30.5t-2 24.5v4h35v-4q-1 -12 -1.5 -24.5t-0.5 -30.5v-46v-595h-447v4q1 12 1.5 24.5t0.5 30.5v46v490v46t-0.5 30.5t-1.5 24.5v4h35zM608.5 -35.5q-6.5 23.5 -22.5 29.5t-63 6v27h112v-155
h-14q-6 69 -12.5 92.5z" />
    <glyph glyph-name="uni0426" unicode="&#x446;" horiz-adv-x="700" 
d="M160 700v-4q-1 -12 -2 -24.5t-1 -30.5v-46v-584l-16 16h418l-17 -16v584v46t-1 30.5t-2 24.5v4h35v-4q-1 -12 -1.5 -24.5t-0.5 -30.5v-46v-595h-447v4q1 12 1.5 24.5t0.5 30.5v46v490v46t-0.5 30.5t-1.5 24.5v4h35zM608.5 -35.5q-6.5 23.5 -22.5 29.5t-63 6v27h112v-155
h-14q-6 69 -12.5 92.5z" />
    <glyph glyph-name="uni0427" unicode="&#x427;" horiz-adv-x="650" 
d="M120 700v-4q-1 -12 -2 -24.5t-1 -30.5v-46v-103q0 -76 46.5 -125.5t133.5 -49.5q55 0 105.5 27t92.5 84l15 -16q-46 -65 -101 -93.5t-119 -28.5q-65 0 -110.5 25.5t-69 69.5t-23.5 99v111v46t-0.5 30.5t-1.5 24.5v4h35zM492 28.5q1 12.5 1 30.5v46v490v46t-1 30.5
t-2 24.5v4h35v-4q-1 -12 -1.5 -24.5t-0.5 -30.5v-46v-490v-46t0.5 -30.5t1.5 -24.5v-4h-35v4q1 12 2 24.5z" />
    <glyph glyph-name="uni0427" unicode="&#x447;" horiz-adv-x="650" 
d="M120 700v-4q-1 -12 -2 -24.5t-1 -30.5v-46v-103q0 -76 46.5 -125.5t133.5 -49.5q55 0 105.5 27t92.5 84l15 -16q-46 -65 -101 -93.5t-119 -28.5q-65 0 -110.5 25.5t-69 69.5t-23.5 99v111v46t-0.5 30.5t-1.5 24.5v4h35zM492 28.5q1 12.5 1 30.5v46v490v46t-1 30.5
t-2 24.5v4h35v-4q-1 -12 -1.5 -24.5t-0.5 -30.5v-46v-490v-46t0.5 -30.5t1.5 -24.5v-4h-35v4q1 12 2 24.5z" />
    <glyph glyph-name="uni0428" unicode="&#x428;" horiz-adv-x="903" 
d="M160 700v-4q-1 -12 -2 -24.5t-1 -30.5v-46v-584l-16 16h309l-12 -12v580v46t-0.5 30.5t-1.5 24.5v4h34v-4q-1 -12 -1.5 -24.5t-0.5 -30.5v-46v-580l-12 12h306l-16 -16v584v46t-1 30.5t-2 24.5v4h35v-4q-1 -12 -1.5 -24.5t-0.5 -30.5v-46v-490v-46t0.5 -30.5t1.5 -24.5
v-4h-653v4q1 12 1.5 24.5t0.5 30.5v46v490v46t-0.5 30.5t-1.5 24.5v4h35z" />
    <glyph glyph-name="uni0428" unicode="&#x448;" horiz-adv-x="903" 
d="M160 700v-4q-1 -12 -2 -24.5t-1 -30.5v-46v-584l-16 16h309l-12 -12v580v46t-0.5 30.5t-1.5 24.5v4h34v-4q-1 -12 -1.5 -24.5t-0.5 -30.5v-46v-580l-12 12h306l-16 -16v584v46t-1 30.5t-2 24.5v4h35v-4q-1 -12 -1.5 -24.5t-0.5 -30.5v-46v-490v-46t0.5 -30.5t1.5 -24.5
v-4h-653v4q1 12 1.5 24.5t0.5 30.5v46v490v46t-0.5 30.5t-1.5 24.5v4h35z" />
    <glyph glyph-name="uni0429" unicode="&#x429;" horiz-adv-x="903" 
d="M160 700v-4q-1 -12 -2 -24.5t-1 -30.5v-46v-584l-16 16h308l-12 -12v580v46t-0.5 30.5t-1.5 24.5v4h34v-4q-1 -12 -1.5 -24.5t-0.5 -30.5v-46v-580l-12 12h307l-16 -16v584v46t-1 30.5t-2 24.5v4h35v-4q-1 -12 -1.5 -24.5t-0.5 -30.5v-46v-595h-651v4q1 12 1.5 24.5
t0.5 30.5v46v490v46t-0.5 30.5t-1.5 24.5v4h35zM812.5 -35.5q-6.5 23.5 -22.5 29.5t-63 6v27h112v-155h-14q-6 69 -12.5 92.5z" />
    <glyph glyph-name="uni0429" unicode="&#x449;" horiz-adv-x="903" 
d="M160 700v-4q-1 -12 -2 -24.5t-1 -30.5v-46v-584l-16 16h308l-12 -12v580v46t-0.5 30.5t-1.5 24.5v4h34v-4q-1 -12 -1.5 -24.5t-0.5 -30.5v-46v-580l-12 12h307l-16 -16v584v46t-1 30.5t-2 24.5v4h35v-4q-1 -12 -1.5 -24.5t-0.5 -30.5v-46v-595h-651v4q1 12 1.5 24.5
t0.5 30.5v46v490v46t-0.5 30.5t-1.5 24.5v4h35zM812.5 -35.5q-6.5 23.5 -22.5 29.5t-63 6v27h112v-155h-14q-6 69 -12.5 92.5z" />
    <glyph glyph-name="uni042A" unicode="&#x42a;" horiz-adv-x="665" 
d="M235 700v-4q-1 -12 -2 -23.5t-1 -28v-39.5v-594l-16 16h135q88 0 147 24t88 69t29 108q0 50 -23 90t-63.5 62t-92.5 22q-15 0 -34.5 -2.5t-34.5 -6.5l-5 19q15 6 37.5 9.5t43.5 3.5q58 0 104 -25t72 -70t26 -102q0 -81 -38.5 -132t-103 -73.5t-144.5 -22.5h-159v4
q1 12 1.5 23.5t0.5 28v39.5v594l16 -16h-148h-39.5t-28 -1t-23.5 -2h-4v30h260z" />
    <glyph glyph-name="uni042A" unicode="&#x44a;" horiz-adv-x="665" 
d="M235 700v-4q-1 -12 -2 -23.5t-1 -28v-39.5v-594l-16 16h135q88 0 147 24t88 69t29 108q0 50 -23 90t-63.5 62t-92.5 22q-15 0 -34.5 -2.5t-34.5 -6.5l-5 19q15 6 37.5 9.5t43.5 3.5q58 0 104 -25t72 -70t26 -102q0 -81 -38.5 -132t-103 -73.5t-144.5 -22.5h-159v4
q1 12 1.5 23.5t0.5 28v39.5v594l16 -16h-148h-39.5t-28 -1t-23.5 -2h-4v30h260z" />
    <glyph glyph-name="uni042B" unicode="&#x42b;" horiz-adv-x="896" 
d="M770 700v-4q-1 -12 -1.5 -23.5t-0.5 -28v-39.5v-510v-39.5t0.5 -28t1.5 -23.5v-4h-34v4q1 12 1.5 23.5t0.5 28v39.5v510v39.5t-0.5 28t-1.5 23.5v4h34zM160 700v-4q-1 -12 -2 -23.5t-1 -28v-39.5v-594l-16 16h136q88 0 147 24t88 69t29 108q0 50 -23 90t-63.5 62
t-92.5 22q-15 0 -34.5 -2.5t-34.5 -6.5l-5 19q15 6 37.5 9.5t43.5 3.5q58 0 104 -25t72 -70t26 -102q0 -81 -38.5 -132t-103 -73.5t-144.5 -22.5h-160v4q1 12 1.5 23.5t0.5 28v39.5v510v39.5t-0.5 28t-1.5 23.5v4h35z" />
    <glyph glyph-name="uni042B" unicode="&#x44b;" horiz-adv-x="896" 
d="M770 700v-4q-1 -12 -1.5 -23.5t-0.5 -28v-39.5v-510v-39.5t0.5 -28t1.5 -23.5v-4h-34v4q1 12 1.5 23.5t0.5 28v39.5v510v39.5t-0.5 28t-1.5 23.5v4h34zM160 700v-4q-1 -12 -2 -23.5t-1 -28v-39.5v-594l-16 16h136q88 0 147 24t88 69t29 108q0 50 -23 90t-63.5 62
t-92.5 22q-15 0 -34.5 -2.5t-34.5 -6.5l-5 19q15 6 37.5 9.5t43.5 3.5q58 0 104 -25t72 -70t26 -102q0 -81 -38.5 -132t-103 -73.5t-144.5 -22.5h-160v4q1 12 1.5 23.5t0.5 28v39.5v510v39.5t-0.5 28t-1.5 23.5v4h35z" />
    <glyph glyph-name="uni042C" unicode="&#x42c;" horiz-adv-x="591" 
d="M160 700v-4q-1 -12 -2 -24.5t-1 -30.5v-46v-584l-16 16h136q88 0 147 24t88 69t29 108q0 50 -23 90t-63.5 62t-92.5 22q-15 0 -34.5 -2.5t-34.5 -6.5l-5 19q15 6 37.5 9.5t43.5 3.5q58 0 104 -25t72 -70t26 -102q0 -81 -38.5 -132t-103 -73.5t-144.5 -22.5h-160v4
q1 12 1.5 24.5t0.5 30.5v46v490v46t-0.5 30.5t-1.5 24.5v4h35z" />
    <glyph glyph-name="uni042C" unicode="&#x44c;" horiz-adv-x="591" 
d="M160 700v-4q-1 -12 -2 -24.5t-1 -30.5v-46v-584l-16 16h136q88 0 147 24t88 69t29 108q0 50 -23 90t-63.5 62t-92.5 22q-15 0 -34.5 -2.5t-34.5 -6.5l-5 19q15 6 37.5 9.5t43.5 3.5q58 0 104 -25t72 -70t26 -102q0 -81 -38.5 -132t-103 -73.5t-144.5 -22.5h-160v4
q1 12 1.5 24.5t0.5 30.5v46v490v46t-0.5 30.5t-1.5 24.5v4h35z" />
    <glyph glyph-name="uni042D" unicode="&#x42d;" horiz-adv-x="727" 
d="M278 408q20 0 42.5 -6t48.5 -18q14 -6 28 -13q26 -11 46 -16.5t37 -5.5q34 0 80 25l5 -9q-27 -20 -52 -30t-50 -10q-38 0 -91 24q-14 6 -20.5 9t-20.5 9q-21 9 -37.5 13t-32.5 4q-18 0 -37 -6t-43 -19l-5 9q53 40 102 40zM175 693q72 31 154 31q101 0 185.5 -49.5
t133.5 -134.5t49 -186t-49 -186t-133.5 -134.5t-185.5 -49.5q-82 0 -154 31t-125 84v50h12q16 -38 57.5 -70t97.5 -50t112 -18q93 0 170.5 45.5t122.5 124t45 173.5q0 94 -45 172.5t-122.5 124.5t-170.5 46q-60 0 -114 -18t-94 -49.5t-59 -70.5h-12v50q53 53 125 84z" />
    <glyph glyph-name="uni042D" unicode="&#x44d;" horiz-adv-x="727" 
d="M278 408q20 0 42.5 -6t48.5 -18q14 -6 28 -13q26 -11 46 -16.5t37 -5.5q34 0 80 25l5 -9q-27 -20 -52 -30t-50 -10q-38 0 -91 24q-14 6 -20.5 9t-20.5 9q-21 9 -37.5 13t-32.5 4q-18 0 -37 -6t-43 -19l-5 9q53 40 102 40zM175 693q72 31 154 31q101 0 185.5 -49.5
t133.5 -134.5t49 -186t-49 -186t-133.5 -134.5t-185.5 -49.5q-82 0 -154 31t-125 84v50h12q16 -38 57.5 -70t97.5 -50t112 -18q93 0 170.5 45.5t122.5 124t45 173.5q0 94 -45 172.5t-122.5 124.5t-170.5 46q-60 0 -114 -18t-94 -49.5t-59 -70.5h-12v50q53 53 125 84z" />
    <glyph glyph-name="uni042E" unicode="&#x42e;" horiz-adv-x="1089" 
d="M503 33.5q-85 49.5 -134.5 134.5t-49.5 186t49.5 186t134.5 134.5t186 49.5t186 -49.5t134.5 -134.5t49.5 -186t-49.5 -186t-134.5 -134.5t-186 -49.5t-186 49.5zM860 57q78 46 123.5 124.5t45.5 172.5q0 95 -45.5 173.5t-123.5 124t-172 45.5t-171.5 -45.5t-122.5 -124
t-45 -173.5q0 -94 45 -172.5t122.5 -124.5t171.5 -46t172 46zM159 700v-4q-1 -12 -1.5 -24.5t-0.5 -30.5v-46v-490v-46t0.5 -30.5t1.5 -24.5v-4h-34v4q1 12 1.5 24.5t0.5 30.5v46v490v46t-0.5 30.5t-1.5 24.5v4h34zM330 383v-27h-180v27h180z" />
    <glyph glyph-name="uni042E" unicode="&#x44e;" horiz-adv-x="1089" 
d="M503 33.5q-85 49.5 -134.5 134.5t-49.5 186t49.5 186t134.5 134.5t186 49.5t186 -49.5t134.5 -134.5t49.5 -186t-49.5 -186t-134.5 -134.5t-186 -49.5t-186 49.5zM860 57q78 46 123.5 124.5t45.5 172.5q0 95 -45.5 173.5t-123.5 124t-172 45.5t-171.5 -45.5t-122.5 -124
t-45 -173.5q0 -94 45 -172.5t122.5 -124.5t171.5 -46t172 46zM159 700v-4q-1 -12 -1.5 -24.5t-0.5 -30.5v-46v-490v-46t0.5 -30.5t1.5 -24.5v-4h-34v4q1 12 1.5 24.5t0.5 30.5v46v490v46t-0.5 30.5t-1.5 24.5v4h34zM330 383v-27h-180v27h180z" />
    <glyph glyph-name="uni042F" unicode="&#x42f;" horiz-adv-x="669" 
d="M69 23q14 17 49 67l216 305l16 -13h-8h-8h-8q-120 0 -183.5 39.5t-63.5 118.5q0 75 68.5 117.5t193.5 42.5h203v-4q-1 -12 -1.5 -24.5t-0.5 -30.5v-46v-490v-46t0.5 -30.5t1.5 -24.5v-4h-35v4q1 12 2 24.5t1 30.5v46v584l16 -16h-179q-75 0 -129 -16t-82.5 -46.5
t-28.5 -72.5q0 -65 52 -97t159 -34h21h21l7 -14l-227 -321q-22 -31 -35.5 -47.5t-28 -25.5t-31.5 -7l-2 8q10 6 24 23z" />
    <glyph glyph-name="uni042F" unicode="&#x44f;" horiz-adv-x="669" 
d="M69 23q14 17 49 67l216 305l16 -13h-8h-8h-8q-120 0 -183.5 39.5t-63.5 118.5q0 75 68.5 117.5t193.5 42.5h203v-4q-1 -12 -1.5 -24.5t-0.5 -30.5v-46v-490v-46t0.5 -30.5t1.5 -24.5v-4h-35v4q1 12 2 24.5t1 30.5v46v584l16 -16h-179q-75 0 -129 -16t-82.5 -46.5
t-28.5 -72.5q0 -65 52 -97t159 -34h21h21l7 -14l-227 -321q-22 -31 -35.5 -47.5t-28 -25.5t-31.5 -7l-2 8q10 6 24 23z" />
    <glyph glyph-name="uni0462" unicode="&#x462;" horiz-adv-x="611" 
d="M520 619v-27h-520v27h520zM160 800v-4q-1 -12 -2 -24.5t-1 -30.5v-46v-684l-16 16h136q88 0 147 24t88 69t29 108q0 57 -25 96t-69 58.5t-100 19.5q-14 0 -28 -1t-27 -4l-5 17q20 7 40 10t40 3q56 0 102 -22.5t74 -67.5t28 -109q0 -81 -38.5 -132t-103 -73.5
t-144.5 -22.5h-160v4q1 12 1.5 24.5t0.5 30.5v46v590v46t-0.5 30.5t-1.5 24.5v4h35z" />
    <glyph glyph-name="uni0462" unicode="&#x463;" horiz-adv-x="611" 
d="M520 619v-27h-520v27h520zM160 800v-4q-1 -12 -2 -24.5t-1 -30.5v-46v-684l-16 16h136q88 0 147 24t88 69t29 108q0 57 -25 96t-69 58.5t-100 19.5q-14 0 -28 -1t-27 -4l-5 17q20 7 40 10t40 3q56 0 102 -22.5t74 -67.5t28 -109q0 -81 -38.5 -132t-103 -73.5
t-144.5 -22.5h-160v4q1 12 1.5 24.5t0.5 30.5v46v590v46t-0.5 30.5t-1.5 24.5v4h35z" />
    <glyph glyph-name="uni046A" unicode="&#x46a;" horiz-adv-x="973" 
d="M899 700v-3q-12 -8 -23.5 -17.5t-24 -21.5t-26.5 -26l-16 -15l-181 -169v12l257 -365q35 -50 49 -67t24 -23l-2 -8q-24 -3 -43 15t-52 65l-255 363h12l-136 -127l20 31v-239v-46t1 -30.5t2 -24.5v-4h-36v4q1 12 2 24.5t1 30.5v46v239l20 -31l-137 127h12l-255 -363
q-33 -47 -52 -65t-43 -15l-2 8q10 6 24 23t49 67l257 365v-12l-180 169q-8 8 -16 15q-14 14 -26.5 26t-24 21.5t-23.5 17.5v3h824zM146 672l0.5 -0.5l0.5 -0.5l344 -324h-8l344 324l0.5 0.5t0 1l-0.5 0.5h-680z" />
    <glyph glyph-name="uni046A" unicode="&#x46b;" horiz-adv-x="973" 
d="M899 700v-3q-12 -8 -23.5 -17.5t-24 -21.5t-26.5 -26l-16 -15l-181 -169v12l257 -365q35 -50 49 -67t24 -23l-2 -8q-24 -3 -43 15t-52 65l-255 363h12l-136 -127l20 31v-239v-46t1 -30.5t2 -24.5v-4h-36v4q1 12 2 24.5t1 30.5v46v239l20 -31l-137 127h12l-255 -363
q-33 -47 -52 -65t-43 -15l-2 8q10 6 24 23t49 67l257 365v-12l-180 169q-8 8 -16 15q-14 14 -26.5 26t-24 21.5t-23.5 17.5v3h824zM146 672l0.5 -0.5l0.5 -0.5l344 -324h-8l344 324l0.5 0.5t0 1l-0.5 0.5h-680z" />
    <glyph glyph-name="uni0490" unicode="&#x490;" horiz-adv-x="480" 
d="M401 706q16 6 22.5 29.5t12.5 92.5h14v-155h-309l16 16v-584v-46t1 -30.5t2 -24.5v-4h-35v4q1 12 1.5 24.5t0.5 30.5v46v500v39.5t-0.5 28t-1.5 23.5v4h213q47 0 63 6z" />
    <glyph glyph-name="uni0490" unicode="&#x491;" horiz-adv-x="480" 
d="M401 706q16 6 22.5 29.5t12.5 92.5h14v-155h-309l16 16v-584v-46t1 -30.5t2 -24.5v-4h-35v4q1 12 1.5 24.5t0.5 30.5v46v500v39.5t-0.5 28t-1.5 23.5v4h213q47 0 63 6z" />
    <glyph glyph-name="uni1E20" unicode="&#x1e20;" horiz-adv-x="757" 
d="M677 559h-12q-16 38 -57.5 70t-97.5 50t-112 18q-93 0 -170.5 -45.5t-122.5 -124t-45 -173.5q0 -94 45 -172.5t122.5 -124.5t170.5 -46q52 0 100.5 15.5t89.5 43.5t72 67l-13 -40v167q0 23 -0.5 39.5t-2 27.5t-5.5 24v4h40v-4q-1 -18 -1.5 -38t-0.5 -53v-157
q-52 -57 -125 -90t-154 -33q-101 0 -185.5 49.5t-133.5 134.5t-49 186t49 186t133.5 134.5t185.5 49.5q82 0 154 -31t125 -84v-50zM594 847v-27h-380v27h380z" />
    <glyph glyph-name="uni1E20" unicode="&#x1e21;" horiz-adv-x="757" 
d="M677 559h-12q-16 38 -57.5 70t-97.5 50t-112 18q-93 0 -170.5 -45.5t-122.5 -124t-45 -173.5q0 -94 45 -172.5t122.5 -124.5t170.5 -46q52 0 100.5 15.5t89.5 43.5t72 67l-13 -40v167q0 23 -0.5 39.5t-2 27.5t-5.5 24v4h40v-4q-1 -18 -1.5 -38t-0.5 -53v-157
q-52 -57 -125 -90t-154 -33q-101 0 -185.5 49.5t-133.5 134.5t-49 186t49 186t133.5 134.5t185.5 49.5q82 0 154 -31t125 -84v-50zM594 847v-27h-380v27h380z" />
    <glyph glyph-name="Wgrave" unicode="&#x1e80;" horiz-adv-x="999" 
d="M56 700v-4v-3q0 -9 2.5 -22.5t8.5 -32t14 -43.5l193 -573h-13l229 678h25l222 -678h-12l195 572q9 27 14 45.5t6.5 31t1.5 22.5v3v4h45v-4q-3 -9 -7 -18q-6 -15 -13.5 -35.5t-17.5 -48.5l-203 -594h-17h-16l-218 666h12l-225 -666h-16h-16l-201 595q-9 26 -15.5 45.5
t-11.5 32.5t-9 23v4h43zM419 917l136 -149l10 9l-116 165z" />
    <glyph glyph-name="Wgrave" unicode="&#x1e81;" horiz-adv-x="999" 
d="M56 700v-4v-3q0 -9 2.5 -22.5t8.5 -32t14 -43.5l193 -573h-13l229 678h25l222 -678h-12l195 572q9 27 14 45.5t6.5 31t1.5 22.5v3v4h45v-4q-3 -9 -7 -18q-6 -15 -13.5 -35.5t-17.5 -48.5l-203 -594h-17h-16l-218 666h12l-225 -666h-16h-16l-201 595q-9 26 -15.5 45.5
t-11.5 32.5t-9 23v4h43zM419 917l136 -149l10 9l-116 165z" />
    <glyph glyph-name="Wacute" unicode="&#x1e82;" horiz-adv-x="999" 
d="M56 700v-4v-3q0 -9 2.5 -22.5t8.5 -32t14 -43.5l193 -573h-13l229 678h25l222 -678h-12l195 572q9 27 14 45.5t6.5 31t1.5 22.5v3v4h45v-4q-3 -9 -7 -18q-6 -15 -13.5 -35.5t-17.5 -48.5l-203 -594h-17h-16l-218 666h12l-225 -666h-16h-16l-201 595q-9 26 -15.5 45.5
t-11.5 32.5t-9 23v4h43zM595 926l-136 -149l-10 9l116 165z" />
    <glyph glyph-name="Wacute" unicode="&#x1e83;" horiz-adv-x="999" 
d="M56 700v-4v-3q0 -9 2.5 -22.5t8.5 -32t14 -43.5l193 -573h-13l229 678h25l222 -678h-12l195 572q9 27 14 45.5t6.5 31t1.5 22.5v3v4h45v-4q-3 -9 -7 -18q-6 -15 -13.5 -35.5t-17.5 -48.5l-203 -594h-17h-16l-218 666h12l-225 -666h-16h-16l-201 595q-9 26 -15.5 45.5
t-11.5 32.5t-9 23v4h43zM595 926l-136 -149l-10 9l116 165z" />
    <glyph glyph-name="Wdieresis" unicode="&#x1e84;" horiz-adv-x="999" 
d="M56 700v-4v-3q0 -9 2.5 -22.5t8.5 -32t14 -43.5l193 -573h-13l229 678h25l222 -678h-12l195 572q9 27 14 45.5t6.5 31t1.5 22.5v3v4h45v-4q-3 -9 -7 -18q-6 -15 -13.5 -35.5t-17.5 -48.5l-203 -594h-17h-16l-218 666h12l-225 -666h-16h-16l-201 595q-9 26 -15.5 45.5
t-11.5 32.5t-9 23v4h43zM398 817q-12 12 -12 28q0 17 12 28.5t28 11.5q17 0 28.5 -11.5t11.5 -28.5q0 -16 -11.5 -28t-28.5 -12q-16 0 -28 12zM567.5 816.5q-11.5 11.5 -11.5 28.5t12 28.5t28 11.5q17 0 28.5 -11.5t11.5 -28.5t-11.5 -28.5t-28.5 -11.5t-28.5 11.5z" />
    <glyph glyph-name="Wdieresis" unicode="&#x1e85;" horiz-adv-x="999" 
d="M56 700v-4v-3q0 -9 2.5 -22.5t8.5 -32t14 -43.5l193 -573h-13l229 678h25l222 -678h-12l195 572q9 27 14 45.5t6.5 31t1.5 22.5v3v4h45v-4q-3 -9 -7 -18q-6 -15 -13.5 -35.5t-17.5 -48.5l-203 -594h-17h-16l-218 666h12l-225 -666h-16h-16l-201 595q-9 26 -15.5 45.5
t-11.5 32.5t-9 23v4h43zM398 817q-12 12 -12 28q0 17 12 28.5t28 11.5q17 0 28.5 -11.5t11.5 -28.5q0 -16 -11.5 -28t-28.5 -12q-16 0 -28 12zM567.5 816.5q-11.5 11.5 -11.5 28.5t12 28.5t28 11.5q17 0 28.5 -11.5t11.5 -28.5t-11.5 -28.5t-28.5 -11.5t-28.5 11.5z" />
    <glyph glyph-name="uni1EBC" unicode="&#x1ebc;" horiz-adv-x="545" 
d="M492 700v-30h-4q-12 1 -23.5 2t-28 1h-39.5h-256l16 16v-215l-12 13h269v-27h-269l12 12v-461l-16 16h293h39.5t28 1t23.5 2h4v-30h-404v4q1 12 1.5 24.5t0.5 30.5v46v490v46t-0.5 30.5t-1.5 24.5v4h367zM355 801q-22 6 -49 17q-2 2 -8 4l-5 2q-31 13 -51.5 19.5
t-39.5 6.5q-39 0 -64 -33l-9 7q17 29 38 42t47 13q19 0 40 -6t49 -18q4 -1 8 -3l8 -3q27 -12 48.5 -18.5t39.5 -6.5q17 0 31.5 7.5t32.5 25.5l9 -7q-21 -30 -41 -42.5t-44 -12.5q-18 0 -40 6z" />
    <glyph glyph-name="uni1EBC" unicode="&#x1ebd;" horiz-adv-x="545" 
d="M492 700v-30h-4q-12 1 -23.5 2t-28 1h-39.5h-256l16 16v-215l-12 13h269v-27h-269l12 12v-461l-16 16h293h39.5t28 1t23.5 2h4v-30h-404v4q1 12 1.5 24.5t0.5 30.5v46v490v46t-0.5 30.5t-1.5 24.5v4h367zM355 801q-22 6 -49 17q-2 2 -8 4l-5 2q-31 13 -51.5 19.5
t-39.5 6.5q-39 0 -64 -33l-9 7q17 29 38 42t47 13q19 0 40 -6t49 -18q4 -1 8 -3l8 -3q27 -12 48.5 -18.5t39.5 -6.5q17 0 31.5 7.5t32.5 25.5l9 -7q-21 -30 -41 -42.5t-44 -12.5q-18 0 -40 6z" />
    <glyph glyph-name="Ygrave" unicode="&#x1ef2;" horiz-adv-x="619" 
d="M53 645.5q-15 20.5 -25 32t-17 18.5v4h48l1 -4q2 -6 6.5 -13t14.5 -21.5t27 -38.5l3 -5l203 -289h-7l205 289q18 25 28 40.5t14 23t5 12.5l1 2l1 4h47v-4q-8 -8 -17.5 -19.5t-25 -32t-36.5 -50.5l-220 -309l-219 309q-22 31 -37 51.5zM293.5 27.5q0.5 11.5 0.5 28v39.5
v222h30v-222v-39.5t0.5 -28t1.5 -23.5v-4h-34v4q1 12 1.5 23.5zM234 917l136 -149l10 9l-116 165z" />
    <glyph glyph-name="Ygrave" unicode="&#x1ef3;" horiz-adv-x="619" 
d="M53 645.5q-15 20.5 -25 32t-17 18.5v4h48l1 -4q2 -6 6.5 -13t14.5 -21.5t27 -38.5l3 -5l203 -289h-7l205 289q18 25 28 40.5t14 23t5 12.5l1 2l1 4h47v-4q-8 -8 -17.5 -19.5t-25 -32t-36.5 -50.5l-220 -309l-219 309q-22 31 -37 51.5zM293.5 27.5q0.5 11.5 0.5 28v39.5
v222h30v-222v-39.5t0.5 -28t1.5 -23.5v-4h-34v4q1 12 1.5 23.5zM234 917l136 -149l10 9l-116 165z" />
    <glyph glyph-name="uni1EF8" unicode="&#x1ef8;" horiz-adv-x="619" 
d="M53 645.5q-15 20.5 -25 32t-17 18.5v4h48l1 -4q2 -6 6.5 -13t14.5 -21.5t27 -38.5l3 -5l203 -289h-7l205 289q18 25 28 40.5t14 23t5 12.5l1 2l1 4h47v-4q-8 -8 -17.5 -19.5t-25 -32t-36.5 -50.5l-220 -309l-219 309q-22 31 -37 51.5zM293.5 27.5q0.5 11.5 0.5 28v39.5
v222h30v-222v-39.5t0.5 -28t1.5 -23.5v-4h-34v4q1 12 1.5 23.5zM376 801q-22 6 -49 17q-2 2 -8 4l-5 2q-31 13 -51.5 19.5t-39.5 6.5q-39 0 -64 -33l-9 7q17 29 38 42t47 13q19 0 40 -6t49 -18q4 -1 8 -3l8 -3q27 -12 48.5 -18.5t39.5 -6.5q17 0 31.5 7.5t32.5 25.5l9 -7
q-21 -30 -41 -42.5t-44 -12.5q-18 0 -40 6z" />
    <glyph glyph-name="uni1EF8" unicode="&#x1ef9;" horiz-adv-x="619" 
d="M53 645.5q-15 20.5 -25 32t-17 18.5v4h48l1 -4q2 -6 6.5 -13t14.5 -21.5t27 -38.5l3 -5l203 -289h-7l205 289q18 25 28 40.5t14 23t5 12.5l1 2l1 4h47v-4q-8 -8 -17.5 -19.5t-25 -32t-36.5 -50.5l-220 -309l-219 309q-22 31 -37 51.5zM293.5 27.5q0.5 11.5 0.5 28v39.5
v222h30v-222v-39.5t0.5 -28t1.5 -23.5v-4h-34v4q1 12 1.5 23.5zM376 801q-22 6 -49 17q-2 2 -8 4l-5 2q-31 13 -51.5 19.5t-39.5 6.5q-39 0 -64 -33l-9 7q17 29 38 42t47 13q19 0 40 -6t49 -18q4 -1 8 -3l8 -3q27 -12 48.5 -18.5t39.5 -6.5q17 0 31.5 7.5t32.5 25.5l9 -7
q-21 -30 -41 -42.5t-44 -12.5q-18 0 -40 6z" />
    <glyph glyph-name="uni2002" unicode="&#x2002;" horiz-adv-x="300" 
 />
    <glyph glyph-name="uni200A" unicode="&#x200a;" horiz-adv-x="140" 
 />
    <glyph glyph-name="endash" unicode="&#x2013;" horiz-adv-x="570" 
d="M545 364v-27h-520v27h520z" />
    <glyph glyph-name="emdash" unicode="&#x2014;" horiz-adv-x="750" 
d="M705 364v-27h-660v27h660z" />
    <glyph glyph-name="quoteleft" unicode="&#x2018;" horiz-adv-x="280" 
d="M180 691q-18 -23 -29 -41t-12.5 -28.5t5.5 -11.5q14 -2 25.5 -12t11.5 -26q0 -17 -12 -29.5t-29 -12.5q-19 0 -30 13t-11 35q0 20 10 44t36 56l22 26l16 -10z" />
    <glyph glyph-name="quoteright" unicode="&#x2019;" horiz-adv-x="280" 
d="M100 556q18 23 29 41t12.5 28.5t-5.5 11.5q-14 2 -25.5 12t-11.5 26q0 17 12 29.5t29 12.5q19 0 30 -13t11 -35q0 -20 -10 -44t-36 -56l-22 -26l-16 10z" />
    <glyph glyph-name="bullet" unicode="&#x2022;" horiz-adv-x="390" 
d="M152.5 316.5q-17.5 17.5 -17.5 43.5q0 25 17.5 42.5t42.5 17.5t42.5 -17.5t17.5 -42.5q0 -26 -17.5 -43.5t-42.5 -17.5t-42.5 17.5z" />
    <glyph glyph-name="Euro" unicode="&#x20ac;" horiz-adv-x="787" 
d="M737 559h-12q-16 38 -57.5 70t-97.5 50t-112 18q-93 0 -170.5 -45.5t-122.5 -124t-45 -173.5q0 -94 45 -172.5t122.5 -124.5t170.5 -46q60 0 114 18t94 49.5t59 70.5h12v-50q-53 -53 -125 -84t-154 -31q-101 0 -185.5 49.5t-133.5 134.5t-49 186t49 186t133.5 134.5
t185.5 49.5q82 0 154 -31t125 -84v-50zM560 438v-27h-530v27h530zM560 298v-27h-530v27h530z" />
    <glyph glyph-name="uni20B4" unicode="&#x20b4;" horiz-adv-x="493" 
d="M240 718q82 0 127 -36.5t45 -93.5q0 -40 -20.5 -80.5t-66.5 -86.5l-140 -142q-38 -38 -55.5 -75t-17.5 -69q0 -55 39.5 -87.5t97.5 -32.5q33 0 61.5 7t53.5 21.5t48 37.5h9l-3 -44q-32 -23 -73.5 -36t-84.5 -13q-48 0 -88.5 16.5t-65 50t-24.5 83.5q0 41 18 78.5t64 83.5
l140 142q39 39 58.5 75t19.5 74q0 45 -35 72.5t-102 27.5q-46 0 -76.5 -9.5t-53.5 -32.5h-9l4 47q61 22 130 22zM456 424v-27l-410 30v27zM456 294v-27l-410 30v27z" />
    <glyph glyph-name="uni20BD" unicode="&#x20bd;" horiz-adv-x="656" 
d="M490.5 651.5q80.5 -48.5 80.5 -156.5q0 -57 -27.5 -97.5t-74 -61t-102.5 -20.5q-28 0 -54 6q-16 3 -25 7l5 17q18 -4 37 -6.5t37 -2.5q47 0 87 19t63.5 54.5t23.5 84.5q0 56 -29.5 97.5t-88.5 62.5t-146 18h-136l16 16v-584v-46t1 -30.5t2 -24.5v-4h-35v4q1 12 1.5 24.5
t0.5 30.5v46v490v46t-0.5 30.5t-1.5 24.5v4h160q125 0 205.5 -48.5zM477 239v-27h-430v27h430z" />
    <glyph glyph-name="uni2116" unicode="&#x2116;" horiz-adv-x="1045" 
d="M150 702l418 -661h-12v554v46t-1 30.5t-2 24.5v4h32v-4q-1 -12 -1.5 -24.5t-0.5 -30.5v-46v-502v-40t0.5 -29.5t1.5 -25.5h-25l-421 665h15v-558v-46t1 -30.5t2 -24.5v-4h-32v4q1 12 1.5 24.5t0.5 30.5v46v502v40t-0.5 29.5t-1.5 25.5h25zM896 467.5q29 15.5 45.5 43
t16.5 62.5q0 50 -36 83t-91 33q-36 0 -64.5 -15t-45 -41.5t-16.5 -59.5q0 -54 35.5 -87.5t90.5 -33.5q36 0 65 15.5zM720.5 466q-42.5 41 -42.5 108q0 62 43 102t110 40t110.5 -40t43.5 -102q0 -66 -43 -107.5t-111 -41.5t-110.5 41zM981 365v-27h-299v27h299z" />
    <glyph glyph-name="minus" unicode="&#x2212;" horiz-adv-x="460" 
d="M435 364v-27h-410v27h410z" />
    <glyph glyph-name="uni004A0301" horiz-adv-x="305" 
d="M179 700v-4q-1 -12 -1.5 -23.5t-0.5 -28v-39.5v-484q0 -81 -24 -142t-73.5 -99.5t-125.5 -50.5l-4 12q75 16 118.5 55.5t61 97.5t17.5 139v472v39.5t-1 28t-2 23.5v4h35zM282 926l-136 -149l-10 9l116 165z" />
    <glyph glyph-name="B.salt" horiz-adv-x="637" 
d="M126.5 28.5q0.5 12.5 0.5 30.5v46v370q0 81 29 135t74.5 80t96.5 26q39 0 72.5 -14.5t54 -41.5t20.5 -62q0 -48 -36.5 -83t-80.5 -51l-10 6h1.5h1.5q68 0 126.5 -29.5t93.5 -81.5t35 -117q0 -70 -33.5 -125t-93.5 -86t-137 -31h-216v4q1 12 1.5 24.5zM141 27h194
q70 0 124.5 27.5t85 77t30.5 112.5q0 60 -35 107t-96.5 74t-140.5 27h-1.5h-1.5v16q42 11 74.5 29.5t51 43.5t18.5 53q0 43 -34 69t-82 26q-43 0 -82 -22t-64 -69t-25 -117v-470z" />
    <glyph glyph-name="P.salt" horiz-adv-x="613" 
d="M157 59q0 -18 1 -30.5t2 -24.5v-4h-35v4q1 12 1.5 24.5t0.5 30.5v46v395q0 59 27.5 108.5t75.5 78t107 28.5q61 0 109.5 -26.5t75.5 -73.5t27 -107q0 -63 -27.5 -106t-71.5 -63.5t-96 -20.5q-14 0 -28.5 1.5t-25.5 3.5v19q10 -2 19.5 -3t19.5 -1q53 0 94 20t63.5 57
t22.5 85q0 54 -23 97t-64 67t-93 24q-51 0 -92.5 -24t-65.5 -65.5t-24 -90.5v-403v-46z" />
    <glyph glyph-name="A_E.dlig" horiz-adv-x="855" 
d="M441 214v-27h-270v27h270zM802 700v-32h-4q-12 2 -23.5 3.5t-28 1.5h-39.5h-256l16 16v-215l-12 13h269v-27h-269l12 12v-461l-16 16h293h39.5t28 1t23.5 2h4v-30h-404v4q1 12 1.5 24.5t0.5 30.5v46v570h6l-314 -577q-16 -30 -25 -48.5t-12.5 -28t-4.5 -14.5q-1 -1 -1 -3
v-4h-43v4q3 4 8.5 12t16.5 27.5t28 51.5l332 605h374z" />
    <glyph glyph-name="D_O.dlig" horiz-adv-x="1080" 
d="M141 27h219q110 0 191.5 45t125 119t43.5 159q0 94 -45.5 167.5t-127.5 114.5t-186 41h-220l16 16v-678zM568.5 655.5q85.5 -44.5 133.5 -124t48 -181.5q0 -96 -49.5 -176.5t-135.5 -127t-191 -46.5h-249v4q1 12 1.5 24.5t0.5 30.5v46v490v46t-0.5 30.5t-1.5 24.5v4h249
q109 0 194.5 -44.5zM494 33.5q-85 49.5 -134.5 134.5t-49.5 186t49.5 186t134.5 134.5t186 49.5t186 -49.5t134.5 -134.5t49.5 -186t-49.5 -186t-134.5 -134.5t-186 -49.5t-186 49.5zM851 57q78 46 123.5 124.5t45.5 172.5q0 95 -45.5 173.5t-123.5 124t-172 45.5
t-171.5 -45.5t-122.5 -124t-45 -173.5q0 -94 45 -172.5t122.5 -124.5t171.5 -46t172 46z" />
    <glyph glyph-name="H_D.dlig" horiz-adv-x="1195" 
d="M553 487v-27h-406v27h406zM160 700v-4q-1 -12 -2 -24.5t-1 -30.5v-46v-490v-46t1 -30.5t2 -24.5v-4h-35v4q1 12 1.5 24.5t0.5 30.5v46v490v46t-0.5 30.5t-1.5 24.5v4h35zM557 27h218q110 0 191.5 45t125 119t43.5 159q0 94 -45.5 167.5t-127.5 114.5t-186 41h-219l16 16
v-678zM983.5 655.5q85.5 -44.5 133.5 -124t48 -181.5q0 -96 -49.5 -176.5t-135.5 -127t-191 -46.5h-249v4q1 12 2 24.5t1 30.5v46v490v46t-1 30.5t-2 24.5v4h249q109 0 194.5 -44.5z" />
    <glyph glyph-name="H_E.dlig" horiz-adv-x="960" 
d="M553 487v-27h-406v27h406zM160 700v-4q-1 -12 -2 -24.5t-1 -30.5v-46v-490v-46t1 -30.5t2 -24.5v-4h-35v4q1 12 1.5 24.5t0.5 30.5v46v490v46t-0.5 30.5t-1.5 24.5v4h35zM907 700v-30h-4q-12 1 -23.5 2t-28 1h-39.5h-255l16 16v-215l-12 13h268v-27h-268l12 12v-461
l-16 16h292h39.5t28 1t23.5 2h4v-30h-404v4q1 12 2 24.5t1 30.5v46v490v46t-1 30.5t-2 24.5v4h367z" />
    <glyph glyph-name="N_N.dlig" horiz-adv-x="1190" 
d="M150 702l443 -661h-12v566v40t-0.5 29.5t-1.5 25.5h25l444 -661h-12v554v46t-1 30.5t-2 24.5v4h32v-4q-1 -12 -1.5 -24.5t-0.5 -30.5v-46v-502v-40t0.5 -29.5t1.5 -25.5h-25l-447 665h15v-570v-40t0.5 -29.5t1.5 -25.5h-25l-446 665h15v-558v-46t1 -30.5t2 -24.5v-4h-32
v4q1 12 1.5 24.5t0.5 30.5v46v502v40t-0.5 29.5t-1.5 25.5h25z" />
    <glyph glyph-name="O_C.dlig" horiz-adv-x="1027" 
d="M214 33.5q-85 49.5 -134.5 134.5t-49.5 186t49.5 186t134.5 134.5t186 49.5t186 -49.5t134.5 -134.5t49.5 -186t-49.5 -186t-134.5 -134.5t-186 -49.5t-186 49.5zM571 57q78 46 123.5 124.5t45.5 172.5q0 95 -45.5 173.5t-123.5 124t-172 45.5t-171.5 -45.5t-122.5 -124
t-45 -173.5q0 -94 45 -172.5t122.5 -124.5t171.5 -46t172 46zM977 559h-12q-16 38 -57.5 70t-97.5 50t-112 18q-93 0 -170.5 -45.5t-122.5 -124t-45 -173.5q0 -94 45 -172.5t122.5 -124.5t170.5 -46q60 0 114 18t94 49.5t59 70.5h12v-50q-53 -53 -125 -84t-154 -31
q-101 0 -185.5 49.5t-133.5 134.5t-49 186t49 186t133.5 134.5t185.5 49.5q82 0 154 -31t125 -84v-50z" />
    <glyph glyph-name="O_G.dlig" horiz-adv-x="1057" 
d="M214 33.5q-85 49.5 -134.5 134.5t-49.5 186t49.5 186t134.5 134.5t186 49.5t186 -49.5t134.5 -134.5t49.5 -186t-49.5 -186t-134.5 -134.5t-186 -49.5t-186 49.5zM571 57q78 46 123.5 124.5t45.5 172.5q0 95 -45.5 173.5t-123.5 124t-172 45.5t-171.5 -45.5t-122.5 -124
t-45 -173.5q0 -94 45 -172.5t122.5 -124.5t171.5 -46t172 46zM977 559h-12q-16 38 -57.5 70t-97.5 50t-112 18q-93 0 -170.5 -45.5t-122.5 -124t-45 -173.5q0 -94 45 -172.5t122.5 -124.5t170.5 -46q52 0 100.5 15.5t89.5 43.5t72 67l-13 -40v167q0 23 -0.5 39.5t-2 27.5
t-5.5 24v4h40v-4q-1 -18 -1.5 -38t-0.5 -53v-157q-52 -57 -125 -90t-154 -33q-101 0 -185.5 49.5t-133.5 134.5t-49 186t49 186t133.5 134.5t185.5 49.5q82 0 154 -31t125 -84v-50z" />
    <glyph glyph-name="O_O.dlig" horiz-adv-x="1100" 
d="M214 33.5q-85 49.5 -134.5 134.5t-49.5 186t49.5 186t134.5 134.5t186 49.5t186 -49.5t134.5 -134.5t49.5 -186t-49.5 -186t-134.5 -134.5t-186 -49.5t-186 49.5zM571 57q78 46 123.5 124.5t45.5 172.5q0 95 -45.5 173.5t-123.5 124t-172 45.5t-171.5 -45.5t-122.5 -124
t-45 -173.5q0 -94 45 -172.5t122.5 -124.5t171.5 -46t172 46zM514 33.5q-85 49.5 -134.5 134.5t-49.5 186t49.5 186t134.5 134.5t186 49.5t186 -49.5t134.5 -134.5t49.5 -186t-49.5 -186t-134.5 -134.5t-186 -49.5t-186 49.5zM871 57q78 46 123.5 124.5t45.5 172.5
q0 95 -45.5 173.5t-123.5 124t-172 45.5t-171.5 -45.5t-122.5 -124t-45 -173.5q0 -94 45 -172.5t122.5 -124.5t171.5 -46t172 46z" />
    <glyph glyph-name="uni0412.alt" horiz-adv-x="637" 
d="M126.5 28.5q0.5 12.5 0.5 30.5v46v370q0 81 29 135t74.5 80t96.5 26q39 0 72.5 -14.5t54 -41.5t20.5 -62q0 -48 -36.5 -83t-80.5 -51l-10 6h1.5h1.5q68 0 126.5 -29.5t93.5 -81.5t35 -117q0 -70 -33.5 -125t-93.5 -86t-137 -31h-216v4q1 12 1.5 24.5zM141 27h194
q70 0 124.5 27.5t85 77t30.5 112.5q0 60 -35 107t-96.5 74t-140.5 27h-1.5h-1.5v16q42 11 74.5 29.5t51 43.5t18.5 53q0 43 -34 69t-82 26q-43 0 -82 -22t-64 -69t-25 -117v-470z" />
    <glyph glyph-name="uni0420.alt" horiz-adv-x="613" 
d="M157 59q0 -18 1 -30.5t2 -24.5v-4h-35v4q1 12 1.5 24.5t0.5 30.5v46v395q0 59 27.5 108.5t75.5 78t107 28.5q61 0 109.5 -26.5t75.5 -73.5t27 -107q0 -63 -27.5 -106t-71.5 -63.5t-96 -20.5q-14 0 -28.5 1.5t-25.5 3.5v19q10 -2 19.5 -3t19.5 -1q53 0 94 20t63.5 57
t22.5 85q0 54 -23 97t-64 67t-93 24q-51 0 -92.5 -24t-65.5 -65.5t-24 -90.5v-403v-46z" />
    <glyph glyph-name="uni0414.loclBGR" horiz-adv-x="675" 
d="M339 700h12l258 -688h-33l-247 663h16l-247 -663h-31l259 688h13zM693 27v-155h-14q-6 69 -12.5 92.5t-22.5 29.5t-63 6h-486q-47 0 -63 -6t-22.5 -29.5t-12.5 -92.5h-14v155h710z" />
    <glyph glyph-name="uni041B.loclBGR" horiz-adv-x="580" 
d="M507 0v4v1q0 5 -1 14t-7 30t-19 56l-205 570h17l-205 -570q-12 -34 -18 -55t-7 -30t-1 -14v-2v-4h-43v4q2 4 6 13t12.5 30.5t21.5 57.5l215 595h12.5h12.5l214 -595q13 -36 21.5 -57.5t12.5 -30.5t6 -13v-4h-45z" />
    <glyph glyph-name="uni0414.salt" horiz-adv-x="643" 
d="M611 27v-155h-14q-6 69 -12.5 92.5t-22.5 29.5t-63 6h-382q-47 0 -63 -6t-22.5 -29.5t-12.5 -92.5h-14v155h606zM533 700v-4q-1 -12 -1.5 -24.5t-0.5 -30.5v-46v-580h-30v674l16 -16h-289l15 16l-99 -579q-9 -55 -23.5 -77t-41.5 -22v16q15 0 24 25.5t19 84.5l78 458
q4 27 6.5 45t2.5 30t-1 23v3v4h325z" />
    <glyph glyph-name="uni0418.salt" horiz-adv-x="710" 
d="M560 702l-418 -661h12v554v46t1 30.5t2 24.5v4h-32v-4q1 -12 1.5 -24.5t0.5 -30.5v-46v-502v-40t-0.5 -29.5t-1.5 -25.5h25l421 665h-15v-558v-46t-1 -30.5t-2 -24.5v-4h32v4q-1 12 -1.5 24.5t-0.5 30.5v46v502v40t0.5 29.5t1.5 25.5h-25z" />
    <glyph glyph-name="uni041B.salt" horiz-adv-x="610" 
d="M485 700v-4q-1 -12 -1.5 -24.5t-0.5 -30.5v-46v-490v-46t0.5 -30.5t1.5 -24.5v-4h-35v4q1 12 2 24.5t1 30.5v46v584l16 -16h-272l15 16l-102 -597q-5 -33 -12.5 -53.5t-20.5 -31.5t-32 -11q-17 0 -35 8v33h4q5 -3 10.5 -5t11 -3t11.5 -1q14 0 22.5 16.5t14.5 52.5l85 498
q4 27 6.5 45t2.5 30t-1 23v3v4h308z" />
    <glyph glyph-name="uni04100415.dlig" horiz-adv-x="855" 
d="M441 214v-27h-270v27h270zM802 700v-32h-4q-12 2 -23.5 3.5t-28 1.5h-39.5h-256l16 16v-215l-12 13h269v-27h-269l12 12v-461l-16 16h293h39.5t28 1t23.5 2h4v-30h-404v4q1 12 1.5 24.5t0.5 30.5v46v570h6l-314 -577q-16 -30 -25 -48.5t-12.5 -28t-4.5 -14.5q-1 -1 -1 -3
v-4h-43v4q3 4 8.5 12t16.5 27.5t28 51.5l332 605h374z" />
    <glyph glyph-name="uni04180418.dlig" horiz-adv-x="1175" 
d="M160 700v-4q-1 -12 -2 -24.5t-1 -30.5v-46v-549h-19l454 656h12q-1 -13 -1.5 -25.5t-0.5 -29.5v-40v-561h-19l455 656h12q-1 -13 -1.5 -25.5t-0.5 -29.5v-40v-502v-46t0.5 -30.5t1.5 -24.5v-4h-35v4q1 12 2 24.5t1 30.5v46v549h19l-455 -656h-12q1 13 1.5 25.5t0.5 29.5
v40v561h19l-454 -656h-12q1 13 1.5 25.5t0.5 29.5v40v502v46t-0.5 30.5t-1.5 24.5v4h35z" />
    <glyph glyph-name="uni0418041D.dlig" horiz-adv-x="1145" 
d="M1020 700v-4q-1 -12 -1.5 -24.5t-0.5 -30.5v-46v-490v-46t0.5 -30.5t1.5 -24.5v-4h-35v4q1 12 2 24.5t1 30.5v46v490v46t-1 30.5t-2 24.5v4h35zM998 487v-27h-405v27h405zM160 700v-4q-1 -12 -2 -24.5t-1 -30.5v-46v-549h-19l455 656h12q-1 -13 -1.5 -25.5t-0.5 -29.5
v-40v-502v-46t1 -30.5t2 -24.5v-4h-36v4q1 12 2 24.5t1 30.5v46v549h19l-455 -656h-12q1 13 1.5 25.5t0.5 29.5v40v502v46t-0.5 30.5t-1.5 24.5v4h35z" />
    <glyph glyph-name="uni041B042C.dlig" horiz-adv-x="921" 
d="M490 700v-4q-1 -12 -2 -24.5t-1 -30.5v-46v-584l-16 16h136q88 0 147 24t88 69t29 108q0 50 -23 90t-63.5 62t-92.5 22q-15 0 -34.5 -2.5t-34.5 -6.5l-5 19q15 6 37.5 9.5t43.5 3.5q58 0 104 -25t72 -70t26 -102q0 -81 -38.5 -132t-103 -73.5t-144.5 -22.5h-161v4
q1 12 2 24.5t1 30.5v46v584l16 -16h-276l15 16l-102 -597q-8 -49 -22.5 -72.5t-42.5 -23.5q-17 0 -35 8v33h4q5 -3 10.5 -5t11 -3t11.5 -1q14 0 22.5 16.5t14.5 52.5l85 498q4 27 6.5 45t2.5 30t-1 23v3v4h313z" />
    <glyph glyph-name="uni041C042C.dlig" horiz-adv-x="1146" 
d="M145 700l285 -516h-17l281 516h20q-1 -14 -1.5 -27t-0.5 -31.5v-46.5v-584l-16 16h136q88 0 147 24t88 69t29 108q0 50 -23 90t-63.5 62t-92.5 22q-15 0 -34.5 -2.5t-34.5 -6.5l-5 19q15 6 37.5 9.5t43.5 3.5q58 0 104 -25t72 -70t26 -102q0 -81 -38.5 -132t-103 -73.5
t-144.5 -22.5h-160v4q1 12 1.5 24.5t0.5 30.5v46v553h20l-274 -503h-16l-275 498h17v-548v-46t1 -30.5t2 -24.5v-4h-32v4q1 12 1.5 24.5t0.5 30.5v46v490v3v44t-0.5 31t-1.5 27h20z" />
    <glyph glyph-name="uni041D0415.dlig" horiz-adv-x="960" 
d="M553 487v-27h-406v27h406zM160 700v-4q-1 -12 -2 -24.5t-1 -30.5v-46v-490v-46t1 -30.5t2 -24.5v-4h-35v4q1 12 1.5 24.5t0.5 30.5v46v490v46t-0.5 30.5t-1.5 24.5v4h35zM907 700v-30h-4q-12 1 -23.5 2t-28 1h-39.5h-255l16 16v-215l-12 13h268v-27h-268l12 12v-461
l-16 16h292h39.5t28 1t23.5 2h4v-30h-404v4q1 12 2 24.5t1 30.5v46v490v46t-1 30.5t-2 24.5v4h367z" />
    <glyph glyph-name="uni041D042C.dlig" horiz-adv-x="1006" 
d="M553 487v-27h-406v27h406zM160 700v-4q-1 -12 -2 -24.5t-1 -30.5v-46v-490v-46t1 -30.5t2 -24.5v-4h-35v4q1 12 1.5 24.5t0.5 30.5v46v490v46t-0.5 30.5t-1.5 24.5v4h35zM575 700v-4q-1 -12 -2 -24.5t-1 -30.5v-46v-584l-16 16h136q88 0 147 24t88 69t29 108q0 50 -23 90
t-63.5 62t-92.5 22q-15 0 -34.5 -2.5t-34.5 -6.5l-5 19q15 6 37.5 9.5t43.5 3.5q58 0 104 -25t72 -70t26 -102q0 -81 -38.5 -132t-103 -73.5t-144.5 -22.5h-160v4q1 12 1.5 24.5t0.5 30.5v46v490v46t-0.5 30.5t-1.5 24.5v4h35z" />
    <glyph glyph-name="uni041E0415.dlig" horiz-adv-x="1130" 
d="M208 33.5q-82 49.5 -130 134.5t-48 186t48 186t130 134.5t179 49.5q95 0 176 -48.5t129 -133.5t48 -188t-48 -188t-129 -133.5t-176 -48.5q-97 0 -179 49.5zM552 57q75 46 119 124.5t44 172.5q0 95 -44 173.5t-119 124t-166 45.5t-165.5 -45.5t-118 -124t-43.5 -173.5
q0 -94 43.5 -172.5t118.5 -124.5t165 -46q91 0 166 46zM1077 700v-30h-4q-12 1 -23.5 2t-28 1h-39.5h-256l16 16v-215l-12 13h269v-27h-269l12 12v-461l-16 16h293h39.5t28 1t23.5 2h4v-30h-404v4q1 12 1.5 24.5t0.5 30.5v46v135l17 114l-17 114v127v46t-0.5 30.5t-1.5 24.5
v4h367z" />
    <glyph glyph-name="uni041E041E.dlig" horiz-adv-x="1100" 
d="M214 33.5q-85 49.5 -134.5 134.5t-49.5 186t49.5 186t134.5 134.5t186 49.5t186 -49.5t134.5 -134.5t49.5 -186t-49.5 -186t-134.5 -134.5t-186 -49.5t-186 49.5zM571 57q78 46 123.5 124.5t45.5 172.5q0 95 -45.5 173.5t-123.5 124t-172 45.5t-171.5 -45.5t-122.5 -124
t-45 -173.5q0 -94 45 -172.5t122.5 -124.5t171.5 -46t172 46zM514 33.5q-85 49.5 -134.5 134.5t-49.5 186t49.5 186t134.5 134.5t186 49.5t186 -49.5t134.5 -134.5t49.5 -186t-49.5 -186t-134.5 -134.5t-186 -49.5t-186 49.5zM871 57q78 46 123.5 124.5t45.5 172.5
q0 95 -45.5 173.5t-123.5 124t-172 45.5t-171.5 -45.5t-122.5 -124t-45 -173.5q0 -94 45 -172.5t122.5 -124.5t171.5 -46t172 46z" />
    <glyph glyph-name="uni041E0421.dlig" horiz-adv-x="1027" 
d="M214 33.5q-85 49.5 -134.5 134.5t-49.5 186t49.5 186t134.5 134.5t186 49.5t186 -49.5t134.5 -134.5t49.5 -186t-49.5 -186t-134.5 -134.5t-186 -49.5t-186 49.5zM571 57q78 46 123.5 124.5t45.5 172.5q0 95 -45.5 173.5t-123.5 124t-172 45.5t-171.5 -45.5t-122.5 -124
t-45 -173.5q0 -94 45 -172.5t122.5 -124.5t171.5 -46t172 46zM977 559h-12q-16 38 -57.5 70t-97.5 50t-112 18q-93 0 -170.5 -45.5t-122.5 -124t-45 -173.5q0 -94 45 -172.5t122.5 -124.5t170.5 -46q60 0 114 18t94 49.5t59 70.5h12v-50q-53 -53 -125 -84t-154 -31
q-101 0 -185.5 49.5t-133.5 134.5t-49 186t49 186t133.5 134.5t185.5 49.5q82 0 154 -31t125 -84v-50z" />
    <glyph glyph-name="uni041F042C.dlig" horiz-adv-x="1006" 
d="M574 700v-4q-1 -12 -1.5 -23.5t-0.5 -28v-39.5v-594l-16 16h136q88 0 147 24t88 69t29 108q0 50 -23 90t-63.5 62t-92.5 22q-15 0 -34.5 -2.5t-34.5 -6.5l-5 19q15 6 37.5 9.5t43.5 3.5q58 0 104 -25t72 -70t26 -102q0 -81 -38.5 -132t-103 -73.5t-144.5 -22.5h-160v4
q1 12 1.5 24.5t0.5 30.5v46v584l16 -16h-417l16 16v-594v-39.5t1 -28t2 -23.5v-4h-35v4q1 12 1.5 23.5t0.5 28v39.5v510v39.5t-0.5 28t-1.5 23.5v4h449z" />
    <glyph glyph-name="uni0427042C.dlig" horiz-adv-x="956" 
d="M120 700v-4q-1 -12 -2 -24.5t-1 -30.5v-46v-103q0 -76 46.5 -125.5t133.5 -49.5q55 0 105.5 27t92.5 84l15 -16q-46 -65 -101 -93.5t-119 -28.5q-65 0 -110.5 25.5t-69 69.5t-23.5 99v111v46t-0.5 30.5t-1.5 24.5v4h35zM523 671.5q-1 -12.5 -1 -30.5v-46v-584l-16 16h136
q88 0 147 24t88 69t29 108q0 50 -23 90t-63.5 62t-92.5 22q-15 0 -34.5 -2.5t-34.5 -6.5l-5 19q15 6 37.5 9.5t43.5 3.5q58 0 104 -25t72 -70t26 -102q0 -81 -38.5 -132t-103 -73.5t-144.5 -22.5h-161v4q1 12 2 24.5t1 30.5v46v490v46t-0.5 30.5t-1.5 24.5v4h35v-4
q-1 -12 -2 -24.5z" />
    <glyph glyph-name="uni0428042C.dlig" horiz-adv-x="1207" 
d="M160 700v-4q-1 -12 -2 -24.5t-1 -30.5v-46v-584l-16 16h309l-12 -12v580v46t-0.5 30.5t-1.5 24.5v4h34v-4q-1 -12 -1.5 -24.5t-0.5 -30.5v-46v-580l-12 12h304l-16 -16v584v46t-1 30.5t-2 24.5v4h36v-4q-1 -12 -2 -24.5t-1 -30.5v-46v-584l-16 16h135q88 0 147 24t88 69
t29 108q0 50 -23 90t-63.5 62t-92.5 22q-15 0 -34.5 -2.5t-34.5 -6.5l-5 19q15 6 37.5 9.5t43.5 3.5q58 0 104 -25t72 -70t26 -102q0 -81 -38.5 -132t-103 -73.5t-144.5 -22.5h-776v4q1 12 1.5 24.5t0.5 30.5v46v490v46t-0.5 30.5t-1.5 24.5v4h35z" />
    <glyph glyph-name="uni0306.cy" 
d="M197 912v-1q0 -16 4 -30t11 -25.5t17 -21.5q14 -13 32.5 -20t38.5 -7q28 0 51.5 13.5t37.5 37.5t14 54h30q-2 -58 -38.5 -95t-94.5 -37t-94.5 37t-38.5 95h30z" />
    <glyph glyph-name="uni030C.alt" 
d="M384 926l-136 -149l-10 9l116 165z" />
    </font>
</defs>
</svg>
