<svg width="16" height="16" viewBox="0 0 16 16" fill="none" xmlns="http://www.w3.org/2000/svg">
<g opacity="0.6" clip-path="url(#clip0_418_146)">
<path fill-rule="evenodd" clip-rule="evenodd" d="M11.7201 4.27908L9.85973 9.86022L4.27859 11.7206L6.13897 6.13946L11.7201 4.27908ZM7.19306 7.19355L6.38678 9.61241L8.80564 8.80612L9.61192 6.38726L7.19306 7.19355Z" fill="#9AD7D2"/>
<path fill-rule="evenodd" clip-rule="evenodd" d="M0.666016 7.99984C0.666016 3.94975 3.94926 0.666504 7.99935 0.666504C12.0494 0.666504 15.3327 3.94975 15.3327 7.99984C15.3327 12.0499 12.0494 15.3332 7.99935 15.3332C3.94926 15.3332 0.666016 12.0499 0.666016 7.99984ZM7.99935 1.99984C4.68564 1.99984 1.99935 4.68613 1.99935 7.99984C1.99935 11.3135 4.68564 13.9998 7.99935 13.9998C11.3131 13.9998 13.9993 11.3135 13.9993 7.99984C13.9993 4.68613 11.3131 1.99984 7.99935 1.99984Z" fill="#9AD7D2"/>
</g>
<defs>
<clipPath id="clip0_418_146">
<rect width="16" height="16" fill="white"/>
</clipPath>
</defs>
</svg>
