<svg width="32" height="32" viewBox="0 0 32 32" fill="none" xmlns="http://www.w3.org/2000/svg">
<path d="M20 28L12 25.2L5.8 27.6C5.35556 27.7778 4.94444 27.7278 4.56667 27.45C4.18889 27.1722 4 26.8 4 26.3333V7.66667C4 7.37778 4.08333 7.12222 4.25 6.9C4.41667 6.67778 4.64444 6.51111 4.93333 6.4L12 4L20 6.8L26.2 4.4C26.6444 4.22222 27.0556 4.27222 27.4333 4.55C27.8111 4.82778 28 5.2 28 5.66667V24.3333C28 24.6222 27.9167 24.8778 27.75 25.1C27.5833 25.3222 27.3556 25.4889 27.0667 25.6L20 28ZM18.6667 24.7333V9.13333L13.3333 7.26667V22.8667L18.6667 24.7333ZM21.3333 24.7333L25.3333 23.4V7.6L21.3333 9.13333V24.7333ZM6.66667 24.4L10.6667 22.8667V7.26667L6.66667 8.6V24.4Z" fill="#4C6375"/>
</svg>
