<svg width="32" height="32" viewBox="0 0 32 32" fill="none" xmlns="http://www.w3.org/2000/svg">
<path d="M12.2665 21.3333L15.9998 18.5333L19.6665 21.3333L18.2665 16.7999L21.9998 13.8666H17.4665L15.9998 9.33325L14.5332 13.8666H9.99984L13.6665 16.7999L12.2665 21.3333ZM5.33317 26.6666C4.59984 26.6666 3.97206 26.4055 3.44984 25.8833C2.92762 25.361 2.6665 24.7333 2.6665 23.9999V19.4999C2.6665 19.2555 2.74428 19.0444 2.89984 18.8666C3.05539 18.6888 3.25539 18.5777 3.49984 18.5333C4.03317 18.3555 4.47206 18.0333 4.8165 17.5666C5.16095 17.0999 5.33317 16.5777 5.33317 15.9999C5.33317 15.4221 5.16095 14.8999 4.8165 14.4333C4.47206 13.9666 4.03317 13.6444 3.49984 13.4666C3.25539 13.4221 3.05539 13.311 2.89984 13.1333C2.74428 12.9555 2.6665 12.7444 2.6665 12.4999V7.99992C2.6665 7.26659 2.92762 6.63881 3.44984 6.11659C3.97206 5.59436 4.59984 5.33325 5.33317 5.33325H26.6665C27.3998 5.33325 28.0276 5.59436 28.5498 6.11659C29.0721 6.63881 29.3332 7.26659 29.3332 7.99992V12.4999C29.3332 12.7444 29.2554 12.9555 29.0998 13.1333C28.9443 13.311 28.7443 13.4221 28.4998 13.4666C27.9665 13.6444 27.5276 13.9666 27.1832 14.4333C26.8387 14.8999 26.6665 15.4221 26.6665 15.9999C26.6665 16.5777 26.8387 17.0999 27.1832 17.5666C27.5276 18.0333 27.9665 18.3555 28.4998 18.5333C28.7443 18.5777 28.9443 18.6888 29.0998 18.8666C29.2554 19.0444 29.3332 19.2555 29.3332 19.4999V23.9999C29.3332 24.7333 29.0721 25.361 28.5498 25.8833C28.0276 26.4055 27.3998 26.6666 26.6665 26.6666H5.33317ZM5.33317 23.9999H26.6665V20.5999C25.8443 20.111 25.1943 19.461 24.7165 18.6499C24.2387 17.8388 23.9998 16.9555 23.9998 15.9999C23.9998 15.0444 24.2387 14.161 24.7165 13.3499C25.1943 12.5388 25.8443 11.8888 26.6665 11.3999V7.99992H5.33317V11.3999C6.15539 11.8888 6.80539 12.5388 7.28317 13.3499C7.76095 14.161 7.99984 15.0444 7.99984 15.9999C7.99984 16.9555 7.76095 17.8388 7.28317 18.6499C6.80539 19.461 6.15539 20.111 5.33317 20.5999V23.9999Z" fill="#4C6375"/>
</svg>
