<svg width="32" height="32" viewBox="0 0 32 32" fill="none" xmlns="http://www.w3.org/2000/svg">
<path d="M25.3181 24.9997C24.295 24.9997 23.4471 24.7895 22.7744 24.3691C22.1017 23.9486 21.5972 23.374 21.2609 22.6453C20.9245 21.9025 20.7563 21.0476 20.7563 20.0806V12.4497C20.7563 11.4547 20.9175 10.5858 21.2398 9.84302C21.5622 9.08623 22.0597 8.49762 22.7324 8.07719C23.4051 7.65675 24.267 7.44653 25.3181 7.44653C26.3551 7.44653 27.203 7.65675 27.8617 8.07719C28.5344 8.49762 29.0319 9.08623 29.3542 9.84302C29.6766 10.5858 29.8378 11.4547 29.8378 12.4497V20.0806C29.8378 21.0476 29.6696 21.9025 29.3332 22.6453C28.9969 23.374 28.4924 23.9486 27.8197 24.3691C27.147 24.7895 26.3131 24.9997 25.3181 24.9997ZM25.3181 22.1407C25.6965 22.1407 25.9697 22.0216 26.1379 21.7834C26.3061 21.5451 26.4182 21.2648 26.4743 20.9425C26.5303 20.6062 26.5584 20.2978 26.5584 20.0176V12.5128C26.5584 12.2045 26.5303 11.8821 26.4743 11.5458C26.4322 11.2094 26.3271 10.9221 26.1589 10.6839C25.9908 10.4316 25.7105 10.3055 25.3181 10.3055C24.9257 10.3055 24.6384 10.4316 24.4562 10.6839C24.288 10.9221 24.1759 11.2094 24.1198 11.5458C24.0778 11.8821 24.0568 12.2045 24.0568 12.5128V20.0176C24.0568 20.2978 24.0848 20.6062 24.1409 20.9425C24.1969 21.2648 24.316 21.5451 24.4982 21.7834C24.6804 22.0216 24.9537 22.1407 25.3181 22.1407Z" fill="#4C6375"/>
<path d="M15.3393 25.0002C14.1481 25.0002 13.2371 24.7829 12.6065 24.3485C11.9758 23.914 11.5414 23.3044 11.3031 22.5196C11.0789 21.7348 10.9668 20.8168 10.9668 19.7657H14.099C14.099 20.3824 14.1341 20.9009 14.2041 21.3214C14.2882 21.7418 14.4284 22.0571 14.6246 22.2673C14.8348 22.4776 15.1431 22.5757 15.5495 22.5616C15.956 22.5476 16.2503 22.3935 16.4325 22.0992C16.6146 21.8049 16.7268 21.3844 16.7688 20.8379C16.8108 20.2913 16.8319 19.6466 16.8319 18.9039C16.8319 18.3012 16.7968 17.7687 16.7268 17.3062C16.6567 16.8437 16.5165 16.4793 16.3063 16.2131C16.1101 15.9468 15.8018 15.8137 15.3814 15.8137C15.003 15.8137 14.6876 15.9468 14.4354 16.2131C14.1971 16.4793 14.022 16.8577 13.9098 17.3482H11.135L11.3662 4.21265H14.036V10.4741L13.8468 14.237C14.015 14.0268 14.2952 13.8446 14.6876 13.6905C15.0941 13.5363 15.5285 13.4452 15.991 13.4172C16.8739 13.3331 17.6027 13.5013 18.1773 13.9217C18.7659 14.3421 19.2003 14.9658 19.4806 15.7926C19.7609 16.6055 19.901 17.6005 19.901 18.7777C19.901 19.6747 19.845 20.5085 19.7329 21.2793C19.6208 22.0361 19.4035 22.6948 19.0812 23.2554C18.7589 23.8019 18.2964 24.2294 17.6938 24.5377C17.0911 24.846 16.3063 25.0002 15.3393 25.0002Z" fill="#4C6375"/>
<path d="M5.93529 24.9364C4.8842 24.9364 4.04333 24.7752 3.41267 24.4529C2.78202 24.1165 2.32655 23.626 2.04626 22.9814C1.76597 22.3227 1.62582 21.5238 1.62582 20.5849C1.62582 20.5428 1.62582 20.5008 1.62582 20.4587C1.62582 20.4167 1.62582 20.3747 1.62582 20.3326H4.695C4.695 21.0473 4.76507 21.5799 4.90522 21.9303C5.05938 22.2806 5.40974 22.4558 5.95631 22.4558C6.29266 22.4558 6.55192 22.3507 6.73411 22.1405C6.9163 21.9303 7.04243 21.5729 7.1125 21.0684C7.18258 20.5638 7.21761 19.8841 7.21761 19.0293V17.2845C7.02141 17.5928 6.73411 17.831 6.35572 17.9992C5.97733 18.1674 5.54288 18.2585 5.05237 18.2725C4.14143 18.2865 3.41267 18.0693 2.86611 17.6208C2.31954 17.1583 1.92713 16.5417 1.68889 15.7709C1.46466 15.0001 1.35254 14.1452 1.35254 13.2062C1.35254 12.043 1.49969 11.034 1.794 10.1791C2.0883 9.32421 2.5718 8.65852 3.2445 8.18203C3.93121 7.70553 4.82814 7.46729 5.93529 7.46729C7.0144 7.46729 7.89031 7.69852 8.56301 8.161C9.2357 8.60947 9.72621 9.24012 10.0345 10.053C10.3428 10.8658 10.497 11.8188 10.497 12.9119V19.1133C10.497 20.2205 10.3709 21.2155 10.1186 22.0984C9.86636 22.9814 9.41088 23.6751 8.7522 24.1796C8.09352 24.6841 7.15455 24.9364 5.93529 24.9364ZM5.95631 15.7919C6.27864 15.7919 6.53791 15.7078 6.73411 15.5396C6.94433 15.3575 7.1055 15.1823 7.21761 15.0141V12.3023C7.21761 11.8678 7.18258 11.4684 7.1125 11.1041C7.04243 10.7397 6.9163 10.4454 6.73411 10.2211C6.55192 9.99691 6.28565 9.88479 5.93529 9.88479C5.58492 9.88479 5.31865 10.0039 5.13646 10.2422C4.95427 10.4804 4.82814 10.8168 4.75807 11.2512C4.70201 11.6857 4.67398 12.2112 4.67398 12.8278C4.67398 13.4024 4.695 13.914 4.73704 14.3624C4.77909 14.8109 4.8842 15.1613 5.05237 15.4135C5.23456 15.6658 5.53587 15.7919 5.95631 15.7919Z" fill="#4C6375"/>
<path fill-rule="evenodd" clip-rule="evenodd" d="M11.5438 4.19165C11.5553 3.53018 12.0948 3 12.7564 3H19.14C19.589 3 20.0013 3.24806 20.2116 3.64476C20.4219 4.04146 20.3958 4.52189 20.1438 4.89349L18.9605 6.63838L20.1438 8.38327C20.3958 8.75488 20.4219 9.2353 20.2116 9.63201C20.0013 10.0287 19.589 10.2768 19.14 10.2768H12.6718C12.3465 10.2768 12.0348 10.1461 11.8068 9.91404C11.5787 9.682 11.4535 9.36809 11.4592 9.04282L11.5438 4.19165ZM13.9482 5.42559L13.9059 7.85118H16.8522L16.4913 7.31908C16.2126 6.90808 16.2126 6.36869 16.4913 5.95769L16.8522 5.42559H13.9482Z" fill="#4C6375"/>
</svg>
