<svg width="32" height="32" viewBox="0 0 32 32" fill="none" xmlns="http://www.w3.org/2000/svg">
<path d="M9.33317 28.0001C8.59984 28.0001 7.97206 27.739 7.44984 27.2167C6.92761 26.6945 6.6665 26.0667 6.6665 25.3334V10.6667C6.6665 9.93341 6.92761 9.30564 7.44984 8.78341C7.97206 8.26119 8.59984 8.00008 9.33317 8.00008H11.9998V4.66675C11.9998 4.11119 12.1943 3.63897 12.5832 3.25008C12.9721 2.86119 13.4443 2.66675 13.9998 2.66675H17.9998C18.5554 2.66675 19.0276 2.86119 19.4165 3.25008C19.8054 3.63897 19.9998 4.11119 19.9998 4.66675V8.00008H22.6665C23.3998 8.00008 24.0276 8.26119 24.5498 8.78341C25.0721 9.30564 25.3332 9.93341 25.3332 10.6667V25.3334C25.3332 26.0667 25.0721 26.6945 24.5498 27.2167C24.0276 27.739 23.3998 28.0001 22.6665 28.0001C22.6665 28.3779 22.5387 28.6945 22.2832 28.9501C22.0276 29.2056 21.7109 29.3334 21.3332 29.3334C20.9554 29.3334 20.6387 29.2056 20.3832 28.9501C20.1276 28.6945 19.9998 28.3779 19.9998 28.0001H11.9998C11.9998 28.3779 11.8721 28.6945 11.6165 28.9501C11.3609 29.2056 11.0443 29.3334 10.6665 29.3334C10.2887 29.3334 9.97206 29.2056 9.7165 28.9501C9.46095 28.6945 9.33317 28.3779 9.33317 28.0001ZM9.33317 25.3334H22.6665V10.6667H9.33317V25.3334ZM10.6665 24.0001H12.6665V12.0001H10.6665V24.0001ZM14.9998 24.0001H16.9998V12.0001H14.9998V24.0001ZM19.3332 24.0001H21.3332V12.0001H19.3332V24.0001ZM13.9998 8.00008H17.9998V4.66675H13.9998V8.00008Z" fill="#4C6375"/>
</svg>
